<svg xmlns="http://www.w3.org/2000/svg" version="1.1" width="3300" height="2000"><g id="Notes"><style>
    text {
      font-family: monospace;
      text-anchor: middle;
    }
    text.emphasis {
      font-weight:bold;
    }
    text.lanchor {
      text-anchor: start;
    }
  </style><rect height="2200" id="artboard" fill="white" width="3300" x="0" y="0"/><line id="" style="fill:none;stroke:black;stroke-width:0.5;" x1="263" x2="3036" y1="292" y2="292"/><text class="lanchor emphasis" transform="matrix(1 0 0 1 263 322)">Weight/Scale Variations</text><text transform="matrix(1 0 0 1 559.711 322)">Ultralight</text><text transform="matrix(1 0 0 1 856.422 322)">Thin</text><text transform="matrix(1 0 0 1 1153.13 322)">Light</text><text transform="matrix(1 0 0 1 1449.84 322)">Regular</text><text transform="matrix(1 0 0 1 1746.56 322)">Medium</text><text transform="matrix(1 0 0 1 2043.27 322)">Semibold</text><text transform="matrix(1 0 0 1 2339.98 322)">Bold</text><text transform="matrix(1 0 0 1 2636.69 322)">Heavy</text><text transform="matrix(1 0 0 1 2933.4 322)">Black</text><text id="template-version" style="text-anchor: end;" transform="matrix(1 0 0 1 3036 1933)">Template v.1.0</text><text class="lanchor" transform="matrix(1 0 0 1 263 726)">Small</text><text class="lanchor" transform="matrix(1 0 0 1 263 1156)">Medium</text><text class="lanchor" transform="matrix(1 0 0 1 263 1586)">Large</text></g><g id="Guides"><g id="H-reference" style="fill:#27AAE1;stroke:none;" transform="matrix(1 0 0 1 339 696)"><path d="M 54.9316 0 L 57.666 0 L 30.5664 -70.459 L 28.0762 -70.459 L 0.976562 0 L 3.66211 0 L 12.9395 -24.4629 L 45.7031 -24.4629 Z M 29.1992 -67.0898 L 29.4434 -67.0898 L 44.8242 -26.709 L 13.8184 -26.709 Z"/></g><line id="Baseline-S" style="fill:none;stroke:#27AAE1;opacity:1;stroke-width:0.577;" x1="263" x2="3036" y1="696" y2="696"/><line id="Capline-S" style="fill:none;stroke:#27AAE1;opacity:1;stroke-width:0.577;" x1="263" x2="3036" y1="625.541" y2="625.541"/><g id="H-reference" style="fill:#27AAE1;stroke:none;" transform="matrix(1 0 0 1 339 1126)"><path d="M 54.9316 0 L 57.666 0 L 30.5664 -70.459 L 28.0762 -70.459 L 0.976562 0 L 3.66211 0 L 12.9395 -24.4629 L 45.7031 -24.4629 Z M 29.1992 -67.0898 L 29.4434 -67.0898 L 44.8242 -26.709 L 13.8184 -26.709 Z"/></g><line id="Baseline-M" style="fill:none;stroke:#27AAE1;opacity:1;stroke-width:0.577;" x1="263" x2="3036" y1="1126" y2="1126"/><line id="Capline-M" style="fill:none;stroke:#27AAE1;opacity:1;stroke-width:0.577;" x1="263" x2="3036" y1="1055.54" y2="1055.54"/><g id="H-reference" style="fill:#27AAE1;stroke:none;" transform="matrix(1 0 0 1 339 1556)"><path d="M 54.9316 0 L 57.666 0 L 30.5664 -70.459 L 28.0762 -70.459 L 0.976562 0 L 3.66211 0 L 12.9395 -24.4629 L 45.7031 -24.4629 Z M 29.1992 -67.0898 L 29.4434 -67.0898 L 44.8242 -26.709 L 13.8184 -26.709 Z"/></g><line id="Baseline-L" style="fill:none;stroke:#27AAE1;opacity:1;stroke-width:0.577;" x1="263" x2="3036" y1="1556" y2="1556"/><line id="Capline-L" style="fill:none;stroke:#27AAE1;opacity:1;stroke-width:0.577;" x1="263" x2="3036" y1="1485.54" y2="1485.54"/><rect height="119.336" id="left-margin" style="fill:darkred;stroke:none;opacity:0.4;" width="12.4512" x="1394.06" y="1030.79"/><rect height="119.336" id="right-margin" style="fill:darkgreen;stroke:none;opacity:0.4;" width="12.4512" x="1502.5112" y="1030.79"/><rect x="1406.5112" y="1045" width="96" height="96" fill="none" stroke="blue" stroke-dasharray="5"/><rect x="1394.06" y="1030.79" width="120.9024" height="119.336" fill="none" stroke="blue"/></g><g id="Symbols"><g id="Bold-L" transform="matrix(1 0 0 1 2266 1556)"><path d="M98.685 32.656 Q92.624 32.656 88.238 28.317 Q83.85 23.976 83.85 17.983 V-7.656 Q83.85 -13.482 88.238 -17.905 Q92.624 -22.33 98.685 -22.33 H137.708 Q143.533 -22.33 147.957 -17.905 Q152.381 -13.482 152.381 -7.656 V17.983 Q152.381 23.976 147.957 28.317 Q143.533 32.656 137.708 32.656 H98.685 Z M98.685 17.983 H137.708 Q137.708 17.983 137.708 17.983 Q137.708 17.983 137.708 17.983 V-7.656 Q137.708 -7.656 137.708 -7.656 Q137.708 -7.656 137.708 -7.656 H98.685 Q98.685 -7.656 98.685 -7.656 Q98.685 -7.656 98.685 -7.656 V17.983 Q98.685 17.983 98.685 17.983 Q98.685 17.983 98.685 17.983 Z M93.686 -36.439 Q91.59 -35.391 89.639 -35.869 Q87.688 -36.346 86.43 -38.616 Q84.976 -41.357 82.604 -43.212 Q80.23 -45.066 77.168 -45.066 Q72.941 -45.066 70.171 -42.272 Q67.403 -39.477 67.403 -35.23 Q67.403 -31.844 69.821 -29.425 Q72.24 -27.006 75.626 -25.394 Q78.01 -24.463 78.672 -22.269 Q79.335 -20.072 78.529 -17.815 Q77.561 -15.719 75.546 -15.074 Q73.53 -14.429 71.111 -15.235 Q64.531 -17.234 60.322 -22.775 Q56.115 -28.316 56.115 -35.37 Q56.115 -44.2 62.115 -50.276 Q68.117 -56.354 76.955 -56.354 Q83.224 -56.354 88.375 -52.967 Q93.525 -49.581 96.105 -44.099 Q97.234 -41.878 96.508 -39.684 Q95.782 -37.487 93.686 -36.439 Z M65.688 32.656 Q63.263 32.656 61.04 30.694 Q58.814 28.733 58.373 26.045 L56.115 11.21 Q53.79 10.547 51.108 8.973 Q48.427 7.398 46.601 5.889 L33.056 12.178 Q30.334 13.629 27.372 12.681 Q24.408 11.731 23.059 8.953 L11.933 -11.042 Q10.481 -13.24 10.965 -16.173 Q11.449 -19.105 14.029 -20.879 L26.606 -30.441 Q26.445 -31.162 26.445 -32.674 Q26.445 -34.188 26.445 -35.193 Q26.445 -36.199 26.445 -37.657 Q26.445 -39.115 26.606 -40.067 L14.029 -49.259 Q11.449 -51.194 10.804 -54.016 Q10.159 -56.837 11.933 -59.417 L23.12 -79.604 Q24.51 -81.831 27.304 -82.879 Q30.101 -83.927 32.895 -82.799 L46.924 -76.349 Q48.519 -77.55 51.268 -79.127 Q54.019 -80.702 56.115 -81.347 L58.695 -96.666 Q59.167 -99.569 61.254 -101.423 Q63.341 -103.277 66.274 -103.277 H88.915 Q91.364 -103.277 93.498 -101.433 Q95.633 -99.59 96.428 -96.666 L98.685 -81.509 Q101.139 -80.881 103.782 -79.259 Q106.425 -77.639 108.199 -76.349 L122.066 -82.799 Q124.906 -83.927 127.591 -82.873 Q130.275 -81.82 131.691 -79.6 L143.079 -59.392 Q144.48 -56.837 143.838 -53.895 Q143.195 -50.953 140.771 -49.259 L124.904 -38.115 Q124.904 -38.115 124.904 -38.115 Q124.904 -38.115 124.904 -38.115 Q122.228 -36.52 119.433 -36.87 Q116.637 -37.218 114.891 -39.584 Q113.198 -42.164 113.417 -45.105 Q113.636 -48.046 116.261 -49.904 L127.065 -57.482 L121.905 -66.996 L104.842 -59.417 Q101.104 -63.932 96.181 -67.043 Q91.259 -70.155 85.354 -70.705 L83.205 -88.442 H71.579 L69.499 -70.705 Q63.873 -69.576 58.784 -66.674 Q53.696 -63.771 49.826 -59.579 L33.101 -66.996 L27.896 -57.482 L42.731 -46.84 Q41.925 -44.099 41.522 -41.232 Q41.119 -38.366 41.119 -35.141 Q41.119 -32.005 41.522 -29.102 Q41.925 -26.2 42.731 -23.781 L27.896 -12.977 L33.056 -3.464 L49.791 -11.042 Q53.949 -6.577 59.226 -3.569 Q64.5 -0.561 70.466 0.729 V27.804 Q70.466 29.971 69.565 31.315 Q68.665 32.656 65.688 32.656 Z"/></g><g id="Semibold-L" transform="matrix(1 0 0 1 1970.27 1556)"><path d="M97.353 32.306 Q91.914 32.306 87.881 28.301 Q83.85 24.295 83.85 18.894 V-8.919 Q83.85 -14.224 87.881 -18.278 Q91.914 -22.33 97.353 -22.33 H138.619 Q143.925 -22.33 147.978 -18.278 Q152.031 -14.224 152.031 -8.919 V18.894 Q152.031 24.295 147.978 28.301 Q143.925 32.306 138.619 32.306 H97.353 Z M97.353 18.894 H138.619 Q138.619 18.894 138.619 18.894 Q138.619 18.894 138.619 18.894 V-8.919 Q138.619 -8.919 138.619 -8.919 Q138.619 -8.919 138.619 -8.919 H97.353 Q97.353 -8.919 97.353 -8.919 Q97.353 -8.919 97.353 -8.919 V18.894 Q97.353 18.894 97.353 18.894 Q97.353 18.894 97.353 18.894 Z M94.562 -36.684 Q92.432 -35.601 90.361 -36.146 Q88.291 -36.689 87.06 -38.966 Q85.459 -41.848 82.947 -43.842 Q80.435 -45.837 77.198 -45.837 Q72.73 -45.837 69.716 -42.841 Q66.701 -39.843 66.701 -35.386 Q66.701 -31.844 69.05 -29.215 Q71.398 -26.585 74.855 -25.044 Q77.168 -24.113 77.971 -21.882 Q78.774 -19.652 77.898 -17.43 Q76.931 -15.298 74.844 -14.548 Q72.759 -13.798 70.34 -14.605 Q63.603 -16.757 59.403 -22.515 Q55.204 -28.274 55.204 -35.415 Q55.204 -44.618 61.478 -50.978 Q67.751 -57.336 76.976 -57.336 Q83.505 -57.336 88.9 -53.809 Q94.296 -50.283 97.016 -44.52 Q98.075 -42.299 97.384 -40.034 Q96.694 -37.768 94.562 -36.684 Z M65.801 32.306 Q63.381 32.306 61.393 30.507 Q59.403 28.707 59.003 26.114 L56.676 11.07 Q54.24 10.275 51.371 8.633 Q48.501 6.99 46.461 5.328 L32.495 11.757 Q29.976 13.068 27.284 12.181 Q24.592 11.294 23.339 8.812 L12.142 -11.392 Q10.831 -13.477 11.281 -16.08 Q11.729 -18.684 14.098 -20.318 L26.956 -30.089 Q26.795 -30.96 26.761 -32.573 Q26.726 -34.185 26.726 -35.304 Q26.726 -36.425 26.761 -37.981 Q26.795 -39.539 26.956 -40.629 L14.098 -50.03 Q11.799 -51.755 11.225 -54.296 Q10.649 -56.837 12.213 -59.208 L23.444 -79.451 Q24.72 -81.551 27.271 -82.459 Q29.82 -83.366 32.405 -82.378 L46.503 -75.859 Q48.386 -77.308 51.342 -79.006 Q54.299 -80.702 56.676 -81.488 L59.256 -97.016 Q59.658 -99.569 61.61 -101.247 Q63.563 -102.928 66.204 -102.928 H88.886 Q91.153 -102.928 93.144 -101.254 Q95.138 -99.58 95.797 -97.016 L98.124 -81.578 Q100.704 -80.802 103.634 -79.08 Q106.565 -77.358 108.479 -75.859 L122.556 -82.378 Q125.165 -83.437 127.599 -82.491 Q130.032 -81.544 131.362 -79.448 L142.776 -59.193 Q144.059 -56.837 143.487 -54.193 Q142.913 -51.548 140.702 -50.03 L124.791 -38.684 Q124.791 -38.684 124.791 -38.684 Q124.791 -38.684 124.791 -38.684 Q122.437 -37.15 119.841 -37.489 Q117.245 -37.826 115.626 -40.005 Q114.039 -42.304 114.257 -45.024 Q114.475 -47.745 116.822 -49.483 L128.047 -57.482 L122.395 -67.907 L105.32 -60.469 Q101.594 -64.844 96.703 -67.885 Q91.813 -70.926 85.933 -71.616 L83.835 -89.425 H70.955 L68.868 -71.616 Q63.163 -70.418 58.15 -67.549 Q53.135 -64.682 49.336 -60.561 L32.611 -67.907 L26.774 -57.482 L41.68 -46.63 Q40.943 -43.818 40.54 -41.041 Q40.137 -38.265 40.137 -35.286 Q40.137 -32.355 40.54 -29.523 Q40.943 -26.69 41.68 -23.991 L26.774 -13.047 L32.566 -2.622 L49.386 -10.131 Q53.559 -5.784 58.819 -2.857 Q64.079 0.069 69.976 1.43 V27.999 Q69.976 29.918 69.071 31.111 Q68.168 32.306 65.801 32.306 Z"/></g><g id="Medium-L" transform="matrix(1 0 0 1 1674.31 1556)"><path d="M96.353 32.044 Q91.38 32.044 87.615 28.29 Q83.85 24.536 83.85 19.577 V-9.865 Q83.85 -14.782 87.615 -18.557 Q91.38 -22.33 96.353 -22.33 H139.302 Q144.22 -22.33 147.994 -18.557 Q151.769 -14.782 151.769 -9.865 V19.577 Q151.769 24.536 147.994 28.29 Q144.22 32.044 139.302 32.044 H96.353 Z M96.353 19.577 H139.302 Q139.302 19.577 139.302 19.577 Q139.302 19.577 139.302 19.577 V-9.865 Q139.302 -9.865 139.302 -9.865 Q139.302 -9.865 139.302 -9.865 H96.353 Q96.353 -9.865 96.353 -9.865 Q96.353 -9.865 96.353 -9.865 V19.577 Q96.353 19.577 96.353 19.577 Q96.353 19.577 96.353 19.577 Z M95.22 -36.868 Q93.062 -35.759 90.903 -36.352 Q88.742 -36.946 87.535 -39.229 Q85.822 -42.217 83.205 -44.316 Q80.588 -46.416 77.221 -46.416 Q72.572 -46.416 69.375 -43.267 Q66.175 -40.117 66.175 -35.504 Q66.175 -31.844 68.472 -29.057 Q70.768 -26.269 74.277 -24.781 Q76.537 -23.851 77.445 -21.593 Q78.353 -19.336 77.424 -17.141 Q76.457 -14.982 74.319 -14.153 Q72.18 -13.324 69.762 -14.13 Q62.907 -16.401 58.714 -22.322 Q54.52 -28.243 54.52 -35.451 Q54.52 -44.932 60.999 -51.502 Q67.477 -58.071 76.992 -58.071 Q83.716 -58.071 89.295 -54.44 Q94.875 -50.808 97.7 -44.836 Q98.706 -42.615 98.042 -40.296 Q97.377 -37.978 95.22 -36.868 Z M65.887 32.044 Q63.468 32.044 61.657 30.365 Q59.845 28.688 59.477 26.168 L57.097 10.965 Q54.578 10.07 51.568 8.377 Q48.557 6.685 46.356 4.907 L32.074 11.441 Q29.707 12.647 27.219 11.807 Q24.731 10.967 23.549 8.707 L12.3 -11.655 Q11.094 -13.653 11.516 -16.011 Q11.939 -18.368 14.151 -19.897 L27.219 -29.827 Q27.058 -30.81 26.996 -32.495 Q26.935 -34.182 26.935 -35.388 Q26.935 -36.594 26.996 -38.224 Q27.058 -39.856 27.219 -41.05 L14.151 -50.608 Q12.062 -52.176 11.541 -54.506 Q11.018 -56.837 12.423 -59.05 L23.686 -79.335 Q24.878 -81.341 27.243 -82.142 Q29.609 -82.945 32.036 -82.062 L46.187 -75.489 Q48.286 -77.128 51.398 -78.914 Q54.509 -80.702 57.097 -81.593 L59.677 -97.279 Q60.027 -99.569 61.88 -101.117 Q63.732 -102.665 66.151 -102.665 H88.865 Q90.995 -102.665 92.88 -101.118 Q94.765 -99.574 95.323 -97.279 L97.703 -81.631 Q100.377 -80.744 103.523 -78.946 Q106.67 -77.149 108.689 -75.489 L122.926 -82.062 Q125.362 -83.068 127.605 -82.204 Q129.848 -81.338 131.116 -79.335 L142.55 -59.043 Q143.743 -56.837 143.222 -54.416 Q142.7 -51.995 140.649 -50.608 L124.708 -39.11 Q124.708 -39.11 124.708 -39.11 Q124.708 -39.11 124.708 -39.11 Q122.595 -37.625 120.149 -37.954 Q117.701 -38.282 116.179 -40.321 Q114.67 -42.409 114.886 -44.965 Q115.102 -47.52 117.243 -49.167 L128.782 -57.482 L122.764 -68.591 L105.678 -61.257 Q101.963 -65.527 97.095 -68.517 Q92.229 -71.505 86.369 -72.3 L84.31 -90.16 H70.487 L68.394 -72.3 Q62.633 -71.048 57.674 -68.207 Q52.714 -65.366 48.967 -61.296 L32.244 -68.591 L25.934 -57.482 L40.891 -46.472 Q40.208 -43.609 39.805 -40.898 Q39.401 -38.189 39.401 -35.394 Q39.401 -32.618 39.805 -29.839 Q40.208 -27.059 40.891 -24.149 L25.934 -13.1 L32.197 -1.992 L49.081 -9.448 Q53.266 -5.189 58.514 -2.324 Q63.763 0.543 69.607 1.956 V28.146 Q69.607 29.878 68.701 30.96 Q67.794 32.044 65.887 32.044 Z"/></g><g id="Regular-L" transform="matrix(1 0 0 1 1378.56 1556)"><path d="M95.621 31.85 Q90.99 31.85 87.42 28.28 Q83.85 24.71 83.85 20.079 V-10.559 Q83.85 -15.191 87.42 -18.76 Q90.99 -22.33 95.621 -22.33 H139.804 Q144.435 -22.33 148.005 -18.76 Q151.575 -15.191 151.575 -10.559 V20.079 Q151.575 24.71 148.005 28.28 Q144.435 31.85 139.804 31.85 H95.621 Z M95.621 20.079 H139.804 Q139.804 20.079 139.804 20.079 Q139.804 20.079 139.804 20.079 V-10.559 Q139.804 -10.559 139.804 -10.559 Q139.804 -10.559 139.804 -10.559 H95.621 Q95.621 -10.559 95.621 -10.559 Q95.621 -10.559 95.621 -10.559 V20.079 Q95.621 20.079 95.621 20.079 Q95.621 20.079 95.621 20.079 Z M95.702 -37.004 Q93.525 -35.875 91.3 -36.504 Q89.075 -37.134 87.881 -39.422 Q86.088 -42.486 83.394 -44.663 Q80.699 -46.84 77.239 -46.84 Q72.458 -46.84 69.123 -43.58 Q65.79 -40.319 65.79 -35.59 Q65.79 -31.844 68.047 -28.941 Q70.305 -26.039 73.853 -24.587 Q76.075 -23.657 77.06 -21.382 Q78.045 -19.105 77.078 -16.928 Q76.11 -14.751 73.933 -13.864 Q71.756 -12.977 69.338 -13.784 Q62.397 -16.138 58.208 -22.178 Q54.019 -28.219 54.019 -35.475 Q54.019 -45.163 60.648 -51.887 Q67.277 -58.611 77.003 -58.611 Q83.869 -58.611 89.584 -54.902 Q95.299 -51.194 98.201 -45.066 Q99.169 -42.846 98.524 -40.49 Q97.879 -38.132 95.702 -37.004 Z M65.95 31.85 Q63.532 31.85 61.851 30.262 Q60.169 28.675 59.824 26.206 L57.405 10.888 Q54.825 9.92 51.711 8.19 Q48.598 6.461 46.279 4.599 L31.766 11.21 Q29.509 12.339 27.171 11.533 Q24.832 10.726 23.704 8.63 L12.416 -11.849 Q11.287 -13.784 11.691 -15.961 Q12.094 -18.137 14.19 -19.589 L27.413 -29.635 Q27.251 -30.699 27.171 -32.439 Q27.09 -34.18 27.09 -35.449 Q27.09 -36.718 27.171 -38.403 Q27.251 -40.088 27.413 -41.357 L14.19 -51.032 Q12.255 -52.484 11.771 -54.661 Q11.287 -56.837 12.578 -58.934 L23.865 -79.251 Q24.994 -81.186 27.224 -81.912 Q29.456 -82.637 31.766 -81.831 L45.956 -75.22 Q48.214 -76.994 51.439 -78.848 Q54.664 -80.702 57.405 -81.67 L59.985 -97.472 Q60.296 -99.569 62.076 -101.02 Q63.855 -102.471 66.112 -102.471 H88.849 Q90.881 -102.471 92.686 -101.02 Q94.493 -99.569 94.976 -97.472 L97.395 -81.67 Q100.136 -80.702 103.442 -78.848 Q106.748 -76.994 108.844 -75.22 L123.195 -81.831 Q125.506 -82.799 127.61 -81.992 Q129.714 -81.186 130.935 -79.251 L142.384 -58.934 Q143.513 -56.837 143.029 -54.58 Q142.545 -52.322 140.61 -51.032 L124.646 -39.422 Q124.646 -39.422 124.646 -39.422 Q124.646 -39.422 124.646 -39.422 Q122.711 -37.971 120.373 -38.294 Q118.035 -38.616 116.584 -40.551 Q115.133 -42.486 115.347 -44.921 Q115.563 -47.354 117.551 -48.936 L129.322 -57.482 L123.034 -69.092 L105.941 -61.836 Q102.233 -66.029 97.384 -68.978 Q92.533 -71.929 86.688 -72.801 L84.656 -90.7 H70.144 L68.047 -72.801 Q62.242 -71.511 57.324 -68.689 Q52.406 -65.867 48.697 -61.836 L31.973 -69.092 L25.316 -57.482 L40.312 -46.356 Q39.668 -43.454 39.264 -40.793 Q38.861 -38.132 38.861 -35.475 Q38.861 -32.811 39.264 -30.07 Q39.668 -27.329 40.312 -24.265 L25.316 -13.139 L31.928 -1.529 L48.859 -8.946 Q53.051 -4.754 58.292 -1.932 Q63.532 0.89 69.338 2.341 V28.254 Q69.338 29.849 68.43 30.849 Q67.522 31.85 65.95 31.85 Z"/></g><g id="Light-L" transform="matrix(1 0 0 1 1082.77 1556)"><path d="M95.249 28.625 Q90.693 28.625 87.272 25.203 Q83.85 21.782 83.85 17.226 V-10.931 Q83.85 -15.487 87.272 -18.908 Q90.693 -22.33 95.249 -22.33 H136.951 Q141.507 -22.33 144.928 -18.908 Q148.35 -15.487 148.35 -10.931 V17.226 Q148.35 21.782 144.928 25.203 Q141.507 28.625 136.951 28.625 H95.249 Z M95.249 19.21 H136.951 Q137.819 19.21 138.377 18.652 Q138.935 18.094 138.935 17.226 V-10.931 Q138.935 -11.799 138.377 -12.357 Q137.819 -12.916 136.951 -12.916 H95.249 Q94.381 -12.916 93.823 -12.357 Q93.264 -11.799 93.264 -10.931 V17.226 Q93.264 18.094 93.823 18.652 Q94.381 19.21 95.249 19.21 Z M93.531 -37.749 Q91.85 -36.805 90.09 -37.279 Q88.33 -37.754 87.323 -39.547 Q85.53 -42.362 82.968 -44.384 Q80.404 -46.406 77.052 -46.406 Q72.451 -46.406 69.246 -43.252 Q66.038 -40.1 66.038 -35.528 Q66.038 -32.078 68.078 -29.369 Q70.12 -26.66 73.295 -25.145 Q75.081 -24.402 75.788 -22.559 Q76.494 -20.717 75.713 -19.007 Q74.931 -17.294 73.158 -16.656 Q71.384 -16.017 69.462 -16.699 Q63.576 -18.805 60.099 -24.028 Q56.625 -29.251 56.625 -35.414 Q56.625 -44.004 62.446 -49.912 Q68.267 -55.82 76.908 -55.82 Q82.876 -55.82 87.847 -52.608 Q92.817 -49.396 95.349 -44.197 Q96.192 -42.412 95.702 -40.551 Q95.212 -38.69 93.531 -37.749 Z M66.632 28.625 Q64.818 28.625 63.547 27.387 Q62.276 26.15 61.994 24.221 L59.762 8.593 Q56.934 7.625 53.387 5.678 Q49.839 3.731 47.333 1.559 L32.697 8.17 Q30.936 9.051 29.098 8.44 Q27.261 7.829 26.432 6.148 L15.89 -12.779 Q15.07 -14.28 15.33 -15.936 Q15.59 -17.592 17.291 -18.72 L30.452 -28.765 Q30.291 -30.078 30.147 -31.974 Q30.005 -33.871 30.005 -35.356 Q30.005 -36.842 30.147 -38.682 Q30.291 -40.522 30.452 -42.227 L17.291 -51.902 Q15.728 -53.042 15.43 -54.722 Q15.133 -56.404 16.112 -58.065 L26.593 -76.645 Q27.438 -78.129 29.16 -78.677 Q30.881 -79.225 32.697 -78.668 L46.948 -72.18 Q49.578 -74.265 53.114 -76.305 Q56.649 -78.345 59.7 -79.375 L62.218 -95.363 Q62.528 -96.973 63.937 -98.109 Q65.347 -99.246 67.104 -99.246 H87.857 Q89.387 -99.246 90.824 -98.109 Q92.261 -96.973 92.743 -95.363 L95.038 -79.313 Q98.275 -78.16 101.675 -76.212 Q105.072 -74.265 107.604 -72.18 L122.389 -78.668 Q124.142 -79.387 125.775 -78.75 Q127.408 -78.111 128.329 -76.645 L138.91 -58.003 Q139.73 -56.341 139.396 -54.615 Q139.064 -52.89 137.509 -51.902 L121.173 -39.98 Q121.173 -39.98 121.173 -39.98 Q121.173 -39.98 121.173 -39.98 Q119.61 -38.777 117.737 -39.069 Q115.865 -39.361 114.723 -40.861 Q113.581 -42.362 113.734 -44.331 Q113.888 -46.3 115.505 -47.572 L128.392 -57.049 L122.103 -68.472 L105.072 -61.34 Q101.675 -65.16 96.702 -68.204 Q91.727 -71.247 86.44 -71.995 L84.471 -89.831 H70.329 L68.357 -72.056 Q62.676 -70.829 58.006 -68.162 Q53.337 -65.495 49.442 -61.402 L32.903 -68.472 L26.247 -57.049 L40.995 -46.108 Q40.288 -43.392 39.916 -40.762 Q39.543 -38.132 39.543 -35.459 Q39.543 -32.782 39.916 -30.149 Q40.288 -27.514 40.933 -24.575 L26.247 -13.573 L32.858 -2.15 L49.541 -9.38 Q53.609 -5.276 58.726 -2.566 Q63.842 0.145 69.523 1.596 V25.587 Q69.523 27.006 68.709 27.816 Q67.894 28.625 66.632 28.625 Z"/></g><g id="Thin-L" transform="matrix(1 0 0 1 787.282 1556)"><path d="M94.876 25.4 Q90.397 25.4 87.123 22.127 Q83.85 18.853 83.85 14.374 V-11.304 Q83.85 -15.783 87.123 -19.057 Q90.397 -22.33 94.876 -22.33 H134.099 Q138.578 -22.33 141.852 -19.057 Q145.125 -15.783 145.125 -11.304 V14.374 Q145.125 18.853 141.852 22.127 Q138.578 25.4 134.099 25.4 H94.876 Z M94.876 18.342 H134.099 Q135.834 18.342 136.951 17.226 Q138.067 16.109 138.067 14.374 V-11.304 Q138.067 -13.039 136.951 -14.156 Q135.834 -15.272 134.099 -15.272 H94.876 Q93.141 -15.272 92.024 -14.156 Q90.908 -13.039 90.908 -11.304 V14.374 Q90.908 16.109 92.024 17.226 Q93.141 18.342 94.876 18.342 Z M91.361 -38.492 Q90.176 -37.736 88.881 -38.055 Q87.586 -38.374 86.765 -39.671 Q84.972 -42.238 82.541 -44.105 Q80.109 -45.972 76.866 -45.972 Q72.446 -45.972 69.367 -42.925 Q66.287 -39.879 66.287 -35.465 Q66.287 -32.311 68.109 -29.794 Q69.933 -27.279 72.737 -25.703 Q74.09 -25.145 74.517 -23.738 Q74.944 -22.33 74.349 -21.084 Q73.753 -19.837 72.382 -19.447 Q71.011 -19.055 69.586 -19.613 Q64.755 -21.472 61.991 -25.876 Q59.229 -30.281 59.229 -35.351 Q59.229 -42.846 64.242 -47.938 Q69.255 -53.029 76.813 -53.029 Q81.883 -53.029 86.109 -50.313 Q90.337 -47.596 92.496 -43.33 Q93.215 -41.978 92.88 -40.614 Q92.545 -39.248 91.361 -38.492 Z M67.314 25.4 Q66.101 25.4 65.243 24.512 Q64.384 23.625 64.165 22.236 L62.118 6.298 Q59.042 5.331 55.06 3.167 Q51.079 1.003 48.388 -1.479 L33.627 5.132 Q32.361 5.765 31.026 5.349 Q29.689 4.933 29.162 3.668 L19.363 -13.71 Q18.853 -14.775 18.969 -15.911 Q19.086 -17.046 20.392 -17.852 L33.49 -27.898 Q33.329 -29.459 33.124 -31.51 Q32.919 -33.559 32.919 -35.264 Q32.919 -36.967 33.124 -38.961 Q33.329 -40.956 33.49 -43.094 L20.392 -52.769 Q19.202 -53.6 19.089 -54.785 Q18.978 -55.97 19.648 -57.197 L29.323 -74.041 Q29.881 -75.072 31.095 -75.444 Q32.308 -75.815 33.627 -75.505 L47.941 -69.142 Q50.942 -71.535 54.788 -73.762 Q58.634 -75.989 61.994 -77.081 L64.45 -93.256 Q64.76 -94.376 65.8 -95.199 Q66.838 -96.021 68.097 -96.021 H86.864 Q87.896 -96.021 88.963 -95.199 Q90.029 -94.376 90.511 -93.256 L92.682 -76.957 Q96.415 -75.617 99.907 -73.577 Q103.398 -71.535 106.364 -69.142 L121.583 -75.505 Q122.777 -75.976 123.94 -75.507 Q125.104 -75.036 125.725 -74.041 L135.437 -57.073 Q135.947 -55.846 135.764 -54.653 Q135.584 -53.459 134.408 -52.769 L117.7 -40.538 Q117.7 -40.538 117.7 -40.538 Q117.7 -40.538 117.7 -40.538 Q116.51 -39.584 115.102 -39.845 Q113.694 -40.105 112.862 -41.172 Q112.032 -42.238 112.122 -43.742 Q112.214 -45.245 113.459 -46.208 L127.462 -56.615 L121.173 -67.852 L104.205 -60.845 Q101.117 -64.292 96.02 -67.428 Q90.921 -70.565 86.191 -71.189 L84.284 -88.963 H70.516 L68.668 -71.313 Q63.11 -70.147 58.689 -67.635 Q54.267 -65.123 50.186 -60.969 L33.833 -67.852 L27.177 -56.615 L41.677 -45.86 Q40.908 -43.33 40.567 -40.732 Q40.225 -38.132 40.225 -35.444 Q40.225 -32.752 40.567 -30.226 Q40.908 -27.701 41.553 -24.886 L27.177 -14.006 L33.788 -2.769 L50.223 -9.814 Q54.167 -5.799 59.159 -3.199 Q64.153 -0.598 69.71 0.853 V22.92 Q69.71 24.165 68.988 24.782 Q68.265 25.4 67.314 25.4 Z"/></g><g id="Ultralight-L" transform="matrix(1 0 0 1 491.205 1556)"><path d="M94.654 23.465 Q90.219 23.465 87.035 20.28 Q83.85 17.096 83.85 12.661 V-11.526 Q83.85 -15.961 87.035 -19.145 Q90.219 -22.33 94.654 -22.33 H132.386 Q136.821 -22.33 140.005 -19.145 Q143.19 -15.961 143.19 -11.526 V12.661 Q143.19 17.096 140.005 20.28 Q136.821 23.465 132.386 23.465 H94.654 Z M94.654 17.821 H132.386 Q134.644 17.821 136.095 16.37 Q137.546 14.919 137.546 12.661 V-11.526 Q137.546 -13.784 136.095 -15.235 Q134.644 -16.686 132.386 -16.686 H94.654 Q92.396 -16.686 90.945 -15.235 Q89.494 -13.784 89.494 -11.526 V12.661 Q89.494 14.919 90.945 16.37 Q92.396 17.821 94.654 17.821 Z M90.058 -38.939 Q89.171 -38.294 88.155 -38.519 Q87.139 -38.747 86.43 -39.745 Q84.637 -42.164 82.284 -43.937 Q79.932 -45.711 76.755 -45.711 Q72.443 -45.711 69.439 -42.73 Q66.435 -39.748 66.435 -35.428 Q66.435 -32.452 68.128 -30.051 Q69.821 -27.651 72.401 -26.039 Q73.495 -25.592 73.754 -24.446 Q74.014 -23.297 73.53 -22.33 Q73.046 -21.362 71.918 -21.121 Q70.789 -20.879 69.66 -21.362 Q65.461 -23.072 63.126 -26.985 Q60.791 -30.899 60.791 -35.314 Q60.791 -42.149 65.321 -46.753 Q69.85 -51.355 76.757 -51.355 Q81.286 -51.355 85.067 -48.936 Q88.849 -46.517 90.784 -42.809 Q91.429 -41.717 91.187 -40.651 Q90.945 -39.584 90.058 -38.939 Z M67.723 23.465 Q66.872 23.465 66.261 22.786 Q65.648 22.109 65.468 21.046 L63.532 4.921 Q60.308 3.954 56.065 1.659 Q51.823 -0.634 49.02 -3.302 L34.185 3.309 Q33.218 3.793 32.182 3.494 Q31.147 3.194 30.799 2.18 L21.446 -14.267 Q21.124 -15.074 21.153 -15.896 Q21.182 -16.718 22.253 -17.331 L35.314 -27.377 Q35.153 -29.086 34.911 -31.229 Q34.669 -33.374 34.669 -35.207 Q34.669 -37.041 34.911 -39.129 Q35.153 -41.217 35.314 -43.615 L22.253 -53.29 Q21.285 -53.935 21.285 -54.822 Q21.285 -55.709 21.769 -56.676 L30.96 -72.479 Q31.349 -73.238 32.256 -73.503 Q33.164 -73.769 34.185 -73.607 L48.536 -67.319 Q51.761 -69.899 55.793 -72.237 Q59.824 -74.575 63.371 -75.704 L65.79 -91.99 Q66.1 -92.82 66.916 -93.453 Q67.733 -94.086 68.692 -94.086 H86.269 Q87.001 -94.086 87.846 -93.453 Q88.689 -92.82 89.171 -91.99 L91.267 -75.542 Q95.299 -74.091 98.846 -71.995 Q102.394 -69.899 105.619 -67.319 L121.099 -73.607 Q121.958 -73.93 122.84 -73.561 Q123.721 -73.19 124.163 -72.479 L133.354 -56.515 Q133.676 -55.547 133.586 -54.674 Q133.496 -53.8 132.548 -53.29 L115.616 -40.874 Q115.616 -40.874 115.616 -40.874 Q115.616 -40.874 115.616 -40.874 Q114.649 -40.067 113.52 -40.309 Q112.391 -40.551 111.746 -41.357 Q111.101 -42.164 111.154 -43.389 Q111.209 -44.613 112.23 -45.389 L126.904 -56.354 L120.615 -67.48 L103.684 -60.546 Q100.781 -63.771 95.61 -66.962 Q90.437 -70.155 86.043 -70.705 L84.172 -88.442 H70.627 L68.854 -70.866 Q63.371 -69.737 59.098 -67.319 Q54.825 -64.9 50.633 -60.707 L34.391 -67.48 L27.735 -56.354 L42.086 -45.711 Q41.28 -43.292 40.958 -40.712 Q40.635 -38.132 40.635 -35.435 Q40.635 -32.734 40.958 -30.273 Q41.28 -27.812 41.925 -25.071 L27.735 -14.267 L34.346 -3.141 L50.633 -10.075 Q54.503 -6.111 59.421 -3.578 Q64.339 -1.045 69.821 0.406 V21.32 Q69.821 22.459 69.155 22.962 Q68.489 23.465 67.723 23.465 Z"/></g><g id="Bold-M" transform="matrix(1 0 0 1 2281.8 1126)"><path d="M82 20.52 Q74.86 20.52 69.93 15.59 Q65 10.66 65 3.52 V-8.23 Q65 -15.371 69.93 -20.3 Q74.86 -25.23 82 -25.23 H104.875 Q112.016 -25.23 116.945 -20.3 Q121.875 -15.371 121.875 -8.23 V3.52 Q121.875 10.66 116.945 15.59 Q112.016 20.52 104.875 20.52 H82 Z M82 3.52 H104.875 Q104.875 3.52 104.875 3.52 Q104.875 3.52 104.875 3.52 V-8.23 Q104.875 -8.23 104.875 -8.23 Q104.875 -8.23 104.875 -8.23 H82 Q82 -8.23 82 -8.23 Q82 -8.23 82 -8.23 V3.52 Q82 3.52 82 3.52 Q82 3.52 82 3.52 Z M74.375 -34.417 Q71.875 -33.23 69.362 -34.1 Q66.85 -34.97 65.5 -37.48 Q64.61 -39.285 63.124 -40.382 Q61.638 -41.48 59.766 -41.48 Q57.169 -41.48 55.396 -39.724 Q53.625 -37.967 53.625 -35.384 Q53.625 -33.23 55.125 -31.792 Q56.625 -30.355 58.5 -29.355 Q61.125 -27.98 61.875 -25.355 Q62.625 -22.73 61.375 -20.105 Q60 -17.605 57.438 -16.917 Q54.875 -16.23 52.25 -17.355 Q46.899 -19.78 43.574 -24.567 Q40.25 -29.355 40.25 -35.355 Q40.25 -43.434 45.939 -49.144 Q51.626 -54.855 59.672 -54.855 Q65.5 -54.855 70.188 -51.73 Q74.875 -48.605 77.375 -43.355 Q78.5 -40.855 77.688 -38.23 Q76.875 -35.605 74.375 -34.417 Z M48.328 20.52 Q45.416 20.52 43.134 18.616 Q40.851 16.713 40.5 13.77 L39.125 2.895 Q38.697 2.631 38.31 2.383 Q37.922 2.134 37.5 1.895 L29.375 5.27 Q25.75 6.895 22 5.645 Q18.25 4.395 16.375 0.895 L7 -15.855 Q5.125 -19.184 5.812 -22.957 Q6.5 -26.73 9.625 -29.105 L16.375 -34.355 Q16.375 -34.571 16.438 -34.844 Q16.5 -35.116 16.5 -35.347 Q16.5 -35.58 16.438 -35.81 Q16.375 -36.039 16.375 -36.23 L9.75 -41.23 Q6.5 -43.605 5.75 -47.417 Q5 -51.23 7 -54.73 L16.375 -71.23 Q18.375 -74.605 22 -75.855 Q25.625 -77.105 29.25 -75.605 L37.5 -72.355 Q37.986 -72.536 38.43 -72.759 Q38.875 -72.98 39.25 -73.23 L40.375 -81.98 Q41 -85.98 43.875 -88.542 Q46.75 -91.105 50.625 -91.105 H69.375 Q73.25 -91.105 76.125 -88.542 Q79 -85.98 79.625 -81.98 L80.75 -73.23 Q81.302 -73 81.776 -72.74 Q82.25 -72.48 82.75 -72.23 L90.625 -75.605 Q94.285 -77.23 97.949 -75.912 Q101.614 -74.596 103.625 -71.23 L113 -54.73 Q115 -51.23 114.188 -47.417 Q113.375 -43.605 110.125 -41.23 L100.75 -34.355 Q100.75 -34.355 100.75 -34.355 Q100.75 -34.355 100.75 -34.355 Q97.875 -32.355 94.438 -32.855 Q91 -33.355 88.812 -36.167 Q86.75 -39.105 87.233 -42.51 Q87.715 -45.915 90.625 -48.105 L95.375 -51.605 L91.75 -57.855 L79.647 -52.605 Q76.875 -55.98 73.201 -58.141 Q69.526 -60.304 65.25 -61.105 L63.625 -74.105 H56.25 L54.875 -61.355 Q50.5 -60.355 46.688 -58.167 Q42.875 -55.98 40 -52.73 L28.125 -57.855 L24.625 -51.605 L34.75 -43.98 Q34 -41.605 33.688 -39.57 Q33.375 -37.536 33.375 -35.295 Q33.375 -33.23 33.688 -31.105 Q34 -28.98 34.75 -26.605 L24.625 -18.98 L28.125 -12.73 L39.972 -17.855 Q42.946 -14.874 46.536 -12.677 Q50.125 -10.48 54.25 -9.355 V14.414 Q54.25 16.99 52.943 18.755 Q51.636 20.52 48.328 20.52 Z"/></g><g id="Semibold-M" transform="matrix(1 0 0 1 1985.97 1126)"><path d="M80.37 19.759 Q73.957 19.759 69.479 15.28 Q65 10.803 65 4.39 V-9.86 Q65 -16.272 69.479 -20.751 Q73.957 -25.23 80.37 -25.23 H105.69 Q112.103 -25.23 116.581 -20.751 Q121.06 -16.272 121.06 -9.86 V4.39 Q121.06 10.803 116.581 15.28 Q112.103 19.759 105.69 19.759 H80.37 Z M80.37 4.39 H105.69 Q105.69 4.39 105.69 4.39 Q105.69 4.39 105.69 4.39 V-9.86 Q105.69 -9.86 105.69 -9.86 Q105.69 -9.86 105.69 -9.86 H80.37 Q80.37 -9.86 80.37 -9.86 Q80.37 -9.86 80.37 -9.86 V4.39 Q80.37 4.39 80.37 4.39 Q80.37 4.39 80.37 4.39 Z M75.081 -34.716 Q72.581 -33.501 70.031 -34.396 Q67.48 -35.29 66.153 -37.806 Q65.203 -39.774 63.554 -41.007 Q61.904 -42.241 59.83 -42.241 Q56.951 -42.241 54.962 -40.3 Q52.972 -38.36 52.972 -35.505 Q52.972 -33.284 54.364 -31.63 Q55.755 -29.975 57.739 -28.975 Q60.31 -27.654 61.141 -25.056 Q61.972 -22.459 60.722 -19.887 Q59.403 -17.387 56.812 -16.591 Q54.222 -15.795 51.653 -16.975 Q46.18 -19.465 42.916 -24.41 Q39.653 -29.355 39.653 -35.409 Q39.653 -43.757 45.536 -49.66 Q51.42 -55.561 59.744 -55.561 Q65.771 -55.561 70.65 -52.327 Q75.528 -49.094 78.081 -43.681 Q79.206 -41.181 78.394 -38.556 Q77.581 -35.931 75.081 -34.716 Z M48.61 19.759 Q45.888 19.759 43.815 18.009 Q41.742 16.258 41.424 13.553 L39.995 2.46 Q39.373 2.094 38.731 1.711 Q38.089 1.329 37.446 0.916 L28.995 4.4 Q25.587 5.916 22.109 4.721 Q18.63 3.525 16.864 0.298 L7.706 -16.126 Q5.94 -19.259 6.6 -22.75 Q7.261 -26.241 10.169 -28.452 L17.136 -33.866 Q17.136 -34.255 17.171 -34.655 Q17.206 -35.056 17.206 -35.434 Q17.206 -35.811 17.171 -36.17 Q17.136 -36.527 17.136 -36.882 L10.294 -42.045 Q7.315 -44.257 6.62 -47.797 Q5.924 -51.339 7.761 -54.567 L16.919 -70.686 Q18.755 -73.844 22.136 -75.012 Q25.516 -76.181 28.924 -74.79 L37.229 -71.485 Q37.938 -71.86 38.705 -72.257 Q39.472 -72.654 40.12 -73.067 L41.245 -81.926 Q41.761 -85.6 44.5 -87.999 Q47.239 -90.399 50.843 -90.399 H69.157 Q72.761 -90.399 75.5 -87.999 Q78.239 -85.6 78.755 -81.926 L79.88 -73.012 Q80.627 -72.611 81.411 -72.192 Q82.196 -71.774 82.912 -71.36 L90.951 -74.79 Q94.379 -76.306 97.793 -75.072 Q101.207 -73.839 103.081 -70.686 L112.239 -54.567 Q114.076 -51.339 113.345 -47.797 Q112.614 -44.257 109.636 -42.045 L100.479 -35.225 Q100.479 -35.225 100.479 -35.225 Q100.479 -35.225 100.479 -35.225 Q97.929 -33.334 94.791 -33.806 Q91.653 -34.279 89.655 -36.82 Q87.729 -39.431 88.183 -42.556 Q88.636 -45.681 91.222 -47.67 L96.354 -51.551 L92.239 -58.779 L80.073 -53.637 Q77.31 -56.85 73.69 -58.957 Q70.07 -61.065 65.847 -61.975 L64.278 -75.029 H55.653 L54.222 -62.17 Q49.847 -61.116 46.144 -58.955 Q42.44 -56.795 39.62 -53.709 L27.69 -58.779 L23.538 -51.551 L33.771 -43.762 Q33.076 -41.387 32.791 -39.422 Q32.505 -37.457 32.505 -35.406 Q32.505 -33.501 32.791 -31.431 Q33.076 -29.36 33.771 -26.876 L23.538 -19.089 L27.69 -11.86 L39.659 -16.985 Q42.644 -14.05 46.221 -11.885 Q49.799 -9.719 53.87 -8.649 V14.28 Q53.87 16.623 52.587 18.191 Q51.305 19.759 48.61 19.759 Z"/></g><g id="Medium-M" transform="matrix(1 0 0 1 1689.91 1126)"><path d="M79.146 19.189 Q73.28 19.189 69.14 15.049 Q65 10.908 65 5.041 V-11.084 Q65 -16.95 69.14 -21.09 Q73.28 -25.23 79.146 -25.23 H106.301 Q112.168 -25.23 116.308 -21.09 Q120.449 -16.95 120.449 -11.084 V5.041 Q120.449 10.908 116.308 15.049 Q112.168 19.189 106.301 19.189 H79.146 Z M79.146 5.041 H106.301 Q106.301 5.041 106.301 5.041 Q106.301 5.041 106.301 5.041 V-11.084 Q106.301 -11.084 106.301 -11.084 Q106.301 -11.084 106.301 -11.084 H79.146 Q79.146 -11.084 79.146 -11.084 Q79.146 -11.084 79.146 -11.084 V5.041 Q79.146 5.041 79.146 5.041 Q79.146 5.041 79.146 5.041 Z M75.611 -34.94 Q73.111 -33.705 70.532 -34.617 Q67.954 -35.53 66.641 -38.051 Q65.647 -40.14 63.875 -41.476 Q62.104 -42.811 59.879 -42.811 Q56.788 -42.811 54.636 -40.732 Q52.484 -38.654 52.484 -35.596 Q52.484 -33.325 53.794 -31.507 Q55.104 -29.689 57.169 -28.689 Q59.699 -27.409 60.591 -24.832 Q61.484 -22.255 60.234 -19.725 Q58.954 -17.225 56.344 -16.346 Q53.734 -15.469 51.204 -16.689 Q45.64 -19.229 42.422 -24.291 Q39.204 -29.355 39.204 -35.45 Q39.204 -44.001 45.235 -50.046 Q51.266 -56.091 59.797 -56.091 Q65.975 -56.091 70.996 -52.776 Q76.016 -49.461 78.611 -43.926 Q79.736 -41.426 78.924 -38.801 Q78.111 -36.176 75.611 -34.94 Z M48.824 19.189 Q46.241 19.189 44.326 17.553 Q42.411 15.918 42.116 13.39 L40.646 2.134 Q39.879 1.691 39.046 1.208 Q38.214 0.724 37.405 0.183 L28.709 3.749 Q25.465 5.183 22.19 4.029 Q18.916 2.874 17.231 -0.151 L8.236 -16.33 Q6.551 -19.314 7.191 -22.594 Q7.831 -25.874 10.576 -27.964 L17.706 -33.499 Q17.706 -34.016 17.721 -34.515 Q17.736 -35.012 17.736 -35.499 Q17.736 -35.985 17.721 -36.44 Q17.706 -36.895 17.706 -37.371 L10.701 -42.656 Q7.926 -44.746 7.271 -48.084 Q6.616 -51.42 8.331 -54.445 L17.326 -70.279 Q19.041 -73.274 22.238 -74.381 Q25.435 -75.489 28.679 -74.179 L37.025 -70.834 Q37.901 -71.352 38.911 -71.881 Q39.921 -72.409 40.771 -72.945 L41.896 -81.885 Q42.331 -85.314 44.969 -87.591 Q47.606 -89.869 51.005 -89.869 H68.995 Q72.394 -89.869 75.031 -87.591 Q77.669 -85.314 78.104 -81.885 L79.229 -72.85 Q80.121 -72.319 81.138 -71.781 Q82.155 -71.244 83.035 -70.709 L91.196 -74.179 Q94.449 -75.614 97.675 -74.442 Q100.903 -73.271 102.674 -70.279 L111.669 -54.445 Q113.384 -51.42 112.714 -48.084 Q112.044 -44.746 109.269 -42.656 L100.275 -35.876 Q100.275 -35.876 100.275 -35.876 Q100.275 -35.876 100.275 -35.876 Q97.97 -34.067 95.056 -34.52 Q92.141 -34.971 90.286 -37.309 Q88.463 -39.676 88.895 -42.591 Q89.326 -45.507 91.671 -47.344 L97.088 -51.51 L92.606 -59.471 L80.391 -54.412 Q77.636 -57.501 74.056 -59.569 Q70.478 -61.635 66.296 -62.626 L64.766 -75.721 H55.204 L53.734 -62.781 Q49.359 -61.686 45.736 -59.546 Q42.114 -57.406 39.334 -54.442 L27.364 -59.471 L22.723 -51.51 L33.038 -43.6 Q32.384 -41.225 32.119 -39.311 Q31.854 -37.399 31.854 -35.49 Q31.854 -33.705 32.119 -31.676 Q32.384 -29.646 33.038 -27.08 L22.723 -19.17 L27.364 -11.209 L39.422 -16.334 Q42.416 -13.432 45.985 -11.291 Q49.554 -9.149 53.584 -8.119 V14.18 Q53.584 16.348 52.32 17.768 Q51.057 19.189 48.824 19.189 Z"/></g><g id="Regular-M" transform="matrix(1 0 0 1 1394.06 1126)"><path d="M78.25 18.77 Q72.785 18.77 68.892 14.878 Q65 10.985 65 5.52 V-11.98 Q65 -17.446 68.892 -21.337 Q72.785 -25.23 78.25 -25.23 H106.75 Q112.215 -25.23 116.108 -21.337 Q120 -17.446 120 -11.98 V5.52 Q120 10.985 116.108 14.878 Q112.215 18.77 106.75 18.77 H78.25 Z M78.25 5.52 H106.75 Q106.75 5.52 106.75 5.52 Q106.75 5.52 106.75 5.52 V-11.98 Q106.75 -11.98 106.75 -11.98 Q106.75 -11.98 106.75 -11.98 H78.25 Q78.25 -11.98 78.25 -11.98 Q78.25 -11.98 78.25 -11.98 V5.52 Q78.25 5.52 78.25 5.52 Q78.25 5.52 78.25 5.52 Z M76 -35.105 Q73.5 -33.855 70.9 -34.78 Q68.3 -35.706 67 -38.23 Q65.972 -40.41 64.111 -41.82 Q62.25 -43.23 59.914 -43.23 Q56.669 -43.23 54.396 -41.05 Q52.125 -38.87 52.125 -35.664 Q52.125 -33.355 53.375 -31.417 Q54.625 -29.48 56.75 -28.48 Q59.25 -27.23 60.188 -24.667 Q61.125 -22.105 59.875 -19.605 Q58.625 -17.105 56 -16.167 Q53.375 -15.23 50.875 -16.48 Q45.245 -19.055 42.06 -24.205 Q38.875 -29.355 38.875 -35.48 Q38.875 -44.18 45.014 -50.33 Q51.153 -56.48 59.836 -56.48 Q66.125 -56.48 71.25 -53.105 Q76.375 -49.73 79 -44.105 Q80.125 -41.605 79.312 -38.98 Q78.5 -36.355 76 -35.105 Z M48.979 18.77 Q46.5 18.77 44.701 17.219 Q42.901 15.668 42.625 13.27 L41.125 1.895 Q40.25 1.395 39.278 0.839 Q38.305 0.281 37.375 -0.355 L28.5 3.27 Q25.375 4.645 22.25 3.52 Q19.125 2.395 17.5 -0.48 L8.625 -16.48 Q7 -19.355 7.625 -22.48 Q8.25 -25.605 10.875 -27.605 L18.125 -33.23 Q18.125 -33.842 18.125 -34.411 Q18.125 -34.98 18.125 -35.546 Q18.125 -36.112 18.125 -36.637 Q18.125 -37.164 18.125 -37.73 L11 -43.105 Q8.375 -45.105 7.75 -48.292 Q7.125 -51.48 8.75 -54.355 L17.625 -69.98 Q19.25 -72.855 22.312 -73.917 Q25.375 -74.98 28.5 -73.73 L36.875 -70.355 Q37.875 -70.98 39.062 -71.605 Q40.25 -72.23 41.25 -72.855 L42.375 -81.855 Q42.75 -85.105 45.312 -87.292 Q47.875 -89.48 51.125 -89.48 H68.875 Q72.125 -89.48 74.688 -87.292 Q77.25 -85.105 77.625 -81.855 L78.75 -72.73 Q79.75 -72.105 80.938 -71.48 Q82.125 -70.855 83.125 -70.23 L91.375 -73.73 Q94.5 -75.105 97.59 -73.98 Q100.679 -72.855 102.375 -69.98 L111.25 -54.355 Q112.875 -51.48 112.25 -48.292 Q111.625 -45.105 109 -43.105 L100.125 -36.355 Q100.125 -36.355 100.125 -36.355 Q100.125 -36.355 100.125 -36.355 Q98 -34.605 95.25 -35.042 Q92.5 -35.48 90.75 -37.667 Q89 -39.855 89.416 -42.617 Q89.834 -45.379 92 -47.105 L97.625 -51.48 L92.875 -59.98 L80.625 -54.98 Q77.875 -57.98 74.326 -60.016 Q70.776 -62.054 66.625 -63.105 L65.125 -76.23 H54.875 L53.375 -63.23 Q49 -62.105 45.438 -59.98 Q41.875 -57.855 39.125 -54.98 L27.125 -59.98 L22.125 -51.48 L32.5 -43.48 Q31.875 -41.105 31.625 -39.23 Q31.375 -37.355 31.375 -35.552 Q31.375 -33.855 31.625 -31.855 Q31.875 -29.855 32.5 -27.23 L22.125 -19.23 L27.125 -10.73 L39.25 -15.855 Q42.25 -12.98 45.812 -10.855 Q49.375 -8.73 53.375 -7.73 V14.108 Q53.375 16.145 52.125 17.458 Q50.875 18.77 48.979 18.77 Z"/></g><g id="Light-M" transform="matrix(1 0 0 1 1098.18 1126)"><path d="M77.289 16.27 Q72.159 16.27 68.58 12.69 Q65 9.11 65 3.981 V-12.941 Q65 -18.071 68.58 -21.65 Q72.159 -25.23 77.289 -25.23 H105.211 Q110.34 -25.23 113.92 -21.65 Q117.5 -18.071 117.5 -12.941 V3.981 Q117.5 9.11 113.92 12.69 Q110.34 16.27 105.211 16.27 H77.289 Z M77.289 5.52 H105.211 Q105.885 5.52 106.317 5.088 Q106.75 4.655 106.75 3.981 V-12.941 Q106.75 -13.615 106.317 -14.047 Q105.885 -14.48 105.211 -14.48 H77.289 Q76.615 -14.48 76.183 -14.047 Q75.75 -13.615 75.75 -12.941 V3.981 Q75.75 4.655 76.183 5.088 Q76.615 5.52 77.289 5.52 Z M74.125 -36.019 Q72.106 -35.009 70.01 -35.694 Q67.915 -36.379 66.856 -38.422 Q65.685 -40.457 63.852 -41.844 Q62.021 -43.23 59.721 -43.23 Q56.476 -43.23 54.204 -41.036 Q51.932 -38.842 51.932 -35.615 Q51.932 -33.344 53.159 -31.436 Q54.385 -29.527 56.365 -28.527 Q58.385 -27.519 59.106 -25.412 Q59.826 -23.307 58.818 -21.287 Q57.807 -19.269 55.64 -18.571 Q53.471 -17.875 51.453 -18.884 Q46.64 -21.219 43.911 -25.72 Q41.182 -30.22 41.182 -35.48 Q41.182 -43.17 46.576 -48.575 Q51.97 -53.98 59.644 -53.98 Q65.114 -53.98 69.566 -51.037 Q74.019 -48.095 76.404 -43.287 Q77.289 -41.269 76.716 -39.149 Q76.144 -37.029 74.125 -36.019 Z M49.749 16.27 Q47.833 16.27 46.464 15.058 Q45.095 13.845 44.885 11.971 L43.432 0.164 Q42.174 -0.384 40.528 -1.277 Q38.883 -2.171 37.664 -3.191 L27.875 0.866 Q25.519 1.905 23.14 1.068 Q20.76 0.231 19.567 -1.97 L10.932 -17.49 Q9.74 -19.691 10.182 -22.004 Q10.624 -24.316 12.606 -25.826 L20.721 -32.076 Q20.674 -32.929 20.601 -33.81 Q20.529 -34.691 20.529 -35.474 Q20.529 -36.256 20.601 -37.071 Q20.674 -37.885 20.721 -38.884 L12.731 -44.884 Q10.731 -46.404 10.322 -48.797 Q9.914 -51.191 11.106 -53.394 L19.692 -68.394 Q20.896 -70.567 23.207 -71.355 Q25.519 -72.144 27.875 -71.23 L37.115 -67.47 Q38.549 -68.527 40.289 -69.465 Q42.029 -70.402 43.51 -71.124 L44.828 -81.23 Q45.154 -83.662 47.114 -85.321 Q49.074 -86.98 51.51 -86.98 H68.49 Q70.926 -86.98 72.886 -85.321 Q74.846 -83.662 75.172 -81.23 L76.442 -70.951 Q78.067 -70.134 79.639 -69.292 Q81.211 -68.451 82.692 -67.345 L92.144 -71.23 Q94.5 -72.269 96.816 -71.417 Q99.132 -70.567 100.404 -68.394 L108.99 -53.345 Q110.183 -51.144 109.722 -48.752 Q109.263 -46.362 107.269 -44.884 L96.711 -36.932 Q96.711 -36.932 96.711 -36.932 Q96.711 -36.932 96.711 -36.932 Q95.019 -35.519 92.797 -35.884 Q90.576 -36.249 89.139 -38.004 Q87.701 -39.759 88.022 -41.991 Q88.343 -44.225 90.125 -45.662 L97.672 -51.48 L92.875 -59.98 L80.433 -54.932 Q77.922 -57.74 74.181 -59.896 Q70.44 -62.054 66.578 -62.961 L65.125 -76.23 H54.828 L53.422 -63.134 Q49.096 -62.105 45.606 -60.052 Q42.115 -57.999 39.172 -54.932 L27.125 -59.98 L22.078 -51.48 L32.5 -43.432 Q31.875 -41.152 31.625 -39.23 Q31.375 -37.307 31.375 -35.516 Q31.375 -33.832 31.625 -31.844 Q31.875 -29.855 32.453 -27.277 L22.078 -19.23 L27.125 -10.73 L39.25 -15.855 Q42.25 -13.027 45.836 -10.975 Q49.422 -8.922 53.375 -7.777 V12.52 Q53.375 14.183 52.318 15.226 Q51.26 16.27 49.749 16.27 Z"/></g><g id="Thin-M" transform="matrix(1 0 0 1 802.565 1126)"><path d="M76.328 13.77 Q71.535 13.77 68.267 10.503 Q65 7.236 65 2.443 V-13.902 Q65 -18.695 68.267 -21.962 Q71.535 -25.23 76.328 -25.23 H103.672 Q108.466 -25.23 111.733 -21.962 Q115 -18.695 115 -13.902 V2.443 Q115 7.236 111.733 10.503 Q108.466 13.77 103.672 13.77 H76.328 Z M76.328 5.52 H103.672 Q105.019 5.52 105.885 4.655 Q106.75 3.789 106.75 2.443 V-13.902 Q106.75 -15.249 105.885 -16.115 Q105.019 -16.98 103.672 -16.98 H76.328 Q74.981 -16.98 74.115 -16.115 Q73.25 -15.249 73.25 -13.902 V2.443 Q73.25 3.789 74.115 4.655 Q74.981 5.52 76.328 5.52 Z M72.25 -36.932 Q70.711 -36.162 69.121 -36.607 Q67.531 -37.052 66.711 -38.615 Q65.396 -40.506 63.594 -41.867 Q61.791 -43.23 59.529 -43.23 Q56.284 -43.23 54.013 -41.022 Q51.74 -38.814 51.74 -35.567 Q51.74 -33.332 52.943 -31.454 Q54.144 -29.576 55.981 -28.576 Q57.519 -27.807 58.024 -26.157 Q58.529 -24.509 57.76 -22.97 Q56.99 -21.432 55.279 -20.975 Q53.568 -20.519 52.029 -21.287 Q48.034 -23.382 45.763 -27.234 Q43.49 -31.086 43.49 -35.48 Q43.49 -42.161 48.139 -46.82 Q52.788 -51.48 59.453 -51.48 Q64.104 -51.48 67.884 -48.97 Q71.664 -46.461 73.808 -42.47 Q74.453 -40.932 74.12 -39.316 Q73.789 -37.701 72.25 -36.932 Z M50.517 13.77 Q49.165 13.77 48.226 12.896 Q47.289 12.024 47.144 10.674 L45.74 -1.566 Q44.096 -2.162 41.778 -3.392 Q39.459 -4.622 37.953 -6.027 L27.25 -1.537 Q25.664 -0.836 24.029 -1.384 Q22.394 -1.932 21.635 -3.461 L13.24 -18.499 Q12.481 -20.027 12.739 -21.529 Q12.996 -23.029 14.336 -24.047 L23.317 -30.922 Q23.221 -32.015 23.078 -33.209 Q22.933 -34.402 22.933 -35.402 Q22.933 -36.401 23.078 -37.504 Q23.221 -38.606 23.317 -40.037 L14.461 -46.662 Q13.086 -47.701 12.894 -49.302 Q12.703 -50.902 13.461 -52.432 L21.76 -66.807 Q22.544 -68.28 24.104 -68.794 Q25.664 -69.307 27.25 -68.73 L37.356 -64.586 Q39.221 -66.076 41.515 -67.326 Q43.807 -68.576 45.769 -69.394 L47.279 -80.605 Q47.557 -82.22 48.915 -83.35 Q50.271 -84.48 51.894 -84.48 H68.106 Q69.729 -84.48 71.085 -83.35 Q72.442 -82.22 72.721 -80.605 L74.135 -69.172 Q76.385 -68.162 78.341 -67.105 Q80.297 -66.047 82.26 -64.461 L92.914 -68.73 Q94.5 -69.432 96.043 -68.856 Q97.586 -68.28 98.433 -66.807 L106.731 -52.336 Q107.49 -50.807 107.196 -49.214 Q106.901 -47.62 105.539 -46.662 L93.297 -37.509 Q93.297 -37.509 93.297 -37.509 Q93.297 -37.509 93.297 -37.509 Q92.039 -36.432 90.346 -36.725 Q88.654 -37.019 87.529 -38.34 Q86.404 -39.662 86.629 -41.367 Q86.853 -43.071 88.25 -44.22 L97.721 -51.48 L92.875 -59.98 L80.24 -54.884 Q77.971 -57.499 74.037 -59.776 Q70.104 -62.054 66.529 -62.816 L65.125 -76.23 H54.779 L53.471 -63.037 Q49.193 -62.105 45.774 -60.124 Q42.356 -58.144 39.221 -54.884 L27.125 -59.98 L22.029 -51.48 L32.5 -43.384 Q31.875 -41.201 31.625 -39.23 Q31.375 -37.259 31.375 -35.481 Q31.375 -33.809 31.625 -31.832 Q31.875 -29.855 32.404 -27.326 L22.029 -19.23 L27.125 -10.73 L39.25 -15.855 Q42.25 -13.076 45.86 -11.095 Q49.471 -9.115 53.375 -7.826 V10.934 Q53.375 12.22 52.51 12.995 Q51.644 13.77 50.517 13.77 Z"/></g><g id="Ultralight-M" transform="matrix(1 0 0 1 506.415 1126)"><path d="M75.75 12.27 Q71.16 12.27 68.08 9.19 Q65 6.111 65 1.52 V-14.48 Q65 -19.071 68.08 -22.15 Q71.16 -25.23 75.75 -25.23 H102.75 Q107.34 -25.23 110.42 -22.15 Q113.5 -19.071 113.5 -14.48 V1.52 Q113.5 6.111 110.42 9.19 Q107.34 12.27 102.75 12.27 H75.75 Z M75.75 5.52 H102.75 Q104.5 5.52 105.625 4.395 Q106.75 3.27 106.75 1.52 V-14.48 Q106.75 -16.23 105.625 -17.355 Q104.5 -18.48 102.75 -18.48 H75.75 Q74 -18.48 72.875 -17.355 Q71.75 -16.23 71.75 -14.48 V1.52 Q71.75 3.27 72.875 4.395 Q74 5.52 75.75 5.52 Z M71.125 -37.48 Q69.875 -36.855 68.588 -37.155 Q67.3 -37.456 66.625 -38.73 Q65.222 -40.535 63.439 -41.882 Q61.654 -43.23 59.414 -43.23 Q56.169 -43.23 53.896 -41.014 Q51.625 -38.797 51.625 -35.539 Q51.625 -33.326 52.812 -31.465 Q54 -29.605 55.75 -28.605 Q57 -27.98 57.375 -26.605 Q57.75 -25.23 57.125 -23.98 Q56.5 -22.73 55.062 -22.417 Q53.625 -22.105 52.375 -22.73 Q48.87 -24.68 46.873 -28.142 Q44.875 -31.605 44.875 -35.48 Q44.875 -41.555 49.076 -45.767 Q53.278 -49.98 59.336 -49.98 Q63.496 -49.98 66.874 -47.73 Q70.25 -45.48 72.25 -41.98 Q72.75 -40.73 72.562 -39.417 Q72.375 -38.105 71.125 -37.48 Z M50.979 12.27 Q49.964 12.27 49.284 11.6 Q48.605 10.93 48.5 9.895 L47.125 -2.605 Q45.25 -3.23 42.528 -4.661 Q39.805 -6.094 38.125 -7.73 L26.875 -2.98 Q25.75 -2.48 24.562 -2.855 Q23.375 -3.23 22.875 -4.355 L14.625 -19.105 Q14.125 -20.23 14.273 -21.242 Q14.42 -22.255 15.375 -22.98 L24.875 -30.23 Q24.75 -31.467 24.562 -32.849 Q24.375 -34.23 24.375 -35.359 Q24.375 -36.487 24.562 -37.762 Q24.75 -39.039 24.875 -40.73 L15.5 -47.73 Q14.5 -48.48 14.438 -49.605 Q14.375 -50.73 14.875 -51.855 L23 -65.855 Q23.531 -66.906 24.641 -67.256 Q25.75 -67.605 26.875 -67.23 L37.5 -62.855 Q39.625 -64.605 42.25 -66.042 Q44.875 -67.48 47.125 -68.355 L48.75 -80.23 Q49 -81.355 49.995 -82.167 Q50.991 -82.98 52.125 -82.98 H67.875 Q69.009 -82.98 70.005 -82.167 Q71 -81.355 71.25 -80.23 L72.75 -68.105 Q75.375 -66.98 77.562 -65.792 Q79.75 -64.605 82 -62.73 L93.375 -67.23 Q94.5 -67.73 95.579 -67.319 Q96.657 -66.906 97.25 -65.855 L105.375 -51.73 Q105.875 -50.605 105.68 -49.49 Q105.485 -48.375 104.5 -47.73 L91.25 -37.855 Q91.25 -37.855 91.25 -37.855 Q91.25 -37.855 91.25 -37.855 Q90.25 -36.98 88.875 -37.23 Q87.5 -37.48 86.562 -38.542 Q85.625 -39.605 85.791 -40.992 Q85.959 -42.379 87.125 -43.355 L97.75 -51.48 L92.875 -59.98 L80.125 -54.855 Q78 -57.355 73.951 -59.704 Q69.901 -62.054 66.5 -62.73 L65.125 -76.23 H54.75 L53.5 -62.98 Q49.25 -62.105 45.875 -60.167 Q42.5 -58.23 39.25 -54.855 L27.125 -59.98 L22 -51.48 L32.5 -43.355 Q31.875 -41.23 31.625 -39.23 Q31.375 -37.23 31.375 -35.461 Q31.375 -33.795 31.625 -31.825 Q31.875 -29.855 32.375 -27.355 L22 -19.23 L27.125 -10.73 L39.25 -15.855 Q42.25 -13.105 45.875 -11.167 Q49.5 -9.23 53.375 -7.855 V9.983 Q53.375 11.043 52.625 11.656 Q51.875 12.27 50.979 12.27 Z"/></g><g id="Bold-S" transform="matrix(1 0 0 1 2294.23 696)"><path d="M64.698 7.179 Q59.065 7.179 55.569 3.683 Q52.074 0.188 52.074 -5.445 V-13.138 Q52.074 -18.772 55.569 -22.267 Q59.065 -25.762 64.698 -25.762 H82.746 Q88.381 -25.762 91.875 -22.267 Q95.37 -18.772 95.37 -13.138 V-5.445 Q95.37 0.188 91.875 3.683 Q88.381 7.179 82.746 7.179 H64.698 Z M64.698 -5.445 H82.746 Q82.746 -5.445 82.746 -5.445 Q82.746 -5.445 82.746 -5.445 V-13.138 Q82.746 -13.138 82.746 -13.138 Q82.746 -13.138 82.746 -13.138 H64.698 Q64.698 -13.138 64.698 -13.138 Q64.698 -13.138 64.698 -13.138 V-5.445 Q64.698 -5.445 64.698 -5.445 Q64.698 -5.445 64.698 -5.445 Z M59.274 -35.082 Q57.4 -34.145 55.615 -34.832 Q53.83 -35.518 52.764 -37.4 Q51.766 -39.12 50.237 -40.38 Q48.706 -41.641 46.786 -41.641 Q44.12 -41.641 42.376 -39.762 Q40.634 -37.883 40.634 -35.271 Q40.634 -33.159 42.212 -31.778 Q43.79 -30.397 45.565 -29.51 Q47.537 -28.523 48.277 -26.6 Q49.017 -24.677 48.178 -22.705 Q47.241 -20.831 45.367 -20.436 Q43.494 -20.042 41.521 -20.633 Q36.904 -22.35 33.887 -26.326 Q30.87 -30.304 30.87 -35.284 Q30.87 -41.999 35.513 -46.701 Q40.156 -51.404 46.726 -51.404 Q51.482 -51.404 55.23 -48.692 Q58.978 -45.98 61.148 -41.739 Q61.937 -39.865 61.542 -37.942 Q61.148 -36.019 59.274 -35.082 Z M40.399 7.179 Q38.375 7.179 36.783 5.923 Q35.19 4.668 34.913 2.642 L33.532 -5.347 Q32.209 -5.949 30.917 -6.639 Q29.625 -7.328 28.503 -8.305 L20.81 -5.642 Q18.936 -4.952 16.914 -5.593 Q14.892 -6.234 14.005 -8.108 L7.298 -20.14 Q6.411 -21.879 6.657 -23.772 Q6.904 -25.663 8.482 -27.044 L14.399 -32.37 Q14.301 -33.034 14.251 -33.791 Q14.202 -34.549 14.202 -35.323 Q14.202 -36.098 14.251 -36.822 Q14.301 -37.545 14.399 -38.189 L8.58 -43.317 Q6.904 -44.698 6.608 -46.621 Q6.312 -48.544 7.298 -50.418 L14.005 -62.253 Q14.991 -64.028 16.914 -64.67 Q18.837 -65.311 20.711 -64.719 L28.503 -62.155 Q29.675 -63.087 30.962 -63.755 Q32.25 -64.423 33.631 -65.015 L35.209 -73.102 Q35.702 -75.173 37.205 -76.455 Q38.708 -77.737 40.732 -77.737 H53.948 Q55.972 -77.737 57.475 -76.455 Q58.978 -75.173 59.471 -73.102 L61.049 -65.015 Q62.471 -64.439 63.831 -63.741 Q65.191 -63.042 66.375 -62.056 L74.067 -64.719 Q75.969 -65.409 77.854 -64.717 Q79.739 -64.024 80.774 -62.253 L87.48 -50.418 Q88.467 -48.544 88.072 -46.572 Q87.678 -44.599 86.001 -43.317 L76.533 -35.526 Q76.533 -35.526 76.533 -35.526 Q76.533 -35.526 76.533 -35.526 Q74.561 -33.948 71.886 -34.31 Q69.211 -34.671 67.509 -36.66 Q65.98 -38.682 66.262 -41.22 Q66.544 -43.759 68.643 -45.487 L73.476 -49.629 L72.687 -50.813 L63.434 -47.657 Q60.852 -51.01 57.411 -53.06 Q53.969 -55.112 49.904 -55.547 L48.03 -65.113 H46.452 L44.874 -55.744 Q40.732 -55.054 37.132 -52.982 Q33.532 -50.911 30.968 -47.657 L21.895 -50.813 L21.204 -49.629 L28.207 -43.317 Q27.516 -41.147 27.122 -39.197 Q26.727 -37.247 26.727 -35.281 Q26.727 -33.274 27.073 -31.245 Q27.418 -29.214 28.108 -27.143 L21.204 -20.929 L21.796 -19.746 L30.848 -22.803 Q33.49 -19.761 36.964 -17.831 Q40.436 -15.899 44.381 -14.913 V3.446 Q44.381 5.183 43.54 6.181 Q42.7 7.179 40.399 7.179 Z"/></g><g id="Semibold-S" transform="matrix(1 0 0 1 1998.1 696)"><path d="M63.412 6.578 Q58.352 6.578 55.213 3.439 Q52.074 0.301 52.074 -4.759 V-14.424 Q52.074 -19.484 55.213 -22.623 Q58.352 -25.762 63.412 -25.762 H83.389 Q88.449 -25.762 91.588 -22.623 Q94.727 -19.484 94.727 -14.424 V-4.759 Q94.727 0.301 91.588 3.439 Q88.449 6.578 83.389 6.578 H63.412 Z M63.412 -4.759 H83.389 Q83.389 -4.759 83.389 -4.759 Q83.389 -4.759 83.389 -4.759 V-14.424 Q83.389 -14.424 83.389 -14.424 Q83.389 -14.424 83.389 -14.424 H63.412 Q63.412 -14.424 63.412 -14.424 Q63.412 -14.424 63.412 -14.424 V-4.759 Q63.412 -4.759 63.412 -4.759 Q63.412 -4.759 63.412 -4.759 Z M59.831 -35.318 Q57.957 -34.359 56.142 -35.065 Q54.327 -35.77 53.279 -37.657 Q52.234 -39.505 50.575 -40.873 Q48.916 -42.241 46.836 -42.241 Q43.948 -42.241 42.034 -40.216 Q40.119 -38.193 40.119 -35.367 Q40.119 -33.201 41.611 -31.65 Q43.103 -30.098 44.964 -29.21 Q46.894 -28.266 47.698 -26.365 Q48.502 -24.463 47.663 -22.533 Q46.77 -20.659 44.874 -20.179 Q42.979 -19.699 41.05 -20.334 Q36.337 -22.101 33.368 -26.202 Q30.398 -30.304 30.398 -35.327 Q30.398 -42.254 35.196 -47.108 Q39.994 -51.962 46.782 -51.962 Q51.696 -51.962 55.595 -49.164 Q59.493 -46.366 61.705 -41.997 Q62.494 -40.123 62.099 -38.2 Q61.705 -36.276 59.831 -35.318 Z M40.622 6.578 Q38.747 6.578 37.321 5.444 Q35.894 4.309 35.642 2.47 L34.219 -5.69 Q32.742 -6.373 31.249 -7.168 Q29.756 -7.963 28.46 -9.078 L20.51 -6.329 Q18.808 -5.724 17 -6.322 Q15.192 -6.921 14.39 -8.58 L7.855 -20.354 Q7.054 -21.938 7.279 -23.608 Q7.504 -25.278 8.911 -26.529 L15 -31.984 Q14.901 -32.784 14.83 -33.642 Q14.759 -34.501 14.759 -35.391 Q14.759 -36.28 14.83 -37.106 Q14.901 -37.93 15 -38.704 L9.009 -43.96 Q7.547 -45.213 7.294 -46.921 Q7.041 -48.63 7.899 -50.29 L14.434 -61.824 Q15.291 -63.428 17.022 -64.005 Q18.752 -64.582 20.454 -64.076 L28.289 -61.468 Q29.637 -62.553 31.179 -63.36 Q32.722 -64.166 34.318 -64.887 L35.896 -73.06 Q36.303 -74.873 37.698 -76.026 Q39.094 -77.18 40.904 -77.18 H53.776 Q55.586 -77.18 56.982 -76.026 Q58.377 -74.873 58.784 -73.06 L60.362 -64.843 Q61.938 -64.132 63.543 -63.309 Q65.149 -62.485 66.503 -61.37 L74.325 -64.076 Q76.043 -64.68 77.73 -64.053 Q79.419 -63.427 80.345 -61.824 L86.88 -50.29 Q87.738 -48.63 87.407 -46.872 Q87.077 -45.114 85.615 -43.96 L76.319 -36.212 Q76.319 -36.212 76.319 -36.212 Q76.319 -36.212 76.319 -36.212 Q74.603 -34.72 72.165 -35.059 Q69.726 -35.4 68.174 -37.175 Q66.752 -38.939 67.012 -41.257 Q67.271 -43.575 69.114 -45.144 L74.248 -49.587 L73.072 -51.542 L63.769 -48.471 Q61.195 -51.696 57.796 -53.704 Q54.398 -55.712 50.376 -56.233 L48.545 -65.842 H45.981 L44.36 -56.387 Q40.217 -55.654 36.703 -53.604 Q33.189 -51.554 30.668 -48.429 L21.552 -51.542 L20.346 -49.587 L27.435 -43.146 Q26.788 -40.976 26.415 -39.08 Q26.041 -37.185 26.041 -35.369 Q26.041 -33.489 26.365 -31.502 Q26.689 -29.514 27.336 -27.357 L20.346 -21.015 L21.453 -19.059 L30.6 -22.117 Q33.251 -19.111 36.715 -17.205 Q40.179 -15.299 44.081 -14.356 V3.34 Q44.081 4.893 43.26 5.736 Q42.438 6.578 40.622 6.578 Z"/></g><g id="Medium-S" transform="matrix(1 0 0 1 1701.85 696)"><path d="M62.446 6.128 Q57.818 6.128 54.946 3.256 Q52.074 0.383 52.074 -4.245 V-15.39 Q52.074 -20.018 54.946 -22.89 Q57.818 -25.762 62.446 -25.762 H83.872 Q88.5 -25.762 91.372 -22.89 Q94.245 -20.018 94.245 -15.39 V-4.245 Q94.245 0.383 91.372 3.256 Q88.5 6.128 83.872 6.128 H62.446 Z M62.446 -4.245 H83.872 Q83.872 -4.245 83.872 -4.245 Q83.872 -4.245 83.872 -4.245 V-15.39 Q83.872 -15.39 83.872 -15.39 Q83.872 -15.39 83.872 -15.39 H62.446 Q62.446 -15.39 62.446 -15.39 Q62.446 -15.39 62.446 -15.39 V-4.245 Q62.446 -4.245 62.446 -4.245 Q62.446 -4.245 62.446 -4.245 Z M60.249 -35.494 Q58.375 -34.52 56.538 -35.24 Q54.7 -35.96 53.665 -37.85 Q52.585 -39.794 50.829 -41.243 Q49.074 -42.691 46.874 -42.691 Q43.819 -42.691 41.777 -40.558 Q39.733 -38.424 39.733 -35.439 Q39.733 -33.234 41.161 -31.553 Q42.589 -29.872 44.514 -28.984 Q46.412 -28.073 47.264 -26.188 Q48.116 -24.302 47.278 -22.405 Q46.416 -20.531 44.505 -19.986 Q42.593 -19.441 40.696 -20.108 Q35.911 -21.915 32.978 -26.109 Q30.044 -30.304 30.044 -35.359 Q30.044 -42.446 34.959 -47.413 Q39.872 -52.38 46.823 -52.38 Q51.857 -52.38 55.868 -49.518 Q59.878 -46.656 62.123 -42.19 Q62.912 -40.316 62.517 -38.393 Q62.123 -36.47 60.249 -35.494 Z M40.79 6.128 Q39.025 6.128 37.723 5.084 Q36.421 4.041 36.188 2.342 L34.733 -5.947 Q33.141 -6.691 31.498 -7.566 Q29.855 -8.44 28.428 -9.657 L20.284 -6.843 Q18.711 -6.303 17.064 -6.868 Q15.418 -7.435 14.68 -8.934 L8.274 -20.515 Q7.536 -21.982 7.745 -23.485 Q7.954 -24.988 9.232 -26.144 L15.45 -31.694 Q15.351 -32.596 15.264 -33.532 Q15.177 -34.467 15.177 -35.442 Q15.177 -36.417 15.264 -37.319 Q15.351 -38.22 15.45 -39.089 L9.331 -44.443 Q8.029 -45.598 7.808 -47.147 Q7.587 -48.694 8.349 -50.193 L14.755 -61.503 Q15.517 -62.978 17.102 -63.507 Q18.687 -64.035 20.261 -63.594 L28.128 -60.954 Q29.608 -62.153 31.342 -63.063 Q33.076 -63.972 34.831 -64.79 L36.409 -73.027 Q36.753 -74.647 38.068 -75.705 Q39.384 -76.762 41.032 -76.762 H53.648 Q55.296 -76.762 56.612 -75.705 Q57.927 -74.647 58.271 -73.027 L59.849 -64.715 Q61.539 -63.901 63.327 -62.984 Q65.116 -62.067 66.599 -60.856 L74.518 -63.594 Q76.098 -64.134 77.638 -63.556 Q79.178 -62.978 80.023 -61.503 L86.43 -50.193 Q87.191 -48.694 86.909 -47.098 Q86.627 -45.5 85.325 -44.443 L76.158 -36.726 Q76.158 -36.726 76.158 -36.726 Q76.158 -36.726 76.158 -36.726 Q74.635 -35.299 72.374 -35.623 Q70.112 -35.947 68.672 -37.561 Q67.331 -39.133 67.574 -41.285 Q67.816 -43.438 69.468 -44.886 L74.827 -49.554 L73.362 -52.088 L64.02 -49.083 Q61.452 -52.21 58.085 -54.187 Q54.719 -56.162 50.73 -56.747 L48.931 -66.389 H45.627 L43.974 -56.869 Q39.832 -56.104 36.382 -54.07 Q32.932 -52.037 30.443 -49.008 L21.294 -52.088 L19.703 -49.554 L26.856 -43.017 Q26.241 -40.848 25.884 -38.993 Q25.527 -37.138 25.527 -35.435 Q25.527 -33.65 25.835 -31.694 Q26.143 -29.74 26.757 -27.518 L19.703 -21.079 L21.195 -18.546 L30.414 -21.603 Q33.072 -18.624 36.529 -16.737 Q39.986 -14.849 43.856 -13.938 V3.261 Q43.856 4.676 43.05 5.402 Q42.243 6.128 40.79 6.128 Z"/></g><g id="Regular-S" transform="matrix(1 0 0 1 1405.73 696)"><path d="M61.739 5.798 Q57.427 5.798 54.751 3.121 Q52.074 0.445 52.074 -3.867 V-16.097 Q52.074 -20.41 54.751 -23.085 Q57.427 -25.762 61.739 -25.762 H84.226 Q88.538 -25.762 91.214 -23.085 Q93.891 -20.41 93.891 -16.097 V-3.867 Q93.891 0.445 91.214 3.121 Q88.538 5.798 84.226 5.798 H61.739 Z M61.739 -3.867 H84.226 Q84.226 -3.867 84.226 -3.867 Q84.226 -3.867 84.226 -3.867 V-16.097 Q84.226 -16.097 84.226 -16.097 Q84.226 -16.097 84.226 -16.097 H61.739 Q61.739 -16.097 61.739 -16.097 Q61.739 -16.097 61.739 -16.097 V-3.867 Q61.739 -3.867 61.739 -3.867 Q61.739 -3.867 61.739 -3.867 Z M60.556 -35.624 Q58.682 -34.638 56.828 -35.368 Q54.974 -36.099 53.948 -37.991 Q52.841 -40.007 51.016 -41.514 Q49.189 -43.021 46.902 -43.021 Q43.725 -43.021 41.587 -40.808 Q39.45 -38.595 39.45 -35.491 Q39.45 -33.257 40.831 -31.482 Q42.212 -29.707 44.184 -28.819 Q46.058 -27.932 46.946 -26.058 Q47.833 -24.184 46.995 -22.31 Q46.157 -20.436 44.233 -19.844 Q42.31 -19.253 40.436 -19.943 Q35.6 -21.778 32.692 -26.04 Q29.785 -30.304 29.785 -35.383 Q29.785 -42.587 34.784 -47.637 Q39.782 -52.687 46.855 -52.687 Q51.975 -52.687 56.068 -49.777 Q60.161 -46.868 62.43 -42.331 Q63.219 -40.457 62.824 -38.534 Q62.43 -36.611 60.556 -35.624 Z M40.913 5.798 Q39.23 5.798 38.019 4.821 Q36.808 3.843 36.59 2.248 L35.111 -6.136 Q33.434 -6.925 31.68 -7.857 Q29.927 -8.79 28.404 -10.081 L20.12 -7.22 Q18.64 -6.727 17.111 -7.27 Q15.583 -7.812 14.892 -9.193 L8.58 -20.633 Q7.89 -22.014 8.087 -23.395 Q8.284 -24.776 9.468 -25.861 L15.78 -31.482 Q15.681 -32.459 15.583 -33.45 Q15.484 -34.441 15.484 -35.48 Q15.484 -36.518 15.583 -37.475 Q15.681 -38.432 15.78 -39.372 L9.567 -44.797 Q8.383 -45.881 8.186 -47.312 Q7.989 -48.742 8.679 -50.122 L14.991 -61.267 Q15.681 -62.648 17.161 -63.141 Q18.64 -63.634 20.12 -63.239 L28.01 -60.577 Q29.588 -61.859 31.461 -62.845 Q33.335 -63.831 35.209 -64.719 L36.787 -73.003 Q37.083 -74.483 38.339 -75.469 Q39.596 -76.455 41.127 -76.455 H53.553 Q55.084 -76.455 56.341 -75.469 Q57.597 -74.483 57.893 -73.003 L59.471 -64.62 Q61.246 -63.733 63.169 -62.746 Q65.093 -61.76 66.671 -60.478 L74.659 -63.239 Q76.139 -63.733 77.571 -63.191 Q79.002 -62.65 79.788 -61.267 L86.1 -50.122 Q86.79 -48.742 86.543 -47.262 Q86.297 -45.783 85.113 -44.797 L76.04 -37.104 Q76.04 -37.104 76.04 -37.104 Q76.04 -37.104 76.04 -37.104 Q74.659 -35.723 72.527 -36.036 Q70.395 -36.347 69.038 -37.844 Q67.755 -39.274 67.985 -41.305 Q68.216 -43.336 69.728 -44.698 L75.251 -49.531 L73.574 -52.489 L64.205 -49.531 Q61.641 -52.588 58.298 -54.54 Q54.955 -56.493 50.989 -57.125 L49.214 -66.79 H45.367 L43.691 -57.223 Q39.549 -56.434 36.146 -54.413 Q32.744 -52.391 30.278 -49.432 L21.106 -52.489 L19.232 -49.531 L26.431 -42.923 Q25.84 -40.753 25.495 -38.928 Q25.149 -37.104 25.149 -35.484 Q25.149 -33.767 25.445 -31.836 Q25.741 -29.904 26.333 -27.636 L19.232 -21.127 L21.007 -18.168 L30.278 -21.225 Q32.941 -18.266 36.393 -16.393 Q39.845 -14.519 43.691 -13.631 V3.204 Q43.691 4.516 42.895 5.157 Q42.099 5.798 40.913 5.798 Z"/></g><g id="Light-S" transform="matrix(1 0 0 1 1109.75 696)"><path d="M60.981 3.826 Q56.933 3.826 54.504 1.395 Q52.074 -1.035 52.074 -5.081 V-16.855 Q52.074 -20.903 54.504 -23.332 Q56.933 -25.762 60.981 -25.762 H83.012 Q87.058 -25.762 89.488 -23.332 Q91.919 -20.903 91.919 -16.855 V-5.081 Q91.919 -1.035 89.488 1.395 Q87.058 3.826 83.012 3.826 H60.981 Z M60.981 -3.867 H83.012 Q83.543 -3.867 83.885 -4.208 Q84.226 -4.55 84.226 -5.081 V-16.855 Q84.226 -17.387 83.885 -17.728 Q83.543 -18.069 83.012 -18.069 H60.981 Q60.449 -18.069 60.108 -17.728 Q59.767 -17.387 59.767 -16.855 V-5.081 Q59.767 -4.55 60.108 -4.208 Q60.449 -3.867 60.981 -3.867 Z M59.076 -36.345 Q57.582 -35.549 56.126 -36.089 Q54.67 -36.629 53.834 -38.143 Q52.614 -40.045 50.812 -41.533 Q49.009 -43.021 46.75 -43.021 Q43.574 -43.021 41.435 -40.797 Q39.298 -38.573 39.298 -35.454 Q39.298 -33.249 40.66 -31.497 Q42.022 -29.744 43.88 -28.857 Q45.375 -28.16 46.092 -26.646 Q46.808 -25.133 46.16 -23.638 Q45.511 -22.143 43.949 -21.741 Q42.386 -21.34 40.892 -21.84 Q36.7 -23.485 34.153 -27.235 Q31.605 -30.986 31.605 -35.383 Q31.605 -41.791 36.017 -46.252 Q40.427 -50.714 46.703 -50.714 Q51.177 -50.714 54.74 -48.146 Q58.302 -45.578 60.381 -41.686 Q60.981 -40.192 60.776 -38.667 Q60.571 -37.142 59.076 -36.345 Z M41.52 3.826 Q40.281 3.826 39.41 3.115 Q38.539 2.405 38.373 1.223 L36.931 -7.502 Q34.952 -8.328 32.667 -9.526 Q30.382 -10.725 28.632 -12.318 L19.626 -9.117 Q18.754 -8.889 17.814 -9.205 Q16.873 -9.519 16.524 -10.369 L10.401 -21.43 Q10.052 -22.28 10.105 -23.019 Q10.157 -23.759 10.834 -24.457 L17.828 -30.572 Q17.692 -31.738 17.537 -32.975 Q17.381 -34.213 17.381 -35.422 Q17.381 -36.631 17.537 -37.817 Q17.692 -39.001 17.828 -40.283 L10.933 -46.2 Q10.242 -46.906 10.216 -47.71 Q10.189 -48.514 10.538 -49.364 L16.622 -60.015 Q16.98 -60.843 17.867 -61.119 Q18.754 -61.396 19.626 -61.267 L28.199 -58.3 Q30.119 -59.924 32.429 -61.157 Q34.739 -62.389 36.992 -63.353 L38.722 -72.51 Q38.98 -73.345 39.761 -73.914 Q40.541 -74.483 41.43 -74.483 H53.25 Q54.138 -74.483 54.919 -73.914 Q55.7 -73.345 55.958 -72.51 L57.65 -63.217 Q59.919 -62.177 62.145 -61.02 Q64.372 -59.864 66.329 -58.202 L75.266 -61.267 Q76.139 -61.495 76.96 -61.169 Q77.782 -60.845 78.232 -60.015 L84.316 -49.325 Q84.666 -48.476 84.549 -47.625 Q84.433 -46.775 83.747 -46.2 L73.346 -37.56 Q73.346 -37.56 73.346 -37.56 Q73.346 -37.56 73.346 -37.56 Q72.307 -36.444 70.592 -36.7 Q68.878 -36.955 67.766 -38.109 Q66.731 -39.198 66.886 -40.811 Q67.039 -42.426 68.249 -43.56 L75.288 -49.531 L73.574 -52.489 L64.053 -49.493 Q61.678 -52.399 58.184 -54.445 Q54.69 -56.493 50.952 -57.011 L49.214 -66.79 H45.33 L43.728 -57.147 Q39.625 -56.434 36.279 -54.47 Q32.933 -52.504 30.315 -49.395 L21.106 -52.489 L19.194 -49.531 L26.431 -42.885 Q25.84 -40.79 25.495 -38.928 Q25.149 -37.066 25.149 -35.456 Q25.149 -33.75 25.445 -31.827 Q25.741 -29.904 26.295 -27.673 L19.194 -21.127 L21.007 -18.168 L30.278 -21.225 Q32.941 -18.304 36.411 -16.487 Q39.882 -14.671 43.691 -13.669 V1.952 Q43.691 2.967 43.047 3.396 Q42.403 3.826 41.52 3.826 Z"/></g><g id="Thin-S" transform="matrix(1 0 0 1 814.015 696)"><path d="M60.222 1.853 Q56.441 1.853 54.258 -0.331 Q52.074 -2.513 52.074 -6.295 V-17.614 Q52.074 -21.395 54.258 -23.578 Q56.441 -25.762 60.222 -25.762 H81.798 Q85.58 -25.762 87.762 -23.578 Q89.946 -21.395 89.946 -17.614 V-6.295 Q89.946 -2.513 87.762 -0.331 Q85.58 1.853 81.798 1.853 H60.222 Z M60.222 -3.867 H81.798 Q82.86 -3.867 83.543 -4.55 Q84.226 -5.233 84.226 -6.295 V-17.614 Q84.226 -18.676 83.543 -19.359 Q82.86 -20.042 81.798 -20.042 H60.222 Q59.16 -20.042 58.477 -19.359 Q57.794 -18.676 57.794 -17.614 V-6.295 Q57.794 -5.233 58.477 -4.55 Q59.16 -3.867 60.222 -3.867 Z M57.597 -37.066 Q56.482 -36.459 55.424 -36.81 Q54.367 -37.161 53.72 -38.295 Q52.387 -40.083 50.607 -41.552 Q48.827 -43.021 46.598 -43.021 Q43.422 -43.021 41.284 -40.787 Q39.146 -38.551 39.146 -35.415 Q39.146 -33.24 40.49 -31.511 Q41.832 -29.783 43.577 -28.895 Q44.692 -28.387 45.238 -27.233 Q45.785 -26.081 45.326 -24.965 Q44.866 -23.851 43.664 -23.638 Q42.462 -23.426 41.347 -23.736 Q37.8 -25.192 35.613 -28.43 Q33.426 -31.669 33.426 -35.383 Q33.426 -40.995 37.25 -44.868 Q41.072 -48.742 46.551 -48.742 Q50.381 -48.742 53.412 -46.515 Q56.444 -44.289 58.333 -41.041 Q58.743 -39.927 58.727 -38.799 Q58.712 -37.673 57.597 -37.066 Z M42.127 1.853 Q41.332 1.853 40.801 1.41 Q40.27 0.968 40.155 0.199 L38.752 -8.867 Q36.469 -9.731 33.653 -11.195 Q30.837 -12.659 28.86 -14.556 L19.133 -11.014 Q18.868 -11.052 18.515 -11.139 Q18.162 -11.227 18.155 -11.545 L12.222 -22.226 Q12.215 -22.545 12.122 -22.644 Q12.029 -22.743 12.199 -23.054 L19.877 -29.662 Q19.702 -31.017 19.49 -32.501 Q19.277 -33.985 19.277 -35.366 Q19.277 -36.746 19.49 -38.158 Q19.702 -39.57 19.877 -41.193 L12.298 -47.603 Q12.1 -47.93 12.244 -48.108 Q12.389 -48.286 12.396 -48.606 L18.254 -58.764 Q18.28 -59.038 18.574 -59.098 Q18.868 -59.158 19.133 -59.294 L28.389 -56.025 Q30.65 -57.99 33.396 -59.469 Q36.142 -60.948 38.774 -61.988 L40.656 -72.017 Q40.876 -72.206 41.182 -72.358 Q41.487 -72.51 41.733 -72.51 H52.947 Q53.193 -72.51 53.498 -72.358 Q53.804 -72.206 54.024 -72.017 L55.83 -61.813 Q58.591 -60.622 61.121 -59.294 Q63.651 -57.967 65.988 -55.926 L75.873 -59.294 Q76.139 -59.257 76.35 -59.149 Q76.562 -59.04 76.677 -58.764 L82.534 -48.53 Q82.541 -48.211 82.556 -47.989 Q82.57 -47.767 82.382 -47.603 L70.653 -38.014 Q70.653 -38.014 70.653 -38.014 Q70.653 -38.014 70.653 -38.014 Q69.956 -37.165 68.658 -37.363 Q67.36 -37.561 66.496 -38.374 Q65.707 -39.122 65.786 -40.319 Q65.864 -41.515 66.769 -42.422 L75.327 -49.531 L73.574 -52.489 L63.901 -49.455 Q61.717 -52.208 58.07 -54.35 Q54.424 -56.493 50.913 -56.897 L49.214 -66.79 H45.292 L43.767 -57.071 Q39.701 -56.434 36.411 -54.526 Q33.123 -52.619 30.354 -49.356 L21.106 -52.489 L19.156 -49.531 L26.431 -42.847 Q25.84 -40.829 25.495 -38.928 Q25.149 -37.028 25.149 -35.428 Q25.149 -33.732 25.445 -31.818 Q25.741 -29.904 26.257 -27.712 L19.156 -21.127 L21.007 -18.168 L30.278 -21.225 Q32.941 -18.342 36.43 -16.582 Q39.92 -14.823 43.691 -13.707 V0.7 Q43.691 1.419 43.199 1.636 Q42.707 1.853 42.127 1.853 Z"/></g><g id="Ultralight-S" transform="matrix(1 0 0 1 517.792 696)"><path d="M59.767 0.67 Q56.145 0.67 54.11 -1.366 Q52.074 -3.401 52.074 -7.023 V-18.069 Q52.074 -21.692 54.11 -23.726 Q56.145 -25.762 59.767 -25.762 H81.07 Q84.691 -25.762 86.727 -23.726 Q88.763 -21.692 88.763 -18.069 V-7.023 Q88.763 -3.401 86.727 -1.366 Q84.691 0.67 81.07 0.67 H59.767 Z M59.767 -3.867 H81.07 Q82.451 -3.867 83.338 -4.755 Q84.226 -5.642 84.226 -7.023 V-18.069 Q84.226 -19.45 83.338 -20.338 Q82.451 -21.225 81.07 -21.225 H59.767 Q58.386 -21.225 57.498 -20.338 Q56.611 -19.45 56.611 -18.069 V-7.023 Q56.611 -5.642 57.498 -4.755 Q58.386 -3.867 59.767 -3.867 Z M56.709 -37.498 Q55.822 -37.005 55.003 -37.242 Q54.185 -37.48 53.652 -38.386 Q52.25 -40.106 50.484 -41.564 Q48.719 -43.021 46.508 -43.021 Q43.331 -43.021 41.193 -40.78 Q39.056 -38.538 39.056 -35.393 Q39.056 -33.235 40.387 -31.52 Q41.718 -29.806 43.395 -28.918 Q44.283 -28.523 44.726 -27.587 Q45.17 -26.65 44.825 -25.762 Q44.48 -24.874 43.494 -24.776 Q42.507 -24.677 41.62 -24.874 Q38.46 -26.216 36.489 -29.147 Q34.519 -32.079 34.519 -35.383 Q34.519 -40.516 37.989 -44.037 Q41.459 -47.558 46.46 -47.558 Q49.901 -47.558 52.615 -45.536 Q55.329 -43.514 57.104 -40.654 Q57.4 -39.767 57.498 -38.879 Q57.597 -37.991 56.709 -37.498 Z M42.491 0.67 Q41.963 0.67 41.636 0.387 Q41.308 0.105 41.225 -0.415 L39.845 -9.686 Q37.379 -10.574 34.245 -12.196 Q31.11 -13.819 28.996 -15.899 L18.837 -12.152 Q18.936 -12.349 18.936 -12.3 Q18.936 -12.25 19.133 -12.25 L13.314 -22.705 Q13.512 -22.705 13.332 -22.419 Q13.153 -22.133 13.019 -22.211 L21.106 -29.115 Q20.909 -30.585 20.662 -32.217 Q20.415 -33.849 20.415 -35.332 Q20.415 -36.814 20.662 -38.362 Q20.909 -39.912 21.106 -41.739 L13.117 -48.446 Q13.216 -48.544 13.462 -48.347 Q13.709 -48.15 13.512 -48.15 L19.232 -58.012 Q19.059 -57.954 18.998 -57.885 Q18.936 -57.815 18.837 -58.111 L28.503 -54.659 Q30.968 -56.829 33.976 -58.456 Q36.984 -60.083 39.845 -61.168 L41.817 -71.721 Q42.014 -71.524 42.034 -71.425 Q42.054 -71.327 41.916 -71.327 H52.764 Q52.626 -71.327 52.646 -71.425 Q52.666 -71.524 52.863 -71.721 L54.737 -60.971 Q57.794 -59.689 60.506 -58.259 Q63.219 -56.829 65.783 -54.56 L76.237 -58.111 Q76.139 -57.914 75.984 -57.935 Q75.829 -57.957 75.744 -58.012 L81.464 -48.051 Q81.267 -48.051 81.36 -48.207 Q81.452 -48.363 81.563 -48.446 L69.038 -38.287 Q69.038 -38.287 69.038 -38.287 Q69.038 -38.287 69.038 -38.287 Q68.544 -37.597 67.497 -37.762 Q66.45 -37.925 65.734 -38.534 Q65.093 -39.076 65.125 -40.023 Q65.159 -40.969 65.882 -41.739 L75.35 -49.531 L73.574 -52.489 L63.81 -49.432 Q61.739 -52.095 58.002 -54.293 Q54.264 -56.493 50.891 -56.829 L49.214 -66.79 H45.269 L43.79 -57.026 Q39.746 -56.434 36.491 -54.56 Q33.237 -52.687 30.377 -49.333 L21.106 -52.489 L19.133 -49.531 L26.431 -42.824 Q25.84 -40.852 25.495 -38.928 Q25.149 -37.005 25.149 -35.412 Q25.149 -33.721 25.445 -31.813 Q25.741 -29.904 26.234 -27.734 L19.133 -21.127 L21.007 -18.168 L30.278 -21.225 Q32.941 -18.365 36.442 -16.639 Q39.943 -14.913 43.691 -13.73 V-0.05 Q43.691 0.49 43.289 0.58 Q42.888 0.67 42.491 0.67 Z"/></g></g></svg>