<svg xmlns="http://www.w3.org/2000/svg" version="1.1" width="3300" height="2000"><g id="Notes"><style>
    text {
      font-family: monospace;
      text-anchor: middle;
    }
    text.emphasis {
      font-weight:bold;
    }
    text.lanchor {
      text-anchor: start;
    }
  </style><rect height="2200" id="artboard" fill="white" width="3300" x="0" y="0"/><line id="" style="fill:none;stroke:black;stroke-width:0.5;" x1="263" x2="3036" y1="292" y2="292"/><text class="lanchor emphasis" transform="matrix(1 0 0 1 263 322)">Weight/Scale Variations</text><text transform="matrix(1 0 0 1 559.711 322)">Ultralight</text><text transform="matrix(1 0 0 1 856.422 322)">Thin</text><text transform="matrix(1 0 0 1 1153.13 322)">Light</text><text transform="matrix(1 0 0 1 1449.84 322)">Regular</text><text transform="matrix(1 0 0 1 1746.56 322)">Medium</text><text transform="matrix(1 0 0 1 2043.27 322)">Semibold</text><text transform="matrix(1 0 0 1 2339.98 322)">Bold</text><text transform="matrix(1 0 0 1 2636.69 322)">Heavy</text><text transform="matrix(1 0 0 1 2933.4 322)">Black</text><text id="template-version" style="text-anchor: end;" transform="matrix(1 0 0 1 3036 1933)">Template v.1.0</text><text class="lanchor" transform="matrix(1 0 0 1 263 726)">Small</text><text class="lanchor" transform="matrix(1 0 0 1 263 1156)">Medium</text><text class="lanchor" transform="matrix(1 0 0 1 263 1586)">Large</text></g><g id="Guides"><g id="H-reference" style="fill:#27AAE1;stroke:none;" transform="matrix(1 0 0 1 339 696)"><path d="M 54.9316 0 L 57.666 0 L 30.5664 -70.459 L 28.0762 -70.459 L 0.976562 0 L 3.66211 0 L 12.9395 -24.4629 L 45.7031 -24.4629 Z M 29.1992 -67.0898 L 29.4434 -67.0898 L 44.8242 -26.709 L 13.8184 -26.709 Z"/></g><line id="Baseline-S" style="fill:none;stroke:#27AAE1;opacity:1;stroke-width:0.577;" x1="263" x2="3036" y1="696" y2="696"/><line id="Capline-S" style="fill:none;stroke:#27AAE1;opacity:1;stroke-width:0.577;" x1="263" x2="3036" y1="625.541" y2="625.541"/><g id="H-reference" style="fill:#27AAE1;stroke:none;" transform="matrix(1 0 0 1 339 1126)"><path d="M 54.9316 0 L 57.666 0 L 30.5664 -70.459 L 28.0762 -70.459 L 0.976562 0 L 3.66211 0 L 12.9395 -24.4629 L 45.7031 -24.4629 Z M 29.1992 -67.0898 L 29.4434 -67.0898 L 44.8242 -26.709 L 13.8184 -26.709 Z"/></g><line id="Baseline-M" style="fill:none;stroke:#27AAE1;opacity:1;stroke-width:0.577;" x1="263" x2="3036" y1="1126" y2="1126"/><line id="Capline-M" style="fill:none;stroke:#27AAE1;opacity:1;stroke-width:0.577;" x1="263" x2="3036" y1="1055.54" y2="1055.54"/><g id="H-reference" style="fill:#27AAE1;stroke:none;" transform="matrix(1 0 0 1 339 1556)"><path d="M 54.9316 0 L 57.666 0 L 30.5664 -70.459 L 28.0762 -70.459 L 0.976562 0 L 3.66211 0 L 12.9395 -24.4629 L 45.7031 -24.4629 Z M 29.1992 -67.0898 L 29.4434 -67.0898 L 44.8242 -26.709 L 13.8184 -26.709 Z"/></g><line id="Baseline-L" style="fill:none;stroke:#27AAE1;opacity:1;stroke-width:0.577;" x1="263" x2="3036" y1="1556" y2="1556"/><line id="Capline-L" style="fill:none;stroke:#27AAE1;opacity:1;stroke-width:0.577;" x1="263" x2="3036" y1="1485.54" y2="1485.54"/><rect height="119.336" id="left-margin" style="fill:darkred;stroke:none;opacity:0.4;" width="12.4512" x="1394.06" y="1030.79"/><rect height="119.336" id="right-margin" style="fill:darkgreen;stroke:none;opacity:0.4;" width="12.4512" x="1502.5112" y="1030.79"/><rect x="1406.5112" y="1045" width="96" height="96" fill="none" stroke="blue" stroke-dasharray="5"/><rect x="1394.06" y="1030.79" width="120.9024" height="119.336" fill="none" stroke="blue"/></g><g id="Symbols"><g id="Bold-L" transform="matrix(1 0 0 1 2266 1556)"><path d="M99.169 33.301 Q92.806 33.301 88.328 28.872 Q83.85 24.441 83.85 18.144 V-7.172 Q83.85 -13.3 88.328 -17.815 Q92.806 -22.33 99.169 -22.33 H138.03 Q144.157 -22.33 148.673 -17.815 Q153.188 -13.3 153.188 -7.172 V18.144 Q153.188 24.441 148.673 28.872 Q144.157 33.301 138.03 33.301 H99.169 Z M99.169 18.144 H138.03 Q138.03 18.144 138.03 18.144 Q138.03 18.144 138.03 18.144 V-7.172 Q138.03 -7.172 138.03 -7.172 Q138.03 -7.172 138.03 -7.172 H99.169 Q99.169 -7.172 99.169 -7.172 Q99.169 -7.172 99.169 -7.172 V18.144 Q99.169 18.144 99.169 18.144 Q99.169 18.144 99.169 18.144 Z M65.242 33.301 Q62.565 33.301 60.462 31.468 Q58.361 29.634 57.889 26.69 L55.631 11.694 Q53.535 11.049 50.874 9.517 Q48.214 7.985 46.44 6.534 L32.734 12.984 Q30.012 14.274 27.13 13.406 Q24.247 12.537 22.736 9.759 L11.126 -11.204 Q9.675 -13.622 10.239 -16.444 Q10.804 -19.266 13.223 -21.04 L25.961 -30.554 Q25.8 -31.528 25.719 -32.892 Q25.639 -34.256 25.639 -35.23 Q25.639 -36.204 25.719 -37.568 Q25.8 -38.932 25.961 -39.906 L13.223 -49.259 Q10.643 -51.194 10.078 -53.935 Q9.514 -56.676 11.126 -59.256 L22.798 -80.249 Q24.188 -82.637 27.009 -83.605 Q29.831 -84.572 32.572 -83.444 L46.763 -76.994 Q48.375 -78.284 50.955 -79.735 Q53.535 -81.186 55.631 -81.831 L58.211 -97.311 Q58.695 -100.214 60.775 -102.068 Q62.857 -103.922 65.79 -103.922 H89.237 Q91.913 -103.922 94.014 -102.078 Q96.116 -100.235 96.75 -97.311 L99.169 -81.992 Q101.234 -81.178 103.909 -79.811 Q106.586 -78.445 108.36 -76.994 L122.389 -83.444 Q125.13 -84.572 127.871 -83.605 Q130.613 -82.637 132.014 -80.245 L143.885 -59.23 Q145.286 -56.676 144.641 -53.935 Q143.996 -51.194 141.578 -49.259 L132.548 -40.712 Q132.548 -40.712 132.548 -40.712 Q132.548 -40.712 132.548 -40.712 Q129.645 -38.455 126.559 -37.246 Q123.474 -36.036 120.293 -35.552 H97.879 Q97.879 -35.552 97.879 -35.552 Q97.879 -35.552 97.879 -35.552 Q97.718 -44.099 91.671 -50.146 Q85.624 -56.192 77.078 -56.192 Q68.209 -56.192 62.162 -50.065 Q56.115 -43.937 56.115 -35.23 Q56.115 -28.457 60.066 -22.975 Q64.016 -17.492 70.144 -15.441 V28.464 Q70.144 30.56 69.257 31.931 Q68.37 33.301 65.242 33.301 Z"/></g><g id="Semibold-L" transform="matrix(1 0 0 1 1970.27 1556)"><path d="M96.715 31.548 Q91.435 31.548 87.643 27.783 Q83.85 24.016 83.85 18.774 V-9.556 Q83.85 -14.703 87.643 -18.516 Q91.435 -22.33 96.715 -22.33 H138.311 Q143.456 -22.33 147.27 -18.516 Q151.085 -14.703 151.085 -9.556 V18.774 Q151.085 24.016 147.27 27.783 Q143.456 31.548 138.311 31.548 H96.715 Z M96.715 18.774 H138.311 Q138.311 18.774 138.311 18.774 Q138.311 18.774 138.311 18.774 V-9.556 Q138.311 -9.556 138.311 -9.556 Q138.311 -9.556 138.311 -9.556 H96.715 Q96.715 -9.556 96.715 -9.556 Q96.715 -9.556 96.715 -9.556 V18.774 Q96.715 18.774 96.715 18.774 Q96.715 18.774 96.715 18.774 Z M66.182 31.548 Q63.687 31.548 61.833 29.881 Q59.979 28.214 59.571 25.568 L57.244 10.502 Q54.727 9.646 51.75 7.94 Q48.775 6.232 46.65 4.5 L32.874 10.95 Q30.354 12.1 27.743 11.294 Q25.132 10.488 23.718 8.006 L13.089 -11.134 Q11.708 -13.413 12.273 -15.988 Q12.837 -18.565 15.045 -20.198 L27.854 -29.712 Q27.622 -30.894 27.542 -32.471 Q27.461 -34.048 27.461 -35.23 Q27.461 -36.412 27.542 -37.989 Q27.622 -39.566 27.854 -40.748 L15.045 -50.17 Q12.745 -51.895 12.181 -54.425 Q11.616 -56.957 13.089 -59.326 L23.752 -78.484 Q25.099 -80.744 27.675 -81.607 Q30.252 -82.47 32.782 -81.41 L46.832 -74.96 Q48.865 -76.602 51.797 -78.263 Q54.727 -79.924 57.244 -80.709 L59.753 -96.12 Q60.167 -98.742 62.115 -100.42 Q64.061 -102.1 66.701 -102.1 H88.228 Q90.721 -102.1 92.68 -100.427 Q94.639 -98.753 95.138 -96.12 L97.556 -80.87 Q100.056 -79.919 103.076 -78.342 Q106.096 -76.763 108.15 -74.96 L122.108 -81.41 Q124.64 -82.47 127.136 -81.607 Q129.63 -80.744 130.985 -78.48 L141.831 -59.313 Q143.184 -56.957 142.539 -54.461 Q141.894 -51.965 139.755 -50.17 L128.902 -40.151 Q128.902 -40.151 128.902 -40.151 Q128.902 -40.151 128.902 -40.151 Q126.351 -38.105 123.659 -37.036 Q120.97 -35.967 118.05 -35.483 H98.019 Q98.019 -35.483 98.019 -35.483 Q98.019 -35.483 98.019 -35.483 Q97.927 -44.099 91.88 -50.146 Q85.833 -56.192 77.218 -56.192 Q68.418 -56.192 62.338 -50.065 Q56.255 -43.937 56.255 -35.23 Q56.255 -28.457 60.17 -23.044 Q64.086 -17.633 70.213 -15.493 V27.412 Q70.213 29.157 69.397 30.354 Q68.58 31.548 66.182 31.548 Z"/></g><g id="Medium-L" transform="matrix(1 0 0 1 1674.31 1556)"><path d="M94.875 30.234 Q90.408 30.234 87.13 26.966 Q83.85 23.699 83.85 19.248 V-11.344 Q83.85 -15.754 87.13 -19.042 Q90.408 -22.33 94.875 -22.33 H138.52 Q142.93 -22.33 146.218 -19.042 Q149.506 -15.754 149.506 -11.344 V19.248 Q149.506 23.699 146.218 26.966 Q142.93 30.234 138.52 30.234 H94.875 Z M94.875 19.248 H138.52 Q138.52 19.248 138.52 19.248 Q138.52 19.248 138.52 19.248 V-11.344 Q138.52 -11.344 138.52 -11.344 Q138.52 -11.344 138.52 -11.344 H94.875 Q94.875 -11.344 94.875 -11.344 Q94.875 -11.344 94.875 -11.344 V19.248 Q94.875 19.248 94.875 19.248 Q94.875 19.248 94.875 19.248 Z M66.886 30.234 Q64.527 30.234 62.86 28.691 Q61.191 27.148 60.833 24.728 L58.453 9.609 Q55.62 8.595 52.408 6.756 Q49.196 4.918 46.808 2.975 L32.979 9.425 Q30.61 10.47 28.204 9.71 Q25.797 8.951 24.454 6.692 L14.561 -11.081 Q13.234 -13.255 13.798 -15.646 Q14.363 -18.039 16.412 -19.568 L29.273 -29.082 Q28.99 -30.418 28.909 -32.155 Q28.828 -33.893 28.828 -35.23 Q28.828 -36.567 28.909 -38.305 Q28.99 -40.042 29.273 -41.378 L16.412 -50.854 Q14.324 -52.421 13.759 -54.794 Q13.195 -57.166 14.561 -59.379 L24.468 -77.158 Q25.782 -79.325 28.175 -80.109 Q30.568 -80.891 32.94 -79.885 L46.885 -73.435 Q49.234 -75.339 52.427 -77.158 Q55.62 -78.977 58.453 -79.869 L60.911 -95.226 Q61.272 -97.637 63.118 -99.185 Q64.966 -100.733 67.385 -100.733 H87.47 Q89.828 -100.733 91.679 -99.188 Q93.531 -97.642 93.928 -95.226 L96.347 -80.03 Q99.172 -78.976 102.45 -77.239 Q105.727 -75.501 107.992 -73.435 L121.899 -79.885 Q124.271 -80.891 126.583 -80.109 Q128.895 -79.325 130.211 -77.158 L140.289 -59.372 Q141.605 -57.166 140.96 -54.856 Q140.315 -52.543 138.388 -50.854 L126.168 -39.73 Q126.168 -39.73 126.168 -39.73 Q126.168 -39.73 126.168 -39.73 Q123.879 -37.842 121.484 -36.878 Q119.09 -35.914 116.366 -35.43 H98.124 Q98.124 -35.43 98.124 -35.43 Q98.124 -35.43 98.124 -35.43 Q98.085 -44.099 92.038 -50.146 Q85.991 -56.192 77.323 -56.192 Q68.576 -56.192 62.468 -50.065 Q56.36 -43.937 56.36 -35.23 Q56.36 -28.457 60.249 -23.098 Q64.139 -17.738 70.266 -15.53 V26.624 Q70.266 28.106 69.502 29.17 Q68.738 30.234 66.886 30.234 Z"/></g><g id="Regular-L" transform="matrix(1 0 0 1 1378.56 1556)"><path d="M93.525 29.27 Q89.655 29.27 86.752 26.368 Q83.85 23.465 83.85 19.595 V-12.655 Q83.85 -16.525 86.752 -19.427 Q89.655 -22.33 93.525 -22.33 H138.675 Q142.545 -22.33 145.447 -19.427 Q148.35 -16.525 148.35 -12.655 V19.595 Q148.35 23.465 145.447 26.368 Q142.545 29.27 138.675 29.27 H93.525 Z M93.525 19.595 H138.675 Q138.675 19.595 138.675 19.595 Q138.675 19.595 138.675 19.595 V-12.655 Q138.675 -12.655 138.675 -12.655 Q138.675 -12.655 138.675 -12.655 H93.525 Q93.525 -12.655 93.525 -12.655 Q93.525 -12.655 93.525 -12.655 V19.595 Q93.525 19.595 93.525 19.595 Q93.525 19.595 93.525 19.595 Z M67.403 29.27 Q65.145 29.27 63.613 27.819 Q62.081 26.368 61.759 24.11 L59.34 8.953 Q56.276 7.824 52.89 5.889 Q49.504 3.954 46.924 1.858 L33.056 8.308 Q30.799 9.275 28.541 8.549 Q26.284 7.824 24.994 5.728 L15.641 -11.042 Q14.351 -13.139 14.916 -15.396 Q15.48 -17.654 17.415 -19.105 L30.315 -28.619 Q29.992 -30.07 29.912 -31.924 Q29.831 -33.779 29.831 -35.23 Q29.831 -36.681 29.912 -38.536 Q29.992 -40.39 30.315 -41.841 L17.415 -51.355 Q15.48 -52.806 14.916 -55.064 Q14.351 -57.321 15.641 -59.417 L24.994 -76.187 Q26.284 -78.284 28.541 -79.009 Q30.799 -79.735 33.056 -78.767 L46.924 -72.317 Q49.504 -74.414 52.89 -76.349 Q56.276 -78.284 59.34 -79.251 L61.759 -94.57 Q62.081 -96.827 63.855 -98.279 Q65.629 -99.73 67.886 -99.73 H86.914 Q89.171 -99.73 90.945 -98.279 Q92.719 -96.827 93.041 -94.57 L95.46 -79.412 Q98.524 -78.284 101.991 -76.429 Q105.457 -74.575 107.876 -72.317 L121.744 -78.767 Q124.001 -79.735 126.178 -79.009 Q128.355 -78.284 129.645 -76.187 L139.159 -59.417 Q140.449 -57.321 139.804 -55.144 Q139.159 -52.967 137.385 -51.355 L124.163 -39.422 Q124.163 -39.422 124.163 -39.422 Q124.163 -39.422 124.163 -39.422 Q122.066 -37.649 119.889 -36.762 Q117.713 -35.875 115.133 -35.391 H98.201 Q98.201 -35.391 98.201 -35.391 Q98.201 -35.391 98.201 -35.391 Q98.201 -44.099 92.154 -50.146 Q86.108 -56.192 77.4 -56.192 Q68.692 -56.192 62.565 -50.065 Q56.438 -43.937 56.438 -35.23 Q56.438 -28.457 60.308 -23.136 Q64.177 -17.815 70.305 -15.557 V26.045 Q70.305 27.335 69.579 28.303 Q68.854 29.27 67.403 29.27 Z"/></g><g id="Light-L" transform="matrix(1 0 0 1 1082.77 1556)"><path d="M93.153 26.045 Q89.345 26.045 86.598 23.297 Q83.85 20.55 83.85 16.742 V-13.027 Q83.85 -16.835 86.598 -19.582 Q89.345 -22.33 93.153 -22.33 H135.822 Q139.63 -22.33 142.377 -19.582 Q145.125 -16.835 145.125 -13.027 V16.742 Q145.125 20.55 142.377 23.297 Q139.63 26.045 135.822 26.045 H93.153 Z M93.153 18.726 H135.822 Q136.69 18.726 137.248 18.168 Q137.806 17.61 137.806 16.742 V-13.027 Q137.806 -13.895 137.248 -14.453 Q136.69 -15.012 135.822 -15.012 H93.153 Q92.285 -15.012 91.727 -14.453 Q91.168 -13.895 91.168 -13.027 V16.742 Q91.168 17.61 91.727 18.168 Q92.285 18.726 93.153 18.726 Z M68.085 26.045 Q66.448 26.045 65.319 24.934 Q64.19 23.825 63.929 22.125 L61.697 6.658 Q58.385 5.529 54.565 3.376 Q50.744 1.225 47.978 -1.182 L33.987 5.268 Q32.226 5.987 30.463 5.449 Q28.703 4.908 27.722 3.246 L19.115 -11.973 Q18.134 -13.635 18.544 -15.366 Q18.953 -17.096 20.516 -18.236 L33.355 -27.75 Q33.032 -29.449 32.889 -31.46 Q32.747 -33.469 32.747 -35.169 Q32.747 -36.805 32.889 -38.815 Q33.032 -40.824 33.355 -42.71 L20.516 -52.224 Q18.953 -53.364 18.574 -55.125 Q18.197 -56.887 19.176 -58.548 L27.722 -73.582 Q28.703 -75.183 30.463 -75.754 Q32.226 -76.323 33.987 -75.604 L47.915 -69.278 Q50.868 -71.685 54.565 -73.806 Q58.261 -75.926 61.635 -76.957 L63.992 -92.461 Q64.315 -94.222 65.685 -95.363 Q67.056 -96.505 68.817 -96.505 H85.922 Q87.683 -96.505 89.084 -95.363 Q90.485 -94.222 90.808 -92.461 L93.103 -77.055 Q96.663 -75.741 100.223 -73.793 Q103.782 -71.847 106.636 -69.278 L120.938 -75.604 Q122.637 -76.323 124.348 -75.754 Q126.06 -75.183 127.039 -73.582 L135.685 -58.487 Q136.666 -56.825 136.176 -55.144 Q135.685 -53.464 134.284 -52.224 L121.247 -40.974 Q121.31 -40.663 121.371 -40.414 Q121.434 -40.167 121.495 -39.856 Q120.205 -37.958 118.308 -36.823 Q116.41 -35.69 113.954 -35.33 L95.225 -35.391 Q95.225 -35.391 95.225 -35.391 Q95.225 -35.391 95.225 -35.391 Q95.225 -42.92 89.953 -48.161 Q84.68 -53.401 77.152 -53.401 Q69.684 -53.401 64.363 -48.111 Q59.043 -42.822 59.043 -35.291 Q59.043 -29.573 62.23 -25.028 Q65.418 -20.482 70.49 -18.473 V23.378 Q70.49 24.482 69.858 25.263 Q69.226 26.045 68.085 26.045 Z"/></g><g id="Thin-L" transform="matrix(1 0 0 1 787.282 1556)"><path d="M92.78 22.82 Q89.034 22.82 86.443 20.227 Q83.85 17.636 83.85 13.89 V-13.4 Q83.85 -17.146 86.443 -19.737 Q89.034 -22.33 92.78 -22.33 H132.97 Q136.716 -22.33 139.307 -19.737 Q141.9 -17.146 141.9 -13.4 V13.89 Q141.9 17.636 139.307 20.227 Q136.716 22.82 132.97 22.82 H92.78 Z M92.78 17.858 H132.97 Q134.705 17.858 135.822 16.742 Q136.938 15.625 136.938 13.89 V-13.4 Q136.938 -15.135 135.822 -16.252 Q134.705 -17.368 132.97 -17.368 H92.78 Q91.045 -17.368 89.928 -16.252 Q88.812 -15.135 88.812 -13.4 V13.89 Q88.812 15.625 89.928 16.742 Q91.045 17.858 92.78 17.858 Z M68.767 22.82 Q67.749 22.82 67.024 22.051 Q66.298 21.282 66.1 20.14 L64.053 4.363 Q60.493 3.235 56.239 0.866 Q51.984 -1.505 49.033 -4.22 L34.917 2.23 Q33.651 2.701 32.387 2.348 Q31.121 1.995 30.452 0.766 L22.588 -12.903 Q21.917 -14.13 22.172 -15.335 Q22.427 -16.538 23.617 -17.368 L36.393 -26.882 Q36.07 -28.83 35.865 -30.994 Q35.66 -33.158 35.66 -35.106 Q35.66 -36.93 35.865 -39.094 Q36.07 -41.258 36.393 -43.578 L23.617 -53.092 Q22.427 -53.922 22.233 -55.188 Q22.041 -56.454 22.712 -57.681 L30.452 -70.978 Q31.121 -72.082 32.387 -72.498 Q33.651 -72.913 34.917 -72.442 L48.909 -66.24 Q52.232 -68.955 56.239 -71.263 Q60.246 -73.57 63.929 -74.662 L66.224 -90.353 Q66.546 -91.618 67.514 -92.45 Q68.481 -93.28 69.747 -93.28 H84.929 Q86.195 -93.28 87.223 -92.45 Q88.254 -91.618 88.576 -90.353 L90.747 -74.699 Q94.802 -73.198 98.456 -71.158 Q102.108 -69.117 105.396 -66.24 L120.131 -72.442 Q121.273 -72.913 122.519 -72.498 Q123.766 -72.082 124.435 -70.978 L132.212 -57.557 Q132.883 -56.33 132.548 -55.144 Q132.212 -53.959 131.183 -53.092 L118.333 -42.523 Q118.457 -41.903 118.58 -41.407 Q118.704 -40.911 118.828 -40.29 Q118.345 -38.27 116.726 -36.886 Q115.108 -35.503 112.775 -35.267 L92.248 -35.391 Q92.248 -35.391 92.248 -35.391 Q92.248 -35.391 92.248 -35.391 Q92.248 -41.741 87.751 -46.176 Q83.255 -50.61 76.903 -50.61 Q70.677 -50.61 66.162 -46.158 Q61.647 -41.704 61.647 -35.354 Q61.647 -30.691 64.153 -26.919 Q66.658 -23.149 70.677 -21.387 V20.711 Q70.677 21.63 70.137 22.225 Q69.599 22.82 68.767 22.82 Z"/></g><g id="Ultralight-L" transform="matrix(1 0 0 1 491.205 1556)"><path d="M92.558 20.885 Q88.849 20.885 86.349 18.386 Q83.85 15.886 83.85 12.178 V-13.622 Q83.85 -17.331 86.349 -19.831 Q88.849 -22.33 92.558 -22.33 H131.257 Q134.966 -22.33 137.466 -19.831 Q139.965 -17.331 139.965 -13.622 V12.178 Q139.965 15.886 137.466 18.386 Q134.966 20.885 131.257 20.885 H92.558 Z M92.558 17.338 H131.257 Q133.515 17.338 134.966 15.886 Q136.417 14.435 136.417 12.178 V-13.622 Q136.417 -15.88 134.966 -17.331 Q133.515 -18.782 131.257 -18.782 H92.558 Q90.3 -18.782 88.849 -17.331 Q87.398 -15.88 87.398 -13.622 V12.178 Q87.398 14.435 88.849 15.886 Q90.3 17.338 92.558 17.338 Z M69.176 20.885 Q68.531 20.885 68.047 20.321 Q67.564 19.756 67.403 18.95 L65.468 2.986 Q61.759 1.858 57.244 -0.642 Q52.729 -3.141 49.665 -6.044 L35.475 0.406 Q34.508 0.729 33.54 0.487 Q32.572 0.245 32.089 -0.722 L24.671 -13.461 Q24.188 -14.429 24.349 -15.316 Q24.51 -16.202 25.477 -16.847 L38.216 -26.361 Q37.894 -28.457 37.652 -30.715 Q37.41 -32.972 37.41 -35.069 Q37.41 -37.004 37.652 -39.261 Q37.894 -41.519 38.216 -44.099 L25.477 -53.612 Q24.51 -54.257 24.429 -55.225 Q24.349 -56.192 24.832 -57.16 L32.089 -69.415 Q32.572 -70.221 33.54 -70.544 Q34.508 -70.866 35.475 -70.544 L49.504 -64.416 Q53.051 -67.319 57.244 -69.737 Q61.436 -72.156 65.306 -73.285 L67.564 -89.087 Q67.886 -90.055 68.612 -90.7 Q69.338 -91.345 70.305 -91.345 H84.334 Q85.301 -91.345 86.108 -90.7 Q86.914 -90.055 87.236 -89.087 L89.332 -73.285 Q93.686 -71.672 97.395 -69.576 Q101.104 -67.48 104.651 -64.416 L119.648 -70.544 Q120.454 -70.866 121.421 -70.544 Q122.389 -70.221 122.873 -69.415 L130.129 -56.999 Q130.613 -56.031 130.371 -55.144 Q130.129 -54.257 129.322 -53.612 L116.584 -43.454 Q116.745 -42.647 116.906 -42.002 Q117.068 -41.357 117.229 -40.551 Q117.229 -38.455 115.778 -36.923 Q114.326 -35.391 112.069 -35.23 L90.461 -35.391 Q90.461 -35.391 90.461 -35.391 Q90.461 -35.391 90.461 -35.391 Q90.461 -41.035 86.43 -44.986 Q82.399 -48.936 76.755 -48.936 Q71.273 -48.936 67.241 -44.986 Q63.21 -41.035 63.21 -35.391 Q63.21 -31.36 65.306 -28.054 Q67.403 -24.749 70.789 -23.136 V19.111 Q70.789 19.918 70.305 20.401 Q69.821 20.885 69.176 20.885 Z"/></g><g id="Bold-M" transform="matrix(1 0 0 1 2281.8 1126)"><path d="M80.75 19.02 Q74.125 19.02 69.562 14.458 Q65 9.895 65 3.27 V-9.48 Q65 -16.105 69.562 -20.667 Q74.125 -25.23 80.75 -25.23 H104.25 Q110.875 -25.23 115.438 -20.667 Q120 -16.105 120 -9.48 V3.27 Q120 9.895 115.438 14.458 Q110.875 19.02 104.25 19.02 H80.75 Z M80.75 3.27 H104.25 Q104.25 3.27 104.25 3.27 Q104.25 3.27 104.25 3.27 V-9.48 Q104.25 -9.48 104.25 -9.48 Q104.25 -9.48 104.25 -9.48 H80.75 Q80.75 -9.48 80.75 -9.48 Q80.75 -9.48 80.75 -9.48 V3.27 Q80.75 3.27 80.75 3.27 Q80.75 3.27 80.75 3.27 Z M49.25 19.02 Q46.375 19.02 44.25 17.208 Q42.125 15.395 41.75 12.52 L40.375 1.645 Q39.75 1.395 39.125 1.02 Q38.5 0.645 37.875 0.27 L30.25 3.52 Q26.625 5.145 22.875 3.895 Q19.125 2.645 17.125 -0.855 L8.875 -15.48 Q7 -18.855 7.75 -22.667 Q8.5 -26.48 11.625 -28.855 L18.125 -33.855 Q18.125 -34.23 18.125 -34.542 Q18.125 -34.855 18.125 -35.23 Q18.125 -35.605 18.125 -35.917 Q18.125 -36.23 18.125 -36.605 L11.625 -41.48 Q8.375 -43.855 7.625 -47.667 Q6.875 -51.48 8.875 -54.98 L17.125 -69.48 Q19.125 -72.855 22.812 -74.105 Q26.5 -75.355 30.125 -73.855 L38.125 -70.605 Q38.75 -70.98 39.25 -71.292 Q39.75 -71.605 40.375 -71.855 L41.5 -80.355 Q42.125 -84.355 44.938 -86.917 Q47.75 -89.48 51.75 -89.48 H68.25 Q72.25 -89.48 75.062 -86.917 Q77.875 -84.355 78.5 -80.355 L79.625 -71.855 Q80.25 -71.605 80.875 -71.292 Q81.5 -70.98 82.125 -70.605 L89.75 -73.855 Q93.375 -75.48 97.125 -74.167 Q100.875 -72.855 102.875 -69.48 L111.125 -54.98 Q113.125 -51.48 112.375 -47.667 Q111.625 -43.855 108.375 -41.48 L104.25 -38.48 Q104.25 -38.48 104.25 -38.48 Q104.25 -38.48 104.25 -38.48 Q102.125 -36.98 99.75 -36.167 Q97.375 -35.355 94.875 -35.355 H77.5 Q77.5 -35.355 77.5 -35.355 Q77.5 -35.355 77.5 -35.355 Q77.375 -42.605 72.25 -47.667 Q67.125 -52.73 59.875 -52.73 Q52.5 -52.73 47.438 -47.667 Q42.375 -42.605 42.375 -35.23 Q42.375 -29.23 45.875 -24.605 Q49.375 -19.98 54.875 -18.355 V13.02 Q54.875 15.52 53.688 17.27 Q52.5 19.02 49.25 19.02 Z"/></g><g id="Semibold-M" transform="matrix(1 0 0 1 1985.97 1126)"><path d="M78.25 17.173 Q72.713 17.173 68.856 13.316 Q65 9.46 65 3.923 V-11.98 Q65 -17.517 68.856 -21.374 Q72.713 -25.23 78.25 -25.23 H104.576 Q110.114 -25.23 113.97 -21.374 Q117.826 -17.517 117.826 -11.98 V3.923 Q117.826 9.46 113.97 13.316 Q110.114 17.173 104.576 17.173 H78.25 Z M78.25 3.923 H104.576 Q104.576 3.923 104.576 3.923 Q104.576 3.923 104.576 3.923 V-11.98 Q104.576 -11.98 104.576 -11.98 Q104.576 -11.98 104.576 -11.98 H78.25 Q78.25 -11.98 78.25 -11.98 Q78.25 -11.98 78.25 -11.98 V3.923 Q78.25 3.923 78.25 3.923 Q78.25 3.923 78.25 3.923 Z M50.174 17.173 Q47.625 17.173 45.718 15.55 Q43.81 13.928 43.489 11.379 L42.06 0.395 Q41 -0.017 40.021 -0.61 Q39.044 -1.202 38.093 -1.85 L30.413 1.4 Q27.005 2.918 23.527 1.721 Q20.049 0.525 18.157 -2.702 L10.94 -15.426 Q9.12 -18.584 9.87 -22.179 Q10.62 -25.774 13.527 -27.985 L20.081 -32.985 Q20.027 -33.577 20.027 -34.107 Q20.027 -34.637 20.027 -35.23 Q20.027 -35.822 20.027 -36.352 Q20.027 -36.882 20.081 -37.475 L13.527 -42.404 Q10.549 -44.616 9.799 -48.211 Q9.049 -51.806 10.94 -55.034 L18.157 -67.686 Q20.049 -70.844 23.491 -72.04 Q26.935 -73.235 30.343 -71.79 L38.234 -68.54 Q39.185 -69.186 40.12 -69.744 Q41.054 -70.301 42.06 -70.714 L43.13 -79.105 Q43.646 -82.834 46.324 -85.232 Q49 -87.632 52.729 -87.632 H67.271 Q71 -87.632 73.676 -85.232 Q76.354 -82.834 76.87 -79.105 L77.94 -70.714 Q79 -70.301 79.979 -69.744 Q80.956 -69.186 81.907 -68.54 L89.479 -71.79 Q92.886 -73.306 96.391 -72.075 Q99.896 -70.844 101.787 -67.686 L109.005 -55.034 Q110.897 -51.806 110.174 -48.237 Q109.451 -44.67 106.472 -42.404 L100.5 -37.936 Q100.5 -37.936 100.5 -37.936 Q100.5 -37.936 100.5 -37.936 Q98.701 -36.654 96.734 -35.977 Q94.766 -35.301 92.593 -35.301 H77.662 Q77.662 -35.301 77.662 -35.301 Q77.662 -35.301 77.662 -35.301 Q77.593 -42.551 72.44 -47.64 Q67.287 -52.73 60.038 -52.73 Q52.663 -52.73 47.6 -47.667 Q42.538 -42.605 42.538 -35.23 Q42.538 -29.23 46.011 -24.659 Q49.484 -20.089 54.929 -18.409 V11.933 Q54.929 14.108 53.824 15.64 Q52.718 17.173 50.174 17.173 Z"/></g><g id="Medium-M" transform="matrix(1 0 0 1 1689.91 1126)"><path d="M76.375 15.786 Q71.653 15.786 68.326 12.46 Q65 9.134 65 4.411 V-13.855 Q65 -18.577 68.326 -21.904 Q71.653 -25.23 76.375 -25.23 H104.821 Q109.544 -25.23 112.87 -21.904 Q116.196 -18.577 116.196 -13.855 V4.411 Q116.196 9.134 112.87 12.46 Q109.544 15.786 104.821 15.786 H76.375 Z M76.375 4.411 H104.821 Q104.821 4.411 104.821 4.411 Q104.821 4.411 104.821 4.411 V-13.855 Q104.821 -13.855 104.821 -13.855 Q104.821 -13.855 104.821 -13.855 H76.375 Q76.375 -13.855 76.375 -13.855 Q76.375 -13.855 76.375 -13.855 V4.411 Q76.375 4.411 76.375 4.411 Q76.375 4.411 76.375 4.411 Z M50.866 15.786 Q48.562 15.786 46.818 14.306 Q45.074 12.828 44.794 10.523 L43.324 -0.542 Q41.938 -1.077 40.694 -1.834 Q39.451 -2.589 38.255 -3.439 L30.535 -0.189 Q27.291 1.245 24.016 0.091 Q20.741 -1.064 18.933 -4.089 L12.489 -15.385 Q10.709 -18.38 11.459 -21.811 Q12.209 -25.244 14.954 -27.334 L21.549 -32.334 Q21.454 -33.089 21.454 -33.781 Q21.454 -34.475 21.454 -35.23 Q21.454 -35.985 21.454 -36.679 Q21.454 -37.371 21.549 -38.126 L14.954 -43.096 Q12.179 -45.186 11.429 -48.619 Q10.679 -52.051 12.489 -55.075 L18.933 -66.341 Q20.741 -69.336 24.001 -70.491 Q27.261 -71.646 30.505 -70.241 L38.315 -66.991 Q39.511 -67.841 40.771 -68.582 Q42.032 -69.322 43.324 -69.857 L44.354 -78.167 Q44.788 -81.692 47.362 -83.969 Q49.938 -86.246 53.462 -86.246 H66.537 Q70.062 -86.246 72.638 -83.969 Q75.213 -81.692 75.646 -78.167 L76.676 -69.857 Q78.062 -69.322 79.306 -68.582 Q80.549 -67.841 81.745 -66.991 L89.275 -70.241 Q92.519 -71.676 95.841 -70.506 Q99.162 -69.336 100.972 -66.341 L107.416 -55.075 Q109.225 -52.051 108.522 -48.666 Q107.821 -45.281 105.046 -43.096 L97.688 -37.529 Q97.688 -37.529 97.688 -37.529 Q97.688 -37.529 97.688 -37.529 Q96.134 -36.409 94.471 -35.835 Q92.81 -35.26 90.88 -35.26 H77.785 Q77.785 -35.26 77.785 -35.26 Q77.785 -35.26 77.785 -35.26 Q77.755 -42.51 72.582 -47.62 Q67.41 -52.73 60.16 -52.73 Q52.785 -52.73 47.722 -47.667 Q42.66 -42.605 42.66 -35.23 Q42.66 -29.23 46.112 -24.7 Q49.565 -20.17 54.97 -18.45 V11.118 Q54.97 13.048 53.925 14.416 Q52.88 15.786 50.866 15.786 Z"/></g><g id="Regular-M" transform="matrix(1 0 0 1 1394.06 1126)"><path d="M75 14.77 Q70.875 14.77 67.938 11.833 Q65 8.895 65 4.77 V-15.23 Q65 -19.355 67.938 -22.292 Q70.875 -25.23 75 -25.23 H105 Q109.125 -25.23 112.062 -22.292 Q115 -19.355 115 -15.23 V4.77 Q115 8.895 112.062 11.833 Q109.125 14.77 105 14.77 H75 Z M75 4.77 H105 Q105 4.77 105 4.77 Q105 4.77 105 4.77 V-15.23 Q105 -15.23 105 -15.23 Q105 -15.23 105 -15.23 H75 Q75 -15.23 75 -15.23 Q75 -15.23 75 -15.23 V4.77 Q75 4.77 75 4.77 Q75 4.77 75 4.77 Z M51.375 14.77 Q49.25 14.77 47.625 13.395 Q46 12.02 45.75 9.895 L44.25 -1.23 Q42.625 -1.855 41.188 -2.73 Q39.75 -3.605 38.375 -4.605 L30.625 -1.355 Q27.5 0.02 24.375 -1.105 Q21.25 -2.23 19.5 -5.105 L13.625 -15.355 Q11.875 -18.23 12.625 -21.542 Q13.375 -24.855 16 -26.855 L22.625 -31.855 Q22.5 -32.73 22.5 -33.542 Q22.5 -34.355 22.5 -35.23 Q22.5 -36.105 22.5 -36.917 Q22.5 -37.73 22.625 -38.605 L16 -43.605 Q13.375 -45.605 12.625 -48.917 Q11.875 -52.23 13.625 -55.105 L19.5 -65.355 Q21.25 -68.23 24.375 -69.355 Q27.5 -70.48 30.625 -69.105 L38.375 -65.855 Q39.75 -66.855 41.25 -67.73 Q42.75 -68.605 44.25 -69.23 L45.25 -77.48 Q45.625 -80.855 48.125 -83.042 Q50.625 -85.23 54 -85.23 H66 Q69.375 -85.23 71.875 -83.042 Q74.375 -80.855 74.75 -77.48 L75.75 -69.23 Q77.375 -68.605 78.812 -67.73 Q80.25 -66.855 81.625 -65.855 L89.125 -69.105 Q92.25 -70.48 95.438 -69.355 Q98.625 -68.23 100.375 -65.355 L106.25 -55.105 Q108 -52.23 107.312 -48.98 Q106.625 -45.73 104 -43.605 L95.625 -37.23 Q95.625 -37.23 95.625 -37.23 Q95.625 -37.23 95.625 -37.23 Q94.25 -36.23 92.812 -35.73 Q91.375 -35.23 89.625 -35.23 H77.875 Q77.875 -35.23 77.875 -35.23 Q77.875 -35.23 77.875 -35.23 Q77.875 -42.48 72.688 -47.605 Q67.5 -52.73 60.25 -52.73 Q52.875 -52.73 47.812 -47.667 Q42.75 -42.605 42.75 -35.23 Q42.75 -29.23 46.188 -24.73 Q49.625 -20.23 55 -18.48 V10.52 Q55 12.27 54 13.52 Q53 14.77 51.375 14.77 Z"/></g><g id="Light-M" transform="matrix(1 0 0 1 1098.18 1126)"><path d="M74.039 12.27 Q70.25 12.27 67.625 9.645 Q65 7.02 65 3.231 V-16.191 Q65 -19.98 67.625 -22.605 Q70.25 -25.23 74.039 -25.23 H103.461 Q107.25 -25.23 109.875 -22.605 Q112.5 -19.98 112.5 -16.191 V3.231 Q112.5 7.02 109.875 9.645 Q107.25 12.27 103.461 12.27 H74.039 Z M74.039 4.77 H103.461 Q104.135 4.77 104.567 4.338 Q105 3.905 105 3.231 V-16.191 Q105 -16.865 104.567 -17.297 Q104.135 -17.73 103.461 -17.73 H74.039 Q73.365 -17.73 72.933 -17.297 Q72.5 -16.865 72.5 -16.191 V3.231 Q72.5 3.905 72.933 4.338 Q73.365 4.77 74.039 4.77 Z M52.144 12.27 Q50.596 12.27 49.404 11.231 Q48.211 10.193 48.01 8.596 L46.557 -2.961 Q44.549 -3.634 42.438 -4.845 Q40.328 -6.057 38.664 -7.441 L30 -3.759 Q27.644 -2.72 25.265 -3.557 Q22.885 -4.394 21.567 -6.595 L15.932 -16.365 Q14.615 -18.566 15.174 -21.061 Q15.731 -23.556 17.731 -25.076 L25.221 -30.701 Q25.049 -31.816 24.976 -32.941 Q24.904 -34.066 24.904 -35.182 Q24.904 -36.249 24.976 -37.35 Q25.049 -38.451 25.221 -39.759 L17.731 -45.384 Q15.731 -46.904 15.197 -49.422 Q14.664 -51.941 15.981 -54.144 L21.567 -63.769 Q22.885 -65.922 25.265 -66.782 Q27.644 -67.644 30 -66.605 L38.615 -62.97 Q40.424 -64.402 42.476 -65.59 Q44.529 -66.777 46.51 -67.499 L47.703 -76.855 Q48.029 -79.412 49.904 -81.071 Q51.779 -82.73 54.336 -82.73 H65.615 Q68.172 -82.73 70.073 -81.071 Q71.971 -79.412 72.297 -76.855 L73.442 -67.451 Q75.692 -66.634 77.514 -65.542 Q79.336 -64.451 81.192 -62.97 L89.894 -66.605 Q92.25 -67.644 94.669 -66.782 Q97.086 -65.922 98.404 -63.769 L103.99 -54.095 Q105.308 -51.894 104.789 -49.436 Q104.269 -46.98 102.269 -45.384 L93.51 -38.769 Q93.605 -38.529 93.63 -38.336 Q93.654 -38.144 93.701 -37.904 Q92.951 -36.711 91.635 -35.97 Q90.317 -35.23 88.615 -35.23 L75.086 -35.277 Q75.086 -35.277 75.086 -35.277 Q75.086 -35.277 75.086 -35.277 Q75.086 -41.47 70.644 -45.85 Q66.201 -50.23 60.01 -50.23 Q53.74 -50.23 49.399 -45.889 Q45.057 -41.547 45.057 -35.277 Q45.057 -30.336 47.822 -26.532 Q50.586 -22.73 55 -21.125 V8.934 Q55 10.299 54.193 11.284 Q53.385 12.27 52.144 12.27 Z"/></g><g id="Thin-M" transform="matrix(1 0 0 1 802.565 1126)"><path d="M73.078 9.77 Q69.625 9.77 67.312 7.458 Q65 5.145 65 1.693 V-17.152 Q65 -20.605 67.312 -22.917 Q69.625 -25.23 73.078 -25.23 H101.922 Q105.375 -25.23 107.688 -22.917 Q110 -20.605 110 -17.152 V1.693 Q110 5.145 107.688 7.458 Q105.375 9.77 101.922 9.77 H73.078 Z M73.078 4.77 H101.922 Q103.269 4.77 104.135 3.905 Q105 3.039 105 1.693 V-17.152 Q105 -18.499 104.135 -19.365 Q103.269 -20.23 101.922 -20.23 H73.078 Q71.731 -20.23 70.865 -19.365 Q70 -18.499 70 -17.152 V1.693 Q70 3.039 70.865 3.905 Q71.731 4.77 73.078 4.77 Z M52.914 9.77 Q51.943 9.77 51.182 9.068 Q50.422 8.366 50.269 7.299 L48.865 -4.691 Q46.471 -5.412 43.688 -6.961 Q40.904 -8.509 38.953 -10.277 L29.375 -6.162 Q27.789 -5.461 26.154 -6.009 Q24.519 -6.557 23.635 -8.086 L18.24 -17.374 Q17.356 -18.902 17.721 -20.581 Q18.086 -22.259 19.461 -23.297 L27.817 -29.547 Q27.596 -30.902 27.453 -32.34 Q27.308 -33.777 27.308 -35.134 Q27.308 -36.394 27.453 -37.782 Q27.596 -39.172 27.817 -40.912 L19.461 -47.162 Q18.086 -48.201 17.769 -49.927 Q17.453 -51.652 18.336 -53.182 L23.635 -62.182 Q24.519 -63.615 26.154 -64.211 Q27.789 -64.807 29.375 -64.105 L38.856 -60.086 Q41.096 -61.951 43.703 -63.451 Q46.307 -64.951 48.769 -65.769 L50.154 -76.23 Q50.432 -77.97 51.682 -79.1 Q52.932 -80.23 54.672 -80.23 H65.231 Q66.971 -80.23 68.269 -79.1 Q69.567 -77.97 69.846 -76.23 L71.135 -65.672 Q74.01 -64.662 76.216 -63.355 Q78.422 -62.047 80.76 -60.086 L90.664 -64.105 Q92.25 -64.807 93.899 -64.211 Q95.547 -63.615 96.433 -62.182 L101.731 -53.086 Q102.615 -51.557 102.265 -49.894 Q101.914 -48.23 100.539 -47.162 L91.394 -40.307 Q91.586 -39.826 91.635 -39.441 Q91.683 -39.057 91.779 -38.576 Q91.654 -37.191 90.456 -36.211 Q89.26 -35.23 87.606 -35.23 L72.297 -35.326 Q72.297 -35.326 72.297 -35.326 Q72.297 -35.326 72.297 -35.326 Q72.297 -40.461 68.601 -44.095 Q64.904 -47.73 59.769 -47.73 Q54.606 -47.73 50.985 -44.11 Q47.365 -40.49 47.365 -35.326 Q47.365 -31.441 49.456 -28.336 Q51.547 -25.23 55 -23.769 V7.348 Q55 8.328 54.385 9.049 Q53.769 9.77 52.914 9.77 Z"/></g><g id="Ultralight-M" transform="matrix(1 0 0 1 506.415 1126)"><path d="M72.5 8.27 Q69.25 8.27 67.125 6.145 Q65 4.02 65 0.77 V-17.73 Q65 -20.98 67.125 -23.105 Q69.25 -25.23 72.5 -25.23 H101 Q104.25 -25.23 106.375 -23.105 Q108.5 -20.98 108.5 -17.73 V0.77 Q108.5 4.02 106.375 6.145 Q104.25 8.27 101 8.27 H72.5 Z M72.5 4.77 H101 Q102.75 4.77 103.875 3.645 Q105 2.52 105 0.77 V-17.73 Q105 -19.48 103.875 -20.605 Q102.75 -21.73 101 -21.73 H72.5 Q70.75 -21.73 69.625 -20.605 Q68.5 -19.48 68.5 -17.73 V0.77 Q68.5 2.52 69.625 3.645 Q70.75 4.77 72.5 4.77 Z M53.375 8.27 Q52.75 8.27 52.25 7.77 Q51.75 7.27 51.625 6.52 L50.25 -5.73 Q47.625 -6.48 44.438 -8.23 Q41.25 -9.98 39.125 -11.98 L29 -7.605 Q27.875 -7.105 26.688 -7.48 Q25.5 -7.855 24.875 -8.98 L19.625 -17.98 Q19 -19.105 19.25 -20.292 Q19.5 -21.48 20.5 -22.23 L29.375 -28.855 Q29.125 -30.355 28.938 -31.98 Q28.75 -33.605 28.75 -35.105 Q28.75 -36.48 28.938 -38.042 Q29.125 -39.605 29.375 -41.605 L20.5 -48.23 Q19.5 -48.98 19.312 -50.23 Q19.125 -51.48 19.75 -52.605 L24.875 -61.23 Q25.5 -62.23 26.688 -62.667 Q27.875 -63.105 29 -62.605 L39 -58.355 Q41.5 -60.48 44.438 -62.167 Q47.375 -63.855 50.125 -64.73 L51.625 -75.855 Q51.875 -77.105 52.75 -77.917 Q53.625 -78.73 54.875 -78.73 H65 Q66.25 -78.73 67.188 -77.917 Q68.125 -77.105 68.375 -75.855 L69.75 -64.605 Q73 -63.48 75.438 -62.042 Q77.875 -60.605 80.5 -58.355 L91.125 -62.605 Q92.25 -63.105 93.438 -62.667 Q94.625 -62.23 95.25 -61.23 L100.375 -52.48 Q101 -51.355 100.75 -50.167 Q100.5 -48.98 99.5 -48.23 L90.125 -41.23 Q90.375 -40.605 90.438 -40.105 Q90.5 -39.605 90.625 -38.98 Q90.875 -37.48 89.75 -36.355 Q88.625 -35.23 87 -35.23 L70.625 -35.355 Q70.625 -35.355 70.625 -35.355 Q70.625 -35.355 70.625 -35.355 Q70.625 -39.855 67.375 -43.042 Q64.125 -46.23 59.625 -46.23 Q55.125 -46.23 51.938 -43.042 Q48.75 -39.855 48.75 -35.355 Q48.75 -32.105 50.438 -29.417 Q52.125 -26.73 55 -25.355 V6.395 Q55 7.145 54.5 7.708 Q54 8.27 53.375 8.27 Z"/></g><g id="Bold-S" transform="matrix(1 0 0 1 2294.23 696)"><path d="M63.712 5.995 Q58.485 5.995 55.279 2.79 Q52.074 -0.415 52.074 -5.642 V-14.124 Q52.074 -19.351 55.279 -22.557 Q58.485 -25.762 63.712 -25.762 H82.253 Q87.48 -25.762 90.686 -22.557 Q93.891 -19.351 93.891 -14.124 V-5.642 Q93.891 -0.415 90.686 2.79 Q87.48 5.995 82.253 5.995 H63.712 Z M63.712 -5.642 H82.253 Q82.253 -5.642 82.253 -5.642 Q82.253 -5.642 82.253 -5.642 V-14.124 Q82.253 -14.124 82.253 -14.124 Q82.253 -14.124 82.253 -14.124 H63.712 Q63.712 -14.124 63.712 -14.124 Q63.712 -14.124 63.712 -14.124 V-5.642 Q63.712 -5.642 63.712 -5.642 Q63.712 -5.642 63.712 -5.642 Z M41.127 5.995 Q39.154 5.995 37.675 4.812 Q36.195 3.628 35.9 1.656 L34.519 -6.333 Q33.039 -6.925 31.56 -7.714 Q30.081 -8.503 28.799 -9.587 L21.5 -7.023 Q19.626 -6.333 17.605 -6.974 Q15.583 -7.615 14.597 -9.489 L8.778 -19.844 Q7.89 -21.62 8.186 -23.543 Q8.482 -25.466 10.06 -26.847 L15.78 -31.975 Q15.681 -32.764 15.583 -33.553 Q15.484 -34.342 15.484 -35.23 Q15.484 -36.118 15.583 -36.907 Q15.681 -37.696 15.78 -38.485 L10.06 -43.514 Q8.383 -44.895 8.087 -46.818 Q7.791 -48.742 8.778 -50.615 L14.597 -60.872 Q15.583 -62.648 17.555 -63.289 Q19.528 -63.93 21.402 -63.338 L28.996 -60.774 Q30.278 -61.859 31.609 -62.598 Q32.941 -63.338 34.519 -63.93 L36.097 -71.82 Q36.59 -73.891 38.02 -75.173 Q39.45 -76.455 41.62 -76.455 H53.06 Q55.23 -76.455 56.66 -75.173 Q58.09 -73.891 58.583 -71.82 L60.161 -63.93 Q61.641 -63.338 63.12 -62.598 Q64.599 -61.859 65.882 -60.774 L73.377 -63.338 Q75.251 -64.028 77.223 -63.338 Q79.196 -62.648 80.182 -60.872 L86.001 -50.615 Q86.987 -48.742 86.642 -46.769 Q86.297 -44.797 84.62 -43.514 L82.155 -41.049 Q82.352 -40.654 82.451 -39.865 Q82.549 -39.076 82.549 -38.189 Q81.957 -35.526 80.133 -34.244 Q78.308 -32.962 75.744 -32.962 H60.95 Q61.049 -33.553 61.098 -34.194 Q61.148 -34.835 61.148 -35.427 Q61.049 -41.345 56.956 -45.388 Q52.863 -49.432 46.946 -49.432 Q41.028 -49.432 36.935 -45.339 Q32.842 -41.246 32.842 -35.329 Q32.842 -30.003 36.294 -25.959 Q39.746 -21.916 44.874 -21.225 V2.346 Q44.874 4.023 44.135 5.009 Q43.395 5.995 41.127 5.995 Z"/></g><g id="Semibold-S" transform="matrix(1 0 0 1 1998.1 696)"><path d="M61.739 4.538 Q57.37 4.538 54.722 1.889 Q52.074 -0.759 52.074 -5.128 V-16.097 Q52.074 -20.466 54.722 -23.114 Q57.37 -25.762 61.739 -25.762 H82.511 Q86.88 -25.762 89.528 -23.114 Q92.176 -20.466 92.176 -16.097 V-5.128 Q92.176 -0.759 89.528 1.889 Q86.88 4.538 82.511 4.538 H61.739 Z M61.739 -5.128 H82.511 Q82.511 -5.128 82.511 -5.128 Q82.511 -5.128 82.511 -5.128 V-16.097 Q82.511 -16.097 82.511 -16.097 Q82.511 -16.097 82.511 -16.097 H61.739 Q61.739 -16.097 61.739 -16.097 Q61.739 -16.097 61.739 -16.097 V-5.128 Q61.739 -5.128 61.739 -5.128 Q61.739 -5.128 61.739 -5.128 Z M41.855 4.538 Q40.14 4.538 38.833 3.504 Q37.525 2.47 37.271 0.755 L35.848 -7.319 Q34.026 -8.039 32.267 -9 Q30.51 -9.96 28.97 -11.26 L21.628 -8.696 Q19.926 -8.09 18.119 -8.689 Q16.312 -9.288 15.411 -10.947 L10.407 -19.802 Q9.563 -21.406 9.859 -23.157 Q10.154 -24.909 11.561 -26.16 L17.323 -31.289 Q17.182 -32.25 17.084 -33.21 Q16.985 -34.171 16.985 -35.23 Q16.985 -36.289 17.084 -37.25 Q17.182 -38.21 17.323 -39.171 L11.561 -44.243 Q10.098 -45.496 9.802 -47.247 Q9.506 -48.999 10.407 -50.658 L15.411 -59.457 Q16.312 -61.061 18.091 -61.66 Q19.871 -62.257 21.573 -61.709 L29.082 -59.145 Q30.621 -60.443 32.296 -61.376 Q33.969 -62.309 35.848 -63.029 L37.383 -70.834 Q37.79 -72.691 39.114 -73.844 Q40.436 -74.998 42.392 -74.998 H52.288 Q54.244 -74.998 55.566 -73.844 Q56.89 -72.691 57.297 -70.834 L58.832 -63.029 Q60.654 -62.309 62.413 -61.376 Q64.17 -60.443 65.71 -59.145 L73.163 -61.709 Q74.865 -62.313 76.644 -61.687 Q78.424 -61.061 79.324 -59.457 L84.328 -50.658 Q85.23 -48.999 84.905 -47.219 Q84.582 -45.44 83.119 -44.243 L79.196 -40.62 Q79.393 -40.225 79.492 -39.436 Q79.59 -38.647 79.59 -37.76 Q79.256 -35.268 77.753 -34.094 Q76.25 -32.919 73.943 -32.919 H61.078 Q61.177 -33.511 61.226 -34.152 Q61.276 -34.793 61.276 -35.385 Q61.22 -41.302 57.106 -45.367 Q52.991 -49.432 47.074 -49.432 Q41.156 -49.432 37.063 -45.339 Q32.97 -41.246 32.97 -35.329 Q32.97 -30.003 36.402 -26.002 Q39.832 -22.001 44.917 -21.268 V1.488 Q44.917 2.908 44.242 3.723 Q43.567 4.538 41.855 4.538 Z"/></g><g id="Medium-S" transform="matrix(1 0 0 1 1701.85 696)"><path d="M60.26 3.444 Q56.534 3.444 54.304 1.214 Q52.074 -1.016 52.074 -4.742 V-17.576 Q52.074 -21.302 54.304 -23.532 Q56.534 -25.762 60.26 -25.762 H82.704 Q86.43 -25.762 88.66 -23.532 Q90.89 -21.302 90.89 -17.576 V-4.742 Q90.89 -1.016 88.66 1.214 Q86.43 3.444 82.704 3.444 H60.26 Z M60.26 -4.742 H82.704 Q82.704 -4.742 82.704 -4.742 Q82.704 -4.742 82.704 -4.742 V-17.576 Q82.704 -17.576 82.704 -17.576 Q82.704 -17.576 82.704 -17.576 H60.26 Q60.26 -17.576 60.26 -17.576 Q60.26 -17.576 60.26 -17.576 V-4.742 Q60.26 -4.742 60.26 -4.742 Q60.26 -4.742 60.26 -4.742 Z M42.402 3.444 Q40.88 3.444 39.701 2.523 Q38.522 1.602 38.301 0.08 L36.845 -8.059 Q34.765 -8.875 32.798 -9.965 Q30.831 -11.054 29.098 -12.514 L21.725 -9.949 Q20.152 -9.41 18.505 -9.975 Q16.858 -10.541 16.023 -12.04 L11.629 -19.77 Q10.816 -21.245 11.112 -22.867 Q11.408 -24.491 12.686 -25.647 L18.481 -30.775 Q18.308 -31.864 18.209 -32.953 Q18.111 -34.043 18.111 -35.23 Q18.111 -36.417 18.209 -37.507 Q18.308 -38.596 18.481 -39.685 L12.686 -44.79 Q11.384 -45.946 11.088 -47.569 Q10.793 -49.192 11.629 -50.69 L16.023 -58.396 Q16.858 -59.871 18.493 -60.438 Q20.128 -61.004 21.701 -60.487 L29.146 -57.923 Q30.879 -59.382 32.81 -60.46 Q34.742 -61.537 36.845 -62.354 L38.348 -70.094 Q38.691 -71.79 39.933 -72.847 Q41.176 -73.904 42.971 -73.904 H51.709 Q53.504 -73.904 54.747 -72.847 Q55.989 -71.79 56.332 -70.094 L57.835 -62.354 Q59.915 -61.537 61.882 -60.46 Q63.849 -59.382 65.582 -57.923 L73.002 -60.487 Q74.575 -61.027 76.21 -60.449 Q77.845 -59.871 78.681 -58.396 L83.075 -50.69 Q83.91 -49.192 83.602 -47.557 Q83.296 -45.922 81.994 -44.79 L76.977 -40.298 Q77.174 -39.904 77.273 -39.115 Q77.371 -38.326 77.371 -37.438 Q77.23 -35.075 75.968 -33.981 Q74.706 -32.887 72.592 -32.887 H61.175 Q61.274 -33.478 61.323 -34.119 Q61.372 -34.761 61.372 -35.352 Q61.349 -41.27 57.218 -45.351 Q53.088 -49.432 47.17 -49.432 Q41.253 -49.432 37.16 -45.339 Q33.067 -41.246 33.067 -35.329 Q33.067 -30.003 36.481 -26.034 Q39.896 -22.066 44.949 -21.3 V0.845 Q44.949 2.072 44.322 2.757 Q43.695 3.444 42.402 3.444 Z"/></g><g id="Regular-S" transform="matrix(1 0 0 1 1405.73 696)"><path d="M59.175 2.642 Q55.92 2.642 53.997 0.719 Q52.074 -1.204 52.074 -4.459 V-18.661 Q52.074 -21.916 53.997 -23.839 Q55.92 -25.762 59.175 -25.762 H82.845 Q86.1 -25.762 88.023 -23.839 Q89.946 -21.916 89.946 -18.661 V-4.459 Q89.946 -1.204 88.023 0.719 Q86.1 2.642 82.845 2.642 H59.175 Z M59.175 -4.459 H82.845 Q82.845 -4.459 82.845 -4.459 Q82.845 -4.459 82.845 -4.459 V-18.661 Q82.845 -18.661 82.845 -18.661 Q82.845 -18.661 82.845 -18.661 H59.175 Q59.175 -18.661 59.175 -18.661 Q59.175 -18.661 59.175 -18.661 V-4.459 Q59.175 -4.459 59.175 -4.459 Q59.175 -4.459 59.175 -4.459 Z M42.803 2.642 Q41.422 2.642 40.338 1.804 Q39.253 0.965 39.056 -0.415 L37.576 -8.601 Q35.308 -9.489 33.187 -10.672 Q31.067 -11.856 29.193 -13.434 L21.796 -10.87 Q20.317 -10.376 18.788 -10.919 Q17.259 -11.461 16.47 -12.842 L12.525 -19.746 Q11.736 -21.127 12.032 -22.655 Q12.328 -24.184 13.512 -25.269 L19.331 -30.397 Q19.133 -31.581 19.035 -32.764 Q18.936 -33.948 18.936 -35.23 Q18.936 -36.512 19.035 -37.696 Q19.133 -38.879 19.331 -40.063 L13.512 -45.191 Q12.328 -46.276 12.032 -47.805 Q11.736 -49.333 12.525 -50.714 L16.47 -57.618 Q17.259 -58.999 18.788 -59.541 Q20.317 -60.083 21.796 -59.59 L29.193 -57.026 Q31.067 -58.604 33.187 -59.788 Q35.308 -60.971 37.576 -61.859 L39.056 -69.551 Q39.351 -71.129 40.535 -72.116 Q41.718 -73.102 43.395 -73.102 H51.285 Q52.962 -73.102 54.145 -72.116 Q55.329 -71.129 55.625 -69.551 L57.104 -61.859 Q59.372 -60.971 61.493 -59.788 Q63.613 -58.604 65.487 -57.026 L72.884 -59.59 Q74.363 -60.083 75.892 -59.541 Q77.421 -58.999 78.21 -57.618 L82.155 -50.714 Q82.944 -49.333 82.648 -47.805 Q82.352 -46.276 81.168 -45.191 L75.35 -40.063 Q75.547 -39.668 75.645 -38.879 Q75.744 -38.09 75.744 -37.202 Q75.744 -34.934 74.659 -33.899 Q73.574 -32.863 71.602 -32.863 H61.246 Q61.345 -33.455 61.394 -34.096 Q61.443 -34.737 61.443 -35.329 Q61.443 -41.246 57.301 -45.339 Q53.159 -49.432 47.241 -49.432 Q41.324 -49.432 37.231 -45.339 Q33.138 -41.246 33.138 -35.329 Q33.138 -30.003 36.541 -26.058 Q39.943 -22.113 44.973 -21.324 V0.374 Q44.973 1.459 44.381 2.05 Q43.79 2.642 42.803 2.642 Z"/></g><g id="Light-S" transform="matrix(1 0 0 1 1109.75 696)"><path d="M58.417 0.67 Q55.427 0.67 53.751 -1.007 Q52.074 -2.684 52.074 -5.673 V-19.419 Q52.074 -22.409 53.751 -24.085 Q55.427 -25.762 58.417 -25.762 H81.631 Q84.62 -25.762 86.297 -24.085 Q87.974 -22.409 87.974 -19.419 V-5.673 Q87.974 -2.684 86.297 -1.007 Q84.62 0.67 81.631 0.67 H58.417 Z M58.417 -4.459 H81.631 Q82.163 -4.459 82.504 -4.8 Q82.845 -5.141 82.845 -5.673 V-19.419 Q82.845 -19.951 82.504 -20.292 Q82.163 -20.633 81.631 -20.633 H58.417 Q57.885 -20.633 57.544 -20.292 Q57.203 -19.951 57.203 -19.419 V-5.673 Q57.203 -5.141 57.544 -4.8 Q57.885 -4.459 58.417 -4.459 Z M43.41 0.67 Q42.485 0.67 41.741 0.096 Q40.997 -0.477 40.839 -1.44 L39.397 -9.967 Q36.826 -10.892 34.174 -12.341 Q31.523 -13.791 29.421 -15.672 L21.303 -12.766 Q20.43 -12.538 19.49 -12.854 Q18.549 -13.169 18.102 -14.018 L14.346 -20.543 Q13.898 -21.392 14.043 -22.276 Q14.187 -23.159 14.878 -23.865 L21.379 -29.487 Q21.144 -30.86 20.988 -32.29 Q20.833 -33.72 20.833 -35.193 Q20.833 -36.626 20.988 -38.037 Q21.144 -39.448 21.379 -40.973 L14.878 -46.595 Q14.187 -47.301 14.062 -48.203 Q13.937 -49.106 14.384 -49.956 L18.102 -56.366 Q18.549 -57.178 19.49 -57.511 Q20.43 -57.846 21.303 -57.618 L29.382 -54.75 Q31.598 -56.669 34.155 -58.099 Q36.711 -59.529 39.359 -60.493 L40.991 -69.058 Q41.248 -69.991 41.938 -70.56 Q42.629 -71.129 43.66 -71.129 H50.981 Q52.013 -71.129 52.723 -70.56 Q53.432 -69.991 53.689 -69.058 L55.283 -60.455 Q58.045 -59.416 60.468 -58.062 Q62.892 -56.708 65.146 -54.75 L73.49 -57.618 Q74.363 -57.846 75.285 -57.511 Q76.207 -57.178 76.654 -56.366 L80.371 -49.917 Q80.819 -49.068 80.657 -48.165 Q80.493 -47.262 79.802 -46.595 L73.681 -41.277 Q73.953 -40.693 74.071 -39.752 Q74.189 -38.811 74.226 -37.734 Q74.719 -35.314 73.73 -34.088 Q72.74 -32.863 70.805 -32.863 L59.046 -32.9 Q59.144 -33.492 59.194 -34.133 Q59.243 -34.774 59.243 -35.366 Q59.243 -40.449 55.689 -43.954 Q52.134 -47.459 47.052 -47.459 Q42.006 -47.459 38.482 -43.936 Q34.959 -40.412 34.959 -35.366 Q34.959 -30.876 37.831 -27.48 Q40.702 -24.085 44.973 -23.411 V-0.878 Q44.973 -0.097 44.533 0.286 Q44.093 0.67 43.41 0.67 Z"/></g><g id="Thin-S" transform="matrix(1 0 0 1 814.015 696)"><path d="M57.658 -1.303 Q54.934 -1.303 53.504 -2.733 Q52.074 -4.163 52.074 -6.887 V-20.178 Q52.074 -22.902 53.504 -24.332 Q54.934 -25.762 57.658 -25.762 H80.417 Q83.141 -25.762 84.571 -24.332 Q86.001 -22.902 86.001 -20.178 V-6.887 Q86.001 -4.163 84.571 -2.733 Q83.141 -1.303 80.417 -1.303 H57.658 Z M57.658 -4.459 H80.417 Q81.479 -4.459 82.163 -5.141 Q82.845 -5.825 82.845 -6.887 V-20.178 Q82.845 -21.24 82.163 -21.924 Q81.479 -22.606 80.417 -22.606 H57.658 Q56.596 -22.606 55.912 -21.924 Q55.23 -21.24 55.23 -20.178 V-6.887 Q55.23 -5.825 55.912 -5.141 Q56.596 -4.459 57.658 -4.459 Z M44.017 -1.303 Q43.547 -1.303 43.144 -1.611 Q42.742 -1.917 42.621 -2.464 L41.217 -11.332 Q38.342 -12.296 35.16 -14.011 Q31.977 -15.725 29.649 -17.909 L20.81 -14.663 Q20.545 -14.701 20.191 -14.788 Q19.838 -14.876 19.733 -15.194 L16.167 -21.339 Q16.061 -21.657 16.053 -21.897 Q16.045 -22.136 16.243 -22.462 L23.427 -28.577 Q23.154 -30.139 22.942 -31.816 Q22.729 -33.492 22.729 -35.154 Q22.729 -36.74 22.942 -38.378 Q23.154 -40.017 23.427 -41.883 L16.243 -47.998 Q16.045 -48.324 16.091 -48.602 Q16.137 -48.878 16.243 -49.197 L19.733 -55.115 Q19.838 -55.357 20.191 -55.483 Q20.545 -55.608 20.81 -55.645 L29.573 -52.475 Q32.129 -54.735 35.122 -56.412 Q38.115 -58.088 41.141 -59.128 L42.925 -68.565 Q43.144 -68.853 43.342 -69.005 Q43.539 -69.157 43.926 -69.157 H50.678 Q51.065 -69.157 51.3 -69.005 Q51.536 -68.853 51.755 -68.565 L53.463 -59.052 Q56.717 -57.86 59.444 -56.336 Q62.171 -54.811 64.805 -52.475 L74.098 -55.645 Q74.363 -55.608 74.678 -55.483 Q74.992 -55.357 75.099 -55.115 L78.589 -49.121 Q78.695 -48.803 78.665 -48.526 Q78.635 -48.248 78.437 -47.998 L72.011 -42.491 Q72.36 -41.717 72.497 -40.624 Q72.633 -39.532 72.709 -38.265 Q73.696 -35.693 72.8 -34.278 Q71.906 -32.863 70.009 -32.863 L56.845 -32.939 Q56.944 -33.531 56.993 -34.172 Q57.043 -34.813 57.043 -35.405 Q57.043 -39.653 54.077 -42.57 Q51.11 -45.487 46.862 -45.487 Q42.69 -45.487 39.734 -42.532 Q36.779 -39.577 36.779 -35.405 Q36.779 -31.748 39.12 -28.903 Q41.46 -26.058 44.973 -25.497 V-2.129 Q44.973 -1.652 44.685 -1.478 Q44.396 -1.303 44.017 -1.303 Z"/></g><g id="Ultralight-S" transform="matrix(1 0 0 1 517.792 696)"><path d="M57.203 -2.486 Q54.638 -2.486 53.356 -3.769 Q52.074 -5.051 52.074 -7.615 V-20.633 Q52.074 -23.198 53.356 -24.48 Q54.638 -25.762 57.203 -25.762 H79.689 Q82.253 -25.762 83.535 -24.48 Q84.818 -23.198 84.818 -20.633 V-7.615 Q84.818 -5.051 83.535 -3.769 Q82.253 -2.486 79.689 -2.486 H57.203 Z M57.203 -4.459 H79.689 Q81.07 -4.459 81.957 -5.347 Q82.845 -6.234 82.845 -7.615 V-20.633 Q82.845 -22.014 81.957 -22.902 Q81.07 -23.789 79.689 -23.789 H57.203 Q55.822 -23.789 54.934 -22.902 Q54.047 -22.014 54.047 -20.633 V-7.615 Q54.047 -6.234 54.934 -5.347 Q55.822 -4.459 57.203 -4.459 Z M44.381 -2.486 Q44.184 -2.486 43.987 -2.634 Q43.79 -2.782 43.691 -3.078 L42.31 -12.152 Q39.253 -13.138 35.752 -15.012 Q32.25 -16.886 29.785 -19.253 L20.514 -15.801 Q20.613 -15.998 20.613 -15.949 Q20.613 -15.899 20.711 -15.899 L17.259 -21.817 Q17.358 -21.817 17.259 -21.669 Q17.161 -21.521 17.062 -21.62 L24.656 -28.03 Q24.36 -29.707 24.114 -31.532 Q23.867 -33.356 23.867 -35.131 Q23.867 -36.808 24.114 -38.583 Q24.36 -40.358 24.656 -42.43 L17.062 -48.84 Q17.161 -48.939 17.309 -48.84 Q17.457 -48.742 17.358 -48.742 L20.711 -54.363 Q20.613 -54.265 20.613 -54.265 Q20.613 -54.265 20.514 -54.462 L29.686 -51.109 Q32.448 -53.574 35.702 -55.399 Q38.957 -57.223 42.212 -58.308 L44.085 -68.269 Q44.283 -68.171 44.184 -68.072 Q44.085 -67.973 44.085 -67.973 H50.496 Q50.496 -67.973 50.447 -68.072 Q50.397 -68.171 50.595 -68.269 L52.37 -58.21 Q55.92 -56.927 58.83 -55.3 Q61.739 -53.673 64.599 -51.109 L74.462 -54.462 Q74.363 -54.265 74.314 -54.265 Q74.265 -54.265 74.166 -54.363 L77.519 -48.643 Q77.421 -48.643 77.47 -48.742 Q77.519 -48.84 77.618 -48.84 L71.01 -43.219 Q71.404 -42.331 71.552 -41.147 Q71.7 -39.964 71.799 -38.583 Q73.081 -35.92 72.243 -34.392 Q71.404 -32.863 69.531 -32.863 L55.526 -32.962 Q55.625 -33.553 55.674 -34.194 Q55.723 -34.835 55.723 -35.427 Q55.723 -39.175 53.11 -41.739 Q50.496 -44.303 46.748 -44.303 Q43.099 -44.303 40.486 -41.69 Q37.872 -39.076 37.872 -35.427 Q37.872 -32.271 39.894 -29.756 Q41.916 -27.241 44.973 -26.748 V-2.881 Q44.973 -2.585 44.776 -2.536 Q44.579 -2.486 44.381 -2.486 Z"/></g></g></svg>