<svg xmlns="http://www.w3.org/2000/svg" version="1.1" width="3300" height="2000"><g id="Notes"><style>
    text {
      font-family: monospace;
      text-anchor: middle;
    }
    text.emphasis {
      font-weight:bold;
    }
    text.lanchor {
      text-anchor: start;
    }
  </style><rect height="2200" id="artboard" fill="white" width="3300" x="0" y="0"/><line id="" style="fill:none;stroke:black;stroke-width:0.5;" x1="263" x2="3036" y1="292" y2="292"/><text class="lanchor emphasis" transform="matrix(1 0 0 1 263 322)">Weight/Scale Variations</text><text transform="matrix(1 0 0 1 559.711 322)">Ultralight</text><text transform="matrix(1 0 0 1 856.422 322)">Thin</text><text transform="matrix(1 0 0 1 1153.13 322)">Light</text><text transform="matrix(1 0 0 1 1449.84 322)">Regular</text><text transform="matrix(1 0 0 1 1746.56 322)">Medium</text><text transform="matrix(1 0 0 1 2043.27 322)">Semibold</text><text transform="matrix(1 0 0 1 2339.98 322)">Bold</text><text transform="matrix(1 0 0 1 2636.69 322)">Heavy</text><text transform="matrix(1 0 0 1 2933.4 322)">Black</text><text id="template-version" style="text-anchor: end;" transform="matrix(1 0 0 1 3036 1933)">Template v.1.0</text><text class="lanchor" transform="matrix(1 0 0 1 263 726)">Small</text><text class="lanchor" transform="matrix(1 0 0 1 263 1156)">Medium</text><text class="lanchor" transform="matrix(1 0 0 1 263 1586)">Large</text></g><g id="Guides"><g id="H-reference" style="fill:#27AAE1;stroke:none;" transform="matrix(1 0 0 1 339 696)"><path d="M 54.9316 0 L 57.666 0 L 30.5664 -70.459 L 28.0762 -70.459 L 0.976562 0 L 3.66211 0 L 12.9395 -24.4629 L 45.7031 -24.4629 Z M 29.1992 -67.0898 L 29.4434 -67.0898 L 44.8242 -26.709 L 13.8184 -26.709 Z"/></g><line id="Baseline-S" style="fill:none;stroke:#27AAE1;opacity:1;stroke-width:0.577;" x1="263" x2="3036" y1="696" y2="696"/><line id="Capline-S" style="fill:none;stroke:#27AAE1;opacity:1;stroke-width:0.577;" x1="263" x2="3036" y1="625.541" y2="625.541"/><g id="H-reference" style="fill:#27AAE1;stroke:none;" transform="matrix(1 0 0 1 339 1126)"><path d="M 54.9316 0 L 57.666 0 L 30.5664 -70.459 L 28.0762 -70.459 L 0.976562 0 L 3.66211 0 L 12.9395 -24.4629 L 45.7031 -24.4629 Z M 29.1992 -67.0898 L 29.4434 -67.0898 L 44.8242 -26.709 L 13.8184 -26.709 Z"/></g><line id="Baseline-M" style="fill:none;stroke:#27AAE1;opacity:1;stroke-width:0.577;" x1="263" x2="3036" y1="1126" y2="1126"/><line id="Capline-M" style="fill:none;stroke:#27AAE1;opacity:1;stroke-width:0.577;" x1="263" x2="3036" y1="1055.54" y2="1055.54"/><g id="H-reference" style="fill:#27AAE1;stroke:none;" transform="matrix(1 0 0 1 339 1556)"><path d="M 54.9316 0 L 57.666 0 L 30.5664 -70.459 L 28.0762 -70.459 L 0.976562 0 L 3.66211 0 L 12.9395 -24.4629 L 45.7031 -24.4629 Z M 29.1992 -67.0898 L 29.4434 -67.0898 L 44.8242 -26.709 L 13.8184 -26.709 Z"/></g><line id="Baseline-L" style="fill:none;stroke:#27AAE1;opacity:1;stroke-width:0.577;" x1="263" x2="3036" y1="1556" y2="1556"/><line id="Capline-L" style="fill:none;stroke:#27AAE1;opacity:1;stroke-width:0.577;" x1="263" x2="3036" y1="1485.54" y2="1485.54"/><rect height="119.336" id="left-margin" style="fill:darkred;stroke:none;opacity:0.4;" width="12.4512" x="1394.06" y="1030.79"/><rect height="119.336" id="right-margin" style="fill:darkgreen;stroke:none;opacity:0.4;" width="12.4512" x="1502.5112" y="1030.79"/><rect x="1406.5112" y="1045" width="96" height="96" fill="none" stroke="blue" stroke-dasharray="5"/><rect x="1394.06" y="1030.79" width="120.9024" height="119.336" fill="none" stroke="blue"/></g><g id="Symbols"><g id="Bold-L" transform="matrix(1 0 0 1 2266 1556)"><path d="M98.766 32.495 Q92.569 32.495 88.209 28.183 Q83.85 23.871 83.85 17.741 V-7.576 Q83.85 -13.537 88.209 -17.933 Q92.569 -22.33 98.766 -22.33 H137.627 Q143.588 -22.33 147.984 -17.933 Q152.381 -13.537 152.381 -7.576 V17.741 Q152.381 23.871 147.984 28.183 Q143.588 32.495 137.627 32.495 H98.766 Z M98.766 17.741 H137.627 Q137.627 17.741 137.627 17.741 Q137.627 17.741 137.627 17.741 V-7.576 Q137.627 -7.576 137.627 -7.576 Q137.627 -7.576 137.627 -7.576 H98.766 Q98.766 -7.576 98.766 -7.576 Q98.766 -7.576 98.766 -7.576 V17.741 Q98.766 17.741 98.766 17.741 Q98.766 17.741 98.766 17.741 Z M65.484 32.495 Q62.888 32.495 60.832 30.657 Q58.776 28.817 58.292 25.964 L56.115 11.129 Q54.019 10.484 51.197 8.912 Q48.375 7.34 46.601 5.889 L32.411 12.5 Q30.012 13.629 27.493 12.922 Q24.973 12.215 23.704 9.759 L11.529 -12.091 Q10.32 -14.106 10.771 -16.565 Q11.221 -19.023 13.384 -20.637 L26.687 -30.554 Q26.526 -31.523 26.445 -32.81 Q26.364 -34.095 26.364 -35.23 Q26.364 -36.123 26.445 -37.528 Q26.526 -38.932 26.687 -40.067 L13.464 -49.742 Q11.126 -51.436 10.643 -53.814 Q10.159 -56.192 11.61 -58.45 L23.765 -80.249 Q24.928 -82.281 27.421 -83.145 Q29.912 -84.008 32.25 -83.041 L47.085 -76.349 Q48.536 -77.558 51.157 -79.05 Q53.777 -80.541 56.083 -81.285 L58.776 -97.472 Q59.261 -100.006 61.059 -101.6 Q62.857 -103.197 65.387 -103.197 H89.721 Q92.022 -103.197 93.789 -101.612 Q95.558 -100.027 96.186 -97.472 L98.754 -81.538 Q100.831 -80.694 103.547 -79.246 Q106.264 -77.8 108.038 -76.349 L122.873 -83.041 Q125.211 -84.008 127.596 -83.145 Q129.98 -82.281 131.127 -80.245 L143.482 -58.424 Q144.641 -56.192 144.08 -53.816 Q143.517 -51.439 141.416 -49.742 L131.419 -40.551 Q131.419 -40.551 131.419 -40.551 Q131.419 -40.551 131.419 -40.551 Q128.516 -38.374 125.511 -37.205 Q122.506 -36.036 119.406 -35.552 H97.234 Q97.234 -35.552 97.234 -35.552 Q97.234 -35.552 97.234 -35.552 Q97.073 -43.937 91.147 -49.863 Q85.221 -55.789 76.953 -55.789 Q68.128 -55.789 62.242 -49.783 Q56.357 -43.776 56.357 -35.23 Q56.357 -28.57 60.272 -23.173 Q64.187 -17.776 70.224 -15.845 V27.899 Q70.224 30.005 69.383 31.25 Q68.539 32.495 65.484 32.495 Z"/></g><g id="Semibold-L" transform="matrix(1 0 0 1 1970.27 1556)"><path d="M96.311 30.742 Q91.198 30.742 87.525 27.095 Q83.85 23.447 83.85 18.371 V-9.959 Q83.85 -14.938 87.525 -18.634 Q91.198 -22.33 96.311 -22.33 H137.907 Q142.887 -22.33 146.583 -18.634 Q150.279 -14.938 150.279 -9.959 V18.371 Q150.279 23.447 146.583 27.095 Q142.887 30.742 137.907 30.742 H96.311 Z M96.311 18.371 H137.907 Q137.907 18.371 137.907 18.371 Q137.907 18.371 137.907 18.371 V-9.959 Q137.907 -9.959 137.907 -9.959 Q137.907 -9.959 137.907 -9.959 H96.311 Q96.311 -9.959 96.311 -9.959 Q96.311 -9.959 96.311 -9.959 V18.371 Q96.311 18.371 96.311 18.371 Q96.311 18.371 96.311 18.371 Z M66.424 30.742 Q64.01 30.742 62.201 29.07 Q60.393 27.398 59.974 24.842 L57.727 9.938 Q55.21 9.082 52.072 7.335 Q48.936 5.587 46.811 3.855 L32.552 10.467 Q30.354 11.455 28.106 10.81 Q25.858 10.165 24.686 8.006 L13.492 -12.021 Q12.353 -13.897 12.803 -16.109 Q13.255 -18.323 15.206 -19.795 L28.58 -29.712 Q28.348 -30.889 28.267 -32.389 Q28.187 -33.887 28.187 -35.23 Q28.187 -36.331 28.267 -37.949 Q28.348 -39.566 28.58 -40.909 L15.287 -50.654 Q13.229 -52.137 12.745 -54.304 Q12.261 -56.473 13.572 -58.519 L24.72 -78.484 Q25.84 -80.388 28.087 -81.148 Q30.333 -81.905 32.46 -81.007 L47.154 -74.315 Q49.026 -75.876 51.998 -77.577 Q54.969 -79.279 57.695 -80.164 L60.317 -96.281 Q60.733 -98.534 62.397 -99.954 Q64.061 -101.375 66.298 -101.375 H88.712 Q90.831 -101.375 92.456 -99.959 Q94.081 -98.545 94.573 -96.281 L97.142 -80.417 Q99.653 -79.435 102.713 -77.777 Q105.774 -76.118 107.828 -74.315 L122.592 -81.007 Q124.72 -81.905 126.86 -81.148 Q129 -80.388 130.098 -78.48 L141.428 -58.506 Q142.539 -56.473 141.976 -54.341 Q141.415 -52.21 139.594 -50.654 L127.773 -39.99 Q127.773 -39.99 127.773 -39.99 Q127.773 -39.99 127.773 -39.99 Q125.222 -38.024 122.611 -36.996 Q120.002 -35.967 117.163 -35.483 H97.374 Q97.374 -35.483 97.374 -35.483 Q97.374 -35.483 97.374 -35.483 Q97.282 -43.937 91.356 -49.863 Q85.43 -55.789 77.094 -55.789 Q68.338 -55.789 62.418 -49.783 Q56.497 -43.776 56.497 -35.23 Q56.497 -28.57 60.377 -23.244 Q64.258 -17.917 70.294 -15.896 V26.848 Q70.294 28.602 69.523 29.673 Q68.751 30.742 66.424 30.742 Z"/></g><g id="Medium-L" transform="matrix(1 0 0 1 1674.31 1556)"><path d="M94.472 29.428 Q90.171 29.428 87.011 26.279 Q83.85 23.13 83.85 18.845 V-11.747 Q83.85 -15.991 87.011 -19.16 Q90.171 -22.33 94.472 -22.33 H138.117 Q142.361 -22.33 145.531 -19.16 Q148.7 -15.991 148.7 -11.747 V18.845 Q148.7 23.13 145.531 26.279 Q142.361 29.428 138.117 29.428 H94.472 Z M94.472 18.845 H138.117 Q138.117 18.845 138.117 18.845 Q138.117 18.845 138.117 18.845 V-11.747 Q138.117 -11.747 138.117 -11.747 Q138.117 -11.747 138.117 -11.747 H94.472 Q94.472 -11.747 94.472 -11.747 Q94.472 -11.747 94.472 -11.747 V18.845 Q94.472 18.845 94.472 18.845 Q94.472 18.845 94.472 18.845 Z M67.128 29.428 Q64.85 29.428 63.228 27.88 Q61.606 26.332 61.236 24.002 L58.937 9.044 Q56.104 8.03 52.73 6.152 Q49.357 4.273 46.969 2.33 L32.656 8.941 Q30.61 9.825 28.567 9.227 Q26.522 8.628 25.421 6.692 L14.964 -11.968 Q13.879 -13.739 14.329 -15.767 Q14.78 -17.796 16.573 -19.165 L29.999 -29.082 Q29.715 -30.415 29.635 -32.073 Q29.554 -33.732 29.554 -35.23 Q29.554 -36.486 29.635 -38.265 Q29.715 -40.042 29.999 -41.54 L16.654 -51.337 Q14.808 -52.663 14.324 -54.674 Q13.84 -56.683 15.045 -58.573 L25.436 -77.158 Q26.522 -78.969 28.586 -79.648 Q30.649 -80.327 32.618 -79.482 L47.208 -72.79 Q49.396 -74.614 52.629 -76.473 Q55.862 -78.332 58.905 -79.322 L61.475 -95.388 Q61.838 -97.429 63.402 -98.717 Q64.966 -100.007 66.982 -100.007 H87.954 Q89.936 -100.007 91.455 -98.721 Q92.972 -97.434 93.364 -95.388 L95.932 -79.575 Q98.769 -78.492 102.087 -76.674 Q105.404 -74.856 107.67 -72.79 L122.382 -79.482 Q124.351 -80.327 126.307 -79.648 Q128.263 -78.969 129.324 -77.158 L139.886 -58.566 Q140.96 -56.683 140.399 -54.736 Q139.838 -52.789 138.227 -51.337 L125.04 -39.569 Q125.04 -39.569 125.04 -39.569 Q125.04 -39.569 125.04 -39.569 Q122.75 -37.762 120.436 -36.838 Q118.122 -35.914 115.479 -35.43 H97.479 Q97.479 -35.43 97.479 -35.43 Q97.479 -35.43 97.479 -35.43 Q97.44 -43.937 91.514 -49.863 Q85.588 -55.789 77.198 -55.789 Q68.496 -55.789 62.549 -49.783 Q56.602 -43.776 56.602 -35.23 Q56.602 -28.57 60.456 -23.296 Q64.31 -18.021 70.347 -15.933 V26.06 Q70.347 27.551 69.628 28.49 Q68.907 29.428 67.128 29.428 Z"/></g><g id="Regular-L" transform="matrix(1 0 0 1 1378.56 1556)"><path d="M93.122 28.464 Q89.418 28.464 86.635 25.679 Q83.85 22.896 83.85 19.192 V-13.058 Q83.85 -16.762 86.635 -19.545 Q89.418 -22.33 93.122 -22.33 H138.272 Q141.976 -22.33 144.759 -19.545 Q147.544 -16.762 147.544 -13.058 V19.192 Q147.544 22.896 144.759 25.679 Q141.976 28.464 138.272 28.464 H93.122 Z M93.122 19.192 H138.272 Q138.272 19.192 138.272 19.192 Q138.272 19.192 138.272 19.192 V-13.058 Q138.272 -13.058 138.272 -13.058 Q138.272 -13.058 138.272 -13.058 H93.122 Q93.122 -13.058 93.122 -13.058 Q93.122 -13.058 93.122 -13.058 V19.192 Q93.122 19.192 93.122 19.192 Q93.122 19.192 93.122 19.192 Z M67.644 28.464 Q65.468 28.464 63.982 27.008 Q62.496 25.552 62.162 23.384 L59.824 8.388 Q56.76 7.259 53.212 5.284 Q49.665 3.309 47.085 1.213 L32.734 7.824 Q30.799 8.63 28.904 8.066 Q27.009 7.501 25.961 5.728 L16.044 -11.929 Q14.996 -13.622 15.448 -15.517 Q15.898 -17.41 17.576 -18.702 L31.041 -28.619 Q30.718 -30.067 30.637 -31.842 Q30.557 -33.617 30.557 -35.23 Q30.557 -36.601 30.637 -38.495 Q30.718 -40.39 31.041 -42.002 L17.657 -51.839 Q15.964 -53.048 15.48 -54.943 Q14.996 -56.837 16.125 -58.611 L25.961 -76.187 Q27.024 -77.927 28.952 -78.55 Q30.879 -79.171 32.734 -78.364 L47.246 -71.672 Q49.665 -73.688 53.092 -75.663 Q56.518 -77.639 59.792 -78.705 L62.323 -94.731 Q62.647 -96.619 64.139 -97.811 Q65.629 -99.004 67.483 -99.004 H87.398 Q89.281 -99.004 90.721 -97.811 Q92.161 -96.619 92.477 -94.731 L95.046 -78.958 Q98.121 -77.8 101.628 -75.865 Q105.135 -73.93 107.554 -71.672 L122.228 -78.364 Q124.082 -79.171 125.902 -78.55 Q127.723 -77.927 128.758 -76.187 L138.756 -58.611 Q139.804 -56.837 139.243 -55.025 Q138.68 -53.213 137.224 -51.839 L123.034 -39.261 Q123.034 -39.261 123.034 -39.261 Q123.034 -39.261 123.034 -39.261 Q120.938 -37.568 118.841 -36.722 Q116.745 -35.875 114.246 -35.391 H97.556 Q97.556 -35.391 97.556 -35.391 Q97.556 -35.391 97.556 -35.391 Q97.556 -43.937 91.63 -49.863 Q85.704 -55.789 77.276 -55.789 Q68.612 -55.789 62.646 -49.783 Q56.679 -43.776 56.679 -35.23 Q56.679 -28.57 60.514 -23.335 Q64.348 -18.099 70.386 -15.961 V25.481 Q70.386 26.78 69.705 27.622 Q69.023 28.464 67.644 28.464 Z"/></g><g id="Light-L" transform="matrix(1 0 0 1 1082.77 1556)"><path d="M92.904 25.548 Q89.233 25.548 86.541 22.857 Q83.85 20.166 83.85 16.494 V-13.276 Q83.85 -16.947 86.541 -19.639 Q89.233 -22.33 92.904 -22.33 H135.574 Q139.246 -22.33 141.937 -19.639 Q144.628 -16.947 144.628 -13.276 V16.494 Q144.628 20.166 141.937 22.857 Q139.246 25.548 135.574 25.548 H92.904 Z M92.904 18.479 H135.574 Q136.442 18.479 137 17.92 Q137.559 17.362 137.559 16.494 V-13.276 Q137.559 -14.143 137 -14.701 Q136.442 -15.259 135.574 -15.259 H92.904 Q92.037 -15.259 91.479 -14.701 Q90.921 -14.143 90.921 -13.276 V16.494 Q90.921 17.362 91.479 17.92 Q92.037 18.479 92.904 18.479 Z M68.233 25.548 Q66.646 25.548 65.548 24.434 Q64.45 23.318 64.177 21.648 L62.025 6.279 Q58.682 5.181 54.764 2.989 Q50.844 0.796 48.077 -1.609 L33.819 4.939 Q32.226 5.59 30.702 5.15 Q29.18 4.71 28.349 3.246 L19.363 -12.55 Q18.531 -13.901 18.874 -15.424 Q19.216 -16.946 20.646 -18.02 L33.832 -27.75 Q33.479 -29.477 33.351 -31.407 Q33.224 -33.339 33.224 -35.169 Q33.224 -36.755 33.351 -38.79 Q33.479 -40.824 33.801 -42.809 L20.696 -52.521 Q19.252 -53.482 18.907 -55.051 Q18.563 -56.62 19.505 -58.053 L28.349 -73.582 Q29.196 -74.951 30.736 -75.463 Q32.274 -75.976 33.788 -75.388 L48.146 -68.912 Q50.968 -71.206 54.688 -73.383 Q58.41 -75.56 61.931 -76.658 L64.339 -92.561 Q64.663 -94.107 65.859 -95.083 Q67.056 -96.058 68.568 -96.058 H86.249 Q87.76 -96.058 88.952 -95.083 Q90.144 -94.107 90.461 -92.561 L92.875 -76.787 Q96.384 -75.475 99.985 -73.446 Q103.584 -71.418 106.438 -68.912 L121.266 -75.388 Q122.687 -75.976 124.182 -75.463 Q125.677 -74.951 126.494 -73.582 L135.437 -57.99 Q136.269 -56.528 135.831 -55.072 Q135.394 -53.616 134.215 -52.521 L120.584 -40.874 Q120.615 -40.564 120.692 -40.316 Q120.77 -40.067 120.833 -39.758 Q119.48 -37.941 117.663 -36.83 Q115.845 -35.72 113.409 -35.361 L94.859 -35.422 Q94.859 -35.422 94.859 -35.422 Q94.859 -35.422 94.859 -35.422 Q94.859 -42.822 89.645 -47.986 Q84.432 -53.153 77.121 -53.153 Q69.604 -53.153 64.413 -47.953 Q59.222 -42.752 59.222 -35.291 Q59.222 -29.625 62.391 -25.134 Q65.558 -20.642 70.571 -18.721 V22.999 Q70.571 24.175 69.952 24.861 Q69.333 25.548 68.233 25.548 Z"/></g><g id="Thin-L" transform="matrix(1 0 0 1 787.282 1556)"><path d="M92.688 22.635 Q89.045 22.635 86.448 20.035 Q83.85 17.437 83.85 13.796 V-13.492 Q83.85 -17.135 86.448 -19.732 Q89.045 -22.33 92.688 -22.33 H132.876 Q136.517 -22.33 139.115 -19.732 Q141.715 -17.135 141.715 -13.492 V13.796 Q141.715 17.437 139.115 20.035 Q136.517 22.635 132.876 22.635 H92.688 Z M92.688 17.765 H132.876 Q134.613 17.765 135.729 16.649 Q136.845 15.533 136.845 13.796 V-13.492 Q136.845 -15.229 135.729 -16.344 Q134.613 -17.462 132.876 -17.462 H92.688 Q90.951 -17.462 89.836 -16.344 Q88.718 -15.229 88.718 -13.492 V13.796 Q88.718 15.533 89.836 16.649 Q90.951 17.765 92.688 17.765 Z M68.823 22.635 Q67.825 22.635 67.114 21.861 Q66.403 21.085 66.193 19.911 L64.227 4.171 Q60.606 3.104 56.313 0.695 Q52.022 -1.714 49.07 -4.431 L34.904 2.056 Q33.651 2.552 32.502 2.236 Q31.35 1.919 30.737 0.766 L22.68 -13.169 Q22.067 -14.18 22.301 -15.33 Q22.533 -16.48 23.717 -17.338 L36.623 -26.882 Q36.238 -28.888 36.064 -30.973 Q35.891 -33.06 35.891 -35.106 Q35.891 -36.91 36.064 -39.084 Q36.238 -41.258 36.56 -43.615 L23.734 -53.203 Q22.538 -53.916 22.333 -55.16 Q22.128 -56.404 22.885 -57.495 L30.737 -70.978 Q31.366 -71.974 32.518 -72.379 Q33.671 -72.782 34.843 -72.411 L49.044 -66.153 Q52.269 -68.726 56.286 -71.105 Q60.301 -73.483 64.071 -74.612 L66.354 -90.39 Q66.678 -91.597 67.58 -92.354 Q68.481 -93.112 69.654 -93.112 H85.103 Q86.241 -93.112 87.185 -92.354 Q88.13 -91.597 88.446 -90.39 L90.705 -74.617 Q94.647 -73.148 98.342 -71.027 Q102.034 -68.907 105.32 -66.153 L120.305 -72.411 Q121.291 -72.782 122.461 -72.379 Q123.63 -71.974 124.23 -70.978 L132.12 -57.371 Q132.733 -56.217 132.42 -55.119 Q132.106 -54.019 131.208 -53.203 L118.135 -42.486 Q118.196 -41.865 118.351 -41.37 Q118.506 -40.874 118.63 -40.253 Q118.022 -38.313 116.484 -36.939 Q114.947 -35.565 112.572 -35.33 L92.161 -35.453 Q92.161 -35.453 92.161 -35.453 Q92.161 -35.453 92.161 -35.453 Q92.161 -41.704 87.66 -46.111 Q83.161 -50.518 76.966 -50.518 Q70.597 -50.518 66.18 -46.124 Q61.765 -41.73 61.765 -35.354 Q61.765 -30.68 64.266 -26.932 Q66.767 -23.185 70.758 -21.48 V20.519 Q70.758 21.57 70.2 22.102 Q69.644 22.635 68.823 22.635 Z"/></g><g id="Ultralight-L" transform="matrix(1 0 0 1 491.205 1556)"><path d="M92.558 20.885 Q88.934 20.885 86.393 18.342 Q83.85 15.801 83.85 12.178 V-13.622 Q83.85 -17.246 86.393 -19.787 Q88.934 -22.33 92.558 -22.33 H131.257 Q134.881 -22.33 137.422 -19.787 Q139.965 -17.246 139.965 -13.622 V12.178 Q139.965 15.801 137.422 18.342 Q134.881 20.885 131.257 20.885 H92.558 Z M92.558 17.338 H131.257 Q133.515 17.338 134.966 15.886 Q136.417 14.435 136.417 12.178 V-13.622 Q136.417 -15.88 134.966 -17.331 Q133.515 -18.782 131.257 -18.782 H92.558 Q90.3 -18.782 88.849 -17.331 Q87.398 -15.88 87.398 -13.622 V12.178 Q87.398 14.435 88.849 15.886 Q90.3 17.338 92.558 17.338 Z M69.176 20.885 Q68.531 20.885 68.054 20.316 Q67.575 19.747 67.403 18.869 L65.548 2.906 Q61.759 1.858 57.244 -0.682 Q52.729 -3.222 49.665 -6.124 L35.556 0.326 Q34.508 0.729 33.58 0.487 Q32.653 0.245 32.169 -0.722 L24.671 -13.542 Q24.188 -14.348 24.357 -15.275 Q24.525 -16.201 25.558 -16.928 L38.297 -26.361 Q37.894 -28.535 37.692 -30.713 Q37.491 -32.892 37.491 -35.069 Q37.491 -37.004 37.692 -39.261 Q37.894 -41.519 38.216 -44.099 L25.558 -53.612 Q24.51 -54.177 24.389 -55.225 Q24.268 -56.273 24.913 -57.16 L32.169 -69.415 Q32.668 -70.187 33.588 -70.528 Q34.508 -70.866 35.475 -70.624 L49.584 -64.497 Q53.051 -67.238 57.244 -69.737 Q61.436 -72.237 65.355 -73.383 L67.564 -89.087 Q67.888 -90.089 68.613 -90.716 Q69.338 -91.345 70.305 -91.345 H84.414 Q85.33 -91.345 86.125 -90.716 Q86.92 -90.089 87.236 -89.087 L89.402 -73.314 Q93.606 -71.753 97.355 -69.576 Q101.104 -67.399 104.651 -64.497 L119.728 -70.624 Q120.454 -70.866 121.428 -70.528 Q122.402 -70.187 122.873 -69.415 L130.129 -56.999 Q130.613 -56.031 130.374 -55.146 Q130.134 -54.261 129.403 -53.612 L116.664 -43.454 Q116.745 -42.647 116.947 -42.002 Q117.148 -41.357 117.309 -40.551 Q117.148 -38.536 115.778 -37.004 Q114.407 -35.472 112.069 -35.311 L90.542 -35.472 Q90.542 -35.472 90.542 -35.472 Q90.542 -35.472 90.542 -35.472 Q90.542 -41.035 86.47 -44.986 Q82.399 -48.936 76.873 -48.936 Q71.192 -48.936 67.241 -45.026 Q63.291 -41.116 63.291 -35.391 Q63.291 -31.312 65.392 -28.011 Q67.493 -24.71 70.869 -23.136 V19.031 Q70.869 20.008 70.35 20.446 Q69.829 20.885 69.176 20.885 Z"/></g><g id="Bold-M" transform="matrix(1 0 0 1 2281.8 1126)"><path d="M80.125 17.77 Q73.757 17.77 69.379 13.391 Q65 9.013 65 2.645 V-10.105 Q65 -16.472 69.379 -20.851 Q73.757 -25.23 80.125 -25.23 H103.625 Q109.993 -25.23 114.371 -20.851 Q118.75 -16.472 118.75 -10.105 V2.645 Q118.75 9.013 114.371 13.391 Q109.993 17.77 103.625 17.77 H80.125 Z M80.125 2.645 H103.625 Q103.625 2.645 103.625 2.645 Q103.625 2.645 103.625 2.645 V-10.105 Q103.625 -10.105 103.625 -10.105 Q103.625 -10.105 103.625 -10.105 H80.125 Q80.125 -10.105 80.125 -10.105 Q80.125 -10.105 80.125 -10.105 V2.645 Q80.125 2.645 80.125 2.645 Q80.125 2.645 80.125 2.645 Z M49.625 17.77 Q46.812 17.77 44.781 15.989 Q42.75 14.208 42.375 11.458 L41.062 0.833 Q40.438 0.52 39.594 0.114 Q38.75 -0.292 38.125 -0.667 L29.688 2.833 Q26.625 4.145 23.438 3.145 Q20.25 2.145 18.562 -0.855 L9.5 -16.792 Q7.938 -19.667 8.531 -22.886 Q9.125 -26.105 11.812 -28.167 L19.188 -33.855 Q19.188 -34.165 19.188 -34.416 Q19.188 -34.667 19.188 -35.23 Q19.188 -35.48 19.219 -35.855 Q19.25 -36.23 19.25 -36.855 L11.938 -42.23 Q9.125 -44.292 8.5 -47.48 Q7.875 -50.667 9.562 -53.73 L18.562 -69.48 Q20.261 -72.329 23.413 -73.374 Q26.562 -74.417 29.625 -73.167 L38.562 -69.542 Q39.062 -69.917 39.594 -70.23 Q40.125 -70.542 41.062 -70.917 L42.375 -80.605 Q42.939 -84.006 45.345 -86.18 Q47.75 -88.355 51.125 -88.355 H68.938 Q72.335 -88.355 74.701 -86.18 Q77.067 -84.006 77.625 -80.605 L78.938 -71.105 Q79.688 -70.792 80.344 -70.449 Q81 -70.105 81.625 -69.542 L90.438 -73.167 Q93.5 -74.542 96.661 -73.436 Q99.823 -72.329 101.5 -69.48 L110.5 -53.73 Q112.188 -50.73 111.545 -47.482 Q110.903 -44.235 108.062 -42.23 L102.438 -38.23 Q102.438 -38.23 102.438 -38.23 Q102.438 -38.23 102.438 -38.23 Q100.438 -36.792 98.125 -36.042 Q95.812 -35.292 93.5 -35.292 H76.438 Q76.438 -35.292 76.438 -35.292 Q76.438 -35.292 76.438 -35.292 Q76.312 -42.355 71.438 -47.23 Q66.562 -52.105 59.591 -52.105 Q52.5 -52.105 47.594 -47.199 Q42.688 -42.292 42.688 -35.23 Q42.688 -29.43 46.125 -24.955 Q49.562 -20.48 54.938 -18.98 V12.208 Q54.938 14.528 53.836 16.149 Q52.735 17.77 49.625 17.77 Z"/></g><g id="Semibold-M" transform="matrix(1 0 0 1 1985.97 1126)"><path d="M77.625 15.923 Q72.345 15.923 68.672 12.25 Q65 8.578 65 3.298 V-12.605 Q65 -17.885 68.672 -21.557 Q72.345 -25.23 77.625 -25.23 H103.951 Q109.231 -25.23 112.904 -21.557 Q116.576 -17.885 116.576 -12.605 V3.298 Q116.576 8.578 112.904 12.25 Q109.231 15.923 103.951 15.923 H77.625 Z M77.625 3.298 H103.951 Q103.951 3.298 103.951 3.298 Q103.951 3.298 103.951 3.298 V-12.605 Q103.951 -12.605 103.951 -12.605 Q103.951 -12.605 103.951 -12.605 H77.625 Q77.625 -12.605 77.625 -12.605 Q77.625 -12.605 77.625 -12.605 V3.298 Q77.625 3.298 77.625 3.298 Q77.625 3.298 77.625 3.298 Z M50.549 15.923 Q48.062 15.923 46.249 14.331 Q44.435 12.74 44.114 10.316 L42.748 -0.417 Q41.688 -0.892 40.49 -1.516 Q39.294 -2.14 38.343 -2.787 L29.85 0.713 Q27.005 1.918 24.09 0.971 Q21.174 0.025 19.595 -2.702 L11.565 -16.739 Q10.057 -19.396 10.651 -22.397 Q11.245 -25.399 13.715 -27.297 L21.144 -32.985 Q21.09 -33.512 21.09 -33.981 Q21.09 -34.45 21.09 -35.23 Q21.09 -35.697 21.121 -36.29 Q21.152 -36.882 21.206 -37.725 L13.84 -43.154 Q11.299 -45.054 10.674 -48.024 Q10.049 -50.994 11.627 -53.784 L19.595 -67.686 Q21.185 -70.319 24.091 -71.309 Q26.997 -72.297 29.843 -71.102 L38.671 -67.477 Q39.498 -68.124 40.464 -68.681 Q41.429 -69.239 42.748 -69.776 L44.005 -79.355 Q44.46 -82.485 46.73 -84.496 Q49 -86.507 52.104 -86.507 H67.959 Q71.085 -86.507 73.315 -84.496 Q75.545 -82.485 75.995 -79.355 L77.252 -69.964 Q78.438 -69.489 79.448 -68.9 Q80.456 -68.311 81.407 -67.477 L90.166 -71.102 Q93.011 -72.369 95.927 -71.344 Q98.845 -70.319 100.412 -67.686 L108.38 -53.784 Q109.96 -51.056 109.344 -48.054 Q108.729 -45.05 106.16 -43.154 L98.688 -37.686 Q98.688 -37.686 98.688 -37.686 Q98.688 -37.686 98.688 -37.686 Q97.014 -36.466 95.109 -35.852 Q93.204 -35.239 91.218 -35.239 H76.6 Q76.6 -35.239 76.6 -35.239 Q76.6 -35.239 76.6 -35.239 Q76.53 -42.301 71.627 -47.202 Q66.725 -52.105 59.755 -52.105 Q52.663 -52.105 47.756 -47.199 Q42.85 -42.292 42.85 -35.23 Q42.85 -29.43 46.261 -25.009 Q49.671 -20.589 54.991 -19.034 V11.12 Q54.991 13.115 53.972 14.519 Q52.953 15.923 50.549 15.923 Z"/></g><g id="Medium-M" transform="matrix(1 0 0 1 1689.91 1126)"><path d="M75.75 14.536 Q71.285 14.536 68.142 11.394 Q65 8.251 65 3.786 V-14.48 Q65 -18.945 68.142 -22.087 Q71.285 -25.23 75.75 -25.23 H104.196 Q108.661 -25.23 111.804 -22.087 Q114.946 -18.945 114.946 -14.48 V3.786 Q114.946 8.251 111.804 11.394 Q108.661 14.536 104.196 14.536 H75.75 Z M75.75 3.786 H104.196 Q104.196 3.786 104.196 3.786 Q104.196 3.786 104.196 3.786 V-14.48 Q104.196 -14.48 104.196 -14.48 Q104.196 -14.48 104.196 -14.48 H75.75 Q75.75 -14.48 75.75 -14.48 Q75.75 -14.48 75.75 -14.48 V3.786 Q75.75 3.786 75.75 3.786 Q75.75 3.786 75.75 3.786 Z M51.241 14.536 Q49 14.536 47.349 13.088 Q45.699 11.64 45.419 9.46 L44.011 -1.355 Q42.625 -1.952 41.163 -2.74 Q39.701 -3.526 38.505 -4.376 L29.973 -0.876 Q27.291 0.245 24.579 -0.659 Q21.866 -1.564 20.37 -4.089 L13.114 -16.697 Q11.646 -19.192 12.24 -22.03 Q12.834 -24.869 15.141 -26.646 L22.611 -32.334 Q22.516 -33.022 22.516 -33.655 Q22.516 -34.287 22.516 -35.23 Q22.516 -35.86 22.547 -36.616 Q22.579 -37.371 22.674 -38.376 L15.266 -43.846 Q12.929 -45.624 12.304 -48.431 Q11.679 -51.239 13.176 -53.825 L20.37 -66.341 Q21.879 -68.81 24.601 -69.759 Q27.324 -70.709 30.005 -69.554 L38.752 -65.929 Q39.824 -66.779 41.115 -67.52 Q42.407 -68.26 44.011 -68.92 L45.229 -78.417 Q45.602 -81.344 47.77 -83.232 Q49.938 -85.121 52.837 -85.121 H67.225 Q70.147 -85.121 72.276 -83.232 Q74.404 -81.344 74.771 -78.417 L75.989 -69.107 Q77.5 -68.51 78.775 -67.739 Q80.049 -66.966 81.245 -65.929 L89.963 -69.554 Q92.644 -70.739 95.377 -69.774 Q98.111 -68.81 99.597 -66.341 L106.791 -53.825 Q108.287 -51.301 107.692 -48.481 Q107.097 -45.662 104.734 -43.846 L95.875 -37.279 Q95.875 -37.279 95.875 -37.279 Q95.875 -37.279 95.875 -37.279 Q94.446 -36.221 92.846 -35.71 Q91.248 -35.197 89.505 -35.197 H76.722 Q76.722 -35.197 76.722 -35.197 Q76.722 -35.197 76.722 -35.197 Q76.692 -42.26 71.77 -47.182 Q66.847 -52.105 59.876 -52.105 Q52.785 -52.105 47.879 -47.199 Q42.972 -42.292 42.972 -35.23 Q42.972 -29.43 46.362 -25.05 Q49.752 -20.67 55.032 -19.075 V10.305 Q55.032 12.055 54.074 13.295 Q53.115 14.536 51.241 14.536 Z"/></g><g id="Regular-M" transform="matrix(1 0 0 1 1394.06 1126)"><path d="M74.375 13.52 Q70.507 13.52 67.754 10.766 Q65 8.013 65 4.145 V-15.855 Q65 -19.722 67.754 -22.476 Q70.507 -25.23 74.375 -25.23 H104.375 Q108.243 -25.23 110.996 -22.476 Q113.75 -19.722 113.75 -15.855 V4.145 Q113.75 8.013 110.996 10.766 Q108.243 13.52 104.375 13.52 H74.375 Z M74.375 4.145 H104.375 Q104.375 4.145 104.375 4.145 Q104.375 4.145 104.375 4.145 V-15.855 Q104.375 -15.855 104.375 -15.855 Q104.375 -15.855 104.375 -15.855 H74.375 Q74.375 -15.855 74.375 -15.855 Q74.375 -15.855 74.375 -15.855 V4.145 Q74.375 4.145 74.375 4.145 Q74.375 4.145 74.375 4.145 Z M51.75 13.52 Q49.688 13.52 48.156 12.176 Q46.625 10.833 46.375 8.833 L44.938 -2.042 Q43.312 -2.73 41.656 -3.636 Q40 -4.542 38.625 -5.542 L30.062 -2.042 Q27.5 -0.98 24.938 -1.855 Q22.375 -2.73 20.938 -5.105 L14.25 -16.667 Q12.812 -19.042 13.406 -21.761 Q14 -24.48 16.188 -26.167 L23.688 -31.855 Q23.562 -32.665 23.562 -33.416 Q23.562 -34.167 23.562 -35.23 Q23.562 -35.98 23.594 -36.855 Q23.625 -37.73 23.75 -38.855 L16.312 -44.355 Q14.125 -46.042 13.5 -48.73 Q12.875 -51.417 14.312 -53.855 L20.938 -65.355 Q22.386 -67.704 24.975 -68.624 Q27.562 -69.542 30.125 -68.417 L38.812 -64.792 Q40.062 -65.792 41.594 -66.667 Q43.125 -67.542 44.938 -68.292 L46.125 -77.73 Q46.439 -80.506 48.532 -82.305 Q50.625 -84.105 53.375 -84.105 H66.688 Q69.46 -84.105 71.514 -82.305 Q73.567 -80.506 73.875 -77.73 L75.062 -68.48 Q76.812 -67.792 78.281 -66.886 Q79.75 -65.98 81.125 -64.792 L89.812 -68.417 Q92.375 -69.542 94.974 -68.624 Q97.573 -67.704 99 -65.355 L105.625 -53.855 Q107.062 -51.48 106.483 -48.795 Q105.903 -46.11 103.688 -44.355 L93.812 -36.98 Q93.812 -36.98 93.812 -36.98 Q93.812 -36.98 93.812 -36.98 Q92.562 -36.042 91.188 -35.605 Q89.812 -35.167 88.25 -35.167 H76.812 Q76.812 -35.167 76.812 -35.167 Q76.812 -35.167 76.812 -35.167 Q76.812 -42.23 71.875 -47.167 Q66.938 -52.105 59.966 -52.105 Q52.875 -52.105 47.969 -47.199 Q43.062 -42.292 43.062 -35.23 Q43.062 -29.43 46.438 -25.08 Q49.812 -20.73 55.062 -19.105 V9.708 Q55.062 11.278 54.149 12.399 Q53.235 13.52 51.75 13.52 Z"/></g><g id="Light-M" transform="matrix(1 0 0 1 1098.18 1126)"><path d="M73.534 11.26 Q69.979 11.26 67.49 8.771 Q65 6.281 65 2.726 V-16.696 Q65 -20.251 67.49 -22.74 Q69.979 -25.23 73.534 -25.23 H102.956 Q106.511 -25.23 109.001 -22.74 Q111.49 -20.251 111.49 -16.696 V2.726 Q111.49 6.281 109.001 8.771 Q106.511 11.26 102.956 11.26 H73.534 Z M73.534 4.265 H102.956 Q103.63 4.265 104.062 3.833 Q104.495 3.4 104.495 2.726 V-16.696 Q104.495 -17.37 104.062 -17.802 Q103.63 -18.235 102.956 -18.235 H73.534 Q72.86 -18.235 72.427 -17.802 Q71.995 -17.37 71.995 -16.696 V2.726 Q71.995 3.4 72.427 3.833 Q72.86 4.265 73.534 4.265 Z M52.447 11.26 Q50.938 11.26 49.828 10.253 Q48.716 9.246 48.515 7.726 L47.125 -3.629 Q45.091 -4.341 42.81 -5.584 Q40.529 -6.826 38.865 -8.211 L29.558 -4.326 Q27.644 -3.529 25.731 -4.162 Q23.817 -4.797 22.74 -6.595 L16.438 -17.436 Q15.361 -19.211 15.799 -21.232 Q16.236 -23.254 17.894 -24.532 L26.091 -30.701 Q25.895 -31.775 25.834 -32.839 Q25.774 -33.902 25.774 -35.182 Q25.774 -36.149 25.865 -37.3 Q25.957 -38.451 26.13 -39.961 L17.995 -45.99 Q16.336 -47.245 15.893 -49.271 Q15.447 -51.297 16.549 -53.134 L22.74 -63.769 Q23.829 -65.492 25.756 -66.184 Q27.683 -66.874 29.596 -66.061 L38.981 -62.124 Q40.688 -63.532 42.76 -64.732 Q44.831 -65.931 47.078 -66.754 L48.409 -77.056 Q48.675 -79.136 50.226 -80.479 Q51.779 -81.821 53.831 -81.821 H66.183 Q68.234 -81.821 69.782 -80.479 Q71.331 -79.136 71.591 -77.056 L72.899 -66.845 Q75.226 -65.99 77.079 -64.866 Q78.933 -63.744 80.789 -62.124 L90.461 -66.061 Q92.351 -66.874 94.289 -66.184 Q96.226 -65.492 97.294 -63.769 L103.485 -53.086 Q104.562 -51.287 104.126 -49.287 Q103.691 -47.289 102.029 -45.99 L92.058 -38.566 Q92.13 -38.326 92.166 -38.134 Q92.201 -37.941 92.25 -37.701 Q91.576 -36.571 90.323 -35.881 Q89.067 -35.191 87.505 -35.191 L74.24 -35.24 Q74.24 -35.24 74.24 -35.24 Q74.24 -35.24 74.24 -35.24 Q74.24 -41.269 70 -45.496 Q65.76 -49.725 59.797 -49.725 Q53.74 -49.725 49.531 -45.516 Q45.322 -41.306 45.322 -35.277 Q45.322 -30.487 48.036 -26.811 Q50.75 -23.134 55.062 -21.629 V8.265 Q55.062 9.499 54.318 10.379 Q53.571 11.26 52.447 11.26 Z"/></g><g id="Thin-M" transform="matrix(1 0 0 1 802.565 1126)"><path d="M72.692 9.001 Q69.45 9.001 67.225 6.776 Q65 4.551 65 1.309 V-17.537 Q65 -20.78 67.225 -23.005 Q69.45 -25.23 72.692 -25.23 H101.539 Q104.781 -25.23 107.006 -23.005 Q109.231 -20.78 109.231 -17.537 V1.309 Q109.231 4.551 107.006 6.776 Q104.781 9.001 101.539 9.001 H72.692 Z M72.692 4.385 H101.539 Q102.885 4.385 103.75 3.52 Q104.615 2.655 104.615 1.309 V-17.537 Q104.615 -18.884 103.75 -19.749 Q102.885 -20.615 101.539 -20.615 H72.692 Q71.346 -20.615 70.481 -19.749 Q69.615 -18.884 69.615 -17.537 V1.309 Q69.615 2.655 70.481 3.52 Q71.346 4.385 72.692 4.385 Z M53.144 9.001 Q52.188 9.001 51.498 8.33 Q50.807 7.66 50.654 6.621 L49.312 -5.215 Q46.87 -5.951 43.964 -7.53 Q41.057 -9.11 39.106 -10.879 L29.052 -6.61 Q27.789 -6.076 26.524 -6.47 Q25.26 -6.865 24.544 -8.086 L18.625 -18.206 Q17.909 -19.379 18.19 -20.704 Q18.471 -22.027 19.601 -22.899 L28.495 -29.547 Q28.226 -30.885 28.106 -32.262 Q27.985 -33.639 27.985 -35.134 Q27.985 -36.316 28.137 -37.745 Q28.289 -39.172 28.51 -41.066 L19.677 -47.624 Q18.547 -48.446 18.284 -49.811 Q18.019 -51.177 18.784 -52.412 L24.544 -62.182 Q25.271 -63.281 26.538 -63.744 Q27.802 -64.206 29.067 -63.706 L39.149 -59.456 Q41.312 -61.274 43.925 -62.797 Q46.539 -64.321 49.216 -65.215 L50.693 -76.384 Q50.91 -77.766 51.921 -78.651 Q52.932 -79.537 54.289 -79.537 H65.677 Q67.007 -79.537 68.052 -78.651 Q69.096 -77.766 69.308 -76.384 L70.735 -65.211 Q73.64 -64.186 75.877 -62.847 Q78.115 -61.509 80.453 -59.456 L91.11 -63.706 Q92.328 -64.206 93.604 -63.744 Q94.881 -63.281 95.586 -62.182 L101.346 -52.316 Q102.062 -51.095 101.771 -49.781 Q101.479 -48.466 100.37 -47.624 L90.302 -40.152 Q90.448 -39.672 90.519 -39.287 Q90.591 -38.902 90.688 -38.422 Q90.591 -37.1 89.456 -36.157 Q88.323 -35.215 86.76 -35.215 L71.669 -35.311 Q71.669 -35.311 71.669 -35.311 Q71.669 -35.311 71.669 -35.311 Q71.669 -40.307 68.125 -43.826 Q64.581 -47.345 59.63 -47.345 Q54.606 -47.345 51.094 -43.834 Q47.581 -40.321 47.581 -35.326 Q47.581 -31.545 49.635 -28.541 Q51.688 -25.537 55.062 -24.152 V6.823 Q55.062 7.72 54.485 8.36 Q53.907 9.001 53.144 9.001 Z"/></g><g id="Ultralight-M" transform="matrix(1 0 0 1 506.415 1126)"><path d="M72.188 7.645 Q69.132 7.645 67.066 5.579 Q65 3.513 65 0.458 V-18.042 Q65 -21.097 67.066 -23.164 Q69.132 -25.23 72.188 -25.23 H100.688 Q103.743 -25.23 105.809 -23.164 Q107.875 -21.097 107.875 -18.042 V0.458 Q107.875 3.513 105.809 5.579 Q103.743 7.645 100.688 7.645 H72.188 Z M72.188 4.458 H100.688 Q102.438 4.458 103.562 3.333 Q104.688 2.208 104.688 0.458 V-18.042 Q104.688 -19.792 103.562 -20.917 Q102.438 -22.042 100.688 -22.042 H72.188 Q70.438 -22.042 69.312 -20.917 Q68.188 -19.792 68.188 -18.042 V0.458 Q68.188 2.208 69.312 3.333 Q70.438 4.458 72.188 4.458 Z M53.562 7.645 Q52.938 7.645 52.5 7.176 Q52.062 6.708 51.938 5.958 L50.625 -6.167 Q47.938 -6.917 44.656 -8.699 Q41.375 -10.48 39.25 -12.48 L28.75 -7.98 Q27.875 -7.605 27 -7.855 Q26.125 -8.105 25.625 -8.98 L19.938 -18.667 Q19.438 -19.48 19.625 -20.386 Q19.812 -21.292 20.625 -21.917 L29.938 -28.855 Q29.625 -30.352 29.469 -31.916 Q29.312 -33.48 29.312 -35.105 Q29.312 -36.417 29.5 -38.011 Q29.688 -39.605 29.938 -41.73 L20.688 -48.605 Q19.875 -49.167 19.719 -50.136 Q19.562 -51.105 20.125 -51.98 L25.625 -61.23 Q26.136 -61.954 27.006 -62.28 Q27.875 -62.605 28.75 -62.292 L39.25 -57.855 Q41.688 -59.917 44.625 -61.636 Q47.562 -63.355 50.5 -64.292 L52.062 -75.98 Q52.251 -76.944 52.939 -77.555 Q53.625 -78.167 54.562 -78.167 H65.375 Q66.272 -78.167 67.014 -77.555 Q67.755 -76.944 67.938 -75.98 L69.438 -64.23 Q72.688 -63.105 75.156 -61.636 Q77.625 -60.167 80.25 -57.855 L91.5 -62.292 Q92.312 -62.605 93.192 -62.28 Q94.073 -61.954 94.562 -61.23 L100.062 -51.855 Q100.562 -50.98 100.358 -50.076 Q100.153 -49.172 99.375 -48.605 L89.25 -41.105 Q89.438 -40.48 89.531 -39.98 Q89.625 -39.48 89.75 -38.855 Q90 -37.417 88.938 -36.324 Q87.875 -35.23 86.312 -35.23 L70.125 -35.355 Q70.125 -35.355 70.125 -35.355 Q70.125 -35.355 70.125 -35.355 Q70.125 -39.73 67 -42.824 Q63.875 -45.917 59.529 -45.917 Q55.125 -45.917 52.031 -42.824 Q48.938 -39.73 48.938 -35.355 Q48.938 -32.18 50.594 -29.58 Q52.25 -26.98 55.062 -25.667 V5.958 Q55.062 6.653 54.586 7.149 Q54.11 7.645 53.562 7.645 Z"/></g><g id="Bold-S" transform="matrix(1 0 0 1 2294.23 696)"><path d="M63.219 5.009 Q58.195 5.009 55.134 1.949 Q52.074 -1.112 52.074 -6.136 V-14.617 Q52.074 -19.641 55.134 -22.702 Q58.195 -25.762 63.219 -25.762 H81.76 Q86.784 -25.762 89.844 -22.702 Q92.905 -19.641 92.905 -14.617 V-6.136 Q92.905 -1.112 89.844 1.949 Q86.784 5.009 81.76 5.009 H63.219 Z M63.219 -6.136 H81.76 Q81.76 -6.136 81.76 -6.136 Q81.76 -6.136 81.76 -6.136 V-14.617 Q81.76 -14.617 81.76 -14.617 Q81.76 -14.617 81.76 -14.617 H63.219 Q63.219 -14.617 63.219 -14.617 Q63.219 -14.617 63.219 -14.617 V-6.136 Q63.219 -6.136 63.219 -6.136 Q63.219 -6.136 63.219 -6.136 Z M41.422 5.009 Q39.499 5.009 38.094 3.85 Q36.689 2.691 36.393 0.817 L35.061 -6.974 Q33.582 -7.615 31.93 -8.429 Q30.278 -9.242 28.996 -10.327 L21.056 -7.566 Q19.626 -7.122 18.048 -7.566 Q16.47 -8.009 15.731 -9.489 L9.271 -20.88 Q8.63 -22.261 8.802 -23.716 Q8.975 -25.17 10.208 -26.304 L16.618 -31.975 Q16.52 -32.713 16.421 -33.454 Q16.322 -34.194 16.322 -35.23 Q16.322 -36.019 16.446 -36.857 Q16.569 -37.696 16.668 -38.682 L10.306 -44.106 Q8.975 -45.24 8.778 -46.67 Q8.58 -48.101 9.32 -49.629 L15.731 -60.872 Q16.479 -62.233 18.029 -62.712 Q19.577 -63.19 21.007 -62.796 L29.341 -59.936 Q30.524 -61.02 31.881 -61.76 Q33.237 -62.5 35.061 -63.19 L36.787 -72.017 Q37.232 -73.616 38.341 -74.591 Q39.45 -75.568 41.127 -75.568 H53.603 Q55.297 -75.568 56.375 -74.591 Q57.453 -73.616 57.893 -72.017 L59.619 -63.338 Q61.197 -62.697 62.701 -61.933 Q64.205 -61.168 65.487 -59.936 L73.919 -62.796 Q75.35 -63.289 76.857 -62.761 Q78.365 -62.233 79.097 -60.872 L85.508 -49.629 Q86.248 -48.15 85.987 -46.623 Q85.727 -45.096 84.374 -44.106 L80.725 -40.852 Q80.922 -40.457 81.02 -39.668 Q81.119 -38.879 81.119 -37.991 Q80.626 -35.378 78.851 -34.145 Q77.075 -32.912 74.659 -32.912 H60.112 Q60.211 -33.504 60.26 -34.145 Q60.309 -34.786 60.309 -35.378 Q60.211 -41.147 56.315 -45.043 Q52.419 -48.939 46.722 -48.939 Q41.028 -48.939 37.058 -44.969 Q33.089 -41 33.089 -35.329 Q33.089 -30.161 36.491 -26.235 Q39.894 -22.31 44.924 -21.718 V1.705 Q44.924 3.24 44.252 4.124 Q43.58 5.009 41.422 5.009 Z"/></g><g id="Semibold-S" transform="matrix(1 0 0 1 1998.1 696)"><path d="M61.246 3.551 Q57.08 3.551 54.577 1.048 Q52.074 -1.455 52.074 -5.621 V-16.59 Q52.074 -20.756 54.577 -23.259 Q57.08 -25.762 61.246 -25.762 H82.018 Q86.183 -25.762 88.687 -23.259 Q91.19 -20.756 91.19 -16.59 V-5.621 Q91.19 -1.455 88.687 1.048 Q86.183 3.551 82.018 3.551 H61.246 Z M61.246 -5.621 H82.018 Q82.018 -5.621 82.018 -5.621 Q82.018 -5.621 82.018 -5.621 V-16.59 Q82.018 -16.59 82.018 -16.59 Q82.018 -16.59 82.018 -16.59 H61.246 Q61.246 -16.59 61.246 -16.59 Q61.246 -16.59 61.246 -16.59 V-5.621 Q61.246 -5.621 61.246 -5.621 Q61.246 -5.621 61.246 -5.621 Z M42.151 3.551 Q40.486 3.551 39.252 2.542 Q38.018 1.533 37.764 -0.083 L36.391 -7.96 Q34.568 -8.729 32.637 -9.715 Q30.707 -10.7 29.167 -12 L21.185 -9.238 Q19.926 -8.879 18.563 -9.281 Q17.199 -9.682 16.545 -10.947 L10.9 -20.838 Q10.302 -22.047 10.475 -23.33 Q10.648 -24.613 11.709 -25.618 L18.162 -31.289 Q18.021 -32.198 17.922 -33.111 Q17.824 -34.023 17.824 -35.23 Q17.824 -36.191 17.947 -37.201 Q18.07 -38.21 18.211 -39.368 L11.807 -44.835 Q10.69 -45.841 10.493 -47.1 Q10.295 -48.358 10.949 -49.672 L16.545 -59.457 Q17.208 -60.647 18.564 -61.083 Q19.92 -61.518 21.179 -61.166 L29.427 -58.306 Q30.868 -59.605 32.567 -60.538 Q34.265 -61.471 36.391 -62.29 L38.073 -71.031 Q38.432 -72.416 39.434 -73.263 Q40.436 -74.11 41.899 -74.11 H52.83 Q54.311 -74.11 55.281 -73.263 Q56.252 -72.416 56.607 -71.031 L58.289 -62.438 Q60.211 -61.668 61.994 -60.711 Q63.776 -59.753 65.315 -58.306 L73.705 -61.166 Q74.964 -61.574 76.279 -61.11 Q77.594 -60.647 78.239 -59.457 L83.835 -49.672 Q84.49 -48.407 84.25 -47.074 Q84.012 -45.739 82.873 -44.835 L77.766 -40.423 Q77.963 -40.028 78.062 -39.239 Q78.16 -38.45 78.16 -37.562 Q77.925 -35.121 76.471 -33.995 Q75.017 -32.87 72.858 -32.87 H60.24 Q60.339 -33.462 60.388 -34.103 Q60.437 -34.744 60.437 -35.336 Q60.382 -41.105 56.465 -45.021 Q52.547 -48.939 46.851 -48.939 Q41.156 -48.939 37.187 -44.969 Q33.217 -41 33.217 -35.329 Q33.217 -30.161 36.599 -26.278 Q39.98 -22.396 44.966 -21.761 V0.847 Q44.966 2.125 44.36 2.838 Q43.752 3.551 42.151 3.551 Z"/></g><g id="Medium-S" transform="matrix(1 0 0 1 1701.85 696)"><path d="M59.767 2.458 Q56.244 2.458 54.159 0.373 Q52.074 -1.712 52.074 -5.235 V-18.069 Q52.074 -21.592 54.159 -23.677 Q56.244 -25.762 59.767 -25.762 H82.211 Q85.734 -25.762 87.819 -23.677 Q89.904 -21.592 89.904 -18.069 V-5.235 Q89.904 -1.712 87.819 0.373 Q85.734 2.458 82.211 2.458 H59.767 Z M59.767 -5.235 H82.211 Q82.211 -5.235 82.211 -5.235 Q82.211 -5.235 82.211 -5.235 V-18.069 Q82.211 -18.069 82.211 -18.069 Q82.211 -18.069 82.211 -18.069 H59.767 Q59.767 -18.069 59.767 -18.069 Q59.767 -18.069 59.767 -18.069 V-5.235 Q59.767 -5.235 59.767 -5.235 Q59.767 -5.235 59.767 -5.235 Z M42.698 2.458 Q41.225 2.458 40.12 1.561 Q39.015 0.666 38.794 -0.759 L37.388 -8.7 Q35.308 -9.566 33.168 -10.68 Q31.028 -11.794 29.296 -13.253 L21.281 -10.492 Q20.152 -10.199 18.949 -10.567 Q17.746 -10.936 17.157 -12.04 L12.122 -20.805 Q11.556 -21.886 11.728 -23.04 Q11.901 -24.195 12.834 -25.104 L19.32 -30.775 Q19.146 -31.812 19.047 -32.853 Q18.949 -33.895 18.949 -35.23 Q18.949 -36.319 19.072 -37.458 Q19.195 -38.596 19.369 -39.882 L12.933 -45.381 Q11.976 -46.291 11.779 -47.421 Q11.582 -48.551 12.171 -49.704 L17.157 -58.396 Q17.755 -59.456 18.967 -59.86 Q20.178 -60.264 21.307 -59.944 L29.491 -57.084 Q31.125 -58.544 33.081 -59.622 Q35.038 -60.699 37.388 -61.614 L39.039 -70.291 Q39.334 -71.515 40.255 -72.266 Q41.176 -73.016 42.478 -73.016 H52.252 Q53.571 -73.016 54.462 -72.266 Q55.351 -71.515 55.641 -70.291 L57.292 -61.762 Q59.471 -60.896 61.463 -59.795 Q63.454 -58.692 65.187 -57.084 L73.545 -59.944 Q74.674 -60.288 75.845 -59.871 Q77.015 -59.456 77.596 -58.396 L82.582 -49.704 Q83.17 -48.601 82.948 -47.411 Q82.725 -46.223 81.747 -45.381 L75.547 -40.101 Q75.744 -39.707 75.843 -38.918 Q75.941 -38.129 75.941 -37.241 Q75.899 -34.927 74.686 -33.883 Q73.474 -32.837 71.507 -32.837 H60.337 Q60.435 -33.429 60.485 -34.07 Q60.534 -34.711 60.534 -35.303 Q60.51 -41.073 56.577 -45.006 Q52.644 -48.939 46.946 -48.939 Q41.253 -48.939 37.283 -44.969 Q33.314 -41 33.314 -35.329 Q33.314 -30.161 36.679 -26.31 Q40.044 -22.46 44.999 -21.793 V0.204 Q44.999 1.289 44.439 1.873 Q43.88 2.458 42.698 2.458 Z"/></g><g id="Regular-S" transform="matrix(1 0 0 1 1405.73 696)"><path d="M58.682 1.656 Q55.63 1.656 53.852 -0.122 Q52.074 -1.901 52.074 -4.952 V-19.154 Q52.074 -22.206 53.852 -23.984 Q55.63 -25.762 58.682 -25.762 H82.352 Q85.403 -25.762 87.182 -23.984 Q88.96 -22.206 88.96 -19.154 V-4.952 Q88.96 -1.901 87.182 -0.122 Q85.403 1.656 82.352 1.656 H58.682 Z M58.682 -4.952 H82.352 Q82.352 -4.952 82.352 -4.952 Q82.352 -4.952 82.352 -4.952 V-19.154 Q82.352 -19.154 82.352 -19.154 Q82.352 -19.154 82.352 -19.154 H58.682 Q58.682 -19.154 58.682 -19.154 Q58.682 -19.154 58.682 -19.154 V-4.952 Q58.682 -4.952 58.682 -4.952 Q58.682 -4.952 58.682 -4.952 Z M43.099 1.656 Q41.768 1.656 40.757 0.842 Q39.746 0.028 39.549 -1.254 L38.119 -9.242 Q35.85 -10.179 33.557 -11.387 Q31.264 -12.596 29.39 -14.174 L21.352 -11.412 Q20.317 -11.165 19.232 -11.511 Q18.147 -11.856 17.605 -12.842 L13.019 -20.781 Q12.476 -21.768 12.649 -22.828 Q12.821 -23.888 13.66 -24.726 L20.169 -30.397 Q19.972 -31.53 19.873 -32.665 Q19.774 -33.8 19.774 -35.23 Q19.774 -36.413 19.898 -37.646 Q20.021 -38.879 20.218 -40.26 L13.758 -45.783 Q12.92 -46.621 12.723 -47.657 Q12.525 -48.692 13.068 -49.728 L17.605 -57.618 Q18.156 -58.583 19.261 -58.964 Q20.366 -59.344 21.402 -59.048 L29.538 -56.188 Q31.313 -57.766 33.459 -58.949 Q35.604 -60.133 38.119 -61.119 L39.746 -69.749 Q39.993 -70.854 40.856 -71.534 Q41.718 -72.214 42.902 -72.214 H51.827 Q53.029 -72.214 53.86 -71.534 Q54.692 -70.854 54.934 -69.749 L56.561 -61.267 Q58.928 -60.33 61.074 -59.122 Q63.219 -57.914 65.093 -56.188 L73.426 -59.048 Q74.462 -59.344 75.526 -58.964 Q76.59 -58.583 77.125 -57.618 L81.662 -49.728 Q82.204 -48.742 81.993 -47.659 Q81.782 -46.576 80.922 -45.783 L73.919 -39.865 Q74.117 -39.471 74.215 -38.682 Q74.314 -37.893 74.314 -37.005 Q74.413 -34.786 73.377 -33.8 Q72.341 -32.814 70.517 -32.814 H60.408 Q60.506 -33.405 60.556 -34.046 Q60.605 -34.688 60.605 -35.279 Q60.605 -41.049 56.66 -44.994 Q52.715 -48.939 47.017 -48.939 Q41.324 -48.939 37.354 -44.969 Q33.385 -41 33.385 -35.329 Q33.385 -30.161 36.738 -26.334 Q40.091 -22.507 45.022 -21.817 V-0.267 Q45.022 0.675 44.499 1.166 Q43.975 1.656 43.099 1.656 Z"/></g><g id="Light-S" transform="matrix(1 0 0 1 1109.75 696)"><path d="M58.018 -0.127 Q55.213 -0.127 53.644 -1.697 Q52.074 -3.267 52.074 -6.072 V-19.818 Q52.074 -22.623 53.644 -24.192 Q55.213 -25.762 58.018 -25.762 H81.232 Q84.037 -25.762 85.607 -24.192 Q87.177 -22.623 87.177 -19.818 V-6.072 Q87.177 -3.267 85.607 -1.697 Q84.037 -0.127 81.232 -0.127 H58.018 Z M58.018 -4.857 H81.232 Q81.764 -4.857 82.105 -5.199 Q82.447 -5.54 82.447 -6.072 V-19.818 Q82.447 -20.349 82.105 -20.691 Q81.764 -21.032 81.232 -21.032 H58.018 Q57.487 -21.032 57.145 -20.691 Q56.804 -20.349 56.804 -19.818 V-6.072 Q56.804 -5.54 57.145 -5.199 Q57.487 -4.857 58.018 -4.857 Z M43.649 -0.127 Q42.754 -0.127 42.075 -0.676 Q41.396 -1.223 41.237 -2.127 L39.845 -10.494 Q37.254 -11.451 34.467 -12.924 Q31.681 -14.397 29.58 -16.279 L20.954 -13.214 Q20.43 -13.176 19.858 -13.331 Q19.285 -13.487 19.027 -14.018 L14.744 -21.388 Q14.487 -21.901 14.536 -22.411 Q14.586 -22.921 15.006 -23.436 L22.065 -29.487 Q21.812 -30.827 21.665 -32.209 Q21.519 -33.591 21.519 -35.193 Q21.519 -36.547 21.69 -37.997 Q21.861 -39.448 22.096 -41.133 L15.086 -47.073 Q14.665 -47.57 14.61 -48.084 Q14.555 -48.598 14.832 -49.159 L19.027 -56.366 Q19.294 -56.839 19.878 -57.039 Q20.461 -57.238 20.984 -57.189 L29.671 -54.082 Q31.807 -55.983 34.379 -57.423 Q36.95 -58.862 39.807 -59.905 L41.548 -69.217 Q41.758 -69.773 42.193 -70.093 Q42.629 -70.412 43.262 -70.412 H51.429 Q52.061 -70.412 52.494 -70.093 Q52.927 -69.773 53.132 -69.217 L54.854 -59.977 Q57.677 -58.908 60.125 -57.528 Q62.574 -56.149 64.827 -54.082 L73.938 -57.189 Q74.443 -57.238 74.986 -57.039 Q75.528 -56.839 75.779 -56.366 L79.973 -49.121 Q80.231 -48.59 80.134 -48.047 Q80.037 -47.506 79.613 -47.073 L72.535 -41.117 Q72.789 -40.533 72.916 -39.592 Q73.043 -38.651 73.081 -37.574 Q73.634 -35.203 72.695 -34.018 Q71.754 -32.832 69.929 -32.832 L58.378 -32.871 Q58.477 -33.463 58.526 -34.104 Q58.575 -34.745 58.575 -35.337 Q58.575 -40.29 55.181 -43.675 Q51.786 -47.061 46.884 -47.061 Q42.006 -47.061 38.587 -43.642 Q35.168 -40.221 35.168 -35.366 Q35.168 -30.995 37.999 -27.7 Q40.831 -24.404 45.022 -23.808 V-1.406 Q45.022 -0.728 44.632 -0.428 Q44.24 -0.127 43.649 -0.127 Z"/></g><g id="Thin-S" transform="matrix(1 0 0 1 814.015 696)"><path d="M57.354 -1.91 Q54.796 -1.91 53.435 -3.271 Q52.074 -4.632 52.074 -7.19 V-20.482 Q52.074 -23.04 53.435 -24.401 Q54.796 -25.762 57.354 -25.762 H80.114 Q82.672 -25.762 84.033 -24.401 Q85.394 -23.04 85.394 -20.482 V-7.19 Q85.394 -4.632 84.033 -3.271 Q82.672 -1.91 80.114 -1.91 H57.354 Z M57.354 -4.763 H80.114 Q81.176 -4.763 81.859 -5.445 Q82.541 -6.128 82.541 -7.19 V-20.482 Q82.541 -21.544 81.859 -22.226 Q81.176 -22.91 80.114 -22.91 H57.354 Q56.292 -22.91 55.61 -22.226 Q54.926 -21.544 54.926 -20.482 V-7.19 Q54.926 -6.128 55.61 -5.445 Q56.292 -4.763 57.354 -4.763 Z M44.199 -1.91 Q43.74 -1.91 43.393 -2.193 Q43.046 -2.475 42.925 -2.998 L41.57 -11.745 Q38.657 -12.721 35.378 -14.46 Q32.098 -16.199 29.77 -18.384 L20.555 -15.016 Q20.545 -15.186 20.483 -15.152 Q20.423 -15.118 20.45 -15.194 L16.47 -21.996 Q16.497 -22.033 16.423 -21.994 Q16.349 -21.953 16.353 -22.147 L23.962 -28.577 Q23.651 -30.125 23.458 -31.754 Q23.264 -33.383 23.264 -35.154 Q23.264 -36.679 23.483 -38.349 Q23.701 -40.017 23.974 -42.005 L16.413 -48.362 Q16.409 -48.518 16.497 -48.51 Q16.584 -48.503 16.596 -48.59 L20.45 -55.115 Q20.432 -55.094 20.494 -55.114 Q20.555 -55.134 20.567 -55.331 L29.803 -51.978 Q32.3 -54.201 35.298 -55.896 Q38.297 -57.591 41.494 -58.691 L43.35 -68.687 Q43.521 -68.692 43.53 -68.651 Q43.539 -68.611 43.623 -68.611 H51.031 Q51.094 -68.611 51.129 -68.651 Q51.164 -68.692 51.33 -68.687 L53.147 -58.688 Q56.425 -57.485 59.177 -55.935 Q61.929 -54.386 64.562 -51.978 L74.45 -55.331 Q74.424 -55.134 74.445 -55.114 Q74.467 -55.094 74.431 -55.115 L78.286 -48.514 Q78.259 -48.438 78.276 -48.437 Q78.291 -48.435 78.304 -48.362 L71.15 -42.368 Q71.462 -41.595 71.617 -40.502 Q71.772 -39.41 71.848 -38.143 Q72.857 -35.621 72.011 -34.236 Q71.166 -32.851 69.341 -32.851 L56.349 -32.927 Q56.448 -33.519 56.497 -34.16 Q56.547 -34.801 56.547 -35.393 Q56.547 -39.532 53.701 -42.358 Q50.856 -45.183 46.752 -45.183 Q42.69 -45.183 39.82 -42.314 Q36.95 -39.444 36.95 -35.405 Q36.95 -31.829 39.261 -29.065 Q41.57 -26.3 45.022 -25.799 V-2.544 Q45.022 -2.131 44.764 -2.021 Q44.506 -1.91 44.199 -1.91 Z"/></g><g id="Ultralight-S" transform="matrix(1 0 0 1 517.792 696)"><path d="M56.956 -2.98 Q54.546 -2.98 53.31 -4.215 Q52.074 -5.451 52.074 -7.862 V-20.88 Q52.074 -23.29 53.31 -24.526 Q54.546 -25.762 56.956 -25.762 H79.442 Q81.853 -25.762 83.089 -24.526 Q84.324 -23.29 84.324 -20.88 V-7.862 Q84.324 -5.451 83.089 -4.215 Q81.853 -2.98 79.442 -2.98 H56.956 Z M56.956 -4.706 H79.442 Q80.823 -4.706 81.711 -5.593 Q82.598 -6.481 82.598 -7.862 V-20.88 Q82.598 -22.261 81.711 -23.148 Q80.823 -24.036 79.442 -24.036 H56.956 Q55.575 -24.036 54.688 -23.148 Q53.8 -22.261 53.8 -20.88 V-7.862 Q53.8 -6.481 54.688 -5.593 Q55.575 -4.706 56.956 -4.706 Z M44.529 -2.98 Q44.332 -2.98 44.184 -3.103 Q44.036 -3.226 43.937 -3.522 L42.606 -12.497 Q39.499 -13.483 35.924 -15.382 Q32.349 -17.28 29.883 -19.647 L20.317 -16.097 Q20.613 -16.393 20.859 -16.245 Q21.106 -16.097 21.303 -15.899 L17.506 -22.359 Q17.703 -22.113 17.555 -21.743 Q17.407 -21.373 17.161 -21.373 L25.1 -28.03 Q24.755 -29.705 24.533 -31.481 Q24.311 -33.257 24.311 -35.131 Q24.311 -36.759 24.558 -38.559 Q24.804 -40.358 25.1 -42.528 L17.21 -49.136 Q17.457 -49.087 17.629 -48.766 Q17.802 -48.446 17.654 -48.248 L21.303 -54.363 Q21.115 -54.047 20.864 -53.959 Q20.613 -53.87 20.317 -54.215 L29.883 -50.714 Q32.596 -53.13 35.85 -54.98 Q39.105 -56.829 42.507 -57.963 L44.431 -68.368 Q44.579 -68.044 44.333 -67.786 Q44.085 -67.53 43.839 -67.53 H50.792 Q50.514 -67.53 50.31 -67.786 Q50.105 -68.044 50.249 -68.368 L52.123 -57.914 Q55.674 -56.632 58.608 -54.98 Q61.542 -53.328 64.402 -50.714 L74.758 -54.215 Q74.413 -53.87 74.121 -53.959 Q73.829 -54.047 73.624 -54.363 L77.273 -48.15 Q77.075 -48.347 77.16 -48.67 Q77.245 -48.992 77.519 -49.136 L70.32 -43.12 Q70.665 -42.232 70.837 -41.049 Q71.01 -39.865 71.109 -38.485 Q72.391 -35.871 71.602 -34.367 Q70.813 -32.863 68.988 -32.863 L55.131 -32.962 Q55.23 -33.553 55.279 -34.194 Q55.329 -34.835 55.329 -35.427 Q55.329 -39.076 52.814 -41.567 Q50.299 -44.057 46.672 -44.057 Q43.099 -44.057 40.56 -41.517 Q38.02 -38.978 38.02 -35.427 Q38.02 -32.33 40.017 -29.885 Q42.014 -27.439 45.022 -26.995 V-3.226 Q45.022 -2.974 44.844 -2.977 Q44.665 -2.98 44.529 -2.98 Z"/></g></g></svg>