<svg xmlns="http://www.w3.org/2000/svg" version="1.1" width="3300" height="2000"><g id="Notes"><style>
    text {
      font-family: monospace;
      text-anchor: middle;
    }
    text.emphasis {
      font-weight:bold;
    }
    text.lanchor {
      text-anchor: start;
    }
  </style><rect height="2200" id="artboard" fill="white" width="3300" x="0" y="0"/><line id="" style="fill:none;stroke:black;stroke-width:0.5;" x1="263" x2="3036" y1="292" y2="292"/><text class="lanchor emphasis" transform="matrix(1 0 0 1 263 322)">Weight/Scale Variations</text><text transform="matrix(1 0 0 1 559.711 322)">Ultralight</text><text transform="matrix(1 0 0 1 856.422 322)">Thin</text><text transform="matrix(1 0 0 1 1153.13 322)">Light</text><text transform="matrix(1 0 0 1 1449.84 322)">Regular</text><text transform="matrix(1 0 0 1 1746.56 322)">Medium</text><text transform="matrix(1 0 0 1 2043.27 322)">Semibold</text><text transform="matrix(1 0 0 1 2339.98 322)">Bold</text><text transform="matrix(1 0 0 1 2636.69 322)">Heavy</text><text transform="matrix(1 0 0 1 2933.4 322)">Black</text><text id="template-version" style="text-anchor: end;" transform="matrix(1 0 0 1 3036 1933)">Template v.1.0</text><text class="lanchor" transform="matrix(1 0 0 1 263 726)">Small</text><text class="lanchor" transform="matrix(1 0 0 1 263 1156)">Medium</text><text class="lanchor" transform="matrix(1 0 0 1 263 1586)">Large</text></g><g id="Guides"><g id="H-reference" style="fill:#27AAE1;stroke:none;" transform="matrix(1 0 0 1 339 696)"><path d="M 54.9316 0 L 57.666 0 L 30.5664 -70.459 L 28.0762 -70.459 L 0.976562 0 L 3.66211 0 L 12.9395 -24.4629 L 45.7031 -24.4629 Z M 29.1992 -67.0898 L 29.4434 -67.0898 L 44.8242 -26.709 L 13.8184 -26.709 Z"/></g><line id="Baseline-S" style="fill:none;stroke:#27AAE1;opacity:1;stroke-width:0.577;" x1="263" x2="3036" y1="696" y2="696"/><line id="Capline-S" style="fill:none;stroke:#27AAE1;opacity:1;stroke-width:0.577;" x1="263" x2="3036" y1="625.541" y2="625.541"/><g id="H-reference" style="fill:#27AAE1;stroke:none;" transform="matrix(1 0 0 1 339 1126)"><path d="M 54.9316 0 L 57.666 0 L 30.5664 -70.459 L 28.0762 -70.459 L 0.976562 0 L 3.66211 0 L 12.9395 -24.4629 L 45.7031 -24.4629 Z M 29.1992 -67.0898 L 29.4434 -67.0898 L 44.8242 -26.709 L 13.8184 -26.709 Z"/></g><line id="Baseline-M" style="fill:none;stroke:#27AAE1;opacity:1;stroke-width:0.577;" x1="263" x2="3036" y1="1126" y2="1126"/><line id="Capline-M" style="fill:none;stroke:#27AAE1;opacity:1;stroke-width:0.577;" x1="263" x2="3036" y1="1055.54" y2="1055.54"/><g id="H-reference" style="fill:#27AAE1;stroke:none;" transform="matrix(1 0 0 1 339 1556)"><path d="M 54.9316 0 L 57.666 0 L 30.5664 -70.459 L 28.0762 -70.459 L 0.976562 0 L 3.66211 0 L 12.9395 -24.4629 L 45.7031 -24.4629 Z M 29.1992 -67.0898 L 29.4434 -67.0898 L 44.8242 -26.709 L 13.8184 -26.709 Z"/></g><line id="Baseline-L" style="fill:none;stroke:#27AAE1;opacity:1;stroke-width:0.577;" x1="263" x2="3036" y1="1556" y2="1556"/><line id="Capline-L" style="fill:none;stroke:#27AAE1;opacity:1;stroke-width:0.577;" x1="263" x2="3036" y1="1485.54" y2="1485.54"/><rect height="119.336" id="left-margin" style="fill:darkred;stroke:none;opacity:0.4;" width="12.4512" x="1394.06" y="1030.79"/><rect height="119.336" id="right-margin" style="fill:darkgreen;stroke:none;opacity:0.4;" width="12.4512" x="1502.5112" y="1030.79"/><rect x="1406.5112" y="1045" width="96" height="96" fill="none" stroke="blue" stroke-dasharray="5"/><rect x="1394.06" y="1030.79" width="120.9024" height="119.336" fill="none" stroke="blue"/></g><g id="Symbols"><g id="Bold-L" transform="matrix(1 0 0 1 2266 1556)"><path d="M98.685 32.656 Q92.624 32.656 88.238 28.317 Q83.85 23.976 83.85 17.983 V-7.656 Q83.85 -13.482 88.238 -17.905 Q92.624 -22.33 98.685 -22.33 H137.708 Q143.533 -22.33 147.957 -17.905 Q152.381 -13.482 152.381 -7.656 V17.983 Q152.381 23.976 147.957 28.317 Q143.533 32.656 137.708 32.656 H98.685 Z M98.685 17.983 H137.708 Q137.708 17.983 137.708 17.983 Q137.708 17.983 137.708 17.983 V-7.656 Q137.708 -7.656 137.708 -7.656 Q137.708 -7.656 137.708 -7.656 H98.685 Q98.685 -7.656 98.685 -7.656 Q98.685 -7.656 98.685 -7.656 V17.983 Q98.685 17.983 98.685 17.983 Q98.685 17.983 98.685 17.983 Z M65.759 32.656 Q63.049 32.656 60.957 30.812 Q58.868 28.968 58.373 26.045 L56.115 11.21 Q53.858 10.565 51.147 8.944 Q48.436 7.325 46.601 5.889 L33.056 12.178 Q30.334 13.629 27.372 12.681 Q24.408 11.731 23.059 8.953 L11.933 -11.042 Q10.481 -13.3 10.965 -16.202 Q11.449 -19.105 14.029 -21.04 L26.606 -30.392 Q26.445 -31.196 26.445 -32.735 Q26.445 -34.275 26.445 -35.24 Q26.445 -36.043 26.445 -37.568 Q26.445 -39.094 26.606 -40.067 L14.029 -49.259 Q11.449 -51.194 10.804 -54.016 Q10.159 -56.837 11.933 -59.417 L23.12 -79.604 Q24.51 -81.831 27.332 -82.879 Q30.154 -83.927 32.895 -82.799 L46.924 -76.349 Q48.519 -77.55 51.268 -79.127 Q54.019 -80.702 56.115 -81.347 L58.695 -96.666 Q59.179 -99.569 61.259 -101.423 Q63.341 -103.277 66.274 -103.277 H88.915 Q91.429 -103.277 93.53 -101.433 Q95.633 -99.59 96.428 -96.666 L98.685 -81.509 Q101.073 -80.856 103.748 -79.246 Q106.425 -77.639 108.199 -76.349 L122.066 -82.799 Q124.853 -83.927 127.594 -82.879 Q130.335 -81.831 131.691 -79.6 L143.079 -59.392 Q144.48 -56.837 143.835 -54.016 Q143.19 -51.194 140.771 -49.259 L131.58 -40.551 Q131.58 -40.551 131.58 -40.551 Q131.58 -40.551 131.58 -40.551 Q128.678 -38.455 125.752 -37.246 Q122.829 -36.036 119.717 -35.552 H97.568 Q97.568 -35.552 97.568 -35.552 Q97.568 -35.552 97.568 -35.552 Q97.406 -43.712 91.467 -49.71 Q85.53 -55.709 77.239 -55.709 Q68.557 -55.709 62.659 -49.734 Q56.76 -43.762 56.76 -35.249 Q56.76 -28.625 60.638 -23.189 Q64.516 -17.752 70.466 -15.925 V27.819 Q70.466 30.105 69.596 31.381 Q68.726 32.656 65.759 32.656 Z"/></g><g id="Semibold-L" transform="matrix(1 0 0 1 1970.27 1556)"><path d="M97.353 32.306 Q91.914 32.306 87.881 28.301 Q83.85 24.295 83.85 18.894 V-8.919 Q83.85 -14.224 87.881 -18.278 Q91.914 -22.33 97.353 -22.33 H138.619 Q143.925 -22.33 147.978 -18.278 Q152.031 -14.224 152.031 -8.919 V18.894 Q152.031 24.295 147.978 28.301 Q143.925 32.306 138.619 32.306 H97.353 Z M97.353 18.894 H138.619 Q138.619 18.894 138.619 18.894 Q138.619 18.894 138.619 18.894 V-8.919 Q138.619 -8.919 138.619 -8.919 Q138.619 -8.919 138.619 -8.919 H97.353 Q97.353 -8.919 97.353 -8.919 Q97.353 -8.919 97.353 -8.919 V18.894 Q97.353 18.894 97.353 18.894 Q97.353 18.894 97.353 18.894 Z M65.858 32.306 Q63.249 32.306 61.346 30.568 Q59.443 28.831 59.003 26.114 L56.676 11.07 Q54.278 10.284 51.395 8.601 Q48.51 6.918 46.461 5.328 L32.495 11.757 Q29.976 12.998 27.284 12.147 Q24.592 11.294 23.339 8.812 L12.142 -11.392 Q10.831 -13.51 11.281 -16.098 Q11.729 -18.684 14.098 -20.479 L26.956 -30.043 Q26.795 -30.983 26.761 -32.631 Q26.726 -34.279 26.726 -35.38 Q26.726 -36.32 26.761 -37.918 Q26.795 -39.518 26.956 -40.629 L14.098 -50.03 Q11.799 -51.755 11.225 -54.296 Q10.649 -56.837 12.213 -59.208 L23.444 -79.451 Q24.72 -81.551 27.296 -82.459 Q29.873 -83.366 32.405 -82.378 L46.503 -75.859 Q48.386 -77.308 51.342 -79.006 Q54.299 -80.702 56.676 -81.488 L59.256 -97.016 Q59.669 -99.569 61.617 -101.247 Q63.563 -102.928 66.204 -102.928 H88.886 Q91.219 -102.928 93.178 -101.254 Q95.138 -99.58 95.797 -97.016 L98.124 -81.578 Q100.665 -80.79 103.616 -79.074 Q106.565 -77.358 108.479 -75.859 L122.556 -82.378 Q125.114 -83.437 127.589 -82.494 Q130.064 -81.551 131.362 -79.448 L142.776 -59.193 Q144.059 -56.837 143.45 -54.296 Q142.84 -51.755 140.702 -50.03 L130.317 -40.342 Q130.317 -40.342 130.317 -40.342 Q130.317 -40.342 130.317 -40.342 Q127.626 -38.315 124.851 -37.176 Q122.076 -36.036 119.125 -35.552 H98.688 Q98.688 -35.552 98.688 -35.552 Q98.688 -35.552 98.688 -35.552 Q98.598 -44.342 92.33 -50.657 Q86.061 -56.971 77.239 -56.971 Q68.125 -56.971 61.847 -50.65 Q55.568 -44.329 55.568 -35.311 Q55.568 -28.275 59.622 -22.664 Q63.676 -17.051 69.976 -14.995 V28.028 Q69.976 30.021 69.099 31.165 Q68.22 32.306 65.858 32.306 Z"/></g><g id="Medium-L" transform="matrix(1 0 0 1 1674.31 1556)"><path d="M96.353 32.044 Q91.38 32.044 87.615 28.29 Q83.85 24.536 83.85 19.577 V-9.865 Q83.85 -14.782 87.615 -18.557 Q91.38 -22.33 96.353 -22.33 H139.302 Q144.22 -22.33 147.994 -18.557 Q151.769 -14.782 151.769 -9.865 V19.577 Q151.769 24.536 147.994 28.29 Q144.22 32.044 139.302 32.044 H96.353 Z M96.353 19.577 H139.302 Q139.302 19.577 139.302 19.577 Q139.302 19.577 139.302 19.577 V-9.865 Q139.302 -9.865 139.302 -9.865 Q139.302 -9.865 139.302 -9.865 H96.353 Q96.353 -9.865 96.353 -9.865 Q96.353 -9.865 96.353 -9.865 V19.577 Q96.353 19.577 96.353 19.577 Q96.353 19.577 96.353 19.577 Z M65.93 32.044 Q63.4 32.044 61.638 30.386 Q59.874 28.73 59.477 26.168 L57.097 10.965 Q54.594 10.075 51.581 8.343 Q48.567 6.611 46.356 4.907 L32.074 11.441 Q29.707 12.524 27.219 11.745 Q24.731 10.967 23.549 8.707 L12.3 -11.655 Q11.094 -13.668 11.516 -16.019 Q11.939 -18.368 14.151 -20.058 L27.219 -29.78 Q27.058 -30.823 26.996 -32.552 Q26.935 -34.28 26.935 -35.485 Q26.935 -36.528 26.996 -38.181 Q27.058 -39.835 27.219 -41.05 L14.151 -50.608 Q12.062 -52.176 11.541 -54.506 Q11.018 -56.837 12.423 -59.05 L23.686 -79.335 Q24.878 -81.341 27.271 -82.142 Q29.664 -82.945 32.036 -82.062 L46.187 -75.489 Q48.286 -77.128 51.398 -78.914 Q54.509 -80.702 57.097 -81.593 L59.677 -97.279 Q60.038 -99.569 61.885 -101.117 Q63.732 -102.665 66.151 -102.665 H88.865 Q91.061 -102.665 92.912 -101.118 Q94.765 -99.574 95.323 -97.279 L97.703 -81.631 Q100.36 -80.74 103.516 -78.943 Q106.67 -77.149 108.689 -75.489 L122.926 -82.062 Q125.309 -83.068 127.586 -82.205 Q129.863 -81.341 131.116 -79.335 L142.55 -59.043 Q143.743 -56.837 143.161 -54.506 Q142.577 -52.176 140.649 -50.608 L129.371 -40.184 Q129.371 -40.184 129.371 -40.184 Q129.371 -40.184 129.371 -40.184 Q126.838 -38.21 124.175 -37.123 Q121.513 -36.036 118.682 -35.552 H99.53 Q99.53 -35.552 99.53 -35.552 Q99.53 -35.552 99.53 -35.552 Q99.491 -44.816 92.975 -51.366 Q86.461 -57.918 77.239 -57.918 Q67.801 -57.918 61.238 -51.336 Q54.675 -44.755 54.675 -35.357 Q54.675 -28.012 58.859 -22.269 Q63.044 -16.525 69.607 -14.297 V28.186 Q69.607 29.96 68.725 31.002 Q67.841 32.044 65.93 32.044 Z"/></g><g id="Regular-L" transform="matrix(1 0 0 1 1378.56 1556)"><path d="M95.621 31.85 Q90.99 31.85 87.42 28.28 Q83.85 24.71 83.85 20.079 V-10.559 Q83.85 -15.191 87.42 -18.76 Q90.99 -22.33 95.621 -22.33 H139.804 Q144.435 -22.33 148.005 -18.76 Q151.575 -15.191 151.575 -10.559 V20.079 Q151.575 24.71 148.005 28.28 Q144.435 31.85 139.804 31.85 H95.621 Z M95.621 20.079 H139.804 Q139.804 20.079 139.804 20.079 Q139.804 20.079 139.804 20.079 V-10.559 Q139.804 -10.559 139.804 -10.559 Q139.804 -10.559 139.804 -10.559 H95.621 Q95.621 -10.559 95.621 -10.559 Q95.621 -10.559 95.621 -10.559 V20.079 Q95.621 20.079 95.621 20.079 Q95.621 20.079 95.621 20.079 Z M65.985 31.85 Q63.51 31.85 61.851 30.252 Q60.191 28.654 59.824 26.206 L57.405 10.888 Q54.825 9.92 51.716 8.154 Q48.607 6.387 46.279 4.599 L31.766 11.21 Q29.509 12.178 27.171 11.452 Q24.832 10.726 23.704 8.63 L12.416 -11.849 Q11.287 -13.784 11.691 -15.961 Q12.094 -18.137 14.19 -19.75 L27.413 -29.586 Q27.251 -30.705 27.171 -32.494 Q27.09 -34.282 27.09 -35.562 Q27.09 -36.681 27.171 -38.374 Q27.251 -40.067 27.413 -41.357 L14.19 -51.032 Q12.255 -52.484 11.771 -54.661 Q11.287 -56.837 12.578 -58.934 L23.865 -79.251 Q24.994 -81.186 27.251 -81.912 Q29.509 -82.637 31.766 -81.831 L45.956 -75.22 Q48.214 -76.994 51.439 -78.848 Q54.664 -80.702 57.405 -81.67 L59.985 -97.472 Q60.308 -99.569 62.081 -101.02 Q63.855 -102.471 66.112 -102.471 H88.849 Q90.945 -102.471 92.719 -101.02 Q94.493 -99.569 94.976 -97.472 L97.395 -81.67 Q100.136 -80.702 103.442 -78.848 Q106.748 -76.994 108.844 -75.22 L123.195 -81.831 Q125.453 -82.799 127.584 -81.992 Q129.714 -81.186 130.935 -79.251 L142.384 -58.934 Q143.513 -56.837 142.948 -54.661 Q142.384 -52.484 140.61 -51.032 L128.678 -40.067 Q128.678 -40.067 128.678 -40.067 Q128.678 -40.067 128.678 -40.067 Q126.259 -38.132 123.679 -37.084 Q121.099 -36.036 118.358 -35.552 H100.148 Q100.148 -35.552 100.148 -35.552 Q100.148 -35.552 100.148 -35.552 Q100.148 -45.163 93.449 -51.887 Q86.752 -58.611 77.239 -58.611 Q67.564 -58.611 60.791 -51.839 Q54.019 -45.066 54.019 -35.39 Q54.019 -27.819 58.3 -21.98 Q62.581 -16.14 69.338 -13.784 V28.303 Q69.338 29.915 68.451 30.883 Q67.564 31.85 65.985 31.85 Z"/></g><g id="Light-L" transform="matrix(1 0 0 1 1082.77 1556)"><path d="M95.249 28.625 Q90.679 28.625 87.265 25.21 Q83.85 21.796 83.85 17.226 V-10.931 Q83.85 -15.501 87.265 -18.915 Q90.679 -22.33 95.249 -22.33 H136.951 Q141.521 -22.33 144.935 -18.915 Q148.35 -15.501 148.35 -10.931 V17.226 Q148.35 21.796 144.935 25.21 Q141.521 28.625 136.951 28.625 H95.249 Z M95.249 19.21 H136.951 Q137.819 19.21 138.377 18.652 Q138.935 18.094 138.935 17.226 V-10.931 Q138.935 -11.799 138.377 -12.357 Q137.819 -12.916 136.951 -12.916 H95.249 Q94.381 -12.916 93.823 -12.357 Q93.264 -11.799 93.264 -10.931 V17.226 Q93.264 18.094 93.823 18.652 Q94.381 19.21 95.249 19.21 Z M66.667 28.625 Q64.813 28.625 63.557 27.367 Q62.299 26.111 61.994 24.221 L59.762 8.593 Q56.934 7.625 53.391 5.642 Q49.847 3.659 47.333 1.559 L32.697 8.17 Q30.936 8.89 29.093 8.351 Q27.251 7.811 26.432 6.148 L15.89 -12.779 Q15.07 -14.28 15.319 -15.93 Q15.567 -17.58 17.291 -18.881 L30.452 -28.717 Q30.291 -30.085 30.147 -32.028 Q30.005 -33.971 30.005 -35.499 Q30.005 -36.805 30.147 -38.653 Q30.291 -40.501 30.452 -42.227 L17.291 -51.902 Q15.728 -53.042 15.43 -54.722 Q15.133 -56.404 16.112 -58.065 L26.593 -76.645 Q27.413 -78.085 29.173 -78.656 Q30.936 -79.225 32.697 -78.668 L46.948 -72.18 Q49.578 -74.265 53.114 -76.305 Q56.649 -78.345 59.7 -79.375 L62.218 -95.363 Q62.541 -96.963 63.911 -98.105 Q65.282 -99.246 67.043 -99.246 H87.857 Q89.457 -99.246 90.858 -98.105 Q92.259 -96.963 92.743 -95.363 L95.038 -79.313 Q98.275 -78.16 101.675 -76.212 Q105.072 -74.265 107.604 -72.18 L122.389 -78.668 Q124.088 -79.387 125.754 -78.737 Q127.42 -78.085 128.329 -76.645 L138.91 -58.003 Q139.73 -56.341 139.32 -54.661 Q138.91 -52.98 137.509 -51.902 L125.762 -41.619 Q125.825 -41.308 125.886 -41.059 Q125.949 -40.812 126.01 -40.501 Q124.398 -38.442 122.097 -37.146 Q119.796 -35.851 117.179 -35.491 L97.169 -35.552 Q97.169 -35.552 97.169 -35.552 Q97.169 -35.552 97.169 -35.552 Q97.169 -43.984 91.248 -49.902 Q85.325 -55.82 76.99 -55.82 Q68.555 -55.82 62.589 -49.884 Q56.625 -43.95 56.625 -35.453 Q56.625 -28.936 60.222 -23.872 Q63.821 -18.807 69.523 -16.699 V25.635 Q69.523 27.062 68.73 27.843 Q67.936 28.625 66.667 28.625 Z"/></g><g id="Thin-L" transform="matrix(1 0 0 1 787.282 1556)"><path d="M94.876 25.4 Q90.369 25.4 87.109 22.141 Q83.85 18.881 83.85 14.374 V-11.304 Q83.85 -15.811 87.109 -19.071 Q90.369 -22.33 94.876 -22.33 H134.099 Q138.606 -22.33 141.866 -19.071 Q145.125 -15.811 145.125 -11.304 V14.374 Q145.125 18.881 141.866 22.141 Q138.606 25.4 134.099 25.4 H94.876 Z M94.876 18.342 H134.099 Q135.834 18.342 136.951 17.226 Q138.067 16.109 138.067 14.374 V-11.304 Q138.067 -13.039 136.951 -14.156 Q135.834 -15.272 134.099 -15.272 H94.876 Q93.141 -15.272 92.024 -14.156 Q90.908 -13.039 90.908 -11.304 V14.374 Q90.908 16.109 92.024 17.226 Q93.141 18.342 94.876 18.342 Z M67.349 25.4 Q66.116 25.4 65.261 24.484 Q64.408 23.568 64.165 22.236 L62.118 6.298 Q59.042 5.331 55.065 3.13 Q51.089 0.929 48.388 -1.479 L33.627 5.132 Q32.361 5.603 31.016 5.25 Q29.67 4.897 29.162 3.668 L19.363 -13.71 Q18.853 -14.775 18.947 -15.899 Q19.04 -17.022 20.392 -18.013 L33.49 -27.85 Q33.329 -29.465 33.124 -31.563 Q32.919 -33.661 32.919 -35.438 Q32.919 -36.93 33.124 -38.932 Q33.329 -40.935 33.49 -43.094 L20.392 -52.769 Q19.202 -53.6 19.089 -54.785 Q18.978 -55.97 19.648 -57.197 L29.323 -74.041 Q29.831 -74.985 31.097 -75.401 Q32.361 -75.815 33.627 -75.505 L47.941 -69.142 Q50.942 -71.535 54.788 -73.762 Q58.634 -75.989 61.994 -77.081 L64.45 -93.256 Q64.773 -94.359 65.74 -95.191 Q66.708 -96.021 67.973 -96.021 H86.864 Q87.968 -96.021 88.997 -95.191 Q90.027 -94.359 90.511 -93.256 L92.682 -76.957 Q96.415 -75.617 99.907 -73.577 Q103.398 -71.535 106.364 -69.142 L121.583 -75.505 Q122.724 -75.976 123.924 -75.481 Q125.125 -74.985 125.725 -74.041 L135.437 -57.073 Q135.947 -55.846 135.692 -54.661 Q135.437 -53.475 134.408 -52.769 L122.848 -43.168 Q122.972 -42.548 123.095 -42.052 Q123.219 -41.556 123.343 -40.935 Q122.537 -38.753 120.515 -37.209 Q118.495 -35.664 116 -35.428 L94.193 -35.552 Q94.193 -35.552 94.193 -35.552 Q94.193 -35.552 94.193 -35.552 Q94.193 -42.806 89.047 -47.917 Q83.9 -53.029 76.742 -53.029 Q69.549 -53.029 64.389 -47.932 Q59.229 -42.833 59.229 -35.514 Q59.229 -30.052 62.146 -25.763 Q65.063 -21.474 69.71 -19.613 V22.968 Q69.71 24.21 69.009 24.805 Q68.309 25.4 67.349 25.4 Z"/></g><g id="Ultralight-L" transform="matrix(1 0 0 1 491.205 1556)"><path d="M94.654 23.465 Q90.184 23.465 87.017 20.298 Q83.85 17.133 83.85 12.661 V-11.526 Q83.85 -15.998 87.017 -19.163 Q90.184 -22.33 94.654 -22.33 H132.386 Q136.856 -22.33 140.023 -19.163 Q143.19 -15.998 143.19 -11.526 V12.661 Q143.19 17.133 140.023 20.298 Q136.856 23.465 132.386 23.465 H94.654 Z M94.654 17.821 H132.386 Q134.644 17.821 136.095 16.37 Q137.546 14.919 137.546 12.661 V-11.526 Q137.546 -13.784 136.095 -15.235 Q134.644 -16.686 132.386 -16.686 H94.654 Q92.396 -16.686 90.945 -15.235 Q89.494 -13.784 89.494 -11.526 V12.661 Q89.494 14.919 90.945 16.37 Q92.396 17.821 94.654 17.821 Z M67.759 23.465 Q66.896 23.465 66.285 22.754 Q65.674 22.043 65.468 21.046 L63.532 4.921 Q60.308 3.954 56.07 1.624 Q51.832 -0.708 49.02 -3.302 L34.185 3.309 Q33.218 3.631 32.169 3.389 Q31.121 3.148 30.799 2.18 L21.446 -14.267 Q21.124 -15.074 21.124 -15.88 Q21.124 -16.686 22.253 -17.492 L35.314 -27.329 Q35.153 -29.093 34.911 -31.284 Q34.669 -33.476 34.669 -35.401 Q34.669 -37.004 34.911 -39.1 Q35.153 -41.196 35.314 -43.615 L22.253 -53.29 Q21.285 -53.935 21.285 -54.822 Q21.285 -55.709 21.769 -56.676 L30.96 -72.479 Q31.283 -73.124 32.25 -73.446 Q33.218 -73.769 34.185 -73.607 L48.536 -67.319 Q51.761 -69.899 55.793 -72.237 Q59.824 -74.575 63.371 -75.704 L65.79 -91.99 Q66.112 -92.796 66.838 -93.441 Q67.564 -94.086 68.531 -94.086 H86.269 Q87.075 -94.086 87.881 -93.441 Q88.688 -92.796 89.171 -91.99 L91.267 -75.542 Q95.299 -74.091 98.846 -71.995 Q102.394 -69.899 105.619 -67.319 L121.099 -73.607 Q121.905 -73.93 122.827 -73.527 Q123.748 -73.124 124.163 -72.479 L133.354 -56.515 Q133.676 -55.547 133.515 -54.661 Q133.354 -53.774 132.548 -53.29 L121.099 -44.099 Q121.26 -43.292 121.421 -42.647 Q121.583 -42.002 121.744 -41.196 Q121.421 -38.939 119.567 -37.246 Q117.713 -35.552 115.294 -35.391 L92.408 -35.552 Q92.408 -35.552 92.408 -35.552 Q92.408 -35.552 92.408 -35.552 Q92.408 -42.099 87.725 -46.727 Q83.044 -51.355 76.594 -51.355 Q70.144 -51.355 65.468 -46.759 Q60.791 -42.164 60.791 -35.551 Q60.791 -30.721 63.299 -26.898 Q65.806 -23.073 69.821 -21.362 V21.369 Q69.821 22.498 69.176 22.981 Q68.531 23.465 67.759 23.465 Z"/></g><g id="Bold-M" transform="matrix(1 0 0 1 2281.8 1126)"><path d="M82 20.52 Q74.86 20.52 69.93 15.59 Q65 10.66 65 3.52 V-8.23 Q65 -15.371 69.93 -20.3 Q74.86 -25.23 82 -25.23 H104.875 Q112.016 -25.23 116.945 -20.3 Q121.875 -15.371 121.875 -8.23 V3.52 Q121.875 10.66 116.945 15.59 Q112.016 20.52 104.875 20.52 H82 Z M82 3.52 H104.875 Q104.875 3.52 104.875 3.52 Q104.875 3.52 104.875 3.52 V-8.23 Q104.875 -8.23 104.875 -8.23 Q104.875 -8.23 104.875 -8.23 H82 Q82 -8.23 82 -8.23 Q82 -8.23 82 -8.23 V3.52 Q82 3.52 82 3.52 Q82 3.52 82 3.52 Z M48.401 20.52 Q45.375 20.52 43.134 18.638 Q40.892 16.754 40.5 13.77 L39.125 2.895 Q38.75 2.645 38.336 2.389 Q37.922 2.134 37.5 1.895 L29.375 5.27 Q25.75 6.895 22 5.645 Q18.25 4.395 16.375 0.895 L7 -15.855 Q5.125 -19.23 5.812 -23.042 Q6.5 -26.855 9.625 -29.23 L16.375 -34.355 Q16.375 -34.597 16.438 -34.859 Q16.5 -35.12 16.5 -35.362 Q16.5 -35.605 16.438 -35.792 Q16.375 -35.98 16.375 -36.23 L9.75 -41.23 Q6.5 -43.605 5.75 -47.417 Q5 -51.23 7 -54.73 L16.375 -71.23 Q18.375 -74.605 22 -75.855 Q25.625 -77.105 29.25 -75.605 L37.5 -72.355 Q37.986 -72.536 38.43 -72.759 Q38.875 -72.98 39.25 -73.23 L40.375 -81.98 Q41 -85.98 43.875 -88.542 Q46.75 -91.105 50.625 -91.105 H69.375 Q73.25 -91.105 76.125 -88.542 Q79 -85.98 79.625 -81.98 L80.75 -73.23 Q81.25 -72.98 81.75 -72.73 Q82.25 -72.48 82.75 -72.23 L90.625 -75.605 Q94.285 -77.23 97.972 -75.917 Q101.66 -74.605 103.625 -71.23 L113 -54.73 Q115 -51.23 114.25 -47.417 Q113.5 -43.605 110.25 -41.23 L106.875 -38.855 Q106.875 -38.855 106.875 -38.855 Q106.875 -38.855 106.875 -38.855 Q104.625 -37.23 102.062 -36.355 Q99.5 -35.48 96.804 -35.48 H78.634 Q78.634 -35.48 78.634 -35.48 Q78.634 -35.48 78.634 -35.48 Q78.509 -43.18 73.093 -48.705 Q67.677 -54.23 59.75 -54.23 Q51.895 -54.23 46.385 -48.724 Q40.875 -43.219 40.875 -35.37 Q40.875 -28.985 44.631 -23.959 Q48.388 -18.931 54.25 -17.23 V14.395 Q54.25 17.043 52.95 18.781 Q51.651 20.52 48.401 20.52 Z"/></g><g id="Semibold-M" transform="matrix(1 0 0 1 1985.97 1126)"><path d="M80.37 19.759 Q73.957 19.759 69.479 15.28 Q65 10.803 65 4.39 V-9.86 Q65 -16.272 69.479 -20.751 Q73.957 -25.23 80.37 -25.23 H105.69 Q112.103 -25.23 116.581 -20.751 Q121.06 -16.272 121.06 -9.86 V4.39 Q121.06 10.803 116.581 15.28 Q112.103 19.759 105.69 19.759 H80.37 Z M80.37 4.39 H105.69 Q105.69 4.39 105.69 4.39 Q105.69 4.39 105.69 4.39 V-9.86 Q105.69 -9.86 105.69 -9.86 Q105.69 -9.86 105.69 -9.86 H80.37 Q80.37 -9.86 80.37 -9.86 Q80.37 -9.86 80.37 -9.86 V4.39 Q80.37 4.39 80.37 4.39 Q80.37 4.39 80.37 4.39 Z M48.672 19.759 Q45.91 19.759 43.84 18.02 Q41.77 16.281 41.424 13.553 L39.995 2.46 Q39.403 2.101 38.745 1.715 Q38.089 1.329 37.446 0.916 L28.995 4.4 Q25.587 5.863 22.109 4.694 Q18.63 3.525 16.864 0.298 L7.706 -16.126 Q5.94 -19.284 6.6 -22.825 Q7.261 -26.366 10.169 -28.577 L17.136 -33.866 Q17.136 -34.271 17.171 -34.669 Q17.206 -35.065 17.206 -35.471 Q17.206 -35.876 17.171 -36.172 Q17.136 -36.469 17.136 -36.882 L10.294 -42.045 Q7.315 -44.257 6.62 -47.797 Q5.924 -51.339 7.761 -54.567 L16.919 -70.686 Q18.755 -73.844 22.136 -75.012 Q25.516 -76.181 28.924 -74.79 L37.229 -71.485 Q37.938 -71.86 38.705 -72.257 Q39.472 -72.654 40.12 -73.067 L41.245 -81.926 Q41.761 -85.6 44.5 -87.999 Q47.239 -90.399 50.843 -90.399 H69.157 Q72.761 -90.399 75.5 -87.999 Q78.239 -85.6 78.755 -81.926 L79.88 -73.012 Q80.597 -72.6 81.396 -72.186 Q82.196 -71.774 82.912 -71.36 L90.951 -74.79 Q94.379 -76.306 97.806 -75.075 Q101.233 -73.844 103.081 -70.686 L112.239 -54.567 Q114.076 -51.339 113.38 -47.797 Q112.685 -44.257 109.706 -42.045 L104.972 -38.584 Q104.972 -38.584 104.972 -38.584 Q104.972 -38.584 104.972 -38.584 Q102.94 -37.067 100.595 -36.274 Q98.25 -35.48 95.802 -35.48 H79.558 Q79.558 -35.48 79.558 -35.48 Q79.558 -35.48 79.558 -35.48 Q79.486 -43.615 73.787 -49.411 Q68.089 -55.209 59.804 -55.209 Q51.56 -55.209 45.782 -49.434 Q40.005 -43.659 40.005 -35.417 Q40.005 -28.714 43.898 -23.551 Q47.79 -18.387 53.87 -16.524 V14.286 Q53.87 16.653 52.591 18.205 Q51.314 19.759 48.672 19.759 Z"/></g><g id="Medium-M" transform="matrix(1 0 0 1 1689.91 1126)"><path d="M79.146 19.189 Q73.28 19.189 69.14 15.049 Q65 10.908 65 5.041 V-11.084 Q65 -16.95 69.14 -21.09 Q73.28 -25.23 79.146 -25.23 H106.301 Q112.168 -25.23 116.308 -21.09 Q120.449 -16.95 120.449 -11.084 V5.041 Q120.449 10.908 116.308 15.049 Q112.168 19.189 106.301 19.189 H79.146 Z M79.146 5.041 H106.301 Q106.301 5.041 106.301 5.041 Q106.301 5.041 106.301 5.041 V-11.084 Q106.301 -11.084 106.301 -11.084 Q106.301 -11.084 106.301 -11.084 H79.146 Q79.146 -11.084 79.146 -11.084 Q79.146 -11.084 79.146 -11.084 V5.041 Q79.146 5.041 79.146 5.041 Q79.146 5.041 79.146 5.041 Z M48.876 19.189 Q46.312 19.189 44.37 17.558 Q42.428 15.928 42.116 13.39 L40.646 2.134 Q39.891 1.694 39.053 1.209 Q38.214 0.724 37.405 0.183 L28.709 3.749 Q25.465 5.088 22.19 3.98 Q18.916 2.874 17.231 -0.151 L8.236 -16.33 Q6.551 -19.325 7.191 -22.662 Q7.831 -25.999 10.576 -28.089 L17.706 -33.499 Q17.706 -34.027 17.721 -34.526 Q17.736 -35.025 17.736 -35.552 Q17.736 -36.08 17.721 -36.459 Q17.706 -36.836 17.706 -37.371 L10.701 -42.656 Q7.926 -44.746 7.271 -48.084 Q6.616 -51.42 8.331 -54.445 L17.326 -70.279 Q19.041 -73.274 22.238 -74.381 Q25.435 -75.489 28.679 -74.179 L37.025 -70.834 Q37.901 -71.352 38.911 -71.881 Q39.921 -72.409 40.771 -72.945 L41.896 -81.885 Q42.331 -85.314 44.969 -87.591 Q47.606 -89.869 51.005 -89.869 H68.995 Q72.394 -89.869 75.031 -87.591 Q77.669 -85.314 78.104 -81.885 L79.229 -72.85 Q80.109 -72.314 81.131 -71.779 Q82.155 -71.244 83.035 -70.709 L91.196 -74.179 Q94.449 -75.614 97.681 -74.444 Q100.914 -73.274 102.674 -70.279 L111.669 -54.445 Q113.384 -51.42 112.729 -48.084 Q112.074 -44.746 109.299 -42.656 L103.546 -38.38 Q103.546 -38.38 103.546 -38.38 Q103.546 -38.38 103.546 -38.38 Q101.676 -36.945 99.495 -36.212 Q97.312 -35.48 95.051 -35.48 H80.25 Q80.25 -35.48 80.25 -35.48 Q80.25 -35.48 80.25 -35.48 Q80.22 -43.941 74.31 -49.941 Q68.399 -55.942 59.845 -55.942 Q51.309 -55.942 45.331 -49.965 Q39.354 -43.989 39.354 -35.454 Q39.354 -28.51 43.347 -23.245 Q47.341 -17.98 53.584 -15.994 V14.205 Q53.584 16.36 52.322 17.774 Q51.06 19.189 48.876 19.189 Z"/></g><g id="Regular-M" transform="matrix(1 0 0 1 1394.06 1126)"><path d="M78.25 18.77 Q72.785 18.77 68.892 14.878 Q65 10.985 65 5.52 V-11.98 Q65 -17.446 68.892 -21.337 Q72.785 -25.23 78.25 -25.23 H106.75 Q112.215 -25.23 116.108 -21.337 Q120 -17.446 120 -11.98 V5.52 Q120 10.985 116.108 14.878 Q112.215 18.77 106.75 18.77 H78.25 Z M78.25 5.52 H106.75 Q106.75 5.52 106.75 5.52 Q106.75 5.52 106.75 5.52 V-11.98 Q106.75 -11.98 106.75 -11.98 Q106.75 -11.98 106.75 -11.98 H78.25 Q78.25 -11.98 78.25 -11.98 Q78.25 -11.98 78.25 -11.98 V5.52 Q78.25 5.52 78.25 5.52 Q78.25 5.52 78.25 5.52 Z M49.026 18.77 Q46.608 18.77 44.759 17.219 Q42.91 15.668 42.625 13.27 L41.125 1.895 Q40.25 1.395 39.278 0.839 Q38.305 0.281 37.375 -0.355 L28.5 3.27 Q25.375 4.52 22.25 3.458 Q19.125 2.395 17.5 -0.48 L8.625 -16.48 Q7 -19.355 7.625 -22.542 Q8.25 -25.73 10.875 -27.73 L18.125 -33.23 Q18.125 -33.847 18.125 -34.421 Q18.125 -34.995 18.125 -35.612 Q18.125 -36.23 18.125 -36.667 Q18.125 -37.105 18.125 -37.73 L11 -43.105 Q8.375 -45.105 7.75 -48.292 Q7.125 -51.48 8.75 -54.355 L17.625 -69.98 Q19.25 -72.855 22.312 -73.917 Q25.375 -74.98 28.5 -73.73 L36.875 -70.355 Q37.875 -70.98 39.062 -71.605 Q40.25 -72.23 41.25 -72.855 L42.375 -81.855 Q42.75 -85.105 45.312 -87.292 Q47.875 -89.48 51.125 -89.48 H68.875 Q72.125 -89.48 74.688 -87.292 Q77.25 -85.105 77.625 -81.855 L78.75 -72.73 Q79.75 -72.105 80.938 -71.48 Q82.125 -70.855 83.125 -70.23 L91.375 -73.73 Q94.5 -75.105 97.59 -73.98 Q100.679 -72.855 102.375 -69.98 L111.25 -54.355 Q112.875 -51.48 112.25 -48.292 Q111.625 -45.105 109 -43.105 L102.5 -38.23 Q102.5 -38.23 102.5 -38.23 Q102.5 -38.23 102.5 -38.23 Q100.75 -36.855 98.688 -36.167 Q96.625 -35.48 94.5 -35.48 H80.759 Q80.759 -35.48 80.759 -35.48 Q80.759 -35.48 80.759 -35.48 Q80.759 -44.18 74.691 -50.33 Q68.625 -56.48 59.875 -56.48 Q51.125 -56.48 45 -50.355 Q38.875 -44.23 38.875 -35.479 Q38.875 -28.36 42.944 -23.021 Q47.013 -17.681 53.375 -15.605 V14.145 Q53.375 16.145 52.125 17.458 Q50.875 18.77 49.026 18.77 Z"/></g><g id="Light-M" transform="matrix(1 0 0 1 1098.18 1126)"><path d="M77.289 16.27 Q72.159 16.27 68.58 12.69 Q65 9.11 65 3.981 V-12.941 Q65 -18.071 68.58 -21.65 Q72.159 -25.23 77.289 -25.23 H105.211 Q110.34 -25.23 113.92 -21.65 Q117.5 -18.071 117.5 -12.941 V3.981 Q117.5 9.11 113.92 12.69 Q110.34 16.27 105.211 16.27 H77.289 Z M77.289 5.52 H105.211 Q105.885 5.52 106.317 5.088 Q106.75 4.655 106.75 3.981 V-12.941 Q106.75 -13.615 106.317 -14.047 Q105.885 -14.48 105.211 -14.48 H77.289 Q76.615 -14.48 76.183 -14.047 Q75.75 -13.615 75.75 -12.941 V3.981 Q75.75 4.655 76.183 5.088 Q76.615 5.52 77.289 5.52 Z M49.795 16.27 Q47.954 16.27 46.538 15.055 Q45.121 13.84 44.885 11.971 L43.432 0.164 Q42.174 -0.384 40.528 -1.277 Q38.883 -2.171 37.664 -3.191 L27.875 0.866 Q25.519 1.78 23.14 1.005 Q20.76 0.231 19.567 -1.97 L10.932 -17.49 Q9.74 -19.691 10.174 -22.061 Q10.606 -24.431 12.606 -25.951 L20.721 -32.076 Q20.674 -32.934 20.601 -33.82 Q20.529 -34.706 20.529 -35.564 Q20.529 -36.374 20.601 -37.1 Q20.674 -37.826 20.721 -38.884 L12.731 -44.884 Q10.731 -46.404 10.322 -48.797 Q9.914 -51.191 11.106 -53.394 L19.692 -68.394 Q20.885 -70.547 23.203 -71.345 Q25.519 -72.144 27.875 -71.23 L37.115 -67.47 Q38.549 -68.527 40.289 -69.465 Q42.029 -70.402 43.51 -71.124 L44.828 -81.23 Q45.154 -83.662 47.091 -85.321 Q49.029 -86.98 51.461 -86.98 H68.49 Q70.922 -86.98 72.885 -85.321 Q74.846 -83.662 75.172 -81.23 L76.442 -70.951 Q78.067 -70.134 79.639 -69.292 Q81.211 -68.451 82.692 -67.345 L92.144 -71.23 Q94.5 -72.269 96.82 -71.407 Q99.14 -70.547 100.404 -68.394 L108.99 -53.345 Q110.183 -51.144 109.726 -48.749 Q109.269 -46.355 107.269 -44.884 L100.385 -39.769 Q100.48 -39.529 100.505 -39.336 Q100.529 -39.144 100.576 -38.904 Q99.451 -37.336 97.51 -36.407 Q95.567 -35.48 93.49 -35.48 L77.97 -35.527 Q77.97 -35.527 77.97 -35.527 Q77.97 -35.527 77.97 -35.527 Q77.97 -43.17 72.649 -48.575 Q67.326 -53.98 59.635 -53.98 Q51.99 -53.98 46.586 -48.576 Q41.182 -43.172 41.182 -35.527 Q41.182 -29.466 44.579 -24.824 Q47.974 -20.181 53.375 -18.25 V12.559 Q53.375 14.174 52.318 15.221 Q51.26 16.27 49.795 16.27 Z"/></g><g id="Thin-M" transform="matrix(1 0 0 1 802.565 1126)"><path d="M76.328 13.77 Q71.535 13.77 68.267 10.503 Q65 7.236 65 2.443 V-13.902 Q65 -18.695 68.267 -21.962 Q71.535 -25.23 76.328 -25.23 H103.672 Q108.466 -25.23 111.733 -21.962 Q115 -18.695 115 -13.902 V2.443 Q115 7.236 111.733 10.503 Q108.466 13.77 103.672 13.77 H76.328 Z M76.328 5.52 H103.672 Q105.019 5.52 105.885 4.655 Q106.75 3.789 106.75 2.443 V-13.902 Q106.75 -15.249 105.885 -16.115 Q105.019 -16.98 103.672 -16.98 H76.328 Q74.981 -16.98 74.115 -16.115 Q73.25 -15.249 73.25 -13.902 V2.443 Q73.25 3.789 74.115 4.655 Q74.981 5.52 76.328 5.52 Z M50.564 13.77 Q49.3 13.77 48.316 12.891 Q47.333 12.014 47.144 10.674 L45.74 -1.566 Q44.096 -2.162 41.778 -3.392 Q39.459 -4.622 37.953 -6.027 L27.25 -1.537 Q25.664 -0.961 24.029 -1.446 Q22.394 -1.932 21.635 -3.461 L13.24 -18.499 Q12.481 -20.027 12.721 -21.581 Q12.961 -23.134 14.336 -24.172 L23.317 -30.922 Q23.221 -32.021 23.078 -33.219 Q22.933 -34.417 22.933 -35.516 Q22.933 -36.519 23.078 -37.532 Q23.221 -38.547 23.317 -40.037 L14.461 -46.662 Q13.086 -47.701 12.894 -49.302 Q12.703 -50.902 13.461 -52.432 L21.76 -66.807 Q22.519 -68.24 24.091 -68.774 Q25.664 -69.307 27.25 -68.73 L37.356 -64.586 Q39.221 -66.076 41.515 -67.326 Q43.807 -68.576 45.769 -69.394 L47.279 -80.605 Q47.557 -82.22 48.87 -83.35 Q50.182 -84.48 51.797 -84.48 H68.106 Q69.721 -84.48 71.081 -83.35 Q72.442 -82.22 72.721 -80.605 L74.135 -69.172 Q76.385 -68.162 78.341 -67.105 Q80.297 -66.047 82.26 -64.461 L92.914 -68.73 Q94.5 -69.432 96.051 -68.836 Q97.603 -68.24 98.433 -66.807 L106.731 -52.336 Q107.49 -50.807 107.203 -49.206 Q106.914 -47.605 105.539 -46.662 L98.269 -41.307 Q98.461 -40.826 98.51 -40.441 Q98.558 -40.057 98.654 -39.576 Q98.154 -37.816 96.331 -36.649 Q94.51 -35.48 92.481 -35.48 L75.181 -35.576 Q75.181 -35.576 75.181 -35.576 Q75.181 -35.576 75.181 -35.576 Q75.181 -42.161 70.605 -46.82 Q66.029 -51.48 59.394 -51.48 Q52.856 -51.48 48.172 -46.797 Q43.49 -42.115 43.49 -35.575 Q43.49 -30.571 46.212 -26.626 Q48.936 -22.681 53.375 -20.894 V10.973 Q53.375 12.203 52.51 12.986 Q51.644 13.77 50.564 13.77 Z"/></g><g id="Ultralight-M" transform="matrix(1 0 0 1 506.415 1126)"><path d="M75.75 12.27 Q71.16 12.27 68.08 9.19 Q65 6.111 65 1.52 V-14.48 Q65 -19.071 68.08 -22.15 Q71.16 -25.23 75.75 -25.23 H102.75 Q107.34 -25.23 110.42 -22.15 Q113.5 -19.071 113.5 -14.48 V1.52 Q113.5 6.111 110.42 9.19 Q107.34 12.27 102.75 12.27 H75.75 Z M75.75 5.52 H102.75 Q104.5 5.52 105.625 4.395 Q106.75 3.27 106.75 1.52 V-14.48 Q106.75 -16.23 105.625 -17.355 Q104.5 -18.48 102.75 -18.48 H75.75 Q74 -18.48 72.875 -17.355 Q71.75 -16.23 71.75 -14.48 V1.52 Q71.75 3.27 72.875 4.395 Q74 5.52 75.75 5.52 Z M51.026 12.27 Q50.108 12.27 49.384 11.594 Q48.66 10.918 48.5 9.895 L47.125 -2.605 Q45.25 -3.23 42.528 -4.661 Q39.805 -6.094 38.125 -7.73 L26.875 -2.98 Q25.75 -2.605 24.562 -2.917 Q23.375 -3.23 22.875 -4.355 L14.625 -19.105 Q14.125 -20.23 14.25 -21.292 Q14.375 -22.355 15.375 -23.105 L24.875 -30.23 Q24.75 -31.472 24.562 -32.859 Q24.375 -34.245 24.375 -35.487 Q24.375 -36.605 24.562 -37.792 Q24.75 -38.98 24.875 -40.73 L15.5 -47.73 Q14.5 -48.48 14.438 -49.605 Q14.375 -50.73 14.875 -51.855 L23 -65.855 Q23.5 -66.855 24.625 -67.23 Q25.75 -67.605 26.875 -67.23 L37.5 -62.855 Q39.625 -64.605 42.25 -66.042 Q44.875 -67.48 47.125 -68.355 L48.75 -80.23 Q49 -81.355 49.938 -82.167 Q50.875 -82.98 52 -82.98 H67.875 Q69 -82.98 70 -82.167 Q71 -81.355 71.25 -80.23 L72.75 -68.105 Q75.375 -66.98 77.562 -65.792 Q79.75 -64.605 82 -62.73 L93.375 -67.23 Q94.5 -67.73 95.59 -67.292 Q96.679 -66.855 97.25 -65.855 L105.375 -51.73 Q105.875 -50.605 105.688 -49.48 Q105.5 -48.355 104.5 -47.73 L97 -42.23 Q97.25 -41.605 97.312 -41.105 Q97.375 -40.605 97.5 -39.98 Q97.375 -38.105 95.625 -36.792 Q93.875 -35.48 91.875 -35.48 L73.509 -35.605 Q73.509 -35.605 73.509 -35.605 Q73.509 -35.605 73.509 -35.605 Q73.509 -41.555 69.379 -45.767 Q65.25 -49.98 59.25 -49.98 Q53.375 -49.98 49.125 -45.73 Q44.875 -41.48 44.875 -35.604 Q44.875 -31.235 47.194 -27.709 Q49.513 -24.181 53.375 -22.48 V10.02 Q53.375 11.02 52.625 11.645 Q51.875 12.27 51.026 12.27 Z"/></g><g id="Bold-S" transform="matrix(1 0 0 1 2294.23 696)"><path d="M64.698 7.179 Q59.065 7.179 55.569 3.683 Q52.074 0.188 52.074 -5.445 V-13.138 Q52.074 -18.772 55.569 -22.267 Q59.065 -25.762 64.698 -25.762 H82.746 Q88.381 -25.762 91.875 -22.267 Q95.37 -18.772 95.37 -13.138 V-5.445 Q95.37 0.188 91.875 3.683 Q88.381 7.179 82.746 7.179 H64.698 Z M64.698 -5.445 H82.746 Q82.746 -5.445 82.746 -5.445 Q82.746 -5.445 82.746 -5.445 V-13.138 Q82.746 -13.138 82.746 -13.138 Q82.746 -13.138 82.746 -13.138 H64.698 Q64.698 -13.138 64.698 -13.138 Q64.698 -13.138 64.698 -13.138 V-5.445 Q64.698 -5.445 64.698 -5.445 Q64.698 -5.445 64.698 -5.445 Z M40.457 7.179 Q38.365 7.179 36.794 5.94 Q35.223 4.7 34.913 2.642 L33.532 -5.347 Q32.25 -5.938 30.938 -6.634 Q29.625 -7.328 28.503 -8.305 L20.81 -5.642 Q18.936 -4.952 16.914 -5.593 Q14.892 -6.234 14.005 -8.108 L7.298 -20.14 Q6.411 -21.916 6.657 -23.839 Q6.904 -25.762 8.482 -27.143 L14.399 -32.37 Q14.301 -33.054 14.251 -33.803 Q14.202 -34.551 14.202 -35.335 Q14.202 -36.118 14.251 -36.808 Q14.301 -37.498 14.399 -38.189 L8.58 -43.317 Q6.904 -44.698 6.608 -46.621 Q6.312 -48.544 7.298 -50.418 L14.005 -62.253 Q14.991 -64.028 16.914 -64.67 Q18.837 -65.311 20.711 -64.719 L28.503 -62.155 Q29.675 -63.087 30.962 -63.755 Q32.25 -64.423 33.631 -65.015 L35.209 -73.102 Q35.702 -75.173 37.182 -76.455 Q38.661 -77.737 40.732 -77.737 H53.948 Q56.019 -77.737 57.498 -76.455 Q58.978 -75.173 59.471 -73.102 L61.049 -65.015 Q62.43 -64.423 63.81 -63.733 Q65.191 -63.042 66.375 -62.056 L74.067 -64.719 Q75.969 -65.409 77.892 -64.719 Q79.815 -64.028 80.774 -62.253 L87.48 -50.418 Q88.467 -48.544 88.121 -46.572 Q87.776 -44.599 86.1 -43.317 L84.226 -41.345 Q84.423 -40.95 84.522 -40.161 Q84.62 -39.372 84.62 -38.485 Q83.93 -35.723 81.957 -34.392 Q79.985 -33.06 77.266 -33.06 H61.845 Q61.943 -33.652 61.993 -34.293 Q62.042 -34.934 62.042 -35.526 Q61.943 -41.798 57.621 -46.207 Q53.299 -50.615 46.847 -50.615 Q40.551 -50.615 36.105 -46.172 Q31.659 -41.73 31.659 -35.439 Q31.659 -29.81 35.313 -25.449 Q38.967 -21.088 44.381 -20.338 V3.431 Q44.381 5.224 43.553 6.201 Q42.725 7.179 40.457 7.179 Z"/></g><g id="Semibold-S" transform="matrix(1 0 0 1 1998.1 696)"><path d="M63.412 6.578 Q58.352 6.578 55.213 3.439 Q52.074 0.301 52.074 -4.759 V-14.424 Q52.074 -19.484 55.213 -22.623 Q58.352 -25.762 63.412 -25.762 H83.389 Q88.449 -25.762 91.588 -22.623 Q94.727 -19.484 94.727 -14.424 V-4.759 Q94.727 0.301 91.588 3.439 Q88.449 6.578 83.389 6.578 H63.412 Z M63.412 -4.759 H83.389 Q83.389 -4.759 83.389 -4.759 Q83.389 -4.759 83.389 -4.759 V-14.424 Q83.389 -14.424 83.389 -14.424 Q83.389 -14.424 83.389 -14.424 H63.412 Q63.412 -14.424 63.412 -14.424 Q63.412 -14.424 63.412 -14.424 V-4.759 Q63.412 -4.759 63.412 -4.759 Q63.412 -4.759 63.412 -4.759 Z M40.671 6.578 Q38.787 6.578 37.351 5.453 Q35.915 4.328 35.642 2.47 L34.219 -5.69 Q32.765 -6.367 31.26 -7.165 Q29.756 -7.963 28.46 -9.078 L20.51 -6.329 Q18.808 -5.767 17 -6.344 Q15.192 -6.921 14.39 -8.58 L7.855 -20.354 Q7.054 -21.958 7.279 -23.667 Q7.504 -25.376 8.911 -26.628 L15 -31.984 Q14.901 -32.797 14.83 -33.653 Q14.759 -34.508 14.759 -35.42 Q14.759 -36.332 14.83 -37.108 Q14.901 -37.884 15 -38.704 L9.009 -43.96 Q7.547 -45.213 7.294 -46.921 Q7.041 -48.63 7.899 -50.29 L14.434 -61.824 Q15.291 -63.428 17.022 -64.005 Q18.752 -64.582 20.454 -64.076 L28.289 -61.468 Q29.637 -62.553 31.179 -63.36 Q32.722 -64.166 34.318 -64.887 L35.896 -73.06 Q36.303 -74.873 37.675 -76.026 Q39.047 -77.18 40.904 -77.18 H53.776 Q55.633 -77.18 57.005 -76.026 Q58.377 -74.873 58.784 -73.06 L60.362 -64.843 Q61.915 -64.123 63.531 -63.304 Q65.149 -62.485 66.503 -61.37 L74.325 -64.076 Q76.043 -64.68 77.761 -64.054 Q79.478 -63.428 80.345 -61.824 L86.88 -50.29 Q87.738 -48.63 87.435 -46.872 Q87.133 -45.114 85.671 -43.96 L82.725 -41.131 Q82.922 -40.736 83.021 -39.947 Q83.119 -39.158 83.119 -38.271 Q82.6 -35.595 80.8 -34.328 Q78.999 -33.06 76.476 -33.06 H62.574 Q62.672 -33.652 62.722 -34.293 Q62.771 -34.934 62.771 -35.526 Q62.715 -42.142 58.169 -46.764 Q53.623 -51.388 46.889 -51.388 Q40.286 -51.388 35.629 -46.733 Q30.972 -42.078 30.972 -35.477 Q30.972 -29.596 34.734 -25.128 Q38.495 -20.659 44.081 -19.78 V3.345 Q44.081 4.916 43.27 5.747 Q42.459 6.578 40.671 6.578 Z"/></g><g id="Medium-S" transform="matrix(1 0 0 1 1701.85 696)"><path d="M62.446 6.128 Q57.818 6.128 54.946 3.256 Q52.074 0.383 52.074 -4.245 V-15.39 Q52.074 -20.018 54.946 -22.89 Q57.818 -25.762 62.446 -25.762 H83.872 Q88.5 -25.762 91.372 -22.89 Q94.245 -20.018 94.245 -15.39 V-4.245 Q94.245 0.383 91.372 3.256 Q88.5 6.128 83.872 6.128 H62.446 Z M62.446 -4.245 H83.872 Q83.872 -4.245 83.872 -4.245 Q83.872 -4.245 83.872 -4.245 V-15.39 Q83.872 -15.39 83.872 -15.39 Q83.872 -15.39 83.872 -15.39 H62.446 Q62.446 -15.39 62.446 -15.39 Q62.446 -15.39 62.446 -15.39 V-4.245 Q62.446 -4.245 62.446 -4.245 Q62.446 -4.245 62.446 -4.245 Z M40.832 6.128 Q39.105 6.128 37.769 5.088 Q36.434 4.048 36.188 2.342 L34.733 -5.947 Q33.151 -6.689 31.503 -7.565 Q29.855 -8.44 28.428 -9.657 L20.284 -6.843 Q18.711 -6.378 17.064 -6.907 Q15.418 -7.435 14.68 -8.934 L8.274 -20.515 Q7.536 -21.991 7.745 -23.539 Q7.954 -25.086 9.232 -26.242 L15.45 -31.694 Q15.351 -32.605 15.264 -33.541 Q15.177 -34.477 15.177 -35.484 Q15.177 -36.492 15.264 -37.334 Q15.351 -38.174 15.45 -39.089 L9.331 -44.443 Q8.029 -45.598 7.808 -47.147 Q7.587 -48.694 8.349 -50.193 L14.755 -61.503 Q15.517 -62.978 17.102 -63.507 Q18.687 -64.035 20.261 -63.594 L28.128 -60.954 Q29.608 -62.153 31.342 -63.063 Q33.076 -63.972 34.831 -64.79 L36.409 -73.027 Q36.753 -74.647 38.045 -75.705 Q39.337 -76.762 41.032 -76.762 H53.648 Q55.343 -76.762 56.635 -75.705 Q57.927 -74.647 58.271 -73.027 L59.849 -64.715 Q61.529 -63.897 63.322 -62.982 Q65.116 -62.067 66.599 -60.856 L74.518 -63.594 Q76.098 -64.134 77.662 -63.556 Q79.226 -62.978 80.023 -61.503 L86.43 -50.193 Q87.191 -48.694 86.921 -47.098 Q86.651 -45.5 85.349 -44.443 L81.599 -40.97 Q81.797 -40.575 81.895 -39.786 Q81.994 -38.997 81.994 -38.11 Q81.603 -35.498 79.932 -34.279 Q78.259 -33.06 75.883 -33.06 H63.12 Q63.219 -33.652 63.268 -34.293 Q63.317 -34.934 63.317 -35.526 Q63.294 -42.399 58.581 -47.182 Q53.868 -51.967 46.922 -51.967 Q40.088 -51.967 35.273 -47.152 Q30.458 -42.338 30.458 -35.505 Q30.458 -29.435 34.3 -24.886 Q38.141 -20.338 43.856 -19.362 V3.281 Q43.856 4.686 43.058 5.406 Q42.259 6.128 40.832 6.128 Z"/></g><g id="Regular-S" transform="matrix(1 0 0 1 1405.73 696)"><path d="M61.739 5.798 Q57.427 5.798 54.751 3.121 Q52.074 0.445 52.074 -3.867 V-16.097 Q52.074 -20.41 54.751 -23.085 Q57.427 -25.762 61.739 -25.762 H84.226 Q88.538 -25.762 91.214 -23.085 Q93.891 -20.41 93.891 -16.097 V-3.867 Q93.891 0.445 91.214 3.121 Q88.538 5.798 84.226 5.798 H61.739 Z M61.739 -3.867 H84.226 Q84.226 -3.867 84.226 -3.867 Q84.226 -3.867 84.226 -3.867 V-16.097 Q84.226 -16.097 84.226 -16.097 Q84.226 -16.097 84.226 -16.097 H61.739 Q61.739 -16.097 61.739 -16.097 Q61.739 -16.097 61.739 -16.097 V-3.867 Q61.739 -3.867 61.739 -3.867 Q61.739 -3.867 61.739 -3.867 Z M40.95 5.798 Q39.338 5.798 38.076 4.821 Q36.815 3.843 36.59 2.248 L35.111 -6.136 Q33.434 -6.925 31.68 -7.857 Q29.927 -8.79 28.404 -10.081 L20.12 -7.22 Q18.64 -6.826 17.111 -7.319 Q15.583 -7.812 14.892 -9.193 L8.58 -20.633 Q7.89 -22.014 8.087 -23.444 Q8.284 -24.874 9.468 -25.959 L15.78 -31.482 Q15.681 -32.463 15.583 -33.458 Q15.484 -34.453 15.484 -35.532 Q15.484 -36.611 15.583 -37.498 Q15.681 -38.386 15.78 -39.372 L9.567 -44.797 Q8.383 -45.881 8.186 -47.312 Q7.989 -48.742 8.679 -50.122 L14.991 -61.267 Q15.681 -62.648 17.161 -63.141 Q18.64 -63.634 20.12 -63.239 L28.01 -60.577 Q29.588 -61.859 31.461 -62.845 Q33.335 -63.831 35.209 -64.719 L36.787 -73.003 Q37.083 -74.483 38.316 -75.469 Q39.549 -76.455 41.127 -76.455 H53.553 Q55.131 -76.455 56.364 -75.469 Q57.597 -74.483 57.893 -73.003 L59.471 -64.62 Q61.246 -63.733 63.169 -62.746 Q65.093 -61.76 66.671 -60.478 L74.659 -63.239 Q76.139 -63.733 77.59 -63.19 Q79.041 -62.648 79.788 -61.267 L86.1 -50.122 Q86.79 -48.742 86.543 -47.262 Q86.297 -45.783 85.113 -44.797 L80.774 -40.852 Q80.971 -40.457 81.07 -39.668 Q81.168 -38.879 81.168 -37.991 Q80.873 -35.427 79.294 -34.244 Q77.716 -33.06 75.448 -33.06 H63.521 Q63.62 -33.652 63.669 -34.293 Q63.719 -34.934 63.719 -35.526 Q63.719 -42.587 58.882 -47.489 Q54.047 -52.391 46.946 -52.391 Q39.943 -52.391 35.012 -47.459 Q30.081 -42.528 30.081 -35.525 Q30.081 -29.316 33.981 -24.71 Q37.882 -20.102 43.691 -19.055 V3.234 Q43.691 4.516 42.902 5.157 Q42.113 5.798 40.95 5.798 Z"/></g><g id="Light-S" transform="matrix(1 0 0 1 1109.75 696)"><path d="M60.981 3.826 Q56.933 3.826 54.504 1.395 Q52.074 -1.035 52.074 -5.081 V-16.855 Q52.074 -20.903 54.504 -23.332 Q56.933 -25.762 60.981 -25.762 H83.012 Q87.058 -25.762 89.488 -23.332 Q91.919 -20.903 91.919 -16.855 V-5.081 Q91.919 -1.035 89.488 1.395 Q87.058 3.826 83.012 3.826 H60.981 Z M60.981 -3.867 H83.012 Q83.543 -3.867 83.885 -4.208 Q84.226 -4.55 84.226 -5.081 V-16.855 Q84.226 -17.387 83.885 -17.728 Q83.543 -18.069 83.012 -18.069 H60.981 Q60.449 -18.069 60.108 -17.728 Q59.767 -17.387 59.767 -16.855 V-5.081 Q59.767 -4.55 60.108 -4.208 Q60.449 -3.867 60.981 -3.867 Z M41.557 3.826 Q40.4 3.826 39.48 3.113 Q38.559 2.401 38.373 1.223 L36.931 -7.502 Q34.952 -8.328 32.667 -9.526 Q30.382 -10.725 28.632 -12.318 L19.626 -9.117 Q18.754 -8.988 17.814 -9.254 Q16.873 -9.519 16.524 -10.369 L10.401 -21.43 Q10.052 -22.28 10.098 -23.065 Q10.144 -23.85 10.834 -24.556 L17.828 -30.572 Q17.692 -31.742 17.537 -32.983 Q17.381 -34.225 17.381 -35.493 Q17.381 -36.724 17.537 -37.84 Q17.692 -38.955 17.828 -40.283 L10.933 -46.2 Q10.242 -46.906 10.216 -47.71 Q10.189 -48.514 10.538 -49.364 L16.622 -60.015 Q16.971 -60.827 17.863 -61.111 Q18.754 -61.396 19.626 -61.267 L28.199 -58.3 Q30.119 -59.924 32.429 -61.157 Q34.739 -62.389 36.992 -63.353 L38.722 -72.51 Q38.98 -73.345 39.719 -73.914 Q40.459 -74.483 41.392 -74.483 H53.25 Q54.183 -74.483 54.942 -73.914 Q55.7 -73.345 55.958 -72.51 L57.65 -63.217 Q59.919 -62.177 62.145 -61.02 Q64.372 -59.864 66.329 -58.202 L75.266 -61.267 Q76.139 -61.495 76.983 -61.16 Q77.827 -60.827 78.232 -60.015 L84.316 -49.325 Q84.666 -48.476 84.552 -47.622 Q84.438 -46.769 83.747 -46.2 L79.105 -42.066 Q79.377 -41.482 79.496 -40.541 Q79.613 -39.6 79.651 -38.523 Q79.848 -35.807 78.365 -34.433 Q76.882 -33.06 74.651 -33.06 L61.321 -33.098 Q61.42 -33.689 61.469 -34.331 Q61.518 -34.972 61.518 -35.563 Q61.518 -41.791 57.271 -46.104 Q53.022 -50.418 46.756 -50.418 Q40.626 -50.418 36.263 -46.056 Q31.901 -41.694 31.901 -35.563 Q31.901 -30.189 35.271 -26.132 Q38.64 -22.074 43.691 -21.142 V1.982 Q43.691 2.961 43.054 3.393 Q42.417 3.826 41.557 3.826 Z"/></g><g id="Thin-S" transform="matrix(1 0 0 1 814.015 696)"><path d="M60.222 1.853 Q56.441 1.853 54.258 -0.331 Q52.074 -2.513 52.074 -6.295 V-17.614 Q52.074 -21.395 54.258 -23.578 Q56.441 -25.762 60.222 -25.762 H81.798 Q85.58 -25.762 87.762 -23.578 Q89.946 -21.395 89.946 -17.614 V-6.295 Q89.946 -2.513 87.762 -0.331 Q85.58 1.853 81.798 1.853 H60.222 Z M60.222 -3.867 H81.798 Q82.86 -3.867 83.543 -4.55 Q84.226 -5.233 84.226 -6.295 V-17.614 Q84.226 -18.676 83.543 -19.359 Q82.86 -20.042 81.798 -20.042 H60.222 Q59.16 -20.042 58.477 -19.359 Q57.794 -18.676 57.794 -17.614 V-6.295 Q57.794 -5.233 58.477 -4.55 Q59.16 -3.867 60.222 -3.867 Z M42.163 1.853 Q41.462 1.853 40.883 1.406 Q40.304 0.96 40.155 0.199 L38.752 -8.867 Q36.469 -9.731 33.653 -11.195 Q30.837 -12.659 28.86 -14.556 L19.133 -11.014 Q18.868 -11.151 18.515 -11.188 Q18.162 -11.227 18.155 -11.545 L12.222 -22.226 Q12.215 -22.545 12.108 -22.686 Q12.002 -22.826 12.199 -23.152 L19.877 -29.662 Q19.702 -31.022 19.49 -32.509 Q19.277 -33.997 19.277 -35.456 Q19.277 -36.839 19.49 -38.181 Q19.702 -39.524 19.877 -41.193 L12.298 -47.603 Q12.1 -47.93 12.244 -48.108 Q12.389 -48.286 12.396 -48.606 L18.254 -58.764 Q18.26 -59.007 18.564 -59.082 Q18.868 -59.158 19.133 -59.294 L28.389 -56.025 Q30.65 -57.99 33.396 -59.469 Q36.142 -60.948 38.774 -61.988 L40.656 -72.017 Q40.876 -72.206 41.123 -72.358 Q41.369 -72.51 41.657 -72.51 H52.947 Q53.235 -72.51 53.519 -72.358 Q53.804 -72.206 54.024 -72.017 L55.83 -61.813 Q58.591 -60.622 61.121 -59.294 Q63.651 -57.967 65.988 -55.926 L75.873 -59.294 Q76.139 -59.257 76.376 -59.132 Q76.614 -59.007 76.677 -58.764 L82.534 -48.53 Q82.541 -48.211 82.561 -47.983 Q82.58 -47.755 82.382 -47.603 L77.435 -43.28 Q77.785 -42.506 77.922 -41.413 Q78.058 -40.321 78.134 -39.054 Q78.824 -36.186 77.435 -34.623 Q76.048 -33.06 73.855 -33.06 L59.121 -33.136 Q59.219 -33.728 59.269 -34.369 Q59.318 -35.01 59.318 -35.602 Q59.318 -40.995 55.658 -44.72 Q51.998 -48.446 46.566 -48.446 Q41.309 -48.446 37.515 -44.653 Q33.722 -40.86 33.722 -35.601 Q33.722 -31.061 36.56 -27.554 Q39.4 -24.047 43.691 -23.228 V0.731 Q43.691 1.405 43.206 1.629 Q42.719 1.853 42.163 1.853 Z"/></g><g id="Ultralight-S" transform="matrix(1 0 0 1 517.792 696)"><path d="M59.767 0.67 Q56.145 0.67 54.11 -1.366 Q52.074 -3.401 52.074 -7.023 V-18.069 Q52.074 -21.692 54.11 -23.726 Q56.145 -25.762 59.767 -25.762 H81.07 Q84.691 -25.762 86.727 -23.726 Q88.763 -21.692 88.763 -18.069 V-7.023 Q88.763 -3.401 86.727 -1.366 Q84.691 0.67 81.07 0.67 H59.767 Z M59.767 -3.867 H81.07 Q82.451 -3.867 83.338 -4.755 Q84.226 -5.642 84.226 -7.023 V-18.069 Q84.226 -19.45 83.338 -20.338 Q82.451 -21.225 81.07 -21.225 H59.767 Q58.386 -21.225 57.498 -20.338 Q56.611 -19.45 56.611 -18.069 V-7.023 Q56.611 -5.642 57.498 -4.755 Q58.386 -3.867 59.767 -3.867 Z M42.528 0.67 Q42.099 0.67 41.725 0.383 Q41.351 0.096 41.225 -0.415 L39.845 -9.686 Q37.379 -10.574 34.245 -12.196 Q31.11 -13.819 28.996 -15.899 L18.837 -12.152 Q18.936 -12.448 18.936 -12.349 Q18.936 -12.25 19.133 -12.25 L13.314 -22.705 Q13.512 -22.705 13.314 -22.458 Q13.117 -22.211 13.019 -22.31 L21.106 -29.115 Q20.909 -30.589 20.662 -32.225 Q20.415 -33.861 20.415 -35.433 Q20.415 -36.907 20.662 -38.386 Q20.909 -39.865 21.106 -41.739 L13.117 -48.446 Q13.216 -48.544 13.462 -48.347 Q13.709 -48.15 13.512 -48.15 L19.232 -58.012 Q19.035 -57.914 18.985 -57.864 Q18.936 -57.815 18.837 -58.111 L28.503 -54.659 Q30.968 -56.829 33.976 -58.456 Q36.984 -60.083 39.845 -61.168 L41.817 -71.721 Q42.014 -71.524 41.965 -71.425 Q41.916 -71.327 41.817 -71.327 H52.764 Q52.666 -71.327 52.666 -71.425 Q52.666 -71.524 52.863 -71.721 L54.737 -60.971 Q57.794 -59.689 60.506 -58.259 Q63.219 -56.829 65.783 -54.56 L76.237 -58.111 Q76.139 -57.914 76.012 -57.914 Q75.885 -57.914 75.744 -58.012 L81.464 -48.051 Q81.267 -48.051 81.366 -48.199 Q81.464 -48.347 81.563 -48.446 L76.434 -44.008 Q76.829 -43.12 76.977 -41.936 Q77.125 -40.753 77.223 -39.372 Q78.21 -36.413 76.878 -34.737 Q75.547 -33.06 73.377 -33.06 L57.801 -33.159 Q57.9 -33.751 57.949 -34.392 Q57.998 -35.033 57.998 -35.624 Q57.998 -40.516 54.691 -43.889 Q51.384 -47.262 46.452 -47.262 Q41.718 -47.262 38.267 -43.81 Q34.815 -40.358 34.815 -35.624 Q34.815 -31.585 37.334 -28.408 Q39.854 -25.23 43.691 -24.48 V-0.021 Q43.691 0.472 43.296 0.571 Q42.902 0.67 42.528 0.67 Z"/></g></g></svg>