<svg xmlns="http://www.w3.org/2000/svg" version="1.1" width="3300" height="2000"><g id="Notes"><style>
    text {
      font-family: monospace;
      text-anchor: middle;
    }
    text.emphasis {
      font-weight:bold;
    }
    text.lanchor {
      text-anchor: start;
    }
  </style><rect height="2200" id="artboard" fill="white" width="3300" x="0" y="0"/><line id="" style="fill:none;stroke:black;stroke-width:0.5;" x1="263" x2="3036" y1="292" y2="292"/><text class="lanchor emphasis" transform="matrix(1 0 0 1 263 322)">Weight/Scale Variations</text><text transform="matrix(1 0 0 1 559.711 322)">Ultralight</text><text transform="matrix(1 0 0 1 856.422 322)">Thin</text><text transform="matrix(1 0 0 1 1153.13 322)">Light</text><text transform="matrix(1 0 0 1 1449.84 322)">Regular</text><text transform="matrix(1 0 0 1 1746.56 322)">Medium</text><text transform="matrix(1 0 0 1 2043.27 322)">Semibold</text><text transform="matrix(1 0 0 1 2339.98 322)">Bold</text><text transform="matrix(1 0 0 1 2636.69 322)">Heavy</text><text transform="matrix(1 0 0 1 2933.4 322)">Black</text><text id="template-version" style="text-anchor: end;" transform="matrix(1 0 0 1 3036 1933)">Template v.1.0</text><text class="lanchor" transform="matrix(1 0 0 1 263 726)">Small</text><text class="lanchor" transform="matrix(1 0 0 1 263 1156)">Medium</text><text class="lanchor" transform="matrix(1 0 0 1 263 1586)">Large</text></g><g id="Guides"><g id="H-reference" style="fill:#27AAE1;stroke:none;" transform="matrix(1 0 0 1 339 696)"><path d="M 54.9316 0 L 57.666 0 L 30.5664 -70.459 L 28.0762 -70.459 L 0.976562 0 L 3.66211 0 L 12.9395 -24.4629 L 45.7031 -24.4629 Z M 29.1992 -67.0898 L 29.4434 -67.0898 L 44.8242 -26.709 L 13.8184 -26.709 Z"/></g><line id="Baseline-S" style="fill:none;stroke:#27AAE1;opacity:1;stroke-width:0.577;" x1="263" x2="3036" y1="696" y2="696"/><line id="Capline-S" style="fill:none;stroke:#27AAE1;opacity:1;stroke-width:0.577;" x1="263" x2="3036" y1="625.541" y2="625.541"/><g id="H-reference" style="fill:#27AAE1;stroke:none;" transform="matrix(1 0 0 1 339 1126)"><path d="M 54.9316 0 L 57.666 0 L 30.5664 -70.459 L 28.0762 -70.459 L 0.976562 0 L 3.66211 0 L 12.9395 -24.4629 L 45.7031 -24.4629 Z M 29.1992 -67.0898 L 29.4434 -67.0898 L 44.8242 -26.709 L 13.8184 -26.709 Z"/></g><line id="Baseline-M" style="fill:none;stroke:#27AAE1;opacity:1;stroke-width:0.577;" x1="263" x2="3036" y1="1126" y2="1126"/><line id="Capline-M" style="fill:none;stroke:#27AAE1;opacity:1;stroke-width:0.577;" x1="263" x2="3036" y1="1055.54" y2="1055.54"/><g id="H-reference" style="fill:#27AAE1;stroke:none;" transform="matrix(1 0 0 1 339 1556)"><path d="M 54.9316 0 L 57.666 0 L 30.5664 -70.459 L 28.0762 -70.459 L 0.976562 0 L 3.66211 0 L 12.9395 -24.4629 L 45.7031 -24.4629 Z M 29.1992 -67.0898 L 29.4434 -67.0898 L 44.8242 -26.709 L 13.8184 -26.709 Z"/></g><line id="Baseline-L" style="fill:none;stroke:#27AAE1;opacity:1;stroke-width:0.577;" x1="263" x2="3036" y1="1556" y2="1556"/><line id="Capline-L" style="fill:none;stroke:#27AAE1;opacity:1;stroke-width:0.577;" x1="263" x2="3036" y1="1485.54" y2="1485.54"/><rect height="119.336" id="left-margin" style="fill:darkred;stroke:none;opacity:0.4;" width="12.4512" x="1394.06" y="1030.79"/><rect height="119.336" id="right-margin" style="fill:darkgreen;stroke:none;opacity:0.4;" width="12.4512" x="1502.5112" y="1030.79"/><rect x="1406.5112" y="1045" width="96" height="96" fill="none" stroke="blue" stroke-dasharray="5"/><rect x="1394.06" y="1030.79" width="120.9024" height="119.336" fill="none" stroke="blue"/></g><g id="Symbols"><g id="Bold-L" transform="matrix(1 0 0 1 2266 1556)"><path d="M98.766 32.495 Q92.569 32.495 88.209 28.183 Q83.85 23.871 83.85 17.741 V-7.576 Q83.85 -13.537 88.209 -17.933 Q92.569 -22.33 98.766 -22.33 H137.627 Q143.588 -22.33 147.984 -17.933 Q152.381 -13.537 152.381 -7.576 V17.741 Q152.381 23.871 147.984 28.183 Q143.588 32.495 137.627 32.495 H98.766 Z M98.766 17.741 H137.627 Q137.627 17.741 137.627 17.741 Q137.627 17.741 137.627 17.741 V-7.576 Q137.627 -7.576 137.627 -7.576 Q137.627 -7.576 137.627 -7.576 H98.766 Q98.766 -7.576 98.766 -7.576 Q98.766 -7.576 98.766 -7.576 V17.741 Q98.766 17.741 98.766 17.741 Q98.766 17.741 98.766 17.741 Z M93.686 -36.52 Q91.509 -35.391 89.405 -35.936 Q87.301 -36.483 86.108 -38.616 Q84.656 -41.357 82.287 -43.212 Q79.92 -45.066 76.897 -45.066 Q72.724 -45.066 69.902 -42.249 Q67.08 -39.431 67.08 -35.23 Q67.08 -31.824 69.62 -29.375 Q72.159 -26.926 75.465 -25.313 Q77.561 -24.346 78.327 -22.169 Q79.093 -19.992 78.287 -17.936 Q77.4 -15.719 75.263 -15.033 Q73.127 -14.348 70.789 -15.154 Q64.258 -17.251 59.985 -22.815 Q55.712 -28.378 55.712 -35.414 Q55.712 -44.26 61.768 -50.347 Q67.825 -56.434 76.636 -56.434 Q82.886 -56.434 88.044 -53.048 Q93.203 -49.662 96.024 -44.099 Q96.992 -41.943 96.347 -39.755 Q95.702 -37.568 93.686 -36.52 Z M65.484 32.495 Q62.941 32.495 60.838 30.528 Q58.734 28.561 58.292 25.964 L56.115 11.129 Q53.951 10.467 51.163 8.904 Q48.375 7.34 46.601 5.889 L32.411 12.5 Q30.012 13.629 27.493 12.922 Q24.973 12.215 23.704 9.759 L11.529 -12.091 Q10.32 -14.047 10.771 -16.535 Q11.221 -19.023 13.384 -20.637 L26.687 -30.554 Q26.526 -31.495 26.445 -32.802 Q26.364 -34.109 26.364 -35.215 Q26.364 -36.081 26.445 -37.507 Q26.526 -38.932 26.687 -40.067 L13.464 -49.742 Q11.126 -51.436 10.643 -53.814 Q10.159 -56.192 11.61 -58.45 L23.765 -80.249 Q24.928 -82.281 27.421 -83.145 Q29.912 -84.008 32.25 -83.041 L47.085 -76.349 Q48.536 -77.558 51.157 -79.05 Q53.777 -80.541 56.083 -81.285 L58.776 -97.472 Q59.261 -100.006 61.059 -101.6 Q62.857 -103.197 65.387 -103.197 H89.721 Q92.022 -103.197 93.789 -101.612 Q95.558 -100.027 96.186 -97.472 L98.754 -81.538 Q100.897 -80.72 103.581 -79.259 Q106.264 -77.8 108.038 -76.349 L122.873 -83.041 Q125.211 -84.008 127.566 -83.139 Q129.922 -82.27 131.127 -80.245 L143.482 -58.424 Q144.641 -56.192 144.111 -53.617 Q143.58 -51.041 141.416 -49.742 L123.534 -37.228 Q123.534 -37.228 123.534 -37.228 Q123.534 -37.228 123.534 -37.228 Q121.099 -35.472 118.304 -35.983 Q115.508 -36.493 113.681 -38.858 Q111.746 -41.109 112.12 -44.157 Q112.494 -47.204 114.971 -49.017 L126.662 -57.402 L121.663 -66.835 L104.571 -59.337 Q100.943 -63.691 95.992 -66.754 Q91.04 -69.818 85.419 -70.463 L83.205 -88.281 H71.579 L69.579 -70.457 Q63.631 -69.415 58.784 -66.593 Q53.938 -63.771 49.907 -59.337 L33.218 -66.835 L28.058 -57.402 L42.731 -46.84 Q42.086 -43.857 41.602 -41.019 Q41.119 -38.182 41.119 -35.315 Q41.119 -32.408 41.562 -29.465 Q42.006 -26.522 42.651 -23.701 L28.058 -13.139 L33.195 -3.706 L49.871 -11.123 Q53.938 -6.819 59.219 -3.972 Q64.5 -1.126 70.224 0.326 V27.862 Q70.224 29.967 69.383 31.231 Q68.539 32.495 65.484 32.495 Z"/></g><g id="Semibold-L" transform="matrix(1 0 0 1 1970.27 1556)"><path d="M96.311 30.742 Q91.198 30.742 87.525 27.095 Q83.85 23.447 83.85 18.371 V-9.959 Q83.85 -14.938 87.525 -18.634 Q91.198 -22.33 96.311 -22.33 H137.907 Q142.887 -22.33 146.583 -18.634 Q150.279 -14.938 150.279 -9.959 V18.371 Q150.279 23.447 146.583 27.095 Q142.887 30.742 137.907 30.742 H96.311 Z M96.311 18.371 H137.907 Q137.907 18.371 137.907 18.371 Q137.907 18.371 137.907 18.371 V-9.959 Q137.907 -9.959 137.907 -9.959 Q137.907 -9.959 137.907 -9.959 H96.311 Q96.311 -9.959 96.311 -9.959 Q96.311 -9.959 96.311 -9.959 V18.371 Q96.311 18.371 96.311 18.371 Q96.311 18.371 96.311 18.371 Z M93.862 -36.941 Q91.859 -35.881 89.882 -36.389 Q87.904 -36.896 86.809 -38.826 Q85.217 -41.707 82.721 -43.702 Q80.227 -45.697 77.045 -45.697 Q72.654 -45.697 69.621 -42.693 Q66.59 -39.687 66.59 -35.299 Q66.59 -31.755 69.023 -29.13 Q71.458 -26.505 74.835 -24.963 Q76.72 -24.065 77.521 -22.099 Q78.322 -20.132 77.585 -18.252 Q76.77 -16.209 74.807 -15.49 Q72.846 -14.769 70.719 -15.504 Q64.327 -17.601 60.23 -23.075 Q56.133 -28.548 56.133 -35.39 Q56.133 -44.115 62.115 -50.134 Q68.097 -56.154 76.802 -56.154 Q82.957 -56.154 88.08 -52.838 Q93.203 -49.522 95.955 -43.958 Q96.852 -42.004 96.278 -39.961 Q95.702 -37.918 93.862 -36.941 Z M66.424 30.742 Q64.039 30.742 62.204 28.997 Q60.369 27.253 59.974 24.842 L57.727 9.938 Q55.173 9.073 52.055 7.33 Q48.936 5.587 46.811 3.855 L32.552 10.467 Q30.354 11.455 28.106 10.81 Q25.858 10.165 24.686 8.006 L13.492 -12.021 Q12.353 -13.863 12.803 -16.093 Q13.255 -18.323 15.206 -19.795 L28.58 -29.712 Q28.348 -30.875 28.267 -32.384 Q28.187 -33.895 28.187 -35.222 Q28.187 -36.307 28.267 -37.937 Q28.348 -39.566 28.58 -40.909 L15.287 -50.654 Q13.229 -52.137 12.745 -54.304 Q12.261 -56.473 13.572 -58.519 L24.72 -78.484 Q25.84 -80.388 28.087 -81.148 Q30.333 -81.905 32.46 -81.007 L47.154 -74.315 Q49.026 -75.876 51.998 -77.577 Q54.969 -79.279 57.695 -80.164 L60.317 -96.281 Q60.733 -98.534 62.397 -99.954 Q64.061 -101.375 66.298 -101.375 H88.712 Q90.831 -101.375 92.456 -99.959 Q94.081 -98.545 94.573 -96.281 L97.142 -80.417 Q99.69 -79.45 102.732 -77.784 Q105.774 -76.118 107.828 -74.315 L122.592 -81.007 Q124.72 -81.905 126.842 -81.144 Q128.966 -80.382 130.098 -78.48 L141.428 -58.506 Q142.539 -56.473 142.042 -54.159 Q141.545 -51.847 139.594 -50.654 L122.79 -38.777 Q122.79 -38.777 122.79 -38.777 Q122.79 -38.777 122.79 -38.777 Q120.749 -37.294 118.432 -37.689 Q116.116 -38.083 114.557 -40.121 Q112.938 -42.02 113.239 -44.568 Q113.543 -47.114 115.602 -48.667 L127.504 -57.262 L121.944 -67.606 L104.78 -60.108 Q101.152 -64.321 96.339 -67.28 Q91.526 -70.239 85.999 -70.953 L83.766 -88.912 H71.026 L68.949 -70.948 Q63.133 -69.836 58.431 -67.119 Q53.728 -64.402 49.767 -60.108 L32.937 -67.606 L27.216 -57.262 L42.101 -46.49 Q41.456 -43.576 41.006 -40.829 Q40.558 -38.081 40.558 -35.315 Q40.558 -32.477 40.966 -29.675 Q41.375 -26.872 42.02 -24.051 L27.216 -13.279 L32.914 -2.935 L49.747 -10.352 Q53.869 -6.107 59.184 -3.301 Q64.5 -0.495 70.294 0.887 V26.827 Q70.294 28.581 69.523 29.662 Q68.751 30.742 66.424 30.742 Z"/></g><g id="Medium-L" transform="matrix(1 0 0 1 1674.31 1556)"><path d="M94.472 29.428 Q90.171 29.428 87.011 26.279 Q83.85 23.13 83.85 18.845 V-11.747 Q83.85 -15.991 87.011 -19.16 Q90.171 -22.33 94.472 -22.33 H138.117 Q142.361 -22.33 145.531 -19.16 Q148.7 -15.991 148.7 -11.747 V18.845 Q148.7 23.13 145.531 26.279 Q142.361 29.428 138.117 29.428 H94.472 Z M94.472 18.845 H138.117 Q138.117 18.845 138.117 18.845 Q138.117 18.845 138.117 18.845 V-11.747 Q138.117 -11.747 138.117 -11.747 Q138.117 -11.747 138.117 -11.747 H94.472 Q94.472 -11.747 94.472 -11.747 Q94.472 -11.747 94.472 -11.747 V18.845 Q94.472 18.845 94.472 18.845 Q94.472 18.845 94.472 18.845 Z M93.993 -37.257 Q92.122 -36.251 90.239 -36.728 Q88.355 -37.205 87.335 -38.984 Q85.638 -41.97 83.047 -44.071 Q80.456 -46.171 77.157 -46.171 Q72.601 -46.171 69.412 -43.025 Q66.221 -39.88 66.221 -35.353 Q66.221 -31.702 68.576 -28.946 Q70.932 -26.189 74.36 -24.7 Q76.089 -23.855 76.916 -22.046 Q77.743 -20.237 77.06 -18.487 Q76.295 -16.578 74.465 -15.832 Q72.637 -15.085 70.666 -15.767 Q64.381 -17.863 60.414 -23.268 Q56.449 -28.674 56.449 -35.37 Q56.449 -44.005 62.375 -49.975 Q68.301 -55.944 76.928 -55.944 Q83.008 -55.944 88.105 -52.68 Q93.203 -49.417 95.902 -43.854 Q96.747 -42.049 96.224 -40.116 Q95.702 -38.181 93.993 -37.257 Z M67.128 29.428 Q64.863 29.428 63.229 27.849 Q61.596 26.271 61.236 24.002 L58.937 9.044 Q56.089 8.027 52.722 6.15 Q49.357 4.273 46.969 2.33 L32.656 8.941 Q30.61 9.825 28.567 9.227 Q26.522 8.628 25.421 6.692 L14.964 -11.968 Q13.879 -13.724 14.329 -15.761 Q14.78 -17.796 16.573 -19.165 L29.999 -29.082 Q29.715 -30.409 29.635 -32.071 Q29.554 -33.735 29.554 -35.227 Q29.554 -36.476 29.635 -38.258 Q29.715 -40.042 29.999 -41.54 L16.654 -51.337 Q14.808 -52.663 14.324 -54.674 Q13.84 -56.683 15.045 -58.573 L25.436 -77.158 Q26.522 -78.969 28.586 -79.648 Q30.649 -80.327 32.618 -79.482 L47.208 -72.79 Q49.396 -74.614 52.629 -76.473 Q55.862 -78.332 58.905 -79.322 L61.475 -95.388 Q61.838 -97.429 63.402 -98.717 Q64.966 -100.007 66.982 -100.007 H87.954 Q89.936 -100.007 91.455 -98.721 Q92.972 -97.434 93.364 -95.388 L95.932 -79.575 Q98.785 -78.498 102.095 -76.676 Q105.404 -74.856 107.67 -72.79 L122.382 -79.482 Q124.351 -80.327 126.301 -79.646 Q128.249 -78.966 129.324 -77.158 L139.886 -58.566 Q140.96 -56.683 140.489 -54.567 Q140.018 -52.451 138.227 -51.337 L122.232 -39.94 Q122.232 -39.94 122.232 -39.94 Q122.232 -39.94 122.232 -39.94 Q120.486 -38.661 118.528 -38.968 Q116.572 -39.274 115.215 -41.067 Q113.831 -42.704 114.08 -44.876 Q114.328 -47.046 116.076 -48.404 L128.134 -57.157 L122.153 -68.185 L104.938 -60.687 Q101.31 -64.795 96.6 -67.675 Q91.888 -70.555 86.433 -71.323 L84.187 -89.386 H70.61 L68.475 -71.316 Q62.758 -70.152 58.164 -67.514 Q53.57 -64.876 49.662 -60.687 L32.727 -68.185 L26.585 -57.157 L41.627 -46.227 Q40.982 -43.367 40.559 -40.685 Q40.137 -38.005 40.137 -35.315 Q40.137 -32.531 40.519 -29.833 Q40.901 -27.135 41.546 -24.313 L26.585 -13.384 L32.705 -2.356 L49.654 -9.773 Q53.816 -5.573 59.158 -2.798 Q64.5 -0.021 70.347 1.308 V26.05 Q70.347 27.543 69.628 28.485 Q68.907 29.428 67.128 29.428 Z"/></g><g id="Regular-L" transform="matrix(1 0 0 1 1378.56 1556)"><path d="M93.122 28.464 Q89.418 28.464 86.635 25.679 Q83.85 22.896 83.85 19.192 V-13.058 Q83.85 -16.762 86.635 -19.545 Q89.418 -22.33 93.122 -22.33 H138.272 Q141.976 -22.33 144.759 -19.545 Q147.544 -16.762 147.544 -13.058 V19.192 Q147.544 22.896 144.759 25.679 Q141.976 28.464 138.272 28.464 H93.122 Z M93.122 19.192 H138.272 Q138.272 19.192 138.272 19.192 Q138.272 19.192 138.272 19.192 V-13.058 Q138.272 -13.058 138.272 -13.058 Q138.272 -13.058 138.272 -13.058 H93.122 Q93.122 -13.058 93.122 -13.058 Q93.122 -13.058 93.122 -13.058 V19.192 Q93.122 19.192 93.122 19.192 Q93.122 19.192 93.122 19.192 Z M94.089 -37.487 Q92.316 -36.52 90.502 -36.976 Q88.688 -37.431 87.72 -39.1 Q85.946 -42.164 83.286 -44.341 Q80.625 -46.517 77.239 -46.517 Q72.562 -46.517 69.257 -43.27 Q65.951 -40.021 65.951 -35.391 Q65.951 -31.663 68.249 -28.811 Q70.547 -25.958 74.014 -24.507 Q75.626 -23.701 76.473 -22.007 Q77.319 -20.314 76.674 -18.662 Q75.949 -16.847 74.215 -16.082 Q72.482 -15.316 70.627 -15.961 Q64.419 -18.057 60.549 -23.412 Q56.679 -28.767 56.679 -35.357 Q56.679 -43.926 62.565 -49.857 Q68.451 -55.789 77.019 -55.789 Q83.047 -55.789 88.125 -52.564 Q93.203 -49.339 95.863 -43.776 Q96.669 -42.083 96.186 -40.229 Q95.702 -38.374 94.089 -37.487 Z M67.644 28.464 Q65.468 28.464 63.982 27.008 Q62.496 25.552 62.162 23.384 L59.824 8.388 Q56.76 7.259 53.212 5.284 Q49.665 3.309 47.085 1.213 L32.734 7.824 Q30.799 8.63 28.904 8.066 Q27.009 7.501 25.961 5.728 L16.044 -11.929 Q14.996 -13.622 15.448 -15.517 Q15.898 -17.41 17.576 -18.702 L31.041 -28.619 Q30.718 -30.067 30.637 -31.842 Q30.557 -33.617 30.557 -35.23 Q30.557 -36.601 30.637 -38.495 Q30.718 -40.39 31.041 -42.002 L17.657 -51.839 Q15.964 -53.048 15.48 -54.943 Q14.996 -56.837 16.125 -58.611 L25.961 -76.187 Q27.024 -77.927 28.952 -78.55 Q30.879 -79.171 32.734 -78.364 L47.246 -71.672 Q49.665 -73.688 53.092 -75.663 Q56.518 -77.639 59.792 -78.705 L62.323 -94.731 Q62.647 -96.619 64.139 -97.811 Q65.629 -99.004 67.483 -99.004 H87.398 Q89.281 -99.004 90.721 -97.811 Q92.161 -96.619 92.477 -94.731 L95.046 -78.958 Q98.121 -77.8 101.628 -75.865 Q105.135 -73.93 107.554 -71.672 L122.228 -78.364 Q124.082 -79.171 125.902 -78.55 Q127.723 -77.927 128.758 -76.187 L138.756 -58.611 Q139.804 -56.837 139.352 -54.865 Q138.899 -52.893 137.224 -51.839 L121.824 -40.793 Q121.824 -40.793 121.824 -40.793 Q121.824 -40.793 121.824 -40.793 Q120.293 -39.664 118.599 -39.906 Q116.906 -40.148 115.697 -41.761 Q114.487 -43.205 114.696 -45.102 Q114.904 -46.998 116.422 -48.211 L128.597 -57.079 L122.308 -68.609 L105.054 -61.111 Q101.426 -65.142 96.79 -67.964 Q92.154 -70.786 86.752 -71.592 L84.495 -89.732 H70.305 L68.128 -71.585 Q62.484 -70.382 57.969 -67.802 Q53.454 -65.222 49.584 -61.111 L32.572 -68.609 L26.123 -57.079 L41.28 -46.034 Q40.635 -43.212 40.232 -40.58 Q39.829 -37.949 39.829 -35.315 Q39.829 -32.569 40.192 -29.949 Q40.554 -27.329 41.199 -24.507 L26.123 -13.461 L32.55 -1.932 L49.584 -9.349 Q53.777 -5.181 59.138 -2.429 Q64.5 0.326 70.386 1.616 V25.481 Q70.386 26.78 69.705 27.622 Q69.023 28.464 67.644 28.464 Z"/></g><g id="Light-L" transform="matrix(1 0 0 1 1082.77 1556)"><path d="M92.904 25.548 Q89.245 25.548 86.548 22.851 Q83.85 20.153 83.85 16.494 V-13.276 Q83.85 -16.935 86.548 -19.632 Q89.245 -22.33 92.904 -22.33 H135.574 Q139.233 -22.33 141.931 -19.632 Q144.628 -16.935 144.628 -13.276 V16.494 Q144.628 20.153 141.931 22.851 Q139.233 25.548 135.574 25.548 H92.904 Z M92.904 18.479 H135.574 Q136.442 18.479 137 17.92 Q137.559 17.362 137.559 16.494 V-13.276 Q137.559 -14.143 137 -14.701 Q136.442 -15.259 135.574 -15.259 H92.904 Q92.037 -15.259 91.479 -14.701 Q90.921 -14.143 90.921 -13.276 V16.494 Q90.921 17.362 91.479 17.92 Q92.037 18.479 92.904 18.479 Z M92.104 -38.2 Q90.797 -37.389 89.416 -37.72 Q88.036 -38.052 87.223 -39.224 Q85.482 -42.04 82.936 -44.062 Q80.391 -46.084 77.145 -46.084 Q72.65 -46.084 69.471 -42.943 Q66.293 -39.801 66.293 -35.361 Q66.293 -31.897 68.326 -29.238 Q70.361 -26.579 73.549 -25.095 Q74.789 -24.476 75.357 -23.17 Q75.925 -21.866 75.402 -20.616 Q74.833 -19.266 73.486 -18.718 Q72.14 -18.168 70.752 -18.752 Q65.535 -20.6 62.38 -25.152 Q59.222 -29.704 59.222 -35.296 Q59.222 -42.831 64.331 -47.993 Q69.441 -53.153 77.015 -53.153 Q82.208 -53.153 86.574 -50.408 Q90.939 -47.664 93.227 -42.97 Q93.941 -41.68 93.58 -40.29 Q93.22 -38.902 92.104 -38.2 Z M68.233 25.548 Q66.635 25.548 65.543 24.424 Q64.452 23.301 64.177 21.648 L62.025 6.279 Q58.682 5.181 54.764 2.989 Q50.844 0.796 48.077 -1.609 L33.819 4.939 Q32.226 5.59 30.707 5.16 Q29.189 4.728 28.349 3.246 L19.363 -12.55 Q18.531 -13.901 18.878 -15.43 Q19.224 -16.957 20.646 -18.02 L33.832 -27.75 Q33.479 -29.477 33.351 -31.407 Q33.224 -33.339 33.224 -35.136 Q33.224 -36.755 33.351 -38.79 Q33.479 -40.824 33.801 -42.809 L20.696 -52.521 Q19.252 -53.482 18.907 -55.051 Q18.563 -56.62 19.505 -58.053 L28.349 -73.582 Q29.22 -74.994 30.747 -75.486 Q32.274 -75.976 33.788 -75.388 L48.146 -68.912 Q50.968 -71.206 54.688 -73.383 Q58.41 -75.56 61.918 -76.665 L64.339 -92.561 Q64.663 -94.117 65.895 -95.088 Q67.125 -96.058 68.631 -96.058 H86.249 Q87.757 -96.058 88.952 -95.088 Q90.145 -94.117 90.461 -92.561 L92.87 -76.799 Q96.384 -75.475 99.985 -73.446 Q103.584 -71.418 106.438 -68.912 L121.266 -75.388 Q122.687 -75.976 124.183 -75.475 Q125.68 -74.975 126.494 -73.582 L135.437 -57.99 Q136.269 -56.528 135.935 -54.948 Q135.602 -53.367 134.184 -52.521 L118.94 -41.538 Q118.94 -41.538 118.94 -41.538 Q118.94 -41.538 118.94 -41.538 Q117.753 -40.625 116.492 -40.837 Q115.231 -41.048 114.333 -42.257 Q113.372 -43.297 113.533 -44.76 Q113.694 -46.222 114.871 -47.125 L127.821 -56.676 L121.502 -68.051 L104.372 -60.707 Q100.962 -64.429 96.202 -67.343 Q91.442 -70.258 86.535 -70.971 L84.335 -88.988 H70.49 L68.438 -70.995 Q62.918 -69.855 58.574 -67.383 Q54.23 -64.913 50.236 -60.769 L33.409 -68.051 L26.929 -56.676 L41.869 -45.816 Q41.162 -43.212 40.79 -40.592 Q40.417 -37.971 40.417 -35.301 Q40.417 -32.477 40.749 -29.965 Q41.082 -27.453 41.727 -24.786 L26.929 -13.834 L33.374 -2.459 L50.205 -9.691 Q54.274 -5.579 59.511 -2.891 Q64.748 -0.202 70.571 0.995 V22.999 Q70.571 24.175 69.958 24.861 Q69.344 25.548 68.233 25.548 Z"/></g><g id="Thin-L" transform="matrix(1 0 0 1 787.282 1556)"><path d="M92.688 22.635 Q89.075 22.635 86.462 20.022 Q83.85 17.41 83.85 13.796 V-13.492 Q83.85 -17.105 86.462 -19.718 Q89.075 -22.33 92.688 -22.33 H132.876 Q136.49 -22.33 139.102 -19.718 Q141.715 -17.105 141.715 -13.492 V13.796 Q141.715 17.41 139.102 20.022 Q136.49 22.635 132.876 22.635 H92.688 Z M92.688 17.765 H132.876 Q134.613 17.765 135.729 16.649 Q136.845 15.533 136.845 13.796 V-13.492 Q136.845 -15.229 135.729 -16.344 Q134.613 -17.462 132.876 -17.462 H92.688 Q90.951 -17.462 89.836 -16.344 Q88.718 -15.229 88.718 -13.492 V13.796 Q88.718 15.533 89.836 16.649 Q90.951 17.765 92.688 17.765 Z M90.119 -38.915 Q89.276 -38.257 88.331 -38.465 Q87.385 -38.673 86.728 -39.348 Q85.016 -41.915 82.587 -43.783 Q80.157 -45.65 77.053 -45.65 Q72.738 -45.65 69.686 -42.615 Q66.633 -39.582 66.633 -35.33 Q66.633 -32.131 68.404 -29.665 Q70.174 -27.198 73.083 -25.686 Q73.952 -25.252 74.239 -24.333 Q74.528 -23.415 74.131 -22.569 Q73.715 -21.685 72.758 -21.353 Q71.8 -21.021 70.876 -21.543 Q66.653 -23.143 64.208 -26.892 Q61.765 -30.642 61.765 -35.233 Q61.765 -41.736 66.098 -46.127 Q70.429 -50.518 77.008 -50.518 Q81.37 -50.518 85.022 -48.254 Q88.675 -45.99 90.592 -42.164 Q91.211 -41.277 90.976 -40.353 Q90.74 -39.429 90.119 -38.915 Z M68.823 22.635 Q67.804 22.635 67.104 21.843 Q66.406 21.051 66.193 19.911 L64.227 4.171 Q60.606 3.104 56.313 0.695 Q52.022 -1.714 49.07 -4.431 L34.904 2.056 Q33.651 2.552 32.511 2.254 Q31.37 1.956 30.737 0.766 L22.68 -13.169 Q22.067 -14.18 22.309 -15.343 Q22.551 -16.504 23.717 -17.338 L36.623 -26.882 Q36.238 -28.888 36.064 -30.973 Q35.891 -33.06 35.891 -35.045 Q35.891 -36.91 36.064 -39.084 Q36.238 -41.258 36.56 -43.615 L23.734 -53.203 Q22.538 -53.916 22.333 -55.16 Q22.128 -56.404 22.885 -57.495 L30.737 -70.978 Q31.416 -72.061 32.543 -72.422 Q33.671 -72.782 34.843 -72.411 L49.044 -66.153 Q52.269 -68.726 56.286 -71.105 Q60.301 -73.483 64.045 -74.625 L66.354 -90.39 Q66.677 -91.614 67.649 -92.362 Q68.623 -93.112 69.778 -93.112 H85.103 Q86.235 -93.112 87.183 -92.362 Q88.131 -91.614 88.446 -90.39 L90.695 -74.639 Q94.647 -73.148 98.342 -71.027 Q102.034 -68.907 105.32 -66.153 L120.305 -72.411 Q121.291 -72.782 122.463 -72.401 Q123.635 -72.021 124.23 -70.978 L132.12 -57.371 Q132.733 -56.217 132.52 -55.03 Q132.306 -53.841 131.146 -53.203 L116.056 -42.281 Q116.056 -42.281 116.056 -42.281 Q116.056 -42.281 116.056 -42.281 Q115.213 -41.586 114.384 -41.767 Q113.557 -41.946 112.969 -42.752 Q112.254 -43.391 112.37 -44.42 Q112.485 -45.447 113.322 -46.04 L127.046 -56.273 L120.696 -67.493 L103.69 -60.304 Q100.496 -63.715 95.612 -66.724 Q90.727 -69.731 86.319 -70.352 L84.176 -88.244 H70.677 L68.749 -70.403 Q63.352 -69.328 59.179 -66.966 Q55.006 -64.602 50.887 -60.429 L34.246 -67.493 L27.735 -56.273 L42.459 -45.6 Q41.69 -43.212 41.348 -40.603 Q41.007 -37.994 41.007 -35.285 Q41.007 -32.386 41.307 -29.981 Q41.609 -27.577 42.254 -25.065 L27.735 -14.206 L34.198 -2.986 L50.824 -10.031 Q54.769 -5.978 59.883 -3.354 Q64.997 -0.729 70.758 0.376 V20.519 Q70.758 21.57 70.211 22.102 Q69.665 22.635 68.823 22.635 Z"/></g><g id="Ultralight-L" transform="matrix(1 0 0 1 491.205 1556)"><path d="M92.558 20.885 Q88.971 20.885 86.411 18.324 Q83.85 15.764 83.85 12.178 V-13.622 Q83.85 -17.209 86.411 -19.769 Q88.971 -22.33 92.558 -22.33 H131.257 Q134.844 -22.33 137.404 -19.769 Q139.965 -17.209 139.965 -13.622 V12.178 Q139.965 15.764 137.404 18.324 Q134.844 20.885 131.257 20.885 H92.558 Z M92.558 17.338 H131.257 Q133.515 17.338 134.966 15.886 Q136.417 14.435 136.417 12.178 V-13.622 Q136.417 -15.88 134.966 -17.331 Q133.515 -18.782 131.257 -18.782 H92.558 Q90.3 -18.782 88.849 -17.331 Q87.398 -15.88 87.398 -13.622 V12.178 Q87.398 14.435 88.849 15.886 Q90.3 17.338 92.558 17.338 Z M88.929 -39.342 Q88.365 -38.777 87.68 -38.911 Q86.994 -39.044 86.43 -39.422 Q84.737 -41.841 82.378 -43.615 Q80.017 -45.389 76.997 -45.389 Q72.791 -45.389 69.815 -42.419 Q66.838 -39.45 66.838 -35.311 Q66.838 -32.271 68.451 -29.92 Q70.063 -27.571 72.804 -26.039 Q73.449 -25.716 73.57 -25.031 Q73.691 -24.346 73.369 -23.741 Q73.046 -23.136 72.321 -22.935 Q71.595 -22.733 70.95 -23.217 Q67.322 -24.668 65.306 -27.937 Q63.291 -31.204 63.291 -35.196 Q63.291 -41.08 67.157 -45.008 Q71.024 -48.936 77.005 -48.936 Q80.865 -48.936 84.092 -46.961 Q87.317 -44.986 89.01 -41.68 Q89.574 -41.035 89.413 -40.39 Q89.252 -39.745 88.929 -39.342 Z M69.176 20.885 Q68.504 20.885 68.041 20.293 Q67.58 19.7 67.403 18.869 L65.548 2.906 Q61.759 1.858 57.244 -0.682 Q52.729 -3.222 49.665 -6.124 L35.556 0.326 Q34.508 0.729 33.593 0.511 Q32.679 0.292 32.169 -0.722 L24.671 -13.542 Q24.188 -14.348 24.366 -15.29 Q24.547 -16.233 25.558 -16.928 L38.297 -26.361 Q37.894 -28.535 37.692 -30.713 Q37.491 -32.892 37.491 -34.988 Q37.491 -37.004 37.692 -39.261 Q37.894 -41.519 38.216 -44.099 L25.558 -53.612 Q24.51 -54.177 24.389 -55.225 Q24.268 -56.273 24.913 -57.16 L32.169 -69.415 Q32.734 -70.302 33.621 -70.584 Q34.508 -70.866 35.475 -70.624 L49.584 -64.497 Q53.051 -67.238 57.244 -69.737 Q61.436 -72.237 65.322 -73.403 L67.564 -89.087 Q67.886 -90.111 68.704 -90.729 Q69.521 -91.345 70.466 -91.345 H84.414 Q85.321 -91.345 86.122 -90.729 Q86.922 -90.111 87.236 -89.087 L89.391 -73.345 Q93.606 -71.753 97.355 -69.576 Q101.104 -67.399 104.651 -64.497 L119.728 -70.624 Q120.454 -70.866 121.431 -70.558 Q122.408 -70.249 122.873 -69.415 L130.129 -56.999 Q130.613 -56.031 130.471 -55.078 Q130.327 -54.125 129.322 -53.612 L114.326 -42.728 Q114.326 -42.728 114.326 -42.728 Q114.326 -42.728 114.326 -42.728 Q113.688 -42.164 113.12 -42.325 Q112.553 -42.486 112.149 -43.051 Q111.585 -43.447 111.672 -44.215 Q111.759 -44.982 112.391 -45.389 L126.581 -56.031 L120.212 -67.157 L103.281 -60.062 Q100.217 -63.287 95.258 -66.351 Q90.3 -69.415 86.188 -69.979 L84.081 -87.797 H70.789 L68.934 -70.049 Q63.613 -69.012 59.542 -66.714 Q55.47 -64.416 51.278 -60.224 L34.749 -67.157 L28.219 -56.031 L42.812 -45.469 Q42.006 -43.212 41.683 -40.609 Q41.361 -38.007 41.361 -35.277 Q41.361 -32.331 41.643 -29.991 Q41.925 -27.651 42.57 -25.232 L28.219 -14.429 L34.691 -3.302 L51.197 -10.236 Q55.067 -6.218 60.106 -3.631 Q65.145 -1.045 70.869 0.003 V19.031 Q70.869 20.008 70.363 20.446 Q69.857 20.885 69.176 20.885 Z"/></g><g id="Bold-M" transform="matrix(1 0 0 1 2281.8 1126)"><path d="M80.125 17.77 Q73.757 17.77 69.379 13.391 Q65 9.013 65 2.645 V-10.105 Q65 -16.472 69.379 -20.851 Q73.757 -25.23 80.125 -25.23 H103.625 Q109.993 -25.23 114.371 -20.851 Q118.75 -16.472 118.75 -10.105 V2.645 Q118.75 9.013 114.371 13.391 Q109.993 17.77 103.625 17.77 H80.125 Z M80.125 2.645 H103.625 Q103.625 2.645 103.625 2.645 Q103.625 2.645 103.625 2.645 V-10.105 Q103.625 -10.105 103.625 -10.105 Q103.625 -10.105 103.625 -10.105 H80.125 Q80.125 -10.105 80.125 -10.105 Q80.125 -10.105 80.125 -10.105 V2.645 Q80.125 2.645 80.125 2.645 Q80.125 2.645 80.125 2.645 Z M72.938 -34.792 Q70.812 -33.73 68.588 -34.496 Q66.362 -35.264 65.25 -37.355 Q64.312 -39.105 62.884 -40.167 Q61.455 -41.23 59.58 -41.23 Q57.062 -41.23 55.312 -39.484 Q53.562 -37.736 53.562 -35.167 Q53.562 -33.09 55.156 -31.754 Q56.75 -30.417 58.438 -29.23 Q60.438 -27.98 61.188 -25.761 Q61.938 -23.542 60.875 -21.48 Q59.75 -19.292 57.531 -18.73 Q55.312 -18.167 53 -19.042 Q48.188 -21.23 45.125 -25.542 Q42.062 -29.855 42.062 -35.23 Q42.062 -42.48 47.169 -47.605 Q52.275 -52.73 59.485 -52.73 Q64.706 -52.73 68.916 -49.949 Q73.125 -47.167 75.5 -42.48 Q76.375 -40.371 75.719 -38.112 Q75.062 -35.855 72.938 -34.792 Z M49.625 17.77 Q46.854 17.77 44.781 15.968 Q42.709 14.166 42.375 11.458 L41.062 0.833 Q40.385 0.506 39.568 0.108 Q38.75 -0.292 38.125 -0.667 L29.688 2.833 Q26.625 4.145 23.438 3.145 Q20.25 2.145 18.562 -0.855 L9.5 -16.792 Q7.938 -19.621 8.531 -22.864 Q9.125 -26.105 11.812 -28.167 L19.188 -33.855 Q19.188 -34.142 19.188 -34.41 Q19.188 -34.679 19.188 -35.219 Q19.188 -35.447 19.219 -35.839 Q19.25 -36.23 19.25 -36.855 L11.938 -42.23 Q9.125 -44.292 8.5 -47.48 Q7.875 -50.667 9.562 -53.73 L18.562 -69.48 Q20.261 -72.329 23.413 -73.374 Q26.562 -74.417 29.625 -73.167 L38.562 -69.542 Q39.062 -69.917 39.594 -70.23 Q40.125 -70.542 41.062 -70.917 L42.375 -80.605 Q42.939 -84.006 45.345 -86.18 Q47.75 -88.355 51.125 -88.355 H68.938 Q72.335 -88.355 74.701 -86.18 Q77.067 -84.006 77.625 -80.605 L78.938 -71.105 Q79.74 -70.812 80.37 -70.459 Q81 -70.105 81.625 -69.542 L90.438 -73.167 Q93.5 -74.542 96.639 -73.431 Q99.778 -72.32 101.5 -69.48 L110.5 -53.73 Q112.188 -50.73 111.494 -47.482 Q110.799 -44.235 108 -42.23 L97.625 -34.792 Q97.625 -34.792 97.625 -34.792 Q97.625 -34.792 97.625 -34.792 Q95.125 -32.98 92.062 -33.511 Q89 -34.042 87.125 -36.542 Q85.312 -38.98 85.79 -42.027 Q86.267 -45.075 88.75 -46.98 L94.5 -51.23 L91.062 -57.355 L78.688 -51.98 Q76.25 -54.98 72.625 -57.105 Q69 -59.23 65.188 -60.042 L63.571 -73.23 H56.375 L54.938 -60.23 Q50.562 -59.292 47.188 -57.386 Q43.812 -55.48 40.75 -52.105 L28.812 -57.355 L25.375 -51.23 L35.562 -43.667 Q34.938 -41.417 34.562 -39.445 Q34.188 -37.474 34.188 -35.296 Q34.188 -33.292 34.531 -31.23 Q34.875 -29.167 35.5 -26.855 L25.375 -19.355 L28.823 -13.23 L40.66 -18.355 Q43.562 -15.355 47.219 -13.355 Q50.875 -11.355 54.938 -10.167 V12.208 Q54.938 14.498 53.836 16.134 Q52.735 17.77 49.625 17.77 Z"/></g><g id="Semibold-M" transform="matrix(1 0 0 1 1985.97 1126)"><path d="M77.625 15.923 Q72.345 15.923 68.672 12.25 Q65 8.578 65 3.298 V-12.605 Q65 -17.885 68.672 -21.557 Q72.345 -25.23 77.625 -25.23 H103.951 Q109.231 -25.23 112.904 -21.557 Q116.576 -17.885 116.576 -12.605 V3.298 Q116.576 8.578 112.904 12.25 Q109.231 15.923 103.951 15.923 H77.625 Z M77.625 3.298 H103.951 Q103.951 3.298 103.951 3.298 Q103.951 3.298 103.951 3.298 V-12.605 Q103.951 -12.605 103.951 -12.605 Q103.951 -12.605 103.951 -12.605 H77.625 Q77.625 -12.605 77.625 -12.605 Q77.625 -12.605 77.625 -12.605 V3.298 Q77.625 3.298 77.625 3.298 Q77.625 3.298 77.625 3.298 Z M73.1 -35.227 Q71.139 -34.219 69.066 -34.929 Q66.993 -35.637 65.956 -37.572 Q64.965 -39.485 63.383 -40.684 Q61.8 -41.882 59.735 -41.882 Q56.954 -41.882 55.014 -39.962 Q53.074 -38.044 53.074 -35.221 Q53.074 -33.09 54.531 -31.564 Q55.989 -30.037 57.785 -28.85 Q59.623 -27.709 60.373 -25.707 Q61.123 -23.705 60.169 -21.806 Q59.153 -19.781 57.096 -19.165 Q55.041 -18.547 52.946 -19.422 Q48.241 -21.556 45.37 -25.787 Q42.498 -30.017 42.498 -35.23 Q42.498 -42.367 47.53 -47.412 Q52.564 -52.459 59.67 -52.459 Q64.815 -52.459 68.998 -49.731 Q73.179 -47.005 75.446 -42.371 Q76.321 -40.419 75.691 -38.327 Q75.062 -36.235 73.1 -35.227 Z M50.549 15.923 Q48.086 15.923 46.249 14.32 Q44.411 12.716 44.114 10.316 L42.748 -0.417 Q41.657 -0.9 40.476 -1.52 Q39.294 -2.14 38.343 -2.787 L29.85 0.713 Q27.005 1.918 24.09 0.971 Q21.174 0.025 19.595 -2.702 L11.565 -16.739 Q10.057 -19.37 10.651 -22.384 Q11.245 -25.399 13.715 -27.297 L21.144 -32.985 Q21.09 -33.5 21.09 -33.979 Q21.09 -34.456 21.09 -35.224 Q21.09 -35.679 21.121 -36.281 Q21.152 -36.882 21.206 -37.725 L13.84 -43.154 Q11.299 -45.054 10.674 -48.024 Q10.049 -50.994 11.627 -53.784 L19.595 -67.686 Q21.185 -70.319 24.091 -71.309 Q26.997 -72.297 29.843 -71.102 L38.671 -67.477 Q39.498 -68.124 40.464 -68.681 Q41.429 -69.239 42.748 -69.776 L44.005 -79.355 Q44.46 -82.485 46.73 -84.496 Q49 -86.507 52.104 -86.507 H67.959 Q71.085 -86.507 73.315 -84.496 Q75.545 -82.485 75.995 -79.355 L77.252 -69.964 Q78.468 -69.5 79.461 -68.905 Q80.456 -68.311 81.407 -67.477 L90.166 -71.102 Q93.011 -72.369 95.915 -71.341 Q98.819 -70.314 100.412 -67.686 L108.38 -53.784 Q109.96 -51.056 109.32 -48.054 Q108.68 -45.05 106.153 -43.154 L96.864 -36.422 Q96.864 -36.422 96.864 -36.422 Q96.864 -36.422 96.864 -36.422 Q94.745 -34.882 92.199 -35.305 Q89.653 -35.727 88.076 -37.846 Q86.562 -39.904 86.956 -42.455 Q87.351 -45.005 89.403 -46.6 L95.37 -51.067 L91.389 -58.17 L78.905 -52.795 Q76.468 -55.632 72.979 -57.675 Q69.489 -59.719 65.785 -60.586 L64.169 -73.882 H55.831 L54.285 -60.719 Q50.074 -59.727 46.861 -57.902 Q43.65 -56.077 40.641 -52.92 L28.541 -58.17 L24.505 -51.067 L34.91 -43.341 Q34.285 -41.2 33.965 -39.297 Q33.644 -37.395 33.644 -35.296 Q33.644 -33.346 33.934 -31.392 Q34.222 -29.439 34.847 -27.235 L24.505 -19.517 L28.55 -12.415 L40.564 -17.594 Q43.509 -14.594 47.191 -12.594 Q50.875 -10.594 54.991 -9.57 V11.12 Q54.991 13.098 53.972 14.51 Q52.953 15.923 50.549 15.923 Z"/></g><g id="Medium-M" transform="matrix(1 0 0 1 1689.91 1126)"><path d="M75.75 14.536 Q71.285 14.536 68.142 11.394 Q65 8.251 65 3.786 V-14.48 Q65 -18.945 68.142 -22.087 Q71.285 -25.23 75.75 -25.23 H104.196 Q108.661 -25.23 111.804 -22.087 Q114.946 -18.945 114.946 -14.48 V3.786 Q114.946 8.251 111.804 11.394 Q108.661 14.536 104.196 14.536 H75.75 Z M75.75 3.786 H104.196 Q104.196 3.786 104.196 3.786 Q104.196 3.786 104.196 3.786 V-14.48 Q104.196 -14.48 104.196 -14.48 Q104.196 -14.48 104.196 -14.48 H75.75 Q75.75 -14.48 75.75 -14.48 Q75.75 -14.48 75.75 -14.48 V3.786 Q75.75 3.786 75.75 3.786 Q75.75 3.786 75.75 3.786 Z M73.222 -35.554 Q71.384 -34.586 69.425 -35.252 Q67.466 -35.919 66.486 -37.735 Q65.454 -39.771 63.756 -41.071 Q62.06 -42.371 59.852 -42.371 Q56.873 -42.371 54.79 -40.322 Q52.706 -38.275 52.706 -35.262 Q52.706 -33.09 54.062 -31.421 Q55.419 -29.751 57.296 -28.564 Q59.011 -27.505 59.761 -25.666 Q60.511 -23.827 59.639 -22.051 Q58.704 -20.149 56.77 -19.491 Q54.837 -18.834 52.905 -19.709 Q48.282 -21.801 45.553 -25.97 Q42.824 -30.14 42.824 -35.23 Q42.824 -42.282 47.801 -47.269 Q52.779 -52.255 59.807 -52.255 Q64.897 -52.255 69.059 -49.569 Q73.22 -46.882 75.405 -42.29 Q76.28 -40.454 75.671 -38.487 Q75.062 -36.521 73.222 -35.554 Z M51.241 14.536 Q49.01 14.536 47.349 13.083 Q45.689 11.63 45.419 9.46 L44.011 -1.355 Q42.612 -1.956 41.156 -2.741 Q39.701 -3.526 38.505 -4.376 L29.973 -0.876 Q27.291 0.245 24.579 -0.659 Q21.866 -1.564 20.37 -4.089 L13.114 -16.697 Q11.646 -19.181 12.24 -22.025 Q12.834 -24.869 15.141 -26.646 L22.611 -32.334 Q22.516 -33.017 22.516 -33.654 Q22.516 -34.29 22.516 -35.227 Q22.516 -35.852 22.547 -36.612 Q22.579 -37.371 22.674 -38.376 L15.266 -43.846 Q12.929 -45.624 12.304 -48.431 Q11.679 -51.239 13.176 -53.825 L20.37 -66.341 Q21.879 -68.81 24.601 -69.759 Q27.324 -70.709 30.005 -69.554 L38.752 -65.929 Q39.824 -66.779 41.115 -67.52 Q42.407 -68.26 44.011 -68.92 L45.229 -78.417 Q45.602 -81.344 47.77 -83.232 Q49.938 -85.121 52.837 -85.121 H67.225 Q70.147 -85.121 72.276 -83.232 Q74.404 -81.344 74.771 -78.417 L75.989 -69.107 Q77.513 -68.515 78.781 -67.74 Q80.049 -66.966 81.245 -65.929 L89.963 -69.554 Q92.644 -70.739 95.373 -69.772 Q98.1 -68.807 99.597 -66.341 L106.791 -53.825 Q108.287 -51.301 107.689 -48.481 Q107.09 -45.662 104.766 -43.846 L96.294 -37.646 Q96.294 -37.646 96.294 -37.646 Q96.294 -37.646 96.294 -37.646 Q94.459 -36.309 92.3 -36.65 Q90.141 -36.991 88.79 -38.825 Q87.5 -40.596 87.832 -42.775 Q88.164 -44.952 89.891 -46.314 L96.021 -50.945 L91.634 -58.781 L79.067 -53.406 Q76.63 -56.121 73.244 -58.104 Q69.856 -60.086 66.234 -60.994 L64.618 -74.371 H55.424 L53.796 -61.086 Q49.706 -60.054 46.616 -58.29 Q43.528 -56.526 40.56 -53.531 L28.337 -58.781 L23.854 -50.945 L34.421 -43.096 Q33.796 -41.037 33.516 -39.186 Q33.236 -37.336 33.236 -35.296 Q33.236 -33.387 33.485 -31.515 Q33.734 -29.642 34.359 -27.521 L23.854 -19.64 L28.346 -11.804 L40.491 -17.024 Q43.468 -14.024 47.171 -12.024 Q50.875 -10.024 55.032 -9.121 V10.305 Q55.032 12.048 54.074 13.293 Q53.115 14.536 51.241 14.536 Z"/></g><g id="Regular-M" transform="matrix(1 0 0 1 1394.06 1126)"><path d="M74.375 13.52 Q70.507 13.52 67.754 10.766 Q65 8.013 65 4.145 V-15.855 Q65 -19.722 67.754 -22.476 Q70.507 -25.23 74.375 -25.23 H104.375 Q108.243 -25.23 110.996 -22.476 Q113.75 -19.722 113.75 -15.855 V4.145 Q113.75 8.013 110.996 10.766 Q108.243 13.52 104.375 13.52 H74.375 Z M74.375 4.145 H104.375 Q104.375 4.145 104.375 4.145 Q104.375 4.145 104.375 4.145 V-15.855 Q104.375 -15.855 104.375 -15.855 Q104.375 -15.855 104.375 -15.855 H74.375 Q74.375 -15.855 74.375 -15.855 Q74.375 -15.855 74.375 -15.855 V4.145 Q74.375 4.145 74.375 4.145 Q74.375 4.145 74.375 4.145 Z M73.312 -35.792 Q71.562 -34.855 69.688 -35.49 Q67.812 -36.124 66.875 -37.855 Q65.812 -39.98 64.031 -41.355 Q62.25 -42.73 59.938 -42.73 Q56.812 -42.73 54.625 -40.587 Q52.438 -38.444 52.438 -35.292 Q52.438 -33.09 53.719 -31.316 Q55 -29.542 56.938 -28.355 Q58.562 -27.355 59.312 -25.636 Q60.062 -23.917 59.25 -22.23 Q58.375 -20.417 56.531 -19.73 Q54.688 -19.042 52.875 -19.917 Q48.312 -21.98 45.688 -26.105 Q43.062 -30.23 43.062 -35.23 Q43.062 -42.221 48 -47.162 Q52.938 -52.105 59.909 -52.105 Q64.956 -52.105 69.104 -49.449 Q73.25 -46.792 75.375 -42.23 Q76.25 -40.48 75.656 -38.605 Q75.062 -36.73 73.312 -35.792 Z M51.75 13.52 Q49.688 13.52 48.156 12.176 Q46.625 10.833 46.375 8.833 L44.938 -2.042 Q43.312 -2.73 41.656 -3.636 Q40 -4.542 38.625 -5.542 L30.062 -2.042 Q27.5 -0.98 24.938 -1.855 Q22.375 -2.73 20.938 -5.105 L14.25 -16.667 Q12.812 -19.042 13.406 -21.761 Q14 -24.48 16.188 -26.167 L23.688 -31.855 Q23.562 -32.665 23.562 -33.416 Q23.562 -34.167 23.562 -35.23 Q23.562 -35.98 23.594 -36.855 Q23.625 -37.73 23.75 -38.855 L16.312 -44.355 Q14.125 -46.042 13.5 -48.73 Q12.875 -51.417 14.312 -53.855 L20.938 -65.355 Q22.386 -67.704 24.975 -68.624 Q27.562 -69.542 30.125 -68.417 L38.812 -64.792 Q40.062 -65.792 41.594 -66.667 Q43.125 -67.542 44.938 -68.292 L46.125 -77.73 Q46.439 -80.506 48.532 -82.305 Q50.625 -84.105 53.375 -84.105 H66.688 Q69.46 -84.105 71.514 -82.305 Q73.567 -80.506 73.875 -77.73 L75.062 -68.48 Q76.812 -67.792 78.281 -66.886 Q79.75 -65.98 81.125 -64.792 L89.812 -68.417 Q92.375 -69.542 94.974 -68.624 Q97.573 -67.704 99 -65.355 L105.625 -53.855 Q107.062 -51.48 106.494 -48.795 Q105.924 -46.11 103.75 -44.355 L95.875 -38.542 Q95.875 -38.542 95.875 -38.542 Q95.875 -38.542 95.875 -38.542 Q94.25 -37.355 92.375 -37.636 Q90.5 -37.917 89.312 -39.542 Q88.188 -41.105 88.474 -43.01 Q88.76 -44.915 90.25 -46.105 L96.5 -50.855 L91.812 -59.23 L79.188 -53.855 Q76.75 -56.48 73.438 -58.417 Q70.125 -60.355 66.562 -61.292 L64.946 -74.73 H55.125 L53.438 -61.355 Q49.438 -60.292 46.438 -58.574 Q43.438 -56.855 40.5 -53.98 L28.188 -59.23 L23.375 -50.855 L34.062 -42.917 Q33.438 -40.917 33.188 -39.105 Q32.938 -37.292 32.938 -35.296 Q32.938 -33.417 33.156 -31.605 Q33.375 -29.792 34 -27.73 L23.375 -19.73 L28.198 -11.355 L40.438 -16.605 Q43.438 -13.605 47.156 -11.605 Q50.875 -9.605 55.062 -8.792 V9.708 Q55.062 11.278 54.149 12.399 Q53.235 13.52 51.75 13.52 Z"/></g><g id="Light-M" transform="matrix(1 0 0 1 1098.18 1126)"><path d="M73.534 11.26 Q69.979 11.26 67.49 8.771 Q65 6.281 65 2.726 V-16.696 Q65 -20.251 67.49 -22.74 Q69.979 -25.23 73.534 -25.23 H102.956 Q106.511 -25.23 109.001 -22.74 Q111.49 -20.251 111.49 -16.696 V2.726 Q111.49 6.281 109.001 8.771 Q106.511 11.26 102.956 11.26 H73.534 Z M73.534 4.265 H102.956 Q103.63 4.265 104.062 3.833 Q104.495 3.4 104.495 2.726 V-16.696 Q104.495 -17.37 104.062 -17.802 Q103.63 -18.235 102.956 -18.235 H73.534 Q72.86 -18.235 72.427 -17.802 Q71.995 -17.37 71.995 -16.696 V2.726 Q71.995 3.4 72.427 3.833 Q72.86 4.265 73.534 4.265 Z M71.581 -36.682 Q70.289 -35.961 68.894 -36.379 Q67.5 -36.797 66.779 -38.047 Q65.596 -40.027 63.833 -41.379 Q62.069 -42.73 59.818 -42.73 Q56.693 -42.73 54.505 -40.574 Q52.318 -38.416 52.318 -35.269 Q52.318 -33.079 53.539 -31.335 Q54.76 -29.59 56.625 -28.427 Q57.818 -27.667 58.351 -26.37 Q58.885 -25.071 58.264 -23.816 Q57.606 -22.485 56.206 -22.014 Q54.807 -21.542 53.453 -22.225 Q49.659 -24.047 47.49 -27.535 Q45.322 -31.024 45.322 -35.23 Q45.322 -41.261 49.539 -45.492 Q53.755 -49.725 59.786 -49.725 Q64.066 -49.725 67.564 -47.49 Q71.062 -45.254 72.948 -41.461 Q73.605 -40.167 73.229 -38.774 Q72.851 -37.379 71.581 -36.682 Z M52.447 11.26 Q50.93 11.26 49.815 10.243 Q48.7 9.224 48.515 7.726 L47.125 -3.629 Q45.091 -4.341 42.81 -5.584 Q40.529 -6.826 38.865 -8.211 L29.558 -4.326 Q27.644 -3.529 25.731 -4.162 Q23.817 -4.797 22.74 -6.595 L16.438 -17.436 Q15.361 -19.211 15.801 -21.237 Q16.242 -23.264 17.894 -24.532 L26.091 -30.701 Q25.895 -31.775 25.834 -32.839 Q25.774 -33.902 25.774 -35.157 Q25.774 -36.149 25.865 -37.3 Q25.957 -38.451 26.13 -39.961 L17.995 -45.99 Q16.336 -47.245 15.893 -49.271 Q15.447 -51.297 16.549 -53.134 L22.74 -63.769 Q23.841 -65.512 25.762 -66.194 Q27.683 -66.874 29.596 -66.061 L38.981 -62.124 Q40.688 -63.532 42.76 -64.732 Q44.831 -65.931 47.068 -66.759 L48.409 -77.056 Q48.675 -79.136 50.251 -80.479 Q51.828 -81.821 53.88 -81.821 H66.183 Q68.237 -81.821 69.784 -80.479 Q71.331 -79.136 71.591 -77.056 L72.895 -66.854 Q75.226 -65.99 77.079 -64.866 Q78.933 -63.744 80.789 -62.124 L90.461 -66.061 Q92.351 -66.874 94.29 -66.192 Q96.229 -65.51 97.294 -63.769 L103.485 -53.086 Q104.562 -51.287 104.134 -49.291 Q103.705 -47.295 102.067 -45.99 L92.918 -39.264 Q92.918 -39.264 92.918 -39.264 Q92.918 -39.264 92.918 -39.264 Q91.704 -38.389 90.332 -38.597 Q88.961 -38.807 88.086 -40.024 Q87.226 -41.177 87.429 -42.577 Q87.63 -43.977 88.76 -44.879 L96.669 -50.879 L91.909 -59.277 L79.14 -53.879 Q76.87 -56.36 73.365 -58.417 Q69.86 -60.475 66.539 -61.292 L64.968 -74.826 H55.078 L53.485 -61.377 Q49.534 -60.412 46.546 -58.73 Q43.557 -57.047 40.476 -54.004 L28.115 -59.277 L23.231 -50.879 L33.99 -42.894 Q33.365 -41.014 33.115 -39.137 Q32.865 -37.261 32.865 -35.261 Q32.865 -33.346 33.084 -31.545 Q33.303 -29.745 33.88 -27.754 L23.231 -19.682 L28.115 -11.282 L40.39 -16.532 Q43.39 -13.557 47.133 -11.592 Q50.875 -9.629 55.062 -8.745 V8.265 Q55.062 9.499 54.321 10.379 Q53.58 11.26 52.447 11.26 Z"/></g><g id="Thin-M" transform="matrix(1 0 0 1 802.565 1126)"><path d="M72.692 9.001 Q69.45 9.001 67.225 6.776 Q65 4.551 65 1.309 V-17.537 Q65 -20.78 67.225 -23.005 Q69.45 -25.23 72.692 -25.23 H101.539 Q104.781 -25.23 107.006 -23.005 Q109.231 -20.78 109.231 -17.537 V1.309 Q109.231 4.551 107.006 6.776 Q104.781 9.001 101.539 9.001 H72.692 Z M72.692 4.385 H101.539 Q102.885 4.385 103.75 3.52 Q104.615 2.655 104.615 1.309 V-17.537 Q104.615 -18.884 103.75 -19.749 Q102.885 -20.615 101.539 -20.615 H72.692 Q71.346 -20.615 70.481 -19.749 Q69.615 -18.884 69.615 -17.537 V1.309 Q69.615 2.655 70.481 3.52 Q71.346 4.385 72.692 4.385 Z M69.851 -37.571 Q69.015 -37.066 68.101 -37.269 Q67.188 -37.47 66.683 -38.24 Q65.38 -40.076 63.634 -41.402 Q61.888 -42.73 59.697 -42.73 Q56.572 -42.73 54.385 -40.559 Q52.197 -38.389 52.197 -35.245 Q52.197 -33.067 53.359 -31.354 Q54.519 -29.639 56.312 -28.499 Q57.072 -27.98 57.39 -27.102 Q57.706 -26.225 57.279 -25.402 Q56.836 -24.552 55.883 -24.297 Q54.928 -24.042 54.029 -24.532 Q51.005 -26.115 49.294 -28.965 Q47.581 -31.816 47.581 -35.23 Q47.581 -40.301 51.078 -43.824 Q54.572 -47.345 59.664 -47.345 Q63.175 -47.345 66.025 -45.53 Q68.875 -43.715 70.519 -40.691 Q70.961 -39.855 70.8 -38.941 Q70.64 -38.027 69.851 -37.571 Z M53.144 9.001 Q52.171 9.001 51.474 8.308 Q50.775 7.615 50.654 6.621 L49.312 -5.215 Q46.87 -5.951 43.964 -7.53 Q41.057 -9.11 39.106 -10.879 L29.052 -6.61 Q27.789 -6.076 26.524 -6.47 Q25.26 -6.865 24.544 -8.086 L18.625 -18.206 Q17.909 -19.379 18.196 -20.712 Q18.484 -22.047 19.601 -22.899 L28.495 -29.547 Q28.226 -30.885 28.106 -32.262 Q27.985 -33.639 27.985 -35.086 Q27.985 -36.316 28.137 -37.745 Q28.289 -39.172 28.51 -41.066 L19.677 -47.624 Q18.547 -48.446 18.284 -49.811 Q18.019 -51.177 18.784 -52.412 L24.544 -62.182 Q25.295 -63.321 26.549 -63.764 Q27.802 -64.206 29.067 -63.706 L39.149 -59.456 Q41.312 -61.274 43.925 -62.797 Q46.539 -64.321 49.197 -65.226 L50.693 -76.384 Q50.91 -77.766 51.97 -78.651 Q53.03 -79.537 54.385 -79.537 H65.677 Q67.015 -79.537 68.055 -78.651 Q69.096 -77.766 69.308 -76.384 L70.729 -65.229 Q73.64 -64.186 75.877 -62.847 Q78.115 -61.509 80.453 -59.456 L91.11 -63.706 Q92.328 -64.206 93.606 -63.761 Q94.885 -63.317 95.586 -62.182 L101.346 -52.316 Q102.062 -51.095 101.774 -49.787 Q101.486 -48.48 100.385 -47.624 L89.961 -39.985 Q89.961 -39.985 89.961 -39.985 Q89.961 -39.985 89.961 -39.985 Q89.157 -39.422 88.29 -39.559 Q87.422 -39.696 86.86 -40.504 Q86.265 -41.249 86.382 -42.145 Q86.501 -43.04 87.269 -43.652 L96.836 -50.902 L92.005 -59.326 L79.091 -53.902 Q76.99 -56.24 73.294 -58.417 Q69.596 -60.595 66.515 -61.292 L64.987 -74.922 H55.029 L53.534 -61.4 Q49.63 -60.532 46.654 -58.886 Q43.678 -57.24 40.453 -54.027 L28.044 -59.326 L23.086 -50.902 L33.919 -42.87 Q33.294 -41.11 33.044 -39.17 Q32.794 -37.231 32.794 -35.226 Q32.794 -33.275 33.013 -31.486 Q33.231 -29.696 33.76 -27.777 L23.086 -19.634 L28.032 -11.211 L40.341 -16.461 Q43.341 -13.509 47.109 -11.581 Q50.875 -9.652 55.062 -8.696 V6.823 Q55.062 7.72 54.494 8.36 Q53.925 9.001 53.144 9.001 Z"/></g><g id="Ultralight-M" transform="matrix(1 0 0 1 506.415 1126)"><path d="M72.188 7.645 Q69.132 7.645 67.066 5.579 Q65 3.513 65 0.458 V-18.042 Q65 -21.097 67.066 -23.164 Q69.132 -25.23 72.188 -25.23 H100.688 Q103.743 -25.23 105.809 -23.164 Q107.875 -21.097 107.875 -18.042 V0.458 Q107.875 3.513 105.809 5.579 Q103.743 7.645 100.688 7.645 H72.188 Z M72.188 4.458 H100.688 Q102.438 4.458 103.562 3.333 Q104.688 2.208 104.688 0.458 V-18.042 Q104.688 -19.792 103.562 -20.917 Q102.438 -22.042 100.688 -22.042 H72.188 Q70.438 -22.042 69.312 -20.917 Q68.188 -19.792 68.188 -18.042 V0.458 Q68.188 2.208 69.312 3.333 Q70.438 4.458 72.188 4.458 Z M68.812 -38.105 Q68.25 -37.73 67.625 -37.802 Q67 -37.874 66.625 -38.355 Q65.25 -40.105 63.515 -41.417 Q61.779 -42.73 59.625 -42.73 Q56.5 -42.73 54.312 -40.551 Q52.125 -38.372 52.125 -35.23 Q52.125 -33.061 53.25 -31.364 Q54.375 -29.667 56.125 -28.542 Q56.625 -28.167 56.812 -27.542 Q57 -26.917 56.688 -26.355 Q56.375 -25.792 55.688 -25.667 Q55 -25.542 54.375 -25.917 Q51.812 -27.355 50.375 -29.824 Q48.938 -32.292 48.938 -35.23 Q48.938 -39.725 52 -42.821 Q55.062 -45.917 59.59 -45.917 Q62.641 -45.917 65.101 -44.355 Q67.562 -42.792 69.062 -40.23 Q69.375 -39.667 69.344 -39.042 Q69.312 -38.417 68.812 -38.105 Z M53.562 7.645 Q52.916 7.645 52.469 7.148 Q52.021 6.65 51.938 5.958 L50.625 -6.167 Q47.938 -6.917 44.656 -8.699 Q41.375 -10.48 39.25 -12.48 L28.75 -7.98 Q27.875 -7.605 27 -7.855 Q26.125 -8.105 25.625 -8.98 L19.938 -18.667 Q19.438 -19.48 19.634 -20.399 Q19.83 -21.317 20.625 -21.917 L29.938 -28.855 Q29.625 -30.352 29.469 -31.916 Q29.312 -33.48 29.312 -35.042 Q29.312 -36.417 29.5 -38.011 Q29.688 -39.605 29.938 -41.73 L20.688 -48.605 Q19.875 -49.167 19.719 -50.136 Q19.562 -51.105 20.125 -51.98 L25.625 -61.23 Q26.168 -62.006 27.021 -62.305 Q27.875 -62.605 28.75 -62.292 L39.25 -57.855 Q41.688 -59.917 44.625 -61.636 Q47.562 -63.355 50.475 -64.306 L52.062 -75.98 Q52.251 -76.944 53.001 -77.555 Q53.751 -78.167 54.688 -78.167 H65.375 Q66.281 -78.167 67.017 -77.555 Q67.755 -76.944 67.938 -75.98 L69.429 -64.252 Q72.688 -63.105 75.156 -61.636 Q77.625 -60.167 80.25 -57.855 L91.5 -62.292 Q92.312 -62.605 93.195 -62.304 Q94.078 -62.001 94.562 -61.23 L100.062 -51.855 Q100.562 -50.98 100.359 -50.085 Q100.154 -49.19 99.375 -48.605 L88.188 -40.417 Q88.188 -40.417 88.188 -40.417 Q88.188 -40.417 88.188 -40.417 Q87.63 -40.042 87.065 -40.136 Q86.5 -40.23 86.125 -40.792 Q85.688 -41.292 85.755 -41.885 Q85.823 -42.477 86.375 -42.917 L96.938 -50.917 L92.062 -59.355 L79.062 -53.917 Q77.062 -56.167 73.25 -58.417 Q69.438 -60.667 66.5 -61.292 L65 -74.98 H55 L53.562 -61.412 Q49.688 -60.605 46.719 -58.98 Q43.75 -57.355 40.438 -54.042 L28 -59.355 L23 -50.917 L33.875 -42.855 Q33.25 -41.167 33 -39.19 Q32.75 -37.212 32.75 -35.205 Q32.75 -33.232 32.969 -31.45 Q33.188 -29.667 33.688 -27.792 L23 -19.605 L27.983 -11.167 L40.312 -16.417 Q43.312 -13.48 47.094 -11.574 Q50.875 -9.667 55.062 -8.667 V5.958 Q55.062 6.653 54.597 7.149 Q54.131 7.645 53.562 7.645 Z"/></g><g id="Bold-S" transform="matrix(1 0 0 1 2294.23 696)"><path d="M63.219 5.009 Q58.195 5.009 55.134 1.949 Q52.074 -1.112 52.074 -6.136 V-14.617 Q52.074 -19.641 55.134 -22.702 Q58.195 -25.762 63.219 -25.762 H81.76 Q86.784 -25.762 89.844 -22.702 Q92.905 -19.641 92.905 -14.617 V-6.136 Q92.905 -1.112 89.844 1.949 Q86.784 5.009 81.76 5.009 H63.219 Z M63.219 -6.136 H81.76 Q81.76 -6.136 81.76 -6.136 Q81.76 -6.136 81.76 -6.136 V-14.617 Q81.76 -14.617 81.76 -14.617 Q81.76 -14.617 81.76 -14.617 H63.219 Q63.219 -14.617 63.219 -14.617 Q63.219 -14.617 63.219 -14.617 V-6.136 Q63.219 -6.136 63.219 -6.136 Q63.219 -6.136 63.219 -6.136 Z M58.139 -35.378 Q56.561 -34.54 55.003 -35.144 Q53.445 -35.75 52.567 -37.301 Q51.532 -38.978 50.046 -40.211 Q48.562 -41.443 46.639 -41.443 Q44.036 -41.443 42.31 -39.572 Q40.584 -37.701 40.584 -35.101 Q40.584 -33.048 42.236 -31.748 Q43.888 -30.447 45.515 -29.411 Q46.995 -28.523 47.735 -26.921 Q48.474 -25.318 47.784 -23.789 Q47.044 -22.162 45.441 -21.866 Q43.839 -21.57 42.113 -21.965 Q37.921 -23.494 35.111 -27.095 Q32.3 -30.698 32.3 -35.186 Q32.3 -41.246 36.484 -45.487 Q40.669 -49.728 46.578 -49.728 Q50.856 -49.728 54.227 -47.287 Q57.597 -44.846 59.668 -41.049 Q60.26 -39.484 59.989 -37.849 Q59.717 -36.216 58.139 -35.378 Z M41.422 5.009 Q39.509 5.009 38.082 3.833 Q36.656 2.659 36.393 0.817 L35.061 -6.974 Q33.54 -7.626 31.909 -8.434 Q30.278 -9.242 28.996 -10.327 L21.056 -7.566 Q19.626 -7.122 18.048 -7.566 Q16.47 -8.009 15.731 -9.489 L9.271 -20.88 Q8.63 -22.224 8.802 -23.698 Q8.975 -25.17 10.208 -26.304 L16.618 -31.975 Q16.52 -32.695 16.421 -33.449 Q16.322 -34.203 16.322 -35.221 Q16.322 -35.993 16.446 -36.844 Q16.569 -37.696 16.668 -38.682 L10.306 -44.106 Q8.975 -45.24 8.778 -46.67 Q8.58 -48.101 9.32 -49.629 L15.731 -60.872 Q16.479 -62.233 18.029 -62.712 Q19.577 -63.19 21.007 -62.796 L29.341 -59.936 Q30.524 -61.02 31.881 -61.76 Q33.237 -62.5 35.061 -63.19 L36.787 -72.017 Q37.232 -73.616 38.364 -74.591 Q39.497 -75.568 41.127 -75.568 H53.603 Q55.25 -75.568 56.351 -74.591 Q57.453 -73.616 57.893 -72.017 L59.619 -63.338 Q61.238 -62.713 62.722 -61.941 Q64.205 -61.168 65.487 -59.936 L73.919 -62.796 Q75.35 -63.289 76.82 -62.758 Q78.29 -62.228 79.097 -60.872 L85.508 -49.629 Q86.248 -48.15 85.947 -46.623 Q85.645 -45.096 84.324 -44.106 L74.067 -35.871 Q74.067 -35.871 74.067 -35.871 Q74.067 -35.871 74.067 -35.871 Q72.391 -34.441 70.012 -34.828 Q67.633 -35.213 66.177 -36.956 Q64.846 -38.583 65.124 -40.84 Q65.402 -43.096 67.164 -44.599 L72.785 -49.333 L72.144 -50.418 L62.676 -47.164 Q60.358 -50.221 56.956 -52.243 Q53.553 -54.265 49.855 -54.708 L47.988 -64.423 H46.551 L44.924 -54.856 Q40.781 -54.215 37.527 -52.366 Q34.272 -50.517 31.56 -47.164 L22.437 -50.418 L21.796 -49.333 L28.848 -43.071 Q28.256 -41 27.812 -39.098 Q27.368 -37.198 27.368 -35.282 Q27.368 -33.324 27.738 -31.343 Q28.108 -29.362 28.7 -27.34 L21.796 -21.225 L22.346 -20.14 L31.39 -23.198 Q33.976 -20.14 37.502 -18.365 Q41.028 -16.59 44.924 -15.554 V1.705 Q44.924 3.216 44.245 4.112 Q43.567 5.009 41.422 5.009 Z"/></g><g id="Semibold-S" transform="matrix(1 0 0 1 1998.1 696)"><path d="M61.246 3.551 Q57.08 3.551 54.577 1.048 Q52.074 -1.455 52.074 -5.621 V-16.59 Q52.074 -20.756 54.577 -23.259 Q57.08 -25.762 61.246 -25.762 H82.018 Q86.183 -25.762 88.687 -23.259 Q91.19 -20.756 91.19 -16.59 V-5.621 Q91.19 -1.455 88.687 1.048 Q86.183 3.551 82.018 3.551 H61.246 Z M61.246 -5.621 H82.018 Q82.018 -5.621 82.018 -5.621 Q82.018 -5.621 82.018 -5.621 V-16.59 Q82.018 -16.59 82.018 -16.59 Q82.018 -16.59 82.018 -16.59 H61.246 Q61.246 -16.59 61.246 -16.59 Q61.246 -16.59 61.246 -16.59 V-5.621 Q61.246 -5.621 61.246 -5.621 Q61.246 -5.621 61.246 -5.621 Z M58.268 -35.721 Q56.819 -34.925 55.381 -35.485 Q53.942 -36.045 53.124 -37.473 Q52.046 -39.278 50.441 -40.618 Q48.834 -41.958 46.761 -41.958 Q43.95 -41.958 42.074 -39.95 Q40.199 -37.943 40.199 -35.143 Q40.199 -33.048 41.743 -31.598 Q43.287 -30.147 45.001 -29.111 Q46.352 -28.309 47.091 -26.878 Q47.831 -25.446 47.227 -24.047 Q46.573 -22.548 45.098 -22.21 Q43.625 -21.87 42.07 -22.265 Q37.964 -23.751 35.304 -27.289 Q32.643 -30.826 32.643 -35.186 Q32.643 -41.157 36.769 -45.335 Q40.896 -49.514 46.723 -49.514 Q50.942 -49.514 54.291 -47.115 Q57.639 -44.718 59.626 -40.963 Q60.217 -39.521 59.967 -38.019 Q59.717 -36.516 58.268 -35.721 Z M42.151 3.551 Q40.482 3.551 39.24 2.534 Q37.999 1.515 37.764 -0.083 L36.391 -7.96 Q34.544 -8.735 32.626 -9.718 Q30.707 -10.7 29.167 -12 L21.185 -9.238 Q19.926 -8.879 18.563 -9.281 Q17.199 -9.682 16.545 -10.947 L10.9 -20.838 Q10.302 -22.026 10.475 -23.319 Q10.648 -24.613 11.709 -25.618 L18.162 -31.289 Q18.021 -32.188 17.922 -33.109 Q17.824 -34.028 17.824 -35.225 Q17.824 -36.176 17.947 -37.194 Q18.07 -38.21 18.211 -39.368 L11.807 -44.835 Q10.69 -45.841 10.493 -47.1 Q10.295 -48.358 10.949 -49.672 L16.545 -59.457 Q17.208 -60.647 18.564 -61.083 Q19.92 -61.518 21.179 -61.166 L29.427 -58.306 Q30.868 -59.605 32.567 -60.538 Q34.265 -61.471 36.391 -62.29 L38.073 -71.031 Q38.432 -72.416 39.458 -73.263 Q40.484 -74.11 41.899 -74.11 H52.83 Q54.263 -74.11 55.258 -73.263 Q56.252 -72.416 56.607 -71.031 L58.289 -62.438 Q60.234 -61.677 62.005 -60.715 Q63.776 -59.753 65.315 -58.306 L73.705 -61.166 Q74.964 -61.574 76.249 -61.109 Q77.534 -60.645 78.239 -59.457 L83.835 -49.672 Q84.49 -48.407 84.232 -47.074 Q83.973 -45.739 82.867 -44.835 L73.467 -37.157 Q73.467 -37.157 73.467 -37.157 Q73.467 -37.157 73.467 -37.157 Q72.091 -35.942 70.119 -36.242 Q68.148 -36.543 66.928 -37.985 Q65.832 -39.312 66.044 -41.177 Q66.257 -43.041 67.678 -44.3 L73.472 -49.205 L72.402 -51.061 L62.848 -47.807 Q60.53 -50.736 57.235 -52.693 Q53.939 -54.65 50.326 -55.137 L48.459 -64.938 H46.122 L44.409 -55.242 Q40.396 -54.559 37.269 -52.773 Q34.144 -50.988 31.474 -47.807 L22.223 -51.061 L21.11 -49.205 L28.333 -42.813 Q27.741 -40.828 27.341 -38.982 Q26.939 -37.135 26.939 -35.282 Q26.939 -33.367 27.267 -31.471 Q27.593 -29.576 28.185 -27.64 L21.11 -21.353 L22.131 -19.497 L31.314 -22.597 Q33.934 -19.54 37.48 -17.764 Q41.028 -15.989 44.966 -15.083 V0.847 Q44.966 2.111 44.353 2.831 Q43.738 3.551 42.151 3.551 Z"/></g><g id="Medium-S" transform="matrix(1 0 0 1 1701.85 696)"><path d="M59.767 2.458 Q56.244 2.458 54.159 0.373 Q52.074 -1.712 52.074 -5.235 V-18.069 Q52.074 -21.592 54.159 -23.677 Q56.244 -25.762 59.767 -25.762 H82.211 Q85.734 -25.762 87.819 -23.677 Q89.904 -21.592 89.904 -18.069 V-5.235 Q89.904 -1.712 87.819 0.373 Q85.734 2.458 82.211 2.458 H59.767 Z M59.767 -5.235 H82.211 Q82.211 -5.235 82.211 -5.235 Q82.211 -5.235 82.211 -5.235 V-18.069 Q82.211 -18.069 82.211 -18.069 Q82.211 -18.069 82.211 -18.069 H59.767 Q59.767 -18.069 59.767 -18.069 Q59.767 -18.069 59.767 -18.069 V-5.235 Q59.767 -5.235 59.767 -5.235 Q59.767 -5.235 59.767 -5.235 Z M58.364 -35.979 Q57.012 -35.215 55.664 -35.741 Q54.316 -36.267 53.543 -37.601 Q52.432 -39.503 50.736 -40.924 Q49.039 -42.344 46.854 -42.344 Q43.886 -42.344 41.898 -40.234 Q39.909 -38.126 39.909 -35.176 Q39.909 -33.048 41.373 -31.485 Q42.838 -29.921 44.615 -28.885 Q45.87 -28.149 46.609 -26.846 Q47.349 -25.543 46.808 -24.24 Q46.219 -22.838 44.841 -22.467 Q43.464 -22.096 42.038 -22.491 Q37.996 -23.944 35.448 -27.434 Q32.9 -30.923 32.9 -35.186 Q32.9 -41.09 36.983 -45.222 Q41.066 -49.353 46.831 -49.353 Q51.007 -49.353 54.339 -46.987 Q57.672 -44.621 59.593 -40.899 Q60.185 -39.549 59.951 -38.145 Q59.717 -36.742 58.364 -35.979 Z M42.698 2.458 Q41.21 2.458 40.109 1.557 Q39.007 0.658 38.794 -0.759 L37.388 -8.7 Q35.298 -9.569 33.163 -10.681 Q31.028 -11.794 29.296 -13.253 L21.281 -10.492 Q20.152 -10.199 18.949 -10.567 Q17.746 -10.936 17.157 -12.04 L12.122 -20.805 Q11.556 -21.877 11.728 -23.036 Q11.901 -24.195 12.834 -25.104 L19.32 -30.775 Q19.146 -31.808 19.047 -32.852 Q18.949 -33.897 18.949 -35.228 Q18.949 -36.313 19.072 -37.455 Q19.195 -38.596 19.369 -39.882 L12.933 -45.381 Q11.976 -46.291 11.779 -47.421 Q11.582 -48.551 12.171 -49.704 L17.157 -58.396 Q17.755 -59.456 18.967 -59.86 Q20.178 -60.264 21.307 -59.944 L29.491 -57.084 Q31.125 -58.544 33.081 -59.622 Q35.038 -60.699 37.388 -61.614 L39.039 -70.291 Q39.334 -71.515 40.278 -72.266 Q41.223 -73.016 42.478 -73.016 H52.252 Q53.524 -73.016 54.438 -72.266 Q55.351 -71.515 55.641 -70.291 L57.292 -61.762 Q59.481 -60.9 61.468 -59.796 Q63.454 -58.692 65.187 -57.084 L73.545 -59.944 Q74.674 -60.288 75.821 -59.872 Q76.967 -59.457 77.596 -58.396 L82.582 -49.704 Q83.17 -48.601 82.945 -47.411 Q82.719 -46.223 81.773 -45.381 L73.017 -38.123 Q73.017 -38.123 73.017 -38.123 Q73.017 -38.123 73.017 -38.123 Q71.865 -37.067 70.199 -37.304 Q68.534 -37.54 67.491 -38.757 Q66.572 -39.858 66.736 -41.43 Q66.898 -43 68.064 -44.074 L73.986 -49.109 L72.595 -51.544 L62.976 -48.289 Q60.658 -51.121 57.444 -53.031 Q54.229 -54.94 50.68 -55.459 L48.813 -65.323 H45.8 L44.023 -55.532 Q40.106 -54.816 37.076 -53.079 Q34.047 -51.342 31.41 -48.289 L22.062 -51.544 L20.596 -49.109 L27.947 -42.62 Q27.356 -40.7 26.987 -38.894 Q26.618 -37.089 26.618 -35.282 Q26.618 -33.399 26.913 -31.568 Q27.208 -29.737 27.799 -27.866 L20.596 -21.45 L21.971 -19.015 L31.257 -22.147 Q33.901 -19.09 37.465 -17.315 Q41.028 -15.54 44.999 -14.729 V0.204 Q44.999 1.283 44.433 1.871 Q43.866 2.458 42.698 2.458 Z"/></g><g id="Regular-S" transform="matrix(1 0 0 1 1405.73 696)"><path d="M58.682 1.656 Q55.63 1.656 53.852 -0.122 Q52.074 -1.901 52.074 -4.952 V-19.154 Q52.074 -22.206 53.852 -23.984 Q55.63 -25.762 58.682 -25.762 H82.352 Q85.403 -25.762 87.182 -23.984 Q88.96 -22.206 88.96 -19.154 V-4.952 Q88.96 -1.901 87.182 -0.122 Q85.403 1.656 82.352 1.656 H58.682 Z M58.682 -4.952 H82.352 Q82.352 -4.952 82.352 -4.952 Q82.352 -4.952 82.352 -4.952 V-19.154 Q82.352 -19.154 82.352 -19.154 Q82.352 -19.154 82.352 -19.154 H58.682 Q58.682 -19.154 58.682 -19.154 Q58.682 -19.154 58.682 -19.154 V-4.952 Q58.682 -4.952 58.682 -4.952 Q58.682 -4.952 58.682 -4.952 Z M58.435 -36.167 Q57.153 -35.427 55.871 -35.928 Q54.589 -36.428 53.849 -37.696 Q52.715 -39.668 50.953 -41.147 Q49.189 -42.627 46.921 -42.627 Q43.839 -42.627 41.768 -40.443 Q39.697 -38.259 39.697 -35.199 Q39.697 -33.048 41.102 -31.402 Q42.507 -29.756 44.332 -28.721 Q45.515 -28.03 46.255 -26.822 Q46.995 -25.614 46.502 -24.381 Q45.959 -23.05 44.652 -22.655 Q43.346 -22.261 42.014 -22.655 Q38.02 -24.085 35.554 -27.539 Q33.089 -30.994 33.089 -35.186 Q33.089 -41.042 37.14 -45.138 Q41.191 -49.235 46.911 -49.235 Q51.053 -49.235 54.375 -46.892 Q57.696 -44.55 59.57 -40.852 Q60.161 -39.569 59.939 -38.238 Q59.717 -36.907 58.435 -36.167 Z M43.099 1.656 Q41.745 1.656 40.745 0.842 Q39.746 0.028 39.549 -1.254 L38.119 -9.242 Q35.85 -10.179 33.557 -11.387 Q31.264 -12.596 29.39 -14.174 L21.352 -11.412 Q20.317 -11.165 19.232 -11.511 Q18.147 -11.856 17.605 -12.842 L13.019 -20.781 Q12.476 -21.768 12.649 -22.828 Q12.821 -23.888 13.66 -24.726 L20.169 -30.397 Q19.972 -31.53 19.873 -32.665 Q19.774 -33.8 19.774 -35.23 Q19.774 -36.413 19.898 -37.646 Q20.021 -38.879 20.218 -40.26 L13.758 -45.783 Q12.92 -46.621 12.723 -47.657 Q12.525 -48.692 13.068 -49.728 L17.605 -57.618 Q18.156 -58.583 19.261 -58.964 Q20.366 -59.344 21.402 -59.048 L29.538 -56.188 Q31.313 -57.766 33.459 -58.949 Q35.604 -60.133 38.119 -61.119 L39.746 -69.749 Q39.993 -70.854 40.879 -71.534 Q41.766 -72.214 42.902 -72.214 H51.827 Q52.981 -72.214 53.836 -71.534 Q54.692 -70.854 54.934 -69.749 L56.561 -61.267 Q58.928 -60.33 61.074 -59.122 Q63.219 -57.914 65.093 -56.188 L73.426 -59.048 Q74.462 -59.344 75.506 -58.965 Q76.551 -58.586 77.125 -57.618 L81.662 -49.728 Q82.204 -48.742 82.002 -47.659 Q81.799 -46.576 80.971 -45.783 L72.687 -38.83 Q72.687 -38.83 72.687 -38.83 Q72.687 -38.83 72.687 -38.83 Q71.7 -37.893 70.258 -38.082 Q68.817 -38.271 67.903 -39.323 Q67.114 -40.26 67.242 -41.615 Q67.369 -42.97 68.347 -43.909 L74.363 -49.037 L72.736 -51.898 L63.071 -48.643 Q60.753 -51.404 57.597 -53.278 Q54.441 -55.152 50.94 -55.695 L49.073 -65.606 H45.565 L43.74 -55.744 Q39.894 -55.004 36.935 -53.303 Q33.976 -51.602 31.363 -48.643 L21.944 -51.898 L20.218 -49.037 L27.664 -42.479 Q27.073 -40.605 26.727 -38.83 Q26.382 -37.055 26.382 -35.282 Q26.382 -33.422 26.653 -31.639 Q26.925 -29.855 27.516 -28.03 L20.218 -21.521 L21.853 -18.661 L31.215 -21.817 Q33.878 -18.76 37.453 -16.984 Q41.028 -15.209 45.022 -14.469 V-0.267 Q45.022 0.675 44.492 1.166 Q43.961 1.656 43.099 1.656 Z"/></g><g id="Light-S" transform="matrix(1 0 0 1 1109.75 696)"><path d="M58.018 -0.127 Q55.213 -0.127 53.644 -1.697 Q52.074 -3.267 52.074 -6.072 V-19.818 Q52.074 -22.623 53.644 -24.192 Q55.213 -25.762 58.018 -25.762 H81.232 Q84.037 -25.762 85.607 -24.192 Q87.177 -22.623 87.177 -19.818 V-6.072 Q87.177 -3.267 85.607 -1.697 Q84.037 -0.127 81.232 -0.127 H58.018 Z M58.018 -4.857 H81.232 Q81.764 -4.857 82.105 -5.199 Q82.447 -5.54 82.447 -6.072 V-19.818 Q82.447 -20.349 82.105 -20.691 Q81.764 -21.032 81.232 -21.032 H58.018 Q57.487 -21.032 57.145 -20.691 Q56.804 -20.349 56.804 -19.818 V-6.072 Q56.804 -5.54 57.145 -5.199 Q57.487 -4.857 58.018 -4.857 Z M57.069 -36.869 Q56.148 -36.3 55.245 -36.629 Q54.342 -36.96 53.773 -37.848 Q52.544 -39.706 50.796 -41.166 Q49.046 -42.627 46.826 -42.627 Q43.744 -42.627 41.673 -40.432 Q39.602 -38.237 39.602 -35.18 Q39.602 -33.04 40.96 -31.417 Q42.318 -29.794 44.085 -28.778 Q44.928 -28.277 45.497 -27.401 Q46.066 -26.524 45.724 -25.633 Q45.353 -24.681 44.396 -24.457 Q43.44 -24.233 42.47 -24.476 Q39.082 -25.717 36.976 -28.668 Q34.872 -31.619 34.872 -35.186 Q34.872 -40.285 38.354 -43.82 Q41.836 -47.357 46.814 -47.357 Q50.351 -47.357 53.16 -45.347 Q55.97 -43.336 57.654 -40.245 Q58.074 -39.323 58.024 -38.371 Q57.973 -37.418 57.069 -36.869 Z M43.649 -0.127 Q42.724 -0.127 42.054 -0.684 Q41.383 -1.241 41.237 -2.127 L39.845 -10.494 Q37.254 -11.451 34.467 -12.924 Q31.681 -14.397 29.58 -16.279 L20.954 -13.214 Q20.43 -13.176 19.858 -13.331 Q19.285 -13.487 19.027 -14.018 L14.744 -21.388 Q14.487 -21.901 14.538 -22.415 Q14.591 -22.929 15.006 -23.436 L22.065 -29.487 Q21.812 -30.827 21.665 -32.209 Q21.519 -33.591 21.519 -35.173 Q21.519 -36.547 21.69 -37.997 Q21.861 -39.448 22.096 -41.133 L15.086 -47.073 Q14.665 -47.57 14.61 -48.084 Q14.555 -48.598 14.832 -49.159 L19.027 -56.366 Q19.304 -56.855 19.883 -57.047 Q20.461 -57.238 20.984 -57.189 L29.671 -54.082 Q31.807 -55.983 34.379 -57.423 Q36.95 -58.862 39.799 -59.909 L41.548 -69.217 Q41.758 -69.773 42.236 -70.093 Q42.714 -70.412 43.3 -70.412 H51.429 Q52.017 -70.412 52.472 -70.093 Q52.927 -69.773 53.132 -69.217 L54.851 -59.984 Q57.677 -58.908 60.125 -57.528 Q62.574 -56.149 64.827 -54.082 L73.938 -57.189 Q74.443 -57.238 74.967 -57.047 Q75.491 -56.856 75.779 -56.366 L79.973 -49.121 Q80.231 -48.59 80.14 -48.05 Q80.048 -47.511 79.644 -47.073 L70.353 -39.399 Q70.353 -39.399 70.353 -39.399 Q70.353 -39.399 70.353 -39.399 Q69.691 -38.709 68.647 -38.841 Q67.603 -38.973 66.936 -39.703 Q66.356 -40.317 66.417 -41.274 Q66.477 -42.23 67.172 -42.941 L74.496 -49.056 L72.812 -51.935 L63.033 -48.662 Q60.848 -51.31 57.54 -53.278 Q54.232 -55.247 50.921 -55.695 L49.09 -65.682 H45.527 L43.778 -55.762 Q39.97 -55.099 37.021 -53.426 Q34.071 -51.754 31.344 -48.662 L21.887 -51.935 L20.105 -49.056 L27.607 -42.46 Q27.015 -40.681 26.67 -38.855 Q26.325 -37.03 26.325 -35.255 Q26.325 -33.367 26.596 -31.592 Q26.867 -29.817 27.422 -28.049 L20.105 -21.484 L21.788 -18.604 L31.177 -21.76 Q33.84 -18.722 37.434 -16.975 Q41.028 -15.228 45.022 -14.432 V-1.406 Q45.022 -0.728 44.628 -0.428 Q44.233 -0.127 43.649 -0.127 Z"/></g><g id="Thin-S" transform="matrix(1 0 0 1 814.015 696)"><path d="M57.354 -1.91 Q54.796 -1.91 53.435 -3.271 Q52.074 -4.632 52.074 -7.19 V-20.482 Q52.074 -23.04 53.435 -24.401 Q54.796 -25.762 57.354 -25.762 H80.114 Q82.672 -25.762 84.033 -24.401 Q85.394 -23.04 85.394 -20.482 V-7.19 Q85.394 -4.632 84.033 -3.271 Q82.672 -1.91 80.114 -1.91 H57.354 Z M57.354 -4.763 H80.114 Q81.176 -4.763 81.859 -5.445 Q82.541 -6.128 82.541 -7.19 V-20.482 Q82.541 -21.544 81.859 -22.226 Q81.176 -22.91 80.114 -22.91 H57.354 Q56.292 -22.91 55.61 -22.226 Q54.926 -21.544 54.926 -20.482 V-7.19 Q54.926 -6.128 55.61 -5.445 Q56.292 -4.763 57.354 -4.763 Z M55.704 -37.57 Q55.143 -37.172 54.62 -37.332 Q54.096 -37.49 53.697 -37.999 Q52.374 -39.744 50.639 -41.185 Q48.903 -42.627 46.731 -42.627 Q43.649 -42.627 41.578 -40.421 Q39.507 -38.215 39.507 -35.161 Q39.507 -33.031 40.818 -31.432 Q42.128 -29.832 43.839 -28.834 Q44.34 -28.523 44.738 -27.979 Q45.136 -27.435 44.946 -26.884 Q44.745 -26.312 44.141 -26.259 Q43.535 -26.206 42.925 -26.297 Q40.144 -27.348 38.4 -29.797 Q36.654 -32.246 36.654 -35.186 Q36.654 -39.527 39.567 -42.504 Q42.481 -45.479 46.718 -45.479 Q49.648 -45.479 51.946 -43.801 Q54.244 -42.122 55.738 -39.638 Q55.988 -39.076 56.108 -38.503 Q56.228 -37.93 55.704 -37.57 Z M44.199 -1.91 Q43.705 -1.91 43.362 -2.21 Q43.02 -2.51 42.925 -2.998 L41.57 -11.745 Q38.657 -12.721 35.378 -14.46 Q32.098 -16.199 29.77 -18.384 L20.555 -15.016 Q20.545 -15.186 20.483 -15.152 Q20.423 -15.118 20.45 -15.194 L16.47 -21.996 Q16.497 -22.033 16.428 -22 Q16.359 -21.969 16.353 -22.147 L23.962 -28.577 Q23.651 -30.125 23.458 -31.754 Q23.264 -33.383 23.264 -35.117 Q23.264 -36.679 23.483 -38.349 Q23.701 -40.017 23.974 -42.005 L16.413 -48.362 Q16.409 -48.518 16.497 -48.51 Q16.584 -48.503 16.596 -48.59 L20.45 -55.115 Q20.451 -55.126 20.503 -55.13 Q20.555 -55.134 20.567 -55.331 L29.803 -51.978 Q32.3 -54.201 35.298 -55.896 Q38.297 -57.591 41.48 -58.7 L43.35 -68.687 Q43.521 -68.692 43.592 -68.651 Q43.662 -68.611 43.699 -68.611 H51.031 Q51.052 -68.611 51.107 -68.651 Q51.164 -68.692 51.33 -68.687 L53.142 -58.702 Q56.425 -57.485 59.177 -55.935 Q61.929 -54.386 64.562 -51.978 L74.45 -55.331 Q74.424 -55.134 74.427 -55.13 Q74.43 -55.125 74.431 -55.115 L78.286 -48.514 Q78.259 -48.438 78.278 -48.442 Q78.297 -48.446 78.316 -48.362 L68.021 -39.968 Q68.021 -39.968 68.021 -39.968 Q68.021 -39.968 68.021 -39.968 Q67.682 -39.524 67.036 -39.599 Q66.389 -39.674 65.968 -40.081 Q65.597 -40.373 65.592 -40.932 Q65.587 -41.491 65.995 -41.974 L74.629 -49.075 L72.888 -51.974 L62.995 -48.68 Q60.942 -51.215 57.484 -53.278 Q54.024 -55.342 50.902 -55.695 L49.105 -65.758 H45.489 L43.816 -55.78 Q40.046 -55.194 37.106 -53.55 Q34.166 -51.906 31.325 -48.68 L21.831 -51.974 L19.99 -49.075 L27.551 -42.441 Q26.959 -40.757 26.614 -38.881 Q26.269 -37.006 26.269 -35.227 Q26.269 -33.311 26.54 -31.544 Q26.811 -29.779 27.327 -28.068 L19.99 -21.445 L21.723 -18.548 L31.139 -21.704 Q33.802 -18.684 37.415 -16.966 Q41.028 -15.247 45.022 -14.393 V-2.544 Q45.022 -2.131 44.764 -2.021 Q44.506 -1.91 44.199 -1.91 Z"/></g><g id="Ultralight-S" transform="matrix(1 0 0 1 517.792 696)"><path d="M56.956 -2.98 Q54.546 -2.98 53.31 -4.215 Q52.074 -5.451 52.074 -7.862 V-20.88 Q52.074 -23.29 53.31 -24.526 Q54.546 -25.762 56.956 -25.762 H79.442 Q81.853 -25.762 83.089 -24.526 Q84.324 -23.29 84.324 -20.88 V-7.862 Q84.324 -5.451 83.089 -4.215 Q81.853 -2.98 79.442 -2.98 H56.956 Z M56.956 -4.706 H79.442 Q80.823 -4.706 81.711 -5.593 Q82.598 -6.481 82.598 -7.862 V-20.88 Q82.598 -22.261 81.711 -23.148 Q80.823 -24.036 79.442 -24.036 H56.956 Q55.575 -24.036 54.688 -23.148 Q53.8 -22.261 53.8 -20.88 V-7.862 Q53.8 -6.481 54.688 -5.593 Q55.575 -4.706 56.956 -4.706 Z M54.885 -37.991 Q54.54 -37.696 54.244 -37.753 Q53.948 -37.809 53.652 -38.09 Q52.271 -39.767 50.544 -41.197 Q48.817 -42.627 46.674 -42.627 Q43.592 -42.627 41.521 -40.415 Q39.45 -38.203 39.45 -35.15 Q39.45 -33.026 40.732 -31.44 Q42.014 -29.855 43.691 -28.869 Q43.987 -28.671 44.283 -28.326 Q44.579 -27.981 44.48 -27.636 Q44.381 -27.291 43.987 -27.34 Q43.592 -27.389 43.198 -27.389 Q40.781 -28.326 39.253 -30.473 Q37.724 -32.621 37.724 -35.186 Q37.724 -39.072 40.296 -41.713 Q42.867 -44.353 46.659 -44.353 Q49.227 -44.353 51.217 -42.873 Q53.208 -41.394 54.589 -39.274 Q54.737 -38.928 54.959 -38.583 Q55.181 -38.238 54.885 -37.991 Z M44.529 -2.98 Q44.292 -2.98 44.148 -3.126 Q44.004 -3.272 43.937 -3.522 L42.606 -12.497 Q39.499 -13.483 35.924 -15.382 Q32.349 -17.28 29.883 -19.647 L20.317 -16.097 Q20.613 -16.393 20.859 -16.245 Q21.106 -16.097 21.303 -15.899 L17.506 -22.359 Q17.703 -22.113 17.562 -21.753 Q17.421 -21.393 17.161 -21.373 L25.1 -28.03 Q24.755 -29.705 24.533 -31.481 Q24.311 -33.257 24.311 -35.082 Q24.311 -36.759 24.558 -38.559 Q24.804 -40.358 25.1 -42.528 L17.21 -49.136 Q17.457 -49.087 17.629 -48.766 Q17.802 -48.446 17.654 -48.248 L21.303 -54.363 Q21.139 -54.088 20.876 -53.979 Q20.613 -53.87 20.317 -54.215 L29.883 -50.714 Q32.596 -53.13 35.85 -54.98 Q39.105 -56.829 42.488 -57.974 L44.431 -68.368 Q44.579 -68.044 44.406 -67.786 Q44.232 -67.53 43.937 -67.53 H50.792 Q50.474 -67.53 50.29 -67.786 Q50.105 -68.044 50.249 -68.368 L52.116 -57.932 Q55.674 -56.632 58.608 -54.98 Q61.542 -53.328 64.402 -50.714 L74.758 -54.215 Q74.413 -53.87 74.103 -53.979 Q73.793 -54.087 73.624 -54.363 L77.273 -48.15 Q77.075 -48.347 77.161 -48.677 Q77.246 -49.006 77.519 -49.136 L66.621 -40.309 Q66.621 -40.309 66.621 -40.309 Q66.621 -40.309 66.621 -40.309 Q66.477 -40.013 66.069 -40.055 Q65.661 -40.095 65.388 -40.309 Q65.142 -40.408 65.096 -40.727 Q65.051 -41.047 65.29 -41.394 L74.708 -49.087 L72.933 -51.996 L62.972 -48.692 Q61 -51.158 57.449 -53.278 Q53.899 -55.399 50.891 -55.695 L49.115 -65.804 H45.466 L43.839 -55.789 Q40.091 -55.251 37.157 -53.624 Q34.223 -51.996 31.313 -48.692 L21.796 -51.996 L19.922 -49.087 L27.516 -42.43 Q26.925 -40.802 26.579 -38.897 Q26.234 -36.991 26.234 -35.21 Q26.234 -33.277 26.505 -31.517 Q26.777 -29.756 27.27 -28.08 L19.922 -21.422 L21.684 -18.513 L31.116 -21.669 Q33.779 -18.661 37.404 -16.96 Q41.028 -15.258 45.022 -14.371 V-3.226 Q45.022 -2.974 44.846 -2.977 Q44.668 -2.98 44.529 -2.98 Z"/></g></g></svg>