<svg xmlns="http://www.w3.org/2000/svg" version="1.1" width="3300" height="2000"><g id="Notes"><style>
    text {
      font-family: monospace;
      text-anchor: middle;
    }
    text.emphasis {
      font-weight:bold;
    }
    text.lanchor {
      text-anchor: start;
    }
  </style><rect height="2200" id="artboard" fill="white" width="3300" x="0" y="0"/><line id="" style="fill:none;stroke:black;stroke-width:0.5;" x1="263" x2="3036" y1="292" y2="292"/><text class="lanchor emphasis" transform="matrix(1 0 0 1 263 322)">Weight/Scale Variations</text><text transform="matrix(1 0 0 1 559.711 322)">Ultralight</text><text transform="matrix(1 0 0 1 856.422 322)">Thin</text><text transform="matrix(1 0 0 1 1153.13 322)">Light</text><text transform="matrix(1 0 0 1 1449.84 322)">Regular</text><text transform="matrix(1 0 0 1 1746.56 322)">Medium</text><text transform="matrix(1 0 0 1 2043.27 322)">Semibold</text><text transform="matrix(1 0 0 1 2339.98 322)">Bold</text><text transform="matrix(1 0 0 1 2636.69 322)">Heavy</text><text transform="matrix(1 0 0 1 2933.4 322)">Black</text><text id="template-version" style="text-anchor: end;" transform="matrix(1 0 0 1 3036 1933)">Template v.1.0</text><text class="lanchor" transform="matrix(1 0 0 1 263 726)">Small</text><text class="lanchor" transform="matrix(1 0 0 1 263 1156)">Medium</text><text class="lanchor" transform="matrix(1 0 0 1 263 1586)">Large</text></g><g id="Guides"><g id="H-reference" style="fill:#27AAE1;stroke:none;" transform="matrix(1 0 0 1 339 696)"><path d="M 54.9316 0 L 57.666 0 L 30.5664 -70.459 L 28.0762 -70.459 L 0.976562 0 L 3.66211 0 L 12.9395 -24.4629 L 45.7031 -24.4629 Z M 29.1992 -67.0898 L 29.4434 -67.0898 L 44.8242 -26.709 L 13.8184 -26.709 Z"/></g><line id="Baseline-S" style="fill:none;stroke:#27AAE1;opacity:1;stroke-width:0.577;" x1="263" x2="3036" y1="696" y2="696"/><line id="Capline-S" style="fill:none;stroke:#27AAE1;opacity:1;stroke-width:0.577;" x1="263" x2="3036" y1="625.541" y2="625.541"/><g id="H-reference" style="fill:#27AAE1;stroke:none;" transform="matrix(1 0 0 1 339 1126)"><path d="M 54.9316 0 L 57.666 0 L 30.5664 -70.459 L 28.0762 -70.459 L 0.976562 0 L 3.66211 0 L 12.9395 -24.4629 L 45.7031 -24.4629 Z M 29.1992 -67.0898 L 29.4434 -67.0898 L 44.8242 -26.709 L 13.8184 -26.709 Z"/></g><line id="Baseline-M" style="fill:none;stroke:#27AAE1;opacity:1;stroke-width:0.577;" x1="263" x2="3036" y1="1126" y2="1126"/><line id="Capline-M" style="fill:none;stroke:#27AAE1;opacity:1;stroke-width:0.577;" x1="263" x2="3036" y1="1055.54" y2="1055.54"/><g id="H-reference" style="fill:#27AAE1;stroke:none;" transform="matrix(1 0 0 1 339 1556)"><path d="M 54.9316 0 L 57.666 0 L 30.5664 -70.459 L 28.0762 -70.459 L 0.976562 0 L 3.66211 0 L 12.9395 -24.4629 L 45.7031 -24.4629 Z M 29.1992 -67.0898 L 29.4434 -67.0898 L 44.8242 -26.709 L 13.8184 -26.709 Z"/></g><line id="Baseline-L" style="fill:none;stroke:#27AAE1;opacity:1;stroke-width:0.577;" x1="263" x2="3036" y1="1556" y2="1556"/><line id="Capline-L" style="fill:none;stroke:#27AAE1;opacity:1;stroke-width:0.577;" x1="263" x2="3036" y1="1485.54" y2="1485.54"/><rect height="119.336" id="left-margin" style="fill:darkred;stroke:none;opacity:0.4;" width="12.4512" x="1394.06" y="1030.79"/><rect height="119.336" id="right-margin" style="fill:darkgreen;stroke:none;opacity:0.4;" width="12.4512" x="1502.5112" y="1030.79"/><rect x="1406.5112" y="1045" width="96" height="96" fill="none" stroke="blue" stroke-dasharray="5"/><rect x="1394.06" y="1030.79" width="120.9024" height="119.336" fill="none" stroke="blue"/></g><g id="Symbols"><g id="Bold-L" transform="matrix(1 0 0 1 2266 1556)"><path d="M99.169 33.301 Q92.806 33.301 88.328 28.872 Q83.85 24.441 83.85 18.144 V-7.172 Q83.85 -13.3 88.328 -17.815 Q92.806 -22.33 99.169 -22.33 H138.03 Q144.157 -22.33 148.673 -17.815 Q153.188 -13.3 153.188 -7.172 V18.144 Q153.188 24.441 148.673 28.872 Q144.157 33.301 138.03 33.301 H99.169 Z M99.169 18.144 H138.03 Q138.03 18.144 138.03 18.144 Q138.03 18.144 138.03 18.144 V-7.172 Q138.03 -7.172 138.03 -7.172 Q138.03 -7.172 138.03 -7.172 H99.169 Q99.169 -7.172 99.169 -7.172 Q99.169 -7.172 99.169 -7.172 V18.144 Q99.169 18.144 99.169 18.144 Q99.169 18.144 99.169 18.144 Z M94.089 -36.359 Q91.913 -35.23 89.687 -35.804 Q87.462 -36.378 86.269 -38.616 Q84.817 -41.357 82.449 -43.212 Q80.082 -45.066 77.058 -45.066 Q72.885 -45.066 70.063 -42.272 Q67.241 -39.477 67.241 -35.23 Q67.241 -31.844 69.741 -29.344 Q72.24 -26.845 75.626 -25.394 Q77.884 -24.426 78.69 -22.088 Q79.496 -19.75 78.529 -17.573 Q77.561 -15.396 75.384 -14.671 Q73.207 -13.945 70.789 -14.751 Q64.177 -17.009 59.824 -22.62 Q55.47 -28.232 55.47 -35.448 Q55.47 -44.433 61.688 -50.636 Q67.906 -56.837 76.855 -56.837 Q83.205 -56.837 88.446 -53.371 Q93.686 -49.904 96.589 -44.26 Q97.556 -42.023 96.911 -39.755 Q96.266 -37.487 94.089 -36.359 Z M65.242 33.301 Q62.618 33.301 60.469 31.339 Q58.319 29.378 57.889 26.69 L55.631 11.694 Q53.467 11.031 50.841 9.509 Q48.214 7.985 46.44 6.534 L32.734 12.984 Q30.012 14.274 27.13 13.406 Q24.247 12.537 22.736 9.759 L11.126 -11.204 Q9.675 -13.563 10.239 -16.415 Q10.804 -19.266 13.223 -21.04 L25.961 -30.554 Q25.8 -31.5 25.719 -32.885 Q25.639 -34.271 25.639 -35.215 Q25.639 -36.162 25.719 -37.547 Q25.8 -38.932 25.961 -39.906 L13.223 -49.259 Q10.643 -51.194 10.078 -53.935 Q9.514 -56.676 11.126 -59.256 L22.798 -80.249 Q24.188 -82.637 27.009 -83.605 Q29.831 -84.572 32.572 -83.444 L46.763 -76.994 Q48.375 -78.284 50.955 -79.735 Q53.535 -81.186 55.631 -81.831 L58.211 -97.311 Q58.695 -100.214 60.775 -102.068 Q62.857 -103.922 65.79 -103.922 H89.237 Q91.913 -103.922 94.014 -102.078 Q96.116 -100.235 96.75 -97.311 L99.169 -81.992 Q101.3 -81.204 103.943 -79.824 Q106.586 -78.445 108.36 -76.994 L122.389 -83.444 Q125.13 -84.572 127.842 -83.599 Q130.553 -82.626 132.014 -80.245 L143.885 -59.23 Q145.286 -56.676 144.644 -53.733 Q144.001 -50.792 141.578 -49.259 L125.066 -37.631 Q125.066 -37.631 125.066 -37.631 Q125.066 -37.631 125.066 -37.631 Q122.55 -35.875 119.675 -36.386 Q116.798 -36.896 114.891 -39.261 Q112.875 -41.68 113.283 -44.766 Q113.691 -47.854 116.261 -49.742 L127.065 -57.482 L121.905 -66.996 L104.974 -59.579 Q101.265 -64.094 96.274 -67.157 Q91.282 -70.221 85.419 -70.866 L83.205 -88.604 H71.579 L69.499 -70.866 Q63.711 -69.899 58.622 -66.916 Q53.535 -63.932 49.665 -59.579 L32.895 -66.996 L27.735 -57.482 L42.409 -46.84 Q41.764 -43.937 41.28 -41.07 Q40.796 -38.205 40.796 -35.23 Q40.796 -32.327 41.28 -29.344 Q41.764 -26.361 42.409 -23.62 L27.735 -12.977 L32.895 -3.464 L49.63 -10.881 Q53.696 -6.552 59.017 -3.638 Q64.339 -0.722 70.144 0.729 V28.427 Q70.144 30.521 69.257 31.911 Q68.37 33.301 65.242 33.301 Z"/></g><g id="Semibold-L" transform="matrix(1 0 0 1 1970.27 1556)"><path d="M96.715 31.548 Q91.435 31.548 87.643 27.783 Q83.85 24.016 83.85 18.774 V-9.556 Q83.85 -14.703 87.643 -18.516 Q91.435 -22.33 96.715 -22.33 H138.311 Q143.456 -22.33 147.27 -18.516 Q151.085 -14.703 151.085 -9.556 V18.774 Q151.085 24.016 147.27 27.783 Q143.456 31.548 138.311 31.548 H96.715 Z M96.715 18.774 H138.311 Q138.311 18.774 138.311 18.774 Q138.311 18.774 138.311 18.774 V-9.556 Q138.311 -9.556 138.311 -9.556 Q138.311 -9.556 138.311 -9.556 H96.715 Q96.715 -9.556 96.715 -9.556 Q96.715 -9.556 96.715 -9.556 V18.774 Q96.715 18.774 96.715 18.774 Q96.715 18.774 96.715 18.774 Z M94.265 -36.78 Q92.262 -35.72 90.165 -36.256 Q88.065 -36.789 86.97 -38.826 Q85.379 -41.707 82.883 -43.702 Q80.388 -45.697 77.207 -45.697 Q72.816 -45.697 69.783 -42.715 Q66.751 -39.734 66.751 -35.299 Q66.751 -31.774 69.144 -29.099 Q71.539 -26.424 74.996 -25.044 Q77.042 -24.146 77.884 -22.019 Q78.725 -19.89 77.827 -17.889 Q76.931 -15.886 74.928 -15.127 Q72.927 -14.366 70.719 -15.101 Q64.247 -17.359 60.069 -22.88 Q55.891 -28.399 55.891 -35.423 Q55.891 -44.287 62.034 -50.423 Q68.178 -56.557 77.021 -56.557 Q83.274 -56.557 88.481 -53.161 Q93.686 -49.763 96.519 -44.12 Q97.416 -42.085 96.842 -39.961 Q96.266 -37.837 94.265 -36.78 Z M66.182 31.548 Q63.716 31.548 61.836 29.809 Q59.954 28.069 59.571 25.568 L57.244 10.502 Q54.69 9.638 51.732 7.935 Q48.775 6.232 46.65 4.5 L32.874 10.95 Q30.354 12.1 27.743 11.294 Q25.132 10.488 23.718 8.006 L13.089 -11.134 Q11.708 -13.379 12.273 -15.972 Q12.837 -18.565 15.045 -20.198 L27.854 -29.712 Q27.622 -30.878 27.542 -32.468 Q27.461 -34.056 27.461 -35.222 Q27.461 -36.388 27.542 -37.978 Q27.622 -39.566 27.854 -40.748 L15.045 -50.17 Q12.745 -51.895 12.181 -54.425 Q11.616 -56.957 13.089 -59.326 L23.752 -78.484 Q25.099 -80.744 27.675 -81.607 Q30.252 -82.47 32.782 -81.41 L46.832 -74.96 Q48.865 -76.602 51.797 -78.263 Q54.727 -79.924 57.244 -80.709 L59.753 -96.12 Q60.167 -98.742 62.115 -100.42 Q64.061 -102.1 66.701 -102.1 H88.228 Q90.721 -102.1 92.68 -100.427 Q94.639 -98.753 95.138 -96.12 L97.556 -80.87 Q100.093 -79.933 103.095 -78.348 Q106.096 -76.763 108.15 -74.96 L122.108 -81.41 Q124.64 -82.47 127.118 -81.604 Q129.597 -80.738 130.985 -78.48 L141.831 -59.313 Q143.184 -56.957 142.574 -54.277 Q141.966 -51.597 139.755 -50.17 L124.322 -39.181 Q124.322 -39.181 124.322 -39.181 Q124.322 -39.181 124.322 -39.181 Q122.2 -37.697 119.802 -38.092 Q117.406 -38.486 115.766 -40.524 Q114.067 -42.591 114.402 -45.178 Q114.737 -47.764 116.892 -49.393 L127.907 -57.342 L122.186 -67.767 L105.183 -60.35 Q101.475 -64.724 96.621 -67.683 Q91.767 -70.642 85.999 -71.356 L83.766 -89.234 H71.026 L68.868 -71.356 Q63.213 -70.32 58.269 -67.441 Q53.325 -64.563 49.525 -60.35 L32.614 -67.767 L26.893 -57.342 L41.778 -46.49 Q41.133 -43.657 40.683 -40.88 Q40.235 -38.103 40.235 -35.23 Q40.235 -32.397 40.683 -29.554 Q41.133 -26.711 41.778 -23.97 L26.893 -13.118 L32.614 -2.693 L49.505 -10.11 Q53.627 -5.841 58.982 -2.965 Q64.339 -0.092 70.213 1.29 V27.391 Q70.213 29.136 69.397 30.342 Q68.58 31.548 66.182 31.548 Z"/></g><g id="Medium-L" transform="matrix(1 0 0 1 1674.31 1556)"><path d="M94.875 30.234 Q90.408 30.234 87.13 26.966 Q83.85 23.699 83.85 19.248 V-11.344 Q83.85 -15.754 87.13 -19.042 Q90.408 -22.33 94.875 -22.33 H138.52 Q142.93 -22.33 146.218 -19.042 Q149.506 -15.754 149.506 -11.344 V19.248 Q149.506 23.699 146.218 26.966 Q142.93 30.234 138.52 30.234 H94.875 Z M94.875 19.248 H138.52 Q138.52 19.248 138.52 19.248 Q138.52 19.248 138.52 19.248 V-11.344 Q138.52 -11.344 138.52 -11.344 Q138.52 -11.344 138.52 -11.344 H94.875 Q94.875 -11.344 94.875 -11.344 Q94.875 -11.344 94.875 -11.344 V19.248 Q94.875 19.248 94.875 19.248 Q94.875 19.248 94.875 19.248 Z M94.396 -37.096 Q92.525 -36.089 90.521 -36.594 Q88.517 -37.099 87.496 -38.984 Q85.8 -41.97 83.208 -44.071 Q80.617 -46.171 77.318 -46.171 Q72.762 -46.171 69.573 -43.049 Q66.382 -39.926 66.382 -35.353 Q66.382 -31.721 68.697 -28.915 Q71.013 -26.108 74.522 -24.781 Q76.412 -23.936 77.279 -21.966 Q78.147 -19.995 77.302 -18.125 Q76.457 -16.256 74.586 -15.469 Q72.717 -14.682 70.666 -15.364 Q64.3 -17.621 60.253 -23.073 Q56.207 -28.525 56.207 -35.404 Q56.207 -44.179 62.294 -50.263 Q68.381 -56.347 77.147 -56.347 Q83.328 -56.347 88.507 -53.003 Q93.686 -49.659 96.466 -44.015 Q97.311 -42.13 96.789 -40.116 Q96.266 -38.1 94.396 -37.096 Z M66.886 30.234 Q64.54 30.234 62.862 28.66 Q61.181 27.087 60.833 24.728 L58.453 9.609 Q55.605 8.591 52.4 6.755 Q49.196 4.918 46.808 2.975 L32.979 9.425 Q30.61 10.47 28.204 9.71 Q25.797 8.951 24.454 6.692 L14.561 -11.081 Q13.234 -13.24 13.798 -15.64 Q14.363 -18.039 16.412 -19.568 L29.273 -29.082 Q28.99 -30.412 28.909 -32.153 Q28.828 -33.896 28.828 -35.227 Q28.828 -36.557 28.909 -38.299 Q28.99 -40.042 29.273 -41.378 L16.412 -50.854 Q14.324 -52.421 13.759 -54.794 Q13.195 -57.166 14.561 -59.379 L24.468 -77.158 Q25.782 -79.325 28.175 -80.109 Q30.568 -80.891 32.94 -79.885 L46.885 -73.435 Q49.234 -75.339 52.427 -77.158 Q55.62 -78.977 58.453 -79.869 L60.911 -95.226 Q61.272 -97.637 63.118 -99.185 Q64.966 -100.733 67.385 -100.733 H87.47 Q89.828 -100.733 91.679 -99.188 Q93.531 -97.642 93.928 -95.226 L96.347 -80.03 Q99.188 -78.982 102.458 -77.24 Q105.727 -75.501 107.992 -73.435 L121.899 -79.885 Q124.271 -80.891 126.576 -80.107 Q128.881 -79.322 130.211 -77.158 L140.289 -59.372 Q141.605 -57.166 141.023 -54.685 Q140.439 -52.202 138.388 -50.854 L123.764 -40.343 Q123.764 -40.343 123.764 -40.343 Q123.764 -40.343 123.764 -40.343 Q121.937 -39.065 119.899 -39.371 Q117.862 -39.677 116.424 -41.47 Q114.96 -43.275 115.242 -45.485 Q115.524 -47.696 117.366 -49.13 L128.537 -57.237 L122.395 -68.346 L105.341 -60.928 Q101.633 -65.198 96.882 -68.078 Q92.13 -70.958 86.433 -71.726 L84.187 -89.708 H70.61 L68.394 -71.726 Q62.839 -70.636 58.003 -67.836 Q53.167 -65.037 49.42 -60.928 L32.405 -68.346 L26.263 -57.237 L41.304 -46.227 Q40.659 -43.447 40.237 -40.737 Q39.814 -38.028 39.814 -35.23 Q39.814 -32.45 40.237 -29.712 Q40.659 -26.974 41.304 -24.233 L26.263 -13.223 L32.405 -2.114 L49.412 -9.532 Q53.574 -5.307 58.956 -2.462 Q64.339 0.382 70.266 1.711 V26.614 Q70.266 28.098 69.502 29.165 Q68.738 30.234 66.886 30.234 Z"/></g><g id="Regular-L" transform="matrix(1 0 0 1 1378.56 1556)"><path d="M93.525 29.27 Q89.655 29.27 86.752 26.368 Q83.85 23.465 83.85 19.595 V-12.655 Q83.85 -16.525 86.752 -19.427 Q89.655 -22.33 93.525 -22.33 H138.675 Q142.545 -22.33 145.447 -19.427 Q148.35 -16.525 148.35 -12.655 V19.595 Q148.35 23.465 145.447 26.368 Q142.545 29.27 138.675 29.27 H93.525 Z M93.525 19.595 H138.675 Q138.675 19.595 138.675 19.595 Q138.675 19.595 138.675 19.595 V-12.655 Q138.675 -12.655 138.675 -12.655 Q138.675 -12.655 138.675 -12.655 H93.525 Q93.525 -12.655 93.525 -12.655 Q93.525 -12.655 93.525 -12.655 V19.595 Q93.525 19.595 93.525 19.595 Q93.525 19.595 93.525 19.595 Z M94.493 -37.326 Q92.719 -36.359 90.784 -36.842 Q88.849 -37.326 87.881 -39.1 Q86.108 -42.164 83.447 -44.341 Q80.786 -46.517 77.4 -46.517 Q72.724 -46.517 69.418 -43.292 Q66.112 -40.067 66.112 -35.391 Q66.112 -31.682 68.37 -28.78 Q70.627 -25.877 74.175 -24.587 Q75.949 -23.781 76.836 -21.927 Q77.722 -20.072 76.916 -18.299 Q76.11 -16.525 74.336 -15.719 Q72.562 -14.912 70.627 -15.557 Q64.339 -17.815 60.388 -23.217 Q56.438 -28.619 56.438 -35.391 Q56.438 -44.099 62.484 -50.146 Q68.531 -56.192 77.239 -56.192 Q83.366 -56.192 88.526 -52.887 Q93.686 -49.581 96.428 -43.937 Q97.234 -42.164 96.75 -40.229 Q96.266 -38.294 94.493 -37.326 Z M67.403 29.27 Q65.145 29.27 63.613 27.819 Q62.081 26.368 61.759 24.11 L59.34 8.953 Q56.276 7.824 52.89 5.889 Q49.504 3.954 46.924 1.858 L33.056 8.308 Q30.799 9.275 28.541 8.549 Q26.284 7.824 24.994 5.728 L15.641 -11.042 Q14.351 -13.139 14.916 -15.396 Q15.48 -17.654 17.415 -19.105 L30.315 -28.619 Q29.992 -30.07 29.912 -31.924 Q29.831 -33.779 29.831 -35.23 Q29.831 -36.681 29.912 -38.536 Q29.992 -40.39 30.315 -41.841 L17.415 -51.355 Q15.48 -52.806 14.916 -55.064 Q14.351 -57.321 15.641 -59.417 L24.994 -76.187 Q26.284 -78.284 28.541 -79.009 Q30.799 -79.735 33.056 -78.767 L46.924 -72.317 Q49.504 -74.414 52.89 -76.349 Q56.276 -78.284 59.34 -79.251 L61.759 -94.57 Q62.081 -96.827 63.855 -98.279 Q65.629 -99.73 67.886 -99.73 H86.914 Q89.171 -99.73 90.945 -98.279 Q92.719 -96.827 93.041 -94.57 L95.46 -79.412 Q98.524 -78.284 101.991 -76.429 Q105.457 -74.575 107.876 -72.317 L121.744 -78.767 Q124.001 -79.735 126.178 -79.009 Q128.355 -78.284 129.645 -76.187 L139.159 -59.417 Q140.449 -57.321 139.884 -54.983 Q139.32 -52.645 137.385 -51.355 L123.356 -41.196 Q123.356 -41.196 123.356 -41.196 Q123.356 -41.196 123.356 -41.196 Q121.744 -40.067 119.97 -40.309 Q118.196 -40.551 116.906 -42.164 Q115.616 -43.776 115.858 -45.711 Q116.1 -47.646 117.713 -48.936 L129 -57.16 L122.55 -68.77 L105.457 -61.352 Q101.749 -65.545 97.073 -68.367 Q92.396 -71.189 86.752 -71.995 L84.495 -90.055 H70.305 L68.047 -71.995 Q62.565 -70.866 57.808 -68.125 Q53.051 -65.384 49.343 -61.352 L32.25 -68.77 L25.8 -57.16 L40.958 -46.034 Q40.312 -43.292 39.909 -40.632 Q39.506 -37.971 39.506 -35.23 Q39.506 -32.489 39.909 -29.828 Q40.312 -27.167 40.958 -24.426 L25.8 -13.3 L32.25 -1.69 L49.343 -9.107 Q53.535 -4.915 58.937 -2.093 Q64.339 0.729 70.305 2.019 V26.045 Q70.305 27.335 69.579 28.303 Q68.854 29.27 67.403 29.27 Z"/></g><g id="Light-L" transform="matrix(1 0 0 1 1082.77 1556)"><path d="M93.153 26.045 Q89.358 26.045 86.604 23.291 Q83.85 20.537 83.85 16.742 V-13.027 Q83.85 -16.822 86.604 -19.576 Q89.358 -22.33 93.153 -22.33 H135.822 Q139.617 -22.33 142.371 -19.576 Q145.125 -16.822 145.125 -13.027 V16.742 Q145.125 20.537 142.371 23.291 Q139.617 26.045 135.822 26.045 H93.153 Z M93.153 18.726 H135.822 Q136.69 18.726 137.248 18.168 Q137.806 17.61 137.806 16.742 V-13.027 Q137.806 -13.895 137.248 -14.453 Q136.69 -15.012 135.822 -15.012 H93.153 Q92.285 -15.012 91.727 -14.453 Q91.168 -13.895 91.168 -13.027 V16.742 Q91.168 17.61 91.727 18.168 Q92.285 18.726 93.153 18.726 Z M92.322 -38.071 Q91.043 -37.289 89.574 -37.618 Q88.104 -37.947 87.323 -39.224 Q85.55 -42.04 83.02 -44.062 Q80.491 -46.084 77.215 -46.084 Q72.719 -46.084 69.539 -42.965 Q66.361 -39.848 66.361 -35.33 Q66.361 -31.916 68.401 -29.207 Q70.442 -26.498 73.617 -25.145 Q74.957 -24.526 75.563 -23.106 Q76.171 -21.685 75.552 -20.377 Q74.931 -19.068 73.561 -18.51 Q72.19 -17.952 70.752 -18.473 Q65.517 -20.482 62.28 -25.066 Q59.043 -29.649 59.043 -35.33 Q59.043 -42.939 64.282 -48.17 Q69.521 -53.401 77.144 -53.401 Q82.373 -53.401 86.788 -50.592 Q91.205 -47.783 93.575 -43.068 Q94.257 -41.73 93.928 -40.29 Q93.599 -38.852 92.322 -38.071 Z M68.085 26.045 Q66.43 26.045 65.309 24.944 Q64.189 23.842 63.929 22.125 L61.697 6.658 Q58.385 5.529 54.565 3.376 Q50.744 1.225 47.978 -1.182 L33.987 5.268 Q32.226 5.987 30.468 5.457 Q28.712 4.926 27.722 3.246 L19.115 -11.973 Q18.134 -13.635 18.555 -15.372 Q18.976 -17.109 20.516 -18.236 L33.355 -27.75 Q33.032 -29.449 32.889 -31.46 Q32.747 -33.469 32.747 -35.136 Q32.747 -36.805 32.889 -38.815 Q33.032 -40.824 33.355 -42.71 L20.516 -52.224 Q18.953 -53.364 18.574 -55.125 Q18.197 -56.887 19.176 -58.548 L27.722 -73.582 Q28.728 -75.226 30.476 -75.775 Q32.226 -76.323 33.987 -75.604 L47.915 -69.278 Q50.868 -71.685 54.565 -73.806 Q58.261 -75.926 61.635 -76.957 L63.992 -92.461 Q64.313 -94.231 65.717 -95.368 Q67.12 -96.505 68.878 -96.505 H85.922 Q87.68 -96.505 89.083 -95.368 Q90.487 -94.231 90.808 -92.461 L93.103 -77.055 Q96.663 -75.741 100.223 -73.793 Q103.782 -71.847 106.636 -69.278 L120.938 -75.604 Q122.637 -76.323 124.343 -75.767 Q126.049 -75.209 127.039 -73.582 L135.685 -58.487 Q136.666 -56.825 136.251 -55.019 Q135.839 -53.213 134.284 -52.224 L119.883 -41.754 Q119.883 -41.754 119.883 -41.754 Q119.883 -41.754 119.883 -41.754 Q118.643 -40.874 117.334 -41.085 Q116.026 -41.296 115.045 -42.473 Q114.065 -43.652 114.246 -45.123 Q114.425 -46.592 115.666 -47.572 L128.07 -56.726 L121.62 -68.149 L104.588 -60.856 Q101.191 -64.676 96.39 -67.591 Q91.59 -70.507 86.504 -71.189 L84.31 -89.186 H70.49 L68.357 -71.25 Q62.999 -70.184 58.49 -67.598 Q53.982 -65.011 50.087 -60.919 L33.18 -68.149 L26.73 -56.726 L41.64 -45.785 Q40.933 -43.231 40.561 -40.601 Q40.188 -37.971 40.188 -35.215 Q40.188 -32.46 40.561 -29.907 Q40.933 -27.353 41.578 -24.736 L26.73 -13.734 L33.18 -2.311 L50.025 -9.541 Q54.093 -5.437 59.371 -2.727 Q64.648 -0.016 70.49 1.274 V23.378 Q70.49 24.492 69.858 25.269 Q69.226 26.045 68.085 26.045 Z"/></g><g id="Thin-L" transform="matrix(1 0 0 1 787.282 1556)"><path d="M92.78 22.82 Q89.063 22.82 86.456 20.214 Q83.85 17.607 83.85 13.89 V-13.4 Q83.85 -17.117 86.456 -19.724 Q89.063 -22.33 92.78 -22.33 H132.97 Q136.687 -22.33 139.294 -19.724 Q141.9 -17.117 141.9 -13.4 V13.89 Q141.9 17.607 139.294 20.214 Q136.687 22.82 132.97 22.82 H92.78 Z M92.78 17.858 H132.97 Q134.705 17.858 135.822 16.742 Q136.938 15.625 136.938 13.89 V-13.4 Q136.938 -15.135 135.822 -16.252 Q134.705 -17.368 132.97 -17.368 H92.78 Q91.045 -17.368 89.928 -16.252 Q88.812 -15.135 88.812 -13.4 V13.89 Q88.812 15.625 89.928 16.742 Q91.045 17.858 92.78 17.858 Z M90.152 -38.815 Q89.37 -38.22 88.365 -38.394 Q87.36 -38.566 86.765 -39.348 Q84.992 -41.915 82.594 -43.783 Q80.194 -45.65 77.028 -45.65 Q72.714 -45.65 69.662 -42.639 Q66.609 -39.629 66.609 -35.267 Q66.609 -32.15 68.431 -29.633 Q70.255 -27.118 73.059 -25.703 Q73.964 -25.27 74.293 -24.284 Q74.622 -23.297 74.188 -22.454 Q73.753 -21.611 72.785 -21.301 Q71.818 -20.99 70.876 -21.387 Q66.696 -23.149 64.171 -26.914 Q61.647 -30.68 61.647 -35.267 Q61.647 -41.782 66.079 -46.197 Q70.51 -50.61 77.048 -50.61 Q81.378 -50.61 85.051 -48.298 Q88.725 -45.984 90.722 -42.201 Q91.28 -41.296 91.106 -40.353 Q90.932 -39.41 90.152 -38.815 Z M68.767 22.82 Q67.714 22.82 67.004 22.069 Q66.296 21.317 66.1 20.14 L64.053 4.363 Q60.493 3.235 56.239 0.866 Q51.984 -1.505 49.033 -4.22 L34.917 2.23 Q33.651 2.701 32.397 2.365 Q31.141 2.03 30.452 0.766 L22.588 -12.903 Q21.917 -14.13 22.194 -15.346 Q22.472 -16.562 23.617 -17.368 L36.393 -26.882 Q36.07 -28.83 35.865 -30.994 Q35.66 -33.158 35.66 -35.045 Q35.66 -36.93 35.865 -39.094 Q36.07 -41.258 36.393 -43.578 L23.617 -53.092 Q22.427 -53.922 22.233 -55.188 Q22.041 -56.454 22.712 -57.681 L30.452 -70.978 Q31.171 -72.169 32.411 -72.542 Q33.651 -72.913 34.917 -72.442 L48.909 -66.24 Q52.232 -68.955 56.239 -71.263 Q60.246 -73.57 63.929 -74.662 L66.224 -90.353 Q66.545 -91.635 67.578 -92.458 Q68.612 -93.28 69.871 -93.28 H84.929 Q86.188 -93.28 87.222 -92.458 Q88.255 -91.635 88.576 -90.353 L90.747 -74.699 Q94.802 -73.198 98.456 -71.158 Q102.108 -69.117 105.396 -66.24 L120.131 -72.442 Q121.273 -72.913 122.508 -72.524 Q123.745 -72.134 124.435 -70.978 L132.212 -57.557 Q132.883 -56.33 132.62 -55.056 Q132.359 -53.782 131.183 -53.092 L116.41 -42.312 Q116.41 -42.312 116.41 -42.312 Q116.41 -42.312 116.41 -42.312 Q115.542 -41.68 114.699 -41.861 Q113.855 -42.04 113.185 -42.785 Q112.515 -43.528 112.633 -44.533 Q112.751 -45.537 113.62 -46.208 L127.139 -56.292 L120.689 -67.53 L103.721 -60.361 Q100.633 -63.808 95.708 -66.816 Q90.784 -69.825 86.256 -70.382 L84.123 -88.318 H70.677 L68.668 -70.507 Q63.433 -69.502 59.172 -67.07 Q54.912 -64.639 50.831 -60.485 L34.111 -67.53 L27.661 -56.292 L42.322 -45.537 Q41.553 -43.168 41.212 -40.571 Q40.87 -37.971 40.87 -35.199 Q40.87 -32.429 41.212 -29.985 Q41.553 -27.54 42.198 -25.047 L27.661 -14.168 L34.111 -2.93 L50.707 -9.975 Q54.651 -5.96 59.804 -3.361 Q64.96 -0.76 70.677 0.53 V20.711 Q70.677 21.651 70.137 22.236 Q69.599 22.82 68.767 22.82 Z"/></g><g id="Ultralight-L" transform="matrix(1 0 0 1 491.205 1556)"><path d="M92.558 20.885 Q88.884 20.885 86.367 18.368 Q83.85 15.849 83.85 12.178 V-13.622 Q83.85 -17.294 86.367 -19.813 Q88.884 -22.33 92.558 -22.33 H131.257 Q134.931 -22.33 137.448 -19.813 Q139.965 -17.294 139.965 -13.622 V12.178 Q139.965 15.849 137.448 18.368 Q134.931 20.885 131.257 20.885 H92.558 Z M92.558 17.338 H131.257 Q133.515 17.338 134.966 15.886 Q136.417 14.435 136.417 12.178 V-13.622 Q136.417 -15.88 134.966 -17.331 Q133.515 -18.782 131.257 -18.782 H92.558 Q90.3 -18.782 88.849 -17.331 Q87.398 -15.88 87.398 -13.622 V12.178 Q87.398 14.435 88.849 15.886 Q90.3 17.338 92.558 17.338 Z M88.849 -39.261 Q88.365 -38.777 87.639 -38.858 Q86.914 -38.939 86.43 -39.422 Q84.656 -41.841 82.337 -43.615 Q80.017 -45.389 76.916 -45.389 Q72.711 -45.389 69.734 -42.443 Q66.758 -39.497 66.758 -35.23 Q66.758 -32.29 68.451 -29.889 Q70.144 -27.49 72.724 -26.039 Q73.369 -25.716 73.53 -24.991 Q73.691 -24.265 73.369 -23.701 Q73.046 -23.136 72.321 -22.975 Q71.595 -22.814 70.95 -23.136 Q67.403 -24.749 65.306 -28.024 Q63.21 -31.299 63.21 -35.23 Q63.21 -41.085 67.157 -45.011 Q71.105 -48.936 76.99 -48.936 Q80.781 -48.936 84.01 -46.921 Q87.236 -44.905 89.01 -41.68 Q89.494 -41.035 89.413 -40.39 Q89.332 -39.745 88.849 -39.261 Z M69.176 20.885 Q68.484 20.885 68.023 20.343 Q67.561 19.801 67.403 18.95 L65.468 2.986 Q61.759 1.858 57.244 -0.642 Q52.729 -3.141 49.665 -6.044 L35.475 0.406 Q34.508 0.729 33.553 0.511 Q32.598 0.292 32.089 -0.722 L24.671 -13.461 Q24.188 -14.429 24.378 -15.332 Q24.568 -16.235 25.477 -16.847 L38.216 -26.361 Q37.894 -28.457 37.652 -30.715 Q37.41 -32.972 37.41 -34.988 Q37.41 -37.004 37.652 -39.261 Q37.894 -41.519 38.216 -44.099 L25.477 -53.612 Q24.51 -54.257 24.429 -55.225 Q24.349 -56.192 24.832 -57.16 L32.089 -69.415 Q32.639 -70.336 33.572 -70.6 Q34.508 -70.866 35.475 -70.544 L49.504 -64.416 Q53.051 -67.319 57.244 -69.737 Q61.436 -72.156 65.306 -73.285 L67.564 -89.087 Q67.885 -90.079 68.696 -90.711 Q69.507 -91.345 70.466 -91.345 H84.334 Q85.293 -91.345 86.104 -90.711 Q86.915 -90.079 87.236 -89.087 L89.332 -73.285 Q93.686 -71.672 97.395 -69.576 Q101.104 -67.48 104.651 -64.416 L119.648 -70.544 Q120.454 -70.866 121.408 -70.578 Q122.361 -70.287 122.873 -69.415 L130.129 -56.999 Q130.613 -56.031 130.442 -55.077 Q130.271 -54.122 129.322 -53.612 L114.326 -42.647 Q114.326 -42.647 114.326 -42.647 Q114.326 -42.647 114.326 -42.647 Q113.681 -42.164 113.117 -42.325 Q112.553 -42.486 112.069 -42.97 Q111.585 -43.454 111.666 -44.179 Q111.746 -44.905 112.391 -45.389 L126.581 -56.031 L120.131 -67.157 L103.2 -60.062 Q100.297 -63.287 95.299 -66.351 Q90.3 -69.415 86.108 -69.899 L84.011 -87.797 H70.789 L68.854 -70.06 Q63.694 -69.092 59.582 -66.754 Q55.47 -64.416 51.278 -60.224 L34.669 -67.157 L28.219 -56.031 L42.731 -45.389 Q41.925 -43.131 41.602 -40.551 Q41.28 -37.971 41.28 -35.19 Q41.28 -32.411 41.602 -30.031 Q41.925 -27.651 42.57 -25.232 L28.219 -14.429 L34.669 -3.302 L51.116 -10.236 Q54.986 -6.273 60.066 -3.739 Q65.145 -1.206 70.789 0.084 V19.111 Q70.789 19.947 70.305 20.416 Q69.821 20.885 69.176 20.885 Z"/></g><g id="Bold-M" transform="matrix(1 0 0 1 2281.8 1126)"><path d="M80.75 19.02 Q74.125 19.02 69.562 14.458 Q65 9.895 65 3.27 V-9.48 Q65 -16.105 69.562 -20.667 Q74.125 -25.23 80.75 -25.23 H104.25 Q110.875 -25.23 115.438 -20.667 Q120 -16.105 120 -9.48 V3.27 Q120 9.895 115.438 14.458 Q110.875 19.02 104.25 19.02 H80.75 Z M80.75 3.27 H104.25 Q104.25 3.27 104.25 3.27 Q104.25 3.27 104.25 3.27 V-9.48 Q104.25 -9.48 104.25 -9.48 Q104.25 -9.48 104.25 -9.48 H80.75 Q80.75 -9.48 80.75 -9.48 Q80.75 -9.48 80.75 -9.48 V3.27 Q80.75 3.27 80.75 3.27 Q80.75 3.27 80.75 3.27 Z M73.625 -34.605 Q71.375 -33.48 69.025 -34.3 Q66.675 -35.12 65.5 -37.355 Q64.625 -39.105 63.165 -40.167 Q61.705 -41.23 59.892 -41.23 Q57.375 -41.23 55.625 -39.501 Q53.875 -37.772 53.875 -35.23 Q53.875 -33.105 55.375 -31.73 Q56.875 -30.355 58.75 -29.355 Q61 -28.105 61.75 -25.667 Q62.5 -23.23 61.25 -20.98 Q60 -18.73 57.688 -18.105 Q55.375 -17.48 53 -18.48 Q48 -20.73 44.875 -25.167 Q41.75 -29.605 41.75 -35.23 Q41.75 -42.739 47.044 -48.047 Q52.337 -53.355 59.828 -53.355 Q65.25 -53.355 69.625 -50.48 Q74 -47.605 76.375 -42.73 Q77.375 -40.496 76.625 -38.112 Q75.875 -35.73 73.625 -34.605 Z M49.25 19.02 Q46.416 19.02 44.25 17.186 Q42.084 15.354 41.75 12.52 L40.375 1.645 Q39.697 1.381 39.099 1.014 Q38.5 0.645 37.875 0.27 L30.25 3.52 Q26.625 5.145 22.875 3.895 Q19.125 2.645 17.125 -0.855 L8.875 -15.48 Q7 -18.809 7.75 -22.645 Q8.5 -26.48 11.625 -28.855 L18.125 -33.855 Q18.125 -34.209 18.125 -34.537 Q18.125 -34.866 18.125 -35.219 Q18.125 -35.572 18.125 -35.901 Q18.125 -36.23 18.125 -36.605 L11.625 -41.48 Q8.375 -43.855 7.625 -47.667 Q6.875 -51.48 8.875 -54.98 L17.125 -69.48 Q19.125 -72.855 22.812 -74.105 Q26.5 -75.355 30.125 -73.855 L38.125 -70.605 Q38.75 -70.98 39.25 -71.292 Q39.75 -71.605 40.375 -71.855 L41.5 -80.355 Q42.125 -84.355 44.938 -86.917 Q47.75 -89.48 51.75 -89.48 H68.25 Q72.25 -89.48 75.062 -86.917 Q77.875 -84.355 78.5 -80.355 L79.625 -71.855 Q80.302 -71.625 80.901 -71.302 Q81.5 -70.98 82.125 -70.605 L89.75 -73.855 Q93.375 -75.48 97.103 -74.162 Q100.829 -72.846 102.875 -69.48 L111.125 -54.98 Q113.125 -51.48 112.312 -47.667 Q111.5 -43.855 108.25 -41.48 L100 -35.48 Q100 -35.48 100 -35.48 Q100 -35.48 100 -35.48 Q97.375 -33.605 94.188 -34.105 Q91 -34.605 89.062 -37.23 Q87.125 -39.855 87.629 -42.997 Q88.132 -46.141 90.75 -48.105 L95.125 -51.355 L91.5 -57.605 L79.375 -52.355 Q76.625 -55.605 73 -57.73 Q69.375 -59.855 65.25 -60.73 L63.625 -73.73 H56.375 L54.875 -60.855 Q50.625 -59.98 46.938 -57.855 Q43.25 -55.73 40.375 -52.48 L28.375 -57.605 L24.875 -51.355 L35.125 -43.73 Q34.5 -41.605 34.125 -39.57 Q33.75 -37.536 33.75 -35.23 Q33.75 -33.105 34.125 -30.98 Q34.5 -28.855 35.125 -26.73 L24.875 -19.105 L28.375 -12.855 L40.347 -17.98 Q43.25 -14.855 46.938 -12.73 Q50.625 -10.605 54.875 -9.605 V13.02 Q54.875 15.49 53.688 17.255 Q52.5 19.02 49.25 19.02 Z"/></g><g id="Semibold-M" transform="matrix(1 0 0 1 1985.97 1126)"><path d="M78.25 17.173 Q72.713 17.173 68.856 13.316 Q65 9.46 65 3.923 V-11.98 Q65 -17.517 68.856 -21.374 Q72.713 -25.23 78.25 -25.23 H104.576 Q110.114 -25.23 113.97 -21.374 Q117.826 -17.517 117.826 -11.98 V3.923 Q117.826 9.46 113.97 13.316 Q110.114 17.173 104.576 17.173 H78.25 Z M78.25 3.923 H104.576 Q104.576 3.923 104.576 3.923 Q104.576 3.923 104.576 3.923 V-11.98 Q104.576 -11.98 104.576 -11.98 Q104.576 -11.98 104.576 -11.98 H78.25 Q78.25 -11.98 78.25 -11.98 Q78.25 -11.98 78.25 -11.98 V3.923 Q78.25 3.923 78.25 3.923 Q78.25 3.923 78.25 3.923 Z M73.787 -35.04 Q71.701 -33.969 69.504 -34.731 Q67.305 -35.494 66.206 -37.572 Q65.278 -39.485 63.664 -40.684 Q62.05 -41.882 60.047 -41.882 Q57.266 -41.882 55.326 -39.981 Q53.386 -38.08 53.386 -35.284 Q53.386 -33.105 54.75 -31.54 Q56.114 -29.975 58.097 -28.975 Q60.185 -27.834 60.935 -25.614 Q61.685 -23.392 60.544 -21.306 Q59.403 -19.219 57.252 -18.54 Q55.104 -17.86 52.946 -18.86 Q48.054 -21.056 45.12 -25.412 Q42.185 -29.767 42.185 -35.23 Q42.185 -42.626 47.405 -47.855 Q52.626 -53.084 60.011 -53.084 Q65.359 -53.084 69.706 -50.262 Q74.054 -47.442 76.321 -42.621 Q77.321 -40.544 76.597 -38.327 Q75.875 -36.11 73.787 -35.04 Z M50.174 17.173 Q47.649 17.173 45.718 15.539 Q43.786 13.904 43.489 11.379 L42.06 0.395 Q40.97 -0.025 40.008 -0.614 Q39.044 -1.202 38.093 -1.85 L30.413 1.4 Q27.005 2.918 23.527 1.721 Q20.049 0.525 18.157 -2.702 L10.94 -15.426 Q9.12 -18.557 9.87 -22.165 Q10.62 -25.774 13.527 -27.985 L20.081 -32.985 Q20.027 -33.566 20.027 -34.105 Q20.027 -34.644 20.027 -35.224 Q20.027 -35.804 20.027 -36.344 Q20.027 -36.882 20.081 -37.475 L13.527 -42.404 Q10.549 -44.616 9.799 -48.211 Q9.049 -51.806 10.94 -55.034 L18.157 -67.686 Q20.049 -70.844 23.491 -72.04 Q26.935 -73.235 30.343 -71.79 L38.234 -68.54 Q39.185 -69.186 40.12 -69.744 Q41.054 -70.301 42.06 -70.714 L43.13 -79.105 Q43.646 -82.834 46.324 -85.232 Q49 -87.632 52.729 -87.632 H67.271 Q71 -87.632 73.676 -85.232 Q76.354 -82.834 76.87 -79.105 L77.94 -70.714 Q79.03 -70.312 79.993 -69.749 Q80.956 -69.186 81.907 -68.54 L89.479 -71.79 Q92.886 -73.306 96.379 -72.072 Q99.871 -70.839 101.787 -67.686 L109.005 -55.034 Q110.897 -51.806 110.139 -48.237 Q109.38 -44.67 106.403 -42.404 L99.239 -37.11 Q99.239 -37.11 99.239 -37.11 Q99.239 -37.11 99.239 -37.11 Q96.995 -35.507 94.324 -35.899 Q91.653 -36.29 90.014 -38.534 Q88.375 -40.779 88.795 -43.425 Q89.216 -46.071 91.403 -47.725 L95.995 -51.192 L91.826 -58.42 L79.593 -53.17 Q76.843 -56.257 73.354 -58.3 Q69.864 -60.344 65.847 -61.274 L64.222 -74.382 H55.831 L54.222 -61.344 Q50.136 -60.415 46.611 -58.371 Q43.087 -56.327 40.266 -53.295 L28.104 -58.42 L24.005 -51.192 L34.472 -43.404 Q33.847 -41.387 33.528 -39.422 Q33.206 -37.457 33.206 -35.23 Q33.206 -33.159 33.528 -31.142 Q33.847 -29.126 34.472 -27.11 L24.005 -19.267 L28.104 -12.04 L40.251 -17.219 Q43.196 -14.094 46.91 -11.969 Q50.625 -9.844 54.929 -9.007 V11.933 Q54.929 14.09 53.824 15.631 Q52.718 17.173 50.174 17.173 Z"/></g><g id="Medium-M" transform="matrix(1 0 0 1 1689.91 1126)"><path d="M76.375 15.786 Q71.653 15.786 68.326 12.46 Q65 9.134 65 4.411 V-13.855 Q65 -18.577 68.326 -21.904 Q71.653 -25.23 76.375 -25.23 H104.821 Q109.544 -25.23 112.87 -21.904 Q116.196 -18.577 116.196 -13.855 V4.411 Q116.196 9.134 112.87 12.46 Q109.544 15.786 104.821 15.786 H76.375 Z M76.375 4.411 H104.821 Q104.821 4.411 104.821 4.411 Q104.821 4.411 104.821 4.411 V-13.855 Q104.821 -13.855 104.821 -13.855 Q104.821 -13.855 104.821 -13.855 H76.375 Q76.375 -13.855 76.375 -13.855 Q76.375 -13.855 76.375 -13.855 V4.411 Q76.375 4.411 76.375 4.411 Q76.375 4.411 76.375 4.411 Z M73.91 -35.366 Q71.946 -34.336 69.862 -35.055 Q67.779 -35.774 66.736 -37.735 Q65.766 -39.771 64.037 -41.071 Q62.31 -42.371 60.165 -42.371 Q57.185 -42.371 55.102 -40.341 Q53.019 -38.311 53.019 -35.325 Q53.019 -33.105 54.281 -31.397 Q55.544 -29.689 57.609 -28.689 Q59.574 -27.63 60.324 -25.572 Q61.074 -23.515 60.014 -21.551 Q58.954 -19.586 56.926 -18.866 Q54.9 -18.146 52.905 -19.146 Q48.095 -21.301 45.303 -25.595 Q42.511 -29.89 42.511 -35.23 Q42.511 -42.542 47.676 -47.711 Q52.841 -52.88 60.149 -52.88 Q65.44 -52.88 69.767 -50.1 Q74.095 -47.32 76.28 -42.54 Q77.28 -40.579 76.578 -38.487 Q75.875 -36.396 73.91 -35.366 Z M50.866 15.786 Q48.572 15.786 46.818 14.301 Q45.064 12.818 44.794 10.523 L43.324 -0.542 Q41.925 -1.081 40.688 -1.835 Q39.451 -2.589 38.255 -3.439 L30.535 -0.189 Q27.291 1.245 24.016 0.091 Q20.741 -1.064 18.933 -4.089 L12.489 -15.385 Q10.709 -18.369 11.459 -21.806 Q12.209 -25.244 14.954 -27.334 L21.549 -32.334 Q21.454 -33.084 21.454 -33.78 Q21.454 -34.477 21.454 -35.227 Q21.454 -35.977 21.454 -36.675 Q21.454 -37.371 21.549 -38.126 L14.954 -43.096 Q12.179 -45.186 11.429 -48.619 Q10.679 -52.051 12.489 -55.075 L18.933 -66.341 Q20.741 -69.336 24.001 -70.491 Q27.261 -71.646 30.505 -70.241 L38.315 -66.991 Q39.511 -67.841 40.771 -68.582 Q42.032 -69.322 43.324 -69.857 L44.354 -78.167 Q44.788 -81.692 47.362 -83.969 Q49.938 -86.246 53.462 -86.246 H66.537 Q70.062 -86.246 72.638 -83.969 Q75.213 -81.692 75.646 -78.167 L76.676 -69.857 Q78.075 -69.327 79.312 -68.584 Q80.549 -67.841 81.745 -66.991 L89.275 -70.241 Q92.519 -71.676 95.835 -70.505 Q99.153 -69.334 100.972 -66.341 L107.416 -55.075 Q109.225 -52.051 108.509 -48.666 Q107.791 -45.281 105.016 -43.096 L98.669 -38.334 Q98.669 -38.334 98.669 -38.334 Q98.669 -38.334 98.669 -38.334 Q96.709 -36.934 94.425 -37.244 Q92.141 -37.554 90.728 -39.512 Q89.312 -41.471 89.671 -43.745 Q90.029 -46.019 91.891 -47.439 L96.646 -51.07 L92.071 -59.031 L79.755 -53.781 Q77.005 -56.746 73.619 -58.729 Q70.231 -60.711 66.296 -61.681 L64.671 -74.871 H55.424 L53.734 -61.711 Q49.769 -60.741 46.366 -58.759 Q42.965 -56.776 40.185 -53.906 L27.9 -59.031 L23.354 -51.07 L33.984 -43.159 Q33.359 -41.225 33.079 -39.311 Q32.799 -37.399 32.799 -35.23 Q32.799 -33.2 33.079 -31.265 Q33.359 -29.33 33.984 -27.396 L23.354 -19.39 L27.9 -11.429 L40.179 -16.649 Q43.155 -13.524 46.89 -11.399 Q50.625 -9.274 54.97 -8.559 V11.118 Q54.97 13.04 53.925 14.414 Q52.88 15.786 50.866 15.786 Z"/></g><g id="Regular-M" transform="matrix(1 0 0 1 1394.06 1126)"><path d="M75 14.77 Q70.875 14.77 67.938 11.833 Q65 8.895 65 4.77 V-15.23 Q65 -19.355 67.938 -22.292 Q70.875 -25.23 75 -25.23 H105 Q109.125 -25.23 112.062 -22.292 Q115 -19.355 115 -15.23 V4.77 Q115 8.895 112.062 11.833 Q109.125 14.77 105 14.77 H75 Z M75 4.77 H105 Q105 4.77 105 4.77 Q105 4.77 105 4.77 V-15.23 Q105 -15.23 105 -15.23 Q105 -15.23 105 -15.23 H75 Q75 -15.23 75 -15.23 Q75 -15.23 75 -15.23 V4.77 Q75 4.77 75 4.77 Q75 4.77 75 4.77 Z M74 -35.605 Q72.125 -34.605 70.125 -35.292 Q68.125 -35.98 67.125 -37.855 Q66.125 -39.98 64.312 -41.355 Q62.5 -42.73 60.25 -42.73 Q57.125 -42.73 54.938 -40.605 Q52.75 -38.48 52.75 -35.355 Q52.75 -33.105 53.938 -31.292 Q55.125 -29.48 57.25 -28.48 Q59.125 -27.48 59.875 -25.542 Q60.625 -23.605 59.625 -21.73 Q58.625 -19.855 56.688 -19.105 Q54.75 -18.355 52.875 -19.355 Q48.125 -21.48 45.438 -25.73 Q42.75 -29.98 42.75 -35.23 Q42.75 -42.48 47.875 -47.605 Q53 -52.73 60.25 -52.73 Q65.5 -52.73 69.812 -49.98 Q74.125 -47.23 76.25 -42.48 Q77.25 -40.605 76.562 -38.605 Q75.875 -36.605 74 -35.605 Z M51.375 14.77 Q49.25 14.77 47.625 13.395 Q46 12.02 45.75 9.895 L44.25 -1.23 Q42.625 -1.855 41.188 -2.73 Q39.75 -3.605 38.375 -4.605 L30.625 -1.355 Q27.5 0.02 24.375 -1.105 Q21.25 -2.23 19.5 -5.105 L13.625 -15.355 Q11.875 -18.23 12.625 -21.542 Q13.375 -24.855 16 -26.855 L22.625 -31.855 Q22.5 -32.73 22.5 -33.542 Q22.5 -34.355 22.5 -35.23 Q22.5 -36.105 22.5 -36.917 Q22.5 -37.73 22.625 -38.605 L16 -43.605 Q13.375 -45.605 12.625 -48.917 Q11.875 -52.23 13.625 -55.105 L19.5 -65.355 Q21.25 -68.23 24.375 -69.355 Q27.5 -70.48 30.625 -69.105 L38.375 -65.855 Q39.75 -66.855 41.25 -67.73 Q42.75 -68.605 44.25 -69.23 L45.25 -77.48 Q45.625 -80.855 48.125 -83.042 Q50.625 -85.23 54 -85.23 H66 Q69.375 -85.23 71.875 -83.042 Q74.375 -80.855 74.75 -77.48 L75.75 -69.23 Q77.375 -68.605 78.812 -67.73 Q80.25 -66.855 81.625 -65.855 L89.125 -69.105 Q92.25 -70.48 95.438 -69.355 Q98.625 -68.23 100.375 -65.355 L106.25 -55.105 Q108 -52.23 107.312 -48.98 Q106.625 -45.73 104 -43.605 L98.25 -39.23 Q98.25 -39.23 98.25 -39.23 Q98.25 -39.23 98.25 -39.23 Q96.5 -37.98 94.5 -38.23 Q92.5 -38.48 91.25 -40.23 Q90 -41.98 90.312 -43.98 Q90.625 -45.98 92.25 -47.23 L97.125 -50.98 L92.25 -59.48 L79.875 -54.23 Q77.125 -57.105 73.812 -59.042 Q70.5 -60.98 66.625 -61.98 L65 -75.23 H55.125 L53.375 -61.98 Q49.5 -60.98 46.188 -59.042 Q42.875 -57.105 40.125 -54.355 L27.75 -59.48 L22.875 -50.98 L33.625 -42.98 Q33 -41.105 32.75 -39.23 Q32.5 -37.355 32.5 -35.23 Q32.5 -33.23 32.75 -31.355 Q33 -29.48 33.625 -27.605 L22.875 -19.48 L27.75 -10.98 L40.125 -16.23 Q43.125 -13.105 46.875 -10.98 Q50.625 -8.855 55 -8.23 V10.52 Q55 12.27 54 13.52 Q53 14.77 51.375 14.77 Z"/></g><g id="Light-M" transform="matrix(1 0 0 1 1098.18 1126)"><path d="M74.039 12.27 Q70.25 12.27 67.625 9.645 Q65 7.02 65 3.231 V-16.191 Q65 -19.98 67.625 -22.605 Q70.25 -25.23 74.039 -25.23 H103.461 Q107.25 -25.23 109.875 -22.605 Q112.5 -19.98 112.5 -16.191 V3.231 Q112.5 7.02 109.875 9.645 Q107.25 12.27 103.461 12.27 H74.039 Z M74.039 4.77 H103.461 Q104.135 4.77 104.567 4.338 Q105 3.905 105 3.231 V-16.191 Q105 -16.865 104.567 -17.297 Q104.135 -17.73 103.461 -17.73 H74.039 Q73.365 -17.73 72.933 -17.297 Q72.5 -16.865 72.5 -16.191 V3.231 Q72.5 3.905 72.933 4.338 Q73.365 4.77 74.039 4.77 Z M72.125 -36.519 Q70.731 -35.759 69.235 -36.206 Q67.74 -36.654 66.981 -38.047 Q65.836 -40.027 64.054 -41.379 Q62.271 -42.73 60.057 -42.73 Q56.932 -42.73 54.745 -40.591 Q52.557 -38.452 52.557 -35.307 Q52.557 -33.094 53.721 -31.311 Q54.885 -29.527 56.865 -28.527 Q58.26 -27.769 58.794 -26.287 Q59.326 -24.807 58.568 -23.412 Q57.807 -22.019 56.328 -21.509 Q54.846 -21 53.453 -21.759 Q49.519 -23.644 47.289 -27.245 Q45.057 -30.845 45.057 -35.23 Q45.057 -41.47 49.438 -45.85 Q53.818 -50.23 60.057 -50.23 Q64.489 -50.23 68.129 -47.912 Q71.769 -45.595 73.654 -41.662 Q74.414 -40.269 73.966 -38.774 Q73.519 -37.279 72.125 -36.519 Z M52.144 12.27 Q50.583 12.27 49.388 11.234 Q48.194 10.198 48.01 8.596 L46.557 -2.961 Q44.549 -3.634 42.438 -4.845 Q40.328 -6.057 38.664 -7.441 L30 -3.759 Q27.644 -2.72 25.265 -3.557 Q22.885 -4.394 21.567 -6.595 L15.932 -16.365 Q14.615 -18.566 15.182 -21.066 Q15.749 -23.566 17.731 -25.076 L25.221 -30.701 Q25.049 -31.816 24.976 -32.941 Q24.904 -34.066 24.904 -35.157 Q24.904 -36.249 24.976 -37.35 Q25.049 -38.451 25.221 -39.759 L17.731 -45.384 Q15.731 -46.904 15.197 -49.422 Q14.664 -51.941 15.981 -54.144 L21.567 -63.769 Q22.896 -65.942 25.27 -66.792 Q27.644 -67.644 30 -66.605 L38.615 -62.97 Q40.424 -64.402 42.476 -65.59 Q44.529 -66.777 46.51 -67.499 L47.703 -76.855 Q48.029 -79.412 49.926 -81.071 Q51.824 -82.73 54.385 -82.73 H65.615 Q68.176 -82.73 70.074 -81.071 Q71.971 -79.412 72.297 -76.855 L73.442 -67.451 Q75.692 -66.634 77.514 -65.542 Q79.336 -64.451 81.192 -62.97 L89.894 -66.605 Q92.25 -67.644 94.664 -66.792 Q97.079 -65.942 98.404 -63.769 L103.99 -54.095 Q105.308 -51.894 104.785 -49.44 Q104.263 -46.987 102.269 -45.384 L94.836 -39.807 Q94.836 -39.807 94.836 -39.807 Q94.836 -39.807 94.836 -39.807 Q93.519 -38.894 92.047 -39.071 Q90.576 -39.249 89.639 -40.566 Q88.701 -41.884 88.919 -43.355 Q89.135 -44.826 90.375 -45.787 L97.172 -50.98 L92.25 -59.48 L79.683 -54.182 Q77.172 -56.865 73.669 -58.922 Q70.164 -60.98 66.578 -61.836 L65 -75.23 H55.078 L53.422 -61.884 Q49.596 -60.98 46.356 -59.115 Q43.115 -57.249 40.172 -54.307 L27.75 -59.48 L22.828 -50.98 L33.625 -42.932 Q33 -41.152 32.75 -39.23 Q32.5 -37.307 32.5 -35.195 Q32.5 -33.207 32.75 -31.344 Q33 -29.48 33.578 -27.652 L22.828 -19.48 L27.75 -10.98 L40.125 -16.23 Q43.125 -13.152 46.899 -11.1 Q50.672 -9.047 55 -8.277 V8.934 Q55 10.308 54.193 11.289 Q53.385 12.27 52.144 12.27 Z"/></g><g id="Thin-M" transform="matrix(1 0 0 1 802.565 1126)"><path d="M73.078 9.77 Q69.625 9.77 67.312 7.458 Q65 5.145 65 1.693 V-17.152 Q65 -20.605 67.312 -22.917 Q69.625 -25.23 73.078 -25.23 H101.922 Q105.375 -25.23 107.688 -22.917 Q110 -20.605 110 -17.152 V1.693 Q110 5.145 107.688 7.458 Q105.375 9.77 101.922 9.77 H73.078 Z M73.078 4.77 H101.922 Q103.269 4.77 104.135 3.905 Q105 3.039 105 1.693 V-17.152 Q105 -18.499 104.135 -19.365 Q103.269 -20.23 101.922 -20.23 H73.078 Q71.731 -20.23 70.865 -19.365 Q70 -18.499 70 -17.152 V1.693 Q70 3.039 70.865 3.905 Q71.731 4.77 73.078 4.77 Z M70.25 -37.432 Q69.336 -36.912 68.346 -37.12 Q67.356 -37.326 66.836 -38.24 Q65.547 -40.076 63.795 -41.402 Q62.041 -42.73 59.865 -42.73 Q56.74 -42.73 54.553 -40.577 Q52.365 -38.425 52.365 -35.259 Q52.365 -33.082 53.505 -31.329 Q54.644 -29.576 56.481 -28.576 Q57.394 -28.057 57.711 -27.032 Q58.029 -26.009 57.51 -25.095 Q56.99 -24.182 55.966 -23.912 Q54.943 -23.644 54.029 -24.162 Q50.914 -25.807 49.14 -28.759 Q47.365 -31.711 47.365 -35.23 Q47.365 -40.461 51 -44.095 Q54.635 -47.73 59.865 -47.73 Q63.479 -47.73 66.446 -45.845 Q69.414 -43.961 71.058 -40.845 Q71.578 -39.932 71.37 -38.941 Q71.164 -37.951 70.25 -37.432 Z M52.914 9.77 Q51.915 9.77 51.15 9.073 Q50.386 8.376 50.269 7.299 L48.865 -4.691 Q46.471 -5.412 43.688 -6.961 Q40.904 -8.509 38.953 -10.277 L29.375 -6.162 Q27.789 -5.461 26.154 -6.009 Q24.519 -6.557 23.635 -8.086 L18.24 -17.374 Q17.356 -18.902 17.739 -20.591 Q18.121 -22.279 19.461 -23.297 L27.817 -29.547 Q27.596 -30.902 27.453 -32.34 Q27.308 -33.777 27.308 -35.086 Q27.308 -36.394 27.453 -37.782 Q27.596 -39.172 27.817 -40.912 L19.461 -47.162 Q18.086 -48.201 17.769 -49.927 Q17.453 -51.652 18.336 -53.182 L23.635 -62.182 Q24.544 -63.655 26.166 -64.231 Q27.789 -64.807 29.375 -64.105 L38.856 -60.086 Q41.096 -61.951 43.703 -63.451 Q46.307 -64.951 48.769 -65.769 L50.154 -76.23 Q50.432 -77.97 51.727 -79.1 Q53.021 -80.23 54.769 -80.23 H65.231 Q66.979 -80.23 68.272 -79.1 Q69.567 -77.97 69.846 -76.23 L71.135 -65.672 Q74.01 -64.662 76.216 -63.355 Q78.422 -62.047 80.76 -60.086 L90.664 -64.105 Q92.25 -64.807 93.891 -64.231 Q95.531 -63.655 96.433 -62.182 L101.731 -53.086 Q102.615 -51.557 102.259 -49.901 Q101.901 -48.245 100.539 -47.162 L91.422 -40.384 Q91.422 -40.384 91.422 -40.384 Q91.422 -40.384 91.422 -40.384 Q90.539 -39.807 89.596 -39.912 Q88.654 -40.019 88.029 -40.902 Q87.404 -41.787 87.524 -42.73 Q87.644 -43.672 88.5 -44.345 L97.221 -50.98 L92.25 -59.48 L79.49 -54.134 Q77.221 -56.624 73.524 -58.802 Q69.828 -60.98 66.529 -61.691 L65 -75.23 H55.029 L53.471 -61.787 Q49.693 -60.98 46.524 -59.186 Q43.356 -57.394 40.221 -54.259 L27.75 -59.48 L22.779 -50.98 L33.625 -42.884 Q33 -41.201 32.75 -39.23 Q32.5 -37.259 32.5 -35.16 Q32.5 -33.184 32.75 -31.332 Q33 -29.48 33.529 -27.701 L22.779 -19.48 L27.75 -10.98 L40.125 -16.23 Q43.125 -13.201 46.922 -11.22 Q50.721 -9.24 55 -8.326 V7.348 Q55 8.345 54.385 9.058 Q53.769 9.77 52.914 9.77 Z"/></g><g id="Ultralight-M" transform="matrix(1 0 0 1 506.415 1126)"><path d="M72.5 8.27 Q69.25 8.27 67.125 6.145 Q65 4.02 65 0.77 V-17.73 Q65 -20.98 67.125 -23.105 Q69.25 -25.23 72.5 -25.23 H101 Q104.25 -25.23 106.375 -23.105 Q108.5 -20.98 108.5 -17.73 V0.77 Q108.5 4.02 106.375 6.145 Q104.25 8.27 101 8.27 H72.5 Z M72.5 4.77 H101 Q102.75 4.77 103.875 3.645 Q105 2.52 105 0.77 V-17.73 Q105 -19.48 103.875 -20.605 Q102.75 -21.73 101 -21.73 H72.5 Q70.75 -21.73 69.625 -20.605 Q68.5 -19.48 68.5 -17.73 V0.77 Q68.5 2.52 69.625 3.645 Q70.75 4.77 72.5 4.77 Z M69.125 -37.98 Q68.5 -37.605 67.812 -37.667 Q67.125 -37.73 66.75 -38.355 Q65.375 -40.105 63.64 -41.417 Q61.904 -42.73 59.75 -42.73 Q56.625 -42.73 54.438 -40.569 Q52.25 -38.407 52.25 -35.23 Q52.25 -33.076 53.375 -31.34 Q54.5 -29.605 56.25 -28.605 Q56.875 -28.23 57.062 -27.48 Q57.25 -26.73 56.875 -26.105 Q56.5 -25.48 55.75 -25.355 Q55 -25.23 54.375 -25.605 Q51.75 -27.105 50.25 -29.667 Q48.75 -32.23 48.75 -35.23 Q48.75 -39.855 51.938 -43.042 Q55.125 -46.23 59.75 -46.23 Q62.871 -46.23 65.436 -44.605 Q68 -42.98 69.5 -40.355 Q69.875 -39.73 69.812 -39.042 Q69.75 -38.355 69.125 -37.98 Z M53.375 8.27 Q52.714 8.27 52.209 7.776 Q51.703 7.283 51.625 6.52 L50.25 -5.73 Q47.625 -6.48 44.438 -8.23 Q41.25 -9.98 39.125 -11.98 L29 -7.605 Q27.875 -7.105 26.688 -7.48 Q25.5 -7.855 24.875 -8.98 L19.625 -17.98 Q19 -19.105 19.273 -20.305 Q19.545 -21.505 20.5 -22.23 L29.375 -28.855 Q29.125 -30.355 28.938 -31.98 Q28.75 -33.605 28.75 -35.042 Q28.75 -36.48 28.938 -38.042 Q29.125 -39.605 29.375 -41.605 L20.5 -48.23 Q19.5 -48.98 19.312 -50.23 Q19.125 -51.48 19.75 -52.605 L24.875 -61.23 Q25.531 -62.281 26.704 -62.694 Q27.875 -63.105 29 -62.605 L39 -58.355 Q41.5 -60.48 44.438 -62.167 Q47.375 -63.855 50.125 -64.73 L51.625 -75.855 Q51.875 -77.105 52.807 -77.917 Q53.741 -78.73 55 -78.73 H65 Q66.259 -78.73 67.192 -77.917 Q68.125 -77.105 68.375 -75.855 L69.75 -64.605 Q73 -63.48 75.438 -62.042 Q77.875 -60.605 80.5 -58.355 L91.125 -62.605 Q92.25 -63.105 93.427 -62.694 Q94.604 -62.281 95.25 -61.23 L100.375 -52.48 Q101 -51.355 100.743 -50.177 Q100.485 -49 99.5 -48.23 L89.375 -40.73 Q89.375 -40.73 89.375 -40.73 Q89.375 -40.73 89.375 -40.73 Q88.75 -40.355 88.125 -40.417 Q87.5 -40.48 87.062 -41.105 Q86.625 -41.73 86.688 -42.355 Q86.75 -42.98 87.375 -43.48 L97.25 -50.98 L92.25 -59.48 L79.375 -54.105 Q77.25 -56.48 73.438 -58.73 Q69.625 -60.98 66.5 -61.605 L65 -75.23 H55 L53.5 -61.73 Q49.75 -60.98 46.625 -59.23 Q43.5 -57.48 40.25 -54.23 L27.75 -59.48 L22.75 -50.98 L33.625 -42.855 Q33 -41.23 32.75 -39.23 Q32.5 -37.23 32.5 -35.139 Q32.5 -33.17 32.75 -31.325 Q33 -29.48 33.5 -27.73 L22.75 -19.48 L27.75 -10.98 L40.125 -16.23 Q43.125 -13.23 46.938 -11.292 Q50.75 -9.355 55 -8.355 V6.395 Q55 7.168 54.5 7.719 Q54 8.27 53.375 8.27 Z"/></g><g id="Bold-S" transform="matrix(1 0 0 1 2294.23 696)"><path d="M63.712 5.995 Q58.485 5.995 55.279 2.79 Q52.074 -0.415 52.074 -5.642 V-14.124 Q52.074 -19.351 55.279 -22.557 Q58.485 -25.762 63.712 -25.762 H82.253 Q87.48 -25.762 90.686 -22.557 Q93.891 -19.351 93.891 -14.124 V-5.642 Q93.891 -0.415 90.686 2.79 Q87.48 5.995 82.253 5.995 H63.712 Z M63.712 -5.642 H82.253 Q82.253 -5.642 82.253 -5.642 Q82.253 -5.642 82.253 -5.642 V-14.124 Q82.253 -14.124 82.253 -14.124 Q82.253 -14.124 82.253 -14.124 H63.712 Q63.712 -14.124 63.712 -14.124 Q63.712 -14.124 63.712 -14.124 V-5.642 Q63.712 -5.642 63.712 -5.642 Q63.712 -5.642 63.712 -5.642 Z M58.682 -35.23 Q57.005 -34.342 55.348 -34.989 Q53.691 -35.636 52.764 -37.301 Q51.778 -38.978 50.268 -40.211 Q48.759 -41.443 46.885 -41.443 Q44.283 -41.443 42.557 -39.586 Q40.831 -37.729 40.831 -35.15 Q40.831 -33.06 42.409 -31.729 Q43.987 -30.397 45.762 -29.51 Q47.439 -28.622 48.178 -26.847 Q48.918 -25.072 48.08 -23.395 Q47.241 -21.718 45.565 -21.373 Q43.888 -21.028 42.113 -21.521 Q37.773 -23.099 34.913 -26.8 Q32.053 -30.501 32.053 -35.186 Q32.053 -41.45 36.386 -45.836 Q40.718 -50.221 46.847 -50.221 Q51.285 -50.221 54.786 -47.706 Q58.287 -45.191 60.358 -41.246 Q61.049 -39.582 60.704 -37.849 Q60.358 -36.118 58.682 -35.23 Z M41.127 5.995 Q39.164 5.995 37.663 4.795 Q36.163 3.596 35.9 1.656 L34.519 -6.333 Q32.998 -6.935 31.539 -7.719 Q30.081 -8.503 28.799 -9.587 L21.5 -7.023 Q19.626 -6.333 17.605 -6.974 Q15.583 -7.615 14.597 -9.489 L8.778 -19.844 Q7.89 -21.583 8.186 -23.525 Q8.482 -25.466 10.06 -26.847 L15.78 -31.975 Q15.681 -32.748 15.583 -33.549 Q15.484 -34.351 15.484 -35.221 Q15.484 -36.092 15.583 -36.894 Q15.681 -37.696 15.78 -38.485 L10.06 -43.514 Q8.383 -44.895 8.087 -46.818 Q7.791 -48.742 8.778 -50.615 L14.597 -60.872 Q15.583 -62.648 17.555 -63.289 Q19.528 -63.93 21.402 -63.338 L28.996 -60.774 Q30.278 -61.859 31.609 -62.598 Q32.941 -63.338 34.519 -63.93 L36.097 -71.82 Q36.59 -73.891 38.044 -75.173 Q39.497 -76.455 41.62 -76.455 H53.06 Q55.183 -76.455 56.636 -75.173 Q58.09 -73.891 58.583 -71.82 L60.161 -63.93 Q61.682 -63.354 63.141 -62.606 Q64.599 -61.859 65.882 -60.774 L73.377 -63.338 Q75.251 -64.028 77.186 -63.336 Q79.12 -62.643 80.182 -60.872 L86.001 -50.615 Q86.987 -48.742 86.593 -46.769 Q86.198 -44.797 84.522 -43.514 L75.941 -36.413 Q75.941 -36.413 75.941 -36.413 Q75.941 -36.413 75.941 -36.413 Q74.166 -34.934 71.689 -35.296 Q69.211 -35.657 67.706 -37.498 Q66.276 -39.274 66.575 -41.605 Q66.874 -43.938 68.742 -45.487 L73.278 -49.432 L72.489 -50.615 L63.219 -47.459 Q60.654 -50.714 57.252 -52.736 Q53.849 -54.758 49.904 -55.251 L48.03 -64.817 H46.551 L44.874 -55.349 Q40.831 -54.758 37.33 -52.736 Q33.828 -50.714 31.264 -47.459 L22.092 -50.615 L21.402 -49.432 L28.503 -43.12 Q27.911 -41.147 27.467 -39.197 Q27.023 -37.247 27.023 -35.23 Q27.023 -33.176 27.418 -31.146 Q27.812 -29.115 28.404 -27.241 L21.402 -21.028 L21.993 -19.844 L31.144 -22.902 Q33.73 -19.746 37.28 -17.872 Q40.831 -15.998 44.874 -15.11 V2.346 Q44.874 3.999 44.128 4.997 Q43.381 5.995 41.127 5.995 Z"/></g><g id="Semibold-S" transform="matrix(1 0 0 1 1998.1 696)"><path d="M61.739 4.538 Q57.37 4.538 54.722 1.889 Q52.074 -0.759 52.074 -5.128 V-16.097 Q52.074 -20.466 54.722 -23.114 Q57.37 -25.762 61.739 -25.762 H82.511 Q86.88 -25.762 89.528 -23.114 Q92.176 -20.466 92.176 -16.097 V-5.128 Q92.176 -0.759 89.528 1.889 Q86.88 4.538 82.511 4.538 H61.739 Z M61.739 -5.128 H82.511 Q82.511 -5.128 82.511 -5.128 Q82.511 -5.128 82.511 -5.128 V-16.097 Q82.511 -16.097 82.511 -16.097 Q82.511 -16.097 82.511 -16.097 H61.739 Q61.739 -16.097 61.739 -16.097 Q61.739 -16.097 61.739 -16.097 V-5.128 Q61.739 -5.128 61.739 -5.128 Q61.739 -5.128 61.739 -5.128 Z M58.81 -35.573 Q57.263 -34.728 55.726 -35.33 Q54.189 -35.931 53.322 -37.473 Q52.293 -39.278 50.663 -40.618 Q49.031 -41.958 47.008 -41.958 Q44.197 -41.958 42.321 -39.965 Q40.445 -37.972 40.445 -35.193 Q40.445 -33.06 41.916 -31.579 Q43.386 -30.098 45.247 -29.21 Q46.796 -28.408 47.535 -26.804 Q48.275 -25.2 47.522 -23.652 Q46.77 -22.104 45.222 -21.716 Q43.674 -21.328 42.07 -21.821 Q37.816 -23.357 35.107 -26.993 Q32.396 -30.629 32.396 -35.186 Q32.396 -41.362 36.671 -45.684 Q40.945 -50.007 46.992 -50.007 Q51.371 -50.007 54.85 -47.534 Q58.33 -45.063 60.316 -41.16 Q61.006 -39.62 60.682 -38.019 Q60.358 -36.417 58.81 -35.573 Z M41.855 4.538 Q40.136 4.538 38.821 3.495 Q37.506 2.452 37.271 0.755 L35.848 -7.319 Q34.002 -8.045 32.256 -9.003 Q30.51 -9.96 28.97 -11.26 L21.628 -8.696 Q19.926 -8.09 18.119 -8.689 Q16.312 -9.288 15.411 -10.947 L10.407 -19.802 Q9.563 -21.385 9.859 -23.146 Q10.154 -24.909 11.561 -26.16 L17.323 -31.289 Q17.182 -32.241 17.084 -33.208 Q16.985 -34.176 16.985 -35.225 Q16.985 -36.274 17.084 -37.243 Q17.182 -38.21 17.323 -39.171 L11.561 -44.243 Q10.098 -45.496 9.802 -47.247 Q9.506 -48.999 10.407 -50.658 L15.411 -59.457 Q16.312 -61.061 18.091 -61.66 Q19.871 -62.257 21.573 -61.709 L29.082 -59.145 Q30.621 -60.443 32.296 -61.376 Q33.969 -62.309 35.848 -63.029 L37.383 -70.834 Q37.79 -72.691 39.137 -73.844 Q40.484 -74.998 42.392 -74.998 H52.288 Q54.196 -74.998 55.543 -73.844 Q56.89 -72.691 57.297 -70.834 L58.832 -63.029 Q60.678 -62.318 62.424 -61.38 Q64.17 -60.443 65.71 -59.145 L73.163 -61.709 Q74.865 -62.313 76.615 -61.686 Q78.364 -61.06 79.324 -59.457 L84.328 -50.658 Q85.23 -48.999 84.878 -47.219 Q84.526 -45.44 83.064 -44.243 L75.341 -37.7 Q75.341 -37.7 75.341 -37.7 Q75.341 -37.7 75.341 -37.7 Q73.866 -36.435 71.796 -36.71 Q69.726 -36.987 68.457 -38.527 Q67.262 -40.002 67.495 -41.942 Q67.729 -43.882 69.256 -45.187 L73.965 -49.304 L72.747 -51.259 L63.39 -48.103 Q60.826 -51.229 57.531 -53.186 Q54.235 -55.143 50.376 -55.68 L48.502 -65.332 H46.122 L44.36 -55.735 Q40.445 -55.101 37.072 -53.143 Q33.7 -51.186 31.178 -48.103 L21.878 -51.259 L20.715 -49.304 L27.988 -42.863 Q27.396 -40.976 26.996 -39.08 Q26.594 -37.185 26.594 -35.23 Q26.594 -33.219 26.946 -31.274 Q27.297 -29.329 27.889 -27.541 L20.715 -21.156 L21.779 -19.201 L31.068 -22.301 Q33.687 -19.145 37.259 -17.271 Q40.831 -15.397 44.917 -14.639 V1.488 Q44.917 2.894 44.235 3.716 Q43.553 4.538 41.855 4.538 Z"/></g><g id="Medium-S" transform="matrix(1 0 0 1 1701.85 696)"><path d="M60.26 3.444 Q56.534 3.444 54.304 1.214 Q52.074 -1.016 52.074 -4.742 V-17.576 Q52.074 -21.302 54.304 -23.532 Q56.534 -25.762 60.26 -25.762 H82.704 Q86.43 -25.762 88.66 -23.532 Q90.89 -21.302 90.89 -17.576 V-4.742 Q90.89 -1.016 88.66 1.214 Q86.43 3.444 82.704 3.444 H60.26 Z M60.26 -4.742 H82.704 Q82.704 -4.742 82.704 -4.742 Q82.704 -4.742 82.704 -4.742 V-17.576 Q82.704 -17.576 82.704 -17.576 Q82.704 -17.576 82.704 -17.576 H60.26 Q60.26 -17.576 60.26 -17.576 Q60.26 -17.576 60.26 -17.576 V-4.742 Q60.26 -4.742 60.26 -4.742 Q60.26 -4.742 60.26 -4.742 Z M58.907 -35.831 Q57.456 -35.018 56.009 -35.585 Q54.562 -36.152 53.74 -37.601 Q52.679 -39.503 50.958 -40.924 Q49.237 -42.344 47.1 -42.344 Q44.133 -42.344 42.144 -40.249 Q40.155 -38.154 40.155 -35.225 Q40.155 -33.06 41.546 -31.466 Q42.936 -29.872 44.862 -28.984 Q46.313 -28.247 47.053 -26.772 Q47.793 -25.296 47.104 -23.846 Q46.416 -22.394 44.964 -21.974 Q43.513 -21.554 42.038 -22.047 Q37.848 -23.55 35.251 -27.138 Q32.654 -30.726 32.654 -35.186 Q32.654 -41.295 36.885 -45.571 Q41.116 -49.846 47.101 -49.846 Q51.435 -49.846 54.899 -47.406 Q58.362 -44.966 60.284 -41.096 Q60.974 -39.647 60.666 -38.145 Q60.358 -36.643 58.907 -35.831 Z M42.402 3.444 Q40.865 3.444 39.69 2.519 Q38.514 1.595 38.301 0.08 L36.845 -8.059 Q34.755 -8.878 32.793 -9.966 Q30.831 -11.054 29.098 -12.514 L21.725 -9.949 Q20.152 -9.41 18.505 -9.975 Q16.858 -10.541 16.023 -12.04 L11.629 -19.77 Q10.816 -21.236 11.112 -22.863 Q11.408 -24.491 12.686 -25.647 L18.481 -30.775 Q18.308 -31.86 18.209 -32.952 Q18.111 -34.045 18.111 -35.228 Q18.111 -36.412 18.209 -37.504 Q18.308 -38.596 18.481 -39.685 L12.686 -44.79 Q11.384 -45.946 11.088 -47.569 Q10.793 -49.192 11.629 -50.69 L16.023 -58.396 Q16.858 -59.871 18.493 -60.438 Q20.128 -61.004 21.701 -60.487 L29.146 -57.923 Q30.879 -59.382 32.81 -60.46 Q34.742 -61.537 36.845 -62.354 L38.348 -70.094 Q38.691 -71.79 39.957 -72.847 Q41.223 -73.904 42.971 -73.904 H51.709 Q53.457 -73.904 54.723 -72.847 Q55.989 -71.79 56.332 -70.094 L57.835 -62.354 Q59.925 -61.541 61.887 -60.461 Q63.849 -59.382 65.582 -57.923 L73.002 -60.487 Q74.575 -61.027 76.186 -60.449 Q77.797 -59.871 78.681 -58.396 L83.075 -50.69 Q83.91 -49.192 83.592 -47.557 Q83.272 -45.922 81.97 -44.79 L74.891 -38.665 Q74.891 -38.665 74.891 -38.665 Q74.891 -38.665 74.891 -38.665 Q73.64 -37.561 71.876 -37.773 Q70.112 -37.984 69.02 -39.299 Q68.002 -40.549 68.186 -42.195 Q68.37 -43.841 69.642 -44.961 L74.479 -49.207 L72.94 -51.741 L63.518 -48.585 Q60.954 -51.615 57.74 -53.524 Q54.525 -55.433 50.73 -56.001 L48.856 -65.718 H45.8 L43.974 -56.025 Q40.155 -55.358 36.879 -53.449 Q33.604 -51.54 31.114 -48.585 L21.717 -51.741 L20.201 -49.207 L27.602 -42.669 Q27.01 -40.848 26.642 -38.993 Q26.273 -37.138 26.273 -35.23 Q26.273 -33.251 26.592 -31.371 Q26.912 -29.49 27.504 -27.767 L20.201 -21.253 L21.619 -18.719 L31.011 -21.852 Q33.655 -18.696 37.243 -16.822 Q40.831 -14.948 44.949 -14.285 V0.845 Q44.949 2.066 44.315 2.755 Q43.682 3.444 42.402 3.444 Z"/></g><g id="Regular-S" transform="matrix(1 0 0 1 1405.73 696)"><path d="M59.175 2.642 Q55.92 2.642 53.997 0.719 Q52.074 -1.204 52.074 -4.459 V-18.661 Q52.074 -21.916 53.997 -23.839 Q55.92 -25.762 59.175 -25.762 H82.845 Q86.1 -25.762 88.023 -23.839 Q89.946 -21.916 89.946 -18.661 V-4.459 Q89.946 -1.204 88.023 0.719 Q86.1 2.642 82.845 2.642 H59.175 Z M59.175 -4.459 H82.845 Q82.845 -4.459 82.845 -4.459 Q82.845 -4.459 82.845 -4.459 V-18.661 Q82.845 -18.661 82.845 -18.661 Q82.845 -18.661 82.845 -18.661 H59.175 Q59.175 -18.661 59.175 -18.661 Q59.175 -18.661 59.175 -18.661 V-4.459 Q59.175 -4.459 59.175 -4.459 Q59.175 -4.459 59.175 -4.459 Z M58.978 -36.019 Q57.597 -35.23 56.216 -35.772 Q54.836 -36.315 54.047 -37.696 Q52.962 -39.668 51.175 -41.147 Q49.386 -42.627 47.167 -42.627 Q44.085 -42.627 42.014 -40.457 Q39.943 -38.287 39.943 -35.249 Q39.943 -33.06 41.275 -31.384 Q42.606 -29.707 44.579 -28.819 Q45.959 -28.129 46.699 -26.748 Q47.439 -25.367 46.798 -23.987 Q46.157 -22.606 44.776 -22.162 Q43.395 -21.718 42.014 -22.211 Q37.872 -23.691 35.357 -27.243 Q32.842 -30.797 32.842 -35.186 Q32.842 -41.246 37.042 -45.487 Q41.24 -49.728 47.18 -49.728 Q51.482 -49.728 54.934 -47.312 Q58.386 -44.895 60.26 -41.049 Q60.95 -39.668 60.654 -38.238 Q60.358 -36.808 58.978 -36.019 Z M42.803 2.642 Q41.4 2.642 40.326 1.804 Q39.253 0.965 39.056 -0.415 L37.576 -8.601 Q35.308 -9.489 33.187 -10.672 Q31.067 -11.856 29.193 -13.434 L21.796 -10.87 Q20.317 -10.376 18.788 -10.919 Q17.259 -11.461 16.47 -12.842 L12.525 -19.746 Q11.736 -21.127 12.032 -22.655 Q12.328 -24.184 13.512 -25.269 L19.331 -30.397 Q19.133 -31.581 19.035 -32.764 Q18.936 -33.948 18.936 -35.23 Q18.936 -36.512 19.035 -37.696 Q19.133 -38.879 19.331 -40.063 L13.512 -45.191 Q12.328 -46.276 12.032 -47.805 Q11.736 -49.333 12.525 -50.714 L16.47 -57.618 Q17.259 -58.999 18.788 -59.541 Q20.317 -60.083 21.796 -59.59 L29.193 -57.026 Q31.067 -58.604 33.187 -59.788 Q35.308 -60.971 37.576 -61.859 L39.056 -69.551 Q39.351 -71.129 40.559 -72.116 Q41.766 -73.102 43.395 -73.102 H51.285 Q52.914 -73.102 54.121 -72.116 Q55.329 -71.129 55.625 -69.551 L57.104 -61.859 Q59.372 -60.971 61.493 -59.788 Q63.613 -58.604 65.487 -57.026 L72.884 -59.59 Q74.363 -60.083 75.872 -59.542 Q77.381 -59.001 78.21 -57.618 L82.155 -50.714 Q82.944 -49.333 82.648 -47.805 Q82.352 -46.276 81.168 -45.191 L74.561 -39.372 Q74.561 -39.372 74.561 -39.372 Q74.561 -39.372 74.561 -39.372 Q73.476 -38.386 71.935 -38.551 Q70.395 -38.714 69.432 -39.865 Q68.544 -40.95 68.692 -42.38 Q68.84 -43.81 69.925 -44.797 L74.856 -49.136 L73.081 -52.095 L63.613 -48.939 Q61.049 -51.898 57.893 -53.771 Q54.737 -55.645 50.989 -56.237 L49.115 -66.001 H45.565 L43.691 -56.237 Q39.943 -55.547 36.738 -53.673 Q33.532 -51.799 31.067 -48.939 L21.599 -52.095 L19.824 -49.136 L27.319 -42.528 Q26.727 -40.753 26.382 -38.928 Q26.037 -37.104 26.037 -35.23 Q26.037 -33.274 26.333 -31.442 Q26.629 -29.608 27.221 -27.932 L19.824 -21.324 L21.5 -18.365 L30.968 -21.521 Q33.631 -18.365 37.231 -16.491 Q40.831 -14.617 44.973 -14.026 V0.374 Q44.973 1.459 44.374 2.05 Q43.776 2.642 42.803 2.642 Z"/></g><g id="Light-S" transform="matrix(1 0 0 1 1109.75 696)"><path d="M58.417 0.67 Q55.427 0.67 53.751 -1.007 Q52.074 -2.684 52.074 -5.673 V-19.419 Q52.074 -22.409 53.751 -24.085 Q55.427 -25.762 58.417 -25.762 H81.631 Q84.62 -25.762 86.297 -24.085 Q87.974 -22.409 87.974 -19.419 V-5.673 Q87.974 -2.684 86.297 -1.007 Q84.62 0.67 81.631 0.67 H58.417 Z M58.417 -4.459 H81.631 Q82.163 -4.459 82.504 -4.8 Q82.845 -5.141 82.845 -5.673 V-19.419 Q82.845 -19.951 82.504 -20.292 Q82.163 -20.633 81.631 -20.633 H58.417 Q57.885 -20.633 57.544 -20.292 Q57.203 -19.951 57.203 -19.419 V-5.673 Q57.203 -5.141 57.544 -4.8 Q57.885 -4.459 58.417 -4.459 Z M57.498 -36.74 Q56.497 -36.14 55.514 -36.493 Q54.532 -36.846 53.933 -37.848 Q52.734 -39.706 50.969 -41.166 Q49.206 -42.627 47.016 -42.627 Q43.933 -42.627 41.862 -40.446 Q39.791 -38.266 39.791 -35.21 Q39.791 -33.051 41.104 -31.398 Q42.417 -29.744 44.275 -28.857 Q45.277 -28.357 45.846 -27.336 Q46.414 -26.316 45.963 -25.314 Q45.511 -24.313 44.492 -24.059 Q43.471 -23.805 42.47 -24.108 Q38.972 -25.398 36.818 -28.439 Q34.663 -31.479 34.663 -35.186 Q34.663 -40.449 38.274 -44.102 Q41.885 -47.755 47.029 -47.755 Q50.684 -47.755 53.606 -45.68 Q56.527 -43.605 58.211 -40.404 Q58.712 -39.403 58.606 -38.371 Q58.499 -37.34 57.498 -36.74 Z M43.41 0.67 Q42.451 0.67 41.717 0.098 Q40.984 -0.473 40.839 -1.44 L39.397 -9.967 Q36.826 -10.892 34.174 -12.341 Q31.523 -13.791 29.421 -15.672 L21.303 -12.766 Q20.43 -12.538 19.49 -12.854 Q18.549 -13.169 18.102 -14.018 L14.346 -20.543 Q13.898 -21.392 14.05 -22.28 Q14.201 -23.167 14.878 -23.865 L21.379 -29.487 Q21.144 -30.86 20.988 -32.29 Q20.833 -33.72 20.833 -35.173 Q20.833 -36.626 20.988 -38.037 Q21.144 -39.448 21.379 -40.973 L14.878 -46.595 Q14.187 -47.301 14.062 -48.203 Q13.937 -49.106 14.384 -49.956 L18.102 -56.366 Q18.558 -57.194 19.494 -57.519 Q20.43 -57.846 21.303 -57.618 L29.382 -54.75 Q31.598 -56.669 34.155 -58.099 Q36.711 -59.529 39.359 -60.493 L40.991 -69.058 Q41.248 -69.991 41.98 -70.56 Q42.711 -71.129 43.699 -71.129 H50.981 Q51.968 -71.129 52.7 -70.56 Q53.432 -69.991 53.689 -69.058 L55.283 -60.455 Q58.045 -59.416 60.468 -58.062 Q62.892 -56.708 65.146 -54.75 L73.49 -57.618 Q74.363 -57.846 75.262 -57.52 Q76.161 -57.196 76.654 -56.366 L80.371 -49.917 Q80.819 -49.068 80.654 -48.168 Q80.488 -47.268 79.802 -46.595 L71.867 -39.828 Q71.867 -39.828 71.867 -39.828 Q71.867 -39.828 71.867 -39.828 Q71.123 -39.107 70 -39.214 Q68.878 -39.322 68.161 -40.131 Q67.52 -40.874 67.593 -41.887 Q67.665 -42.9 68.446 -43.658 L74.894 -49.136 L73.081 -52.095 L63.461 -48.901 Q61.086 -51.708 57.779 -53.677 Q54.472 -55.645 50.952 -56.124 L49.115 -66.001 H45.527 L43.728 -56.161 Q40.019 -55.547 36.871 -53.73 Q33.722 -51.912 31.104 -48.901 L21.599 -52.095 L19.786 -49.136 L27.319 -42.491 Q26.727 -40.79 26.382 -38.928 Q26.037 -37.066 26.037 -35.202 Q26.037 -33.257 26.333 -31.433 Q26.629 -29.608 27.183 -27.969 L19.786 -21.324 L21.5 -18.365 L30.968 -21.521 Q33.631 -18.403 37.25 -16.586 Q40.868 -14.769 44.973 -14.063 V-0.878 Q44.973 -0.09 44.526 0.29 Q44.079 0.67 43.41 0.67 Z"/></g><g id="Thin-S" transform="matrix(1 0 0 1 814.015 696)"><path d="M57.658 -1.303 Q54.934 -1.303 53.504 -2.733 Q52.074 -4.163 52.074 -6.887 V-20.178 Q52.074 -22.902 53.504 -24.332 Q54.934 -25.762 57.658 -25.762 H80.417 Q83.141 -25.762 84.571 -24.332 Q86.001 -22.902 86.001 -20.178 V-6.887 Q86.001 -4.163 84.571 -2.733 Q83.141 -1.303 80.417 -1.303 H57.658 Z M57.658 -4.459 H80.417 Q81.479 -4.459 82.163 -5.141 Q82.845 -5.825 82.845 -6.887 V-20.178 Q82.845 -21.24 82.163 -21.924 Q81.479 -22.606 80.417 -22.606 H57.658 Q56.596 -22.606 55.912 -21.924 Q55.23 -21.24 55.23 -20.178 V-6.887 Q55.23 -5.825 55.912 -5.141 Q56.596 -4.459 57.658 -4.459 Z M56.019 -37.461 Q55.397 -37.051 54.813 -37.214 Q54.229 -37.377 53.819 -37.999 Q52.506 -39.744 50.765 -41.185 Q49.025 -42.627 46.864 -42.627 Q43.782 -42.627 41.71 -40.435 Q39.639 -38.244 39.639 -35.173 Q39.639 -33.042 40.933 -31.412 Q42.226 -29.783 43.972 -28.895 Q44.593 -28.585 44.992 -27.924 Q45.39 -27.264 45.129 -26.642 Q44.866 -26.02 44.207 -25.955 Q43.547 -25.891 42.925 -26.005 Q40.072 -27.105 38.278 -29.633 Q36.483 -32.162 36.483 -35.186 Q36.483 -39.653 39.507 -42.718 Q42.53 -45.783 46.877 -45.783 Q49.887 -45.783 52.278 -44.049 Q54.669 -42.316 56.163 -39.759 Q56.475 -39.138 56.557 -38.503 Q56.641 -37.87 56.019 -37.461 Z M44.017 -1.303 Q43.502 -1.303 43.108 -1.607 Q42.714 -1.91 42.621 -2.464 L41.217 -11.332 Q38.342 -12.296 35.16 -14.011 Q31.977 -15.725 29.649 -17.909 L20.81 -14.663 Q20.545 -14.701 20.191 -14.788 Q19.838 -14.876 19.733 -15.194 L16.167 -21.339 Q16.061 -21.657 16.067 -21.905 Q16.073 -22.151 16.243 -22.462 L23.427 -28.577 Q23.154 -30.139 22.942 -31.816 Q22.729 -33.492 22.729 -35.117 Q22.729 -36.74 22.942 -38.378 Q23.154 -40.017 23.427 -41.883 L16.243 -47.998 Q16.045 -48.324 16.091 -48.602 Q16.137 -48.878 16.243 -49.197 L19.733 -55.115 Q19.858 -55.389 20.201 -55.498 Q20.545 -55.608 20.81 -55.645 L29.573 -52.475 Q32.129 -54.735 35.122 -56.412 Q38.115 -58.088 41.141 -59.128 L42.925 -68.565 Q43.144 -68.853 43.401 -69.005 Q43.656 -69.157 44.002 -69.157 H50.678 Q51.024 -69.157 51.279 -69.005 Q51.536 -68.853 51.755 -68.565 L53.463 -59.052 Q56.717 -57.86 59.444 -56.336 Q62.171 -54.811 64.805 -52.475 L74.098 -55.645 Q74.363 -55.608 74.652 -55.499 Q74.94 -55.391 75.099 -55.115 L78.589 -49.121 Q78.695 -48.803 78.66 -48.532 Q78.625 -48.26 78.437 -47.998 L69.174 -40.283 Q69.174 -40.283 69.174 -40.283 Q69.174 -40.283 69.174 -40.283 Q68.772 -39.828 68.066 -39.878 Q67.36 -39.928 66.89 -40.396 Q66.496 -40.798 66.492 -41.394 Q66.488 -41.99 66.966 -42.52 L74.932 -49.136 L73.081 -52.095 L63.309 -48.863 Q61.125 -51.518 57.665 -53.582 Q54.206 -55.645 50.913 -56.009 L49.115 -66.001 H45.489 L43.767 -56.085 Q40.095 -55.547 37.003 -53.786 Q33.912 -52.027 31.143 -48.863 L21.599 -52.095 L19.748 -49.136 L27.319 -42.452 Q26.727 -40.829 26.382 -38.928 Q26.037 -37.028 26.037 -35.175 Q26.037 -33.239 26.333 -31.423 Q26.629 -29.608 27.145 -28.008 L19.748 -21.324 L21.5 -18.365 L30.968 -21.521 Q33.631 -18.441 37.268 -16.681 Q40.907 -14.921 44.973 -14.102 V-2.129 Q44.973 -1.638 44.678 -1.471 Q44.383 -1.303 44.017 -1.303 Z"/></g><g id="Ultralight-S" transform="matrix(1 0 0 1 517.792 696)"><path d="M57.203 -2.486 Q54.638 -2.486 53.356 -3.769 Q52.074 -5.051 52.074 -7.615 V-20.633 Q52.074 -23.198 53.356 -24.48 Q54.638 -25.762 57.203 -25.762 H79.689 Q82.253 -25.762 83.535 -24.48 Q84.818 -23.198 84.818 -20.633 V-7.615 Q84.818 -5.051 83.535 -3.769 Q82.253 -2.486 79.689 -2.486 H57.203 Z M57.203 -4.459 H79.689 Q81.07 -4.459 81.957 -5.347 Q82.845 -6.234 82.845 -7.615 V-20.633 Q82.845 -22.014 81.957 -22.902 Q81.07 -23.789 79.689 -23.789 H57.203 Q55.822 -23.789 54.934 -22.902 Q54.047 -22.014 54.047 -20.633 V-7.615 Q54.047 -6.234 54.934 -5.347 Q55.822 -4.459 57.203 -4.459 Z M55.131 -37.893 Q54.737 -37.597 54.392 -37.646 Q54.047 -37.696 53.751 -38.09 Q52.37 -39.767 50.643 -41.197 Q48.916 -42.627 46.773 -42.627 Q43.691 -42.627 41.62 -40.429 Q39.549 -38.23 39.549 -35.15 Q39.549 -33.038 40.831 -31.421 Q42.113 -29.806 43.79 -28.918 Q44.184 -28.721 44.48 -28.277 Q44.776 -27.833 44.628 -27.439 Q44.48 -27.044 44.036 -27.093 Q43.592 -27.143 43.198 -27.143 Q40.732 -28.129 39.154 -30.35 Q37.576 -32.572 37.576 -35.186 Q37.576 -39.175 40.247 -41.887 Q42.917 -44.599 46.786 -44.599 Q49.408 -44.599 51.481 -43.071 Q53.553 -41.542 54.934 -39.372 Q55.131 -38.978 55.329 -38.583 Q55.526 -38.189 55.131 -37.893 Z M44.381 -2.486 Q44.133 -2.486 43.942 -2.63 Q43.752 -2.773 43.691 -3.078 L42.31 -12.152 Q39.253 -13.138 35.752 -15.012 Q32.25 -16.886 29.785 -19.253 L20.514 -15.801 Q20.613 -15.998 20.613 -15.949 Q20.613 -15.899 20.711 -15.899 L17.259 -21.817 Q17.358 -21.817 17.277 -21.679 Q17.196 -21.541 17.062 -21.62 L24.656 -28.03 Q24.36 -29.707 24.114 -31.532 Q23.867 -33.356 23.867 -35.082 Q23.867 -36.808 24.114 -38.583 Q24.36 -40.358 24.656 -42.43 L17.062 -48.84 Q17.161 -48.939 17.309 -48.84 Q17.457 -48.742 17.358 -48.742 L20.711 -54.363 Q20.637 -54.305 20.625 -54.285 Q20.613 -54.265 20.514 -54.462 L29.686 -51.109 Q32.448 -53.574 35.702 -55.399 Q38.957 -57.223 42.212 -58.308 L44.085 -68.269 Q44.283 -68.171 44.253 -68.072 Q44.223 -67.973 44.184 -67.973 H50.496 Q50.457 -67.973 50.427 -68.072 Q50.397 -68.171 50.595 -68.269 L52.37 -58.21 Q55.92 -56.927 58.83 -55.3 Q61.739 -53.673 64.599 -51.109 L74.462 -54.462 Q74.363 -54.265 74.286 -54.286 Q74.208 -54.308 74.166 -54.363 L77.519 -48.643 Q77.421 -48.643 77.464 -48.75 Q77.507 -48.856 77.618 -48.84 L67.558 -40.556 Q67.558 -40.556 67.558 -40.556 Q67.558 -40.556 67.558 -40.556 Q67.361 -40.26 66.905 -40.277 Q66.45 -40.292 66.128 -40.556 Q65.882 -40.753 65.832 -41.098 Q65.783 -41.443 66.079 -41.838 L74.955 -49.136 L73.081 -52.095 L63.219 -48.84 Q61.148 -51.404 57.597 -53.525 Q54.047 -55.645 50.891 -55.941 L49.115 -66.001 H45.466 L43.79 -56.04 Q40.14 -55.547 37.083 -53.821 Q34.026 -52.095 31.166 -48.84 L21.599 -52.095 L19.725 -49.136 L27.319 -42.43 Q26.727 -40.852 26.382 -38.928 Q26.037 -37.005 26.037 -35.158 Q26.037 -33.228 26.333 -31.418 Q26.629 -29.608 27.122 -28.03 L19.725 -21.324 L21.5 -18.365 L30.968 -21.521 Q33.631 -18.464 37.28 -16.738 Q40.929 -15.012 44.973 -14.124 V-2.881 Q44.973 -2.567 44.769 -2.527 Q44.565 -2.486 44.381 -2.486 Z"/></g></g></svg>