<svg xmlns="http://www.w3.org/2000/svg" version="1.1" width="3300" height="2000"><g id="Notes"><style>
    text {
      font-family: monospace;
      text-anchor: middle;
    }
    text.emphasis {
      font-weight:bold;
    }
    text.lanchor {
      text-anchor: start;
    }
  </style><rect height="2200" id="artboard" fill="white" width="3300" x="0" y="0"/><line id="" style="fill:none;stroke:black;stroke-width:0.5;" x1="263" x2="3036" y1="292" y2="292"/><text class="lanchor emphasis" transform="matrix(1 0 0 1 263 322)">Weight/Scale Variations</text><text transform="matrix(1 0 0 1 559.711 322)">Ultralight</text><text transform="matrix(1 0 0 1 856.422 322)">Thin</text><text transform="matrix(1 0 0 1 1153.13 322)">Light</text><text transform="matrix(1 0 0 1 1449.84 322)">Regular</text><text transform="matrix(1 0 0 1 1746.56 322)">Medium</text><text transform="matrix(1 0 0 1 2043.27 322)">Semibold</text><text transform="matrix(1 0 0 1 2339.98 322)">Bold</text><text transform="matrix(1 0 0 1 2636.69 322)">Heavy</text><text transform="matrix(1 0 0 1 2933.4 322)">Black</text><text id="template-version" style="text-anchor: end;" transform="matrix(1 0 0 1 3036 1933)">Template v.1.0</text><text class="lanchor" transform="matrix(1 0 0 1 263 726)">Small</text><text class="lanchor" transform="matrix(1 0 0 1 263 1156)">Medium</text><text class="lanchor" transform="matrix(1 0 0 1 263 1586)">Large</text></g><g id="Guides"><g id="H-reference" style="fill:#27AAE1;stroke:none;" transform="matrix(1 0 0 1 339 696)"><path d="M 54.9316 0 L 57.666 0 L 30.5664 -70.459 L 28.0762 -70.459 L 0.976562 0 L 3.66211 0 L 12.9395 -24.4629 L 45.7031 -24.4629 Z M 29.1992 -67.0898 L 29.4434 -67.0898 L 44.8242 -26.709 L 13.8184 -26.709 Z"/></g><line id="Baseline-S" style="fill:none;stroke:#27AAE1;opacity:1;stroke-width:0.577;" x1="263" x2="3036" y1="696" y2="696"/><line id="Capline-S" style="fill:none;stroke:#27AAE1;opacity:1;stroke-width:0.577;" x1="263" x2="3036" y1="625.541" y2="625.541"/><g id="H-reference" style="fill:#27AAE1;stroke:none;" transform="matrix(1 0 0 1 339 1126)"><path d="M 54.9316 0 L 57.666 0 L 30.5664 -70.459 L 28.0762 -70.459 L 0.976562 0 L 3.66211 0 L 12.9395 -24.4629 L 45.7031 -24.4629 Z M 29.1992 -67.0898 L 29.4434 -67.0898 L 44.8242 -26.709 L 13.8184 -26.709 Z"/></g><line id="Baseline-M" style="fill:none;stroke:#27AAE1;opacity:1;stroke-width:0.577;" x1="263" x2="3036" y1="1126" y2="1126"/><line id="Capline-M" style="fill:none;stroke:#27AAE1;opacity:1;stroke-width:0.577;" x1="263" x2="3036" y1="1055.54" y2="1055.54"/><g id="H-reference" style="fill:#27AAE1;stroke:none;" transform="matrix(1 0 0 1 339 1556)"><path d="M 54.9316 0 L 57.666 0 L 30.5664 -70.459 L 28.0762 -70.459 L 0.976562 0 L 3.66211 0 L 12.9395 -24.4629 L 45.7031 -24.4629 Z M 29.1992 -67.0898 L 29.4434 -67.0898 L 44.8242 -26.709 L 13.8184 -26.709 Z"/></g><line id="Baseline-L" style="fill:none;stroke:#27AAE1;opacity:1;stroke-width:0.577;" x1="263" x2="3036" y1="1556" y2="1556"/><line id="Capline-L" style="fill:none;stroke:#27AAE1;opacity:1;stroke-width:0.577;" x1="263" x2="3036" y1="1485.54" y2="1485.54"/><rect height="119.336" id="left-margin" style="fill:darkred;stroke:none;opacity:0.4;" width="12.4512" x="1394.06" y="1030.79"/><rect height="119.336" id="right-margin" style="fill:darkgreen;stroke:none;opacity:0.4;" width="12.4512" x="1502.5112" y="1030.79"/><rect x="1406.5112" y="1045" width="96" height="96" fill="none" stroke="blue" stroke-dasharray="5"/><rect x="1394.06" y="1030.79" width="120.9024" height="119.336" fill="none" stroke="blue"/></g><g id="Symbols"><g id="Bold-L" transform="matrix(1 0 0 1 2266 1556)"><path d="M15.964 19.756 Q15.964 10.565 20.317 2.261 Q24.671 -6.044 33.056 -12.744 Q24.994 -17.654 20.479 -25.886 Q15.964 -34.117 15.964 -43.776 Q15.964 -62.931 29.589 -76.654 Q43.215 -90.377 63.294 -90.377 Q74.659 -90.377 84.414 -85.217 Q94.17 -80.057 101.91 -69.576 Q105.296 -75.865 111.29 -79.493 Q117.285 -83.121 125.174 -83.121 Q137.708 -83.121 145.044 -76.913 Q152.381 -70.705 152.381 -62.593 Q152.381 -54.683 146.96 -49.31 Q141.537 -43.937 134.483 -43.937 H132.548 V-14.267 Q132.548 0.084 122.389 9.92 Q112.23 19.756 98.201 19.756 H15.964 Z M49.586 -20.395 Q58.298 -20.395 64.624 -25.313 Q70.95 -30.231 70.95 -38.5 Q70.95 -42.486 68.562 -46.195 Q66.175 -49.904 62.404 -49.904 Q59.706 -49.904 57.669 -47.82 Q55.631 -45.735 55.631 -43.131 H43.376 Q43.376 -50.871 49.051 -56.596 Q54.723 -62.32 62.726 -62.32 Q71.634 -62.32 77.419 -55.386 Q83.205 -48.452 83.205 -39.261 Q83.205 -34.125 81.27 -29.275 Q79.335 -24.426 76.11 -20.395 H86.43 Q91.039 -20.395 94.539 -23.643 Q98.04 -26.89 98.04 -31.763 V-42.215 Q98.04 -56.837 87.962 -67.399 Q77.884 -77.961 63.371 -77.961 Q48.791 -77.961 38.505 -67.977 Q28.219 -57.994 28.219 -43.776 Q28.219 -33.94 34.382 -27.167 Q40.545 -20.395 49.586 -20.395 Z"/></g><g id="Semibold-L" transform="matrix(1 0 0 1 1970.27 1556)"><path d="M16.314 19.406 Q16.314 10.425 20.563 2.156 Q24.812 -6.113 33.337 -12.845 Q25.203 -17.794 20.759 -26.023 Q16.314 -34.251 16.314 -43.707 Q16.314 -62.791 29.905 -76.373 Q43.496 -89.957 63.365 -89.957 Q74.728 -89.957 84.379 -84.868 Q94.03 -79.777 101.841 -69.296 Q105.296 -75.725 111.29 -79.283 Q117.285 -82.841 125.032 -82.841 Q136.937 -82.841 144.483 -76.844 Q152.031 -70.845 152.031 -62.523 Q152.031 -54.678 146.723 -49.343 Q141.415 -44.007 134.133 -44.007 H132.127 V-14.337 Q132.127 -0.126 122.073 9.639 Q112.02 19.406 97.992 19.406 H16.314 Z M49.655 -20.326 Q58.369 -20.326 64.729 -25.382 Q71.09 -30.441 71.09 -38.571 Q71.09 -42.767 68.689 -46.371 Q66.288 -49.973 62.473 -49.973 Q59.706 -49.973 57.669 -47.869 Q55.631 -45.764 55.631 -43.201 H43.586 Q43.586 -50.802 49.191 -56.455 Q54.794 -62.11 62.796 -62.11 Q71.568 -62.11 77.352 -55.351 Q83.136 -48.593 83.136 -39.331 Q83.136 -34.475 81.201 -29.522 Q79.266 -24.567 75.97 -20.326 H86.499 Q91.109 -20.326 94.61 -23.597 Q98.109 -26.871 98.109 -31.799 V-42.146 Q98.109 -56.837 88.031 -67.33 Q77.953 -77.821 63.441 -77.821 Q48.791 -77.821 38.574 -67.867 Q28.359 -57.911 28.359 -43.707 Q28.359 -33.94 34.522 -27.132 Q40.685 -20.326 49.655 -20.326 Z"/></g><g id="Medium-L" transform="matrix(1 0 0 1 1674.31 1556)"><path d="M16.576 19.144 Q16.576 10.32 20.746 2.077 Q24.916 -6.166 33.546 -12.921 Q25.361 -17.899 20.969 -26.124 Q16.576 -34.351 16.576 -43.654 Q16.576 -62.684 30.141 -76.163 Q43.705 -89.641 63.418 -89.641 Q74.781 -89.641 84.353 -84.605 Q93.925 -79.567 101.787 -69.086 Q105.296 -75.62 111.29 -79.125 Q117.285 -82.631 124.925 -82.631 Q136.358 -82.631 144.062 -76.791 Q151.769 -70.95 151.769 -62.47 Q151.769 -54.674 146.546 -49.367 Q141.323 -44.06 133.87 -44.06 H131.811 V-14.39 Q131.811 -0.284 121.837 9.43 Q111.862 19.144 97.834 19.144 H16.576 Z M49.707 -20.272 Q58.421 -20.272 64.808 -25.436 Q71.195 -30.599 71.195 -38.623 Q71.195 -42.976 68.784 -46.501 Q66.372 -50.026 62.526 -50.026 Q59.706 -50.026 57.669 -47.907 Q55.631 -45.787 55.631 -43.254 H43.744 Q43.744 -50.749 49.296 -56.351 Q54.846 -61.952 62.849 -61.952 Q71.518 -61.952 77.3 -55.325 Q83.082 -48.698 83.082 -39.384 Q83.082 -34.738 81.147 -29.706 Q79.212 -24.671 75.865 -20.272 H86.553 Q91.161 -20.272 94.662 -23.564 Q98.163 -26.856 98.163 -31.824 V-42.093 Q98.163 -56.837 88.084 -67.277 Q78.006 -77.716 63.494 -77.716 Q48.791 -77.716 38.627 -67.783 Q28.464 -57.85 28.464 -43.654 Q28.464 -33.94 34.627 -27.106 Q40.79 -20.272 49.707 -20.272 Z"/></g><g id="Regular-L" transform="matrix(1 0 0 1 1378.56 1556)"><path d="M16.77 18.95 Q16.77 10.243 20.882 2.019 Q24.994 -6.205 33.701 -12.977 Q25.477 -17.976 21.124 -26.2 Q16.77 -34.424 16.77 -43.615 Q16.77 -62.609 30.315 -76.009 Q43.86 -89.41 63.455 -89.41 Q74.82 -89.41 84.334 -84.411 Q93.847 -79.412 101.749 -68.931 Q105.296 -75.542 111.29 -79.009 Q117.285 -82.476 124.846 -82.476 Q135.934 -82.476 143.754 -76.752 Q151.575 -71.027 151.575 -62.431 Q151.575 -54.67 146.415 -49.385 Q141.255 -44.099 133.676 -44.099 H131.58 V-14.429 Q131.58 -0.4 121.663 9.275 Q111.746 18.95 97.718 18.95 H16.77 Z M49.746 -20.234 Q58.46 -20.234 64.866 -25.474 Q71.273 -30.715 71.273 -38.661 Q71.273 -43.131 68.854 -46.598 Q66.435 -50.065 62.565 -50.065 Q59.706 -50.065 57.669 -47.935 Q55.631 -45.805 55.631 -43.292 H43.86 Q43.86 -50.71 49.373 -56.273 Q54.885 -61.836 62.888 -61.836 Q71.481 -61.836 77.263 -55.306 Q83.044 -48.775 83.044 -39.422 Q83.044 -34.932 81.109 -29.839 Q79.174 -24.749 75.788 -20.234 H86.591 Q91.2 -20.234 94.701 -23.539 Q98.201 -26.845 98.201 -31.844 V-42.054 Q98.201 -56.837 88.123 -67.238 Q78.045 -77.639 63.532 -77.639 Q48.791 -77.639 38.666 -67.722 Q28.541 -57.805 28.541 -43.615 Q28.541 -33.94 34.704 -27.087 Q40.867 -20.234 49.746 -20.234 Z"/></g><g id="Light-L" transform="matrix(1 0 0 1 1082.77 1556)"><path d="M19.995 15.786 Q19.995 7.142 24.386 -0.587 Q28.777 -8.314 37.484 -14.032 Q29.075 -18.162 24.536 -26.169 Q19.995 -34.175 19.995 -43.491 Q19.995 -61.243 32.797 -73.714 Q45.597 -86.185 64.139 -86.185 Q75.689 -86.185 85.203 -80.938 Q94.717 -75.691 101.439 -65.272 Q104.18 -72.069 110.05 -75.784 Q115.921 -79.5 123.482 -79.5 Q133.515 -79.5 140.933 -74.427 Q148.35 -69.352 148.35 -61.254 Q148.35 -54.237 143.654 -49.415 Q138.96 -44.595 132.064 -44.595 H128.913 V-15.298 Q128.913 -2.137 119.648 6.826 Q110.382 15.786 97.284 15.786 H19.995 Z M50.924 -19.924 Q59.887 -19.924 66.385 -25.01 Q72.885 -30.094 72.885 -38.352 Q72.885 -43.193 70.218 -47.187 Q67.551 -51.181 63.123 -51.181 Q60.079 -51.181 57.824 -48.896 Q55.57 -46.611 55.57 -43.85 H46.155 Q46.155 -50.525 51.234 -55.56 Q56.312 -60.596 63.57 -60.596 Q71.729 -60.596 77.015 -54.22 Q82.299 -47.845 82.299 -38.926 Q82.299 -33.938 80.054 -28.941 Q77.81 -23.942 73.927 -19.924 H86.467 Q91.387 -19.924 95.042 -23.354 Q98.698 -26.784 98.698 -31.968 V-41.744 Q98.698 -56.341 88.65 -66.556 Q78.603 -76.77 64.215 -76.77 Q49.597 -76.77 39.503 -67.101 Q29.41 -57.433 29.41 -43.491 Q29.41 -33.755 35.696 -26.839 Q41.983 -19.924 50.924 -19.924 Z"/></g><g id="Thin-L" transform="matrix(1 0 0 1 787.282 1556)"><path d="M23.22 12.624 Q23.22 4.041 27.89 -3.191 Q32.56 -10.422 41.267 -15.087 Q32.672 -18.349 27.946 -26.139 Q23.22 -33.927 23.22 -43.367 Q23.22 -59.879 35.277 -71.419 Q47.333 -82.96 64.821 -82.96 Q76.557 -82.96 86.07 -77.465 Q95.584 -71.971 101.128 -61.614 Q103.063 -68.596 108.81 -72.559 Q114.557 -76.523 122.118 -76.523 Q131.096 -76.523 138.111 -72.1 Q145.125 -67.678 145.125 -60.075 Q145.125 -53.803 140.895 -49.447 Q136.666 -45.09 130.451 -45.09 H126.246 V-16.165 Q126.246 -3.873 117.632 4.376 Q109.018 12.624 96.85 12.624 H23.22 Z M52.103 -19.613 Q61.312 -19.613 67.906 -24.544 Q74.498 -29.475 74.498 -38.042 Q74.498 -43.255 71.582 -47.777 Q68.668 -52.298 63.681 -52.298 Q60.451 -52.298 57.979 -49.857 Q55.507 -47.416 55.507 -44.408 H48.449 Q48.449 -50.338 53.093 -54.846 Q57.737 -59.356 64.252 -59.356 Q71.977 -59.356 76.766 -53.135 Q81.555 -46.914 81.555 -38.431 Q81.555 -32.947 79 -28.041 Q76.445 -23.136 72.066 -19.613 H86.343 Q91.572 -19.613 95.383 -23.167 Q99.193 -26.721 99.193 -32.092 V-41.435 Q99.193 -55.846 89.178 -65.874 Q79.161 -75.902 64.897 -75.902 Q50.404 -75.902 40.34 -66.482 Q30.278 -57.06 30.278 -43.367 Q30.278 -33.568 36.689 -26.59 Q43.099 -19.613 52.103 -19.613 Z"/></g><g id="Ultralight-L" transform="matrix(1 0 0 1 491.205 1556)"><path d="M25.155 10.726 Q25.155 2.18 29.992 -4.754 Q34.83 -11.687 43.538 -15.719 Q34.83 -18.46 29.992 -26.119 Q25.155 -33.779 25.155 -43.292 Q25.155 -59.061 36.765 -70.042 Q48.375 -81.025 65.229 -81.025 Q77.078 -81.025 86.591 -75.381 Q96.105 -69.737 100.943 -59.417 Q102.394 -66.512 108.065 -70.624 Q113.738 -74.736 121.299 -74.736 Q129.645 -74.736 136.417 -70.705 Q143.19 -66.674 143.19 -59.368 Q143.19 -53.542 139.239 -49.465 Q135.289 -45.389 129.484 -45.389 H124.646 V-16.686 Q124.646 -4.915 116.422 2.906 Q108.199 10.726 96.589 10.726 H25.155 Z M52.809 -19.427 Q62.168 -19.427 68.817 -24.265 Q75.465 -29.102 75.465 -37.855 Q75.465 -43.292 72.401 -48.13 Q69.338 -52.967 64.016 -52.967 Q60.674 -52.967 58.073 -50.434 Q55.47 -47.901 55.47 -44.744 H49.826 Q49.826 -50.226 54.211 -54.419 Q58.593 -58.611 64.661 -58.611 Q72.126 -58.611 76.618 -52.484 Q81.109 -46.356 81.109 -38.132 Q81.109 -32.352 78.368 -27.501 Q75.626 -22.652 70.95 -19.427 H86.269 Q91.684 -19.427 95.587 -23.056 Q99.491 -26.684 99.491 -32.166 V-41.248 Q99.491 -55.547 89.494 -65.464 Q79.496 -75.381 65.306 -75.381 Q50.887 -75.381 40.843 -66.109 Q30.799 -56.837 30.799 -43.292 Q30.799 -33.456 37.284 -26.442 Q43.77 -19.427 52.809 -19.427 Z"/></g><g id="Bold-M" transform="matrix(1 0 0 1 2281.8 1126)"><path d="M9.25 10.52 Q9.25 1.895 12.125 -5.355 Q15 -12.605 20.875 -17.23 Q15.25 -20.73 12.25 -27.042 Q9.25 -33.355 9.25 -40.605 Q9.25 -57.355 20.75 -69.167 Q32.25 -80.98 48.75 -80.98 Q57.875 -80.98 65.812 -77.167 Q73.75 -73.355 78.875 -66.23 Q81.625 -70.48 86.562 -72.855 Q91.5 -75.23 97.625 -75.23 Q107.75 -75.23 114.812 -69.917 Q121.875 -64.605 121.875 -56.73 Q121.875 -49.48 117.125 -44.48 Q112.375 -39.48 105.5 -39.48 H105.75 V-18.605 Q105.75 -6.48 97.188 2.02 Q88.625 10.52 76.5 10.52 H9.25 Z M38.125 -25.98 Q44 -25.98 48.188 -29.605 Q52.375 -33.23 52.375 -38.73 Q52.375 -40.855 51.312 -42.605 Q50.25 -44.355 48.625 -44.355 Q47.125 -44.355 46.125 -42.73 Q45.125 -41.105 45.125 -38.98 H30.875 Q30.875 -47.105 36.125 -52.98 Q41.375 -58.855 48.875 -58.855 Q56.5 -58.855 61.688 -52.98 Q66.875 -47.105 66.875 -38.98 Q66.875 -35.355 65.938 -32.042 Q65 -28.73 63 -25.98 H66 Q69.125 -25.98 71.375 -27.855 Q73.625 -29.73 73.625 -32.605 V-40.605 Q73.625 -51.48 66.438 -58.98 Q59.25 -66.48 48.75 -66.48 Q38.375 -66.48 31.062 -58.98 Q23.75 -51.48 23.75 -40.605 Q23.75 -34.48 27.938 -30.23 Q32.125 -25.98 38.125 -25.98 Z"/></g><g id="Semibold-M" transform="matrix(1 0 0 1 1985.97 1126)"><path d="M10.011 9.759 Q10.011 1.46 12.777 -5.654 Q15.544 -12.767 21.581 -17.447 Q15.902 -21.001 12.956 -27.26 Q10.011 -33.517 10.011 -40.551 Q10.011 -56.975 21.348 -68.597 Q32.685 -80.219 48.913 -80.219 Q57.875 -80.219 65.731 -76.461 Q73.588 -72.702 78.766 -65.577 Q81.571 -69.936 86.481 -72.285 Q91.391 -74.632 97.299 -74.632 Q106.771 -74.632 113.916 -69.591 Q121.06 -64.551 121.06 -56.512 Q121.06 -49.426 116.446 -44.534 Q111.831 -39.642 104.847 -39.642 H104.989 V-18.822 Q104.989 -6.915 96.59 1.423 Q88.19 9.759 76.229 9.759 H10.011 Z M38.343 -25.871 Q44.271 -25.871 48.486 -29.714 Q52.701 -33.556 52.701 -38.892 Q52.701 -41.235 51.611 -42.85 Q50.521 -44.464 48.843 -44.464 Q47.179 -44.464 46.153 -42.839 Q45.125 -41.214 45.125 -39.142 H31.364 Q31.364 -46.996 36.479 -52.709 Q41.593 -58.42 49.038 -58.42 Q56.446 -58.42 61.551 -52.817 Q66.657 -47.214 66.657 -39.142 Q66.657 -35.735 65.692 -32.26 Q64.729 -28.784 62.62 -25.871 H66.162 Q69.287 -25.871 71.537 -27.774 Q73.787 -29.676 73.787 -32.605 V-40.551 Q73.787 -51.371 66.6 -58.817 Q59.413 -66.262 48.913 -66.262 Q38.484 -66.262 31.225 -58.817 Q23.968 -51.371 23.968 -40.551 Q23.968 -34.426 28.155 -30.149 Q32.343 -25.871 38.343 -25.871 Z"/></g><g id="Medium-M" transform="matrix(1 0 0 1 1689.91 1126)"><path d="M10.581 9.189 Q10.581 1.134 13.266 -5.877 Q15.951 -12.89 22.111 -17.61 Q16.391 -21.205 13.486 -27.422 Q10.581 -33.64 10.581 -40.51 Q10.581 -56.689 21.796 -68.169 Q33.011 -79.649 49.035 -79.649 Q57.875 -79.649 65.67 -75.931 Q73.465 -72.214 78.685 -65.089 Q81.53 -69.529 86.42 -71.856 Q91.31 -74.184 97.054 -74.184 Q106.037 -74.184 113.244 -69.346 Q120.449 -64.51 120.449 -56.35 Q120.449 -49.385 115.936 -44.575 Q111.424 -39.765 104.359 -39.765 H104.419 V-18.985 Q104.419 -7.241 96.141 0.974 Q87.864 9.189 76.025 9.189 H10.581 Z M38.505 -25.79 Q44.475 -25.79 48.71 -29.795 Q52.946 -33.801 52.946 -39.015 Q52.946 -41.521 51.835 -43.032 Q50.725 -44.545 49.005 -44.545 Q47.22 -44.545 46.172 -42.92 Q45.125 -41.295 45.125 -39.265 H31.731 Q31.731 -46.915 36.744 -52.505 Q41.755 -58.094 49.16 -58.094 Q56.405 -58.094 61.45 -52.695 Q66.495 -47.295 66.495 -39.265 Q66.495 -36.021 65.51 -32.422 Q64.525 -28.825 62.334 -25.79 H66.285 Q69.41 -25.79 71.66 -27.712 Q73.91 -29.635 73.91 -32.605 V-40.51 Q73.91 -51.29 66.722 -58.695 Q59.535 -66.1 49.035 -66.1 Q38.565 -66.1 31.348 -58.695 Q24.13 -51.29 24.13 -40.51 Q24.13 -34.385 28.317 -30.087 Q32.505 -25.79 38.505 -25.79 Z"/></g><g id="Regular-M" transform="matrix(1 0 0 1 1394.06 1126)"><path d="M11 8.77 Q11 0.895 13.625 -6.042 Q16.25 -12.98 22.5 -17.73 Q16.75 -21.355 13.875 -27.542 Q11 -33.73 11 -40.48 Q11 -56.48 22.125 -67.855 Q33.25 -79.23 49.125 -79.23 Q57.875 -79.23 65.625 -75.542 Q73.375 -71.855 78.625 -64.73 Q81.5 -69.23 86.375 -71.542 Q91.25 -73.855 96.875 -73.855 Q105.5 -73.855 112.75 -69.167 Q120 -64.48 120 -56.23 Q120 -49.355 115.562 -44.605 Q111.125 -39.855 104 -39.855 V-19.105 Q104 -7.48 95.812 0.645 Q87.625 8.77 75.875 8.77 H11 Z M38.625 -25.73 Q44.625 -25.73 48.875 -29.855 Q53.125 -33.98 53.125 -39.105 Q53.125 -41.73 52 -43.167 Q50.875 -44.605 49.125 -44.605 Q47.25 -44.605 46.188 -42.98 Q45.125 -41.355 45.125 -39.355 H32 Q32 -46.855 36.938 -52.355 Q41.875 -57.855 49.25 -57.855 Q56.375 -57.855 61.375 -52.605 Q66.375 -47.355 66.375 -39.355 Q66.375 -36.23 65.375 -32.542 Q64.375 -28.855 62.125 -25.73 H66.375 Q69.5 -25.73 71.75 -27.667 Q74 -29.605 74 -32.605 V-40.48 Q74 -51.23 66.812 -58.605 Q59.625 -65.98 49.125 -65.98 Q38.625 -65.98 31.438 -58.605 Q24.25 -51.23 24.25 -40.48 Q24.25 -34.355 28.438 -30.042 Q32.625 -25.73 38.625 -25.73 Z"/></g><g id="Light-M" transform="matrix(1 0 0 1 1098.18 1126)"><path d="M13.5 6.318 Q13.5 -1.365 16.461 -7.87 Q19.424 -14.374 25.817 -18.451 Q19.731 -21.451 16.615 -27.615 Q13.5 -33.777 13.5 -40.769 Q13.5 -55.662 24 -66.196 Q34.5 -76.73 49.557 -76.73 Q58.549 -76.73 66.226 -72.826 Q73.904 -68.922 78.529 -61.509 Q80.731 -66.345 85.51 -68.922 Q90.289 -71.499 96.058 -71.499 Q103.961 -71.499 110.73 -67.292 Q117.5 -63.086 117.5 -55.509 Q117.5 -49.307 113.495 -45.014 Q109.49 -40.72 103.039 -40.72 H101.933 V-19.586 Q101.933 -8.779 94.25 -1.23 Q86.567 6.318 75.586 6.318 H13.5 Z M39.346 -24.961 Q45.682 -24.961 50.174 -28.869 Q54.664 -32.777 54.664 -38.336 Q54.664 -41.49 53.178 -43.72 Q51.693 -45.951 49.172 -45.951 Q47.154 -45.951 45.851 -44.182 Q44.547 -42.412 44.547 -40.22 H33.924 Q33.924 -46.855 38.404 -51.777 Q42.885 -56.701 49.49 -56.701 Q56.279 -56.701 60.846 -51.451 Q65.414 -46.201 65.414 -38.586 Q65.414 -35.027 64.101 -31.412 Q62.789 -27.797 60.057 -24.961 H66.328 Q69.789 -24.961 72.302 -27.162 Q74.817 -29.365 74.817 -32.652 V-40.287 Q74.817 -51.134 67.51 -58.557 Q60.203 -65.98 49.557 -65.98 Q38.865 -65.98 31.558 -58.701 Q24.25 -51.422 24.25 -40.769 Q24.25 -34.259 28.654 -29.61 Q33.057 -24.961 39.346 -24.961 Z"/></g><g id="Thin-M" transform="matrix(1 0 0 1 802.565 1126)"><path d="M16 3.866 Q16 -3.624 19.297 -9.696 Q22.596 -15.769 29.135 -19.172 Q22.711 -21.547 19.356 -27.686 Q16 -33.826 16 -41.057 Q16 -54.845 25.875 -64.537 Q35.75 -74.23 49.99 -74.23 Q59.221 -74.23 66.828 -70.11 Q74.433 -65.99 78.433 -58.287 Q79.961 -63.461 84.644 -66.302 Q89.328 -69.144 95.24 -69.144 Q102.422 -69.144 108.711 -65.417 Q115 -61.691 115 -54.787 Q115 -49.259 111.427 -45.422 Q107.856 -41.586 102.078 -41.586 H99.865 V-20.066 Q99.865 -10.076 92.688 -3.105 Q85.51 3.866 75.297 3.866 H16 Z M40.068 -24.191 Q46.74 -24.191 51.471 -27.884 Q56.203 -31.576 56.203 -37.566 Q56.203 -41.249 54.356 -44.274 Q52.51 -47.297 49.221 -47.297 Q47.057 -47.297 45.515 -45.384 Q43.971 -43.47 43.971 -41.086 H35.846 Q35.846 -46.855 39.87 -51.201 Q43.894 -55.547 49.731 -55.547 Q56.182 -55.547 60.318 -50.297 Q64.453 -45.047 64.453 -37.816 Q64.453 -33.826 62.828 -30.282 Q61.203 -26.74 57.99 -24.191 H66.279 Q70.078 -24.191 72.856 -26.657 Q75.635 -29.124 75.635 -32.701 V-40.095 Q75.635 -51.037 68.206 -58.509 Q60.779 -65.98 49.99 -65.98 Q39.106 -65.98 31.677 -58.797 Q24.25 -51.615 24.25 -41.057 Q24.25 -34.162 28.87 -29.177 Q33.49 -24.191 40.068 -24.191 Z"/></g><g id="Ultralight-M" transform="matrix(1 0 0 1 506.415 1126)"><path d="M17.5 2.395 Q17.5 -4.98 21 -10.792 Q24.5 -16.605 31.125 -19.605 Q24.5 -21.605 21 -27.73 Q17.5 -33.855 17.5 -41.23 Q17.5 -54.355 27 -63.542 Q36.5 -72.73 50.25 -72.73 Q59.625 -72.73 67.188 -68.48 Q74.75 -64.23 78.375 -56.355 Q79.5 -61.73 84.125 -64.73 Q88.75 -67.73 94.75 -67.73 Q101.5 -67.73 107.5 -64.292 Q113.5 -60.855 113.5 -54.355 Q113.5 -49.23 110.188 -45.667 Q106.875 -42.105 101.5 -42.105 H98.625 V-20.355 Q98.625 -10.855 91.75 -4.23 Q84.875 2.395 75.125 2.395 H17.5 Z M40.5 -23.73 Q47.375 -23.73 52.25 -27.292 Q57.125 -30.855 57.125 -37.105 Q57.125 -41.105 55.062 -44.605 Q53 -48.105 49.25 -48.105 Q47 -48.105 45.312 -46.105 Q43.625 -44.105 43.625 -41.605 H37 Q37 -46.855 40.75 -50.855 Q44.5 -54.855 49.875 -54.855 Q56.125 -54.855 60 -49.605 Q63.875 -44.355 63.875 -37.355 Q63.875 -33.105 62.062 -29.605 Q60.25 -26.105 56.75 -23.73 H66.25 Q70.25 -23.73 73.188 -26.355 Q76.125 -28.98 76.125 -32.73 V-39.98 Q76.125 -50.98 68.625 -58.48 Q61.125 -65.98 50.25 -65.98 Q39.25 -65.98 31.75 -58.855 Q24.25 -51.73 24.25 -41.23 Q24.25 -34.105 29 -28.917 Q33.75 -23.73 40.5 -23.73 Z"/></g><g id="Bold-S" transform="matrix(1 0 0 1 2294.23 696)"><path d="M9.567 -2.289 Q9.567 -8.798 11.835 -14.075 Q14.103 -19.351 18.64 -22.902 Q14.301 -25.269 11.934 -30.003 Q9.567 -34.737 9.567 -40.26 Q9.567 -52.577 18.048 -61.261 Q26.53 -69.946 38.562 -69.946 Q45.861 -69.946 51.975 -66.79 Q58.09 -63.634 61.641 -57.716 Q63.613 -60.182 66.917 -61.514 Q70.221 -62.845 74.265 -62.845 Q81.957 -62.845 87.431 -58.949 Q92.905 -55.054 92.905 -49.136 Q92.905 -43.81 89.474 -40.211 Q86.042 -36.611 81.07 -36.611 H80.182 V-23.296 Q80.182 -14.617 74.003 -8.453 Q67.824 -2.289 59.076 -2.289 H9.567 Z M30.893 -29.51 Q35.209 -29.51 38.267 -32.132 Q41.324 -34.756 41.324 -38.83 Q41.324 -40.358 40.544 -41.641 Q39.764 -42.923 38.555 -42.923 Q37.477 -42.923 36.738 -41.69 Q35.998 -40.457 35.998 -38.978 H25.544 Q25.544 -44.937 29.422 -49.255 Q33.301 -53.574 38.834 -53.574 Q44.48 -53.574 48.228 -49.284 Q51.975 -44.994 51.975 -38.978 Q51.975 -36.087 51.137 -33.44 Q50.299 -30.792 48.622 -28.721 H51.482 Q53.701 -28.721 55.304 -30.052 Q56.907 -31.384 56.907 -33.257 V-40.26 Q56.907 -48.267 51.68 -53.78 Q46.452 -59.294 38.707 -59.294 Q31.067 -59.294 25.692 -53.791 Q20.317 -48.287 20.317 -40.293 Q20.317 -35.822 23.401 -32.666 Q26.485 -29.51 30.893 -29.51 Z"/></g><g id="Semibold-S" transform="matrix(1 0 0 1 1998.1 696)"><path d="M10.167 -2.89 Q10.167 -9.142 12.35 -14.311 Q14.532 -19.48 19.197 -23.073 Q14.815 -25.483 12.491 -30.174 Q10.167 -34.865 10.167 -40.217 Q10.167 -52.276 18.52 -60.811 Q26.873 -69.345 38.691 -69.345 Q45.861 -69.345 51.911 -66.233 Q57.962 -63.119 61.555 -57.202 Q63.571 -59.753 66.853 -61.064 Q70.135 -62.374 74.007 -62.374 Q81.185 -62.374 86.724 -58.692 Q92.262 -55.011 92.262 -48.965 Q92.262 -43.768 88.938 -40.253 Q85.614 -36.739 80.555 -36.739 H79.581 V-23.468 Q79.581 -14.961 73.532 -8.925 Q67.481 -2.89 58.862 -2.89 H10.167 Z M31.064 -29.424 Q35.423 -29.424 38.502 -32.218 Q41.581 -35.013 41.581 -38.958 Q41.581 -40.658 40.779 -41.834 Q39.978 -43.009 38.727 -43.009 Q37.52 -43.009 36.76 -41.776 Q35.998 -40.543 35.998 -39.106 H25.929 Q25.929 -44.851 29.701 -49.04 Q33.472 -53.231 38.962 -53.231 Q44.437 -53.231 48.12 -49.156 Q51.804 -45.08 51.804 -39.106 Q51.804 -36.387 50.944 -33.611 Q50.085 -30.834 48.322 -28.635 H51.61 Q53.83 -28.635 55.432 -29.988 Q57.035 -31.341 57.035 -33.257 V-40.217 Q57.035 -48.181 51.808 -53.652 Q46.581 -59.123 38.836 -59.123 Q31.153 -59.123 25.82 -53.662 Q20.488 -48.201 20.488 -40.251 Q20.488 -35.779 23.572 -32.602 Q26.655 -29.424 31.064 -29.424 Z"/></g><g id="Medium-S" transform="matrix(1 0 0 1 1701.85 696)"><path d="M10.617 -3.34 Q10.617 -9.399 12.735 -14.487 Q14.854 -19.576 19.616 -23.202 Q15.201 -25.644 12.909 -30.303 Q10.617 -34.962 10.617 -40.185 Q10.617 -52.051 18.874 -60.473 Q27.131 -68.896 38.787 -68.896 Q45.861 -68.896 51.863 -65.815 Q57.865 -62.734 61.491 -56.816 Q63.538 -59.432 66.805 -60.726 Q70.071 -62.02 73.814 -62.02 Q80.606 -62.02 86.193 -58.499 Q91.779 -54.979 91.779 -48.836 Q91.779 -43.735 88.536 -40.286 Q85.293 -36.836 80.169 -36.836 H79.132 V-23.596 Q79.132 -15.218 73.178 -9.279 Q67.224 -3.34 58.702 -3.34 H10.617 Z M31.193 -29.36 Q35.584 -29.36 38.679 -32.283 Q41.775 -35.205 41.775 -39.055 Q41.775 -40.884 40.956 -41.978 Q40.138 -43.073 38.855 -43.073 Q37.552 -43.073 36.775 -41.84 Q35.998 -40.607 35.998 -39.203 H26.219 Q26.219 -44.786 29.91 -48.88 Q33.601 -52.974 39.058 -52.974 Q44.405 -52.974 48.04 -49.059 Q51.676 -45.144 51.676 -39.203 Q51.676 -36.613 50.8 -33.74 Q49.924 -30.867 48.096 -28.571 H51.707 Q53.926 -28.571 55.529 -29.94 Q57.131 -31.309 57.131 -33.257 V-40.185 Q57.131 -48.117 51.904 -53.556 Q46.677 -58.995 38.932 -58.995 Q31.217 -58.995 25.917 -53.565 Q20.617 -48.137 20.617 -40.218 Q20.617 -35.747 23.701 -32.553 Q26.785 -29.36 31.193 -29.36 Z"/></g><g id="Regular-S" transform="matrix(1 0 0 1 1405.73 696)"><path d="M10.947 -3.67 Q10.947 -9.587 13.019 -14.617 Q15.09 -19.647 19.922 -23.296 Q15.484 -25.762 13.216 -30.397 Q10.947 -35.033 10.947 -40.161 Q10.947 -51.887 19.133 -60.226 Q27.319 -68.565 38.858 -68.565 Q45.861 -68.565 51.827 -65.508 Q57.794 -62.45 61.443 -56.533 Q63.515 -59.196 66.769 -60.478 Q70.024 -61.76 73.673 -61.76 Q80.182 -61.76 85.804 -58.358 Q91.425 -54.955 91.425 -48.742 Q91.425 -43.712 88.241 -40.309 Q85.056 -36.907 79.886 -36.907 H78.801 V-23.691 Q78.801 -15.406 72.918 -9.538 Q67.035 -3.67 58.583 -3.67 H10.947 Z M31.288 -29.312 Q35.702 -29.312 38.809 -32.329 Q41.916 -35.347 41.916 -39.126 Q41.916 -41.049 41.086 -42.084 Q40.257 -43.12 38.95 -43.12 Q37.576 -43.12 36.787 -41.887 Q35.998 -40.654 35.998 -39.274 H26.431 Q26.431 -44.739 30.063 -48.762 Q33.695 -52.785 39.129 -52.785 Q44.381 -52.785 47.981 -48.988 Q51.581 -45.191 51.581 -39.274 Q51.581 -36.777 50.693 -33.834 Q49.806 -30.89 47.932 -28.523 H51.778 Q53.997 -28.523 55.6 -29.904 Q57.203 -31.285 57.203 -33.257 V-40.161 Q57.203 -48.07 51.975 -53.485 Q46.748 -58.9 39.003 -58.9 Q31.264 -58.9 25.988 -53.495 Q20.711 -48.09 20.711 -40.195 Q20.711 -35.723 23.795 -32.518 Q26.879 -29.312 31.288 -29.312 Z"/></g><g id="Light-S" transform="matrix(1 0 0 1 1109.75 696)"><path d="M12.92 -5.605 Q12.92 -11.371 15.256 -16.059 Q17.594 -20.747 22.54 -23.865 Q17.836 -25.838 15.378 -30.455 Q12.92 -35.07 12.92 -40.389 Q12.92 -51.242 20.613 -58.917 Q28.305 -66.593 39.199 -66.593 Q46.392 -66.593 52.302 -63.365 Q58.211 -60.137 61.367 -53.991 Q62.908 -56.92 66.087 -58.411 Q69.265 -59.901 73.028 -59.901 Q78.968 -59.901 84.21 -56.878 Q89.453 -53.855 89.453 -48.173 Q89.453 -43.674 86.61 -40.632 Q83.767 -37.589 79.128 -37.589 H77.17 V-24.071 Q77.17 -16.431 71.686 -11.018 Q66.201 -5.605 58.355 -5.605 H12.92 Z M31.856 -28.706 Q36.537 -28.706 39.834 -31.552 Q43.13 -34.399 43.13 -38.519 Q43.13 -40.86 42.015 -42.52 Q40.902 -44.182 38.987 -44.182 Q37.5 -44.182 36.522 -42.836 Q35.542 -41.489 35.542 -39.956 H27.949 Q27.949 -44.739 31.221 -48.307 Q34.491 -51.875 39.319 -51.875 Q44.305 -51.875 47.564 -48.078 Q50.822 -44.281 50.822 -38.667 Q50.822 -35.83 49.688 -32.943 Q48.554 -30.056 46.3 -27.917 H51.741 Q54.225 -27.917 56.036 -29.506 Q57.848 -31.096 57.848 -33.295 V-40.009 Q57.848 -47.994 52.526 -53.447 Q47.204 -58.9 39.344 -58.9 Q31.453 -58.9 26.082 -53.57 Q20.711 -48.242 20.711 -40.423 Q20.711 -35.647 23.966 -32.177 Q27.221 -28.706 31.856 -28.706 Z"/></g><g id="Thin-S" transform="matrix(1 0 0 1 814.015 696)"><path d="M14.892 -7.539 Q14.892 -13.153 17.494 -17.5 Q20.097 -21.848 25.157 -24.435 Q20.188 -25.914 17.54 -30.511 Q14.892 -35.109 14.892 -40.617 Q14.892 -50.597 22.092 -57.608 Q29.292 -64.62 39.541 -64.62 Q46.923 -64.62 52.776 -61.222 Q58.629 -57.823 61.291 -51.45 Q62.3 -54.644 65.403 -56.344 Q68.507 -58.043 72.383 -58.043 Q77.754 -58.043 82.617 -55.399 Q87.48 -52.755 87.48 -47.603 Q87.48 -43.636 84.979 -40.954 Q82.477 -38.273 78.369 -38.273 H75.539 V-24.449 Q75.539 -17.455 70.453 -12.497 Q65.367 -7.539 58.128 -7.539 H14.892 Z M32.425 -28.098 Q37.371 -28.098 40.857 -30.774 Q44.344 -33.451 44.344 -37.912 Q44.344 -40.669 42.945 -42.957 Q41.547 -45.244 39.026 -45.244 Q37.424 -45.244 36.257 -43.784 Q35.088 -42.323 35.088 -40.64 H29.466 Q29.466 -44.739 32.377 -47.852 Q35.288 -50.965 39.508 -50.965 Q44.229 -50.965 47.147 -47.168 Q50.064 -43.371 50.064 -38.06 Q50.064 -34.881 48.683 -32.051 Q47.303 -29.222 44.669 -27.309 H51.702 Q54.453 -27.309 56.473 -29.107 Q58.493 -30.905 58.493 -33.333 V-39.857 Q58.493 -47.918 53.075 -53.41 Q47.659 -58.9 39.686 -58.9 Q31.644 -58.9 26.177 -53.646 Q20.711 -48.393 20.711 -40.65 Q20.711 -35.571 24.136 -31.835 Q27.562 -28.098 32.425 -28.098 Z"/></g><g id="Ultralight-S" transform="matrix(1 0 0 1 517.792 696)"><path d="M16.076 -8.7 Q16.076 -14.223 18.837 -18.365 Q21.599 -22.507 26.727 -24.776 Q21.599 -25.959 18.837 -30.545 Q16.076 -35.131 16.076 -40.753 Q16.076 -50.21 22.98 -56.823 Q29.883 -63.437 39.746 -63.437 Q47.241 -63.437 53.06 -59.936 Q58.879 -56.434 61.246 -49.925 Q61.937 -53.278 64.994 -55.103 Q68.051 -56.927 71.996 -56.927 Q77.026 -56.927 81.662 -54.511 Q86.297 -52.095 86.297 -47.262 Q86.297 -43.613 84 -41.147 Q81.703 -38.682 77.914 -38.682 H74.561 V-24.677 Q74.561 -18.069 69.713 -13.385 Q64.866 -8.7 57.992 -8.7 H16.076 Z M32.767 -27.734 Q37.872 -27.734 41.472 -30.308 Q45.072 -32.882 45.072 -37.548 Q45.072 -40.556 43.503 -43.219 Q41.933 -45.881 39.049 -45.881 Q37.379 -45.881 36.097 -44.353 Q34.815 -42.824 34.815 -41.049 H30.377 Q30.377 -44.739 33.071 -47.579 Q35.766 -50.418 39.623 -50.418 Q44.184 -50.418 46.896 -46.621 Q49.608 -42.824 49.608 -37.696 Q49.608 -34.312 48.08 -31.517 Q46.551 -28.721 43.691 -26.945 H51.68 Q54.589 -26.945 56.734 -28.869 Q58.879 -30.792 58.879 -33.356 V-39.767 Q58.879 -47.873 53.405 -53.386 Q47.932 -58.9 39.891 -58.9 Q31.757 -58.9 26.234 -53.693 Q20.711 -48.484 20.711 -40.787 Q20.711 -35.526 24.239 -31.63 Q27.767 -27.734 32.767 -27.734 Z"/></g></g></svg>