<svg xmlns="http://www.w3.org/2000/svg" version="1.1" width="3300" height="2000"><g id="Notes"><style>
    text {
      font-family: monospace;
      text-anchor: middle;
    }
    text.emphasis {
      font-weight:bold;
    }
    text.lanchor {
      text-anchor: start;
    }
  </style><rect height="2200" id="artboard" fill="white" width="3300" x="0" y="0"/><line id="" style="fill:none;stroke:black;stroke-width:0.5;" x1="263" x2="3036" y1="292" y2="292"/><text class="lanchor emphasis" transform="matrix(1 0 0 1 263 322)">Weight/Scale Variations</text><text transform="matrix(1 0 0 1 559.711 322)">Ultralight</text><text transform="matrix(1 0 0 1 856.422 322)">Thin</text><text transform="matrix(1 0 0 1 1153.13 322)">Light</text><text transform="matrix(1 0 0 1 1449.84 322)">Regular</text><text transform="matrix(1 0 0 1 1746.56 322)">Medium</text><text transform="matrix(1 0 0 1 2043.27 322)">Semibold</text><text transform="matrix(1 0 0 1 2339.98 322)">Bold</text><text transform="matrix(1 0 0 1 2636.69 322)">Heavy</text><text transform="matrix(1 0 0 1 2933.4 322)">Black</text><text id="template-version" style="text-anchor: end;" transform="matrix(1 0 0 1 3036 1933)">Template v.1.0</text><text class="lanchor" transform="matrix(1 0 0 1 263 726)">Small</text><text class="lanchor" transform="matrix(1 0 0 1 263 1156)">Medium</text><text class="lanchor" transform="matrix(1 0 0 1 263 1586)">Large</text></g><g id="Guides"><g id="H-reference" style="fill:#27AAE1;stroke:none;" transform="matrix(1 0 0 1 339 696)"><path d="M 54.9316 0 L 57.666 0 L 30.5664 -70.459 L 28.0762 -70.459 L 0.976562 0 L 3.66211 0 L 12.9395 -24.4629 L 45.7031 -24.4629 Z M 29.1992 -67.0898 L 29.4434 -67.0898 L 44.8242 -26.709 L 13.8184 -26.709 Z"/></g><line id="Baseline-S" style="fill:none;stroke:#27AAE1;opacity:1;stroke-width:0.577;" x1="263" x2="3036" y1="696" y2="696"/><line id="Capline-S" style="fill:none;stroke:#27AAE1;opacity:1;stroke-width:0.577;" x1="263" x2="3036" y1="625.541" y2="625.541"/><g id="H-reference" style="fill:#27AAE1;stroke:none;" transform="matrix(1 0 0 1 339 1126)"><path d="M 54.9316 0 L 57.666 0 L 30.5664 -70.459 L 28.0762 -70.459 L 0.976562 0 L 3.66211 0 L 12.9395 -24.4629 L 45.7031 -24.4629 Z M 29.1992 -67.0898 L 29.4434 -67.0898 L 44.8242 -26.709 L 13.8184 -26.709 Z"/></g><line id="Baseline-M" style="fill:none;stroke:#27AAE1;opacity:1;stroke-width:0.577;" x1="263" x2="3036" y1="1126" y2="1126"/><line id="Capline-M" style="fill:none;stroke:#27AAE1;opacity:1;stroke-width:0.577;" x1="263" x2="3036" y1="1055.54" y2="1055.54"/><g id="H-reference" style="fill:#27AAE1;stroke:none;" transform="matrix(1 0 0 1 339 1556)"><path d="M 54.9316 0 L 57.666 0 L 30.5664 -70.459 L 28.0762 -70.459 L 0.976562 0 L 3.66211 0 L 12.9395 -24.4629 L 45.7031 -24.4629 Z M 29.1992 -67.0898 L 29.4434 -67.0898 L 44.8242 -26.709 L 13.8184 -26.709 Z"/></g><line id="Baseline-L" style="fill:none;stroke:#27AAE1;opacity:1;stroke-width:0.577;" x1="263" x2="3036" y1="1556" y2="1556"/><line id="Capline-L" style="fill:none;stroke:#27AAE1;opacity:1;stroke-width:0.577;" x1="263" x2="3036" y1="1485.54" y2="1485.54"/><rect height="119.336" id="left-margin" style="fill:darkred;stroke:none;opacity:0.4;" width="12.4512" x="1394.06" y="1030.79"/><rect height="119.336" id="right-margin" style="fill:darkgreen;stroke:none;opacity:0.4;" width="12.4512" x="1502.5112" y="1030.79"/><rect x="1406.5112" y="1045" width="96" height="96" fill="none" stroke="blue" stroke-dasharray="5"/><rect x="1394.06" y="1030.79" width="120.9024" height="119.336" fill="none" stroke="blue"/></g><g id="Symbols"><g id="Bold-L" transform="matrix(1 0 0 1 2266 1556)"><path d="M16.125 19.595 Q16.125 10.243 20.479 1.898 Q24.832 -6.447 33.218 -12.905 Q25.055 -17.784 20.59 -26.129 Q16.125 -34.475 16.125 -44.055 Q16.125 -63.287 29.786 -76.752 Q43.446 -90.216 63.405 -90.216 Q74.901 -90.216 84.455 -85.097 Q94.009 -79.977 101.749 -69.415 Q105.054 -75.784 110.945 -79.332 Q116.835 -82.879 124.77 -82.879 Q137.138 -82.879 144.557 -76.794 Q151.978 -70.708 151.978 -62.486 Q151.978 -54.624 146.771 -49.239 Q141.565 -43.857 134.079 -43.857 H132.386 V-14.187 Q132.386 -0.06 122.326 9.767 Q112.265 19.595 97.959 19.595 H16.125 Z M49.741 -20.476 Q58.447 -20.476 64.698 -25.173 Q70.95 -29.868 70.95 -38.024 Q70.95 -42.244 68.594 -45.953 Q66.238 -49.662 62.242 -49.662 Q59.663 -49.662 57.727 -47.669 Q55.793 -45.677 55.793 -42.97 H43.457 Q43.457 -50.791 49.162 -56.475 Q54.867 -62.159 62.784 -62.159 Q71.505 -62.159 77.395 -55.136 Q83.286 -48.112 83.286 -39.018 Q83.286 -33.779 81.431 -29.194 Q79.577 -24.61 76.271 -20.476 H86.104 Q90.945 -20.476 94.412 -23.804 Q97.879 -27.132 97.879 -31.674 V-42.006 Q97.879 -56.713 87.767 -67.216 Q77.653 -77.719 63.42 -77.719 Q48.791 -77.719 38.626 -67.996 Q28.461 -58.273 28.461 -44.099 Q28.461 -34.504 34.591 -27.49 Q40.724 -20.476 49.741 -20.476 Z M31.605 7.259 H98.272 Q107.365 7.259 113.628 1.087 Q119.889 -5.084 119.889 -14.219 V-43.373 Q119.889 -48.514 123.235 -52.353 Q126.581 -56.192 130.95 -56.192 H132.918 Q135.45 -56.192 137.546 -58.06 Q139.643 -59.927 139.643 -62.444 Q139.643 -64.39 138.364 -66.019 Q137.085 -67.648 134.966 -68.528 Q132.064 -69.657 129.524 -70.02 Q126.984 -70.382 124.856 -70.382 Q118.646 -70.382 114.51 -66.15 Q110.376 -61.917 110.376 -55.793 V-31.763 Q110.376 -21.766 103.226 -14.953 Q96.074 -8.14 86.148 -8.14 H55.473 Q47.525 -8.14 40.977 -3.867 Q34.427 0.406 31.605 7.259 Z"/></g><g id="Semibold-L" transform="matrix(1 0 0 1 1970.27 1556)"><path d="M17.878 17.842 Q17.878 9.051 22.267 0.987 Q26.655 -7.077 34.97 -13.427 Q26.879 -18.275 22.378 -26.442 Q17.878 -34.608 17.878 -43.915 Q17.878 -62.517 31.168 -75.455 Q44.46 -88.394 63.776 -88.394 Q75.041 -88.394 84.419 -83.308 Q93.799 -78.224 101.539 -67.802 Q104.845 -74.243 110.595 -77.79 Q116.345 -81.338 123.927 -81.338 Q135.456 -81.338 142.666 -75.638 Q149.875 -69.937 149.875 -61.925 Q149.875 -54.477 144.873 -49.343 Q139.871 -44.207 132.677 -44.207 H130.564 V-14.677 Q130.564 -1.118 120.889 8.362 Q111.214 17.842 97.469 17.842 H17.878 Z M50.286 -20.266 Q59.045 -20.266 65.384 -25.347 Q71.721 -30.43 71.721 -38.516 Q71.721 -43.015 69.246 -46.479 Q66.772 -49.942 62.804 -49.942 Q59.943 -49.942 57.832 -47.999 Q55.723 -46.058 55.723 -43.32 H44.719 Q44.719 -50.581 50.144 -55.809 Q55.568 -61.036 63.136 -61.036 Q71.439 -61.036 77.082 -54.575 Q82.724 -48.112 82.724 -39.368 Q82.724 -34.269 80.73 -29.44 Q78.735 -24.61 75.289 -20.266 H86.594 Q91.366 -20.266 94.833 -23.654 Q98.3 -27.043 98.3 -31.781 V-41.899 Q98.3 -56.502 88.167 -66.901 Q78.034 -77.299 63.771 -77.299 Q49.172 -77.299 39.026 -67.64 Q28.881 -57.981 28.881 -43.958 Q28.881 -34.295 35.048 -27.28 Q41.214 -20.266 50.286 -20.266 Z M31.605 6.839 H97.642 Q106.781 6.839 113.125 0.627 Q119.469 -5.586 119.469 -14.709 V-43.863 Q119.469 -48.443 122.5 -51.827 Q125.53 -55.21 129.689 -55.21 H131.906 Q134.608 -55.21 136.74 -57.175 Q138.872 -59.139 138.872 -61.901 Q138.872 -63.982 137.475 -65.711 Q136.079 -67.438 133.915 -68.388 Q131.082 -69.447 128.613 -69.844 Q126.143 -70.242 123.993 -70.242 Q117.804 -70.242 113.599 -65.905 Q109.394 -61.567 109.394 -55.443 V-31.832 Q109.394 -22.256 102.674 -15.759 Q95.955 -9.262 86.638 -9.262 H55.963 Q47.946 -9.262 41.256 -4.813 Q34.567 -0.365 31.605 6.839 Z"/></g><g id="Medium-L" transform="matrix(1 0 0 1 1674.31 1556)"><path d="M19.192 16.528 Q19.192 8.158 23.607 0.303 Q28.022 -7.551 36.284 -13.819 Q28.246 -18.642 23.718 -26.676 Q19.192 -34.708 19.192 -43.808 Q19.192 -61.938 32.206 -74.481 Q45.219 -87.027 64.053 -87.027 Q75.146 -87.027 84.393 -81.968 Q93.641 -76.91 101.381 -66.593 Q104.687 -73.085 110.332 -76.633 Q115.976 -80.18 123.293 -80.18 Q134.194 -80.18 141.245 -74.77 Q148.297 -69.359 148.297 -61.504 Q148.297 -54.367 143.45 -49.418 Q138.601 -44.47 131.625 -44.47 H129.197 V-15.046 Q129.197 -1.909 119.81 7.309 Q110.424 16.528 97.1 16.528 H19.192 Z M50.695 -20.108 Q59.495 -20.108 65.896 -25.479 Q72.3 -30.85 72.3 -38.884 Q72.3 -43.594 69.736 -46.874 Q67.172 -50.152 63.225 -50.152 Q60.153 -50.152 57.911 -48.248 Q55.67 -46.343 55.67 -43.583 H45.666 Q45.666 -50.423 50.879 -55.309 Q56.094 -60.196 63.399 -60.196 Q71.39 -60.196 76.847 -54.154 Q82.304 -48.112 82.304 -39.631 Q82.304 -34.638 80.204 -29.623 Q78.105 -24.61 74.554 -20.108 H86.964 Q91.682 -20.108 95.149 -23.541 Q98.616 -26.976 98.616 -31.858 V-41.819 Q98.616 -56.344 88.467 -66.664 Q78.318 -76.982 64.034 -76.982 Q49.455 -76.982 39.326 -67.372 Q29.198 -57.761 29.198 -43.854 Q29.198 -34.137 35.39 -27.122 Q41.583 -20.108 50.695 -20.108 Z M31.605 6.522 H97.168 Q106.343 6.522 112.748 0.28 Q119.152 -5.962 119.152 -15.077 V-44.233 Q119.152 -48.39 121.947 -51.432 Q124.741 -54.475 128.742 -54.475 H131.146 Q133.978 -54.475 136.135 -56.51 Q138.293 -58.547 138.293 -61.493 Q138.293 -63.678 136.808 -65.479 Q135.323 -67.28 133.126 -68.283 Q130.346 -69.289 127.929 -69.713 Q125.512 -70.137 123.347 -70.137 Q117.172 -70.137 112.915 -65.721 Q108.658 -61.304 108.658 -55.18 V-31.886 Q108.658 -22.625 102.262 -16.364 Q95.866 -10.102 87.007 -10.102 H56.331 Q48.262 -10.102 41.467 -5.523 Q34.672 -0.943 31.605 6.522 Z"/></g><g id="Regular-L" transform="matrix(1 0 0 1 1378.56 1556)"><path d="M20.156 15.564 Q20.156 7.501 24.591 -0.198 Q29.025 -7.898 37.249 -14.106 Q29.248 -18.913 24.702 -26.847 Q20.156 -34.782 20.156 -43.733 Q20.156 -61.514 32.966 -73.769 Q45.777 -86.024 64.258 -86.024 Q75.223 -86.024 84.374 -80.985 Q93.525 -75.946 101.265 -65.706 Q104.571 -72.237 110.139 -75.784 Q115.707 -79.332 122.831 -79.332 Q133.268 -79.332 140.204 -74.133 Q147.141 -68.934 147.141 -61.196 Q147.141 -54.288 142.405 -49.475 Q137.669 -44.663 130.854 -44.663 H128.194 V-15.316 Q128.194 -2.491 119.02 6.535 Q109.847 15.564 96.831 15.564 H20.156 Z M50.995 -19.992 Q59.824 -19.992 66.274 -25.576 Q72.724 -31.158 72.724 -39.153 Q72.724 -44.018 70.094 -47.162 Q67.465 -50.307 63.532 -50.307 Q60.308 -50.307 57.969 -48.43 Q55.631 -46.551 55.631 -43.776 H46.359 Q46.359 -50.307 51.419 -54.943 Q56.479 -59.579 63.591 -59.579 Q71.353 -59.579 76.674 -53.846 Q81.996 -48.112 81.996 -39.824 Q81.996 -34.907 79.819 -29.759 Q77.642 -24.61 74.014 -19.992 H87.233 Q91.913 -19.992 95.379 -23.459 Q98.846 -26.926 98.846 -31.916 V-41.761 Q98.846 -56.23 88.686 -66.49 Q78.527 -76.752 64.226 -76.752 Q49.665 -76.752 39.547 -67.177 Q29.428 -57.6 29.428 -43.776 Q29.428 -34.021 35.639 -27.006 Q41.852 -19.992 50.995 -19.992 Z M31.605 6.292 H96.821 Q106.022 6.292 112.472 0.027 Q118.922 -6.237 118.922 -15.348 V-44.502 Q118.922 -48.353 121.542 -51.144 Q124.163 -53.935 128.047 -53.935 H130.588 Q133.515 -53.935 135.692 -56.023 Q137.869 -58.113 137.869 -61.194 Q137.869 -63.454 136.319 -65.31 Q134.77 -67.164 132.548 -68.206 Q129.806 -69.173 127.428 -69.617 Q125.049 -70.06 122.873 -70.06 Q116.71 -70.06 112.414 -65.585 Q108.118 -61.111 108.118 -54.986 V-31.924 Q108.118 -22.894 101.96 -16.807 Q95.8 -10.72 87.277 -10.72 H56.602 Q48.493 -10.72 41.622 -6.044 Q34.749 -1.367 31.605 6.292 Z"/></g><g id="Light-L" transform="matrix(1 0 0 1 1082.77 1556)"><path d="M23.072 12.711 Q23.072 4.649 27.754 -2.587 Q32.437 -9.82 40.753 -15.037 Q32.535 -19.005 27.803 -26.701 Q23.072 -34.396 23.072 -43.501 Q23.072 -60.169 35.209 -71.655 Q47.348 -83.139 64.879 -83.139 Q76.029 -83.139 85.227 -77.827 Q94.425 -72.516 101.017 -62.294 Q103.516 -69.073 109.037 -72.854 Q114.558 -76.634 121.713 -76.634 Q131.182 -76.634 137.782 -72.053 Q144.38 -67.474 144.38 -60.172 Q144.38 -53.867 140.063 -49.514 Q135.747 -45.16 129.521 -45.16 H125.836 V-16.091 Q125.836 -4.057 117.259 4.326 Q108.683 12.711 96.521 12.711 H23.072 Z M52.05 -19.682 Q61.162 -19.682 67.702 -25.129 Q74.243 -30.578 74.243 -38.905 Q74.243 -44.123 71.379 -47.788 Q68.514 -51.455 64.037 -51.455 Q60.649 -51.455 58.094 -49.417 Q55.538 -47.379 55.538 -44.334 H48.469 Q48.469 -50.199 53.148 -54.361 Q57.826 -58.524 64.227 -58.524 Q71.6 -58.524 76.457 -52.913 Q81.314 -47.3 81.314 -39.389 Q81.314 -33.977 78.842 -28.891 Q76.37 -23.804 72.216 -19.682 H87.127 Q92.13 -19.682 95.736 -23.257 Q99.343 -26.832 99.343 -32.037 V-41.512 Q99.343 -55.78 89.199 -65.926 Q79.053 -76.07 64.819 -76.07 Q50.347 -76.07 40.245 -66.588 Q30.141 -57.107 30.141 -43.559 Q30.141 -33.679 36.467 -26.681 Q42.791 -19.682 52.05 -19.682 Z M31.574 5.64 H96.511 Q105.717 5.64 112.241 -0.66 Q118.767 -6.961 118.767 -16.114 V-44.471 Q118.767 -47.643 121.015 -49.936 Q123.263 -52.229 126.472 -52.229 H129.306 Q132.523 -52.229 134.916 -54.524 Q137.311 -56.818 137.311 -60.191 Q137.311 -62.722 135.574 -64.695 Q133.839 -66.669 131.462 -67.772 Q128.752 -68.801 126.343 -69.183 Q123.934 -69.563 121.787 -69.563 Q115.416 -69.563 110.914 -65.058 Q106.412 -60.553 106.412 -54.18 V-32.049 Q106.412 -23.778 100.731 -18.196 Q95.05 -12.611 87.177 -12.611 H57.748 Q49.018 -12.611 41.714 -7.64 Q34.408 -2.67 31.574 5.64 Z"/></g><g id="Thin-L" transform="matrix(1 0 0 1 787.282 1556)"><path d="M25.985 9.859 Q25.985 1.796 30.916 -4.975 Q35.847 -11.744 44.257 -15.967 Q35.822 -19.099 30.904 -26.555 Q25.985 -34.013 25.985 -43.27 Q25.985 -58.824 37.452 -69.539 Q48.918 -80.256 65.498 -80.256 Q76.836 -80.256 86.08 -74.672 Q95.323 -69.088 100.768 -58.884 Q102.461 -65.911 107.938 -69.923 Q113.412 -73.936 120.597 -73.936 Q129.097 -73.936 135.358 -69.973 Q141.621 -66.011 141.621 -59.15 Q141.621 -53.448 137.722 -49.552 Q133.825 -45.655 128.187 -45.655 H123.48 V-16.867 Q123.48 -5.623 115.5 2.117 Q107.52 9.859 96.21 9.859 H25.985 Z M53.104 -19.371 Q62.501 -19.371 69.131 -24.684 Q75.763 -29.997 75.763 -38.658 Q75.763 -44.229 72.661 -48.415 Q69.56 -52.601 64.542 -52.601 Q60.99 -52.601 58.218 -50.404 Q55.446 -48.204 55.446 -44.892 H50.576 Q50.576 -50.089 54.875 -53.78 Q59.172 -57.47 64.863 -57.47 Q71.845 -57.47 76.239 -51.979 Q80.631 -46.488 80.631 -38.955 Q80.631 -33.047 77.864 -28.022 Q75.099 -22.998 70.416 -19.371 H87.02 Q92.346 -19.371 96.092 -23.056 Q99.838 -26.74 99.838 -32.16 V-41.264 Q99.838 -55.331 89.71 -65.36 Q79.58 -75.388 65.411 -75.388 Q51.029 -75.388 40.941 -66 Q30.855 -56.612 30.855 -43.342 Q30.855 -33.339 37.292 -26.355 Q43.728 -19.371 53.104 -19.371 Z M31.544 4.989 H96.202 Q105.412 4.989 112.012 -1.348 Q118.612 -7.685 118.612 -16.88 V-44.441 Q118.612 -46.934 120.488 -48.728 Q122.365 -50.525 124.896 -50.525 H128.024 Q131.53 -50.525 134.141 -53.024 Q136.753 -55.523 136.753 -59.189 Q136.753 -61.989 134.831 -64.081 Q132.909 -66.172 130.377 -67.338 Q127.697 -68.428 125.257 -68.749 Q122.816 -69.068 120.702 -69.068 Q114.123 -69.068 109.415 -64.531 Q104.708 -59.995 104.708 -53.374 V-32.173 Q104.708 -24.662 99.504 -19.582 Q94.301 -14.503 87.077 -14.503 H58.897 Q49.544 -14.503 41.806 -9.238 Q34.067 -3.972 31.544 4.989 Z"/></g><g id="Ultralight-L" transform="matrix(1 0 0 1 491.205 1556)"><path d="M27.735 8.146 Q27.735 0.084 32.814 -6.407 Q37.894 -12.897 46.359 -16.525 Q37.794 -19.155 32.764 -26.468 Q27.735 -33.78 27.735 -43.131 Q27.735 -58.016 38.798 -68.272 Q49.862 -78.526 65.871 -78.526 Q77.319 -78.526 86.591 -72.777 Q95.863 -67.028 100.62 -56.837 Q101.829 -64.013 107.276 -68.165 Q112.723 -72.317 119.928 -72.317 Q127.845 -72.317 133.905 -68.726 Q139.965 -65.134 139.965 -58.535 Q139.965 -53.196 136.318 -49.575 Q132.67 -45.953 127.388 -45.953 H122.066 V-17.331 Q122.066 -6.563 114.444 0.792 Q106.822 8.146 96.024 8.146 H27.735 Z M53.737 -19.186 Q63.304 -19.186 69.989 -24.418 Q76.674 -29.649 76.674 -38.508 Q76.674 -44.292 73.432 -48.791 Q70.189 -53.29 64.845 -53.29 Q61.194 -53.29 58.292 -50.995 Q55.389 -48.701 55.389 -45.227 H51.842 Q51.842 -50.025 55.912 -53.432 Q59.98 -56.837 65.243 -56.837 Q71.993 -56.837 76.108 -51.419 Q80.222 -46 80.222 -38.695 Q80.222 -32.489 77.279 -27.501 Q74.336 -22.514 69.338 -19.186 H86.957 Q92.477 -19.186 96.307 -22.935 Q100.136 -26.684 100.136 -32.232 V-41.116 Q100.136 -55.062 90.016 -65.019 Q79.896 -74.978 65.766 -74.978 Q51.439 -74.978 41.361 -65.647 Q31.283 -56.315 31.283 -43.212 Q31.283 -33.134 37.787 -26.16 Q44.291 -19.186 53.737 -19.186 Z M31.524 4.599 H96.016 Q105.229 4.599 111.874 -1.759 Q118.519 -8.119 118.519 -17.339 V-44.421 Q118.519 -46.508 120.172 -48.004 Q121.824 -49.501 123.951 -49.501 H127.257 Q130.935 -49.501 133.676 -52.124 Q136.417 -54.746 136.417 -58.585 Q136.417 -61.549 134.384 -63.712 Q132.351 -65.874 129.726 -67.077 Q127.065 -68.206 124.606 -68.488 Q122.147 -68.77 120.051 -68.77 Q113.346 -68.77 108.515 -64.215 Q103.684 -59.659 103.684 -52.89 V-32.247 Q103.684 -25.192 98.767 -20.416 Q93.852 -15.638 87.017 -15.638 H59.585 Q49.86 -15.638 41.861 -10.196 Q33.863 -4.754 31.524 4.599 Z"/></g><g id="Bold-M" transform="matrix(1 0 0 1 2281.8 1126)"><path d="M12 7.77 Q12 -0.417 15.125 -7.199 Q18.25 -13.98 23.688 -18.23 Q18.188 -21.605 15.094 -27.792 Q12 -33.98 12 -40.911 Q12 -56.73 22.886 -67.449 Q33.773 -78.167 49.401 -78.167 Q58.375 -78.167 65.938 -74.355 Q73.5 -70.542 78.375 -63.73 Q81 -67.855 85.531 -70.292 Q90.062 -72.73 95.846 -72.73 Q105.265 -72.73 111.695 -67.825 Q118.125 -62.92 118.125 -55.692 Q118.125 -49.042 113.745 -44.48 Q109.364 -39.917 103.125 -39.917 H103 V-19.355 Q103 -7.962 95.05 -0.096 Q87.1 7.77 75.688 7.77 H12 Z M39.181 -25.792 Q45.12 -25.792 49.341 -29.587 Q53.562 -33.382 53.562 -38.917 Q53.562 -41.292 52.38 -42.886 Q51.197 -44.48 49.375 -44.48 Q47.596 -44.48 46.455 -42.954 Q45.312 -41.427 45.312 -39.355 H32.812 Q32.812 -46.667 37.72 -51.886 Q42.629 -57.105 49.529 -57.105 Q56.438 -57.105 61.312 -51.792 Q66.188 -46.48 66.188 -39.167 Q66.188 -35.292 65.062 -31.949 Q63.938 -28.605 61.875 -25.792 H66.304 Q69.625 -25.792 71.812 -27.824 Q74 -29.855 74 -32.667 V-40.232 Q74 -50.835 66.815 -58.189 Q59.631 -65.542 49.438 -65.542 Q39.072 -65.542 31.849 -58.511 Q24.625 -51.48 24.625 -40.917 Q24.625 -34.98 28.875 -30.386 Q33.125 -25.792 39.181 -25.792 Z M28.062 -4.855 H76.054 Q81.979 -4.855 86.177 -9.064 Q90.375 -13.274 90.375 -19.38 V-39.48 Q90.375 -44.855 93.531 -48.699 Q96.688 -52.542 101.312 -52.542 H102.125 Q103.375 -52.542 104.438 -53.434 Q105.5 -54.324 105.5 -55.657 Q105.5 -56.705 104.804 -57.467 Q104.108 -58.23 103.062 -58.667 Q101.125 -59.417 99.344 -59.761 Q97.562 -60.105 95.85 -60.105 Q91.996 -60.105 89.311 -57.355 Q86.625 -54.605 86.625 -50.667 V-32.667 Q86.625 -24.605 80.676 -18.886 Q74.728 -13.167 66.312 -13.167 H44.315 Q39.062 -13.167 34.656 -10.886 Q30.25 -8.605 28.062 -4.855 Z"/></g><g id="Semibold-M" transform="matrix(1 0 0 1 1985.97 1126)"><path d="M13.848 5.923 Q13.848 -1.667 16.973 -8.122 Q20.098 -14.577 25.535 -18.774 Q20.09 -22.149 16.969 -28.146 Q13.848 -34.142 13.848 -40.802 Q13.848 -55.86 24.311 -66.09 Q34.775 -76.32 49.797 -76.32 Q58.429 -76.32 65.856 -72.535 Q73.282 -68.749 78.157 -62.045 Q80.782 -66.225 85.177 -68.689 Q89.574 -71.154 94.978 -71.154 Q103.581 -71.154 109.766 -66.656 Q115.951 -62.16 115.951 -55.095 Q115.951 -48.88 111.778 -44.589 Q107.603 -40.297 101.657 -40.297 H101.153 V-19.899 Q101.153 -9.054 93.582 -1.566 Q86.014 5.923 75.199 5.923 H13.848 Z M39.767 -25.575 Q45.801 -25.575 50.09 -29.777 Q54.377 -33.98 54.377 -39.406 Q54.377 -42.054 53.086 -43.402 Q51.796 -44.751 49.972 -44.751 Q47.869 -44.751 46.564 -43.28 Q45.259 -41.807 45.259 -39.735 H34.116 Q34.116 -46.45 38.726 -51.207 Q43.335 -55.964 49.909 -55.964 Q56.384 -55.964 60.986 -51.222 Q65.59 -46.48 65.59 -39.547 Q65.59 -35.781 64.329 -32.166 Q63.068 -28.551 60.843 -25.575 H66.793 Q70.06 -25.575 72.248 -27.661 Q74.435 -29.746 74.435 -32.721 V-40.15 Q74.435 -50.564 67.234 -57.835 Q60.034 -65.107 49.818 -65.107 Q39.476 -65.107 32.267 -58.157 Q25.06 -51.209 25.06 -40.809 Q25.06 -34.762 29.337 -30.169 Q33.614 -25.575 39.767 -25.575 Z M28.062 -5.29 H75.403 Q81.418 -5.29 85.679 -9.53 Q89.94 -13.771 89.94 -19.922 V-39.969 Q89.94 -44.801 92.77 -48.155 Q95.6 -51.51 100.009 -51.51 H101.093 Q102.56 -51.51 103.65 -52.53 Q104.739 -53.549 104.739 -55.074 Q104.739 -56.271 103.951 -57.141 Q103.164 -58.012 101.975 -58.505 Q100.146 -59.2 98.42 -59.571 Q96.692 -59.942 94.964 -59.942 Q91.073 -59.942 88.36 -57.11 Q85.646 -54.279 85.646 -50.287 V-32.721 Q85.646 -25.094 80.127 -19.729 Q74.609 -14.362 66.801 -14.362 H44.804 Q39.498 -14.362 34.983 -11.865 Q30.468 -9.366 28.062 -5.29 Z"/></g><g id="Medium-M" transform="matrix(1 0 0 1 1689.91 1126)"><path d="M15.234 4.536 Q15.234 -2.605 18.359 -8.815 Q21.484 -15.026 26.921 -19.181 Q21.516 -22.556 18.375 -28.411 Q15.234 -34.265 15.234 -40.721 Q15.234 -55.209 25.381 -65.071 Q35.528 -74.934 50.095 -74.934 Q58.47 -74.934 65.795 -71.169 Q73.12 -67.404 77.995 -60.781 Q80.62 -65.001 84.912 -67.486 Q89.206 -69.971 94.325 -69.971 Q102.317 -69.971 108.319 -65.78 Q114.321 -61.589 114.321 -54.646 Q114.321 -48.757 110.301 -44.67 Q106.281 -40.584 100.558 -40.584 H99.766 V-20.306 Q99.766 -9.872 92.483 -2.667 Q85.199 4.536 74.831 4.536 H15.234 Z M40.208 -25.412 Q46.312 -25.412 50.651 -29.92 Q54.989 -34.429 54.989 -39.774 Q54.989 -42.624 53.616 -43.79 Q52.244 -44.955 50.421 -44.955 Q48.072 -44.955 46.645 -43.524 Q45.218 -42.092 45.218 -40.021 H35.095 Q35.095 -46.287 39.48 -50.697 Q43.865 -55.107 50.195 -55.107 Q56.343 -55.107 60.741 -50.794 Q65.141 -46.48 65.141 -39.834 Q65.141 -36.149 63.779 -32.329 Q62.416 -28.51 60.068 -25.412 H67.159 Q70.386 -25.412 72.574 -27.539 Q74.761 -29.665 74.761 -32.762 V-40.087 Q74.761 -50.36 67.549 -57.57 Q60.336 -64.781 50.104 -64.781 Q39.779 -64.781 32.583 -57.892 Q25.386 -51.005 25.386 -40.727 Q25.386 -34.6 29.684 -30.006 Q33.981 -25.412 40.208 -25.412 Z M28.062 -5.616 H74.912 Q80.996 -5.616 85.305 -9.88 Q89.614 -14.144 89.614 -20.33 V-40.336 Q89.614 -44.76 92.2 -47.747 Q94.785 -50.735 99.03 -50.735 H100.317 Q101.949 -50.735 103.059 -51.852 Q104.169 -52.969 104.169 -54.635 Q104.169 -55.945 103.312 -56.897 Q102.456 -57.85 101.16 -58.382 Q99.412 -59.037 97.728 -59.429 Q96.041 -59.82 94.3 -59.82 Q90.379 -59.82 87.646 -56.927 Q84.912 -54.034 84.912 -50.001 V-32.762 Q84.912 -25.461 79.716 -20.36 Q74.52 -15.26 67.169 -15.26 H45.171 Q39.824 -15.26 35.227 -12.599 Q30.63 -9.936 28.062 -5.616 Z"/></g><g id="Regular-M" transform="matrix(1 0 0 1 1394.06 1126)"><path d="M16.25 3.52 Q16.25 -3.292 19.375 -9.324 Q22.5 -15.355 27.938 -19.48 Q22.562 -22.855 19.406 -28.605 Q16.25 -34.355 16.25 -40.661 Q16.25 -54.73 26.165 -64.324 Q36.079 -73.917 50.312 -73.917 Q58.5 -73.917 65.75 -70.167 Q73 -66.417 77.875 -59.855 Q80.5 -64.105 84.719 -66.605 Q88.938 -69.105 93.846 -69.105 Q101.39 -69.105 107.257 -65.137 Q113.125 -61.17 113.125 -54.317 Q113.125 -48.667 109.219 -44.73 Q105.312 -40.792 99.75 -40.792 H98.75 V-20.605 Q98.75 -10.472 91.675 -3.476 Q84.6 3.52 74.562 3.52 H16.25 Z M40.53 -25.292 Q46.688 -25.292 51.062 -30.025 Q55.438 -34.757 55.438 -40.042 Q55.438 -43.042 54.005 -44.074 Q52.572 -45.105 50.75 -45.105 Q48.221 -45.105 46.705 -43.704 Q45.188 -42.302 45.188 -40.23 H35.812 Q35.812 -46.167 40.032 -50.324 Q44.254 -54.48 50.404 -54.48 Q56.312 -54.48 60.562 -50.48 Q64.812 -46.48 64.812 -40.042 Q64.812 -36.417 63.375 -32.449 Q61.938 -28.48 59.5 -25.292 H67.429 Q70.625 -25.292 72.812 -27.449 Q75 -29.605 75 -32.792 V-40.042 Q75 -50.21 67.779 -57.376 Q60.557 -64.542 50.312 -64.542 Q40 -64.542 32.812 -57.699 Q25.625 -50.855 25.625 -40.667 Q25.625 -34.48 29.938 -29.886 Q34.25 -25.292 40.53 -25.292 Z M28.062 -5.855 H74.554 Q80.688 -5.855 85.031 -10.136 Q89.375 -14.417 89.375 -20.63 V-40.605 Q89.375 -44.73 91.781 -47.449 Q94.188 -50.167 98.312 -50.167 H99.75 Q101.5 -50.167 102.625 -51.355 Q103.75 -52.542 103.75 -54.314 Q103.75 -55.705 102.844 -56.717 Q101.938 -57.73 100.562 -58.292 Q98.875 -58.917 97.219 -59.324 Q95.562 -59.73 93.812 -59.73 Q89.87 -59.73 87.123 -56.792 Q84.375 -53.855 84.375 -49.792 V-32.792 Q84.375 -25.73 79.415 -20.824 Q74.455 -15.917 67.438 -15.917 H45.44 Q40.062 -15.917 35.406 -13.136 Q30.75 -10.355 28.062 -5.855 Z"/></g><g id="Light-M" transform="matrix(1 0 0 1 1098.18 1126)"><path d="M18.51 1.309 Q18.51 -5.36 21.948 -10.982 Q25.385 -16.605 31.039 -20.105 Q25.302 -22.879 21.906 -28.581 Q18.51 -34.282 18.51 -40.867 Q18.51 -53.912 27.855 -62.797 Q37.201 -71.681 50.697 -71.681 Q59.125 -71.681 66.339 -67.696 Q73.552 -63.711 77.828 -56.826 Q79.779 -61.46 83.961 -64.212 Q88.144 -66.965 93.221 -66.965 Q100.11 -66.965 105.547 -63.454 Q110.985 -59.941 110.985 -53.716 Q110.985 -48.654 107.476 -45.156 Q103.966 -41.657 99.005 -41.657 H96.922 V-21.014 Q96.922 -11.639 90.311 -5.165 Q83.699 1.309 74.37 1.309 H18.51 Z M41.155 -24.524 Q47.678 -24.524 52.29 -29.055 Q56.904 -33.586 56.904 -39.321 Q56.904 -42.836 55.12 -44.655 Q53.337 -46.475 50.756 -46.475 Q48.101 -46.475 46.344 -44.935 Q44.586 -43.396 44.586 -41.095 H37.591 Q37.591 -46.227 41.391 -49.849 Q45.191 -53.47 50.608 -53.47 Q56.215 -53.47 60.057 -49.444 Q63.899 -45.417 63.899 -39.321 Q63.899 -35.264 62.161 -31.342 Q60.422 -27.422 57.48 -24.524 H67.394 Q70.938 -24.524 73.377 -26.932 Q75.817 -29.34 75.817 -32.839 V-39.899 Q75.817 -50.17 68.454 -57.429 Q61.09 -64.686 50.675 -64.686 Q40.144 -64.686 32.825 -57.831 Q25.505 -50.976 25.505 -40.884 Q25.505 -34.264 30.025 -29.394 Q34.545 -24.524 41.155 -24.524 Z M27.125 -5.686 H74.362 Q80.76 -5.686 85.344 -10.136 Q89.927 -14.586 89.927 -21.037 V-41.061 Q89.927 -44.324 91.901 -46.489 Q93.875 -48.652 97.139 -48.652 H98.944 Q101.067 -48.652 102.529 -50.11 Q103.99 -51.567 103.99 -53.729 Q103.99 -55.426 102.868 -56.65 Q101.745 -57.874 100.106 -58.581 Q98.346 -59.254 96.65 -59.612 Q94.954 -59.97 93.211 -59.97 Q88.868 -59.97 85.84 -56.84 Q82.812 -53.711 82.812 -49.311 V-32.84 Q82.812 -26.415 78.295 -21.971 Q73.778 -17.529 67.409 -17.529 H45.945 Q39.85 -17.529 34.663 -14.302 Q29.476 -11.076 27.125 -5.686 Z"/></g><g id="Thin-M" transform="matrix(1 0 0 1 802.565 1126)"><path d="M20.769 -0.902 Q20.769 -7.427 24.519 -12.641 Q28.269 -17.855 34.14 -20.73 Q28.044 -22.902 24.406 -28.557 Q20.769 -34.211 20.769 -41.072 Q20.769 -53.095 29.546 -61.271 Q38.322 -69.446 51.081 -69.446 Q59.75 -69.446 66.927 -65.225 Q74.105 -61.005 77.779 -53.797 Q79.058 -58.816 83.204 -61.821 Q87.351 -64.826 92.596 -64.826 Q98.83 -64.826 103.838 -61.769 Q108.846 -58.711 108.846 -53.116 Q108.846 -48.641 105.734 -45.582 Q102.621 -42.524 98.26 -42.524 H95.096 V-21.422 Q95.096 -12.804 88.946 -6.854 Q82.797 -0.902 74.177 -0.902 H20.769 Z M41.781 -23.754 Q48.666 -23.754 53.519 -28.085 Q58.37 -32.415 58.37 -38.6 Q58.37 -42.629 56.235 -45.237 Q54.101 -47.845 50.764 -47.845 Q47.981 -47.845 45.984 -46.167 Q43.985 -44.489 43.985 -41.961 H39.37 Q39.37 -46.287 42.75 -49.374 Q46.129 -52.461 50.812 -52.461 Q56.117 -52.461 59.551 -48.407 Q62.985 -44.355 62.985 -38.6 Q62.985 -34.11 60.947 -30.237 Q58.909 -26.365 55.461 -23.754 H67.36 Q71.25 -23.754 73.942 -26.415 Q76.635 -29.076 76.635 -32.884 V-39.754 Q76.635 -50.129 69.127 -57.48 Q61.621 -64.831 51.039 -64.831 Q40.289 -64.831 32.836 -57.964 Q25.385 -51.096 25.385 -41.1 Q25.385 -34.047 30.111 -28.901 Q34.839 -23.754 41.781 -23.754 Z M26.188 -5.519 H74.17 Q80.831 -5.519 85.656 -10.136 Q90.481 -14.754 90.481 -21.446 V-41.519 Q90.481 -43.919 92.021 -45.529 Q93.562 -47.139 95.966 -47.139 H98.136 Q100.635 -47.139 102.433 -48.866 Q104.231 -50.594 104.231 -53.144 Q104.231 -55.147 102.891 -56.582 Q101.552 -58.019 99.649 -58.87 Q97.817 -59.59 96.081 -59.901 Q94.345 -60.211 92.61 -60.211 Q87.865 -60.211 84.558 -56.889 Q81.25 -53.566 81.25 -48.831 V-32.889 Q81.25 -27.1 77.175 -23.12 Q73.1 -19.139 67.379 -19.139 H46.449 Q39.638 -19.139 33.92 -15.467 Q28.203 -11.797 26.188 -5.519 Z"/></g><g id="Ultralight-M" transform="matrix(1 0 0 1 506.415 1126)"><path d="M22.125 -2.23 Q22.125 -8.667 26.062 -13.636 Q30 -18.605 36 -21.105 Q29.688 -22.917 25.906 -28.542 Q22.125 -34.167 22.125 -41.196 Q22.125 -52.605 30.56 -60.355 Q38.995 -68.105 51.312 -68.105 Q60.125 -68.105 67.281 -63.742 Q74.438 -59.38 77.75 -51.98 Q78.625 -57.23 82.75 -60.386 Q86.875 -63.542 92.221 -63.542 Q98.061 -63.542 102.812 -60.759 Q107.562 -57.974 107.562 -52.755 Q107.562 -48.634 104.688 -45.837 Q101.812 -43.042 97.812 -43.042 H94 V-21.667 Q94 -13.504 88.127 -7.867 Q82.256 -2.23 74.062 -2.23 H22.125 Z M42.156 -23.292 Q49.26 -23.292 54.255 -27.502 Q59.25 -31.712 59.25 -38.167 Q59.25 -42.505 56.905 -45.586 Q54.56 -48.667 50.767 -48.667 Q47.909 -48.667 45.767 -46.906 Q43.625 -45.146 43.625 -42.48 H40.438 Q40.438 -46.324 43.564 -49.09 Q46.691 -51.855 50.935 -51.855 Q56.059 -51.855 59.249 -47.786 Q62.438 -43.717 62.438 -38.167 Q62.438 -33.417 60.219 -29.574 Q58 -25.73 54.25 -23.292 H67.339 Q71.438 -23.292 74.281 -26.105 Q77.125 -28.917 77.125 -32.911 V-39.667 Q77.125 -50.105 69.532 -57.511 Q61.94 -64.917 51.256 -64.917 Q40.375 -64.917 32.844 -58.044 Q25.312 -51.169 25.312 -41.23 Q25.312 -33.917 30.164 -28.605 Q35.016 -23.292 42.156 -23.292 Z M25.625 -5.417 H74.055 Q80.875 -5.417 85.844 -10.136 Q90.812 -14.855 90.812 -21.692 V-41.792 Q90.812 -43.675 92.094 -44.952 Q93.375 -46.23 95.261 -46.23 H97.653 Q100.375 -46.23 102.375 -48.119 Q104.375 -50.009 104.375 -52.792 Q104.375 -54.98 102.906 -56.542 Q101.438 -58.105 99.375 -59.042 Q97.5 -59.792 95.74 -60.074 Q93.979 -60.355 92.25 -60.355 Q87.264 -60.355 83.787 -56.917 Q80.312 -53.48 80.312 -48.542 V-32.917 Q80.312 -27.511 76.504 -23.809 Q72.694 -20.105 67.361 -20.105 H46.752 Q39.511 -20.105 33.474 -16.167 Q27.438 -12.23 25.625 -5.417 Z"/></g><g id="Bold-S" transform="matrix(1 0 0 1 2294.23 696)"><path d="M11.736 -4.459 Q11.736 -10.623 14.202 -15.53 Q16.668 -20.436 20.859 -23.691 Q16.618 -25.959 14.177 -30.595 Q11.736 -35.23 11.736 -40.502 Q11.736 -52.084 19.734 -59.905 Q27.731 -67.727 39.076 -67.727 Q46.255 -67.727 52.074 -64.571 Q57.893 -61.415 61.246 -55.744 Q63.12 -58.111 66.103 -59.492 Q69.087 -60.872 72.861 -60.872 Q79.997 -60.872 84.971 -57.298 Q89.946 -53.724 89.946 -48.318 Q89.946 -43.465 86.807 -40.211 Q83.668 -36.956 79.196 -36.956 H78.012 V-23.888 Q78.012 -15.787 72.317 -10.123 Q66.621 -4.459 58.435 -4.459 H11.736 Z M31.727 -29.362 Q36.093 -29.362 39.177 -32.118 Q42.261 -34.875 42.261 -38.978 Q42.261 -40.704 41.386 -41.863 Q40.511 -43.021 39.147 -43.021 Q37.849 -43.021 36.998 -41.866 Q36.146 -40.712 36.146 -39.274 H27.073 Q27.073 -44.591 30.681 -48.392 Q34.29 -52.193 39.349 -52.193 Q44.431 -52.193 47.932 -48.347 Q51.433 -44.501 51.433 -39.126 Q51.433 -36.038 50.447 -33.366 Q49.46 -30.693 47.735 -28.573 H51.722 Q54.096 -28.573 55.649 -30.028 Q57.203 -31.482 57.203 -33.307 V-39.966 Q57.203 -47.758 51.977 -53.157 Q46.753 -58.555 39.25 -58.555 Q31.617 -58.555 26.312 -53.421 Q21.007 -48.287 21.007 -40.54 Q21.007 -36.216 24.14 -32.789 Q27.274 -29.362 31.727 -29.362 Z M23.522 -13.631 H58.823 Q63.005 -13.631 65.972 -16.508 Q68.939 -19.386 68.939 -23.908 V-36.611 Q68.939 -40.556 71.972 -43.293 Q75.004 -46.029 78.653 -46.029 H78.012 Q78.9 -46.029 79.837 -46.683 Q80.774 -47.336 80.774 -48.191 Q80.774 -49.058 80.274 -49.689 Q79.774 -50.32 78.949 -50.468 Q77.322 -50.961 75.818 -51.281 Q74.314 -51.602 72.864 -51.602 Q70.113 -51.602 68.194 -49.664 Q66.276 -47.726 66.276 -44.945 V-33.307 Q66.276 -27.636 62.026 -23.321 Q57.776 -19.006 51.63 -19.006 H34.965 Q31.313 -19.006 28.133 -17.551 Q24.952 -16.097 23.522 -13.631 Z"/></g><g id="Semibold-S" transform="matrix(1 0 0 1 1998.1 696)"><path d="M13.194 -5.917 Q13.194 -11.609 15.66 -16.258 Q18.125 -20.908 22.317 -24.12 Q18.119 -26.388 15.657 -30.874 Q13.194 -35.358 13.194 -40.416 Q13.194 -51.398 20.858 -58.833 Q28.522 -66.269 39.389 -66.269 Q46.298 -66.269 52.01 -63.135 Q57.721 -60 61.075 -54.415 Q62.948 -56.825 65.824 -58.226 Q68.701 -59.629 72.176 -59.629 Q78.668 -59.629 83.45 -56.376 Q88.231 -53.125 88.231 -47.846 Q88.231 -43.337 85.254 -40.296 Q82.278 -37.256 78.038 -37.256 H76.555 V-24.317 Q76.555 -16.648 71.159 -11.283 Q65.764 -5.917 58.05 -5.917 H13.194 Z M32.189 -29.19 Q36.63 -29.19 39.768 -32.268 Q42.904 -35.347 42.904 -39.363 Q42.904 -41.304 41.943 -42.27 Q40.983 -43.235 39.619 -43.235 Q38.064 -43.235 37.084 -42.124 Q36.104 -41.011 36.104 -39.573 H28.101 Q28.101 -44.42 31.474 -47.856 Q34.847 -51.293 39.649 -51.293 Q44.388 -51.293 47.674 -47.897 Q50.962 -44.501 50.962 -39.426 Q50.962 -36.423 49.868 -33.537 Q48.774 -30.651 46.92 -28.401 H52.108 Q54.439 -28.401 55.992 -29.899 Q57.546 -31.396 57.546 -33.349 V-39.901 Q57.546 -47.544 52.308 -52.878 Q47.071 -58.212 39.55 -58.212 Q31.936 -58.212 26.643 -53.142 Q21.35 -48.073 21.35 -40.454 Q21.35 -36.045 24.504 -32.617 Q27.659 -29.19 32.189 -29.19 Z M23.522 -13.974 H58.309 Q62.562 -13.974 65.579 -16.876 Q68.596 -19.778 68.596 -24.336 V-36.996 Q68.596 -40.513 71.371 -42.864 Q74.146 -45.215 77.625 -45.215 H77.198 Q78.257 -45.215 79.216 -45.97 Q80.173 -46.725 80.173 -47.731 Q80.173 -48.715 79.601 -49.432 Q79.029 -50.148 78.091 -50.339 Q76.55 -50.789 75.089 -51.131 Q73.628 -51.474 72.165 -51.474 Q69.383 -51.474 67.444 -49.47 Q65.504 -47.468 65.504 -44.645 V-33.349 Q65.504 -28.021 61.593 -23.986 Q57.683 -19.949 52.016 -19.949 H35.35 Q31.657 -19.949 28.39 -18.324 Q25.124 -16.697 23.522 -13.974 Z"/></g><g id="Medium-S" transform="matrix(1 0 0 1 1701.85 696)"><path d="M14.288 -7.01 Q14.288 -12.349 16.753 -16.805 Q19.219 -21.262 23.411 -24.441 Q19.245 -26.71 16.766 -31.083 Q14.288 -35.455 14.288 -40.352 Q14.288 -50.883 21.702 -58.029 Q29.116 -65.176 39.624 -65.176 Q46.33 -65.176 51.962 -62.057 Q57.593 -58.938 60.946 -53.417 Q62.82 -55.859 65.615 -57.278 Q68.411 -58.696 71.661 -58.696 Q77.671 -58.696 82.307 -55.685 Q86.945 -52.674 86.945 -47.492 Q86.945 -43.24 84.09 -40.36 Q81.235 -37.482 77.17 -37.482 H75.461 V-24.639 Q75.461 -17.294 70.291 -12.152 Q65.121 -7.01 57.76 -7.01 H14.288 Z M32.536 -29.062 Q37.034 -29.062 40.21 -32.382 Q43.386 -35.7 43.386 -39.653 Q43.386 -41.754 42.361 -42.576 Q41.337 -43.396 39.973 -43.396 Q38.225 -43.396 37.148 -42.316 Q36.071 -41.236 36.071 -39.799 H28.873 Q28.873 -44.291 32.069 -47.455 Q35.265 -50.617 39.874 -50.617 Q44.356 -50.617 47.481 -47.559 Q50.607 -44.501 50.607 -39.651 Q50.607 -36.713 49.434 -33.666 Q48.26 -30.618 46.308 -28.273 H52.397 Q54.696 -28.273 56.25 -29.803 Q57.803 -31.332 57.803 -33.382 V-39.852 Q57.803 -47.384 52.556 -52.669 Q47.309 -57.954 39.774 -57.954 Q32.174 -57.954 26.891 -52.933 Q21.608 -47.912 21.608 -40.39 Q21.608 -35.916 24.778 -32.489 Q27.948 -29.062 32.536 -29.062 Z M23.522 -14.232 H57.922 Q62.229 -14.232 65.284 -17.152 Q68.338 -20.072 68.338 -24.657 V-37.286 Q68.338 -40.481 70.921 -42.542 Q73.503 -44.603 76.853 -44.603 H76.586 Q77.775 -44.603 78.749 -45.436 Q79.724 -46.267 79.724 -47.385 Q79.724 -48.459 79.097 -49.239 Q78.471 -50.02 77.448 -50.243 Q75.971 -50.661 74.543 -51.019 Q73.114 -51.377 71.641 -51.377 Q68.835 -51.377 66.881 -49.326 Q64.925 -47.275 64.925 -44.419 V-33.382 Q64.925 -28.311 61.269 -24.484 Q57.613 -20.657 52.306 -20.657 H35.64 Q31.914 -20.657 28.583 -18.903 Q25.252 -17.147 23.522 -14.232 Z"/></g><g id="Regular-S" transform="matrix(1 0 0 1 1405.73 696)"><path d="M15.09 -7.812 Q15.09 -12.891 17.555 -17.206 Q20.021 -21.521 24.212 -24.677 Q20.07 -26.945 17.58 -31.236 Q15.09 -35.526 15.09 -40.304 Q15.09 -50.506 22.321 -57.439 Q29.551 -64.374 39.795 -64.374 Q46.354 -64.374 51.926 -61.267 Q57.498 -58.16 60.852 -52.687 Q62.726 -55.152 65.462 -56.582 Q68.199 -58.012 71.283 -58.012 Q76.939 -58.012 81.47 -55.178 Q86.001 -52.343 86.001 -47.233 Q86.001 -43.169 83.236 -40.408 Q80.471 -37.646 76.533 -37.646 H74.659 V-24.874 Q74.659 -17.767 69.654 -12.79 Q64.649 -7.812 57.548 -7.812 H15.09 Z M32.791 -28.967 Q37.33 -28.967 40.535 -32.464 Q43.74 -35.96 43.74 -39.865 Q43.74 -42.084 42.668 -42.799 Q41.596 -43.514 40.232 -43.514 Q38.342 -43.514 37.195 -42.458 Q36.047 -41.402 36.047 -39.964 H29.44 Q29.44 -44.197 32.506 -47.16 Q35.572 -50.122 40.04 -50.122 Q44.332 -50.122 47.34 -47.312 Q50.348 -44.501 50.348 -39.816 Q50.348 -36.925 49.115 -33.76 Q47.882 -30.595 45.861 -28.178 H52.61 Q54.885 -28.178 56.438 -29.732 Q57.992 -31.285 57.992 -33.405 V-39.816 Q57.992 -47.265 52.738 -52.516 Q47.484 -57.766 39.94 -57.766 Q32.349 -57.766 27.073 -52.78 Q21.796 -47.794 21.796 -40.343 Q21.796 -35.822 24.979 -32.395 Q28.161 -28.967 32.791 -28.967 Z M23.522 -14.42 H57.639 Q61.986 -14.42 65.068 -17.354 Q68.15 -20.288 68.15 -24.894 V-37.498 Q68.15 -40.457 70.591 -42.306 Q73.032 -44.156 76.286 -44.156 H76.139 Q77.421 -44.156 78.407 -45.043 Q79.393 -45.931 79.393 -47.131 Q79.393 -48.269 78.727 -49.098 Q78.062 -49.925 76.977 -50.172 Q75.547 -50.566 74.141 -50.936 Q72.736 -51.306 71.257 -51.306 Q68.435 -51.306 66.467 -49.22 Q64.501 -47.134 64.501 -44.254 V-33.405 Q64.501 -28.523 61.031 -24.85 Q57.561 -21.176 52.518 -21.176 H35.852 Q32.102 -21.176 28.725 -19.327 Q25.347 -17.477 23.522 -14.42 Z"/></g><g id="Light-S" transform="matrix(1 0 0 1 1109.75 696)"><path d="M16.873 -9.557 Q16.873 -14.523 19.585 -18.515 Q22.297 -22.507 26.659 -25.17 Q22.232 -26.964 19.552 -31.217 Q16.873 -35.469 16.873 -40.467 Q16.873 -49.861 23.654 -56.235 Q30.437 -62.609 40.099 -62.609 Q46.847 -62.609 52.391 -59.317 Q57.934 -56.025 60.814 -50.297 Q62.156 -53.065 64.865 -54.695 Q67.573 -56.324 70.79 -56.324 Q75.929 -56.324 80.121 -53.849 Q84.313 -51.374 84.313 -46.758 Q84.313 -43.158 81.861 -40.744 Q79.409 -38.329 75.945 -38.329 H73.217 V-25.197 Q73.217 -18.688 68.578 -14.122 Q63.938 -9.557 57.396 -9.557 H16.873 Z M33.284 -28.361 Q38.111 -28.361 41.503 -31.698 Q44.897 -35.036 44.897 -39.296 Q44.897 -41.922 43.548 -43.258 Q42.2 -44.595 40.237 -44.595 Q38.248 -44.595 36.91 -43.43 Q35.573 -42.265 35.573 -40.646 H30.843 Q30.843 -44.244 33.577 -46.785 Q36.312 -49.325 40.201 -49.325 Q44.255 -49.325 46.942 -46.494 Q49.627 -43.662 49.627 -39.247 Q49.627 -36.015 48.158 -32.888 Q46.687 -29.76 44.267 -27.572 H52.582 Q55.131 -27.572 56.884 -29.324 Q58.637 -31.076 58.637 -33.442 V-39.703 Q58.637 -47.234 53.27 -52.556 Q47.904 -57.879 40.226 -57.879 Q32.462 -57.879 27.082 -52.884 Q21.701 -47.89 21.701 -40.513 Q21.701 -35.651 25.047 -32.006 Q28.393 -28.361 33.284 -28.361 Z M22.782 -14.287 H57.489 Q62.043 -14.287 65.314 -17.354 Q68.586 -20.421 68.586 -25.216 V-37.858 Q68.586 -40.137 70.686 -41.549 Q72.785 -42.96 75.36 -42.96 H75.502 Q77.079 -42.96 78.331 -44.061 Q79.582 -45.162 79.582 -46.67 Q79.582 -48.049 78.746 -49.044 Q77.91 -50.039 76.617 -50.4 Q75.13 -50.831 73.693 -51.164 Q72.256 -51.495 70.782 -51.495 Q67.643 -51.495 65.455 -49.257 Q63.268 -47.021 63.268 -43.874 V-33.443 Q63.268 -29.064 60.147 -25.755 Q57.027 -22.447 52.495 -22.447 H36.251 Q31.935 -22.447 28.138 -20.247 Q24.342 -18.047 22.782 -14.287 Z"/></g><g id="Thin-S" transform="matrix(1 0 0 1 814.015 696)"><path d="M18.655 -11.302 Q18.655 -16.154 21.614 -19.824 Q24.572 -23.494 29.106 -25.663 Q24.395 -26.983 21.525 -31.198 Q18.655 -35.412 18.655 -40.629 Q18.655 -49.216 24.989 -55.031 Q31.321 -60.846 40.402 -60.846 Q47.34 -60.846 52.855 -57.367 Q58.37 -53.89 60.776 -47.907 Q61.587 -50.979 64.267 -52.808 Q66.948 -54.636 70.297 -54.636 Q74.919 -54.636 78.772 -52.52 Q82.625 -50.403 82.625 -46.285 Q82.625 -43.149 80.486 -41.08 Q78.347 -39.012 75.357 -39.012 H71.776 V-25.519 Q71.776 -19.607 67.501 -15.455 Q63.227 -11.302 57.244 -11.302 H18.655 Z M33.777 -27.753 Q38.891 -27.753 42.473 -30.933 Q46.054 -34.113 46.054 -38.727 Q46.054 -41.758 44.428 -43.718 Q42.802 -45.676 40.243 -45.676 Q38.153 -45.676 36.626 -44.402 Q35.099 -43.127 35.099 -41.33 H32.246 Q32.246 -44.292 34.649 -46.41 Q37.051 -48.53 40.362 -48.53 Q44.178 -48.53 46.542 -45.676 Q48.906 -42.824 48.906 -38.678 Q48.906 -35.105 47.2 -32.015 Q45.493 -28.926 42.674 -26.964 H52.555 Q55.378 -26.964 57.33 -28.916 Q59.282 -30.868 59.282 -33.477 V-39.588 Q59.282 -47.201 53.802 -52.598 Q48.323 -57.994 40.512 -57.994 Q32.577 -57.994 27.091 -52.988 Q21.607 -47.984 21.607 -40.684 Q21.607 -35.481 25.116 -31.617 Q28.626 -27.753 33.777 -27.753 Z M22.043 -14.155 H57.337 Q62.099 -14.155 65.561 -17.354 Q69.023 -20.554 69.023 -25.538 V-38.219 Q69.023 -39.817 70.78 -40.791 Q72.539 -41.766 74.435 -41.766 H74.865 Q76.738 -41.766 78.255 -43.08 Q79.773 -44.393 79.773 -46.208 Q79.773 -47.829 78.765 -48.991 Q77.758 -50.153 76.256 -50.627 Q74.712 -51.097 73.244 -51.392 Q71.775 -51.686 70.308 -51.686 Q66.852 -51.686 64.444 -49.296 Q62.035 -46.906 62.035 -43.496 V-33.481 Q62.035 -29.604 59.264 -26.661 Q56.492 -23.718 52.471 -23.718 H36.648 Q31.767 -23.718 27.552 -21.166 Q23.337 -18.616 22.043 -14.155 Z"/></g><g id="Ultralight-S" transform="matrix(1 0 0 1 517.792 696)"><path d="M19.725 -12.349 Q19.725 -17.132 22.832 -20.609 Q25.938 -24.085 30.574 -25.959 Q25.692 -26.995 22.708 -31.186 Q19.725 -35.378 19.725 -40.726 Q19.725 -48.829 25.788 -54.308 Q31.852 -59.788 40.584 -59.788 Q47.636 -59.788 53.134 -56.198 Q58.633 -52.608 60.753 -46.473 Q61.246 -49.728 63.909 -51.676 Q66.572 -53.624 70.001 -53.624 Q74.313 -53.624 77.963 -51.723 Q81.612 -49.822 81.612 -46 Q81.612 -43.143 79.66 -41.282 Q77.71 -39.422 75.004 -39.422 H70.911 V-25.713 Q70.911 -20.159 66.855 -16.255 Q62.799 -12.349 57.153 -12.349 H19.725 Z M34.073 -27.389 Q39.359 -27.389 43.054 -30.473 Q46.748 -33.558 46.748 -38.386 Q46.748 -41.66 44.956 -43.993 Q43.163 -46.325 40.246 -46.325 Q38.096 -46.325 36.456 -44.985 Q34.815 -43.646 34.815 -41.739 H33.089 Q33.089 -44.32 35.292 -46.185 Q37.495 -48.051 40.459 -48.051 Q44.132 -48.051 46.303 -45.186 Q48.474 -42.321 48.474 -38.337 Q48.474 -34.558 46.625 -31.492 Q44.776 -28.425 41.718 -26.6 H52.539 Q55.526 -26.6 57.597 -28.671 Q59.668 -30.743 59.668 -33.499 V-39.52 Q59.668 -47.182 54.121 -52.622 Q48.575 -58.062 40.685 -58.062 Q32.645 -58.062 27.097 -53.052 Q21.55 -48.041 21.55 -40.787 Q21.55 -35.378 25.157 -31.384 Q28.765 -27.389 34.073 -27.389 Z M21.599 -14.075 H57.246 Q62.134 -14.075 65.709 -17.354 Q69.284 -20.633 69.284 -25.732 V-38.435 Q69.284 -39.625 70.837 -40.337 Q72.391 -41.049 73.879 -41.049 H74.484 Q76.533 -41.049 78.21 -42.49 Q79.886 -43.932 79.886 -45.931 Q79.886 -47.697 78.777 -48.959 Q77.667 -50.221 76.04 -50.763 Q74.462 -51.257 72.975 -51.528 Q71.486 -51.799 70.024 -51.799 Q66.378 -51.799 63.837 -49.319 Q61.295 -46.838 61.295 -43.268 V-33.504 Q61.295 -29.929 58.734 -27.205 Q56.172 -24.48 52.458 -24.48 H36.888 Q31.668 -24.48 27.2 -21.718 Q22.733 -18.957 21.599 -14.075 Z"/></g></g></svg>