<svg xmlns="http://www.w3.org/2000/svg" version="1.1" width="3300" height="2000"><g id="Notes"><style>
    text {
      font-family: monospace;
      text-anchor: middle;
    }
    text.emphasis {
      font-weight:bold;
    }
    text.lanchor {
      text-anchor: start;
    }
  </style><rect height="2200" id="artboard" fill="white" width="3300" x="0" y="0"/><line id="" style="fill:none;stroke:black;stroke-width:0.5;" x1="263" x2="3036" y1="292" y2="292"/><text class="lanchor emphasis" transform="matrix(1 0 0 1 263 322)">Weight/Scale Variations</text><text transform="matrix(1 0 0 1 559.711 322)">Ultralight</text><text transform="matrix(1 0 0 1 856.422 322)">Thin</text><text transform="matrix(1 0 0 1 1153.13 322)">Light</text><text transform="matrix(1 0 0 1 1449.84 322)">Regular</text><text transform="matrix(1 0 0 1 1746.56 322)">Medium</text><text transform="matrix(1 0 0 1 2043.27 322)">Semibold</text><text transform="matrix(1 0 0 1 2339.98 322)">Bold</text><text transform="matrix(1 0 0 1 2636.69 322)">Heavy</text><text transform="matrix(1 0 0 1 2933.4 322)">Black</text><text id="template-version" style="text-anchor: end;" transform="matrix(1 0 0 1 3036 1933)">Template v.1.0</text><text class="lanchor" transform="matrix(1 0 0 1 263 726)">Small</text><text class="lanchor" transform="matrix(1 0 0 1 263 1156)">Medium</text><text class="lanchor" transform="matrix(1 0 0 1 263 1586)">Large</text></g><g id="Guides"><g id="H-reference" style="fill:#27AAE1;stroke:none;" transform="matrix(1 0 0 1 339 696)"><path d="M 54.9316 0 L 57.666 0 L 30.5664 -70.459 L 28.0762 -70.459 L 0.976562 0 L 3.66211 0 L 12.9395 -24.4629 L 45.7031 -24.4629 Z M 29.1992 -67.0898 L 29.4434 -67.0898 L 44.8242 -26.709 L 13.8184 -26.709 Z"/></g><line id="Baseline-S" style="fill:none;stroke:#27AAE1;opacity:1;stroke-width:0.577;" x1="263" x2="3036" y1="696" y2="696"/><line id="Capline-S" style="fill:none;stroke:#27AAE1;opacity:1;stroke-width:0.577;" x1="263" x2="3036" y1="625.541" y2="625.541"/><g id="H-reference" style="fill:#27AAE1;stroke:none;" transform="matrix(1 0 0 1 339 1126)"><path d="M 54.9316 0 L 57.666 0 L 30.5664 -70.459 L 28.0762 -70.459 L 0.976562 0 L 3.66211 0 L 12.9395 -24.4629 L 45.7031 -24.4629 Z M 29.1992 -67.0898 L 29.4434 -67.0898 L 44.8242 -26.709 L 13.8184 -26.709 Z"/></g><line id="Baseline-M" style="fill:none;stroke:#27AAE1;opacity:1;stroke-width:0.577;" x1="263" x2="3036" y1="1126" y2="1126"/><line id="Capline-M" style="fill:none;stroke:#27AAE1;opacity:1;stroke-width:0.577;" x1="263" x2="3036" y1="1055.54" y2="1055.54"/><g id="H-reference" style="fill:#27AAE1;stroke:none;" transform="matrix(1 0 0 1 339 1556)"><path d="M 54.9316 0 L 57.666 0 L 30.5664 -70.459 L 28.0762 -70.459 L 0.976562 0 L 3.66211 0 L 12.9395 -24.4629 L 45.7031 -24.4629 Z M 29.1992 -67.0898 L 29.4434 -67.0898 L 44.8242 -26.709 L 13.8184 -26.709 Z"/></g><line id="Baseline-L" style="fill:none;stroke:#27AAE1;opacity:1;stroke-width:0.577;" x1="263" x2="3036" y1="1556" y2="1556"/><line id="Capline-L" style="fill:none;stroke:#27AAE1;opacity:1;stroke-width:0.577;" x1="263" x2="3036" y1="1485.54" y2="1485.54"/><rect height="119.336" id="left-margin" style="fill:darkred;stroke:none;opacity:0.4;" width="12.4512" x="1394.06" y="1030.79"/><rect height="119.336" id="right-margin" style="fill:darkgreen;stroke:none;opacity:0.4;" width="12.4512" x="1502.5112" y="1030.79"/><rect x="1406.5112" y="1045" width="96" height="96" fill="none" stroke="blue" stroke-dasharray="5"/><rect x="1394.06" y="1030.79" width="120.9024" height="119.336" fill="none" stroke="blue"/></g><g id="Symbols"><g id="Bold-L" transform="matrix(1 0 0 1 2266 1556)"><path d="M15.319 20.401 Q15.319 10.888 19.672 2.422 Q24.026 -6.044 32.411 -12.582 Q24.249 -17.542 19.784 -25.807 Q15.319 -34.072 15.319 -43.776 Q15.319 -63.287 29.17 -77.155 Q43.022 -91.022 63.163 -91.022 Q74.82 -91.022 84.495 -85.862 Q94.17 -80.702 101.91 -70.06 Q105.296 -76.51 111.343 -80.057 Q117.39 -83.605 125.457 -83.605 Q138.03 -83.605 145.609 -77.397 Q153.188 -71.189 153.188 -62.804 Q153.188 -54.807 147.819 -49.291 Q142.451 -43.776 134.805 -43.776 H133.192 V-13.945 Q133.192 0.419 122.966 10.41 Q112.741 20.401 98.201 20.401 H15.319 Z M49.378 -20.395 Q58.124 -20.395 64.376 -25.152 Q70.627 -29.909 70.627 -38.132 Q70.627 -42.325 68.32 -46.034 Q66.014 -49.742 62.081 -49.742 Q59.501 -49.742 57.566 -47.727 Q55.631 -45.711 55.631 -42.97 H42.892 Q42.892 -51.032 48.697 -56.837 Q54.503 -62.642 62.565 -62.642 Q71.424 -62.642 77.395 -55.547 Q83.366 -48.452 83.366 -39.1 Q83.366 -33.94 81.593 -29.264 Q79.819 -24.587 76.433 -20.395 H86.108 Q90.945 -20.395 94.412 -23.723 Q97.879 -27.051 97.879 -31.602 V-42.086 Q97.879 -56.981 87.728 -67.551 Q77.579 -78.122 63.178 -78.122 Q48.469 -78.122 38.263 -68.117 Q28.058 -58.111 28.058 -43.776 Q28.058 -34.101 34.188 -27.248 Q40.321 -20.395 49.378 -20.395 Z M31.283 7.663 H98.524 Q107.688 7.663 113.991 1.496 Q120.293 -4.67 120.293 -13.945 V-43.454 Q120.293 -48.775 123.759 -52.645 Q127.226 -56.515 131.741 -56.515 H133.886 Q136.417 -56.515 138.433 -58.382 Q140.449 -60.25 140.449 -62.763 Q140.449 -64.708 139.188 -66.337 Q137.927 -67.964 135.773 -68.77 Q132.87 -69.899 130.29 -70.302 Q127.71 -70.705 125.501 -70.705 Q119.19 -70.705 114.984 -66.432 Q110.779 -62.159 110.779 -56.031 V-31.682 Q110.779 -21.524 103.498 -14.59 Q96.218 -7.656 86.108 -7.656 H55.148 Q47.122 -7.656 40.654 -3.464 Q34.185 0.729 31.283 7.663 Z"/></g><g id="Semibold-L" transform="matrix(1 0 0 1 1970.27 1556)"><path d="M17.072 18.648 Q17.072 9.696 21.461 1.511 Q25.848 -6.674 34.164 -13.105 Q26.073 -18.033 21.572 -26.119 Q17.072 -34.204 17.072 -43.636 Q17.072 -62.517 30.554 -75.859 Q44.034 -89.2 63.534 -89.2 Q74.96 -89.2 84.46 -84.074 Q93.96 -78.95 101.7 -68.447 Q105.087 -74.968 110.993 -78.516 Q116.9 -82.063 124.614 -82.063 Q136.348 -82.063 143.716 -76.241 Q151.085 -70.418 151.085 -62.243 Q151.085 -54.661 145.92 -49.394 Q140.757 -44.126 133.402 -44.126 H131.37 V-14.435 Q131.37 -0.639 121.529 9.006 Q111.69 18.648 97.711 18.648 H17.072 Z M49.923 -20.185 Q58.722 -20.185 65.061 -25.328 Q71.398 -30.47 71.398 -38.623 Q71.398 -43.096 68.973 -46.559 Q66.548 -50.023 62.642 -50.023 Q59.782 -50.023 57.671 -48.057 Q55.562 -46.092 55.562 -43.32 H44.155 Q44.155 -50.823 49.68 -56.172 Q55.204 -61.52 62.915 -61.52 Q71.358 -61.52 77.082 -54.986 Q82.805 -48.452 82.805 -39.45 Q82.805 -34.43 80.891 -29.509 Q78.977 -24.587 75.45 -20.185 H86.598 Q91.366 -20.185 94.833 -23.573 Q98.3 -26.963 98.3 -31.707 V-41.98 Q98.3 -56.77 88.13 -67.237 Q77.958 -77.702 63.529 -77.702 Q48.849 -77.702 38.663 -67.761 Q28.478 -57.82 28.478 -43.636 Q28.478 -33.892 34.645 -27.038 Q40.811 -20.185 49.923 -20.185 Z M31.283 7.242 H97.893 Q107.104 7.242 113.488 1.035 Q119.872 -5.17 119.872 -14.435 V-43.944 Q119.872 -48.706 123.024 -52.119 Q126.175 -55.533 130.479 -55.533 H132.873 Q135.576 -55.533 137.627 -57.497 Q139.678 -59.461 139.678 -62.22 Q139.678 -64.302 138.299 -66.027 Q136.921 -67.754 134.721 -68.63 Q131.888 -69.689 129.379 -70.126 Q126.868 -70.565 124.638 -70.565 Q118.348 -70.565 114.073 -66.187 Q109.797 -61.809 109.797 -55.681 V-31.752 Q109.797 -22.014 102.948 -15.396 Q96.099 -8.779 86.598 -8.779 H55.638 Q47.543 -8.779 40.933 -4.41 Q34.325 -0.042 31.283 7.242 Z"/></g><g id="Medium-L" transform="matrix(1 0 0 1 1674.31 1556)"><path d="M18.386 17.334 Q18.386 8.803 22.801 0.827 Q27.216 -7.148 35.478 -13.497 Q27.44 -18.4 22.912 -26.353 Q18.386 -34.304 18.386 -43.531 Q18.386 -61.938 31.59 -74.885 Q44.795 -87.833 63.811 -87.833 Q75.065 -87.833 84.434 -82.734 Q93.802 -77.636 101.542 -67.238 Q104.929 -73.811 110.73 -77.358 Q116.531 -80.906 123.982 -80.906 Q135.086 -80.906 142.297 -75.373 Q149.506 -69.839 149.506 -61.822 Q149.506 -54.551 144.496 -49.47 Q139.486 -44.389 132.351 -44.389 H130.003 V-14.804 Q130.003 -1.43 120.452 7.951 Q110.901 17.334 97.342 17.334 H18.386 Z M50.333 -20.027 Q59.172 -20.027 65.574 -25.458 Q71.977 -30.891 71.977 -38.992 Q71.977 -43.675 69.462 -46.954 Q66.948 -50.233 63.063 -50.233 Q59.991 -50.233 57.75 -48.306 Q55.509 -46.377 55.509 -43.583 H45.102 Q45.102 -50.665 50.415 -55.672 Q55.73 -60.68 63.178 -60.68 Q71.31 -60.68 76.847 -54.565 Q82.384 -48.452 82.384 -39.713 Q82.384 -34.799 80.365 -29.693 Q78.347 -24.587 74.715 -20.027 H86.967 Q91.682 -20.027 95.149 -23.46 Q98.616 -26.895 98.616 -31.786 V-41.899 Q98.616 -56.612 88.43 -66.999 Q78.243 -77.386 63.792 -77.386 Q49.133 -77.386 38.963 -67.493 Q28.794 -57.6 28.794 -43.531 Q28.794 -33.734 34.986 -26.88 Q41.18 -20.027 50.333 -20.027 Z M31.283 6.926 H97.419 Q106.665 6.926 113.11 0.69 Q119.556 -5.547 119.556 -14.804 V-44.313 Q119.556 -48.652 122.471 -51.724 Q125.386 -54.798 129.532 -54.798 H132.114 Q134.945 -54.798 137.022 -56.833 Q139.099 -58.869 139.099 -61.812 Q139.099 -63.995 137.632 -65.795 Q136.164 -67.596 133.933 -68.525 Q131.153 -69.531 128.695 -69.995 Q126.238 -70.46 123.992 -70.46 Q117.716 -70.46 113.389 -66.003 Q109.061 -61.546 109.061 -55.418 V-31.805 Q109.061 -22.383 102.536 -16.001 Q96.01 -9.619 86.967 -9.619 H56.007 Q47.859 -9.619 41.145 -5.12 Q34.43 -0.621 31.283 6.926 Z"/></g><g id="Regular-L" transform="matrix(1 0 0 1 1378.56 1556)"><path d="M19.35 16.37 Q19.35 8.146 23.784 0.326 Q28.219 -7.495 36.443 -13.784 Q28.441 -18.671 23.896 -26.524 Q19.35 -34.379 19.35 -43.454 Q19.35 -61.514 32.352 -74.172 Q45.352 -86.83 64.016 -86.83 Q75.142 -86.83 84.414 -81.751 Q93.686 -76.671 101.426 -66.351 Q104.812 -72.962 110.537 -76.51 Q116.261 -80.057 123.517 -80.057 Q134.16 -80.057 141.255 -74.736 Q148.35 -69.415 148.35 -61.514 Q148.35 -54.472 143.453 -49.526 Q138.556 -44.582 131.58 -44.582 H129 V-15.074 Q129 -2.012 119.66 7.179 Q110.322 16.37 97.073 16.37 H19.35 Z M50.633 -19.911 Q59.501 -19.911 65.951 -25.555 Q72.401 -31.199 72.401 -39.261 Q72.401 -44.099 69.821 -47.243 Q67.241 -50.387 63.371 -50.387 Q60.146 -50.387 57.808 -48.486 Q55.47 -46.585 55.47 -43.776 H45.795 Q45.795 -50.549 50.955 -55.306 Q56.115 -60.062 63.371 -60.062 Q71.273 -60.062 76.674 -54.257 Q82.076 -48.452 82.076 -39.906 Q82.076 -35.069 79.98 -29.828 Q77.884 -24.587 74.175 -19.911 H87.236 Q91.913 -19.911 95.379 -23.378 Q98.846 -26.845 98.846 -31.844 V-41.841 Q98.846 -56.497 88.649 -66.825 Q78.451 -77.155 63.984 -77.155 Q49.343 -77.155 39.184 -67.298 Q29.025 -57.439 29.025 -43.454 Q29.025 -33.617 35.236 -26.764 Q41.449 -19.911 50.633 -19.911 Z M31.283 6.695 H97.073 Q106.344 6.695 112.835 0.437 Q119.325 -5.823 119.325 -15.074 V-44.582 Q119.325 -48.614 122.066 -51.436 Q124.808 -54.257 128.839 -54.257 H131.556 Q134.483 -54.257 136.579 -56.346 Q138.675 -58.435 138.675 -61.514 Q138.675 -63.771 137.143 -65.626 Q135.611 -67.48 133.354 -68.447 Q130.613 -69.415 128.194 -69.899 Q125.775 -70.382 123.517 -70.382 Q117.253 -70.382 112.888 -65.867 Q108.521 -61.352 108.521 -55.225 V-31.844 Q108.521 -22.652 102.233 -16.444 Q95.944 -10.236 87.236 -10.236 H56.276 Q48.09 -10.236 41.299 -5.641 Q34.508 -1.045 31.283 6.695 Z"/></g><g id="Light-L" transform="matrix(1 0 0 1 1082.77 1556)"><path d="M22.575 13.206 Q22.575 5.045 27.288 -2.28 Q32.002 -9.604 40.225 -14.838 Q32.039 -18.857 27.308 -26.503 Q22.575 -34.148 22.575 -43.33 Q22.575 -60.169 34.832 -71.887 Q47.088 -83.605 64.698 -83.605 Q76.012 -83.605 85.284 -78.277 Q94.555 -72.95 101.117 -62.692 Q103.697 -69.489 109.297 -73.285 Q114.897 -77.081 122.153 -77.081 Q131.741 -77.081 138.433 -72.411 Q145.125 -67.74 145.125 -60.335 Q145.125 -53.99 140.692 -49.534 Q136.259 -45.079 129.968 -45.079 H126.333 V-15.943 Q126.333 -3.762 117.645 4.721 Q108.958 13.206 96.639 13.206 H22.575 Z M51.811 -19.602 Q60.933 -19.602 67.473 -25.091 Q74.014 -30.578 74.014 -38.952 Q74.014 -44.16 71.185 -47.832 Q68.357 -51.503 63.929 -51.503 Q60.519 -51.503 57.963 -49.443 Q55.409 -47.382 55.409 -44.334 H48.09 Q48.09 -50.363 52.822 -54.593 Q57.555 -58.822 64.053 -58.822 Q71.521 -58.822 76.426 -53.172 Q81.331 -47.522 81.331 -39.41 Q81.331 -34.077 78.925 -28.928 Q76.52 -23.781 72.314 -19.602 H87.112 Q92.13 -19.602 95.736 -23.193 Q99.343 -26.784 99.343 -31.968 V-41.532 Q99.343 -55.955 89.192 -66.121 Q79.042 -76.286 64.639 -76.286 Q50.149 -76.286 40.021 -66.646 Q29.894 -57.007 29.894 -43.33 Q29.894 -33.432 36.218 -26.516 Q42.543 -19.602 51.811 -19.602 Z M31.344 5.889 H96.639 Q105.885 5.889 112.449 -0.406 Q119.015 -6.702 119.015 -15.933 V-44.521 Q119.015 -47.819 121.321 -50.109 Q123.629 -52.397 126.917 -52.397 H129.901 Q133.118 -52.397 135.463 -54.691 Q137.806 -56.986 137.806 -60.366 Q137.806 -62.902 136.089 -64.881 Q134.371 -66.859 131.927 -67.89 Q129.248 -68.918 126.83 -69.341 Q124.411 -69.762 122.153 -69.762 Q115.732 -69.762 111.196 -65.216 Q106.66 -60.67 106.66 -54.295 V-31.968 Q106.66 -23.63 100.896 -17.957 Q95.133 -12.283 87.112 -12.283 H57.516 Q48.77 -12.283 41.515 -7.377 Q34.259 -2.472 31.344 5.889 Z"/></g><g id="Thin-L" transform="matrix(1 0 0 1 787.282 1556)"><path d="M25.8 10.044 Q25.8 1.945 30.792 -4.884 Q35.785 -11.712 44.008 -15.893 Q35.636 -19.042 30.718 -26.481 Q25.8 -33.919 25.8 -43.205 Q25.8 -58.824 37.313 -69.602 Q48.825 -80.38 65.38 -80.38 Q76.879 -80.38 86.151 -74.804 Q95.423 -69.23 100.805 -59.034 Q102.579 -66.016 108.057 -70.06 Q113.533 -74.104 120.789 -74.104 Q129.322 -74.104 135.611 -70.084 Q141.9 -66.066 141.9 -59.156 Q141.9 -53.508 137.933 -49.541 Q133.966 -45.574 128.355 -45.574 H123.666 V-16.81 Q123.666 -5.513 115.631 2.265 Q107.594 10.044 96.205 10.044 H25.8 Z M52.99 -19.29 Q62.365 -19.29 68.996 -24.625 Q75.626 -29.959 75.626 -38.64 Q75.626 -44.223 72.55 -48.422 Q69.475 -52.621 64.487 -52.621 Q60.891 -52.621 58.118 -50.399 Q55.346 -48.177 55.346 -44.892 H50.384 Q50.384 -50.176 54.69 -53.879 Q58.993 -57.582 64.735 -57.582 Q71.769 -57.582 76.178 -52.087 Q80.588 -46.592 80.588 -38.915 Q80.588 -33.084 77.871 -28.03 Q75.155 -22.975 70.453 -19.29 H86.988 Q92.346 -19.29 96.092 -23.006 Q99.838 -26.721 99.838 -32.092 V-41.22 Q99.838 -55.414 89.734 -65.416 Q79.63 -75.418 65.293 -75.418 Q50.955 -75.418 40.858 -65.996 Q30.762 -56.575 30.762 -43.205 Q30.762 -33.245 37.199 -26.268 Q43.636 -19.29 52.99 -19.29 Z M31.407 5.083 H96.205 Q105.424 5.083 112.064 -1.248 Q118.704 -7.579 118.704 -16.793 V-44.458 Q118.704 -47.024 120.578 -48.78 Q122.45 -50.536 124.993 -50.536 H128.249 Q131.754 -50.536 134.345 -53.035 Q136.938 -55.536 136.938 -59.219 Q136.938 -62.035 135.034 -64.137 Q133.131 -66.24 130.501 -67.332 Q127.884 -68.423 125.465 -68.783 Q123.047 -69.142 120.789 -69.142 Q114.212 -69.142 109.506 -64.565 Q104.8 -59.988 104.8 -53.364 V-32.092 Q104.8 -24.607 99.561 -19.468 Q94.32 -14.329 86.988 -14.329 H58.756 Q49.451 -14.329 41.732 -9.114 Q34.011 -3.898 31.407 5.083 Z"/></g><g id="Ultralight-L" transform="matrix(1 0 0 1 491.205 1556)"><path d="M27.735 8.146 Q27.735 0.084 32.895 -6.447 Q38.055 -12.977 46.279 -16.525 Q37.794 -19.155 32.764 -26.468 Q27.735 -33.78 27.735 -43.131 Q27.735 -58.016 38.802 -68.231 Q49.867 -78.445 65.79 -78.445 Q77.4 -78.445 86.672 -72.721 Q95.944 -66.996 100.62 -56.837 Q101.91 -63.932 107.312 -68.125 Q112.714 -72.317 119.97 -72.317 Q127.871 -72.317 133.918 -68.689 Q139.965 -65.061 139.965 -58.45 Q139.965 -53.219 136.277 -49.546 Q132.589 -45.872 127.388 -45.872 H122.066 V-17.331 Q122.066 -6.563 114.42 0.792 Q106.775 8.146 95.944 8.146 H27.735 Z M53.696 -19.105 Q63.223 -19.105 69.908 -24.346 Q76.594 -29.586 76.594 -38.455 Q76.594 -44.26 73.369 -48.775 Q70.144 -53.29 64.823 -53.29 Q61.114 -53.29 58.211 -50.973 Q55.309 -48.654 55.309 -45.227 H51.761 Q51.761 -50.065 55.809 -53.451 Q59.858 -56.837 65.145 -56.837 Q71.918 -56.837 76.029 -51.436 Q80.141 -46.034 80.141 -38.616 Q80.141 -32.489 77.239 -27.49 Q74.336 -22.491 69.338 -19.105 H86.914 Q92.477 -19.105 96.307 -22.894 Q100.136 -26.684 100.136 -32.166 V-41.035 Q100.136 -55.088 90.06 -64.992 Q79.983 -74.897 65.685 -74.897 Q51.439 -74.897 41.361 -65.606 Q31.283 -56.315 31.283 -43.131 Q31.283 -33.134 37.787 -26.119 Q44.291 -19.105 53.696 -19.105 Z M31.444 4.599 H95.944 Q105.148 4.599 111.833 -1.754 Q118.519 -8.106 118.519 -17.309 V-44.421 Q118.519 -46.548 120.131 -47.983 Q121.744 -49.42 123.84 -49.42 H127.257 Q130.935 -49.42 133.676 -52.044 Q136.417 -54.665 136.417 -58.531 Q136.417 -61.514 134.402 -63.691 Q132.386 -65.867 129.645 -66.996 Q127.065 -68.125 124.646 -68.447 Q122.228 -68.77 119.97 -68.77 Q113.299 -68.77 108.492 -64.174 Q103.684 -59.579 103.684 -52.806 V-32.166 Q103.684 -25.192 98.759 -20.376 Q93.833 -15.557 86.914 -15.557 H59.501 Q49.86 -15.557 41.861 -10.156 Q33.863 -4.754 31.444 4.599 Z"/></g><g id="Bold-M" transform="matrix(1 0 0 1 2281.8 1126)"><path d="M10.75 9.02 Q10.75 0.645 13.812 -6.355 Q16.875 -13.355 22.5 -17.73 Q16.875 -21.23 13.812 -27.292 Q10.75 -33.355 10.75 -40.48 Q10.75 -56.73 21.909 -68.105 Q33.069 -79.48 49.089 -79.48 Q58.125 -79.48 65.875 -75.605 Q73.625 -71.73 78.625 -64.73 Q81.375 -68.98 86.125 -71.417 Q90.875 -73.855 96.875 -73.855 Q106.625 -73.855 113.312 -68.792 Q120 -63.73 120 -56.23 Q120 -49.355 115.4 -44.605 Q110.801 -39.855 104.25 -39.855 V-18.98 Q104.25 -7.22 96.062 0.9 Q87.875 9.02 76.125 9.02 H10.75 Z M38.651 -25.73 Q44.682 -25.73 48.904 -29.605 Q53.125 -33.48 53.125 -39.105 Q53.125 -41.48 52 -43.042 Q50.875 -44.605 49.125 -44.605 Q47.375 -44.605 46.25 -43.042 Q45.125 -41.48 45.125 -39.355 H32 Q32 -46.98 37.062 -52.417 Q42.125 -57.855 49.25 -57.855 Q56.375 -57.855 61.375 -52.417 Q66.375 -46.98 66.375 -39.355 Q66.375 -35.48 65.312 -32.042 Q64.25 -28.605 62.125 -25.73 H66.375 Q69.625 -25.73 71.812 -27.73 Q74 -29.73 74 -32.605 V-40.42 Q74 -51.23 66.724 -58.73 Q59.447 -66.23 49.125 -66.23 Q38.572 -66.23 31.286 -58.73 Q24 -51.23 24 -40.48 Q24 -34.355 28.25 -30.042 Q32.5 -25.73 38.651 -25.73 Z M27.625 -4.23 H76.5 Q82.541 -4.23 86.771 -8.47 Q91 -12.711 91 -18.98 V-39.605 Q91 -45.23 94.375 -49.167 Q97.75 -53.105 102.625 -53.105 H103.625 Q104.875 -53.105 105.812 -53.996 Q106.75 -54.886 106.75 -56.199 Q106.75 -57.23 106.085 -57.98 Q105.42 -58.73 104.375 -59.105 Q102.375 -59.855 100.5 -60.23 Q98.625 -60.605 96.912 -60.605 Q92.876 -60.605 90.064 -57.855 Q87.25 -55.105 87.25 -51.105 V-32.605 Q87.25 -24.23 81.136 -18.355 Q75.024 -12.48 66.375 -12.48 H43.875 Q38.5 -12.48 34.188 -10.292 Q29.875 -8.105 27.625 -4.23 Z"/></g><g id="Semibold-M" transform="matrix(1 0 0 1 1985.97 1126)"><path d="M12.598 7.173 Q12.598 -0.605 15.66 -7.279 Q18.723 -13.952 24.348 -18.274 Q18.777 -21.774 15.688 -27.646 Q12.598 -33.517 12.598 -40.371 Q12.598 -55.86 23.335 -66.746 Q34.071 -77.632 49.485 -77.632 Q58.179 -77.632 65.794 -73.785 Q73.407 -69.936 78.407 -63.045 Q81.157 -67.35 85.771 -69.814 Q90.386 -72.279 96.005 -72.279 Q104.94 -72.279 111.384 -67.624 Q117.826 -62.969 117.826 -55.632 Q117.826 -49.192 113.433 -44.714 Q109.04 -40.235 102.782 -40.235 H102.403 V-19.524 Q102.403 -8.311 94.595 -0.57 Q86.787 7.173 75.636 7.173 H12.598 Z M39.237 -25.512 Q45.364 -25.512 49.653 -29.795 Q53.94 -34.077 53.94 -39.594 Q53.94 -42.241 52.706 -43.559 Q51.472 -44.876 49.722 -44.876 Q47.646 -44.876 46.359 -43.369 Q45.071 -41.86 45.071 -39.735 H33.304 Q33.304 -46.762 38.068 -51.739 Q42.831 -56.714 49.63 -56.714 Q56.321 -56.714 61.049 -51.847 Q65.778 -46.98 65.778 -39.735 Q65.778 -35.969 64.579 -32.26 Q63.38 -28.551 61.093 -25.512 H66.864 Q70.06 -25.512 72.248 -27.567 Q74.435 -29.621 74.435 -32.659 V-40.337 Q74.435 -50.959 67.142 -58.376 Q59.851 -65.795 49.505 -65.795 Q38.976 -65.795 31.705 -58.376 Q24.435 -50.959 24.435 -40.371 Q24.435 -34.137 28.712 -29.825 Q32.989 -25.512 39.237 -25.512 Z M27.625 -4.665 H75.847 Q81.98 -4.665 86.272 -8.936 Q90.565 -13.209 90.565 -19.524 V-40.094 Q90.565 -45.176 93.614 -48.624 Q96.662 -52.072 101.321 -52.072 H102.593 Q104.06 -52.072 105.025 -53.092 Q105.989 -54.111 105.989 -55.615 Q105.989 -56.795 105.233 -57.654 Q104.476 -58.512 103.287 -58.942 Q101.396 -59.637 99.576 -60.04 Q97.755 -60.442 96.026 -60.442 Q91.953 -60.442 89.111 -57.61 Q86.271 -54.779 86.271 -50.725 V-32.659 Q86.271 -24.719 80.588 -19.197 Q74.905 -13.675 66.864 -13.675 H44.364 Q38.935 -13.675 34.514 -11.271 Q30.093 -8.866 27.625 -4.665 Z"/></g><g id="Medium-M" transform="matrix(1 0 0 1 1689.91 1126)"><path d="M13.984 5.786 Q13.984 -1.542 17.046 -7.971 Q20.109 -14.401 25.734 -18.681 Q20.204 -22.181 17.094 -27.911 Q13.984 -33.64 13.984 -40.29 Q13.984 -55.209 24.404 -65.727 Q34.824 -76.246 49.782 -76.246 Q58.22 -76.246 65.733 -72.419 Q73.245 -68.591 78.245 -61.781 Q80.995 -66.126 85.506 -68.611 Q90.019 -71.096 95.354 -71.096 Q103.676 -71.096 109.936 -66.747 Q116.196 -62.399 116.196 -55.184 Q116.196 -49.07 111.957 -44.795 Q107.719 -40.521 101.683 -40.521 H101.016 V-19.931 Q101.016 -9.13 93.495 -1.671 Q85.972 5.786 75.269 5.786 H13.984 Z M39.678 -25.35 Q45.875 -25.35 50.214 -29.937 Q54.551 -34.526 54.551 -39.961 Q54.551 -42.811 53.236 -43.946 Q51.921 -45.08 50.171 -45.08 Q47.85 -45.08 46.44 -43.614 Q45.03 -42.146 45.03 -40.021 H34.282 Q34.282 -46.6 38.822 -51.229 Q43.361 -55.857 49.916 -55.857 Q56.28 -55.857 60.804 -51.419 Q65.329 -46.98 65.329 -40.021 Q65.329 -36.336 64.029 -32.422 Q62.729 -28.51 60.318 -25.35 H67.231 Q70.386 -25.35 72.574 -27.445 Q74.761 -29.54 74.761 -32.7 V-40.275 Q74.761 -50.755 67.457 -58.111 Q60.154 -65.469 49.791 -65.469 Q39.279 -65.469 32.02 -58.111 Q24.761 -50.755 24.761 -40.29 Q24.761 -33.975 29.059 -29.662 Q33.356 -25.35 39.678 -25.35 Z M27.625 -4.991 H75.359 Q81.559 -4.991 85.899 -9.286 Q90.239 -13.581 90.239 -19.931 V-40.461 Q90.239 -45.135 93.044 -48.216 Q95.847 -51.297 100.343 -51.297 H101.817 Q103.449 -51.297 104.434 -52.415 Q105.419 -53.531 105.419 -55.176 Q105.419 -56.469 104.594 -57.409 Q103.769 -58.35 102.472 -58.82 Q100.662 -59.475 98.884 -59.897 Q97.104 -60.32 95.362 -60.32 Q91.259 -60.32 88.399 -57.427 Q85.537 -54.534 85.537 -50.439 V-32.7 Q85.537 -25.086 80.176 -19.829 Q74.815 -14.572 67.231 -14.572 H44.731 Q39.261 -14.572 34.759 -12.005 Q30.255 -9.436 27.625 -4.991 Z"/></g><g id="Regular-M" transform="matrix(1 0 0 1 1394.06 1126)"><path d="M15 4.77 Q15 -2.23 18.062 -8.48 Q21.125 -14.73 26.75 -18.98 Q21.25 -22.48 18.125 -28.105 Q15 -33.73 15 -40.23 Q15 -54.73 25.188 -64.98 Q35.375 -75.23 50 -75.23 Q58.25 -75.23 65.688 -71.417 Q73.125 -67.605 78.125 -60.855 Q80.875 -65.23 85.312 -67.73 Q89.75 -70.23 94.875 -70.23 Q102.75 -70.23 108.875 -66.105 Q115 -61.98 115 -54.855 Q115 -48.98 110.875 -44.855 Q106.75 -40.73 100.875 -40.73 H100 V-20.23 Q100 -9.73 92.688 -2.48 Q85.375 4.77 75 4.77 H15 Z M40 -25.23 Q46.25 -25.23 50.625 -30.042 Q55 -34.855 55 -40.23 Q55 -43.23 53.625 -44.23 Q52.25 -45.23 50.5 -45.23 Q48 -45.23 46.5 -43.792 Q45 -42.355 45 -40.23 H35 Q35 -46.48 39.375 -50.855 Q43.75 -55.23 50.125 -55.23 Q56.25 -55.23 60.625 -51.105 Q65 -46.98 65 -40.23 Q65 -36.605 63.625 -32.542 Q62.25 -28.48 59.75 -25.23 H67.5 Q70.625 -25.23 72.812 -27.355 Q75 -29.48 75 -32.73 V-40.23 Q75 -50.605 67.688 -57.917 Q60.375 -65.23 50 -65.23 Q39.5 -65.23 32.25 -57.917 Q25 -50.605 25 -40.23 Q25 -33.855 29.312 -29.542 Q33.625 -25.23 40 -25.23 Z M27.625 -5.23 H75 Q81.25 -5.23 85.625 -9.542 Q90 -13.855 90 -20.23 V-40.73 Q90 -45.105 92.625 -47.917 Q95.25 -50.73 99.625 -50.73 H101.25 Q103 -50.73 104 -51.917 Q105 -53.105 105 -54.855 Q105 -56.23 104.125 -57.23 Q103.25 -58.23 101.875 -58.73 Q100.125 -59.355 98.375 -59.792 Q96.625 -60.23 94.875 -60.23 Q90.75 -60.23 87.875 -57.292 Q85 -54.355 85 -50.23 V-32.73 Q85 -25.355 79.875 -20.292 Q74.75 -15.23 67.5 -15.23 H45 Q39.5 -15.23 34.938 -12.542 Q30.375 -9.855 27.625 -5.23 Z"/></g><g id="Light-M" transform="matrix(1 0 0 1 1098.18 1126)"><path d="M17.5 2.318 Q17.5 -4.49 20.899 -10.307 Q24.299 -16.124 30.067 -19.701 Q24.231 -22.576 20.865 -28.177 Q17.5 -33.777 17.5 -40.519 Q17.5 -53.912 27.062 -63.321 Q36.625 -72.73 50.432 -72.73 Q58.924 -72.73 66.289 -68.701 Q73.654 -64.672 78.029 -57.634 Q80.106 -62.345 84.448 -65.11 Q88.789 -67.874 94.058 -67.874 Q101.211 -67.874 106.855 -64.23 Q112.5 -60.586 112.5 -54.134 Q112.5 -48.919 108.808 -45.257 Q105.115 -41.595 99.914 -41.595 H97.933 V-20.711 Q97.933 -11.039 91.125 -4.36 Q84.317 2.318 74.711 2.318 H17.5 Z M40.721 -24.461 Q47.311 -24.461 51.925 -29.056 Q56.539 -33.652 56.539 -39.461 Q56.539 -42.99 54.803 -44.782 Q53.068 -46.576 50.547 -46.576 Q47.904 -46.576 46.164 -45 Q44.422 -43.425 44.422 -41.095 H36.924 Q36.924 -46.48 40.841 -50.277 Q44.76 -54.076 50.365 -54.076 Q56.154 -54.076 60.096 -49.951 Q64.039 -45.826 64.039 -39.461 Q64.039 -35.402 62.351 -31.412 Q60.664 -27.422 57.682 -24.461 H67.453 Q70.938 -24.461 73.377 -26.85 Q75.817 -29.24 75.817 -32.777 V-40.037 Q75.817 -50.492 68.386 -57.861 Q60.955 -65.23 50.411 -65.23 Q39.74 -65.23 32.37 -58.002 Q25 -50.774 25 -40.519 Q25 -33.759 29.52 -29.11 Q34.04 -24.461 40.721 -24.461 Z M26.76 -5.182 H74.711 Q81.203 -5.182 85.817 -9.662 Q90.433 -14.144 90.433 -20.711 V-41.162 Q90.433 -44.634 92.578 -46.864 Q94.721 -49.095 98.183 -49.095 H100.155 Q102.279 -49.095 103.64 -50.552 Q105 -52.01 105 -54.157 Q105 -55.845 103.909 -57.061 Q102.817 -58.277 101.154 -58.922 Q99.356 -59.595 97.59 -59.985 Q95.824 -60.374 94.058 -60.374 Q89.571 -60.374 86.444 -57.245 Q83.317 -54.115 83.317 -49.652 V-32.777 Q83.317 -26.112 78.671 -21.536 Q74.025 -16.961 67.453 -16.961 H45.578 Q39.407 -16.961 34.29 -13.816 Q29.172 -10.672 26.76 -5.182 Z"/></g><g id="Thin-M" transform="matrix(1 0 0 1 802.565 1126)"><path d="M20 -0.134 Q20 -6.749 23.735 -12.134 Q27.471 -17.519 33.385 -20.422 Q27.211 -22.672 23.606 -28.249 Q20 -33.826 20 -40.807 Q20 -53.095 28.938 -61.662 Q37.875 -70.23 50.865 -70.23 Q59.596 -70.23 66.89 -65.985 Q74.183 -61.74 77.933 -54.412 Q79.336 -59.461 83.581 -62.49 Q87.828 -65.519 93.24 -65.519 Q99.672 -65.519 104.836 -62.355 Q110 -59.191 110 -53.412 Q110 -48.857 106.74 -45.659 Q103.481 -42.461 98.953 -42.461 H95.865 V-21.191 Q95.865 -12.347 89.562 -6.24 Q83.26 -0.134 74.422 -0.134 H20 Z M41.443 -23.691 Q48.374 -23.691 53.225 -28.071 Q58.078 -32.451 58.078 -38.691 Q58.078 -42.749 55.981 -45.336 Q53.885 -47.922 50.596 -47.922 Q47.807 -47.922 45.828 -46.209 Q43.846 -44.495 43.846 -41.961 H38.846 Q38.846 -46.48 42.307 -49.701 Q45.769 -52.922 50.606 -52.922 Q56.057 -52.922 59.568 -48.797 Q63.078 -44.672 63.078 -38.691 Q63.078 -34.201 61.078 -30.282 Q59.078 -26.365 55.615 -23.691 H67.404 Q71.25 -23.691 73.942 -26.345 Q76.635 -28.999 76.635 -32.826 V-39.845 Q76.635 -50.38 69.085 -57.805 Q61.534 -65.23 50.822 -65.23 Q39.981 -65.23 32.49 -58.086 Q25 -50.942 25 -40.807 Q25 -33.662 29.727 -28.677 Q34.454 -23.691 41.443 -23.691 Z M25.894 -5.134 H74.422 Q81.154 -5.134 86.01 -9.782 Q90.865 -14.432 90.865 -21.191 V-41.595 Q90.865 -44.161 92.529 -45.811 Q94.192 -47.461 96.74 -47.461 H99.06 Q101.558 -47.461 103.279 -49.187 Q105 -50.915 105 -53.461 Q105 -55.461 103.692 -56.894 Q102.385 -58.326 100.433 -59.115 Q98.586 -59.836 96.805 -60.177 Q95.022 -60.519 93.24 -60.519 Q88.392 -60.519 85.014 -57.196 Q81.635 -53.874 81.635 -49.076 V-32.826 Q81.635 -26.87 77.468 -22.78 Q73.3 -18.691 67.404 -18.691 H46.154 Q39.316 -18.691 33.644 -15.09 Q27.971 -11.49 25.894 -5.134 Z"/></g><g id="Ultralight-M" transform="matrix(1 0 0 1 506.415 1126)"><path d="M21.5 -1.605 Q21.5 -8.105 25.438 -13.23 Q29.375 -18.355 35.375 -20.855 Q29 -22.73 25.25 -28.292 Q21.5 -33.855 21.5 -40.98 Q21.5 -52.605 30.062 -60.667 Q38.625 -68.73 51.125 -68.73 Q60 -68.73 67.25 -64.355 Q74.5 -59.98 77.875 -52.48 Q78.875 -57.73 83.062 -60.917 Q87.25 -64.105 92.75 -64.105 Q98.75 -64.105 103.625 -61.23 Q108.5 -58.355 108.5 -52.98 Q108.5 -48.821 105.5 -45.9 Q102.5 -42.98 98.375 -42.98 H94.625 V-21.48 Q94.625 -13.132 88.625 -7.369 Q82.625 -1.605 74.25 -1.605 H21.5 Z M41.875 -23.23 Q49.01 -23.23 54.005 -27.48 Q59 -31.73 59 -38.23 Q59 -42.605 56.688 -45.667 Q54.375 -48.73 50.625 -48.73 Q47.75 -48.73 45.625 -46.934 Q43.5 -45.136 43.5 -42.48 H40 Q40 -46.48 43.188 -49.355 Q46.375 -52.23 50.75 -52.23 Q56 -52.23 59.25 -48.105 Q62.5 -43.98 62.5 -38.23 Q62.5 -33.48 60.312 -29.605 Q58.125 -25.73 54.375 -23.23 H67.375 Q71.438 -23.23 74.281 -26.042 Q77.125 -28.855 77.125 -32.855 V-39.73 Q77.125 -50.312 69.504 -57.771 Q61.883 -65.23 51.069 -65.23 Q40.125 -65.23 32.562 -58.137 Q25 -51.044 25 -40.98 Q25 -33.605 29.851 -28.417 Q34.704 -23.23 41.875 -23.23 Z M25.375 -5.105 H74.25 Q81.125 -5.105 86.125 -9.855 Q91.125 -14.605 91.125 -21.48 V-41.855 Q91.125 -43.879 92.5 -45.179 Q93.875 -46.48 95.875 -46.48 H98.403 Q101.125 -46.48 103.062 -48.369 Q105 -50.259 105 -53.042 Q105 -55.23 103.562 -56.792 Q102.125 -58.355 100 -59.23 Q98.125 -59.98 96.334 -60.292 Q94.541 -60.605 92.75 -60.605 Q87.685 -60.605 84.155 -57.167 Q80.625 -53.73 80.625 -48.73 V-32.855 Q80.625 -27.324 76.745 -23.527 Q72.864 -19.73 67.375 -19.73 H46.5 Q39.261 -19.73 33.255 -15.855 Q27.25 -11.98 25.375 -5.105 Z"/></g><g id="Bold-S" transform="matrix(1 0 0 1 2294.23 696)"><path d="M10.75 -3.473 Q10.75 -9.785 13.166 -14.864 Q15.583 -19.943 19.922 -23.296 Q15.583 -25.663 13.166 -30.2 Q10.75 -34.737 10.75 -40.161 Q10.75 -52.084 18.963 -60.423 Q27.176 -68.762 38.83 -68.762 Q46.058 -68.762 52.025 -65.557 Q57.992 -62.352 61.443 -56.533 Q63.416 -58.999 66.572 -60.379 Q69.728 -61.76 73.673 -61.76 Q81.07 -61.76 86.248 -58.062 Q91.425 -54.363 91.425 -48.742 Q91.425 -43.712 88.114 -40.309 Q84.801 -36.907 80.084 -36.907 H78.999 V-23.592 Q78.999 -15.201 73.116 -9.337 Q67.233 -3.473 58.781 -3.473 H10.75 Z M31.309 -29.312 Q35.748 -29.312 38.832 -32.132 Q41.916 -34.953 41.916 -39.126 Q41.916 -40.852 41.086 -41.986 Q40.257 -43.12 38.95 -43.12 Q37.675 -43.12 36.836 -41.936 Q35.998 -40.753 35.998 -39.274 H26.431 Q26.431 -44.838 30.161 -48.812 Q33.892 -52.785 39.129 -52.785 Q44.381 -52.785 47.981 -48.84 Q51.581 -44.895 51.581 -39.274 Q51.581 -36.186 50.644 -33.44 Q49.707 -30.693 47.932 -28.523 H51.778 Q54.096 -28.523 55.649 -29.954 Q57.203 -31.384 57.203 -33.257 V-40.114 Q57.203 -48.07 51.905 -53.583 Q46.608 -59.097 39.003 -59.097 Q31.223 -59.097 25.868 -53.594 Q20.514 -48.09 20.514 -40.195 Q20.514 -35.723 23.647 -32.518 Q26.781 -29.312 31.309 -29.312 Z M23.177 -13.138 H59.175 Q63.448 -13.138 66.441 -16.04 Q69.432 -18.942 69.432 -23.592 V-36.709 Q69.432 -40.852 72.637 -43.662 Q75.843 -46.473 79.689 -46.473 H79.196 Q80.084 -46.473 80.922 -47.127 Q81.76 -47.78 81.76 -48.618 Q81.76 -49.472 81.285 -50.093 Q80.809 -50.714 79.985 -50.813 Q78.308 -51.306 76.73 -51.651 Q75.152 -51.996 73.702 -51.996 Q70.806 -51.996 68.788 -50.058 Q66.769 -48.12 66.769 -45.29 V-33.257 Q66.769 -27.34 62.389 -22.902 Q58.01 -18.464 51.68 -18.464 H34.617 Q30.87 -18.464 27.763 -17.083 Q24.656 -15.702 23.177 -13.138 Z"/></g><g id="Semibold-S" transform="matrix(1 0 0 1 1998.1 696)"><path d="M12.208 -4.93 Q12.208 -10.771 14.624 -15.593 Q17.04 -20.415 21.38 -23.725 Q17.084 -26.092 14.646 -30.479 Q12.208 -34.865 12.208 -40.075 Q12.208 -51.398 20.088 -59.351 Q27.967 -67.305 39.142 -67.305 Q46.1 -67.305 51.961 -64.121 Q57.82 -60.937 61.272 -55.204 Q63.244 -57.713 66.293 -59.114 Q69.342 -60.516 72.986 -60.516 Q79.74 -60.516 84.726 -57.14 Q89.71 -53.763 89.71 -48.27 Q89.71 -43.584 86.561 -40.395 Q83.411 -37.206 78.926 -37.206 H77.541 V-24.021 Q77.541 -16.062 71.958 -10.497 Q66.375 -4.93 58.395 -4.93 H12.208 Z M31.771 -29.141 Q36.285 -29.141 39.422 -32.283 Q42.559 -35.424 42.559 -39.511 Q42.559 -41.452 41.643 -42.393 Q40.728 -43.334 39.421 -43.334 Q37.889 -43.334 36.922 -42.194 Q35.956 -41.053 35.956 -39.573 H27.46 Q27.46 -44.666 30.955 -48.275 Q34.45 -51.885 39.429 -51.885 Q44.339 -51.885 47.724 -48.391 Q51.109 -44.895 51.109 -39.573 Q51.109 -36.571 50.065 -33.611 Q49.021 -30.651 47.117 -28.352 H52.164 Q54.439 -28.352 55.992 -29.825 Q57.546 -31.298 57.546 -33.3 V-40.049 Q57.546 -47.856 52.236 -53.305 Q46.927 -58.754 39.303 -58.754 Q31.541 -58.754 26.199 -53.315 Q20.857 -47.876 20.857 -40.109 Q20.857 -35.552 24.011 -32.346 Q27.166 -29.141 31.771 -29.141 Z M23.177 -13.481 H58.66 Q63.006 -13.481 66.047 -16.407 Q69.089 -19.335 69.089 -24.021 V-37.095 Q69.089 -40.809 72.037 -43.233 Q74.985 -45.659 78.66 -45.659 H78.381 Q79.44 -45.659 80.3 -46.414 Q81.159 -47.169 81.159 -48.158 Q81.159 -49.129 80.612 -49.836 Q80.065 -50.543 79.127 -50.685 Q77.536 -51.134 76.001 -51.501 Q74.466 -51.868 73.003 -51.868 Q70.077 -51.868 68.037 -49.865 Q65.997 -47.863 65.997 -44.99 V-33.3 Q65.997 -27.726 61.956 -23.567 Q57.917 -19.407 52.065 -19.407 H35.003 Q31.213 -19.407 28.02 -17.855 Q24.828 -16.303 23.177 -13.481 Z"/></g><g id="Medium-S" transform="matrix(1 0 0 1 1701.85 696)"><path d="M13.302 -6.024 Q13.302 -11.511 15.718 -16.139 Q18.134 -20.769 22.474 -24.047 Q18.209 -26.414 15.755 -30.688 Q13.302 -34.962 13.302 -40.011 Q13.302 -50.883 20.931 -58.547 Q28.561 -66.211 39.377 -66.211 Q46.133 -66.211 51.912 -63.043 Q57.692 -59.875 61.144 -54.206 Q63.116 -56.747 66.084 -58.165 Q69.052 -59.583 72.473 -59.583 Q78.743 -59.583 83.584 -56.448 Q88.424 -53.313 88.424 -47.916 Q88.424 -43.487 85.396 -40.459 Q82.369 -37.432 78.058 -37.432 H76.447 V-24.343 Q76.447 -16.708 71.09 -11.366 Q65.732 -6.024 58.105 -6.024 H13.302 Z M32.118 -29.013 Q36.689 -29.013 39.865 -32.396 Q43.041 -35.778 43.041 -39.801 Q43.041 -41.902 42.062 -42.699 Q41.082 -43.495 39.775 -43.495 Q38.05 -43.495 36.986 -42.387 Q35.923 -41.279 35.923 -39.799 H28.232 Q28.232 -44.537 31.55 -47.874 Q34.868 -51.209 39.654 -51.209 Q44.306 -51.209 47.53 -48.052 Q50.755 -44.895 50.755 -39.799 Q50.755 -36.861 49.631 -33.74 Q48.507 -30.618 46.506 -28.224 H52.454 Q54.696 -28.224 56.25 -29.729 Q57.803 -31.234 57.803 -33.332 V-40 Q57.803 -47.695 52.484 -53.096 Q47.165 -58.497 39.528 -58.497 Q31.78 -58.497 26.447 -53.106 Q21.115 -47.715 21.115 -40.045 Q21.115 -35.423 24.284 -32.218 Q27.455 -29.013 32.118 -29.013 Z M23.177 -13.739 H58.275 Q62.673 -13.739 65.752 -16.684 Q68.831 -19.629 68.831 -24.343 V-37.385 Q68.831 -40.777 71.587 -42.912 Q74.342 -45.047 77.888 -45.047 H77.77 Q78.958 -45.047 79.834 -45.88 Q80.71 -46.711 80.71 -47.812 Q80.71 -48.872 80.108 -49.643 Q79.507 -50.414 78.484 -50.588 Q76.957 -51.006 75.455 -51.389 Q73.952 -51.771 72.48 -51.771 Q69.53 -51.771 67.474 -49.721 Q65.418 -47.67 65.418 -44.764 V-33.332 Q65.418 -28.016 61.632 -24.065 Q57.846 -20.115 52.355 -20.115 H35.293 Q31.47 -20.115 28.214 -18.434 Q24.956 -16.753 23.177 -13.739 Z"/></g><g id="Regular-S" transform="matrix(1 0 0 1 1405.73 696)"><path d="M14.103 -6.826 Q14.103 -12.053 16.52 -16.541 Q18.936 -21.028 23.276 -24.283 Q19.035 -26.65 16.569 -30.841 Q14.103 -35.033 14.103 -39.964 Q14.103 -50.506 21.55 -57.957 Q28.996 -65.409 39.549 -65.409 Q46.157 -65.409 51.877 -62.253 Q57.597 -59.097 61.049 -53.476 Q63.021 -56.04 65.931 -57.47 Q68.84 -58.9 72.095 -58.9 Q78.012 -58.9 82.746 -55.941 Q87.48 -52.982 87.48 -47.657 Q87.48 -43.416 84.542 -40.506 Q81.604 -37.597 77.421 -37.597 H75.645 V-24.578 Q75.645 -17.182 70.453 -12.004 Q65.26 -6.826 57.893 -6.826 H14.103 Z M32.373 -28.918 Q36.984 -28.918 40.19 -32.477 Q43.395 -36.038 43.395 -40.013 Q43.395 -42.232 42.368 -42.923 Q41.342 -43.613 40.035 -43.613 Q38.168 -43.613 37.034 -42.528 Q35.9 -41.443 35.9 -39.964 H28.799 Q28.799 -44.444 31.986 -47.579 Q35.175 -50.714 39.82 -50.714 Q44.283 -50.714 47.389 -47.805 Q50.496 -44.895 50.496 -39.964 Q50.496 -37.073 49.312 -33.834 Q48.129 -30.595 46.058 -28.129 H52.666 Q54.885 -28.129 56.438 -29.658 Q57.992 -31.186 57.992 -33.356 V-39.964 Q57.992 -47.577 52.666 -52.942 Q47.34 -58.308 39.694 -58.308 Q31.955 -58.308 26.629 -52.953 Q21.303 -47.597 21.303 -39.998 Q21.303 -35.329 24.486 -32.123 Q27.668 -28.918 32.373 -28.918 Z M23.177 -13.927 H57.992 Q62.43 -13.927 65.536 -16.886 Q68.643 -19.844 68.643 -24.578 V-37.597 Q68.643 -40.753 71.257 -42.676 Q73.87 -44.599 77.322 -44.599 Q78.604 -44.599 79.492 -45.487 Q80.379 -46.375 80.379 -47.558 Q80.379 -48.683 79.738 -49.501 Q79.097 -50.32 78.012 -50.517 Q76.533 -50.911 75.054 -51.306 Q73.574 -51.7 72.095 -51.7 Q69.128 -51.7 67.061 -49.614 Q64.994 -47.529 64.994 -44.599 V-33.356 Q64.994 -28.228 61.394 -24.431 Q57.794 -20.633 52.567 -20.633 H35.505 Q31.659 -20.633 28.355 -18.858 Q25.051 -17.083 23.177 -13.927 Z"/></g><g id="Light-S" transform="matrix(1 0 0 1 1109.75 696)"><path d="M16.076 -8.761 Q16.076 -13.836 18.757 -17.982 Q21.44 -22.128 25.893 -24.852 Q21.387 -26.726 18.731 -30.898 Q16.076 -35.07 16.076 -40.192 Q16.076 -49.861 23.029 -56.648 Q29.982 -63.437 39.89 -63.437 Q46.688 -63.437 52.351 -60.11 Q58.014 -56.784 60.973 -50.934 Q62.415 -53.764 65.248 -55.403 Q68.082 -57.041 71.45 -57.041 Q76.798 -57.041 81.153 -54.462 Q85.508 -51.883 85.508 -47.088 Q85.508 -43.368 82.911 -40.824 Q80.315 -38.279 76.662 -38.279 H74.014 V-24.958 Q74.014 -18.214 69.22 -13.487 Q64.426 -8.761 57.665 -8.761 H16.076 Z M32.941 -28.311 Q37.822 -28.311 41.215 -31.7 Q44.609 -35.089 44.609 -39.407 Q44.609 -42.043 43.297 -43.359 Q41.987 -44.675 40.072 -44.675 Q38.092 -44.675 36.768 -43.481 Q35.444 -42.288 35.444 -40.646 H30.316 Q30.316 -44.444 33.144 -47.123 Q35.971 -49.804 40.009 -49.804 Q44.207 -49.804 46.972 -46.894 Q49.738 -43.985 49.738 -39.357 Q49.738 -36.126 48.308 -32.943 Q46.877 -29.76 44.427 -27.522 H52.628 Q55.131 -27.522 56.884 -29.259 Q58.637 -30.997 58.637 -33.394 V-39.812 Q58.637 -47.488 53.217 -52.898 Q47.798 -58.308 40.018 -58.308 Q32.144 -58.308 26.723 -53.019 Q21.303 -47.73 21.303 -40.225 Q21.303 -35.253 24.649 -31.782 Q27.995 -28.311 32.941 -28.311 Z M22.494 -13.89 H57.764 Q62.392 -13.89 65.688 -16.98 Q68.984 -20.072 68.984 -24.958 V-37.938 Q68.984 -40.381 71.219 -41.845 Q73.453 -43.309 76.184 -43.309 H76.458 Q78.035 -43.309 79.208 -44.41 Q80.379 -45.511 80.379 -47.008 Q80.379 -48.38 79.568 -49.369 Q78.756 -50.357 77.443 -50.669 Q75.926 -51.101 74.434 -51.458 Q72.942 -51.814 71.45 -51.814 Q68.198 -51.814 65.933 -49.577 Q63.666 -47.339 63.666 -44.144 V-33.394 Q63.666 -28.825 60.444 -25.412 Q57.222 -21.999 52.53 -21.999 H35.961 Q31.586 -21.999 27.844 -19.863 Q24.102 -17.728 22.494 -13.89 Z"/></g><g id="Thin-S" transform="matrix(1 0 0 1 814.015 696)"><path d="M18.048 -10.695 Q18.048 -15.618 20.995 -19.423 Q23.943 -23.228 28.511 -25.421 Q23.738 -26.802 20.894 -30.955 Q18.048 -35.109 18.048 -40.42 Q18.048 -49.216 24.508 -55.34 Q30.968 -61.464 40.231 -61.464 Q47.219 -61.464 52.826 -57.967 Q58.431 -54.47 60.897 -48.392 Q61.807 -51.488 64.565 -53.336 Q67.323 -55.183 70.805 -55.183 Q75.584 -55.183 79.56 -52.982 Q83.535 -50.782 83.535 -46.519 Q83.535 -43.319 81.281 -41.141 Q79.025 -38.963 75.904 -38.963 H72.383 V-25.337 Q72.383 -19.247 67.987 -14.97 Q63.591 -10.695 57.437 -10.695 H18.048 Z M33.51 -27.704 Q38.66 -27.704 42.241 -30.922 Q45.823 -34.141 45.823 -38.799 Q45.823 -41.853 44.227 -43.796 Q42.632 -45.738 40.111 -45.738 Q38.016 -45.738 36.503 -44.435 Q34.989 -43.132 34.989 -41.33 H31.833 Q31.833 -44.444 34.3 -46.669 Q36.767 -48.894 40.199 -48.894 Q44.131 -48.894 46.555 -45.984 Q48.979 -43.075 48.979 -38.75 Q48.979 -35.177 47.303 -32.051 Q45.626 -28.926 42.795 -26.915 H52.59 Q55.378 -26.915 57.33 -28.861 Q59.282 -30.807 59.282 -33.432 V-39.66 Q59.282 -47.399 53.768 -52.854 Q48.254 -58.308 40.342 -58.308 Q32.334 -58.308 26.818 -53.086 Q21.303 -47.863 21.303 -40.453 Q21.303 -35.177 24.812 -31.441 Q28.322 -27.704 33.51 -27.704 Z M21.811 -13.851 H57.536 Q62.354 -13.851 65.84 -17.075 Q69.325 -20.3 69.325 -25.337 V-38.279 Q69.325 -40.008 71.181 -41.014 Q73.036 -42.02 75.046 -42.02 H75.594 Q77.466 -42.02 78.923 -43.333 Q80.379 -44.647 80.379 -46.458 Q80.379 -48.076 79.397 -49.236 Q78.415 -50.396 76.874 -50.821 Q75.319 -51.291 73.815 -51.61 Q72.31 -51.928 70.805 -51.928 Q67.268 -51.928 64.804 -49.539 Q62.339 -47.149 62.339 -43.689 V-33.432 Q62.339 -29.423 59.495 -26.393 Q56.65 -23.364 52.491 -23.364 H36.415 Q31.514 -23.364 27.334 -20.868 Q23.154 -18.373 21.811 -13.851 Z"/></g><g id="Ultralight-S" transform="matrix(1 0 0 1 517.792 696)"><path d="M19.232 -11.856 Q19.232 -16.688 22.339 -20.288 Q25.445 -23.888 30.081 -25.762 Q25.149 -26.847 22.191 -30.989 Q19.232 -35.131 19.232 -40.556 Q19.232 -48.829 25.396 -54.555 Q31.56 -60.281 40.436 -60.281 Q47.537 -60.281 53.11 -56.681 Q58.682 -53.081 60.852 -46.868 Q61.443 -50.122 64.156 -52.095 Q66.868 -54.067 70.418 -54.067 Q74.856 -54.067 78.604 -52.095 Q82.352 -50.122 82.352 -46.177 Q82.352 -43.291 80.301 -41.331 Q78.251 -39.372 75.448 -39.372 H71.404 V-25.565 Q71.404 -19.866 67.247 -15.861 Q63.09 -11.856 57.301 -11.856 H19.232 Z M33.852 -27.34 Q39.162 -27.34 42.857 -30.456 Q46.551 -33.572 46.551 -38.435 Q46.551 -41.739 44.785 -44.057 Q43.018 -46.375 40.133 -46.375 Q37.971 -46.375 36.343 -45.007 Q34.716 -43.638 34.716 -41.739 H32.744 Q32.744 -44.444 34.994 -46.395 Q37.246 -48.347 40.313 -48.347 Q44.085 -48.347 46.304 -45.438 Q48.524 -42.528 48.524 -38.386 Q48.524 -34.608 46.699 -31.517 Q44.874 -28.425 41.817 -26.551 H52.567 Q55.526 -26.551 57.597 -28.622 Q59.668 -30.693 59.668 -33.455 V-39.569 Q59.668 -47.346 54.099 -52.827 Q48.529 -58.308 40.537 -58.308 Q32.448 -58.308 26.875 -53.126 Q21.303 -47.943 21.303 -40.589 Q21.303 -35.131 24.911 -31.236 Q28.518 -27.34 33.852 -27.34 Z M21.402 -13.828 H57.4 Q62.331 -13.828 65.931 -17.132 Q69.531 -20.436 69.531 -25.565 V-38.485 Q69.531 -39.785 71.158 -40.515 Q72.785 -41.246 74.363 -41.246 H75.075 Q77.125 -41.246 78.752 -42.687 Q80.379 -44.129 80.379 -46.128 Q80.379 -47.894 79.294 -49.156 Q78.21 -50.418 76.533 -50.911 Q74.955 -51.404 73.443 -51.7 Q71.93 -51.996 70.418 -51.996 Q66.711 -51.996 64.126 -49.516 Q61.542 -47.035 61.542 -43.416 V-33.455 Q61.542 -29.781 58.924 -26.983 Q56.306 -24.184 52.468 -24.184 H36.689 Q31.47 -24.184 27.027 -21.472 Q22.585 -18.76 21.402 -13.828 Z"/></g></g></svg>