<svg xmlns="http://www.w3.org/2000/svg" version="1.1" width="3300" height="2000"><g id="Notes"><style>
    text {
      font-family: monospace;
      text-anchor: middle;
    }
    text.emphasis {
      font-weight:bold;
    }
    text.lanchor {
      text-anchor: start;
    }
  </style><rect height="2200" id="artboard" fill="white" width="3300" x="0" y="0"/><line id="" style="fill:none;stroke:black;stroke-width:0.5;" x1="263" x2="3036" y1="292" y2="292"/><text class="lanchor emphasis" transform="matrix(1 0 0 1 263 322)">Weight/Scale Variations</text><text transform="matrix(1 0 0 1 559.711 322)">Ultralight</text><text transform="matrix(1 0 0 1 856.422 322)">Thin</text><text transform="matrix(1 0 0 1 1153.13 322)">Light</text><text transform="matrix(1 0 0 1 1449.84 322)">Regular</text><text transform="matrix(1 0 0 1 1746.56 322)">Medium</text><text transform="matrix(1 0 0 1 2043.27 322)">Semibold</text><text transform="matrix(1 0 0 1 2339.98 322)">Bold</text><text transform="matrix(1 0 0 1 2636.69 322)">Heavy</text><text transform="matrix(1 0 0 1 2933.4 322)">Black</text><text id="template-version" style="text-anchor: end;" transform="matrix(1 0 0 1 3036 1933)">Template v.1.0</text><text class="lanchor" transform="matrix(1 0 0 1 263 726)">Small</text><text class="lanchor" transform="matrix(1 0 0 1 263 1156)">Medium</text><text class="lanchor" transform="matrix(1 0 0 1 263 1586)">Large</text></g><g id="Guides"><g id="H-reference" style="fill:#27AAE1;stroke:none;" transform="matrix(1 0 0 1 339 696)"><path d="M 54.9316 0 L 57.666 0 L 30.5664 -70.459 L 28.0762 -70.459 L 0.976562 0 L 3.66211 0 L 12.9395 -24.4629 L 45.7031 -24.4629 Z M 29.1992 -67.0898 L 29.4434 -67.0898 L 44.8242 -26.709 L 13.8184 -26.709 Z"/></g><line id="Baseline-S" style="fill:none;stroke:#27AAE1;opacity:1;stroke-width:0.577;" x1="263" x2="3036" y1="696" y2="696"/><line id="Capline-S" style="fill:none;stroke:#27AAE1;opacity:1;stroke-width:0.577;" x1="263" x2="3036" y1="625.541" y2="625.541"/><g id="H-reference" style="fill:#27AAE1;stroke:none;" transform="matrix(1 0 0 1 339 1126)"><path d="M 54.9316 0 L 57.666 0 L 30.5664 -70.459 L 28.0762 -70.459 L 0.976562 0 L 3.66211 0 L 12.9395 -24.4629 L 45.7031 -24.4629 Z M 29.1992 -67.0898 L 29.4434 -67.0898 L 44.8242 -26.709 L 13.8184 -26.709 Z"/></g><line id="Baseline-M" style="fill:none;stroke:#27AAE1;opacity:1;stroke-width:0.577;" x1="263" x2="3036" y1="1126" y2="1126"/><line id="Capline-M" style="fill:none;stroke:#27AAE1;opacity:1;stroke-width:0.577;" x1="263" x2="3036" y1="1055.54" y2="1055.54"/><g id="H-reference" style="fill:#27AAE1;stroke:none;" transform="matrix(1 0 0 1 339 1556)"><path d="M 54.9316 0 L 57.666 0 L 30.5664 -70.459 L 28.0762 -70.459 L 0.976562 0 L 3.66211 0 L 12.9395 -24.4629 L 45.7031 -24.4629 Z M 29.1992 -67.0898 L 29.4434 -67.0898 L 44.8242 -26.709 L 13.8184 -26.709 Z"/></g><line id="Baseline-L" style="fill:none;stroke:#27AAE1;opacity:1;stroke-width:0.577;" x1="263" x2="3036" y1="1556" y2="1556"/><line id="Capline-L" style="fill:none;stroke:#27AAE1;opacity:1;stroke-width:0.577;" x1="263" x2="3036" y1="1485.54" y2="1485.54"/><rect height="119.336" id="left-margin" style="fill:darkred;stroke:none;opacity:0.4;" width="12.4512" x="1394.06" y="1030.79"/><rect height="119.336" id="right-margin" style="fill:darkgreen;stroke:none;opacity:0.4;" width="12.4512" x="1502.5112" y="1030.79"/><rect x="1406.5112" y="1045" width="96" height="96" fill="none" stroke="blue" stroke-dasharray="5"/><rect x="1394.06" y="1030.79" width="120.9024" height="119.336" fill="none" stroke="blue"/></g><g id="Symbols"><g id="Bold-L" transform="matrix(1 0 0 1 2266 1556)"><path d="M16.125 19.595 Q16.125 10.243 20.479 1.898 Q24.832 -6.447 33.218 -12.905 Q24.994 -17.734 20.559 -26.127 Q16.125 -34.52 16.125 -44.055 Q16.125 -63.287 29.802 -76.752 Q43.478 -90.216 63.452 -90.216 Q74.901 -90.216 84.455 -85.097 Q94.009 -79.977 101.749 -69.415 Q105.054 -75.784 110.945 -79.332 Q116.835 -82.879 124.77 -82.879 Q137.138 -82.879 144.557 -76.794 Q151.978 -70.708 151.978 -62.486 Q151.978 -54.57 146.718 -49.214 Q141.458 -43.857 134.079 -43.857 H132.386 V-14.187 Q132.386 -0.073 122.311 9.76 Q112.238 19.595 97.959 19.595 H16.125 Z M49.707 -20.476 Q58.373 -20.476 64.661 -25.173 Q70.95 -29.868 70.95 -38.024 Q70.95 -42.244 68.594 -45.953 Q66.238 -49.662 62.242 -49.662 Q59.663 -49.662 57.727 -47.635 Q55.793 -45.608 55.793 -42.97 H43.457 Q43.457 -50.791 49.162 -56.475 Q54.867 -62.159 62.784 -62.159 Q71.505 -62.159 77.395 -55.136 Q83.286 -48.112 83.286 -39.018 Q83.286 -33.779 81.431 -29.194 Q79.577 -24.61 76.271 -20.476 H86.104 Q90.945 -20.476 94.412 -23.804 Q97.879 -27.132 97.879 -31.674 V-42.083 Q97.879 -56.731 87.838 -67.225 Q77.797 -77.719 63.452 -77.719 Q48.859 -77.719 38.66 -68.017 Q28.461 -58.316 28.461 -44.099 Q28.461 -34.504 34.588 -27.49 Q40.716 -20.476 49.707 -20.476 Z"/></g><g id="Semibold-L" transform="matrix(1 0 0 1 1970.27 1556)"><path d="M17.878 17.842 Q17.878 9.051 22.267 0.987 Q26.655 -7.077 34.97 -13.427 Q26.816 -18.225 22.348 -26.439 Q17.878 -34.654 17.878 -43.915 Q17.878 -62.517 31.168 -75.455 Q44.46 -88.394 63.802 -88.394 Q75.041 -88.394 84.419 -83.308 Q93.799 -78.224 101.539 -67.802 Q104.845 -74.243 110.595 -77.79 Q116.345 -81.338 123.927 -81.338 Q135.456 -81.338 142.666 -75.638 Q149.875 -69.937 149.875 -61.925 Q149.875 -54.424 144.833 -49.315 Q139.792 -44.207 132.677 -44.207 H130.564 V-14.677 Q130.564 -1.124 120.875 8.359 Q111.187 17.842 97.469 17.842 H17.878 Z M50.266 -20.266 Q59.003 -20.266 65.363 -25.347 Q71.721 -30.43 71.721 -38.516 Q71.721 -43.015 69.246 -46.479 Q66.772 -49.942 62.804 -49.942 Q59.943 -49.942 57.832 -47.966 Q55.723 -45.989 55.723 -43.32 H44.719 Q44.719 -50.581 50.144 -55.809 Q55.568 -61.036 63.136 -61.036 Q71.439 -61.036 77.082 -54.575 Q82.724 -48.112 82.724 -39.368 Q82.724 -34.269 80.73 -29.44 Q78.735 -24.61 75.289 -20.266 H86.594 Q91.366 -20.266 94.833 -23.654 Q98.3 -27.043 98.3 -31.781 V-41.943 Q98.3 -56.521 88.223 -66.909 Q78.148 -77.299 63.802 -77.299 Q49.209 -77.299 39.045 -67.661 Q28.881 -58.024 28.881 -43.958 Q28.881 -34.295 35.044 -27.28 Q41.206 -20.266 50.266 -20.266 Z"/></g><g id="Medium-L" transform="matrix(1 0 0 1 1674.31 1556)"><path d="M19.192 16.528 Q19.192 8.158 23.607 0.303 Q28.022 -7.551 36.284 -13.819 Q28.183 -18.594 23.688 -26.674 Q19.192 -34.754 19.192 -43.808 Q19.192 -61.938 32.194 -74.481 Q45.197 -87.027 64.065 -87.027 Q75.146 -87.027 84.393 -81.968 Q93.641 -76.91 101.381 -66.593 Q104.687 -73.085 110.332 -76.633 Q115.976 -80.18 123.293 -80.18 Q134.194 -80.18 141.245 -74.77 Q148.297 -69.359 148.297 -61.504 Q148.297 -54.316 143.421 -49.393 Q138.543 -44.47 131.625 -44.47 H129.197 V-15.046 Q129.197 -1.913 119.797 7.308 Q110.397 16.528 97.1 16.528 H19.192 Z M50.687 -20.108 Q59.477 -20.108 65.888 -25.479 Q72.3 -30.85 72.3 -38.884 Q72.3 -43.594 69.736 -46.874 Q67.172 -50.152 63.225 -50.152 Q60.153 -50.152 57.911 -48.214 Q55.67 -46.274 55.67 -43.583 H45.666 Q45.666 -50.423 50.879 -55.309 Q56.094 -60.196 63.399 -60.196 Q71.39 -60.196 76.847 -54.154 Q82.304 -48.112 82.304 -39.631 Q82.304 -34.638 80.204 -29.623 Q78.105 -24.61 74.554 -20.108 H86.964 Q91.682 -20.108 95.149 -23.541 Q98.616 -26.976 98.616 -31.858 V-41.838 Q98.616 -56.363 88.513 -66.674 Q78.411 -76.982 64.065 -76.982 Q49.472 -76.982 39.334 -67.395 Q29.198 -57.805 29.198 -43.854 Q29.198 -34.137 35.386 -27.122 Q41.575 -20.108 50.687 -20.108 Z"/></g><g id="Regular-L" transform="matrix(1 0 0 1 1378.56 1556)"><path d="M20.156 15.564 Q20.156 7.501 24.591 -0.198 Q29.025 -7.898 37.249 -14.106 Q29.186 -18.863 24.671 -26.845 Q20.156 -34.827 20.156 -43.733 Q20.156 -61.514 32.947 -73.769 Q45.735 -86.024 64.258 -86.024 Q75.223 -86.024 84.374 -80.985 Q93.525 -75.946 101.265 -65.706 Q104.571 -72.237 110.139 -75.784 Q115.707 -79.332 122.831 -79.332 Q133.268 -79.332 140.204 -74.133 Q147.141 -68.934 147.141 -61.196 Q147.141 -54.235 142.384 -49.449 Q137.627 -44.663 130.854 -44.663 H128.194 V-15.316 Q128.194 -2.491 119.006 6.535 Q109.819 15.564 96.831 15.564 H20.156 Z M50.995 -19.992 Q59.824 -19.992 66.274 -25.576 Q72.724 -31.158 72.724 -39.153 Q72.724 -44.018 70.094 -47.162 Q67.465 -50.307 63.532 -50.307 Q60.308 -50.307 57.969 -48.394 Q55.631 -46.484 55.631 -43.776 H46.359 Q46.359 -50.307 51.419 -54.943 Q56.479 -59.579 63.591 -59.579 Q71.353 -59.579 76.674 -53.846 Q81.996 -48.112 81.996 -39.824 Q81.996 -34.907 79.819 -29.759 Q77.642 -24.61 74.014 -19.992 H87.233 Q91.913 -19.992 95.379 -23.459 Q98.846 -26.926 98.846 -31.916 V-41.761 Q98.846 -56.247 88.725 -66.5 Q78.603 -76.752 64.258 -76.752 Q49.665 -76.752 39.547 -67.198 Q29.428 -57.644 29.428 -43.776 Q29.428 -34.021 35.636 -27.006 Q41.844 -19.992 50.995 -19.992 Z"/></g><g id="Light-L" transform="matrix(1 0 0 1 1082.77 1556)"><path d="M23.072 12.711 Q23.072 4.649 27.754 -2.587 Q32.437 -9.82 40.753 -15.037 Q32.474 -18.957 27.772 -26.69 Q23.072 -34.424 23.072 -43.515 Q23.072 -60.15 35.194 -71.645 Q47.317 -83.139 64.879 -83.139 Q76.029 -83.139 85.227 -77.821 Q94.425 -72.503 101.017 -62.294 Q103.516 -69.073 109.037 -72.854 Q114.558 -76.634 121.713 -76.634 Q131.19 -76.634 137.785 -72.056 Q144.38 -67.477 144.38 -60.172 Q144.38 -53.862 140.042 -49.51 Q135.705 -45.16 129.521 -45.16 H125.836 V-16.091 Q125.836 -4.043 117.238 4.334 Q108.641 12.711 96.521 12.711 H23.072 Z M52.05 -19.682 Q61.157 -19.682 67.701 -25.126 Q74.243 -30.57 74.243 -38.905 Q74.243 -44.112 71.382 -47.783 Q68.52 -51.455 64.029 -51.455 Q60.649 -51.455 58.094 -49.388 Q55.538 -47.321 55.538 -44.334 H48.469 Q48.469 -50.213 53.142 -54.369 Q57.813 -58.524 64.211 -58.524 Q71.601 -58.524 76.457 -52.916 Q81.314 -47.306 81.314 -39.389 Q81.314 -33.977 78.842 -28.891 Q76.37 -23.804 72.216 -19.682 H87.139 Q92.098 -19.682 95.721 -23.257 Q99.343 -26.832 99.343 -32.04 V-41.512 Q99.343 -55.844 89.221 -65.956 Q79.1 -76.07 64.879 -76.07 Q50.347 -76.07 40.245 -66.64 Q30.141 -57.21 30.141 -43.559 Q30.141 -33.679 36.473 -26.681 Q42.805 -19.682 52.05 -19.682 Z"/></g><g id="Thin-L" transform="matrix(1 0 0 1 787.282 1556)"><path d="M25.985 9.859 Q25.985 1.796 30.916 -4.975 Q35.847 -11.744 44.257 -15.967 Q35.76 -19.049 30.873 -26.535 Q25.985 -34.021 25.985 -43.297 Q25.985 -58.785 37.442 -69.52 Q48.899 -80.256 65.498 -80.256 Q76.836 -80.256 86.08 -74.659 Q95.323 -69.062 100.768 -58.884 Q102.461 -65.911 107.938 -69.923 Q113.412 -73.936 120.597 -73.936 Q129.113 -73.936 135.368 -69.978 Q141.621 -66.021 141.621 -59.15 Q141.621 -53.49 137.701 -49.573 Q133.783 -45.655 128.187 -45.655 H123.48 V-16.867 Q123.48 -5.592 115.471 2.133 Q107.462 9.859 96.21 9.859 H25.985 Z M53.103 -19.371 Q62.491 -19.371 69.126 -24.676 Q75.763 -29.98 75.763 -38.658 Q75.763 -44.204 72.669 -48.403 Q69.575 -52.601 64.524 -52.601 Q60.99 -52.601 58.218 -50.379 Q55.446 -48.157 55.446 -44.892 H50.576 Q50.576 -50.121 54.862 -53.795 Q59.147 -57.47 64.832 -57.47 Q71.85 -57.47 76.241 -51.985 Q80.631 -46.5 80.631 -38.955 Q80.631 -33.047 77.864 -28.022 Q75.099 -22.998 70.416 -19.371 H87.048 Q92.285 -19.371 96.061 -23.056 Q99.838 -26.74 99.838 -32.165 V-41.264 Q99.838 -55.441 89.718 -65.414 Q79.596 -75.388 65.498 -75.388 Q51.029 -75.388 40.941 -66.082 Q30.855 -56.776 30.855 -43.342 Q30.855 -33.339 37.31 -26.355 Q43.766 -19.371 53.103 -19.371 Z"/></g><g id="Ultralight-L" transform="matrix(1 0 0 1 491.205 1556)"><path d="M27.735 8.146 Q27.735 0.084 32.814 -6.407 Q37.894 -12.897 46.359 -16.525 Q37.733 -19.105 32.734 -26.442 Q27.735 -33.779 27.735 -43.168 Q27.735 -57.966 38.792 -68.246 Q49.847 -78.526 65.871 -78.526 Q77.319 -78.526 86.591 -72.761 Q95.863 -66.996 100.62 -56.837 Q101.829 -64.013 107.276 -68.165 Q112.723 -72.317 119.928 -72.317 Q127.866 -72.317 133.915 -68.731 Q139.965 -65.145 139.965 -58.535 Q139.965 -53.267 136.297 -49.61 Q132.628 -45.953 127.388 -45.953 H122.066 V-17.331 Q122.066 -6.523 114.41 0.813 Q106.756 8.146 96.024 8.146 H27.735 Z M53.737 -19.186 Q63.291 -19.186 69.983 -24.407 Q76.674 -29.627 76.674 -38.508 Q76.674 -44.26 73.44 -48.775 Q70.207 -53.29 64.823 -53.29 Q61.194 -53.29 58.292 -50.974 Q55.389 -48.661 55.389 -45.227 H51.842 Q51.842 -50.065 55.894 -53.451 Q59.946 -56.837 65.203 -56.837 Q71.998 -56.837 76.11 -51.428 Q80.222 -46.016 80.222 -38.695 Q80.222 -32.489 77.279 -27.501 Q74.336 -22.514 69.338 -19.186 H86.991 Q92.396 -19.186 96.266 -22.935 Q100.136 -26.684 100.136 -32.239 V-41.116 Q100.136 -55.199 90.015 -65.089 Q79.893 -74.978 65.871 -74.978 Q51.439 -74.978 41.361 -65.747 Q31.283 -56.515 31.283 -43.212 Q31.283 -33.134 37.813 -26.16 Q44.344 -19.186 53.737 -19.186 Z"/></g><g id="Bold-M" transform="matrix(1 0 0 1 2281.8 1126)"><path d="M12 7.77 Q12 -0.417 15.125 -7.199 Q18.25 -13.98 23.688 -18.23 Q18.188 -21.605 15.094 -27.792 Q12 -33.98 12 -40.911 Q12 -56.73 22.915 -67.449 Q33.829 -78.167 49.438 -78.167 Q58.375 -78.167 65.938 -74.355 Q73.5 -70.542 78.375 -63.73 Q81 -67.855 85.531 -70.292 Q90.062 -72.73 95.846 -72.73 Q105.265 -72.73 111.695 -67.825 Q118.125 -62.92 118.125 -55.692 Q118.125 -49.042 113.719 -44.48 Q109.312 -39.917 103.125 -39.917 H103 V-19.355 Q103 -7.972 95.05 -0.101 Q87.1 7.77 75.688 7.77 H12 Z M39.155 -25.792 Q45.062 -25.792 49.312 -29.587 Q53.562 -33.382 53.562 -38.917 Q53.562 -41.292 52.38 -42.886 Q51.197 -44.48 49.375 -44.48 Q47.596 -44.48 46.455 -42.954 Q45.312 -41.427 45.312 -39.355 H32.812 Q32.812 -46.667 37.72 -51.886 Q42.629 -57.105 49.529 -57.105 Q56.438 -57.105 61.312 -51.792 Q66.188 -46.48 66.188 -39.167 Q66.188 -35.292 65.062 -31.949 Q63.938 -28.605 61.875 -25.792 H66.304 Q69.625 -25.792 71.812 -27.824 Q74 -29.855 74 -32.667 V-40.292 Q74 -50.835 66.841 -58.189 Q59.682 -65.542 49.438 -65.542 Q39.125 -65.542 31.875 -58.511 Q24.625 -51.48 24.625 -40.917 Q24.625 -34.98 28.875 -30.386 Q33.125 -25.792 39.155 -25.792 Z"/></g><g id="Semibold-M" transform="matrix(1 0 0 1 1985.97 1126)"><path d="M13.848 5.923 Q13.848 -1.667 16.973 -8.122 Q20.098 -14.577 25.535 -18.774 Q20.09 -22.149 16.969 -28.146 Q13.848 -34.142 13.848 -40.802 Q13.848 -55.86 24.328 -66.09 Q34.807 -76.32 49.818 -76.32 Q58.429 -76.32 65.856 -72.535 Q73.282 -68.749 78.157 -62.045 Q80.782 -66.225 85.177 -68.689 Q89.574 -71.154 94.978 -71.154 Q103.581 -71.154 109.766 -66.656 Q115.951 -62.16 115.951 -55.095 Q115.951 -48.88 111.763 -44.589 Q107.574 -40.297 101.657 -40.297 H101.153 V-19.899 Q101.153 -9.06 93.582 -1.569 Q86.014 5.923 75.199 5.923 H13.848 Z M39.752 -25.575 Q45.769 -25.575 50.074 -29.777 Q54.377 -33.98 54.377 -39.406 Q54.377 -42.054 53.086 -43.402 Q51.796 -44.751 49.972 -44.751 Q47.869 -44.751 46.564 -43.28 Q45.259 -41.807 45.259 -39.735 H34.116 Q34.116 -46.45 38.726 -51.207 Q43.335 -55.964 49.909 -55.964 Q56.384 -55.964 60.986 -51.222 Q65.59 -46.48 65.59 -39.547 Q65.59 -35.781 64.329 -32.166 Q63.068 -28.551 60.843 -25.575 H66.793 Q70.06 -25.575 72.248 -27.661 Q74.435 -29.746 74.435 -32.721 V-40.184 Q74.435 -50.564 67.249 -57.835 Q60.064 -65.107 49.818 -65.107 Q39.505 -65.107 32.282 -58.157 Q25.06 -51.209 25.06 -40.809 Q25.06 -34.762 29.337 -30.169 Q33.614 -25.575 39.752 -25.575 Z"/></g><g id="Medium-M" transform="matrix(1 0 0 1 1689.91 1126)"><path d="M15.234 4.536 Q15.234 -2.605 18.359 -8.815 Q21.484 -15.026 26.921 -19.181 Q21.516 -22.556 18.375 -28.411 Q15.234 -34.265 15.234 -40.721 Q15.234 -55.209 25.387 -65.071 Q35.541 -74.934 50.104 -74.934 Q58.47 -74.934 65.795 -71.169 Q73.12 -67.404 77.995 -60.781 Q80.62 -65.001 84.912 -67.486 Q89.206 -69.971 94.325 -69.971 Q102.317 -69.971 108.319 -65.78 Q114.321 -61.589 114.321 -54.646 Q114.321 -48.757 110.295 -44.67 Q106.27 -40.584 100.558 -40.584 H99.766 V-20.306 Q99.766 -9.875 92.483 -2.669 Q85.199 4.536 74.831 4.536 H15.234 Z M40.201 -25.412 Q46.299 -25.412 50.644 -29.92 Q54.989 -34.429 54.989 -39.774 Q54.989 -42.624 53.616 -43.79 Q52.244 -44.955 50.421 -44.955 Q48.072 -44.955 46.645 -43.524 Q45.218 -42.092 45.218 -40.021 H35.095 Q35.095 -46.287 39.48 -50.697 Q43.865 -55.107 50.195 -55.107 Q56.343 -55.107 60.741 -50.794 Q65.141 -46.48 65.141 -39.834 Q65.141 -36.149 63.779 -32.329 Q62.416 -28.51 60.068 -25.412 H67.159 Q70.386 -25.412 72.574 -27.539 Q74.761 -29.665 74.761 -32.762 V-40.102 Q74.761 -50.36 67.555 -57.57 Q60.349 -64.781 50.104 -64.781 Q39.791 -64.781 32.589 -57.892 Q25.386 -51.005 25.386 -40.727 Q25.386 -34.6 29.684 -30.006 Q33.981 -25.412 40.201 -25.412 Z"/></g><g id="Regular-M" transform="matrix(1 0 0 1 1394.06 1126)"><path d="M16.25 3.52 Q16.25 -3.292 19.375 -9.324 Q22.5 -15.355 27.938 -19.48 Q22.562 -22.855 19.406 -28.605 Q16.25 -34.355 16.25 -40.661 Q16.25 -54.73 26.165 -64.324 Q36.079 -73.917 50.312 -73.917 Q58.5 -73.917 65.75 -70.167 Q73 -66.417 77.875 -59.855 Q80.5 -64.105 84.719 -66.605 Q88.938 -69.105 93.846 -69.105 Q101.39 -69.105 107.257 -65.137 Q113.125 -61.17 113.125 -54.317 Q113.125 -48.667 109.219 -44.73 Q105.312 -40.792 99.75 -40.792 H98.75 V-20.605 Q98.75 -10.472 91.675 -3.476 Q84.6 3.52 74.562 3.52 H16.25 Z M40.53 -25.292 Q46.688 -25.292 51.062 -30.025 Q55.438 -34.757 55.438 -40.042 Q55.438 -43.042 54.005 -44.074 Q52.572 -45.105 50.75 -45.105 Q48.221 -45.105 46.705 -43.704 Q45.188 -42.302 45.188 -40.23 H35.812 Q35.812 -46.167 40.032 -50.324 Q44.254 -54.48 50.404 -54.48 Q56.312 -54.48 60.562 -50.48 Q64.812 -46.48 64.812 -40.042 Q64.812 -36.417 63.375 -32.449 Q61.938 -28.48 59.5 -25.292 H67.429 Q70.625 -25.292 72.812 -27.449 Q75 -29.605 75 -32.792 V-40.042 Q75 -50.21 67.779 -57.376 Q60.557 -64.542 50.312 -64.542 Q40 -64.542 32.812 -57.699 Q25.625 -50.855 25.625 -40.667 Q25.625 -34.48 29.938 -29.886 Q34.25 -25.292 40.53 -25.292 Z"/></g><g id="Light-M" transform="matrix(1 0 0 1 1098.18 1126)"><path d="M18.51 1.309 Q18.51 -5.36 21.948 -10.982 Q25.385 -16.605 31.039 -20.105 Q25.302 -22.879 21.906 -28.581 Q18.51 -34.282 18.51 -40.877 Q18.51 -53.912 27.86 -62.797 Q37.209 -71.681 50.697 -71.681 Q59.125 -71.681 66.339 -67.691 Q73.552 -63.701 77.828 -56.826 Q79.779 -61.46 83.961 -64.212 Q88.144 -66.965 93.221 -66.965 Q100.116 -66.965 105.551 -63.455 Q110.985 -59.945 110.985 -53.716 Q110.985 -48.667 107.476 -45.162 Q103.966 -41.657 99.005 -41.657 H96.922 V-21.014 Q96.922 -11.626 90.305 -5.159 Q83.686 1.309 74.37 1.309 H18.51 Z M41.155 -24.524 Q47.674 -24.524 52.289 -29.051 Q56.904 -33.579 56.904 -39.321 Q56.904 -42.826 55.123 -44.651 Q53.343 -46.475 50.75 -46.475 Q48.101 -46.475 46.344 -44.93 Q44.586 -43.384 44.586 -41.095 H37.591 Q37.591 -46.24 41.391 -49.855 Q45.191 -53.47 50.596 -53.47 Q56.216 -53.47 60.057 -49.446 Q63.899 -45.422 63.899 -39.321 Q63.899 -35.264 62.161 -31.342 Q60.422 -27.422 57.48 -24.524 H67.404 Q70.914 -24.524 73.365 -26.932 Q75.817 -29.34 75.817 -32.84 V-39.899 Q75.817 -50.186 68.453 -57.436 Q61.086 -64.686 50.697 -64.686 Q40.144 -64.686 32.825 -57.842 Q25.505 -50.999 25.505 -40.884 Q25.505 -34.264 30.034 -29.394 Q34.562 -24.524 41.155 -24.524 Z"/></g><g id="Thin-M" transform="matrix(1 0 0 1 802.565 1126)"><path d="M20.769 -0.902 Q20.769 -7.427 24.519 -12.641 Q28.269 -17.855 34.14 -20.73 Q28.044 -22.902 24.406 -28.557 Q20.769 -34.211 20.769 -41.094 Q20.769 -53.095 29.554 -61.271 Q38.339 -69.446 51.081 -69.446 Q59.75 -69.446 66.927 -65.215 Q74.106 -60.985 77.779 -53.797 Q79.058 -58.816 83.204 -61.821 Q87.351 -64.826 92.596 -64.826 Q98.843 -64.826 103.844 -61.772 Q108.846 -58.719 108.846 -53.116 Q108.846 -48.667 105.734 -45.595 Q102.621 -42.524 98.26 -42.524 H95.096 V-21.422 Q95.096 -12.78 88.935 -6.841 Q82.774 -0.902 74.177 -0.902 H20.769 Z M41.78 -23.754 Q48.659 -23.754 53.515 -28.077 Q58.37 -32.401 58.37 -38.6 Q58.37 -42.61 56.241 -45.227 Q54.111 -47.845 50.75 -47.845 Q47.981 -47.845 45.984 -46.155 Q43.985 -44.465 43.985 -41.961 H39.37 Q39.37 -46.311 42.75 -49.386 Q46.129 -52.461 50.789 -52.461 Q56.12 -52.461 59.553 -48.412 Q62.985 -44.365 62.985 -38.6 Q62.985 -34.11 60.947 -30.237 Q58.909 -26.365 55.461 -23.754 H67.38 Q71.203 -23.754 73.919 -26.415 Q76.635 -29.076 76.635 -32.889 V-39.754 Q76.635 -50.162 69.125 -57.496 Q61.615 -64.831 51.081 -64.831 Q40.289 -64.831 32.836 -57.987 Q25.385 -51.144 25.385 -41.1 Q25.385 -34.047 30.13 -28.901 Q34.875 -23.754 41.78 -23.754 Z"/></g><g id="Ultralight-M" transform="matrix(1 0 0 1 506.415 1126)"><path d="M22.125 -2.23 Q22.125 -8.667 26.062 -13.636 Q30 -18.605 36 -21.105 Q29.688 -22.917 25.906 -28.542 Q22.125 -34.167 22.125 -41.224 Q22.125 -52.605 30.571 -60.355 Q39.016 -68.105 51.312 -68.105 Q60.125 -68.105 67.281 -63.73 Q74.438 -59.355 77.75 -51.98 Q78.625 -57.23 82.75 -60.386 Q86.875 -63.542 92.221 -63.542 Q98.078 -63.542 102.82 -60.762 Q107.562 -57.982 107.562 -52.755 Q107.562 -48.667 104.688 -45.855 Q101.812 -43.042 97.812 -43.042 H94 V-21.667 Q94 -13.472 88.112 -7.851 Q82.225 -2.23 74.062 -2.23 H22.125 Z M42.155 -23.292 Q49.25 -23.292 54.25 -27.494 Q59.25 -31.695 59.25 -38.167 Q59.25 -42.48 56.911 -45.574 Q54.572 -48.667 50.75 -48.667 Q47.909 -48.667 45.767 -46.891 Q43.625 -45.115 43.625 -42.48 H40.438 Q40.438 -46.355 43.564 -49.105 Q46.691 -51.855 50.904 -51.855 Q56.062 -51.855 59.25 -47.792 Q62.438 -43.73 62.438 -38.167 Q62.438 -33.417 60.219 -29.574 Q58 -25.73 54.25 -23.292 H67.366 Q71.375 -23.292 74.25 -26.105 Q77.125 -28.917 77.125 -32.917 V-39.667 Q77.125 -50.147 69.529 -57.532 Q61.932 -64.917 51.312 -64.917 Q40.375 -64.917 32.844 -58.074 Q25.312 -51.23 25.312 -41.23 Q25.312 -33.917 30.188 -28.605 Q35.062 -23.292 42.155 -23.292 Z"/></g><g id="Bold-S" transform="matrix(1 0 0 1 2294.23 696)"><path d="M11.736 -4.459 Q11.736 -10.623 14.202 -15.53 Q16.668 -20.436 20.859 -23.691 Q16.618 -25.959 14.177 -30.595 Q11.736 -35.23 11.736 -40.502 Q11.736 -52.084 19.757 -59.905 Q27.776 -67.727 39.105 -67.727 Q46.255 -67.727 52.074 -64.571 Q57.893 -61.415 61.246 -55.744 Q63.12 -58.111 66.103 -59.492 Q69.087 -60.872 72.861 -60.872 Q79.997 -60.872 84.971 -57.298 Q89.946 -53.724 89.946 -48.318 Q89.946 -43.465 86.786 -40.211 Q83.627 -36.956 79.196 -36.956 H78.012 V-23.888 Q78.012 -15.795 72.317 -10.127 Q66.621 -4.459 58.435 -4.459 H11.736 Z M31.706 -29.362 Q36.047 -29.362 39.154 -32.118 Q42.261 -34.875 42.261 -38.978 Q42.261 -40.704 41.386 -41.863 Q40.511 -43.021 39.147 -43.021 Q37.849 -43.021 36.998 -41.866 Q36.146 -40.712 36.146 -39.274 H27.073 Q27.073 -44.591 30.681 -48.392 Q34.29 -52.193 39.349 -52.193 Q44.431 -52.193 47.932 -48.347 Q51.433 -44.501 51.433 -39.126 Q51.433 -36.038 50.447 -33.366 Q49.46 -30.693 47.735 -28.573 H51.722 Q54.096 -28.573 55.649 -30.028 Q57.203 -31.482 57.203 -33.307 V-40.013 Q57.203 -47.758 51.998 -53.157 Q46.794 -58.555 39.25 -58.555 Q31.659 -58.555 26.333 -53.421 Q21.007 -48.287 21.007 -40.54 Q21.007 -36.216 24.14 -32.789 Q27.274 -29.362 31.706 -29.362 Z"/></g><g id="Semibold-S" transform="matrix(1 0 0 1 1998.1 696)"><path d="M13.194 -5.917 Q13.194 -11.609 15.66 -16.258 Q18.125 -20.908 22.317 -24.12 Q18.119 -26.388 15.657 -30.874 Q13.194 -35.358 13.194 -40.416 Q13.194 -51.398 20.871 -58.833 Q28.548 -66.269 39.405 -66.269 Q46.298 -66.269 52.01 -63.135 Q57.721 -60 61.075 -54.415 Q62.948 -56.825 65.824 -58.226 Q68.701 -59.629 72.176 -59.629 Q78.668 -59.629 83.45 -56.376 Q88.231 -53.125 88.231 -47.846 Q88.231 -43.337 85.243 -40.296 Q82.255 -37.256 78.038 -37.256 H76.555 V-24.317 Q76.555 -16.653 71.159 -11.285 Q65.764 -5.917 58.05 -5.917 H13.194 Z M32.177 -29.19 Q36.605 -29.19 39.755 -32.268 Q42.904 -35.347 42.904 -39.363 Q42.904 -41.304 41.943 -42.27 Q40.983 -43.235 39.619 -43.235 Q38.064 -43.235 37.084 -42.124 Q36.104 -41.011 36.104 -39.573 H28.101 Q28.101 -44.42 31.474 -47.856 Q34.847 -51.293 39.649 -51.293 Q44.388 -51.293 47.674 -47.897 Q50.962 -44.501 50.962 -39.426 Q50.962 -36.423 49.868 -33.537 Q48.774 -30.651 46.92 -28.401 H52.108 Q54.439 -28.401 55.992 -29.899 Q57.546 -31.396 57.546 -33.349 V-39.928 Q57.546 -47.544 52.32 -52.878 Q47.094 -58.212 39.55 -58.212 Q31.958 -58.212 26.654 -53.142 Q21.35 -48.073 21.35 -40.454 Q21.35 -36.045 24.504 -32.617 Q27.659 -29.19 32.177 -29.19 Z"/></g><g id="Medium-S" transform="matrix(1 0 0 1 1701.85 696)"><path d="M14.288 -7.01 Q14.288 -12.349 16.753 -16.805 Q19.219 -21.262 23.411 -24.441 Q19.245 -26.71 16.766 -31.083 Q14.288 -35.455 14.288 -40.352 Q14.288 -50.883 21.707 -58.029 Q29.127 -65.176 39.63 -65.176 Q46.33 -65.176 51.962 -62.057 Q57.593 -58.938 60.946 -53.417 Q62.82 -55.859 65.615 -57.278 Q68.411 -58.696 71.661 -58.696 Q77.671 -58.696 82.307 -55.685 Q86.945 -52.674 86.945 -47.492 Q86.945 -43.24 84.085 -40.36 Q81.226 -37.482 77.17 -37.482 H75.461 V-24.639 Q75.461 -17.296 70.291 -12.153 Q65.121 -7.01 57.76 -7.01 H14.288 Z M32.531 -29.062 Q37.023 -29.062 40.204 -32.382 Q43.386 -35.7 43.386 -39.653 Q43.386 -41.754 42.361 -42.576 Q41.337 -43.396 39.973 -43.396 Q38.225 -43.396 37.148 -42.316 Q36.071 -41.236 36.071 -39.799 H28.873 Q28.873 -44.291 32.069 -47.455 Q35.265 -50.617 39.874 -50.617 Q44.356 -50.617 47.481 -47.559 Q50.607 -44.501 50.607 -39.651 Q50.607 -36.713 49.434 -33.666 Q48.26 -30.618 46.308 -28.273 H52.397 Q54.696 -28.273 56.25 -29.803 Q57.803 -31.332 57.803 -33.382 V-39.863 Q57.803 -47.384 52.561 -52.669 Q47.319 -57.954 39.774 -57.954 Q32.184 -57.954 26.896 -52.933 Q21.608 -47.912 21.608 -40.39 Q21.608 -35.916 24.778 -32.489 Q27.948 -29.062 32.531 -29.062 Z"/></g><g id="Regular-S" transform="matrix(1 0 0 1 1405.73 696)"><path d="M15.09 -7.812 Q15.09 -12.891 17.555 -17.206 Q20.021 -21.521 24.212 -24.677 Q20.07 -26.945 17.58 -31.236 Q15.09 -35.526 15.09 -40.304 Q15.09 -50.506 22.321 -57.439 Q29.551 -64.374 39.795 -64.374 Q46.354 -64.374 51.926 -61.267 Q57.498 -58.16 60.852 -52.687 Q62.726 -55.152 65.462 -56.582 Q68.199 -58.012 71.283 -58.012 Q76.939 -58.012 81.47 -55.178 Q86.001 -52.343 86.001 -47.233 Q86.001 -43.169 83.236 -40.408 Q80.471 -37.646 76.533 -37.646 H74.659 V-24.874 Q74.659 -17.767 69.654 -12.79 Q64.649 -7.812 57.548 -7.812 H15.09 Z M32.791 -28.967 Q37.33 -28.967 40.535 -32.464 Q43.74 -35.96 43.74 -39.865 Q43.74 -42.084 42.668 -42.799 Q41.596 -43.514 40.232 -43.514 Q38.342 -43.514 37.195 -42.458 Q36.047 -41.402 36.047 -39.964 H29.44 Q29.44 -44.197 32.506 -47.16 Q35.572 -50.122 40.04 -50.122 Q44.332 -50.122 47.34 -47.312 Q50.348 -44.501 50.348 -39.816 Q50.348 -36.925 49.115 -33.76 Q47.882 -30.595 45.861 -28.178 H52.61 Q54.885 -28.178 56.438 -29.732 Q57.992 -31.285 57.992 -33.405 V-39.816 Q57.992 -47.265 52.738 -52.516 Q47.484 -57.766 39.94 -57.766 Q32.349 -57.766 27.073 -52.78 Q21.796 -47.794 21.796 -40.343 Q21.796 -35.822 24.979 -32.395 Q28.161 -28.967 32.791 -28.967 Z"/></g><g id="Light-S" transform="matrix(1 0 0 1 1109.75 696)"><path d="M16.873 -9.557 Q16.873 -14.523 19.585 -18.515 Q22.297 -22.507 26.659 -25.17 Q22.232 -26.964 19.552 -31.217 Q16.873 -35.469 16.873 -40.475 Q16.873 -49.861 23.658 -56.235 Q30.443 -62.609 40.099 -62.609 Q46.847 -62.609 52.391 -59.313 Q57.934 -56.017 60.814 -50.297 Q62.156 -53.065 64.865 -54.695 Q67.573 -56.324 70.79 -56.324 Q75.934 -56.324 80.124 -53.85 Q84.313 -51.377 84.313 -46.758 Q84.313 -43.169 81.861 -40.749 Q79.409 -38.329 75.945 -38.329 H73.217 V-25.197 Q73.217 -18.678 68.573 -14.117 Q63.928 -9.557 57.396 -9.557 H16.873 Z M33.284 -28.361 Q38.108 -28.361 41.502 -31.695 Q44.897 -35.031 44.897 -39.296 Q44.897 -41.914 43.55 -43.255 Q42.204 -44.595 40.232 -44.595 Q38.248 -44.595 36.91 -43.426 Q35.573 -42.255 35.573 -40.646 H30.843 Q30.843 -44.253 33.577 -46.79 Q36.312 -49.325 40.192 -49.325 Q44.256 -49.325 46.942 -46.496 Q49.627 -43.666 49.627 -39.247 Q49.627 -36.015 48.158 -32.888 Q46.687 -29.76 44.267 -27.572 H52.59 Q55.113 -27.572 56.874 -29.324 Q58.637 -31.076 58.637 -33.443 V-39.703 Q58.637 -47.246 53.269 -52.563 Q47.901 -57.879 40.243 -57.879 Q32.462 -57.879 27.082 -52.894 Q21.701 -47.907 21.701 -40.513 Q21.701 -35.651 25.055 -32.006 Q28.408 -28.361 33.284 -28.361 Z"/></g><g id="Thin-S" transform="matrix(1 0 0 1 814.015 696)"><path d="M18.655 -11.302 Q18.655 -16.154 21.614 -19.824 Q24.572 -23.494 29.106 -25.663 Q24.395 -26.983 21.525 -31.198 Q18.655 -35.412 18.655 -40.645 Q18.655 -49.216 24.995 -55.031 Q31.334 -60.846 40.402 -60.846 Q47.34 -60.846 52.855 -57.359 Q58.371 -53.874 60.776 -47.907 Q61.587 -50.979 64.267 -52.808 Q66.948 -54.636 70.297 -54.636 Q74.929 -54.636 78.777 -52.523 Q82.625 -50.409 82.625 -46.285 Q82.625 -43.169 80.486 -41.09 Q78.347 -39.012 75.357 -39.012 H71.776 V-25.519 Q71.776 -19.588 67.492 -15.445 Q63.208 -11.302 57.244 -11.302 H18.655 Z M33.777 -27.753 Q38.885 -27.753 42.47 -30.928 Q46.054 -34.102 46.054 -38.727 Q46.054 -41.743 44.433 -43.71 Q42.81 -45.676 40.232 -45.676 Q38.153 -45.676 36.626 -44.392 Q35.099 -43.108 35.099 -41.33 H32.246 Q32.246 -44.31 34.649 -46.42 Q37.051 -48.53 40.343 -48.53 Q44.18 -48.53 46.543 -45.68 Q48.906 -42.832 48.906 -38.678 Q48.906 -35.105 47.2 -32.015 Q45.493 -28.926 42.674 -26.964 H52.571 Q55.34 -26.964 57.311 -28.916 Q59.282 -30.868 59.282 -33.481 V-39.588 Q59.282 -47.228 53.8 -52.611 Q48.318 -57.994 40.547 -57.994 Q32.577 -57.994 27.091 -53.007 Q21.607 -48.022 21.607 -40.684 Q21.607 -35.481 25.131 -31.617 Q28.655 -27.753 33.777 -27.753 Z"/></g><g id="Ultralight-S" transform="matrix(1 0 0 1 517.792 696)"><path d="M19.725 -12.349 Q19.725 -17.132 22.832 -20.609 Q25.938 -24.085 30.574 -25.959 Q25.692 -26.995 22.708 -31.186 Q19.725 -35.378 19.725 -40.748 Q19.725 -48.829 25.797 -54.308 Q31.869 -59.788 40.584 -59.788 Q47.636 -59.788 53.134 -56.188 Q58.633 -52.588 60.753 -46.473 Q61.246 -49.728 63.909 -51.676 Q66.572 -53.624 70.001 -53.624 Q74.326 -53.624 77.969 -51.726 Q81.612 -49.828 81.612 -46 Q81.612 -43.169 79.66 -41.295 Q77.71 -39.422 75.004 -39.422 H70.911 V-25.713 Q70.911 -20.134 66.843 -16.242 Q62.775 -12.349 57.153 -12.349 H19.725 Z M34.073 -27.389 Q39.351 -27.389 43.05 -30.466 Q46.748 -33.544 46.748 -38.386 Q46.748 -41.641 44.961 -43.983 Q43.174 -46.325 40.232 -46.325 Q38.096 -46.325 36.456 -44.973 Q34.815 -43.621 34.815 -41.739 H33.089 Q33.089 -44.345 35.292 -46.198 Q37.495 -48.051 40.434 -48.051 Q44.135 -48.051 46.304 -45.191 Q48.474 -42.331 48.474 -38.337 Q48.474 -34.558 46.625 -31.492 Q44.776 -28.425 41.718 -26.6 H52.56 Q55.477 -26.6 57.572 -28.671 Q59.668 -30.743 59.668 -33.504 V-39.52 Q59.668 -47.216 54.118 -52.639 Q48.569 -58.062 40.729 -58.062 Q32.645 -58.062 27.097 -53.076 Q21.55 -48.09 21.55 -40.787 Q21.55 -35.378 25.176 -31.384 Q28.802 -27.389 34.073 -27.389 Z"/></g></g></svg>