<svg xmlns="http://www.w3.org/2000/svg" height="40" viewBox="0 -960 960 960" width="40"><path d="M520-133.67V-400h346.33v266.33H520Zm23.17-23.16h300v-220h-300v220Zm-122.5 23.16L406-244.5q-21-6-48.33-21-27.34-15-47.67-33.5l-101.33 45-59.84-106 89.34-66.33q-2.5-13-3.75-26.17-1.25-13.17-1.25-26.5 0-11.5 1.33-25.08 1.33-13.59 3.33-29.92l-89-67.67 59.84-103.16 101 43.5q20.83-16.84 46-31.75Q380.83-708 405-715.17l15.67-111.33h119.5l14.66 111.83q26 9.34 48.09 22.25 22.08 12.92 43.75 31.09l106.16-43.5L812-601.67l-93.83 70.34q3.16 14.66 4.08 26.83.92 12.17.92 24.5H562.5q0-36-24.75-60.58-24.75-24.59-60.42-24.59-36.16 0-60.66 24.59-24.5 24.58-24.5 60.58 0 26.5 12.91 46.5 12.92 20 34.75 30.33v269.5h-19.16Z"/></svg>