<svg xmlns="http://www.w3.org/2000/svg" height="24" viewBox="0 -960 960 960" width="24"><path d="M520-60.78V-400h422.61v339.22H520Zm106-106h210.61V-294H626v127.22Zm-272.39 106L336.48-195q-8.72-3.36-16.42-8.07-7.71-4.71-15.32-9.89l-124.65 52.83L53.13-380.65l107.52-81.39q-.43-4.65-.43-8.96v-17.91q0-4.31.43-9.05L53.13-579.35l126.96-219.39 125.78 52.26q7.61-5.17 15.09-9.63 7.47-4.46 15.52-7.76l17.13-135.35h252.78l17.13 135.35q8.72 3.21 16.42 7.72 7.71 4.5 15.32 9.67l124.65-52.26 126.96 219.39-108.09 81.39q.44 4.18.44 8.7v8.69H620.3q-.56-58-41.4-98.71Q538.07-620 480.3-620q-58 0-99 41t-41 99q0 48 27.85 84.28Q396-359.43 439.43-346v285.22h-85.82Z"/></svg>