<svg xmlns="http://www.w3.org/2000/svg" height="20" viewBox="0 -960 960 960" width="20"><path d="M528-86.78V-384h396.61v297.22H528Zm93-93h210.61V-291H621v111.22Zm-228.89 93L368.98-204q-7.72-2.86-26.67-12.82-18.96-9.96-46.57-27.64l-112.15 37.83-88.96-155.52 89.52-77.89q-1.43-9.15-2.43-18.46-1-9.31-1-21.45 0-9.64 1.25-19.96 1.25-10.31 2.68-22.05l-90.02-77.89 88.96-153.39 114.78 39.26q14.61-13.17 31.84-22.63 17.22-9.46 38.77-17.76l23.13-119.85h175.78l23.13 118.35q19.72 7.71 37.67 17.47 17.96 9.75 33.57 24.42l114.15-38.26 88.96 153.39-93.09 78.89q1.44 9.18 2.44 18.45t1 20.94q-1 6-1 12t-1 12H612.8q2-5 2-12v-12q-.56-58-40.9-98.21Q533.57-619 475.8-619q-58 0-98.5 40.5T336.8-480q0 52.5 34.35 91.53 34.35 39.04 84.78 45.97v255.72h-63.82Z"/></svg>