<svg xmlns="http://www.w3.org/2000/svg" height="20" viewBox="0 -960 960 960" width="20"><path d="M528-72v-312h414v312H528Zm113-113h188v-86H641v86ZM379.5-72l-24-122q-4.42-1.61-20.46-9.8Q319-212 294-227.5l-116.5 40-102-179 93-80.5q-1-7.33-2-14.96-1-7.63-1-17.95 0-7.83 1.25-16.46T169-515l-93.5-80.5 102-176 120 41q12-11 25.75-18.5t32.25-14.5l24-125.5h201l24 124q16.42 6.34 31.46 14.17T664-730.5l118.5-40 102 176-97 81.5q1 7 2 14.75t1 17.25q-1 6-1 12t-1 12h-177q2-5 2-12v-12q-1-58-41.21-98-40.2-40-97.79-40-58 0-98.5 40.5T335.5-480q0 52.5 35 91.75t85 45.75V-72h-76Z"/></svg>