<svg xmlns="http://www.w3.org/2000/svg" height="20" viewBox="0 -960 960 960" width="20"><path d="M528-97.87V-384h383.57v286.13H528Zm78-78h227.57V-306H606v130.13Zm-204.43 78L379.09-211.5q-10.19-3.81-31.34-15.09-21.14-11.28-50.71-30.58l-108.89 36.19-79.17-137.91 86.91-75.94q-1.76-10.5-2.76-21.07-1-10.58-1-24.08 0-11 1.25-22.58 1.25-11.57 3.01-24.61l-87.41-75.94 79.17-136.43 110.87 37.95q16.57-14.8 36.4-25.73 19.84-10.92 43.67-20.2l22.48-115.61h156.86l22.48 114.11q22.19 8.74 42.34 19.94 20.14 11.19 37.71 27.49l110.89-36.95 79.17 136.43-90.15 76.94q1.76 10.8 2.76 21.21 1 10.42 1 23.72-1 6-1 12t-1 12H613.78q2-5 2-12v-12q-.24-58-40.67-98.38Q534.68-619 476.78-619q-58 0-98.5 40.5t-40.5 98.5q0 52.5 33.86 91.37 33.86 38.87 84.62 46.13v244.63h-54.69Z"/></svg>