<svg xmlns="http://www.w3.org/2000/svg" height="48" viewBox="0 -960 960 960" width="48"><path d="M520-70.87V-400h411.96v329.13H520Zm77.28-76.72h257.96v-175.69H597.28v175.69ZM378.29-70.87 358-199.89q-10.34-2.86-29.43-13.67t-38.27-24.05l-119.95 55.26-103.5-183.17 110.39-80.26q-1.44-7.23-1.94-16.59-.5-9.35-.5-17.58 0-6.73.5-16.84.5-10.1 1.94-18.43L66.85-596.04l103.5-181.55 122.23 55.2q11.46-9.68 29.89-20.23 18.42-10.55 35.53-15.92l20.55-131.66h203.39l20.56 130.16q15.73 5.81 34.6 16.14 18.86 10.33 31.6 21.51l122.02-55.2 102.93 181.55-112.45 79.82q-.07 7.74.96 17.33 1.04 9.59 1.04 17.32H604.37q-.57-52.43-37.68-89.18-37.12-36.75-88.82-36.75-54.07 0-90.78 37.25Q350.37-533 350.37-480q0 42.5 23.78 75.28 23.78 32.79 61.78 44.97v288.88h-57.64Z"/></svg>