<svg xmlns="http://www.w3.org/2000/svg" height="40" viewBox="0 -960 960 960" width="40"><path d="M520-110.67V-400h374.67v289.33H520ZM561.33-152h292v-206.67h-292V-152Zm-157 41.33-16-116.33q-18.33-5.67-43.11-19.12-24.78-13.46-40.89-28.55l-108 47L121-364.33 212.33-434q-1-10.33-2.5-22.83-1.5-12.5-1.5-23.5 0-10 1.5-22.34 1.5-12.33 2.5-26.66l-91.33-69L196.33-731l104.34 44.67q19-15.34 42.66-28.84 23.67-13.5 44.34-20.5l16.66-115h152l15 116.34q23.67 9 44.17 20.83 20.5 11.83 39.83 27.5L765-731l74.67 132.67-97.34 72.66q3 13.15 3.84 23.67.83 10.52.83 20.67H580.33q0-44.34-30.7-74.5Q518.93-586 475.67-586q-43.94 0-74.3 30.24Q371-525.53 371-481.78q0 33.11 16.33 58.28Q403.67-398.33 431-386v275.33h-26.67Z"/></svg>