<svg xmlns="http://www.w3.org/2000/svg" height="48" viewBox="0 -960 960 960" width="48"><path d="M520-64v-336h420v336H520Zm73-73h274v-190H593v190ZM377-64l-21-130q-16-6-35.28-16.95Q301.44-221.91 287-233l-122 55L61-364l109-81q-1-6.67-1.5-17.5T168-481q0-7.67.5-18.5T170-518L61-598l104-185 120 55q14-11 34-22.5t37-17.5l21-129h207l20 129q17 6 37.5 17.5T675-728l121-55 104 185-111 79q0 9.15 1 19t1 18H622q0-60-42.2-101.5T479-625q-60.6 0-102.3 42.07Q335-540.86 335-481.45q0 48.45 26 84.95t69 51.5v281h-53Z"/></svg>