<svg xmlns="http://www.w3.org/2000/svg" height="40" viewBox="0 -960 960 960" width="40"><path d="M520-58.67V-400h426.67v341.33H520ZM622-160h223.33v-138.67H622V-160ZM361.17-58.67 341.5-192.33q-3.42-.28-16.79-7.81-13.38-7.53-30.38-17.69L170.5-162.17 49.83-374.83 161.5-457q-.67-4.69-1-10.79-.33-6.1-.33-12.12 0-4.19.41-11.13.42-6.94 1.09-13.29l-111.84-82.5 120.67-210 127.17 55.33q7.16-6 19.41-13t24.42-11l19.99-137.17h237.34l20 135.67q10.96 4.04 23.73 11.02 12.77 6.98 21.77 14.48l126.17-55.33 120 210-114.67 82.5q-.33 4.66.5 11.08.84 6.42.84 11.58h-191q-1-53.33-38.88-90.83-37.87-37.5-90.46-37.5-55 0-92.5 38t-37.5 92q0 43.83 25.34 77.75 25.33 33.92 64.66 45.45v298.13h-75.66Z"/></svg>