<svg xmlns="http://www.w3.org/2000/svg" height="40" viewBox="0 -960 960 960" width="40"><path d="M520-86.67V-400h393.33v313.33H520ZM583.33-150H850v-186.67H583.33V-150Zm-197.5 63.33-18.66-124.66q-9.67-3.17-28.42-13.75-18.75-10.59-41.08-25.09l-115.84 51.34L86.5-366.17l105-77.5q-1.67-8.16-2-17.5-.33-9.33-.33-18.83 0-7.67.41-17.83.42-10.17 2.09-19.84L86.5-594.83l95.33-166.67 117 52q13.34-11 31.59-21.5t36.75-16.83L385.83-874H574.5l18.67 124.67q17.33 6.5 35.75 16.91Q647.33-722 661-709.5l117.5-52 95.33 166.67-107 77.16q.67 9 1.17 18.25.5 9.25.5 18.75h-160q0-54-37.83-91.66Q532.83-610 479.17-610q-54.34 0-92.17 38t-37.83 92q0 43.83 24.5 77.25t64.16 46.25v269.83h-52Z"/></svg>