<svg xmlns="http://www.w3.org/2000/svg" height="20" viewBox="0 -960 960 960" width="20"><path d="M528-50v-334h439v334H528Zm128-128h183v-78H656v78ZM365-50l-25-127q-13.42-6.11-26.49-13.01-13.07-6.9-24.51-16.99l-124 43L50-368l96-83q-1-6.5-1.5-14.46-.5-7.96-.5-15.45 0-7.5.5-14.96.5-7.46 1.5-14.13l-96-84 115-201 124 42q12-9 25-16t27-13l24-129h230l24 129q14.42 5.84 28.21 12.92Q661-762 673-752l122-42 115 201-98 83q1 7.15 2 14t1 14q-1 6-1 12t-1 12H629q2-5 2-12v-12q-1-64-45.91-109-44.9-45-109.09-45-64.6 0-109.8 45.57T321-481.45q0 57.45 37.5 100.95T450-329v279h-85Z"/></svg>