<svg xmlns="http://www.w3.org/2000/svg" height="40" viewBox="0 -960 960 960" width="40"><path d="M520-98.67V-400h386.67v301.33H520Zm51.18-51.18h284.31v-198.97H571.18v198.97ZM395.72-98.67 378.8-218.54q-17.11-5.59-39.73-17.97-22.63-12.37-37.81-26.08l-111.7 48.69-84.1-151.74L200.64-438q-.92-9.33-2.15-20.95-1.23-11.61-1.23-21.61 0-9.23 1.23-20.72 1.23-11.49 2.15-24.05l-95.18-71.54 84.1-148.36 108.26 46.74q17.39-13.87 39.4-26.41 22.01-12.54 41.14-19.23l17.36-118.54h169.23l15.92 119.64q21.44 8.24 41.09 19.49 19.66 11.26 37.14 25.39l112.52-47.08 83.59 148.36-100.26 74.36q2.31 11.84 3.1 21.74.8 9.9.8 19.28H591.87q0-48.72-33.89-82.07-33.89-33.36-81.54-33.36-48.48 0-82.03 33.5-33.56 33.51-33.56 81.64 0 37.34 19.06 65.66 19.06 28.33 50.63 41.35v276.1h-34.82Z"/></svg>