<svg xmlns="http://www.w3.org/2000/svg" height="24" viewBox="0 -960 960 960" width="24"><path d="M520-71.87V-400h409.57v328.13H520Zm91-91h227.57V-309H611v146.13Zm-247.93 91L346.59-202.5q-11.19-4.31-21.09-10.34-9.89-6.03-19.46-12.83l-121.39 51.19L67.48-377.39l104.91-79.44q-.76-6-.76-11.57v-23.16q0-5.57.76-11.61L67.48-582.61l117.17-202.43 121.87 50.95q9.57-6.8 19.65-12.73 10.09-5.92 20.42-10.2l16.48-131.11h233.86l16.48 131.11q11.19 4.24 21.09 10.19 9.89 5.94 19.46 12.74l121.39-50.95 117.17 202.43-105.15 79.44q.76 5.8.76 11.46v11.47H621.28q-.24-58-41.17-98.88Q539.18-620 481.28-620q-58 0-99 41t-41 99q0 48 27.36 84.12Q396-359.76 439.76-346v274.13h-76.69Z"/></svg>