<svg xmlns="http://www.w3.org/2000/svg" height="24" viewBox="0 -960 960 960" width="24"><path d="M520-81.87V-400h399.57v318.13H520Zm86-86h227.57V-314H606v146.13Zm-237.43 86L352.09-209.5q-.19.19-11.34-6.09-11.14-6.28-32.71-17.58l-117.89 49.19L77.98-378.89l102.91-77.94q-.76-5.5-.76-10.57v-12.58q0-5 .25-11.08.25-6.07 1.01-14.11L77.98-582.11l112.17-193.43 119.87 49.95q8.57-6.8 18.9-12.73 10.34-5.92 23.17-11.2l16.48-129.61h222.86l16.48 128.11q12.19 4.74 22.34 10.94 10.14 6.19 19.71 14.49l119.89-49.95 112.17 193.43-106.15 78.94q.76 5.8.76 10.71v12.22H613.78q-.24-56-39.67-95.38Q534.68-615 478.78-615q-56 0-95.5 39.5t-39.5 95.5q0 46.5 26.86 81.87 26.86 35.37 69.62 47.63v268.63h-71.69Z"/></svg>