<svg xmlns="http://www.w3.org/2000/svg" height="24" viewBox="0 -960 960 960" width="24"><path d="M520-126.15V-400h353.85v273.85H520Zm36.92-36.93h280v-200h-280v200Zm-147.96 36.93L394.5-240q-12.77-3.19-35.71-15.63-22.94-12.45-45.94-29.56L208.5-241.04l-71.54-125.08 91-68.42q-2.15-10.73-3.11-21.73-.97-11-.97-22.96 0-9.46 1.22-20.89 1.21-11.42 2.98-26.57l-91.12-68.19 71.54-122.93 104.69 44q17.31-14.54 38.21-26.73 20.91-12.19 42.33-19.34l15.23-114.58h142.46l14.46 114.61q23.24 8.2 41.14 18.91 17.9 10.71 36.6 27.13l108.26-44 71.54 122.93-95.92 71.73q2.92 12.38 3.5 22.17.58 9.79.58 20.98H574.5q0-40.62-28.15-68.77-28.16-28.15-68.77-28.15-41 0-68.96 28.15-27.97 28.15-27.97 68.77 0 31.12 16.31 55.02 16.31 23.9 43.54 34.48v264.35h-31.54Z"/></svg>