<svg xmlns="http://www.w3.org/2000/svg" height="20" viewBox="0 -960 960 960" width="20"><path d="M528-106v-278h374v278H528Zm67-67h240v-144H595v144Zm-186.5 67-22-111q-12-4.5-34.75-16.75T298-266.5l-106.5 35-72-125 85-74.5q-2-11.5-3-23t-1-26q0-12 1.25-24.5T205-531l-85.5-74.5 72-124 108 37q18-16 39.75-28t47.25-22l22-112.5h143l22 111q24 9.5 45.75 21.75T660-692.5l108.5-36 72 124-88 75.5q2 12 3 23.25t1 25.75q-1 6-1 12t-1 12h-140q2-5 2-12v-12q0-58-40.5-98.5T477.5-619q-58 0-98.5 40.5T338.5-480q0 52.5 33.5 91.25t84.5 46.25V-106h-48Z"/></svg>