<svg xmlns="http://www.w3.org/2000/svg" height="48" viewBox="0 -960 960 960" width="48"><path d="M520-61.17V-400h422.83v338.83H520Zm83.74-83.18h255.91v-172.48H603.74v172.48ZM372.2-61.17l-20.72-131.7q-15.11-4.93-32.86-15.29-17.74-10.36-30.49-20.32L165-172.35 55.91-366.26l111.26-81.57q-1-5.46-1.21-15.78-.22-10.32-.22-16.78 0-6.46.22-16.49.21-10.04 1.21-16.6L55.91-595.74 165-788.09l123.53 56.13q11.6-8.74 29.9-19.39 18.31-10.65 33.05-15.52l20.99-132.96h216.05l20 132.4q16 4.81 34.17 15.49 18.18 10.68 30.05 19.98l123.83-56.13 108.52 192.35-113.26 80.13q0 8.58 1.28 17.59 1.28 9 1.28 16.02h-182q-.56-54.91-40.06-93.87-39.49-38.96-93.33-38.96-57.21 0-95.8 39.53-38.59 39.53-38.59 94.42 0 45.05 24.3 79.58 24.31 34.52 65.05 47.57v292.56H372.2Z"/></svg>