<svg xmlns="http://www.w3.org/2000/svg" height="24" viewBox="0 -960 960 960" width="24"><path d="M520-34v-366h455v366H520Zm136-136h183v-94H656v94ZM332-34l-19-141q-3.42-2.11-6.49-4.01-3.07-1.9-6.51-3.99l-133 56L19-388l112-85q0-1.5.5-3.96t.5-3.95q0-1.5-.5-3.46T131-488L19-573l148-258 133 54q4-1 7.5-3t6.5-4l18-143h296l18 143q4.42 1.84 8.21 3.92Q658-778 662-776l131-55 148 258-114 85v6H629q-1-62-44.91-106-43.9-44-106.09-44-62.6 0-106.8 44.57Q327-542.86 327-481.45 327-430 357.5-390t76.5 53v303H332Z"/></svg>