<svg xmlns="http://www.w3.org/2000/svg" height="48" viewBox="0 -960 960 960" width="48"><path d="M520-59v-341h425v341H520Zm92-91h242v-159H612v159ZM368.51-59 348-192q-14.42-4.11-30.99-14.01-16.57-9.9-28.01-18.99l-124 57L52-368l113-82q-1-4.53-1-14.46v-30.41q0-9.43 1-15.13L52-594l113-198 126.25 57q9.75-7 26.75-17t30-14l20.98-136H592l20 135q15.22 3.89 31.61 13.95Q660-743 671-735l126-57 112 198-115 81q0 8.15 1.5 16.5T797-482H605q-1-51-38.41-88-37.4-37-87.59-37-54.6 0-90.8 37.57-36.2 37.57-36.2 88.98Q352-438 375-405t62 44.55V-59h-68.49Z"/></svg>