<svg xmlns="http://www.w3.org/2000/svg" height="40" viewBox="0 -960 960 960" width="40"><path d="M520-58.67V-400h426.67v341.33H520Zm84-84h258.67V-316H604v173.33Zm-237 84-20-131.66q-13-5.34-28.45-14.12-15.44-8.79-27.55-17.88L167-168 53.67-370l108-81.33q-.67-6-1-14.67-.34-8.67-.34-15.33 0-6.67.34-15.34.33-8.66 1-15.33l-108-80L167-792.67 288.33-739q12-9 28.5-18.33 16.5-9.34 30.5-15L367-902.67h226.67l19 130.67q14 5.67 30.83 15t28.17 18.33l122-54L907-592l-110 80q0 7.48.67 15.33.66 7.86.66 14.67h-168q0-63.33-44.53-107.33t-106.8-44q-63.6 0-107.8 44.4-44.2 44.4-44.2 107.15 0 51.45 28.17 90.28 28.16 38.83 73.83 54.17v278.66h-62Z"/></svg>