<svg xmlns="http://www.w3.org/2000/svg" height="24" viewBox="0 -960 960 960" width="24"><path d="M520-137v-263h343v263H520Zm25.5-25.5h292v-212h-292v212ZM419-137l-14-110.5q-16-4-42-18T314-298l-101 43-61.5-108 88-66q-2.5-12-3.75-24.5T234.5-479q0-10.5 1.5-23.25l3.5-29.75-88-66L213-703.5 314-661q19.5-16.5 43-30.25t47-21.25l15-111h122.5l14 111.5q26 9 45.75 20.75T642-661l105.5-42.5L809-598l-93.5 70q3.5 14 4.25 25t.75 23h-158q0-36-24.75-60.75T477-565.5q-36.5 0-61 24.75T391.5-480q0 26.5 13.25 47t35.75 30.5V-137H419Z"/></svg>