<svg xmlns="http://www.w3.org/2000/svg" height="40" viewBox="0 -960 960 960" width="40"><path d="M520-54.15V-400h431.38v345.85H520Zm96.81-96.43h238.13v-152.99H616.81v152.99ZM360.98-54.15l-20.01-133.92q-11.73-4.27-25.27-12.18-13.53-7.91-23.76-15.68l-125.69 55.65L46.51-372.64l110.64-82.27q-.67-4.6-.72-12.57-.05-7.97-.05-13.24 0-5.27.05-12.95.05-7.69.72-13.05L46.51-589.17l119.74-210.47 125.38 54.99q9.65-6.74 23.88-14.94 14.24-8.21 25.79-12.55L361.15-907h238.36l19.19 134.62q12.65 4.28 26.86 12.52 14.21 8.24 24.03 15.54l125.21-55.32 119.36 210.47-112.64 81.31q0 6.73.86 13.55.85 6.81.85 12.31H620.54q-.57-58.43-42.3-99.8-41.73-41.36-99.43-41.36-60.02 0-101.2 41.86-41.19 41.86-41.19 100.09 0 48.05 26.66 84.91 26.66 36.85 69.88 50.32v291.83h-71.98Z"/></svg>