<svg xmlns="http://www.w3.org/2000/svg" height="24" viewBox="0 -960 960 960" width="24"><path d="M520-40.09V-400h448.48v359.91H520Zm122.96-122.95h202.56v-114H642.96v114ZM338.52-40.09l-18.56-138.39q-4.98-2.93-10.1-5.94-5.11-3.01-10.29-6.41l-130.83 54.7L27.7-385.39l109.39-83.7q0-2.87.28-6.15.28-3.27.28-6.15 0-2.87-.28-5.86-.28-3-.28-5.97L27.7-576.04l141.04-246.7 129.09 52.7q5.74-2.74 11.84-6.05 6.11-3.3 11.29-6.61l17.56-138.65h282.96l17.56 139.09q5.98 3.21 12.25 6.56 6.28 3.35 12.01 6.66l127.96-53.7 141.04 246.7-111.39 83.69V-482H636.83q-.57-65.48-46.78-111.65-46.21-46.18-111.62-46.18-65.64 0-112.01 46.53-46.38 46.53-46.38 111.42 0 54.05 31.37 95.58 31.37 41.52 79.55 55.82v290.39h-92.44Z"/></svg>