<svg xmlns="http://www.w3.org/2000/svg" height="40" viewBox="0 -960 960 960" width="40"><path d="M520-50.67V-400h435v349.33H520Zm106.67-106H849V-294H626.67v137.33Zm-270.33 106-20.01-135.66q-10.75-3.44-22.82-10.68-12.07-7.23-20.84-13.99l-127 56.67L41-374.67l112.67-83q-.67-3.52-.5-10.95.16-7.44.16-11.63t-.16-11.12q-.17-6.94.5-11.3L41-587l124.67-218 128.5 56q7.83-5 20.33-12.33 12.5-7.34 22.17-10.67l19.99-138.33H604l19.33 137.66q11.62 3.21 23.81 10.61 12.19 7.39 20.86 13.39L795.67-805l124 218L805-504.67q0 6.15 1 12.17t1 10.5H613q-1-54.67-40.57-94-39.58-39.33-93.76-39.33-57.27 0-96.14 39.9-38.86 39.9-38.86 94.65 0 45.45 25.5 80.78T436-352.63v301.96h-79.66Z"/></svg>