<svg xmlns="http://www.w3.org/2000/svg" height="40" viewBox="0 -960 960 960" width="40"><path d="M520-56.75V-400h428.66v343.25H520Zm89.42-89.26H859.4v-164.73H609.42v164.73ZM364.45-56.75l-20-132.63q-12.46-4.88-27.1-13.29-14.64-8.42-25.95-16.95l-124.72 54.89L50.64-371.12l109.11-81.73q-.66-5.4-.88-13.78-.21-8.37-.21-14.44 0-6.08.21-14.33.22-8.25.88-14.37L50.64-590.8l116.04-204.82 123.05 54.23q11-8.04 26.55-16.9 15.54-8.85 28.5-13.96l19.75-132.25h231.61l19.08 132.34q13.43 5.08 29.15 13.95 15.72 8.87 26.42 17.15l123.36-54.56L910.03-590.8l-111.12 80.55q0 7.17.75 14.58t.75 13.67H626.19q-.24-61.26-43.59-104.14-43.35-42.89-103.68-42.89-62.09 0-105.01 43.33-42.92 43.32-42.92 104.16 0 50.01 27.52 88.01 27.53 37.99 72.16 52.54v284.24h-66.22Z"/></svg>