<svg xmlns="http://www.w3.org/2000/svg" height="48" viewBox="0 -960 960 960" width="48"><path d="M520-85v-315h395v315H520Zm57.5-57.5h280v-200h-280v200ZM391-85l-20-124.5q-13.5-4.5-35.25-16.75T292-254l-116 53-90.5-160 107-78q-2-9-2.5-20t-.5-21q0-8.5.5-20.25t2.5-21.75l-107-78L176-759.5 293-706q15-12.5 36.25-24.75T371-749.5l20-126h178.5l20 124.5q19 7 40.75 19T667-706l117.5-53.5L875-600l-108.5 77q.5 10 1.25 21t.75 21h-163q0-53-37-89.75T479-607.5q-53.5 0-90.5 37.25t-37 90.25q0 42.5 23.5 75t61.5 45.5V-85H391Z"/></svg>