<svg xmlns="http://www.w3.org/2000/svg" height="40" viewBox="0 -960 960 960" width="40"><path d="M520-79.97V-400h401.3v320.03H520Zm72.58-72.42h256.3v-175.19h-256.3v175.19ZM379.94-79.97l-18.91-126.82q-8.17-2.47-25.64-12.33-17.46-9.85-38.52-23.31l-117.75 52.36L77.73-368.24l106.6-78.61q-1.43-7.34-1.76-15.9-.34-8.56-.34-17.23 0-6.83.42-16.23.42-9.39 1.84-18.27L77.73-592.92l101.39-177.03 119.43 52.8q11.86-9.81 28.68-19.47 16.81-9.66 33.8-15.44l18.98-128.8h200.31l18.98 127.3q15.81 5.91 32.88 15.51 17.07 9.59 29.62 20.9l119.57-52.8L882.6-592.92l-108.83 78.44q.43 7.97 1.01 16.54.58 8.57.58 17.03H607.94q-.24-53.84-38.08-91.46Q532.02-610 478.61-610q-54.49 0-92.25 38-37.75 38-37.75 92 0 43.83 24.7 77.37 24.7 33.54 64.28 46.06v276.6h-57.65Z"/></svg>