<svg xmlns="http://www.w3.org/2000/svg" height="48" viewBox="0 -960 960 960" width="48"><path d="M520-84v-316h400v316H520Zm58.38-58.39h283.23v-199.23H578.38v199.23ZM389.69-84l-19.07-124.23q-17.54-6-39.51-18.3-21.98-12.3-37.57-25.32l-115.85 51.93-90.92-163.31 102.08-76.38q-1-8.21-1.89-20.01-.88-11.79-.88-21 0-8.82.88-20.61.89-11.8 1.89-22.16L86.77-599.15l90.92-161.16 113.46 51.16q16.31-12.93 38.24-25.58 21.92-12.65 40.84-19.04L389.69-877h181.62l18.07 123.62q20.08 7.15 41.16 19.23 21.07 12.07 36.77 25l116.38-51.16 90.54 161.16-105.62 76.3q1.16 11.07 2.16 21.5 1 10.43 1 19.73H603.92q0-53.07-37.2-89.57-37.2-36.5-88.87-36.5-53.3 0-90 36.88-36.69 36.87-36.69 89.36 0 41.91 21.76 73.41 21.77 31.5 58.23 45.35V-84h-41.46Z"/></svg>