<svg xmlns="http://www.w3.org/2000/svg" height="40" viewBox="0 -960 960 960" width="40"><path d="M520-70.84V-400h412.17v329.16H520Zm85.19-84.81h242.17v-159.54H605.19v159.54ZM371.9-70.84l-19.24-129.75q-6.14-1.53-21.85-10.39-15.71-8.86-35.03-20.91l-120.35 53.78L65.77-371.07l108.77-80.13q-1.1-6.2-1.43-13.71-.34-7.51-.34-15.04 0-5.7.42-14.04t1.52-16.14L65.77-590.31l109.66-191.16 122.74 53.88q9.85-8.17 24.71-16.69 14.86-8.52 29.78-13.54l19.41-132.38h216.18l19.42 130.88q13.73 5.11 28.96 13.59 15.23 8.47 26.25 18.14l122.4-53.88 109.28 191.16-111.33 80.18q.1 6.55.79 14.2.68 7.65.68 14.7H607.18q-.56-53.63-38.42-91.2T477.85-610q-54.71 0-92.36 38-37.64 38-37.64 92 0 43.83 24.97 77.53t64.45 45.8v285.83H371.9Z"/></svg>