<svg xmlns="http://www.w3.org/2000/svg" height="48" viewBox="0 -960 960 960" width="48"><path d="M520-62.8V-400h421.2v337.2H520Zm77.54-77.31h266.35V-322.7H597.54v182.59ZM374.97-62.8l-20.88-130.72q-15.62-5.55-34.26-16.25-18.63-10.7-32.35-21.32L165-175.61 58.85-364.96 168.8-446.2q-1-6.15-1.38-16.77-.38-10.61-.38-17.77t.38-17.65q.38-10.5 1.38-17.7L58.85-597.04 165-785.15l121.5 55.48q12.98-10.05 32.26-21.19 19.28-11.14 35.33-16.66l20.99-130.68h210.83l20 130.44q16.58 5.5 36.09 16.65 19.52 11.15 32.04 21.44l122.2-55.48 105.91 188.11-111.95 79.47q0 8.91 1.12 18.41 1.11 9.49 1.11 17.16h-174.5q-.23-57.85-41.29-98.27Q535.59-620.7 479-620.7q-59.17 0-99.55 41-40.38 40.99-40.38 98.49 0 47.01 25.28 82.68 25.28 35.66 67.32 49.84V-62.8h-56.7Z"/></svg>