<svg xmlns="http://www.w3.org/2000/svg" height="24" viewBox="0 -960 960 960" width="24"><path d="M520-44.65V-400h443.59v355.35H520Zm113.17-113.18h217.24v-129H633.17v129ZM343.41-44.65l-18.24-136.44q-6.14-3.54-12.79-7.39-6.66-3.84-13.14-8.22l-129.2 53.72L34.22-383.43l107.43-82.72q0-3.91.12-7.8.12-3.88.12-7.79t-.12-7.68q-.12-3.76-.12-7.71l-107.43-81.2 135.82-238.21 126.16 51.71q7.04-4.04 15.1-8.32 8.07-4.28 14.87-8.57l17.24-135.39h273.18l17.24 136.15q7.14 4.25 15.27 8.55 8.14 4.3 15.18 8.58l125.68-52.71 135.82 238.21-109.43 82.72V-482H642.7q-.24-68.09-48.18-115.89-47.93-47.81-115.76-47.81-67.93 0-115.93 48-48 47.99-48 115.49 0 56.01 32.02 98.68 32.02 42.66 81.82 57.94v280.94h-85.26Z"/></svg>