<svg xmlns="http://www.w3.org/2000/svg" height="20" viewBox="0 -960 960 960" width="20"><path d="M528-124.08V-384h355.92v259.92H528Zm47.96-47.96h260v-164h-260v164Zm-150.73 47.96L404-229.5q-17.38-5.85-45.23-20.69-27.85-14.85-58.85-37.66L199-254.77l-55.27-96.54 80-70.46q-2.57-13.61-4.06-27.61-1.48-14-1.48-30.24 0-13.73 1.73-28.44 1.74-14.71 4.12-31.79l-80.31-70.84L199-705.65l101.85 34.5q21.65-19.27 47.73-33.87 26.07-14.59 55.04-25.17l21.61-106.54h109.73l21.23 105.81q28.62 10.84 53.44 24.83 24.83 13.98 47.68 34.94l103.88-33.5 55.27 94.96-83.96 72.61q2.96 14.69 4.25 27.96 1.29 13.27 1.29 29.12-1 6-1 12t-1 12H594.5q2-5 2-12v-12q0-50.31-34.83-85.13-34.82-34.83-85.13-34.83-50.5 0-85.23 34.83-34.73 34.82-34.73 85.13 0 44.81 28.4 77.88 28.41 33.08 71.52 39.62v238.42h-31.27Z"/></svg>