<svg xmlns="http://www.w3.org/2000/svg" height="40" viewBox="0 -960 960 960" width="40"><path d="M520-78.67V-400h406.66v321.33H520Zm67.59-67.59h271.49v-186.15H587.59v186.15ZM381.36-78.67 362.9-204.44q-15.05-5.46-34.09-16.04-19.04-10.58-32.68-21.98l-117.85 51.51-98.71-176.87 101.59-76.85q-.8-7.66-1.58-17.8-.78-10.15-.78-18.48 0-7.95.78-18.02.78-10.08 1.58-19.7L79.57-594.44l98.71-174.51 114.8 50.21q14.69-11.44 33.95-22.37 19.25-10.94 35.82-17.12l18.51-124.43h197.95l17.46 125.15q17.72 6.95 35.96 17.24 18.24 10.3 32.65 21.86l117.26-50.54 98.46 174.51-105.13 77.18q1.16 9.66 1.89 18.54.73 8.88.73 16.98H611.1q0-56.03-39.21-94.71-39.21-38.68-94.17-38.68-56.04 0-94.92 38.96-38.88 38.95-38.88 94.39 0 44.39 23.62 77.97 23.61 33.58 62.23 47.76v277.38h-48.41Z"/></svg>