<svg xmlns="http://www.w3.org/2000/svg" height="48" viewBox="0 -960 960 960" width="48"><path d="M520-116v-284h368v284H520Zm35-35h298v-214H555v214Zm-145 35-16-115q-20-6-46.28-20.45Q321.44-265.91 304-282l-106 47-70-127 91-69q-1-10.67-2.5-24t-1.5-25q0-10.67 1.5-24t2.5-28l-91-69 70-123 103 45q20-16 45-30.5t47-21.5l17-114h141l15 115q25 9 47 22t42 29l109-45 69 123-97 72q3 14.15 4 25.5t1 22.5H575q0-42-29.2-70.5T476-580q-41.6 0-70.3 28.57-28.7 28.57-28.7 69.98 0 31.45 15 54.95 15 23.5 41 35.5v275h-23Z"/></svg>