<svg xmlns="http://www.w3.org/2000/svg" height="48" viewBox="0 -960 960 960" width="48"><path d="M520-60v-340h425v340H520Zm92.5-91.5h241v-157h-241v157ZM368.51-60 348-192.5q-7.92-1.61-24.96-11.3Q306-213.5 289-225l-123 57L52.5-369l113-82q-1-5.87-1.5-13.96t-.5-14.95q0-5.37.5-14.21t1.5-15.88l-113-83L166-791.5 292.25-735q8.75-7.5 25-16.75T348-765.5l20.98-136H591.5l21 134.5q13.22 4.89 29.86 13.95Q659-744 670-735l125.5-56.5L908-593l-115.5 82q-.5 6 .75 14.5t1.25 14.5h-191q-1-52-38.21-88.75-37.2-36.75-88.29-36.75-54.5 0-91 37.25T349.5-480q0 42.5 24 75.5t62 44.55V-60h-66.99Z"/></svg>