<svg xmlns="http://www.w3.org/2000/svg" height="40" viewBox="0 -960 960 960" width="40"><path d="M520-104.74V-400h375.26v295.26H520Zm47.88-47.89h279.49v-199.49H567.88v199.49Zm-168.65 47.89L382.1-224.09q-14.02-4.26-36.07-16.54-22.06-12.28-43.62-28.32l-110.26 48.9-81.67-143.74L209.45-437q-1.99-10.03-2.67-20.83-.69-10.81-.69-21.79 0-9.14.77-20.62t2.56-23.71l-98.94-73.51 81.67-142.24L303-690.97q16.22-13.25 37.13-25.45 20.91-12.19 41.59-18.85l17.51-120.46h162.06L578.42-736q20.67 7.59 40.5 18.97 19.82 11.38 36.57 26.06l113.14-48.73 81.42 142.24-101.94 74.54q1.63 11.18 2.29 21.55.66 10.37.66 20.96H590.81q0-47.08-32.8-79.71-32.81-32.64-79.55-32.64-47.34 0-80.05 32.84-32.7 32.84-32.7 79.92 0 37.17 20.04 65.42 20.05 28.26 52.85 40.13v269.71h-39.37Z"/></svg>