<svg xmlns="http://www.w3.org/2000/svg" height="24" viewBox="0 -960 960 960" width="24"><path d="M520-70.78V-400h412.61v329.22H520Zm101-101h210.61V-299H621v127.22Zm-261.89 101L341.98-202q2.28 1.14-6.67-3.82-8.96-4.96-28.57-14.64l-121.15 50.83L63.63-382.15l105.52-79.89q-.43-4.15-.43-7.96v-9.95q0-3.64.25-8.46.25-4.81.68-11.55L63.63-578.85l121.96-210.39 123.78 51.26q6.61-5.17 14.34-9.63 7.72-4.46 18.27-8.76l17.13-133.85h241.78l17.13 132.35q9.72 3.71 17.67 8.47 7.96 4.75 15.57 11.42l123.15-51.26 121.96 210.39-109.09 80.89q.44 4.18.44 7.95v9.44H612.8q-.56-56-39.9-95.21Q533.57-615 477.8-615q-56 0-95.5 39.5T342.8-480q0 46.5 27.35 82.03 27.35 35.54 69.78 47.47v279.72h-80.82Z"/></svg>