<svg xmlns="http://www.w3.org/2000/svg" height="20" viewBox="0 -960 960 960" width="20"><path d="M528-87.87V-384h393.57v296.13H528Zm83-83h227.57V-301H611v130.13Zm-214.93 83L373.59-204.5q-21.19-8.31-41.09-19.34-19.89-11.03-37.46-25.83l-112.39 38.19-84.17-145.91 88.91-77.44q-1.76-11-2.76-22.07-1-11.08-1-23.08 0-12 1-23.08 1-11.07 2.76-22.11l-88.91-78.44 84.17-145.43 112.87 38.95q17.57-14.8 37.15-25.73 19.59-10.92 40.92-19.2l22.48-117.11h167.86l22.48 117.11q21.19 8.24 41.09 19.19 19.89 10.94 37.46 25.74l112.39-37.95 84.17 145.43-89.15 77.44q1.76 10.8 2.76 21.96 1 11.17 1 22.97-1 6-1 12t-1 12H621.28q2-5 2-12v-12q-.24-60-42.17-101.88Q539.18-624 479.28-624q-60 0-102 42t-42 102q0 54 34.36 93.62Q404-346.76 455.76-338v250.13h-59.69Z"/></svg>