<svg xmlns="http://www.w3.org/2000/svg" height="20" viewBox="0 -960 960 960" width="20"><path d="M528-60.65V-384h427.59v323.35H528Zm105.17-105.18h217.24v-113H633.17v113ZM376.41-60.65l-24.24-122.44q-16.14-7.54-32.79-16.39-16.66-8.84-31.14-21.22l-120.2 40.72L65.22-363.43l91.43-80.72q-1-8.91-1.88-18.3-.88-9.38-.88-19.29 0-9.91.88-19.18.88-9.26 1.88-18.21l-91.43-80.2 102.82-181.21 117.16 39.71q15.04-12.04 32.6-21.32 17.57-9.28 35.37-17.57l23.24-121.39h207.18l23.24 122.15q17.14 8.25 35.27 17.55 18.14 9.3 33.18 21.58l116.68-39.71 102.82 181.21-93.43 80.72q1 8.67 2 17.43 1 8.75 1 18.18-1 6-1 12t-1 12H642.7q2-5 2-12v-12q-.24-70.09-49.18-118.89-48.93-48.81-118.76-48.81-69.93 0-118.93 49-49 48.99-49 118.49 0 62.01 39.02 108.18 39.02 46.16 96.82 56.44v256.94h-68.26Z"/></svg>