<svg xmlns="http://www.w3.org/2000/svg" height="20" viewBox="0 -960 960 960" width="20"><path d="M528-56.09V-384h432.48v327.91H528Zm114.96-114.95h202.56v-98H642.96v98ZM371.52-56.09l-24.56-124.39q-14.98-6.93-30.1-14.94-15.11-8.01-28.29-19.41l-121.83 41.7L58.7-365.39l93.39-81.7q-1-7.87-1.72-16.65-.72-8.77-.72-17.65 0-8.87.72-17.36.72-8.5 1.72-16.47L58.7-597.04l108.04-189.7 120.09 40.7q13.74-10.74 29.34-19.05 15.61-8.3 31.79-15.61l23.56-124.65h216.96l23.56 125.09q15.98 7.21 32.25 15.56 16.28 8.35 30.01 19.66l118.96-40.7 108.04 189.7-95.39 81.69q1 8.02 2 15.96 1 7.94 1 16.39-1 6-1 12t-1 12H636.83q2-5 2-12v-12q-.57-67.48-47.78-114.65-47.21-47.18-114.62-47.18-67.64 0-115.01 47.53-47.38 47.53-47.38 114.42 0 60.05 38.37 105.08 38.37 45.02 94.55 54.32v266.39h-75.44Z"/></svg>