<svg xmlns="http://www.w3.org/2000/svg" height="48" viewBox="0 -960 960 960" width="48"><path d="M520-79.02V-400h402.17v320.98H520Zm65.87-65.63h270.67v-189.72H585.87v189.72ZM385.62-79.02 365.5-205.43q-12.16-3.81-32.79-15.45-20.62-11.64-41.43-26.19l-117.67 53.96-96-169.8 108.43-78.96q-1.76-8.25-2.26-18.55-.5-10.31-.5-19.56 0-7.75.5-18.8.5-11.06 2.26-20.35l-108.43-79.2 96-168.82 119.21 54.22q13.51-11.31 33.56-22.84 20.05-11.53 39.12-17.56l20.23-128.39h189.03L595-754.83q17.62 6.5 38.15 17.8 20.52 11.29 34.57 24.1l119.41-54.22 95.76 168.82-110.17 78.2q.26 9.04 1.13 19.45.87 10.4.87 19.44h-169.7q-.24-52.76-37.29-89.51-37.05-36.75-89.21-36.75-53.74 0-90.62 37.25T351.02-480q0 42.5 23.62 75.12 23.62 32.62 61.62 45.27v280.59h-50.64Z"/></svg>