<svg xmlns="http://www.w3.org/2000/svg" height="40" viewBox="0 -960 960 960" width="40"><path d="M520-64.17V-400h418.84v335.83H520Zm88.52-88.15H850.7v-159.53H608.52v159.53ZM368.06-64.17l-19.23-131.76q-13.47-4.69-28.27-13.3-14.79-8.61-26.11-17.49l-122.86 55.11L58.61-369.9l110.1-81.3q-1.1-6.37-1.44-14.38-.33-8-.33-14.37 0-6.37.33-14.38.34-8 1.44-14.47l-110.1-81.68 112.98-197.16 124.09 54.55q10.84-8.5 25.45-16.86 14.61-8.35 27.7-12.7l19.41-133.55h223.51l19.42 132.88q13.4 4.95 28.38 13 14.97 8.06 26 17.23l123.23-54.55 112.61 197.16-110.66 80.35q.43 6.55.95 14.78t.52 14.12H612.01q-.56-54.96-39.25-93.53t-93.41-38.57q-55.71 0-94.52 39-38.82 39-38.82 94.33 0 44.67 25.48 78.95 25.47 34.28 65.28 47.55v289.33h-68.71Z"/></svg>