<svg xmlns="http://www.w3.org/2000/svg" height="24" viewBox="0 -960 960 960" width="24"><path d="M166.15-205.38q0-52.2 30-93.91 30-41.71 76.97-64.71-48.77-17.38-77.87-62.62-29.1-45.23-29.1-100.12 0-96.18 70.22-161.59 70.21-65.4 172.28-65.4 69.35 0 126.77 33.77 57.42 33.76 86.81 91.42 10.23-40.15 43.4-64.19 33.18-24.04 75.14-24.04 49.87 0 89.93 24.46 40.07 24.46 40.07 69.22 0 35.8-24.9 60.27-24.9 24.47-59.79 24.47h-25.31v168.81q0 68.95-49.2 116.55-49.19 47.61-118.15 47.61H166.15Zm168.1-182.81q55.08 0 93.9-34.65 38.81-34.64 38.81-84.12 0-32.23-17.08-53.1-17.07-20.86-43.77-20.86-22.26 0-38.24 13.42-15.99 13.43-15.99 33.65h-36.92q0-34.61 27.04-59.3 27.03-24.7 64.5-24.7 42.44 0 69.91 32.43 27.47 32.42 27.47 78.46 0 35.92-16.3 66.9-16.31 30.98-43.89 51.87h95.19q31.12 0 52.66-21.29 21.54-21.29 21.54-51.75v-54.96q0-83-60.06-141.81-60.05-58.81-144.71-58.81-86 0-145.62 54.94-59.61 54.94-59.61 134.91 0 56.42 37.81 97.59 37.82 41.18 93.36 41.18ZM209.5-242.31h383.86q53.29 0 91.89-36.94t38.6-90.48v-160.58q0-19.2 12.32-32.08 12.33-12.88 31.56-12.88h17.36q19.99 0 34.37-13.82 14.39-13.82 14.39-34.22 0-16.03-10.72-27.51-10.71-11.49-25.94-18.3-14.65-5.76-28.54-8.25-13.89-2.48-27.77-2.48-37.96 0-64.42 26.58T650-588.81v127.54q0 46.31-32.6 78.15-32.6 31.85-78.37 31.85H371.59q-54.49 0-100.23 29.37-45.74 29.36-61.86 79.59Zm485.69-21.84Z"/></svg>