<svg xmlns="http://www.w3.org/2000/svg" height="20" viewBox="0 -960 960 960" width="20"><path d="M103.09-152.09q0-63.39 22.13-115.8t69.43-88.85q-44.43-24.43-68-72-23.56-47.56-23.56-101.83 0-122.77 84.34-209.06 84.35-86.28 204.85-86.28 72.72 0 134.07 31.56 61.35 31.57 97.78 91.57 20.44-25.87 53.54-39.16 33.11-13.28 72.6-13.28 72.9 0 129.06 37.33 56.15 37.32 56.15 98.67 0 52.17-33.59 88.04-33.58 35.88-85.11 35.88h-9.87v134.56q0 86.38-61.34 147.51-61.35 61.14-148.74 61.14H103.09Zm212.2-269.04q44.14 0 75.23-28.33 31.09-28.34 31.09-68.5 0-17.08-8.13-29-8.13-11.91-20.81-11.91-11.78 0-19.73 12.5-7.94 12.5-7.94 27.07H262.91q0-58.25 38.19-100.73 38.19-42.49 94.29-42.49 55.18 0 92.52 41.32 37.35 41.33 37.35 101.9 0 27.48-8.72 55.67-8.71 28.2-26.58 50.5h33.34q22.92 0 38.96-13.8T578.3-460v-69.99q0-81.33-53-136.8-53-55.47-131.53-55.47-77.72 0-131.87 55.37-54.16 55.37-54.16 135.98 0 45.34 31.27 77.56 31.26 32.22 76.28 32.22Zm-78.86 165.39h364.96q44.06 0 73.47-29.14 29.4-29.13 29.4-75.86v-133q0-41.96 31.54-73.09 31.55-31.13 75.85-31.13h-5.56q8.3 0 17.02-6.41 8.72-6.41 8.72-13.5 0-8.02-4.16-13.86-4.15-5.84-12.15-6.84-18-5-33.9-8.5-15.9-3.5-31.06-3.5-29.67 0-49.64 19.37-19.96 19.37-19.96 47.5V-460q0 62.28-46.07 108.4-46.06 46.12-112.59 46.12h-173q-38.43 0-67.5 11.07-29.06 11.06-45.37 38.67Zm468.96 1.7Z"/></svg>