<svg xmlns="http://www.w3.org/2000/svg" height="24" viewBox="0 -960 960 960" width="24"><path d="M86-126q0-67 24.5-123t69.5-91q-45-28-69.5-76.5T86-522q0-130 89.27-221 89.28-91 217.44-91Q465-834 527-803q62 31 102 87 22-34 60-53.5t86-19.5q78 0 131.5 40.5T960-648q0 55-36.8 93-36.79 38-89.2 38v167q0 94.08-65.5 159.04T609-126H86Zm223.21-278q48.25 0 82.02-31Q425-466 425-511q0-19-9-31.5T393-555q-14 0-23 12.5t-9 29.5H256q0-61 40.5-104.5T394-661q57 0 97 43.5T531-513q0 31-8.5 58.5T497-404h34q26 0 43.5-16t17.5-39v-62.52Q592-608 533.79-668 475.58-728 393-728q-84.42 0-142.71 60Q192-608 192-522q0 49 34 83.5t83.21 34.5ZM221-232h391q48.33 0 82.17-33.92Q728-299.85 728-350v-165q0-45 27-76.5t66-31.5h8q10 0 17.5-7.13 7.5-7.12 7.5-17.62 0-8.25-5.32-14.25T835-671q-16-6-31-9t-28.7-3q-32.29 0-54.79 22Q698-639 698-607v148q0 67-48.91 114-48.9 47-118.09 47H351q-43 0-77.5 17.5T221-232Zm507 0Z"/></svg>