<svg xmlns="http://www.w3.org/2000/svg" height="20" viewBox="0 -960 960 960" width="20"><path d="M183-231.23q0-49.92 29.88-88.5 29.89-38.58 76.2-60.81-48.39-14-77.23-56.11Q183-478.77 183-532.62q0-89.19 65.5-151.28Q314-746 407.92-746q70.85 0 127.7 35.46 56.84 35.46 81.84 97.08 9.23-31.39 37.19-50.12 27.97-18.73 63.27-18.73 48.46 0 88.77 22.31Q847-637.69 847-594.46q0 32.44-22.86 54.53-22.87 22.08-54.52 22.08h-35.7v138.16q0 61.75-44.57 105.11-44.57 43.35-106.97 43.35H183Zm156.77-172.46q52.22 0 88.53-32.63 36.32-32.64 36.32-79.87 0-30.96-16.18-50.66-16.18-19.69-41.74-19.69-21.24 0-36.58 13.21-15.35 13.21-15.35 31.48h-32q0-31.57 25.01-54.13 25.02-22.56 59.81-22.56 39.87 0 64.45 29.5 24.58 29.5 24.58 73.35 0 36.23-17 67.92-17 31.69-45.7 52.08h99.31q28.27 0 48.06-19.73 19.79-19.73 19.79-46.35v-63.15q0-78.47-55.9-133.78Q489.27-714 409.04-714q-81.19 0-137.12 52.95Q216-608.09 216-532.96q0 53.5 35.58 91.38 35.59 37.89 88.19 37.89ZM221.15-263.23h362.23q48.85 0 84.2-32.69 35.34-32.7 35.34-83.77v-131.23q0-17.53 18.81-27.73t39.19-10.2h5.56q18.98 0 33.75-13.31Q815-575.48 815-593.85q0-16.4-9.96-28.16-9.96-11.76-25.58-16.07-15.77-4.77-31.02-8-15.26-3.23-30.52-3.23-35.86 0-60.85 24.23-24.99 24.23-24.99 59.31v104q0 40.65-28.84 71.37-28.84 30.71-71.01 30.71h-163q-49.7 0-92.08 25.31-42.38 25.3-56 71.15Zm454.47-20.62Z"/></svg>