<svg xmlns="http://www.w3.org/2000/svg" height="40" viewBox="0 -960 960 960" width="40"><path d="M96.75-136.75q0-57.96 24.4-110.74 24.4-52.78 76.51-93.29-48.84-30.37-74.87-80.76-26.04-50.4-26.04-107.37 0-122.28 85.8-208.39 85.79-86.11 210.39-86.11 70.57 0 130.93 30.74 60.35 30.74 106.78 93.08 22.1-38.86 59.82-59.56 37.71-20.7 84.71-20.7 71.34 0 122.41 37.05 51.07 37.04 51.07 93.91 0 50.05-33.49 85.17-33.49 35.12-83.42 35.12h-8.34v178.08q0 89.68-63.26 151.72-63.25 62.05-152.94 62.05H96.75ZM308.6-392.99q51.65 0 89.29-32.02 37.65-32.03 37.65-79.18 0-24.61-12.93-43.22-12.93-18.6-33.42-18.6-15.97 0-27.41 12.95-11.45 12.95-11.45 29.12h-84.86q0-51.38 36.3-89.44 36.29-38.07 89.4-38.07 54.92 0 92.28 41.8t37.36 101.72q0 27.82-10.63 58.24-10.62 30.42-30.3 56.7h54.72q27.81 0 48.07-18.81 20.27-18.82 20.27-47.12v-63.01q0-90.15-61-153.1-60.99-62.94-148.8-62.94-88.26 0-149.69 60.9-61.42 60.9-61.42 148.16 0 56.5 36.66 96.21 36.66 39.71 89.91 39.71ZM204.09-222.03h405.18q54.45 0 91.57-36.89 37.13-36.9 37.13-91.6v-176.84q0-33.69 21-60.1 21.01-26.42 55.46-26.42h12.56q13.97 0 25.18-10.21 11.21-10.22 11.21-24.58 0-10.94-7.03-19.84-7.04-8.9-18.9-13.9-17.51-6-32.75-9-15.24-3-29.5-3-36.89 0-61.86 25.27t-24.97 61.07V-459q0 63.99-45.26 107.64T534.6-307.71h-188q-48.27 0-85.42 21.81t-57.09 63.87Zm524.2-10.27Z"/></svg>