<svg xmlns="http://www.w3.org/2000/svg" height="48" viewBox="0 -960 960 960" width="48"><path d="M100-140q0-58 27-109.75t79-91.8q-51-29.95-78.5-82T100-534.73Q100-654 184.82-737.5 269.63-821 393.5-821q71 0 130.25 31.75T631-692q20.5-39.5 57.03-61.5t85.74-22q76.7 0 122.71 37.74 46.02 37.74 46.02 88.73 0 49.09-32.62 82.31T831.5-533.5H821v184q0 87.53-62.48 148.51Q696.05-140 607.5-140H100Zm208.26-248.5q53.74 0 92.74-29.13 39-29.12 39-79.7 0-26.17-14.61-49.17t-39.39-23q-16 0-28 12.57T346-528h-76.5q0-48.5 35.38-83.75T389.36-647q54.08 0 90.61 43.55 36.53 43.56 36.53 99.96 0 32.49-11.5 60.92t-32 54.07h60.98q30.02 0 51.52-20.64 21.5-20.64 21.5-48.81v-64.55q0-90.84-62.27-155.92-62.27-65.08-151.23-65.08-90.5 0-153.75 60.17Q176.5-623.17 176.5-535q0 59.5 38 103t93.76 43.5Z"/></svg>