<svg xmlns="http://www.w3.org/2000/svg" height="24" viewBox="0 -960 960 960" width="24"><path d="M120-160q0-56 24.5-106t69.5-84q-44-28-69-73t-25-97q0-116 81.5-198T400-800q66 0 125.5 30.5T625-685q22-35 57.5-55t76.5-20q63 0 112 33t49 90q0 47-33 80t-80 33h-7v164q0 84-58.5 142T600-160H120Zm200-240q50 0 85-38.5t35-81.5q0-24-11-32t-25-8q-20 0-32 11.5T360-520h-80q0-50 35-85t86-35q49 0 84 33t35 87q0 29-11 61.5T478-400h62q25 0 42.5-17t17.5-43v-60q0-83-58.5-141.5T400-720q-84 0-142 58.5T200-520q0 51 34.5 85.5T320-400Zm-99 160h379q50 0 85-34.5t35-85.5v-164q0-35 21-57.5t56-22.5h13q14 0 22-9.5t8-23.5q0-11-7-19t-18-12q-14-5-28-8.5t-28-3.5q-33 0-56 23.5T680-600v140q0 59-41 99.5T540-320H360q-44 0-80.5 21.5T221-240Zm494-6Z"/></svg>