<svg xmlns="http://www.w3.org/2000/svg" height="24" viewBox="0 -960 960 960" width="24"><path d="M96-136q0-65.5 25-119.75T189.5-344q-44-27-68.75-76.5T96-525.45q0-126.55 87.32-212.3 87.31-85.75 212.18-85.75 71.5 0 132 30.5t99.5 85q21-33 57.25-52.5t82.52-19.5q75.35 0 126.79 39.24Q945-701.52 945-643.7q0 53.2-35.25 89.7T825-517.5h-1V-353q0 91.06-63.6 154.03T605.5-136H96Zm217.24-268.5q47.26 0 81.26-30.36 34-30.36 34-74.64 0-19-9.46-31.75T395-554q-14.23 0-23.36 12.21-9.14 12.21-9.14 28.79h-100q0-58.5 39.26-100.25Q341.03-655 396.23-655q55.27 0 94.27 42.5 39 42.5 39 101 0 31-9 57.75T495-404.5h35.43q26.57 0 44.07-16.25T592-459.5v-61q0-84.34-57.27-143.17-57.27-58.83-139.23-58.83-82.5 0-140.5 56.25T197-525.5q0 47.5 34 84.25t82.24 36.75Z"/></svg>