<svg xmlns="http://www.w3.org/2000/svg" height="40" viewBox="0 -960 960 960" width="40"><path d="M144.74-184.36q0-51.12 28.53-96.02t77.99-75.8q-49.53-23.6-78.02-70.78-28.5-47.18-28.5-102.35 0-103.54 75.06-174.75 75.05-71.22 183.62-71.22 68.58 0 125.84 32.63 57.27 32.63 95.92 93.16 15.54-40.38 49.52-63.35 33.98-22.97 77.1-22.97 57.57 0 99.33 28.29 41.75 28.29 41.75 75.1 0 39.55-27.29 66.89-27.29 27.34-66.09 27.34h-20.78v175.23q0 74.85-53.2 126.72-53.2 51.88-128.15 51.88H144.74Zm180.2-202.81q55.03 0 94.39-34.58t39.36-84.36q0-30.86-16.58-50.91-16.58-20.04-42.06-20.04-21.04 0-36.29 12.66-15.25 12.67-15.25 31.12h-47.88q0-38.03 29.45-64.85 29.45-26.82 70.32-26.82 45.54 0 75.86 33.92t30.32 82.92q0 33.2-14.86 64.68-14.85 31.49-39.87 56.26h88.16q29.86 0 51.37-21.2 21.52-21.21 21.52-52.07v-57.98q0-86.69-61.49-147.83-61.49-61.15-147.99-61.15-88.21 0-149.5 57.24-61.29 57.24-61.29 140.65 0 58.5 38.25 100.42 38.26 41.92 94.06 41.92Z"/></svg>