<svg xmlns="http://www.w3.org/2000/svg" height="24" viewBox="0 -960 960 960" width="24"><path d="M128-167.23q0-59.92 26.38-108.5 26.39-48.58 78.7-75.81-51.39-19-78.23-68.11Q128-468.77 128-526.62q0-110.73 78.78-188.06Q285.55-792 399.92-792q73.85 0 134.7 32.96 60.84 32.96 92.84 94.58 12.23-41.39 49.64-64.12 37.41-22.73 84.7-22.73 57.58 0 107.89 29.81T920-636.41q0 43.91-28.58 74.74-28.57 30.82-74.8 30.82h-17.7v172.16q0 79.75-57.42 135.61-57.42 55.85-139.12 55.85H128Zm193.01-224.46q52.98 0 90.79-29.54 37.82-29.54 37.82-77.46 0-29.46-14.77-53.66-14.77-24.19-41.08-24.19-16.85 0-29.43 15.21-12.57 15.21-12.57 34.48h-65q0-46.15 32.19-80.92t79.05-34.77q51.45 0 84.53 42t33.08 99.85q0 31.92-13 60.27-13 28.34-38.7 48.73h66.31q31.19 0 53.02-19.82 21.83-19.81 21.83-48.26v-58.67q0-87.76-59.4-147.66-59.41-59.9-146.1-59.9-86.31 0-145.95 57.65Q194-610.7 194-526.62q0 55.16 36.82 95.04 36.81 39.89 90.19 39.89ZM209.15-233.23h396.23q53.85 0 90.7-36.33 36.84-36.33 36.84-89.13v-164.23q0-26.53 15.81-50.23 15.81-23.7 47.19-23.7h13.56q16.98 0 30.75-11.44T854-636.6q0-13.25-8.78-22.71t-21.76-14.77q-17.77-6.77-32.36-9-14.59-2.23-29.18-2.23-38.78 0-64.81 25.08t-26.03 62.46v138q0 56.5-41.25 95.29-41.25 38.79-99.6 38.79h-170q-54.7 0-95.08 21.31-40.38 21.3-56 71.15Zm501.47-14.62Z"/></svg>