<svg xmlns="http://www.w3.org/2000/svg" height="48" viewBox="0 -960 960 960" width="48"><path d="M104-144q0-54 25.5-105t79.5-93q-50.62-31.31-77.81-82.01Q104-474.72 104-532q0-118.21 83.9-201.11Q271.81-816 393.52-816 464-816 523-785q59 31 108 96 22-41 59.12-62.5 37.13-21.5 84-21.5 68.88 0 117.38 35.5t48.5 88.86q0 47.27-31.87 80.45Q876.26-535 829-535h-13v184q0 87-61.42 147-61.41 60-148.58 60H104Zm204.98-243q53.56 0 93.29-32.5Q442-452 442-501.28q0-27.72-15-49.22T388-572q-17.27 0-30.14 13Q345-546 345-530h-73q0-46 34.19-80.5 34.18-34.5 83.97-34.5 53.13 0 88.99 40.5Q515-564 515-506q0 27.85-12 59.43Q491-415 470-387h67q29 0 50.5-20.58Q609-428.17 609-459v-62.84q0-92.05-62.74-156.6Q483.52-743 393.8-743 303-743 240-681.37 177-619.73 177-532q0 60 38.24 102.5 38.25 42.5 93.74 42.5ZM195-217h412.47q57.03 0 96.28-38.52Q743-294.05 743-351v-183q0-28 18.5-51t48.5-23h14.85Q841-608 854-619.66t13-28.84q0-12.5-8.32-23T837-688q-18-6-33.33-9-15.34-3-29.67-3-38.85 0-65.42 27.09Q682-645.83 682-608v149q0 61.64-42.81 103.32Q596.39-314 537-314H345q-50.77 0-90.38 25Q215-264 195-217Zm533-16Z"/></svg>