<svg xmlns="http://www.w3.org/2000/svg" height="24" viewBox="0 -960 960 960" width="24"><path d="M128-167.23q0-59.92 26.38-108.5 26.39-48.58 78.7-75.81-51.39-19-78.23-68.11Q128-468.77 128-526.62q0-110.3 79-187.84T399.92-792q73.85 0 134.7 32.96 60.84 32.96 92.84 94.58 12.23-41.39 49.69-64.12 37.47-22.73 84.77-22.73 57.46 0 107.77 29.81Q920-691.69 920-636.46q0 44.23-28.58 74.92-28.57 30.69-74.8 30.69h-17.7v172.16q0 79.92-57.42 135.69-57.42 55.77-139.12 55.77H128Zm192.54-224.46q53.38 0 91.23-29.54t37.85-77.46q0-29.46-14.77-53.66-14.77-24.19-41.08-24.19-17.31 0-29.65 15.31-12.35 15.31-12.35 34.38h-65q0-46.15 32.19-80.92t78.89-34.77q51.61 0 84.69 42t33.08 99.85q0 31.92-13 60.27-13 28.34-38.7 48.73h66.31q30.39 0 52.62-19.73 22.23-19.73 22.23-48.35v-59.15q0-87.54-59.43-147.31Q486.23-726 399.92-726q-87.07 0-146.5 57.46Q194-611.08 194-526.62q0 55.16 36.96 95.04 36.96 39.89 89.58 39.89Z"/></svg>