<svg xmlns="http://www.w3.org/2000/svg" height="24" viewBox="0 -960 960 960" width="24"><path d="M121.87-161.87q0-57.13 25-106.81 25-49.69 68.5-82.93-43.24-27-68.37-73.84-25.13-46.83-25.13-98.48 0-115.9 81.18-194.8 81.17-78.9 197.71-78.9 67 0 125.6 30.12 58.6 30.12 97.6 83.1 21-33.76 55.34-53.64 34.35-19.88 75.3-19.88 63.94 0 111.95 33.53 48.02 33.53 48.02 89.07 0 47.11-32.16 79.81-32.16 32.69-77.95 32.69h-6.33v162.22q0 83.47-58.27 141.11-58.27 57.63-141.21 57.63H121.87Zm199.79-239.59q48.84 0 83.55-36.06 34.7-36.07 34.7-78.83 0-22.8-10.98-32.13-10.98-9.32-25.56-9.32-18.79 0-30.21 11.45-11.42 11.45-11.42 28.02h-80.98q0-50.13 35.08-85.41 35.08-35.28 85.72-35.28 49.18 0 84.37 34.51 35.2 34.51 35.2 87.68 0 29.48-10.9 60.04-10.9 30.55-29.69 55.33h56.73q25.82 0 43.32-17.01t17.5-41.79v-58.6q0-82.18-57.7-139.86-57.7-57.69-139.56-57.69-82.6 0-140.17 55.11-57.57 55.1-57.57 137.32 0 49.02 34.38 85.77 34.38 36.75 84.19 36.75ZM224.5-243.09h374.8q48.67 0 83.14-34.11t34.47-83.6v-160.05q0-35.39 20.69-59.29 20.68-23.9 54.64-23.9h10.3q13.05 0 21.93-8.94 8.88-8.93 8.88-22.26 0-10.48-6.85-18.1-6.85-7.62-17.22-11.88-13.98-5.24-27.46-8.37-13.49-3.13-27.42-3.13-31.37 0-53.23 23.14-21.87 23.15-21.87 55.41v137.91q0 58.41-41.57 99.22-41.57 40.8-100.38 40.8H361.37q-42.78 0-79.55 21.29-36.78 21.3-57.32 55.86Zm486.11-6.56Z"/></svg>