<svg xmlns="http://www.w3.org/2000/svg" height="24" viewBox="0 -960 960 960" width="24"><path d="M88-128q0-63 21-118.5t71-93.5q-46-29-69-78.5T88-522q0-128 89-219t216-91q70 0 132 29.5T629-716q23-36 62-54.5t84-18.5q69 0 127 37.5T960-648q0 55-35.5 93T832-517v166q0 93-65.5 158T607-128H88Zm221-276q48 0 82-33t34-74q0-21-9-32.5T393-555q-15 0-23.5 13t-8.5 29H256q0-60 39.5-104t98.5-44q57 0 97 42t40 106q0 25-8 54.5T497-404h34q25 0 43-15.5t18-39.5v-63q0-86-57.5-145T393-726q-84 0-141.5 59T194-522q0 49 33.5 83.5T309-404Z"/></svg>