<svg xmlns="http://www.w3.org/2000/svg" height="20" viewBox="0 -960 960 960" width="20"><path d="M195-243q0-49 31.5-85.5T305-384q-50-11-80-53t-30-97q0-83.89 62.5-141.94Q320-734 410-734q72 0 128.5 36.5T617-598q6-33 33.5-53t63.5-20q45 0 83 20t38 60q0 29-20.79 49T765-522h-41v140q0 58-42.15 98.5T581-243H195Zm148.24-157q53.76 0 91.26-31.59 37.5-31.6 37.5-80.91 0-33.5-17.91-57T406.93-593q-21.93 0-38.43 14T352-546h-20q0-27.42 22.82-47.21Q377.65-613 408.75-613q38.25 0 60.75 29.5T492-512q0 38.31-18.5 69.65Q455-411 424-392h109q29.5 0 50.75-21T605-462v-62q0-79.19-56.5-134.59Q492-714 411.47-714 329-714 272.5-661.7 216-609.39 216-534.34q0 55.34 36.77 94.84t90.47 39.5Z"/></svg>