<svg xmlns="http://www.w3.org/2000/svg" height="20" viewBox="0 -960 960 960" width="20"><path d="M195-243q0-49 31.5-85.5T305-384q-50-11-80-53t-30-97q0-83.89 62.5-141.94Q320-734 410-734q72 0 128.5 36.5T617-598q6-33 33.5-53t63.5-20q45 0 83 20t38 60q0 29.27-20.79 49.14Q793.42-522 765-522h-41v140q0 57.78-42.15 98.39T581-243H195Zm148.24-157q53.84 0 91.3-31.59Q472-463.19 472-512.5q0-33.5-17.91-57T406.93-593q-21.93 0-38.43 13.87Q352-565.25 352-546h-20q0-27.42 22.82-47.21Q377.65-613 408.75-613q38.25 0 60.75 29.5T492-512q0 38.31-18.5 69.65Q455-411 424-392h109q30 0 51-21t21-49v-62q0-78.85-56.47-134.42Q492.06-714 411.02-714 329-714 272.5-661.45 216-608.9 216-534.34q0 55.34 36.58 94.84t90.66 39.5ZM217-263h365q50 0 86.5-33.5T705-382v-131q0-13.19 16.5-20.59Q738-541 754-541h7.22q20.78 0 37.28-14.61Q815-570.23 815-590.5q0-17.91-11-30.7-11-12.8-28-17.8-16-5-31.33-8-15.34-3-30.67-3-37.59 0-63.8 25.15Q624-599.7 624-563v101q0 37.25-26.54 65.62Q570.91-368 532-368H372q-52.91 0-97.96 27.5Q229-313 217-263Zm454-25Z"/></svg>