<svg xmlns="http://www.w3.org/2000/svg" height="24" viewBox="0 -960 960 960" width="24"><path d="M108-147.62q0-61.46 23.69-113.5 23.7-52.03 74.85-84.65-48.69-24-73.62-73.31Q108-468.38 108-524.31q0-119.58 83.78-203.63Q275.55-812 396.46-812q71.93 0 133.35 31.23 61.42 31.23 98.42 90.54 17.62-38.69 55.8-59.31 38.17-20.61 84.31-20.61 63.35 0 117.5 33.65Q940-702.85 940-642.18q0 49.19-32.04 83.72-32.04 34.54-83.65 34.54h-8.85v169.07q0 86.38-61.46 146.81-61.46 60.42-149.31 60.42H108Zm207.24-250.23q50.25 0 86.16-31.26 35.91-31.27 35.91-75.74 0-25.23-11.89-43.07-11.88-17.85-32.04-17.85-15.69 0-26.35 14.11-10.65 14.1-10.65 31.74h-84.99q0-53.08 35.84-92.46 35.85-39.39 88.85-39.39 54.15 0 90.69 42t36.54 102.92q0 28.47-10.5 57.39t-32.35 51.61h50.16q28.3 0 48.11-17.69 19.81-17.7 19.81-43.84v-60.6q0-87.12-58.45-146.57Q481.64-726 396.29-726q-84.95 0-143.62 58.32Q194-609.35 194-524.31q0 52.08 35.16 89.27t86.08 37.19Zm-99.16 164.23h391.61q51.93 0 86.85-34.98 34.92-34.98 34.92-86.25v-164.61q0-33.77 19.66-62.11 19.65-28.35 58.34-28.35h10.78q13.99 0 24.88-9.29Q854-628.49 854-642.17q0-10.75-7.05-18.48t-17.72-11.89q-17.38-6.38-31.85-9-14.46-2.61-28.92-2.61-35.89 0-59.91 23.53-24.01 23.54-24.01 58.24v143q0 62.17-45.08 104.85-45.08 42.68-108.84 42.68h-175q-49.36 0-85.3 17.66-35.94 17.65-54.24 60.57Zm502.23-7.3Z"/></svg>