<svg xmlns="http://www.w3.org/2000/svg" height="20" viewBox="0 -960 960 960" width="20"><path d="M107.65-156.65q0-61.44 21.48-113.03 21.48-51.6 69.76-88.36-44.76-24.76-68-72-23.24-47.24-23.24-100.2 0-120.78 83.44-205.94 83.44-85.17 202.18-85.17 71.73 0 132.59 31.24t97.62 91.24q20.76-26.52 53.78-39.64 33.01-13.12 71.05-13.12 68.99 0 125.64 35.7 56.64 35.69 56.64 98.02 0 51.19-32.84 86.41t-84.88 35.22h-10.52v134.24q0 85-60.37 145.19-60.37 60.2-146.78 60.2H107.65Zm209.04-263.83q44.22 0 75.55-29.64 31.33-29.63 31.33-68.73 0-18.48-8.3-29.57-8.29-11.1-21.3-11.1-12.75 0-20.86 12.5T365-520.28h-99.15q0-56.61 37.4-98.12 37.4-41.51 93.02-41.51 53.97 0 90.83 39.69 36.86 39.7 36.86 99.94 0 26.23-8.88 55.37-8.88 29.15-27.41 52.43h36.61q22.92 0 38.96-13.96 16.04-13.97 16.04-33.56v-69.72q0-80.95-53-136.09-53-55.15-131.53-55.15-77.91 0-131.81 55.05-53.9 55.04-53.9 135.33 0 45.34 31.27 77.72 31.27 32.38 76.38 32.38Zm-79.93 163.44h362.67q44.61 0 74.07-29.14 29.46-29.14 29.46-75.86v-133q0-39.68 30.07-70.16 30.08-30.47 75.36-30.47h-5.24q9.28 0 18.17-6.54 8.88-6.53 8.88-14.44 0-8.39-4.54-14.49t-12.75-7.1q-18-5-33.57-8.5t-30.83-3.5q-29.91 0-49.87 19.53-19.97 19.53-19.97 47.99V-460q0 61.45-45.1 106.68-45.11 45.23-110.29 45.23h-173q-38.76 0-67.5 10.74-28.74 10.74-46.02 40.31Zm466.67.71Z"/></svg>