<svg xmlns="http://www.w3.org/2000/svg" height="24" viewBox="0 -960 960 960" width="24"><path d="M130-170q0-54.5 25-102.75T223.5-354q-43-27-68.25-73T130-523.45q0-112.55 79.32-189.3 79.31-76.75 193.18-76.75 65.5 0 123.5 30t97 82.5q21-34 54.75-54t73.02-20q60.35 0 107.29 31.74Q905-687.52 905-632.7q0 45.2-31.25 76.7T798-524.5h-8V-363q0 81.06-56.6 137.03T596.5-170H130Zm194.24-230.5q49.26 0 84.26-37.86 35-37.86 35-80.14 0-24-11.46-32.25T406-559q-20.23 0-32.36 11.21Q361.5-536.58 361.5-520h-75q0-47.5 33.76-80.75Q354.03-634 403.23-634q47.27 0 81.27 32 34 32 34 83.5 0 29-11.5 60.75t-31 57.25h63.43q25.57 0 43.07-17.25T600-460.5v-58q0-81.34-57.77-138.67-57.77-57.33-139.73-57.33-82.5 0-140 54.75T205-523.5q0 49.5 34.5 86.25t84.74 36.75ZM224.5-245h371.93q49.07 0 83.82-34.25Q715-313.5 715-363.2V-523q0-33 19.25-54.75t52.25-21.75H798q14 0 23-9.5t9-23.67q0-11.13-7.25-19.23t-18.25-12.6q-13.5-5-26.75-8.25T750.5-676q-31.54 0-53.52 23.5Q675-629 675-596.5v136q0 56.5-39.68 95.75T539.5-325.5H363.52q-43.02 0-80.27 22.25Q246-281 224.5-245Zm483-8Z"/></svg>