<svg xmlns="http://www.w3.org/2000/svg" height="24" viewBox="0 -960 960 960" width="24"><path d="M177-216q0-51.5 31.5-91.25T288-367q-50.5-14.5-80.75-59.5T177-527.73Q177-619 244.48-681q67.48-62 166.02-62 70.5 0 127.75 34.9T622-614q7-42 40-67.25t75.77-25.25q46.72 0 84.73 22.27 38 22.28 38 64.03 0 32.97-23 55.34-23 22.36-55 22.36H752v171q0 65.31-46.98 110.4Q658.05-216 592.5-216H177Zm160.25-168.5q56.83 0 96.79-33.68Q474-451.86 474-503.5q0-34.7-18.76-59.35t-49.1-24.65q-22.87 0-40 14.09Q349-559.33 349-538h-25.5q0-30.75 25.01-52.88Q373.53-613 407.48-613q40.99 0 66.51 32.55 25.51 32.55 25.51 76.95 0 38-17.75 68.75T434-384.5h104.71q32.79 0 55.54-22.5T617-461.45v-54.05q0-83.5-60.74-142.75T410.05-717.5q-87.05 0-147.3 54.99-60.25 55-60.25 134.51 0 58.5 38.81 101 38.82 42.5 95.94 42.5ZM205-241.5h387.44q54.56 0 94.31-37.75t39.75-92.45v-160.8q0-15.06 10.25-25.28T762.09-568h19.13Q803-568 819-583.11q16-15.12 16-37.39 0-17.5-11.75-30t-28.25-20q-15-6-29.08-8.25Q751.83-681 738-681q-39.89 0-67.7 27.5-27.8 27.5-27.8 67v125q0 43.25-30.47 72.87Q581.55-359 538.89-359H374.02q-57.93 0-106.23 31.5-48.29 31.5-62.79 86Zm486.5-26Z"/></svg>