<svg xmlns="http://www.w3.org/2000/svg" height="40" viewBox="0 -960 960 960" width="40"><path d="M126.67-166.67q0-51.5 26.66-99.41Q180-314 228.5-350.67q-47.41-28.87-74.62-77-27.21-48.14-27.21-101.97 0-111.03 79.4-187.28t193.76-76.25q67.17 0 124.34 30.84 57.16 30.83 102.16 90.66Q647-710 681.27-731.33q34.27-21.34 76.81-21.34 63.27 0 107.6 32.07Q910-688.52 910-638.25q0 43.63-30 74.02-29.99 30.4-73 30.4h-13.67v175.16q0 80.04-56.79 136.02-56.79 55.98-137.37 55.98h-472.5ZM318.91-390.5q52.92 0 91.26-35.7 38.33-35.71 38.33-82.86 0-28.11-14.69-43.86T398-568.67q-20.08 0-33.79 11.5t-13.71 28.5h-63.33q0-42.83 32.17-73.08Q351.52-632 397.32-632q47.85 0 81.18 34.37 33.33 34.37 33.33 85.81 0 29.99-12.83 61.86-12.83 31.86-34.33 59.46h75.79q27.87 0 48.04-20.08 20.17-20.09 20.17-49.22v-60.03q0-86.93-61.26-148.47-61.26-61.53-147.71-61.53-87.7 0-148.7 57.83-61 57.84-61 142.17 0 56.83 37.18 98.08 37.19 41.25 91.73 41.25ZM205.5-230h393.6q54.4 0 92.65-37.32Q730-304.63 730-358.86v-173.81q0-26.91 17.25-45.71 17.25-18.79 44.31-18.79h14.34q16.77 0 28.77-11.8t12-29.26q0-13.06-8.83-23.43-8.82-10.37-21.67-16.17-15.84-5.67-30.09-8.59-14.25-2.91-27.91-2.91-36 0-61.08 26.33Q672-636.67 672-600.52v140.69q0 56.16-38.69 94.41t-92.64 38.25H355.18q-47.86 0-88.69 26.75-40.82 26.75-60.99 70.42Zm509.33-16Z"/></svg>