<svg xmlns="http://www.w3.org/2000/svg" height="24" viewBox="0 -960 960 960" width="24"><path d="M96-136q0-65.5 25-119.75T189.5-344q-44-27-68.75-76.5T96-525.45q0-126.55 87.09-212.3 87.09-85.75 212.12-85.75 71.79 0 132.29 30.5 60.5 30.5 99.5 85 21-33 57.25-52.5t82.52-19.5q75.35 0 126.79 39.24Q945-701.52 945-643.7q0 53.2-35.04 89.7-35.05 36.5-84.96 36.5h-1V-353q0 91.14-63.6 154.07Q696.8-136 605.5-136H96Zm217.45-268.5q47.51 0 81.28-30.36t33.77-74.64q0-19-9.46-31.75T395-554q-14.23 0-23.36 12.21-9.14 12.21-9.14 28.79h-100q0-58.5 39.26-100.25Q341.03-655 396.23-655q55.27 0 94.27 42.5 39 42.5 39 101 0 31-9 57.75T495-404.5h35.43q26.57 0 44.07-16.25T592-459.5v-60.52q0-84.82-57.48-143.65-57.47-58.83-139.02-58.83-82.92 0-140.71 56.25Q197-610 197-525.5q0 47.5 34 84.25t82.45 36.75ZM224.5-237h383.93q47.4 0 80.99-33.67Q723-304.35 723-353.2V-514q0-43 25.25-73.75t62.25-30.75h6.5q10 0 18.5-7.13 8.5-7.12 8.5-17.79 0-8.38-5.57-14.48t-13.93-9.6q-15.5-6-29.75-8.75T766.8-679q-30.83 0-52.31 22Q693-635 693-603.5v144q0 64.5-47.59 110.25T530.5-303.5H354.52q-42.02 0-77.27 18.25Q242-267 224.5-237Zm496-2Z"/></svg>