<svg xmlns="http://www.w3.org/2000/svg" height="40" viewBox="0 -960 960 960" width="40"><path d="M120-160q0-52.67 26.5-101.67T222-348q-48-29.33-75-77t-27-102.33q0-113.34 80.83-193Q281.67-800 398-800q68 0 126.17 31.17 58.16 31.16 103.5 91.83 21.33-39 56.83-60.33 35.5-21.34 79.17-21.34 65 0 110.66 33Q920-692.67 920-641q0 45-31.33 76.33-31.34 31.34-75.67 31.34h-13v176.66q0 82-58.17 139.34Q683.67-160 601.33-160H120Zm196-230q53.33 0 91.67-36.17Q446-462.33 446-510q0-28-14.33-43.67-14.34-15.66-35-15.66-20 0-33.67 11.83-13.67 11.83-13.67 28.83h-66.66q0-44.66 33-76 33-31.33 80-31.33 49 0 83 35t34 88.33q0 29.67-12.34 62.17Q488-418 466-390h74.67q27.66 0 47.83-20 20.17-20 20.17-49.33v-61.34q0-88.33-61.5-150.5-61.5-62.16-149.17-62.16-88.67 0-150 60.16-61.33 60.17-61.33 145.84 0 57.66 37.16 97.5Q261-390 316-390Z"/></svg>