<svg xmlns="http://www.w3.org/2000/svg" height="48" viewBox="0 -960 960 960" width="48"><path d="M143.08-182.69q0-50 29.04-94.87 29.04-44.86 80.61-77.21-50.96-24.61-80.31-72.34-29.34-47.72-29.34-104.18 0-103.37 75.27-174.6 75.28-71.22 184-71.22 69.15 0 126.19 32.94 57.04 32.94 97.92 96.33 15.5-42.04 49.74-65.49 34.24-23.44 78.61-23.44 58.72 0 99.65 28.41 40.92 28.4 40.92 73.68 0 39.1-26.77 66.1-26.77 27-65.38 27h-22.85v180.27q0 74.63-53.19 126.62-53.19 52-128.61 52h-455.5Zm179.71-200.89q56.51 0 97.07-33.78 40.56-33.79 40.56-85.43 0-32.36-17.76-55.09-17.77-22.74-45.53-22.74-21.01 0-36.86 12.64-15.85 12.64-15.85 31.52h-43.84q0-36.37 29.02-62.18 29.01-25.82 68.71-25.82 45.72 0 75.84 34.8 30.12 34.81 30.12 83.87 0 33.56-15.33 65.1-15.33 31.55-41.09 57.11h92.47q31.03 0 53.39-22.17 22.37-22.17 22.37-54.45v-58.76q0-88.48-62.91-151.4-62.92-62.91-151.19-62.91-89.75 0-152.4 58.8-62.66 58.8-62.66 142.82 0 61.27 39.23 104.67 39.22 43.4 96.64 43.4ZM195.81-226.54h402.71q57.09 0 97.55-39.07 40.47-39.08 40.47-95.84v-175.86q0-19.67 13.94-33.89 13.94-14.22 33.84-14.22h17.58q19.95 0 34.79-14.23 14.85-14.23 14.85-35.15 0-15.69-10.77-27.93-10.76-12.24-25.5-19.08-16.81-6.38-31.75-8.75-14.94-2.36-28.25-2.36-39.51 0-67.43 27.94-27.92 27.94-27.92 67.46v137.25q0 51.29-35.23 85.91-35.23 34.63-84.06 34.63h-182.5q-54.14 0-99.44 30.83-45.31 30.82-62.88 82.36ZM710.42-250Z"/></svg>