<svg xmlns="http://www.w3.org/2000/svg" height="20" viewBox="0 -960 960 960" width="20"><path d="M131-179.62q0-58.46 23.69-106 23.7-47.53 73.85-79.15-47.69-20-72.62-66.81Q131-478.38 131-532.31q0-110.04 78-187.86Q287-798 397.46-798q72.93 0 132.85 32.73 59.92 32.73 91.92 95.04 15.62-29.69 47.85-44.81 32.23-15.11 70.38-15.11 60.23 0 113.38 30.65Q907-668.85 907-611.23q0 45.61-28.83 76.46-28.82 30.85-75.86 30.85h-19.85v137.07q0 77.46-55.61 132.35-55.61 54.88-135.16 54.88H131Zm192-234.23q47.46 0 80.89-28.86 33.42-28.86 33.42-70.64 0-23.73-11.3-40.57-11.29-16.85-30.7-16.85-15.08 0-25 13.65-9.93 13.66-9.93 29.2h-76.99q0-48.5 33.17-84.67 33.16-36.18 82.11-36.18 50.56 0 83.6 38.5 33.04 38.5 33.04 95.42 0 28.77-11.5 58.04t-34.35 50.96h55.16q25.19 0 43.55-16.11 18.37-16.12 18.37-38.42v-68.08q0-80.96-53.96-136.25Q478.62-720 398.93-720q-80.01 0-134.47 54.04Q210-611.93 210-532.65q0 48.42 33 83.61t80 35.19Z"/></svg>