<svg xmlns="http://www.w3.org/2000/svg" height="40" viewBox="0 -960 960 960" width="40"><path d="M173.67-212.67q0-50.5 31.5-90.58t82.5-61.75q-52.5-15.5-83.25-60.83-30.75-45.34-30.75-102.97 0-91.53 68.23-154.7 68.23-63.17 167.27-63.17 70.83 0 128.25 35.5 57.41 35.5 85.91 97.17 7.34-43.67 40.86-69.25 33.52-25.58 77.56-25.58 48.44 0 86.09 22.23 37.66 22.24 37.66 63.51 0 32.68-22.83 55.3-22.83 22.62-55.17 22.62h-32.17v175.34q0 66.54-47.35 111.85-47.35 45.31-113.48 45.31H173.67Zm160.91-169.16q58.42 0 99.42-32.79t41-86.77q0-35.28-19.61-62.19-19.6-26.92-52.06-26.92-22.57 0-40.28 14.31-17.72 14.31-17.72 35.52h-23.16q0-30.33 25.09-51.66 25.09-21.34 58.06-21.34 41.85 0 67.35 33.21 25.5 33.2 25.5 78.3 0 38.33-18.09 69.2-18.08 30.86-48.75 51.13H539.3q33.03 0 56.7-23t23.67-56.64v-54.7q0-86.17-62.11-146.75-62.1-60.58-148.39-60.58-88.84 0-150.59 56.42-61.75 56.41-61.75 138.08 0 61.17 40 104.17t97.75 43Z"/></svg>