<svg xmlns="http://www.w3.org/2000/svg" height="48" viewBox="0 -960 960 960" width="48"><path d="M101.17-141.17q0-55.7 26.35-106.98t79.22-93.03q-50.44-30.69-78-81.72-27.57-51.03-27.57-109.67 0-118.35 84.29-202.58 84.28-84.24 207.5-84.24 70.47 0 130.32 31.56 59.85 31.57 108.29 96.57 21.43-39.87 58.6-61.94 37.18-22.06 85.22-22.06 73.83 0 120.63 37.19 46.81 37.2 46.81 88.81 0 48.65-32.92 81.74-32.92 33.09-78.08 33.09h-12.44v184q0 88.13-62.35 148.69-62.34 60.57-149.34 60.57H101.17Zm206.77-246.4q54.04 0 93.48-31.36 39.45-31.37 39.45-81.79 0-26.02-14.89-48.37-14.89-22.34-38.55-22.34-17.16 0-29.79 13.05Q345-545.33 345-529.43h-74.7q0-47.14 34.76-82.2 34.75-35.07 84.37-35.07 54.4 0 90.27 41.92 35.87 41.91 35.87 99.35 0 30.11-12 60.83-12 30.73-32.44 57.03h65.3q28.59 0 50.3-20.29 21.7-20.3 21.7-50.86v-64.17q0-91.11-62.5-156.18-62.5-65.06-152.5-65.06-90.85 0-154.21 61.73-63.35 61.74-63.35 149.83 0 60.57 38.22 102.79 38.22 42.21 93.85 42.21Z"/></svg>