<svg xmlns="http://www.w3.org/2000/svg" height="48" viewBox="0 -960 960 960" width="48"><path d="M143.08-182.69q0-50 29.04-94.87 29.04-44.86 80.61-77.21-51.34-24.31-80.5-72.27-29.15-47.96-29.15-104.34 0-103.16 75.18-174.45 75.18-71.28 184.09-71.28 69.15 0 126.19 32.98 57.04 32.98 97.92 96.29 15.5-42.04 49.74-65.49 34.24-23.44 78.61-23.44 58.77 0 99.67 28.39 40.9 28.4 40.9 73.7 0 39.13-26.9 66.12-26.9 26.98-65.25 26.98h-22.85v180.27q0 74.72-53.32 126.67t-128.48 51.95h-455.5Zm179.71-200.89q56.48 0 97.06-33.76 40.57-33.76 40.57-85.45 0-32.29-17.74-55.06-17.75-22.77-45.6-22.77-20.96 0-36.81 12.82-15.85 12.82-15.85 31.34h-43.84q0-36.46 28.98-62.23 28.97-25.77 68.65-25.77 45.83 0 75.94 34.78 30.12 34.79 30.12 83.89 0 33.56-15.33 65.1-15.33 31.55-41.09 57.11h92.55q30.75 0 53.22-22.17 22.46-22.17 22.46-54.47v-58.74q0-88.88-62.77-151.59-62.77-62.72-150.96-62.72-90.12 0-152.77 58.48-62.66 58.48-62.66 143.14 0 61.27 39.27 104.67t96.6 43.4Z"/></svg>