<svg xmlns="http://www.w3.org/2000/svg" height="40" viewBox="0 -960 960 960" width="40"><path d="M173.67-212.67q0-50.5 31.5-90.58t82.5-61.75q-52.25-15.7-83.13-60.94-30.87-45.24-30.87-102.64 0-91.96 68.23-155.02 68.23-63.07 167.27-63.07 70.83 0 128.25 35.4 57.41 35.4 85.91 97.27 7.34-43.67 40.86-69.25 33.52-25.58 77.56-25.58 48.31 0 86.03 22.27 37.72 22.28 37.72 63.47 0 33.07-22.75 55.5-22.74 22.42-55.25 22.42h-32.17v175.34q0 66.29-47.17 111.73-47.17 45.43-113.66 45.43H173.67Zm160.91-169.16q58.5 0 99.46-32.86Q475-447.55 475-501.39q0-35.48-19.66-62.29-19.66-26.82-51.86-26.82-22.72 0-40.43 14.18-17.72 14.19-17.72 35.65h-23.16q0-30.08 25.16-51.54t58.24-21.46q41.57 0 67.08 33.26 25.52 33.25 25.52 78.25 0 38.33-18.09 69.2-18.08 30.86-48.75 51.13h107.75q33.75 0 57.17-23t23.42-56.59v-54.75q0-85.49-62.09-146.41t-149-60.92q-88.25 0-150 56.91-61.75 56.92-61.75 137.59 0 61.17 39.83 104.17t97.92 43Zm-135.91 146h395.78q56.27 0 96.99-38.88 40.73-38.87 40.73-95.22V-535.5q0-13.65 10.25-23.24 10.25-9.59 24.07-9.59h20.04q22.47 0 39.14-15.88 16.66-15.89 16.66-39.19 0-18.08-12.32-31.19-12.32-13.11-28.68-20.58-16-6.66-30.86-8.58t-28.14-1.92q-41.01 0-70.25 28-29.25 28-29.25 69.15v127.02q0 43.58-30.48 73.21-30.48 29.62-72.96 29.62H371.02q-59.52 0-108.69 33-49.16 33-63.66 89.84Zm496.83-28Z"/></svg>