<svg xmlns="http://www.w3.org/2000/svg" height="40" viewBox="0 -960 960 960" width="40"><path d="M110.84-150.84q0-56.59 26.48-107.14 26.48-50.56 75.35-87.99-47.97-29.05-74.9-78.8-26.93-49.76-26.93-106 0-117.06 82.85-197.83 82.86-80.77 202.77-80.77 69.6 0 128.18 31.12 58.58 31.11 103.58 92.08 20.66-37.77 56.16-59.01 35.49-21.24 81.25-21.24 70.61 0 116.91 35.56 46.3 35.55 46.3 87.52 0 47.37-31.81 80.04-31.81 32.67-77.41 32.67h-10.08v176.49q0 84.98-60.19 144.14-60.18 59.16-145.85 59.16H110.84Zm203.11-241.54q52.3 0 89.94-32.22t37.64-80.12q0-25.66-13.68-43.58-13.67-17.92-34.94-17.92-17.44 0-29.64 11.96-12.21 11.96-12.21 28.8h-75.2q0-47.92 34.72-82.23 34.72-34.3 83.54-34.3 51.59 0 87.19 39.37 35.61 39.36 35.61 94 0 31.12-11.61 60.73-11.61 29.61-31.79 55.51h62.61q28.44 0 48.6-19.58 20.17-19.57 20.17-47.09v-61.64q0-88.15-61.1-150.53-61.09-62.38-147.3-62.38-87.94 0-149.1 58.46-61.17 58.47-61.17 144.18 0 56.08 36.9 97.33t90.82 41.25ZM205.5-226.23h399.26q53.83 0 91.42-36.99t37.59-91.12v-173.99q0-31.82 20.07-54.76 20.08-22.93 49.03-22.93h12.05q15.1 0 26.81-10.84 11.72-10.84 11.72-26.32 0-11.81-7.87-21.27-7.88-9.46-19.99-14.7-16.59-6.23-31.4-8.87-14.82-2.63-28.32-2.63-35.97 0-60.58 25.48-24.62 25.49-24.62 61.45v144.45q0 59.94-42.5 101.11t-101.84 41.17H350.85q-47.3 0-86.99 25.05-39.7 25.06-58.36 65.71Zm515.55-13.36Z"/></svg>