<svg xmlns="http://www.w3.org/2000/svg" height="48" viewBox="0 -960 960 960" width="48"><path d="M99-139q0-57 27-108.5t79-93.05q-50-30.45-78-81.5T99-533q0-118.79 84.5-203.89Q268-822 392.52-822q70.48 0 130.98 32Q584-758 632-693q21-39 58.17-61.5 37.18-22.5 86.1-22.5 77.73 0 123.23 38.5t45.5 88.81q0 49.05-33.62 82.37Q877.75-534 834-534h-12v184q0 89-63 150t-150 61H99Zm208.51-249q54.03 0 93.26-30.5Q440-449 440-500.28 440-525 425.19-548q-14.8-23-38.19-23-16.73 0-29.36 12.92Q345-545.15 345-529h-76q0-48 35.19-83.5Q339.37-648 389-648q55.24 0 91.12 43T516-505q0 31.85-12 61.93Q492-413 472-388h64q28.58 0 50.29-20.14T608-458.5v-64.82q0-90.68-62.5-156.18T393-745q-90.42 0-154.21 61.92Q175-621.17 175-533q0 61 38.22 103t94.29 42Z"/></svg>