<svg xmlns="http://www.w3.org/2000/svg" height="20" viewBox="0 -960 960 960" width="20"><path d="M107.65-156.65q0-61.44 21.48-113.03 21.48-51.6 69.76-88.36-44.76-24.76-68-72-23.24-47.24-23.24-100.2 0-120.32 83.72-205.71 83.72-85.4 201.91-85.4 71.72 0 132.58 31.24 60.86 31.24 97.62 91.24 20.76-26.52 53.88-39.64 33.12-13.12 71.07-13.12 68.87 0 125.52 35.7 56.64 35.69 56.64 97.97 0 51.72-32.89 86.7-32.88 34.98-84.83 34.98h-10.52v134.24q0 84.95-60.37 145.17-60.37 60.22-146.78 60.22H107.65Zm208.63-263.83q44.52 0 75.9-29.64 31.39-29.63 31.39-68.66 0-18.55-8.3-29.64-8.29-11.1-21.3-11.1-13.21 0-21.09 12.5-7.88 12.5-7.88 26.74h-99.15q0-56.61 37.42-98.12 37.42-41.51 92.76-41.51 54.21 0 91.07 39.69 36.86 39.7 36.86 99.94 0 26.26-8.88 55.39t-27.41 52.41h36.61q22.5 0 38.75-13.88T579.28-460v-70.24q0-80.43-53-135.57-53-55.15-131.53-55.15-78.23 0-131.97 55.05-53.74 55.04-53.74 135.33 0 45.34 31.27 77.72 31.27 32.38 75.97 32.38Z"/></svg>