<svg xmlns="http://www.w3.org/2000/svg" height="40" viewBox="0 -960 960 960" width="40"><path d="M96.75-136.75q0-57.96 24.4-110.74 24.4-52.78 76.51-93.29-49.09-30.17-75-80.76-25.91-50.58-25.91-107.37 0-121.82 85.99-208.16 85.98-86.34 210.21-86.34 70.56 0 130.92 30.74 60.35 30.74 106.78 93.08 22.1-38.86 59.92-59.56 37.82-20.7 84.73-20.7 71.22 0 122.29 37.05 51.07 37.04 51.07 93.86 0 50.8-33.63 85.57-33.62 34.77-83.28 34.77h-8.34v178.08q0 89.64-63.32 151.7-63.31 62.07-152.88 62.07H96.75Zm211.44-256.24q51.95 0 89.65-32.02 37.7-32.03 37.7-79.11 0-24.68-12.93-43.29-12.93-18.6-33.42-18.6-16.42 0-27.64 13.09-11.22 13.1-11.22 28.98h-84.86q0-51.38 36.32-89.44 36.31-38.07 89.14-38.07 55.16 0 92.52 41.8t37.36 101.72q0 27.85-10.63 58.26-10.62 30.4-30.3 56.68h54.72q27.39 0 47.86-18.73 20.48-18.74 20.48-47.2v-63.53q0-89.71-60.84-152.62-60.83-62.9-148.83-62.9-88.71 0-149.98 60.81-61.26 60.81-61.26 148.25 0 56.5 36.64 96.21 36.65 39.71 89.52 39.71Z"/></svg>