<svg xmlns="http://www.w3.org/2000/svg" height="40" viewBox="0 -960 960 960" width="40"><path d="M140-179.62q0-51.89 28.55-97.69 28.55-45.79 77.94-76.97-49.67-24.08-78.08-70.78Q140-471.77 140-527.59q0-105.26 76.09-178.83Q292.18-780 401.97-780q69.42 0 127.39 32.77t96.77 93.95q16.2-40.67 50.93-63.73 34.73-23.07 78.79-23.07 58.71 0 101.43 29.03Q900-682.02 900-634.2q0 40.12-28.26 68.32-28.25 28.19-67.97 28.19h-20.31v176.15q0 76.23-54.13 129.08-54.13 52.84-130.56 52.84H140Zm182.8-207.05q55.25 0 94.61-34.94 39.36-34.95 39.36-85.06 0-30.95-16.32-50.91-16.32-19.96-41.35-19.96-21.15 0-36.36 12.86-15.2 12.86-15.2 31.4h-50.26q0-39.28 29.99-66.9 29.99-27.61 71.86-27.61 46.31 0 77.1 34.35 30.8 34.36 30.8 84.88 0 32.87-14.45 64.79-14.45 31.92-39.79 57.1h87.24q29.84 0 51.35-21.21 21.52-21.22 21.52-52.09v-58.9q0-87.82-61.69-149.35-61.7-61.52-149.24-61.52-88.66 0-150.19 58.88-61.52 58.89-61.52 143.27 0 58.95 38.25 99.94 38.26 40.98 94.29 40.98Z"/></svg>