<svg xmlns="http://www.w3.org/2000/svg" height="20" viewBox="0 -960 960 960" width="20"><path d="M111-160q0-60 21-111t70-88q-45-25-68-72t-23-99q0-118.89 83-203.44Q277-818 394-818q71 0 131.5 31t97.5 91q21-27 54-40t70-13q66 0 123 34.5t57 97.5q0 51-32.29 85.5T810-497h-11v134q0 84-59.65 143.5T594-160H111Zm206.24-260q44.76 0 76.26-30.59 31.5-30.6 31.5-68.91 0-19.5-8.41-30T394.93-560Q381-560 373-547.5t-8 26.5h-97q0-55.42 36.82-96.21Q341.65-658 396.75-658q53.25 0 89.75 38.5T523-521q0 25.31-9 55.15Q505-436 486-412h39q22.5 0 38.75-14T580-460v-70q0-80.19-53-135.09Q474-720 395.47-720 317-720 263.5-665.2 210-610.39 210-530.34q0 45.34 31.27 77.84t75.97 32.5Z"/></svg>