<svg xmlns="http://www.w3.org/2000/svg" height="20" viewBox="0 -960 960 960" width="20"><path d="M144.87-193.87q0-54.13 25-99.31 25-45.19 67.5-77.43-42.24-23-67.37-67.34-25.13-44.33-25.13-93.98 0-106.78 75.23-179.24 75.23-72.46 181.73-72.46 67.93 0 125.03 31.62 57.1 31.62 91.1 87.6 19-24.76 47.34-39.14 28.35-14.38 61.3-14.38 60.94 0 107.95 30.53 47.02 30.53 47.02 83.07 0 43.11-29 72.31-28.99 29.19-70.11 29.19h-17.33v130.22q0 74.45-52.42 126.6-52.42 52.14-127.06 52.14H144.87Zm184.98-223.59q45.54 0 77.8-33.66 32.26-33.65 32.26-73.73 0-21.3-10.39-29.63-10.39-8.32-24.22-8.32-17.72 0-28.64 10.95-10.92 10.95-10.92 25.52h-72.98q0-45.54 32.4-77.62 32.41-32.07 79.14-32.07 45.44 0 77.13 31.01 31.7 31.01 31.7 80.18 0 29.79-11.9 60.69t-31.69 54.68h61.73q23.32 0 39.07-15.51t15.75-36.29v-65.72q0-76.25-53.15-129.84t-129.65-53.59q-76.96 0-130.58 50.91-53.62 50.91-53.62 127.18 0 45.36 32.14 80.11 32.15 34.75 78.62 34.75Z"/></svg>