<svg xmlns="http://www.w3.org/2000/svg" height="40" viewBox="0 -960 960 960" width="40"><path d="M162.82-202.05q0-50.73 30.38-92.62 30.39-41.89 80.81-67.02-51.38-18.54-81.29-64.57-29.9-46.02-29.9-102.73 0-96.04 70.79-162.22 70.79-66.19 173.4-66.19 69.99 0 127.35 34.43 57.36 34.42 89.67 95.66 10.41-42.43 44.1-67.04 33.69-24.6 77.39-24.6 51.86 0 91.06 24.51 39.19 24.51 39.19 67.85 0 35.26-24.5 59.65-24.51 24.39-59.27 24.39h-27.9v175.29q0 69.66-49.54 117.43-49.54 47.78-118.98 47.78H162.82Zm168.14-181.78q57.16 0 97.54-33.46 40.38-33.46 40.38-85.87 0-33.62-18.47-57.96-18.47-24.34-48.31-24.34-22 0-38.79 13.69-16.78 13.69-16.78 33.87h-32.44q0-33.22 26.73-56.61t62.65-23.39q43.24 0 70.54 33.47 27.31 33.48 27.31 80.04 0 36.4-16.87 67.5t-45.42 53.06h100.53q31.85 0 54.71-22.33t22.86-54.92v-55.93q0-86.37-61.87-147.16-61.87-60.79-148.25-60.79-88.6 0-150.18 56.72-61.57 56.73-61.57 139.05 0 60.16 39.34 102.76 39.35 42.6 96.36 42.6Z"/></svg>