<svg xmlns="http://www.w3.org/2000/svg" height="24" viewBox="0 -960 960 960" width="24"><path d="M74-114q0-69 23-127t70-95q-45-28-69-78.5T74-523q0-134.56 91.55-228.78T389.95-846q73.05 0 136.55 30.5Q590-785 631-728q22-34 61.23-53t88.65-19q81.12 0 137.62 42.5T975-651.98q0 57.5-37.8 97.74Q899.41-514 844-514h2v167q0 97.2-68.5 165.1Q709-114 612-114H74Zm231.2-292q47.26 0 80.53-29T419-508.28q0-16.72-8.5-30.72T389-553q-11.55 0-19.77 13-8.23 13-8.23 30H247q0-65 41.91-112t102.57-47q60.52 0 102.02 47Q535-575 535-510q0 28.85-7.5 55.43Q520-428 504-406h24q25.42 0 43.21-15.08Q589-436.17 589-459v-63.36Q589-610 531.5-670 474-730 390-730q-83 0-141.5 60T190-523q0 49 33.5 83t81.7 34ZM222-230h394q48.33 0 81.17-33.64Q730-297.27 730-347v-165q0-48 28-83t71-35h7q8 0 15.5-6.75t7.5-14.75q0-7.13-4.14-12.31Q850.72-669 843-672q-17-6-32.33-9-15.34-3-29.37-3-32.29 0-54.29 21.5Q705-641 705-610v151q0 70.37-51.84 119.69Q601.33-290 528-290H348q-43 0-75.5 15T222-230Zm510 3Z"/></svg>