<svg xmlns="http://www.w3.org/2000/svg" height="40" viewBox="0 -960 960 960" width="40"><path d="M104.17-144.17q0-57.76 26.31-109.39 26.32-51.64 75.69-89.75-48.56-29.5-75.28-78.79-26.72-49.29-26.72-106.36 0-119.37 84.42-203.56Q273-816.2 394.8-816.2q70.26 0 129.84 31.45t104.91 93.24q21.33-38.43 58.06-59.67 36.72-21.24 83.6-21.24 72.34 0 119.99 36.48 47.64 36.49 47.64 89.85 0 48.74-33.26 82.35-33.27 33.61-79.96 33.61h-9.42v177.99q0 86.89-61.55 147.43-61.56 60.54-148.98 60.54h-501.5Zm206.75-247.71q52.57 0 90.34-32.68 37.77-32.69 37.77-81.11 0-25.55-13.32-43.38-13.32-17.83-34.13-17.83-17.36 0-29.52 12.29t-12.16 29.13h-78.54q0-49.76 35.55-85.14 35.54-35.39 85.55-35.39 52.75 0 89.02 40 36.27 39.99 36.27 96.53 0 30.79-11.11 61.03-11.1 30.24-31.78 56.55h61.47q28.24 0 48.4-19.49 20.17-19.49 20.17-47.21v-63.22q0-89.27-61.22-152.29-61.22-63.01-148.88-63.01-88.67 0-150.29 60.79-61.61 60.8-61.61 147.85 0 56.91 36.88 96.74 36.89 39.84 91.14 39.84Z"/></svg>