<svg xmlns="http://www.w3.org/2000/svg" height="24" viewBox="0 -960 960 960" width="24"><path d="M111.87-151.87q0-58.63 24.5-110.06 24.5-51.44 69.5-85.68-44.24-28-69.12-73.84-24.88-45.83-24.88-99.03 0-119.35 83.41-203.5 83.42-84.15 203.05-84.15 67.43 0 127.53 30.62 60.1 30.62 100.1 85.1 22-34.76 58.09-54.64 36.1-19.88 78.78-19.88 66.58 0 116.66 34.79t50.08 92.51q0 48.91-33.96 83.11-33.96 34.19-82.15 34.19h-5.33v164.72q0 86.39-60.17 146.07-60.18 59.67-145.81 59.67H111.87Zm205.5-249.09q49.52 0 84.28-36.7 34.76-36.71 34.76-80.19 0-22.8-10.52-31.88-10.52-9.07-24.52-9.07-18.57 0-29.85 11.73-11.28 11.74-11.28 28.74h-85.98q0-52.63 36.32-89.66 36.31-37.03 88.75-37.03 50.91 0 87.1 35.51 36.2 35.51 36.2 91.18 0 29.48-10.4 60.79-10.4 31.3-29.69 56.58h55.31q25.24 0 42.74-16.76 17.5-16.76 17.5-42.04v-60.72q0-83.72-58.38-142.57-58.38-58.86-141.38-58.86-84 0-142.12 58.86-58.12 58.85-58.12 142.57 0 50.52 34.38 85.02 34.38 34.5 84.9 34.5Z"/></svg>