<svg xmlns="http://www.w3.org/2000/svg" height="20" viewBox="0 -960 960 960" width="20"><path d="M163-211.62q0-51.46 27.19-93.5 27.2-42.03 72.35-69.65-45.69-19-72.62-61.31Q163-478.38 163-530.31q0-98.04 70.5-166.86Q304-766 404.46-766q68.93 0 126.35 33.73 57.42 33.73 87.42 93.04 14.62-28.69 43.35-45.31 28.73-16.61 62.88-16.61 54.23 0 98.38 26.15Q867-648.85 867-600.23q0 37.61-26.33 63.46-26.32 25.85-63.36 25.85h-26.85v135.07q0 68.46-48.61 116.35-48.61 47.88-117.16 47.88H163Zm171-198.23q49.46 0 83.89-34.36 34.42-34.36 34.42-78.14 0-26.73-13.3-40.07-13.29-13.35-32.7-13.35-20.08 0-33.5 12.15-13.43 12.16-13.43 28.7h-51.99q0-38.5 28.67-65.67 28.66-27.18 69.61-27.18 42.56 0 70.6 29.5 28.04 29.5 28.04 76.42 0 32.77-14.5 65.04t-39.35 54.96h83.16q25.19 0 43.05-17.61 17.87-17.62 17.87-41.92v-65.08q0-77.96-54.96-132.75Q484.62-714 405.93-714q-80.01 0-134.97 53.54Q216-606.93 216-530.65q0 50.42 34 85.61t84 35.19Z"/></svg>