<svg xmlns="http://www.w3.org/2000/svg" height="24" viewBox="0 -960 960 960" width="24"><path d="M148.08-187.69q0-53.35 27.5-98.33T248.31-359q-45.89-22.19-73.06-67.81-27.17-45.61-27.17-98.37 0-104.28 74.8-175.36 74.79-71.07 182.7-71.07 67.42 0 125.13 31.92 57.71 31.92 91.91 86.92 15.61-37.07 49.07-59.09 33.46-22.02 74.08-22.02 55.16 0 98.64 28.08 43.47 28.08 43.47 77.91 0 40.39-28.07 68.43-28.08 28.04-67.77 28.04h-16.66v165.15q0 75.1-52.94 126.84-52.95 51.74-127.48 51.74H148.08Zm181.16-206.66q52.15 0 89.07-36.22 36.92-36.22 36.92-82.16 0-28.04-14.25-42.64-14.24-14.59-34.98-14.59-21.19 0-35.25 12.36-14.06 12.37-14.06 30.68h-55.96q0-41.16 30.4-70.08t73.64-28.92q44.96 0 75.69 32.19 30.73 32.19 30.73 81 0 32.46-13.9 63.83-13.91 31.36-37.45 54.55h79.39q28.08 0 47.69-19.27 19.62-19.26 19.62-47.26v-56.47q0-82.3-58.92-140.3-58.93-58-142.04-58-84.43 0-142.98 54.75-58.56 54.75-58.56 135.67 0 52.96 36.23 91.92t88.97 38.96Z"/></svg>