<svg xmlns="http://www.w3.org/2000/svg" height="48" viewBox="0 -960 960 960" width="48"><path d="M110.87-150.87q0-54.52 27.22-104.53 27.21-50.01 78.78-89.39-50.18-30.06-78.09-80.71-27.91-50.64-27.91-108.36 0-115.36 82.42-195.6 82.43-80.24 202.22-80.24 69.86 0 128.02 31.54Q581.7-746.63 629.7-682q20.5-39.94 56.16-61.94t82.68-22q71.5 0 116.21 35.35 44.71 35.35 44.71 85.04 0 46.19-31.02 78.03-31.02 31.85-75.64 31.85h-13.1v183.13q0 84.09-60 142.88-60 58.79-145.24 58.79H110.87ZM311.85-387.2q54.32 0 93.63-31.51 39.3-31.52 39.3-81.67 0-27.9-15.35-49.38-15.34-21.48-39.95-21.48-17.74 0-30.83 12.05-13.08 12.04-13.08 29.02h-68.24q0-45.03 33.64-77.45t80.57-32.42q51.49 0 86.49 40.07 34.99 40.08 34.99 94.31 0 31.62-12.37 61.57t-33.74 56.89h70.11q29.59 0 51.09-21.01 21.5-21.02 21.5-50.4v-62.75q0-90.56-62.84-155.05-62.84-64.48-151.29-64.48-90.54 0-153.46 59.9-62.91 59.9-62.91 146.86 0 59.93 38.24 103.43 38.24 43.5 94.5 43.5ZM196-219.11h409.53q56.68 0 96.02-38.52 39.34-38.53 39.34-95.11v-180.8q0-28.4 18.8-49.39 18.79-20.98 44.58-20.98h13.75q16.76 0 29.98-12.18 13.22-12.18 13.22-29.31 0-12.91-8.66-23.63-8.66-10.71-22.08-16.6-17.57-6.57-32.88-9.03-15.32-2.47-28.65-2.47-38.38 0-64.46 26.9-26.08 26.9-26.08 64.88v146.42q0 59.39-41.67 99.68-41.67 40.29-99.45 40.29H347.06q-49.72 0-91.21 27.59-41.48 27.59-59.85 72.26Zm528.15-17.74Z"/></svg>