<svg xmlns="http://www.w3.org/2000/svg" height="48" viewBox="0 -960 960 960" width="48"><path d="M156-195q0-53 30-96t84-68q-54-17-84-64.5T156-530q0-97.79 72-165.89Q300-764 404.52-764 478-764 537-729q59 35 89 99 9-44 44.17-69.5 35.18-25.5 82.07-25.5Q804-725 846-700q42 25 42 70.31 0 36.13-24.5 61.41Q839-543 803-543h-30v178q0 73-51 121.5T599-195H156Zm171.5-187q58.04 0 99.27-30T468-496.28Q468-530 449-560t-52-30q-20.73 0-36.86 15.71Q344-558.58 344-539h-35q0-34 27.19-60 27.18-26 64.81-26 46.29 0 74.15 38Q503-549 503-498q0 35.85-17 65.93Q469-402 440-382h95q33.58 0 57.79-22.5T617-461v-56.32q0-88.68-62-150.18T405-729q-89.42 0-151.71 57.5Q191-614 191-530q0 61 40.22 104.5T327.5-382Z"/></svg>