<svg xmlns="http://www.w3.org/2000/svg" height="40" viewBox="0 -960 960 960" width="40"><path d="M172-211q0-50.67 31.83-91.33 31.84-40.67 81.84-62-52.08-15.87-82.88-60.94Q172-470.34 172-528q0-92.54 68.58-156.27Q309.17-748 408.33-748q71.67 0 129.34 35.33 57.66 35.34 86 97.34 8-43.34 41.5-69.17t78.16-25.83q48.67 0 86.67 22.66 38 22.67 38 64.34 0 32.72-23.25 55.69T789-544.67h-32v175.34q0 66.78-47.61 112.55Q661.78-211 594.67-211H172Zm161.67-170.33q58.41 0 99.37-33 40.96-33 40.96-87 0-35.67-19.5-62.5-19.5-26.84-51.5-26.84-23 0-40.67 14.38-17.66 14.37-17.66 35.62h-24q0-30.66 25.23-52.33 25.24-21.67 58.77-21.67 42 0 67.66 33.34Q498-548 498-502q0 38-17.83 69-17.84 31-48.5 51.67H539q33.83 0 57.25-23.17t23.42-56.5v-55q0-86.32-61.99-147.16Q495.7-724 407.75-724q-88.08 0-149.92 57.33Q196-609.34 196-528q0 61 39.83 103.83 39.83 42.84 97.84 42.84ZM197.67-235h397q56.39 0 97.36-38.93T733-369.24v-166.43q0-14.18 10.33-23.59 10.34-9.41 24.34-9.41h20.86q22.47 0 38.97-15.88t16.5-39.28q0-18.17-12.17-31.34-12.16-13.16-29.16-20.16-15.67-6.67-30.45-8.84-14.78-2.16-28.89-2.16-41.08 0-70.37 28.16-29.29 28.17-29.29 69.5V-461q0 43.58-30.71 73.62-30.71 30.05-73.96 30.05H370q-59.17 0-108.25 32.66Q212.67-292 197.67-235Zm498.66-27.67Z"/></svg>