<svg xmlns="http://www.w3.org/2000/svg" height="24" viewBox="0 -960 960 960" width="24"><path d="M80.09-120.09q0-66.39 22.13-123.3t70.43-94.35q-45.43-28.43-69-78.5-23.56-50.06-23.56-106.33 0-131.89 90.34-224.62 90.35-92.72 220.85-92.72 71.72 0 134.57 30.06 62.85 30.07 104.28 87.07 22.44-34.87 61.54-53.66 39.11-18.78 86.6-18.78 75.9 0 133.06 40.33 57.15 40.32 57.15 104.67 0 56.17-36.8 95.54-36.8 39.38-92.9 39.38h1.13v166.56q0 95.38-67.19 162.01-67.2 66.64-162.89 66.64H80.09Zm226.97-285.04q47.37 0 80.96-30.74 33.59-30.74 33.59-73.59 0-18.58-8.72-31.5-8.72-12.91-22.15-12.91-12.85 0-21.3 13-8.44 13-8.44 29.57H250.91q0-62.83 40.87-108.53 40.86-45.69 100.87-45.69 58.92 0 99.76 44.82 40.85 44.83 40.85 109.4 0 27.17-7.72 55.02-7.71 27.85-24.58 51.15h28.34q25.42 0 43.21-15.3T590.3-459v-62.99q0-87.14-57.5-146.71-57.5-59.56-141.5-59.56-83.25 0-141.4 59.56-58.16 59.57-58.16 146.13 0 49 33.5 83.22t81.82 34.22Zm-84.63 173.39h390.96q49.06 0 81.97-33.64 32.9-33.63 32.9-83.36v-165q0-44.96 26.04-79.09 26.05-34.13 70.35-34.13h7.44q9.3 0 17.02-6.91 7.72-6.91 7.72-16 0-7.62-4.66-13.16-4.65-5.54-12.65-8.54-17-6-31.9-9-14.9-3-29.06-3-32.6 0-54.6 21.72t-22 53.15V-459q0 69.28-50.57 117.4-50.56 48.12-122.09 48.12h-180q-43.43 0-75.5 14.57-32.06 14.56-51.37 47.17Zm506.96 1.7Z"/></svg>