<svg xmlns="http://www.w3.org/2000/svg" height="24" viewBox="0 -960 960 960" width="24"><path d="M166.15-205.38q0-52.2 30-93.91 30-41.71 76.97-64.71-48.77-17.38-77.87-62.62-29.1-45.23-29.1-100.29 0-96.01 70.28-161.42 70.28-65.4 172.22-65.4 69.35 0 126.77 33.85 57.43 33.84 86.81 91.34 10.23-40.15 43.4-64.19 33.18-24.04 75.14-24.04 49.97 0 89.98 24.43 40.02 24.43 40.02 69.25 0 35.59-24.9 60.17-24.9 24.57-59.79 24.57h-25.31v168.81q0 69.14-49.29 116.65-49.29 47.51-118.06 47.51H166.15Zm168.09-182.81q55.03 0 93.88-34.59 38.84-34.59 38.84-84.18 0-32.08-17.03-53.02-17.04-20.94-43.93-20.94-22.15 0-38.13 13.52-15.99 13.52-15.99 33.55h-36.92q0-34.8 27.04-59.4 27.03-24.6 64.31-24.6 42.65 0 70.11 32.39 27.46 32.38 27.46 78.5 0 35.92-16.3 66.9-16.31 30.98-43.89 51.87h95.35q30.58 0 52.31-21.29 21.73-21.29 21.73-51.79v-54.92q0-83.27-60.08-141.94-60.08-58.68-144.35-58.68-86.34 0-145.96 54.75-59.61 54.75-59.61 135.1 0 56.42 37.96 97.59 37.96 41.18 93.2 41.18Z"/></svg>