<svg xmlns="http://www.w3.org/2000/svg" height="20" viewBox="0 -960 960 960" width="20"><path d="M109-158q0-64 24.5-115.5T202-359q-44-24-68.5-70T109-530q0-120.89 83.27-205.44Q275.55-820 393.71-820q73.29 0 133.79 32.5Q588-755 623-696q20-25 52-39t72-14q75 0 127.5 37.5T927-617q0 51-33.58 85.5Q859.83-497 812-497h-11v135q0 85.08-59.65 144.54Q681.7-158 596-158H109Zm208.45-262q45.01 0 76.28-28.59Q425-477.19 425-519.5q0-17.5-8.41-29T394.93-560q-12.93 0-21.43 12t-8.5 27h-97q0-56.42 37.82-96.71Q343.65-658 396.75-658q53.25 0 89.75 40t36.5 97q0 31.31-9.5 59.15Q504-434 486-412h39q23.5 0 39.25-14.5T580-460v-69.52q0-80.67-53.71-136.57Q472.58-722 395.47-722q-78.89 0-133.18 55.8Q208-610.39 208-530.34q0 45.34 31.77 77.84t77.68 32.5ZM235-256h365q43.33 0 73.67-29.42Q704-314.85 704-362v-133q0-42 32.5-70.5T808-594h-5q9 0 17.5-6.63 8.5-6.62 8.5-15.12 0-8.66-4.82-14.95-4.82-6.3-13.18-7.3-17-5-33-8.5t-30.7-3.5q-29.37 0-49.83 19.65Q677-610.7 677-582v122q0 60-44.41 105-44.4 45-108.59 45H351q-38 0-69.5 14T235-256Zm469 0Z"/></svg>