<svg xmlns="http://www.w3.org/2000/svg" version="1.1" width="3300" height="2000"><g id="Notes"><style>
    text {
      font-family: monospace;
      text-anchor: middle;
    }
    text.emphasis {
      font-weight:bold;
    }
    text.lanchor {
      text-anchor: start;
    }
  </style><rect height="2200" id="artboard" fill="white" width="3300" x="0" y="0"/><line id="" style="fill:none;stroke:black;stroke-width:0.5;" x1="263" x2="3036" y1="292" y2="292"/><text class="lanchor emphasis" transform="matrix(1 0 0 1 263 322)">Weight/Scale Variations</text><text transform="matrix(1 0 0 1 559.711 322)">Ultralight</text><text transform="matrix(1 0 0 1 856.422 322)">Thin</text><text transform="matrix(1 0 0 1 1153.13 322)">Light</text><text transform="matrix(1 0 0 1 1449.84 322)">Regular</text><text transform="matrix(1 0 0 1 1746.56 322)">Medium</text><text transform="matrix(1 0 0 1 2043.27 322)">Semibold</text><text transform="matrix(1 0 0 1 2339.98 322)">Bold</text><text transform="matrix(1 0 0 1 2636.69 322)">Heavy</text><text transform="matrix(1 0 0 1 2933.4 322)">Black</text><text id="template-version" style="text-anchor: end;" transform="matrix(1 0 0 1 3036 1933)">Template v.1.0</text><text class="lanchor" transform="matrix(1 0 0 1 263 726)">Small</text><text class="lanchor" transform="matrix(1 0 0 1 263 1156)">Medium</text><text class="lanchor" transform="matrix(1 0 0 1 263 1586)">Large</text></g><g id="Guides"><g id="H-reference" style="fill:#27AAE1;stroke:none;" transform="matrix(1 0 0 1 339 696)"><path d="M 54.9316 0 L 57.666 0 L 30.5664 -70.459 L 28.0762 -70.459 L 0.976562 0 L 3.66211 0 L 12.9395 -24.4629 L 45.7031 -24.4629 Z M 29.1992 -67.0898 L 29.4434 -67.0898 L 44.8242 -26.709 L 13.8184 -26.709 Z"/></g><line id="Baseline-S" style="fill:none;stroke:#27AAE1;opacity:1;stroke-width:0.577;" x1="263" x2="3036" y1="696" y2="696"/><line id="Capline-S" style="fill:none;stroke:#27AAE1;opacity:1;stroke-width:0.577;" x1="263" x2="3036" y1="625.541" y2="625.541"/><g id="H-reference" style="fill:#27AAE1;stroke:none;" transform="matrix(1 0 0 1 339 1126)"><path d="M 54.9316 0 L 57.666 0 L 30.5664 -70.459 L 28.0762 -70.459 L 0.976562 0 L 3.66211 0 L 12.9395 -24.4629 L 45.7031 -24.4629 Z M 29.1992 -67.0898 L 29.4434 -67.0898 L 44.8242 -26.709 L 13.8184 -26.709 Z"/></g><line id="Baseline-M" style="fill:none;stroke:#27AAE1;opacity:1;stroke-width:0.577;" x1="263" x2="3036" y1="1126" y2="1126"/><line id="Capline-M" style="fill:none;stroke:#27AAE1;opacity:1;stroke-width:0.577;" x1="263" x2="3036" y1="1055.54" y2="1055.54"/><g id="H-reference" style="fill:#27AAE1;stroke:none;" transform="matrix(1 0 0 1 339 1556)"><path d="M 54.9316 0 L 57.666 0 L 30.5664 -70.459 L 28.0762 -70.459 L 0.976562 0 L 3.66211 0 L 12.9395 -24.4629 L 45.7031 -24.4629 Z M 29.1992 -67.0898 L 29.4434 -67.0898 L 44.8242 -26.709 L 13.8184 -26.709 Z"/></g><line id="Baseline-L" style="fill:none;stroke:#27AAE1;opacity:1;stroke-width:0.577;" x1="263" x2="3036" y1="1556" y2="1556"/><line id="Capline-L" style="fill:none;stroke:#27AAE1;opacity:1;stroke-width:0.577;" x1="263" x2="3036" y1="1485.54" y2="1485.54"/><rect height="119.336" id="left-margin" style="fill:darkred;stroke:none;opacity:0.4;" width="12.4512" x="1394.06" y="1030.79"/><rect height="119.336" id="right-margin" style="fill:darkgreen;stroke:none;opacity:0.4;" width="12.4512" x="1502.5112" y="1030.79"/><rect x="1406.5112" y="1045" width="96" height="96" fill="none" stroke="blue" stroke-dasharray="5"/><rect x="1394.06" y="1030.79" width="120.9024" height="119.336" fill="none" stroke="blue"/></g><g id="Symbols"><g id="Bold-L" transform="matrix(1 0 0 1 2266 1556)"><path d="M99.169 33.301 Q92.806 33.301 88.328 28.872 Q83.85 24.441 83.85 18.144 V-7.172 Q83.85 -13.3 88.328 -17.815 Q92.806 -22.33 99.169 -22.33 H138.03 Q144.157 -22.33 148.673 -17.815 Q153.188 -13.3 153.188 -7.172 V18.144 Q153.188 24.441 148.673 28.872 Q144.157 33.301 138.03 33.301 H99.169 Z M99.169 18.144 H138.03 Q138.03 18.144 138.03 18.144 Q138.03 18.144 138.03 18.144 V-7.172 Q138.03 -7.172 138.03 -7.172 Q138.03 -7.172 138.03 -7.172 H99.169 Q99.169 -7.172 99.169 -7.172 Q99.169 -7.172 99.169 -7.172 V18.144 Q99.169 18.144 99.169 18.144 Q99.169 18.144 99.169 18.144 Z M58.938 33.301  55.631 11.694 Q53.467 11.031 50.841 9.509 Q48.214 7.985 46.44 6.534 L26.284 15.886 L7.579 -17.17 L25.961 -30.554 Q25.8 -31.5 25.719 -32.885 Q25.639 -34.271 25.639 -35.215 Q25.639 -36.162 25.719 -37.547 Q25.8 -38.932 25.961 -39.906 L7.579 -53.451 L26.284 -86.185 L46.803 -76.994 Q48.375 -78.284 50.955 -79.735 Q53.535 -81.186 55.631 -81.831 L59.014 -103.922 H95.782 L99.169 -81.992 Q101.3 -81.204 103.943 -79.824 Q106.586 -78.445 108.36 -76.994 L128.678 -86.185 L147.221 -53.451 L128.678 -40.229 Q128.678 -39.422 128.839 -37.81 Q129 -36.197 129 -35.552 H97.879 Q97.879 -35.552 97.879 -35.552 Q97.879 -35.552 97.879 -35.552 Q97.718 -44.099 91.637 -50.146 Q85.558 -56.192 77.078 -56.192 Q68.209 -56.192 62.162 -50.065 Q56.115 -43.937 56.115 -35.23 Q56.115 -28.457 60.066 -22.975 Q64.016 -17.492 70.144 -15.469 V33.301 H58.938 Z"/></g><g id="Semibold-L" transform="matrix(1 0 0 1 1970.27 1556)"><path d="M96.715 31.548 Q91.435 31.548 87.643 27.783 Q83.85 24.016 83.85 18.774 V-9.556 Q83.85 -14.703 87.643 -18.516 Q91.435 -22.33 96.715 -22.33 H138.311 Q143.456 -22.33 147.27 -18.516 Q151.085 -14.703 151.085 -9.556 V18.774 Q151.085 24.016 147.27 27.783 Q143.456 31.548 138.311 31.548 H96.715 Z M96.715 18.774 H138.311 Q138.311 18.774 138.311 18.774 Q138.311 18.774 138.311 18.774 V-9.556 Q138.311 -9.556 138.311 -9.556 Q138.311 -9.556 138.311 -9.556 H96.715 Q96.715 -9.556 96.715 -9.556 Q96.715 -9.556 96.715 -9.556 V18.774 Q96.715 18.774 96.715 18.774 Q96.715 18.774 96.715 18.774 Z M60.516 31.548  57.244 10.502 Q54.69 9.638 51.732 7.935 Q48.775 6.232 46.65 4.5 L26.985 13.572 L9.893 -16.609 L27.854 -29.712 Q27.622 -30.878 27.542 -32.468 Q27.461 -34.056 27.461 -35.222 Q27.461 -36.388 27.542 -37.978 Q27.622 -39.566 27.854 -40.748 L9.893 -53.941 L26.985 -83.942 L46.856 -74.96 Q48.865 -76.602 51.797 -78.263 Q54.727 -79.924 57.244 -80.709 L60.557 -102.1 H94.241 L97.556 -80.87 Q100.093 -79.933 103.095 -78.348 Q106.096 -76.763 108.15 -74.96 L127.907 -83.942 L144.907 -53.941 L126.855 -41.07 Q126.925 -39.913 127.05 -38.195 Q127.178 -36.478 127.178 -35.483 H98.019 Q98.019 -35.483 98.019 -35.483 Q98.019 -35.483 98.019 -35.483 Q97.927 -44.099 91.863 -50.146 Q85.796 -56.192 77.218 -56.192 Q68.418 -56.192 62.338 -50.065 Q56.255 -43.937 56.255 -35.23 Q56.255 -28.457 60.17 -23.044 Q64.086 -17.633 70.213 -15.508 V31.548 H60.516 Z"/></g><g id="Medium-L" transform="matrix(1 0 0 1 1674.31 1556)"><path d="M94.875 30.234 Q90.408 30.234 87.13 26.966 Q83.85 23.699 83.85 19.248 V-11.344 Q83.85 -15.754 87.13 -19.042 Q90.408 -22.33 94.875 -22.33 H138.52 Q142.93 -22.33 146.218 -19.042 Q149.506 -15.754 149.506 -11.344 V19.248 Q149.506 23.699 146.218 26.966 Q142.93 30.234 138.52 30.234 H94.875 Z M94.875 19.248 H138.52 Q138.52 19.248 138.52 19.248 Q138.52 19.248 138.52 19.248 V-11.344 Q138.52 -11.344 138.52 -11.344 Q138.52 -11.344 138.52 -11.344 H94.875 Q94.875 -11.344 94.875 -11.344 Q94.875 -11.344 94.875 -11.344 V19.248 Q94.875 19.248 94.875 19.248 Q94.875 19.248 94.875 19.248 Z M61.697 30.234  58.453 9.609 Q55.605 8.591 52.4 6.755 Q49.196 4.918 46.808 2.975 L27.511 11.837 L11.628 -16.188 L29.273 -29.082 Q28.99 -30.412 28.909 -32.153 Q28.828 -33.896 28.828 -35.227 Q28.828 -36.557 28.909 -38.299 Q28.99 -40.042 29.273 -41.378 L11.628 -54.311 L27.511 -82.259 L46.895 -73.435 Q49.234 -75.339 52.427 -77.158 Q55.62 -78.977 58.453 -79.869 L61.715 -100.733 H93.083 L96.347 -80.03 Q99.188 -78.982 102.458 -77.24 Q105.727 -75.501 107.992 -73.435 L127.328 -82.259 L143.172 -54.311 L125.488 -41.701 Q125.611 -40.282 125.711 -38.484 Q125.81 -36.688 125.81 -35.43 H98.124 Q98.124 -35.43 98.124 -35.43 Q98.124 -35.43 98.124 -35.43 Q98.085 -44.099 92.03 -50.146 Q85.975 -56.192 77.323 -56.192 Q68.576 -56.192 62.468 -50.065 Q56.36 -43.937 56.36 -35.23 Q56.36 -28.457 60.249 -23.098 Q64.139 -17.738 70.266 -15.537 V30.234 H61.697 Z"/></g><g id="Regular-L" transform="matrix(1 0 0 1 1378.56 1556)"><path d="M93.525 29.27 Q89.655 29.27 86.752 26.368 Q83.85 23.465 83.85 19.595 V-12.655 Q83.85 -16.525 86.752 -19.427 Q89.655 -22.33 93.525 -22.33 H138.675 Q142.545 -22.33 145.447 -19.427 Q148.35 -16.525 148.35 -12.655 V19.595 Q148.35 23.465 145.447 26.368 Q142.545 29.27 138.675 29.27 H93.525 Z M93.525 19.595 H138.675 Q138.675 19.595 138.675 19.595 Q138.675 19.595 138.675 19.595 V-12.655 Q138.675 -12.655 138.675 -12.655 Q138.675 -12.655 138.675 -12.655 H93.525 Q93.525 -12.655 93.525 -12.655 Q93.525 -12.655 93.525 -12.655 V19.595 Q93.525 19.595 93.525 19.595 Q93.525 19.595 93.525 19.595 Z M62.565 29.27  59.34 8.953 Q56.276 7.824 52.89 5.889 Q49.504 3.954 46.924 1.858 L27.896 10.565 L12.9 -15.88 L30.315 -28.619 Q29.992 -30.07 29.912 -31.924 Q29.831 -33.779 29.831 -35.23 Q29.831 -36.681 29.912 -38.536 Q29.992 -40.39 30.315 -41.841 L12.9 -54.58 L27.896 -81.025 L46.924 -72.317 Q49.504 -74.414 52.89 -76.349 Q56.276 -78.284 59.34 -79.251 L62.565 -99.73 H92.235 L95.46 -79.412 Q98.524 -78.284 101.991 -76.429 Q105.457 -74.575 107.876 -72.317 L126.904 -81.025 L141.9 -54.58 L124.485 -42.164 Q124.646 -40.551 124.727 -38.697 Q124.808 -36.842 124.808 -35.391 H98.201 Q98.201 -35.391 98.201 -35.391 Q98.201 -35.391 98.201 -35.391 Q98.201 -44.099 92.154 -50.146 Q86.108 -56.192 77.4 -56.192 Q68.692 -56.192 62.565 -50.065 Q56.438 -43.937 56.438 -35.23 Q56.438 -28.457 60.308 -23.136 Q64.177 -17.815 70.305 -15.557 V29.27 H62.565 Z"/></g><g id="Light-L" transform="matrix(1 0 0 1 1082.77 1556)"><path d="M93.153 26.045 Q89.358 26.045 86.604 23.291 Q83.85 20.537 83.85 16.742 V-13.027 Q83.85 -16.822 86.604 -19.576 Q89.358 -22.33 93.153 -22.33 H135.822 Q139.617 -22.33 142.371 -19.576 Q145.125 -16.822 145.125 -13.027 V16.742 Q145.125 20.537 142.371 23.291 Q139.617 26.045 135.822 26.045 H93.153 Z M93.153 18.726 H135.822 Q136.69 18.726 137.248 18.168 Q137.806 17.61 137.806 16.742 V-13.027 Q137.806 -13.895 137.248 -14.453 Q136.69 -15.012 135.822 -15.012 H93.153 Q92.285 -15.012 91.727 -14.453 Q91.168 -13.895 91.168 -13.027 V16.742 Q91.168 17.61 91.727 18.168 Q92.285 18.726 93.153 18.726 Z M64.611 26.045  61.697 6.658 Q58.385 5.529 54.565 3.376 Q50.744 1.225 47.978 -1.182 L29.943 7.03 L17.055 -15.756 L33.355 -27.75 Q33.032 -29.449 32.889 -31.46 Q32.747 -33.469 32.747 -35.169 Q32.747 -36.805 32.889 -38.815 Q33.032 -40.824 33.355 -42.71 L17.055 -54.765 L29.943 -77.366 L47.915 -69.278 Q50.868 -71.685 54.565 -73.806 Q58.261 -75.926 61.635 -76.957 L64.611 -96.505 H90.189 L93.103 -77.055 Q96.663 -75.741 100.223 -73.793 Q103.782 -71.847 106.636 -69.278 L124.919 -77.366 L137.745 -54.765 L121.197 -42.785 Q121.545 -40.861 121.626 -38.915 Q121.707 -36.967 121.707 -35.33 H95.225 Q95.225 -35.33 95.225 -35.361 Q95.225 -35.391 95.225 -35.391 Q95.225 -42.939 89.953 -48.17 Q84.68 -53.401 77.157 -53.401 Q69.691 -53.401 64.366 -48.111 Q59.043 -42.822 59.043 -35.291 Q59.043 -29.573 62.23 -25.028 Q65.418 -20.482 70.49 -18.473 V26.045 H64.611 Z"/></g><g id="Thin-L" transform="matrix(1 0 0 1 787.282 1556)"><path d="M92.78 22.82 Q89.063 22.82 86.456 20.214 Q83.85 17.607 83.85 13.89 V-13.4 Q83.85 -17.117 86.456 -19.724 Q89.063 -22.33 92.78 -22.33 H132.97 Q136.687 -22.33 139.294 -19.724 Q141.9 -17.117 141.9 -13.4 V13.89 Q141.9 17.607 139.294 20.214 Q136.687 22.82 132.97 22.82 H92.78 Z M92.78 17.858 H132.97 Q134.705 17.858 135.822 16.742 Q136.938 15.625 136.938 13.89 V-13.4 Q136.938 -15.135 135.822 -16.252 Q134.705 -17.368 132.97 -17.368 H92.78 Q91.045 -17.368 89.928 -16.252 Q88.812 -15.135 88.812 -13.4 V13.89 Q88.812 15.625 89.928 16.742 Q91.045 17.858 92.78 17.858 Z M66.658 22.82  64.053 4.363 Q60.493 3.235 56.239 0.866 Q51.984 -1.505 49.033 -4.22 L31.989 3.494 L21.211 -15.632 L36.393 -26.882 Q36.07 -28.83 35.865 -30.994 Q35.66 -33.158 35.66 -35.106 Q35.66 -36.93 35.865 -39.094 Q36.07 -41.258 36.393 -43.578 L21.211 -54.952 L31.989 -73.707 L48.909 -66.24 Q52.232 -68.955 56.239 -71.263 Q60.246 -73.57 63.929 -74.662 L66.658 -93.28 H88.142 L90.747 -74.699 Q94.802 -73.198 98.456 -71.158 Q102.108 -69.117 105.396 -66.24 L122.934 -73.707 L133.589 -54.952 L117.911 -43.404 Q118.445 -41.172 118.525 -39.131 Q118.606 -37.091 118.606 -35.267 H92.248 Q92.248 -35.267 92.248 -35.33 Q92.248 -35.391 92.248 -35.391 Q92.248 -41.782 87.751 -46.197 Q83.255 -50.61 76.913 -50.61 Q70.689 -50.61 66.167 -46.158 Q61.647 -41.704 61.647 -35.354 Q61.647 -30.691 64.153 -26.919 Q66.658 -23.149 70.677 -21.387 V22.82 H66.658 Z"/></g><g id="Ultralight-L" transform="matrix(1 0 0 1 491.205 1556)"><path d="M92.558 20.885 Q88.884 20.885 86.367 18.368 Q83.85 15.849 83.85 12.178 V-13.622 Q83.85 -17.294 86.367 -19.813 Q88.884 -22.33 92.558 -22.33 H131.257 Q134.931 -22.33 137.448 -19.813 Q139.965 -17.294 139.965 -13.622 V12.178 Q139.965 15.849 137.448 18.368 Q134.931 20.885 131.257 20.885 H92.558 Z M92.558 17.338 H131.257 Q133.515 17.338 134.966 15.886 Q136.417 14.435 136.417 12.178 V-13.622 Q136.417 -15.88 134.966 -17.331 Q133.515 -18.782 131.257 -18.782 H92.558 Q90.3 -18.782 88.849 -17.331 Q87.398 -15.88 87.398 -13.622 V12.178 Q87.398 14.435 88.849 15.886 Q90.3 17.338 92.558 17.338 Z M67.886 20.885  65.468 2.986 Q61.759 1.858 57.244 -0.642 Q52.729 -3.141 49.665 -6.044 L33.218 1.374 L23.704 -15.557 L38.216 -26.361 Q37.894 -28.457 37.652 -30.715 Q37.41 -32.972 37.41 -35.069 Q37.41 -37.004 37.652 -39.261 Q37.894 -41.519 38.216 -44.099 L23.704 -55.064 L33.218 -71.511 L49.504 -64.416 Q53.051 -67.319 57.244 -69.737 Q61.436 -72.156 65.306 -73.285 L67.886 -91.345 H86.914 L89.332 -73.285 Q93.686 -71.672 97.395 -69.576 Q101.104 -67.48 104.651 -64.416 L121.744 -71.511 L131.096 -55.064 L115.939 -43.776 Q116.584 -41.357 116.664 -39.261 Q116.745 -37.165 116.745 -35.23 H90.461 Q90.461 -35.23 90.461 -35.311 Q90.461 -35.391 90.461 -35.391 Q90.461 -41.085 86.43 -45.011 Q82.399 -48.936 76.766 -48.936 Q71.287 -48.936 67.249 -44.986 Q63.21 -41.035 63.21 -35.391 Q63.21 -31.36 65.306 -28.054 Q67.403 -24.749 70.789 -23.136 V20.885 H67.886 Z"/></g><g id="Bold-M" transform="matrix(1 0 0 1 2281.8 1126)"><path d="M80.75 19.02 Q74.125 19.02 69.562 14.458 Q65 9.895 65 3.27 V-9.48 Q65 -16.105 69.562 -20.667 Q74.125 -25.23 80.75 -25.23 H104.25 Q110.875 -25.23 115.438 -20.667 Q120 -16.105 120 -9.48 V3.27 Q120 9.895 115.438 14.458 Q110.875 19.02 104.25 19.02 H80.75 Z M80.75 3.27 H104.25 Q104.25 3.27 104.25 3.27 Q104.25 3.27 104.25 3.27 V-9.48 Q104.25 -9.48 104.25 -9.48 Q104.25 -9.48 104.25 -9.48 H80.75 Q80.75 -9.48 80.75 -9.48 Q80.75 -9.48 80.75 -9.48 V3.27 Q80.75 3.27 80.75 3.27 Q80.75 3.27 80.75 3.27 Z M42.625 19.02  40.375 1.645 Q39.697 1.381 39.099 1.014 Q38.5 0.645 37.875 0.27 L21.75 7.145 L4.25 -23.355 L18.125 -33.855 Q18.125 -34.209 18.125 -34.537 Q18.125 -34.866 18.125 -35.219 Q18.125 -35.572 18.125 -35.901 Q18.125 -36.23 18.125 -36.605 L4.25 -47.105 L21.75 -77.355 L38.125 -70.605 Q38.75 -70.98 39.25 -71.292 Q39.75 -71.605 40.375 -71.855 L42.625 -89.48 H77.375 L79.625 -71.855 Q80.302 -71.625 80.901 -71.302 Q81.5 -70.98 82.125 -70.605 L98.25 -77.355 L115.75 -47.105 L101.75 -36.605 Q101.75 -36.48 101.75 -35.98 Q101.75 -35.48 101.75 -35.355 H77.5 Q77.5 -35.355 77.5 -35.355 Q77.5 -35.355 77.5 -35.355 Q77.375 -42.605 72.224 -47.667 Q67.074 -52.73 59.875 -52.73 Q52.5 -52.73 47.438 -47.667 Q42.375 -42.605 42.375 -35.23 Q42.375 -29.23 45.875 -24.605 Q49.375 -19.98 54.875 -18.355 V19.02 H42.625 Z"/></g><g id="Semibold-M" transform="matrix(1 0 0 1 1985.97 1126)"><path d="M78.25 17.173 Q72.713 17.173 68.856 13.316 Q65 9.46 65 3.923 V-11.98 Q65 -17.517 68.856 -21.374 Q72.713 -25.23 78.25 -25.23 H104.576 Q110.114 -25.23 113.97 -21.374 Q117.826 -17.517 117.826 -11.98 V3.923 Q117.826 9.46 113.97 13.316 Q110.114 17.173 104.576 17.173 H78.25 Z M78.25 3.923 H104.576 Q104.576 3.923 104.576 3.923 Q104.576 3.923 104.576 3.923 V-11.98 Q104.576 -11.98 104.576 -11.98 Q104.576 -11.98 104.576 -11.98 H78.25 Q78.25 -11.98 78.25 -11.98 Q78.25 -11.98 78.25 -11.98 V3.923 Q78.25 3.923 78.25 3.923 Q78.25 3.923 78.25 3.923 Z M44.201 17.173  42.06 0.395 Q40.97 -0.025 40.008 -0.614 Q39.044 -1.202 38.093 -1.85 L22.511 4.754 L6.641 -22.811 L20.081 -32.985 Q20.027 -33.566 20.027 -34.105 Q20.027 -34.644 20.027 -35.224 Q20.027 -35.804 20.027 -36.344 Q20.027 -36.882 20.081 -37.475 L6.641 -47.649 L22.511 -75.072 L38.234 -68.54 Q39.185 -69.186 40.12 -69.744 Q41.054 -70.301 42.06 -70.714 L44.201 -87.632 H75.799 L77.94 -70.714 Q79.03 -70.312 79.993 -69.749 Q80.956 -69.186 81.907 -68.54 L97.489 -75.072 L113.359 -47.649 L99.847 -37.475 Q99.903 -37.024 99.903 -36.387 Q99.903 -35.751 99.903 -35.301 H77.662 Q77.662 -35.301 77.662 -35.301 Q77.662 -35.301 77.662 -35.301 Q77.593 -42.551 72.426 -47.64 Q67.259 -52.73 60.038 -52.73 Q52.663 -52.73 47.6 -47.667 Q42.538 -42.605 42.538 -35.23 Q42.538 -29.23 46.011 -24.659 Q49.484 -20.089 54.929 -18.409 V17.173 H44.201 Z"/></g><g id="Medium-M" transform="matrix(1 0 0 1 1689.91 1126)"><path d="M76.375 15.786 Q71.653 15.786 68.326 12.46 Q65 9.134 65 4.411 V-13.855 Q65 -18.577 68.326 -21.904 Q71.653 -25.23 76.375 -25.23 H104.821 Q109.544 -25.23 112.87 -21.904 Q116.196 -18.577 116.196 -13.855 V4.411 Q116.196 9.134 112.87 12.46 Q109.544 15.786 104.821 15.786 H76.375 Z M76.375 4.411 H104.821 Q104.821 4.411 104.821 4.411 Q104.821 4.411 104.821 4.411 V-13.855 Q104.821 -13.855 104.821 -13.855 Q104.821 -13.855 104.821 -13.855 H76.375 Q76.375 -13.855 76.375 -13.855 Q76.375 -13.855 76.375 -13.855 V4.411 Q76.375 4.411 76.375 4.411 Q76.375 4.411 76.375 4.411 Z M45.384 15.786  43.324 -0.542 Q41.925 -1.081 40.688 -1.835 Q39.451 -2.589 38.255 -3.439 L23.081 2.96 L8.435 -22.404 L21.549 -32.334 Q21.454 -33.084 21.454 -33.78 Q21.454 -34.477 21.454 -35.227 Q21.454 -35.977 21.454 -36.675 Q21.454 -37.371 21.549 -38.126 L8.435 -48.056 L23.081 -73.36 L38.315 -66.991 Q39.511 -67.841 40.771 -68.582 Q42.032 -69.322 43.324 -69.857 L45.384 -86.246 H74.616 L76.676 -69.857 Q78.075 -69.327 79.312 -68.584 Q80.549 -67.841 81.745 -66.991 L96.919 -73.36 L111.565 -48.056 L98.421 -38.126 Q98.516 -37.431 98.516 -36.694 Q98.516 -35.955 98.516 -35.26 H77.785 Q77.785 -35.26 77.785 -35.26 Q77.785 -35.26 77.785 -35.26 Q77.755 -42.51 72.576 -47.62 Q67.397 -52.73 60.16 -52.73 Q52.785 -52.73 47.722 -47.667 Q42.66 -42.605 42.66 -35.23 Q42.66 -29.23 46.112 -24.7 Q49.565 -20.17 54.97 -18.45 V15.786 H45.384 Z"/></g><g id="Regular-M" transform="matrix(1 0 0 1 1394.06 1126)"><path d="M75 14.77 Q70.875 14.77 67.938 11.833 Q65 8.895 65 4.77 V-15.23 Q65 -19.355 67.938 -22.292 Q70.875 -25.23 75 -25.23 H105 Q109.125 -25.23 112.062 -22.292 Q115 -19.355 115 -15.23 V4.77 Q115 8.895 112.062 11.833 Q109.125 14.77 105 14.77 H75 Z M75 4.77 H105 Q105 4.77 105 4.77 Q105 4.77 105 4.77 V-15.23 Q105 -15.23 105 -15.23 Q105 -15.23 105 -15.23 H75 Q75 -15.23 75 -15.23 Q75 -15.23 75 -15.23 V4.77 Q75 4.77 75 4.77 Q75 4.77 75 4.77 Z M46.25 14.77  44.25 -1.23 Q42.625 -1.855 41.188 -2.73 Q39.75 -3.605 38.375 -4.605 L23.5 1.645 L9.75 -22.105 L22.625 -31.855 Q22.5 -32.73 22.5 -33.542 Q22.5 -34.355 22.5 -35.23 Q22.5 -36.105 22.5 -36.917 Q22.5 -37.73 22.625 -38.605 L9.75 -48.355 L23.5 -72.105 L38.375 -65.855 Q39.75 -66.855 41.25 -67.73 Q42.75 -68.605 44.25 -69.23 L46.25 -85.23 H73.75 L75.75 -69.23 Q77.375 -68.605 78.812 -67.73 Q80.25 -66.855 81.625 -65.855 L96.5 -72.105 L110.25 -48.355 L97.375 -38.605 Q97.5 -37.73 97.5 -36.917 Q97.5 -36.105 97.5 -35.23 H77.875 Q77.875 -35.23 77.875 -35.23 Q77.875 -35.23 77.875 -35.23 Q77.875 -42.48 72.688 -47.605 Q67.5 -52.73 60.25 -52.73 Q52.875 -52.73 47.812 -47.667 Q42.75 -42.605 42.75 -35.23 Q42.75 -29.23 46.188 -24.73 Q49.625 -20.23 55 -18.48 V14.77 H46.25 Z"/></g><g id="Light-M" transform="matrix(1 0 0 1 1098.18 1126)"><path d="M74.039 12.27 Q70.25 12.27 67.625 9.645 Q65 7.02 65 3.231 V-16.191 Q65 -19.98 67.625 -22.605 Q70.25 -25.23 74.039 -25.23 H103.461 Q107.25 -25.23 109.875 -22.605 Q112.5 -19.98 112.5 -16.191 V3.231 Q112.5 7.02 109.875 9.645 Q107.25 12.27 103.461 12.27 H74.039 Z M74.039 4.77 H103.461 Q104.135 4.77 104.567 4.338 Q105 3.905 105 3.231 V-16.191 Q105 -16.865 104.567 -17.297 Q104.135 -17.73 103.461 -17.73 H74.039 Q73.365 -17.73 72.933 -17.297 Q72.5 -16.865 72.5 -16.191 V3.231 Q72.5 3.905 72.933 4.338 Q73.365 4.77 74.039 4.77 Z M48.461 12.27  46.557 -2.961 Q44.549 -3.634 42.438 -4.845 Q40.328 -6.057 38.664 -7.441 L24.558 -1.48 L13.02 -21.48 L25.221 -30.701 Q25.049 -31.816 24.976 -32.941 Q24.904 -34.066 24.904 -35.182 Q24.904 -36.249 24.976 -37.35 Q25.049 -38.451 25.221 -39.759 L13.02 -48.98 L24.558 -68.884 L38.615 -62.97 Q40.424 -64.402 42.476 -65.59 Q44.529 -66.777 46.51 -67.499 L48.461 -82.73 H71.539 L73.442 -67.451 Q75.692 -66.634 77.514 -65.542 Q79.336 -64.451 81.192 -62.97 L95.442 -68.884 L106.98 -48.98 L94.586 -39.615 Q94.855 -38.404 94.88 -37.35 Q94.904 -36.297 94.904 -35.23 H75.086 Q75.086 -35.23 75.086 -35.254 Q75.086 -35.277 75.086 -35.277 Q75.086 -41.47 70.644 -45.85 Q66.201 -50.23 60.01 -50.23 Q53.74 -50.23 49.399 -45.889 Q45.057 -41.547 45.057 -35.277 Q45.057 -30.336 47.822 -26.532 Q50.586 -22.73 55 -21.125 V12.27 H48.461 Z"/></g><g id="Thin-M" transform="matrix(1 0 0 1 802.565 1126)"><path d="M73.078 9.77 Q69.625 9.77 67.312 7.458 Q65 5.145 65 1.693 V-17.152 Q65 -20.605 67.312 -22.917 Q69.625 -25.23 73.078 -25.23 H101.922 Q105.375 -25.23 107.688 -22.917 Q110 -20.605 110 -17.152 V1.693 Q110 5.145 107.688 7.458 Q105.375 9.77 101.922 9.77 H73.078 Z M73.078 4.77 H101.922 Q103.269 4.77 104.135 3.905 Q105 3.039 105 1.693 V-17.152 Q105 -18.499 104.135 -19.365 Q103.269 -20.23 101.922 -20.23 H73.078 Q71.731 -20.23 70.865 -19.365 Q70 -18.499 70 -17.152 V1.693 Q70 3.039 70.865 3.905 Q71.731 4.77 73.078 4.77 Z M50.672 9.77  48.865 -4.691 Q46.471 -5.412 43.688 -6.961 Q40.904 -8.509 38.953 -10.277 L25.615 -4.605 L16.289 -20.855 L27.817 -29.547 Q27.596 -30.902 27.453 -32.34 Q27.308 -33.777 27.308 -35.134 Q27.308 -36.394 27.453 -37.782 Q27.596 -39.172 27.817 -40.912 L16.289 -49.605 L25.615 -65.662 L38.856 -60.086 Q41.096 -61.951 43.703 -63.451 Q46.307 -64.951 48.769 -65.769 L50.672 -80.23 H69.328 L71.135 -65.672 Q74.01 -64.662 76.216 -63.355 Q78.422 -62.047 80.76 -60.086 L94.385 -65.662 L103.711 -49.605 L91.797 -40.624 Q92.211 -39.076 92.26 -37.782 Q92.308 -36.49 92.308 -35.23 H72.297 Q72.297 -35.23 72.297 -35.277 Q72.297 -35.326 72.297 -35.326 Q72.297 -40.461 68.601 -44.095 Q64.904 -47.73 59.769 -47.73 Q54.606 -47.73 50.985 -44.11 Q47.365 -40.49 47.365 -35.326 Q47.365 -31.441 49.456 -28.336 Q51.547 -25.23 55 -23.769 V9.77 H50.672 Z"/></g><g id="Ultralight-M" transform="matrix(1 0 0 1 506.415 1126)"><path d="M72.5 8.27 Q69.25 8.27 67.125 6.145 Q65 4.02 65 0.77 V-17.73 Q65 -20.98 67.125 -23.105 Q69.25 -25.23 72.5 -25.23 H101 Q104.25 -25.23 106.375 -23.105 Q108.5 -20.98 108.5 -17.73 V0.77 Q108.5 4.02 106.375 6.145 Q104.25 8.27 101 8.27 H72.5 Z M72.5 4.77 H101 Q102.75 4.77 103.875 3.645 Q105 2.52 105 0.77 V-17.73 Q105 -19.48 103.875 -20.605 Q102.75 -21.73 101 -21.73 H72.5 Q70.75 -21.73 69.625 -20.605 Q68.5 -19.48 68.5 -17.73 V0.77 Q68.5 2.52 69.625 3.645 Q70.75 4.77 72.5 4.77 Z M52 8.27  50.25 -5.73 Q47.625 -6.48 44.438 -8.23 Q41.25 -9.98 39.125 -11.98 L26.25 -6.48 L18.25 -20.48 L29.375 -28.855 Q29.125 -30.355 28.938 -31.98 Q28.75 -33.605 28.75 -35.105 Q28.75 -36.48 28.938 -38.042 Q29.125 -39.605 29.375 -41.605 L18.25 -49.98 L26.25 -63.73 L39 -58.355 Q41.5 -60.48 44.438 -62.167 Q47.375 -63.855 50.125 -64.73 L52 -78.73 H68 L69.75 -64.605 Q73 -63.48 75.438 -62.042 Q77.875 -60.605 80.5 -58.355 L93.75 -63.73 L101.75 -49.98 L90.125 -41.23 Q90.625 -39.48 90.688 -38.042 Q90.75 -36.605 90.75 -35.23 H70.625 Q70.625 -35.23 70.625 -35.292 Q70.625 -35.355 70.625 -35.355 Q70.625 -39.855 67.375 -43.042 Q64.125 -46.23 59.625 -46.23 Q55.125 -46.23 51.938 -43.042 Q48.75 -39.855 48.75 -35.355 Q48.75 -32.105 50.438 -29.417 Q52.125 -26.73 55 -25.355 V8.27 H52 Z"/></g><g id="Bold-S" transform="matrix(1 0 0 1 2294.23 696)"><path d="M63.712 5.995 Q58.485 5.995 55.279 2.79 Q52.074 -0.415 52.074 -5.642 V-14.124 Q52.074 -19.351 55.279 -22.557 Q58.485 -25.762 63.712 -25.762 H82.253 Q87.48 -25.762 90.686 -22.557 Q93.891 -19.351 93.891 -14.124 V-5.642 Q93.891 -0.415 90.686 2.79 Q87.48 5.995 82.253 5.995 H63.712 Z M63.712 -5.642 H82.253 Q82.253 -5.642 82.253 -5.642 Q82.253 -5.642 82.253 -5.642 V-14.124 Q82.253 -14.124 82.253 -14.124 Q82.253 -14.124 82.253 -14.124 H63.712 Q63.712 -14.124 63.712 -14.124 Q63.712 -14.124 63.712 -14.124 V-5.642 Q63.712 -5.642 63.712 -5.642 Q63.712 -5.642 63.712 -5.642 Z M36.886 5.995  34.519 -6.333 Q32.998 -6.935 31.539 -7.719 Q30.081 -8.503 28.799 -9.587 L16.963 -5.445 L6.411 -23.888 L15.78 -31.975 Q15.681 -32.748 15.583 -33.549 Q15.484 -34.351 15.484 -35.221 Q15.484 -36.092 15.583 -36.894 Q15.681 -37.696 15.78 -38.485 L6.411 -46.67 L16.963 -64.916 L28.996 -60.774 Q30.278 -61.859 31.609 -62.598 Q32.941 -63.338 34.519 -63.93 L36.886 -76.455 H57.794 L60.161 -63.93 Q61.682 -63.354 63.141 -62.606 Q64.599 -61.859 65.882 -60.774 L77.716 -64.817 L88.269 -46.572 L78.801 -38.485 Q78.9 -37.202 78.999 -35.723 Q79.097 -34.244 78.9 -32.962 H60.95 Q61.049 -33.553 61.098 -34.194 Q61.148 -34.835 61.148 -35.427 Q61.049 -41.345 56.935 -45.388 Q52.823 -49.432 46.946 -49.432 Q41.028 -49.432 36.935 -45.339 Q32.842 -41.246 32.842 -35.329 Q32.842 -30.003 36.294 -25.959 Q39.746 -21.916 44.874 -21.225 V5.995 H36.886 Z"/></g><g id="Semibold-S" transform="matrix(1 0 0 1 1998.1 696)"><path d="M61.739 4.538 Q57.37 4.538 54.722 1.889 Q52.074 -0.759 52.074 -5.128 V-16.097 Q52.074 -20.466 54.722 -23.114 Q57.37 -25.762 61.739 -25.762 H82.511 Q86.88 -25.762 89.528 -23.114 Q92.176 -20.466 92.176 -16.097 V-5.128 Q92.176 -0.759 89.528 1.889 Q86.88 4.538 82.511 4.538 H61.739 Z M61.739 -5.128 H82.511 Q82.511 -5.128 82.511 -5.128 Q82.511 -5.128 82.511 -5.128 V-16.097 Q82.511 -16.097 82.511 -16.097 Q82.511 -16.097 82.511 -16.097 H61.739 Q61.739 -16.097 61.739 -16.097 Q61.739 -16.097 61.739 -16.097 V-5.128 Q61.739 -5.128 61.739 -5.128 Q61.739 -5.128 61.739 -5.128 Z M38.129 4.538  35.848 -7.319 Q34.002 -8.045 32.256 -9.003 Q30.51 -9.96 28.97 -11.26 L17.564 -7.332 L8.297 -23.459 L17.323 -31.289 Q17.182 -32.241 17.084 -33.208 Q16.985 -34.176 16.985 -35.225 Q16.985 -36.274 17.084 -37.243 Q17.182 -38.21 17.323 -39.171 L8.297 -47.1 L17.564 -63.115 L29.082 -59.145 Q30.621 -60.443 32.296 -61.376 Q33.969 -62.309 35.848 -63.029 L38.129 -74.998 H56.551 L58.832 -63.029 Q60.678 -62.318 62.424 -61.38 Q64.17 -60.443 65.71 -59.145 L77.116 -63.017 L86.383 -47.001 L77.3 -39.171 Q77.442 -37.632 77.541 -36.045 Q77.64 -34.458 77.442 -32.919 H61.078 Q61.177 -33.511 61.226 -34.152 Q61.276 -34.793 61.276 -35.385 Q61.22 -41.302 57.095 -45.367 Q52.969 -49.432 47.074 -49.432 Q41.156 -49.432 37.063 -45.339 Q32.97 -41.246 32.97 -35.329 Q32.97 -30.003 36.402 -26.002 Q39.832 -22.001 44.917 -21.268 V4.538 H38.129 Z"/></g><g id="Medium-S" transform="matrix(1 0 0 1 1701.85 696)"><path d="M60.26 3.444 Q56.534 3.444 54.304 1.214 Q52.074 -1.016 52.074 -4.742 V-17.576 Q52.074 -21.302 54.304 -23.532 Q56.534 -25.762 60.26 -25.762 H82.704 Q86.43 -25.762 88.66 -23.532 Q90.89 -21.302 90.89 -17.576 V-4.742 Q90.89 -1.016 88.66 1.214 Q86.43 3.444 82.704 3.444 H60.26 Z M60.26 -4.742 H82.704 Q82.704 -4.742 82.704 -4.742 Q82.704 -4.742 82.704 -4.742 V-17.576 Q82.704 -17.576 82.704 -17.576 Q82.704 -17.576 82.704 -17.576 H60.26 Q60.26 -17.576 60.26 -17.576 Q60.26 -17.576 60.26 -17.576 V-4.742 Q60.26 -4.742 60.26 -4.742 Q60.26 -4.742 60.26 -4.742 Z M39.062 3.444  36.845 -8.059 Q34.755 -8.878 32.793 -9.966 Q30.831 -11.054 29.098 -12.514 L18.014 -8.747 L9.713 -23.138 L18.481 -30.775 Q18.308 -31.86 18.209 -32.952 Q18.111 -34.045 18.111 -35.228 Q18.111 -36.412 18.209 -37.504 Q18.308 -38.596 18.481 -39.685 L9.713 -47.421 L18.014 -61.764 L29.146 -57.923 Q30.879 -59.382 32.81 -60.46 Q34.742 -61.537 36.845 -62.354 L39.062 -73.904 H55.618 L57.835 -62.354 Q59.925 -61.541 61.887 -60.461 Q63.849 -59.382 65.582 -57.923 L76.666 -61.665 L84.967 -47.322 L76.175 -39.685 Q76.349 -37.953 76.447 -36.286 Q76.546 -34.619 76.349 -32.887 H61.175 Q61.274 -33.478 61.323 -34.119 Q61.372 -34.761 61.372 -35.352 Q61.349 -41.27 57.213 -45.351 Q53.078 -49.432 47.17 -49.432 Q41.253 -49.432 37.16 -45.339 Q33.067 -41.246 33.067 -35.329 Q33.067 -30.003 36.481 -26.034 Q39.896 -22.066 44.949 -21.3 V3.444 H39.062 Z"/></g><g id="Regular-S" transform="matrix(1 0 0 1 1405.73 696)"><path d="M59.175 2.642 Q55.92 2.642 53.997 0.719 Q52.074 -1.204 52.074 -4.459 V-18.661 Q52.074 -21.916 53.997 -23.839 Q55.92 -25.762 59.175 -25.762 H82.845 Q86.1 -25.762 88.023 -23.839 Q89.946 -21.916 89.946 -18.661 V-4.459 Q89.946 -1.204 88.023 0.719 Q86.1 2.642 82.845 2.642 H59.175 Z M59.175 -4.459 H82.845 Q82.845 -4.459 82.845 -4.459 Q82.845 -4.459 82.845 -4.459 V-18.661 Q82.845 -18.661 82.845 -18.661 Q82.845 -18.661 82.845 -18.661 H59.175 Q59.175 -18.661 59.175 -18.661 Q59.175 -18.661 59.175 -18.661 V-4.459 Q59.175 -4.459 59.175 -4.459 Q59.175 -4.459 59.175 -4.459 Z M39.746 2.642  37.576 -8.601 Q35.308 -9.489 33.187 -10.672 Q31.067 -11.856 29.193 -13.434 L18.344 -9.785 L10.75 -22.902 L19.331 -30.397 Q19.133 -31.581 19.035 -32.764 Q18.936 -33.948 18.936 -35.23 Q18.936 -36.512 19.035 -37.696 Q19.133 -38.879 19.331 -40.063 L10.75 -47.657 L18.344 -60.774 L29.193 -57.026 Q31.067 -58.604 33.187 -59.788 Q35.308 -60.971 37.576 -61.859 L39.746 -73.102 H54.934 L57.104 -61.859 Q59.372 -60.971 61.493 -59.788 Q63.613 -58.604 65.487 -57.026 L76.336 -60.675 L83.93 -47.558 L75.35 -40.063 Q75.547 -38.189 75.645 -36.463 Q75.744 -34.737 75.547 -32.863 H61.246 Q61.345 -33.455 61.394 -34.096 Q61.443 -34.737 61.443 -35.329 Q61.443 -41.246 57.301 -45.339 Q53.159 -49.432 47.241 -49.432 Q41.324 -49.432 37.231 -45.339 Q33.138 -41.246 33.138 -35.329 Q33.138 -30.003 36.541 -26.058 Q39.943 -22.113 44.973 -21.324 V2.642 H39.746 Z"/></g><g id="Light-S" transform="matrix(1 0 0 1 1109.75 696)"><path d="M58.417 0.67 Q55.427 0.67 53.751 -1.007 Q52.074 -2.684 52.074 -5.673 V-19.419 Q52.074 -22.409 53.751 -24.085 Q55.427 -25.762 58.417 -25.762 H81.631 Q84.62 -25.762 86.297 -24.085 Q87.974 -22.409 87.974 -19.419 V-5.673 Q87.974 -2.684 86.297 -1.007 Q84.62 0.67 81.631 0.67 H58.417 Z M58.417 -4.459 H81.631 Q82.163 -4.459 82.504 -4.8 Q82.845 -5.141 82.845 -5.673 V-19.419 Q82.845 -19.951 82.504 -20.292 Q82.163 -20.633 81.631 -20.633 H58.417 Q57.885 -20.633 57.544 -20.292 Q57.203 -19.951 57.203 -19.419 V-5.673 Q57.203 -5.141 57.544 -4.8 Q57.885 -4.459 58.417 -4.459 Z M41.491 0.67  39.397 -9.967 Q36.826 -10.892 34.174 -12.341 Q31.523 -13.791 29.421 -15.672 L19.179 -12.25 L13.33 -22.409 L21.379 -29.487 Q21.144 -30.86 20.988 -32.29 Q20.833 -33.72 20.833 -35.193 Q20.833 -36.626 20.988 -38.037 Q21.144 -39.448 21.379 -40.973 L13.33 -48.15 L19.179 -58.232 L29.382 -54.75 Q31.598 -56.669 34.155 -58.099 Q36.711 -59.529 39.359 -60.493 L41.491 -71.129 H53.189 L55.283 -60.455 Q58.045 -59.416 60.468 -58.062 Q62.892 -56.708 65.146 -54.75 L75.501 -58.134 L81.35 -48.051 L73.149 -40.86 Q73.46 -38.72 73.578 -36.804 Q73.696 -34.889 73.498 -32.863 H59.046 Q59.144 -33.455 59.194 -34.115 Q59.243 -34.774 59.243 -35.366 Q59.243 -40.449 55.689 -43.954 Q52.134 -47.459 47.052 -47.459 Q42.006 -47.459 38.482 -43.936 Q34.959 -40.412 34.959 -35.366 Q34.959 -30.876 37.831 -27.48 Q40.702 -24.085 44.973 -23.411 V0.67 H41.491 Z"/></g><g id="Thin-S" transform="matrix(1 0 0 1 814.015 696)"><path d="M57.658 -1.303 Q54.934 -1.303 53.504 -2.733 Q52.074 -4.163 52.074 -6.887 V-20.178 Q52.074 -22.902 53.504 -24.332 Q54.934 -25.762 57.658 -25.762 H80.417 Q83.141 -25.762 84.571 -24.332 Q86.001 -22.902 86.001 -20.178 V-6.887 Q86.001 -4.163 84.571 -2.733 Q83.141 -1.303 80.417 -1.303 H57.658 Z M57.658 -4.459 H80.417 Q81.479 -4.459 82.163 -5.141 Q82.845 -5.825 82.845 -6.887 V-20.178 Q82.845 -21.24 82.163 -21.924 Q81.479 -22.606 80.417 -22.606 H57.658 Q56.596 -22.606 55.912 -21.924 Q55.23 -21.24 55.23 -20.178 V-6.887 Q55.23 -5.825 55.912 -5.141 Q56.596 -4.459 57.658 -4.459 Z M43.235 -1.303  41.217 -11.332 Q38.342 -12.296 35.16 -14.011 Q31.977 -15.725 29.649 -17.909 L20.013 -14.716 L15.909 -21.916 L23.427 -28.577 Q23.154 -30.139 22.942 -31.816 Q22.729 -33.492 22.729 -35.154 Q22.729 -36.74 22.942 -38.378 Q23.154 -40.017 23.427 -41.883 L15.909 -48.643 L20.013 -55.691 L29.573 -52.475 Q32.129 -54.735 35.122 -56.412 Q38.115 -58.088 41.141 -59.128 L43.235 -69.157 H51.445 L53.463 -59.052 Q56.717 -57.86 59.444 -56.336 Q62.171 -54.811 64.805 -52.475 L74.667 -55.592 L78.771 -48.544 L70.949 -41.655 Q71.374 -39.251 71.511 -37.145 Q71.647 -35.041 71.45 -32.863 H56.845 Q56.944 -33.455 56.993 -34.133 Q57.043 -34.813 57.043 -35.405 Q57.043 -39.653 54.077 -42.57 Q51.11 -45.487 46.862 -45.487 Q42.69 -45.487 39.734 -42.532 Q36.779 -39.577 36.779 -35.405 Q36.779 -31.748 39.12 -28.903 Q41.46 -26.058 44.973 -25.497 V-1.303 H43.235 Z"/></g><g id="Ultralight-S" transform="matrix(1 0 0 1 517.792 696)"><path d="M57.203 -2.486 Q54.638 -2.486 53.356 -3.769 Q52.074 -5.051 52.074 -7.615 V-20.633 Q52.074 -23.198 53.356 -24.48 Q54.638 -25.762 57.203 -25.762 H79.689 Q82.253 -25.762 83.535 -24.48 Q84.818 -23.198 84.818 -20.633 V-7.615 Q84.818 -5.051 83.535 -3.769 Q82.253 -2.486 79.689 -2.486 H57.203 Z M57.203 -4.459 H79.689 Q81.07 -4.459 81.957 -5.347 Q82.845 -6.234 82.845 -7.615 V-20.633 Q82.845 -22.014 81.957 -22.902 Q81.07 -23.789 79.689 -23.789 H57.203 Q55.822 -23.789 54.934 -22.902 Q54.047 -22.014 54.047 -20.633 V-7.615 Q54.047 -6.234 54.934 -5.347 Q55.822 -4.459 57.203 -4.459 Z M44.283 -2.486  42.31 -12.152 Q39.253 -13.138 35.752 -15.012 Q32.25 -16.886 29.785 -19.253 L20.514 -16.195 L17.457 -21.62 L24.656 -28.03 Q24.36 -29.707 24.114 -31.532 Q23.867 -33.356 23.867 -35.131 Q23.867 -36.808 24.114 -38.583 Q24.36 -40.358 24.656 -42.43 L17.457 -48.939 L20.514 -54.166 L29.686 -51.109 Q32.448 -53.574 35.702 -55.399 Q38.957 -57.223 42.212 -58.308 L44.283 -67.973 H50.397 L52.37 -58.21 Q55.92 -56.927 58.83 -55.3 Q61.739 -53.673 64.599 -51.109 L74.166 -54.067 L77.223 -48.84 L69.629 -42.134 Q70.122 -39.569 70.27 -37.35 Q70.418 -35.131 70.221 -32.863 H55.526 Q55.625 -33.455 55.674 -34.145 Q55.723 -34.835 55.723 -35.427 Q55.723 -39.175 53.11 -41.739 Q50.496 -44.303 46.748 -44.303 Q43.099 -44.303 40.486 -41.69 Q37.872 -39.076 37.872 -35.427 Q37.872 -32.271 39.894 -29.756 Q41.916 -27.241 44.973 -26.748 V-2.486 H44.283 Z"/></g></g></svg>