<svg xmlns="http://www.w3.org/2000/svg" version="1.1" width="3300" height="2000"><g id="Notes"><style>
    text {
      font-family: monospace;
      text-anchor: middle;
    }
    text.emphasis {
      font-weight:bold;
    }
    text.lanchor {
      text-anchor: start;
    }
  </style><rect height="2200" id="artboard" fill="white" width="3300" x="0" y="0"/><line id="" style="fill:none;stroke:black;stroke-width:0.5;" x1="263" x2="3036" y1="292" y2="292"/><text class="lanchor emphasis" transform="matrix(1 0 0 1 263 322)">Weight/Scale Variations</text><text transform="matrix(1 0 0 1 559.711 322)">Ultralight</text><text transform="matrix(1 0 0 1 856.422 322)">Thin</text><text transform="matrix(1 0 0 1 1153.13 322)">Light</text><text transform="matrix(1 0 0 1 1449.84 322)">Regular</text><text transform="matrix(1 0 0 1 1746.56 322)">Medium</text><text transform="matrix(1 0 0 1 2043.27 322)">Semibold</text><text transform="matrix(1 0 0 1 2339.98 322)">Bold</text><text transform="matrix(1 0 0 1 2636.69 322)">Heavy</text><text transform="matrix(1 0 0 1 2933.4 322)">Black</text><text id="template-version" style="text-anchor: end;" transform="matrix(1 0 0 1 3036 1933)">Template v.1.0</text><text class="lanchor" transform="matrix(1 0 0 1 263 726)">Small</text><text class="lanchor" transform="matrix(1 0 0 1 263 1156)">Medium</text><text class="lanchor" transform="matrix(1 0 0 1 263 1586)">Large</text></g><g id="Guides"><g id="H-reference" style="fill:#27AAE1;stroke:none;" transform="matrix(1 0 0 1 339 696)"><path d="M 54.9316 0 L 57.666 0 L 30.5664 -70.459 L 28.0762 -70.459 L 0.976562 0 L 3.66211 0 L 12.9395 -24.4629 L 45.7031 -24.4629 Z M 29.1992 -67.0898 L 29.4434 -67.0898 L 44.8242 -26.709 L 13.8184 -26.709 Z"/></g><line id="Baseline-S" style="fill:none;stroke:#27AAE1;opacity:1;stroke-width:0.577;" x1="263" x2="3036" y1="696" y2="696"/><line id="Capline-S" style="fill:none;stroke:#27AAE1;opacity:1;stroke-width:0.577;" x1="263" x2="3036" y1="625.541" y2="625.541"/><g id="H-reference" style="fill:#27AAE1;stroke:none;" transform="matrix(1 0 0 1 339 1126)"><path d="M 54.9316 0 L 57.666 0 L 30.5664 -70.459 L 28.0762 -70.459 L 0.976562 0 L 3.66211 0 L 12.9395 -24.4629 L 45.7031 -24.4629 Z M 29.1992 -67.0898 L 29.4434 -67.0898 L 44.8242 -26.709 L 13.8184 -26.709 Z"/></g><line id="Baseline-M" style="fill:none;stroke:#27AAE1;opacity:1;stroke-width:0.577;" x1="263" x2="3036" y1="1126" y2="1126"/><line id="Capline-M" style="fill:none;stroke:#27AAE1;opacity:1;stroke-width:0.577;" x1="263" x2="3036" y1="1055.54" y2="1055.54"/><g id="H-reference" style="fill:#27AAE1;stroke:none;" transform="matrix(1 0 0 1 339 1556)"><path d="M 54.9316 0 L 57.666 0 L 30.5664 -70.459 L 28.0762 -70.459 L 0.976562 0 L 3.66211 0 L 12.9395 -24.4629 L 45.7031 -24.4629 Z M 29.1992 -67.0898 L 29.4434 -67.0898 L 44.8242 -26.709 L 13.8184 -26.709 Z"/></g><line id="Baseline-L" style="fill:none;stroke:#27AAE1;opacity:1;stroke-width:0.577;" x1="263" x2="3036" y1="1556" y2="1556"/><line id="Capline-L" style="fill:none;stroke:#27AAE1;opacity:1;stroke-width:0.577;" x1="263" x2="3036" y1="1485.54" y2="1485.54"/><rect height="119.336" id="left-margin" style="fill:darkred;stroke:none;opacity:0.4;" width="12.4512" x="1394.06" y="1030.79"/><rect height="119.336" id="right-margin" style="fill:darkgreen;stroke:none;opacity:0.4;" width="12.4512" x="1502.5112" y="1030.79"/><rect x="1406.5112" y="1045" width="96" height="96" fill="none" stroke="blue" stroke-dasharray="5"/><rect x="1394.06" y="1030.79" width="120.9024" height="119.336" fill="none" stroke="blue"/></g><g id="Symbols"><g id="Bold-L" transform="matrix(1 0 0 1 2266 1556)"><path d="M98.685 32.656 Q92.624 32.656 88.238 28.317 Q83.85 23.976 83.85 17.983 V-7.656 Q83.85 -13.482 88.238 -17.905 Q92.624 -22.33 98.685 -22.33 H137.708 Q143.533 -22.33 147.957 -17.905 Q152.381 -13.482 152.381 -7.656 V17.983 Q152.381 23.976 147.957 28.317 Q143.533 32.656 137.708 32.656 H98.685 Z M98.685 17.983 H137.708 Q137.708 17.983 137.708 17.983 Q137.708 17.983 137.708 17.983 V-7.656 Q137.708 -7.656 137.708 -7.656 Q137.708 -7.656 137.708 -7.656 H98.685 Q98.685 -7.656 98.685 -7.656 Q98.685 -7.656 98.685 -7.656 V17.983 Q98.685 17.983 98.685 17.983 Q98.685 17.983 98.685 17.983 Z M74.175 -14.59 Q66.262 -15.725 61.188 -21.616 Q56.115 -27.506 56.115 -35.361 Q56.115 -44.141 62.241 -50.247 Q68.367 -56.354 77.171 -56.354 Q85.977 -56.354 92.008 -50.334 Q98.04 -44.315 98.201 -35.552 Q98.201 -34.585 97.959 -33.779 Q97.718 -32.972 97.879 -32.166 H94.493 Q91.746 -32.166 89.571 -31.36 Q87.398 -30.554 85.624 -29.264 Q85.946 -30.715 86.511 -32.097 Q87.075 -33.479 87.075 -35.106 Q87.075 -39.337 84.24 -42.202 Q81.407 -45.066 77.239 -45.066 Q72.953 -45.066 70.178 -42.281 Q67.403 -39.495 67.403 -35.307 Q67.403 -30.804 70.34 -27.927 Q73.278 -25.049 77.561 -25.232 Q78.045 -25.232 78.609 -25.313 Q79.174 -25.394 79.496 -25.555 Q77.4 -23.297 76.018 -20.392 Q74.638 -17.488 74.175 -14.59 Z M59.501 32.656  56.115 11.21 Q53.79 10.547 51.108 8.973 Q48.427 7.398 46.601 5.889 L26.606 15.08 L8.385 -17.17 L26.606 -30.418 Q26.445 -31.162 26.445 -32.674 Q26.445 -34.188 26.445 -35.193 Q26.445 -36.199 26.445 -37.657 Q26.445 -39.115 26.606 -40.067 L8.385 -53.612 L26.606 -85.54 L46.964 -76.349 Q48.519 -77.55 51.268 -79.127 Q54.019 -80.702 56.115 -81.347 L59.498 -103.277 H95.46 L98.685 -81.509 Q101.139 -80.881 103.782 -79.259 Q106.425 -77.639 108.199 -76.349 L128.516 -85.54 L146.576 -53.612 L128.032 -40.551 Q128.032 -39.453 128.274 -37.958 Q128.516 -36.465 128.516 -35.552 Q128.516 -35.552 128.516 -35.552 Q128.516 -35.552 128.516 -35.552 H113.488 Q113.488 -35.552 113.488 -35.552 Q113.488 -35.552 113.488 -35.552 Q113.649 -38.777 113.02 -41.357 Q112.391 -43.937 112.069 -46.517 L127.065 -57.482 L121.905 -66.996 L104.842 -59.417 Q101.104 -63.932 96.181 -67.043 Q91.259 -70.155 85.354 -70.705 L83.139 -88.442 H71.579 L69.499 -70.705 Q63.873 -69.576 58.784 -66.674 Q53.696 -63.771 49.826 -59.579 L33.101 -66.996 L27.896 -57.482 L42.731 -46.84 Q41.925 -44.099 41.522 -41.232 Q41.119 -38.366 41.119 -35.141 Q41.119 -31.942 41.522 -29.07 Q41.925 -26.2 42.731 -23.781 L27.896 -12.977 L33.056 -3.464 L49.791 -11.042 Q53.949 -6.577 59.226 -3.569 Q64.5 -0.561 70.466 0.729 V32.656 H59.501 Z"/></g><g id="Semibold-L" transform="matrix(1 0 0 1 1970.27 1556)"><path d="M97.353 32.306 Q91.914 32.306 87.881 28.301 Q83.85 24.295 83.85 18.894 V-8.919 Q83.85 -14.224 87.881 -18.278 Q91.914 -22.33 97.353 -22.33 H138.619 Q143.925 -22.33 147.978 -18.278 Q152.031 -14.224 152.031 -8.919 V18.894 Q152.031 24.295 147.978 28.301 Q143.925 32.306 138.619 32.306 H97.353 Z M97.353 18.894 H138.619 Q138.619 18.894 138.619 18.894 Q138.619 18.894 138.619 18.894 V-8.919 Q138.619 -8.919 138.619 -8.919 Q138.619 -8.919 138.619 -8.919 H97.353 Q97.353 -8.919 97.353 -8.919 Q97.353 -8.919 97.353 -8.919 V18.894 Q97.353 18.894 97.353 18.894 Q97.353 18.894 97.353 18.894 Z M73.474 -13.819 Q65.503 -15.141 60.353 -21.23 Q55.204 -27.317 55.204 -35.435 Q55.204 -44.584 61.596 -50.96 Q67.989 -57.336 77.173 -57.336 Q86.356 -57.336 92.688 -51.016 Q99.022 -44.699 99.112 -35.552 Q99.112 -34.654 98.906 -33.814 Q98.7 -32.972 98.79 -32.166 H93.02 Q91.114 -32.166 89.537 -31.71 Q87.959 -31.255 86.675 -30.455 Q86.928 -31.626 87.317 -32.727 Q87.705 -33.829 87.705 -35.246 Q87.705 -39.693 84.685 -42.765 Q81.665 -45.837 77.223 -45.837 Q72.712 -45.837 69.707 -42.867 Q66.701 -39.897 66.701 -35.444 Q66.701 -30.944 69.639 -27.892 Q72.579 -24.839 76.79 -24.742 Q77.063 -24.742 77.382 -24.787 Q77.702 -24.833 77.884 -24.925 Q75.997 -22.667 74.826 -19.726 Q73.656 -16.786 73.474 -13.819 Z M60.062 32.306  56.676 11.07 Q54.24 10.275 51.371 8.633 Q48.501 6.99 46.461 5.328 L26.606 14.379 L9.015 -16.889 L26.956 -30.068 Q26.795 -30.96 26.761 -32.573 Q26.726 -34.185 26.726 -35.304 Q26.726 -36.425 26.761 -37.981 Q26.795 -39.539 26.956 -40.629 L9.015 -53.893 L26.606 -84.91 L46.525 -75.859 Q48.386 -77.308 51.342 -79.006 Q54.299 -80.702 56.676 -81.488 L60.061 -102.928 H94.899 L98.124 -81.578 Q100.704 -80.802 103.634 -79.08 Q106.565 -77.358 108.479 -75.859 L128.447 -84.91 L145.946 -53.893 L127.683 -40.972 Q127.683 -39.719 127.889 -38.17 Q128.095 -36.618 128.095 -35.552 Q128.095 -35.552 128.095 -35.552 Q128.095 -35.552 128.095 -35.552 H114.483 Q114.483 -35.552 114.483 -35.552 Q114.483 -35.552 114.483 -35.552 Q114.56 -38.805 114.036 -41.372 Q113.514 -43.937 113.12 -46.517 L128.047 -57.482 L122.395 -67.907 L105.32 -60.469 Q101.594 -64.844 96.703 -67.885 Q91.813 -70.926 85.933 -71.616 L83.769 -89.425 H70.955 L68.868 -71.616 Q63.163 -70.418 58.15 -67.549 Q53.135 -64.682 49.336 -60.561 L32.611 -67.907 L26.774 -57.482 L41.68 -46.63 Q40.943 -43.818 40.54 -41.041 Q40.137 -38.265 40.137 -35.286 Q40.137 -32.292 40.54 -29.491 Q40.943 -26.69 41.68 -23.991 L26.774 -13.047 L32.566 -2.622 L49.386 -10.131 Q53.559 -5.784 58.819 -2.857 Q64.079 0.069 69.976 1.43 V32.306 H60.062 Z"/></g><g id="Medium-L" transform="matrix(1 0 0 1 1674.31 1556)"><path d="M96.353 32.044 Q91.38 32.044 87.615 28.29 Q83.85 24.536 83.85 19.577 V-9.865 Q83.85 -14.782 87.615 -18.557 Q91.38 -22.33 96.353 -22.33 H139.302 Q144.22 -22.33 147.994 -18.557 Q151.769 -14.782 151.769 -9.865 V19.577 Q151.769 24.536 147.994 28.29 Q144.22 32.044 139.302 32.044 H96.353 Z M96.353 19.577 H139.302 Q139.302 19.577 139.302 19.577 Q139.302 19.577 139.302 19.577 V-9.865 Q139.302 -9.865 139.302 -9.865 Q139.302 -9.865 139.302 -9.865 H96.353 Q96.353 -9.865 96.353 -9.865 Q96.353 -9.865 96.353 -9.865 V19.577 Q96.353 19.577 96.353 19.577 Q96.353 19.577 96.353 19.577 Z M72.948 -13.24 Q64.934 -14.704 59.727 -20.94 Q54.52 -27.176 54.52 -35.49 Q54.52 -44.918 61.114 -51.495 Q67.707 -58.071 77.174 -58.071 Q86.641 -58.071 93.199 -51.528 Q99.757 -44.984 99.796 -35.552 Q99.796 -34.708 99.615 -33.84 Q99.435 -32.972 99.474 -32.166 H91.916 Q90.642 -32.166 89.51 -31.973 Q88.38 -31.781 87.464 -31.349 Q87.664 -32.31 87.922 -33.201 Q88.18 -34.092 88.18 -35.353 Q88.18 -39.961 85.019 -43.189 Q81.857 -46.416 77.21 -46.416 Q72.533 -46.416 69.354 -43.307 Q66.175 -40.198 66.175 -35.548 Q66.175 -31.049 69.113 -27.866 Q72.053 -24.681 76.212 -24.373 Q76.328 -24.373 76.462 -24.392 Q76.597 -24.412 76.674 -24.45 Q74.946 -22.193 73.933 -19.228 Q72.919 -16.261 72.948 -13.24 Z M60.483 32.044  57.097 10.965 Q54.578 10.07 51.568 8.377 Q48.557 6.685 46.356 4.907 L26.606 13.853 L9.49 -16.68 L27.219 -29.806 Q27.058 -30.81 26.996 -32.495 Q26.935 -34.182 26.935 -35.388 Q26.935 -36.594 26.996 -38.224 Q27.058 -39.856 27.219 -41.05 L9.49 -54.103 L26.606 -84.435 L46.198 -75.489 Q48.286 -77.128 51.398 -78.914 Q54.509 -80.702 57.097 -81.593 L60.482 -102.665 H94.478 L97.703 -81.631 Q100.377 -80.744 103.523 -78.946 Q106.67 -77.149 108.689 -75.489 L128.394 -84.435 L145.472 -54.103 L127.42 -41.288 Q127.42 -39.921 127.6 -38.328 Q127.779 -36.734 127.779 -35.552 Q127.779 -35.552 127.779 -35.552 Q127.779 -35.552 127.779 -35.552 H115.229 Q115.229 -35.552 115.229 -35.552 Q115.229 -35.552 115.229 -35.552 Q115.244 -38.826 114.799 -41.382 Q114.354 -43.937 113.909 -46.517 L128.782 -57.482 L122.764 -68.591 L105.678 -61.257 Q101.963 -65.527 97.095 -68.517 Q92.229 -71.505 86.369 -72.3 L84.242 -90.16 H70.487 L68.394 -72.3 Q62.633 -71.048 57.674 -68.207 Q52.714 -65.366 48.967 -61.296 L32.244 -68.591 L25.934 -57.482 L40.891 -46.472 Q40.208 -43.609 39.805 -40.898 Q39.401 -38.189 39.401 -35.394 Q39.401 -32.555 39.805 -29.807 Q40.208 -27.059 40.891 -24.149 L25.934 -13.1 L32.197 -1.992 L49.081 -9.448 Q53.266 -5.189 58.514 -2.324 Q63.763 0.543 69.607 1.956 V32.044 H60.483 Z"/></g><g id="Regular-L" transform="matrix(1 0 0 1 1378.56 1556)"><path d="M95.621 31.85 Q90.99 31.85 87.42 28.28 Q83.85 24.71 83.85 20.079 V-10.559 Q83.85 -15.191 87.42 -18.76 Q90.99 -22.33 95.621 -22.33 H139.804 Q144.435 -22.33 148.005 -18.76 Q151.575 -15.191 151.575 -10.559 V20.079 Q151.575 24.71 148.005 28.28 Q144.435 31.85 139.804 31.85 H95.621 Z M95.621 20.079 H139.804 Q139.804 20.079 139.804 20.079 Q139.804 20.079 139.804 20.079 V-10.559 Q139.804 -10.559 139.804 -10.559 Q139.804 -10.559 139.804 -10.559 H95.621 Q95.621 -10.559 95.621 -10.559 Q95.621 -10.559 95.621 -10.559 V20.079 Q95.621 20.079 95.621 20.079 Q95.621 20.079 95.621 20.079 Z M72.562 -12.816 Q64.516 -14.384 59.267 -20.727 Q54.019 -27.072 54.019 -35.532 Q54.019 -45.163 60.759 -51.887 Q67.499 -58.611 77.174 -58.611 Q86.849 -58.611 93.573 -51.903 Q100.297 -45.195 100.297 -35.552 Q100.297 -34.746 100.136 -33.859 Q99.975 -32.972 99.975 -32.166 H91.106 Q90.295 -32.166 89.491 -32.166 Q88.688 -32.166 88.043 -32.005 Q88.204 -32.811 88.365 -33.548 Q88.526 -34.285 88.526 -35.428 Q88.526 -40.158 85.263 -43.499 Q81.999 -46.84 77.2 -46.84 Q72.401 -46.84 69.096 -43.63 Q65.79 -40.419 65.79 -35.623 Q65.79 -31.126 68.728 -27.846 Q71.666 -24.565 75.788 -24.104 Q75.788 -24.104 75.788 -24.104 Q75.788 -24.104 75.788 -24.104 Q74.175 -21.846 73.277 -18.86 Q72.38 -15.875 72.562 -12.816 Z M60.791 31.85  57.405 10.888 Q54.825 9.92 51.711 8.19 Q48.598 6.461 46.279 4.599 L26.606 13.468 L9.836 -16.525 L27.413 -29.612 Q27.251 -30.699 27.171 -32.439 Q27.09 -34.18 27.09 -35.449 Q27.09 -36.718 27.171 -38.403 Q27.251 -40.088 27.413 -41.357 L9.836 -54.257 L26.606 -84.089 L45.956 -75.22 Q48.214 -76.994 51.439 -78.848 Q54.664 -80.702 57.405 -81.67 L60.791 -102.471 H94.17 L97.395 -81.67 Q100.136 -80.702 103.442 -78.848 Q106.748 -76.994 108.844 -75.22 L128.355 -84.089 L145.125 -54.257 L127.226 -41.519 Q127.226 -40.067 127.388 -38.442 Q127.549 -36.818 127.549 -35.552 Q127.549 -35.552 127.549 -35.552 Q127.549 -35.552 127.549 -35.552 H115.778 Q115.778 -35.552 115.778 -35.552 Q115.778 -35.552 115.778 -35.552 Q115.745 -38.842 115.358 -41.39 Q114.971 -43.937 114.487 -46.517 L129.322 -57.482 L123.034 -69.092 L105.941 -61.836 Q102.233 -66.029 97.384 -68.978 Q92.533 -71.929 86.688 -72.801 L84.59 -90.7 H70.144 L68.047 -72.801 Q62.242 -71.511 57.324 -68.689 Q52.406 -65.867 48.697 -61.836 L31.973 -69.092 L25.316 -57.482 L40.312 -46.356 Q39.668 -43.454 39.264 -40.793 Q38.861 -38.132 38.861 -35.475 Q38.861 -32.748 39.264 -30.038 Q39.668 -27.329 40.312 -24.265 L25.316 -13.139 L31.928 -1.529 L48.859 -8.946 Q53.051 -4.754 58.292 -1.932 Q63.532 0.89 69.338 2.341 V31.85 H60.791 Z"/></g><g id="Light-L" transform="matrix(1 0 0 1 1082.77 1556)"><path d="M95.249 28.625 Q90.693 28.625 87.272 25.203 Q83.85 21.782 83.85 17.226 V-10.931 Q83.85 -15.487 87.272 -18.908 Q90.693 -22.33 95.249 -22.33 H136.951 Q141.507 -22.33 144.928 -18.908 Q148.35 -15.487 148.35 -10.931 V17.226 Q148.35 21.782 144.928 25.203 Q141.507 28.625 136.951 28.625 H95.249 Z M95.249 19.21 H136.951 Q137.819 19.21 138.377 18.652 Q138.935 18.094 138.935 17.226 V-10.931 Q138.935 -11.799 138.377 -12.357 Q137.819 -12.916 136.951 -12.916 H95.249 Q94.381 -12.916 93.823 -12.357 Q93.264 -11.799 93.264 -10.931 V17.226 Q93.264 18.094 93.823 18.652 Q94.381 19.21 95.249 19.21 Z M72.19 -15.732 Q65.385 -17.297 61.004 -22.773 Q56.625 -28.249 56.625 -35.469 Q56.625 -44.004 62.559 -49.912 Q68.493 -55.82 77.019 -55.82 Q85.422 -55.82 91.309 -50.052 Q97.197 -44.284 97.382 -35.925 Q97.382 -35.367 97.251 -34.729 Q97.122 -34.088 97.184 -33.469 H91.045 Q90.171 -33.406 89.274 -33.376 Q88.378 -33.345 87.67 -33.184 Q87.707 -33.742 87.838 -34.2 Q87.968 -34.658 87.968 -35.552 Q87.968 -40.034 84.787 -43.22 Q81.605 -46.406 77.034 -46.406 Q72.401 -46.406 69.22 -43.304 Q66.038 -40.203 66.038 -35.562 Q66.038 -31.437 68.667 -28.341 Q71.295 -25.247 75.043 -24.6 Q75.043 -24.6 75.043 -24.6 Q75.043 -24.6 75.043 -24.6 Q73.727 -22.852 72.961 -20.48 Q72.193 -18.107 72.19 -15.732 Z M62.838 28.625  59.762 8.593 Q56.934 7.625 53.387 5.678 Q49.839 3.731 47.333 1.559 L28.653 9.933 L13.992 -16.401 L30.452 -28.745 Q30.291 -30.078 30.147 -31.974 Q30.005 -33.871 30.005 -35.386 Q30.005 -36.842 30.147 -38.682 Q30.291 -40.522 30.452 -42.227 L13.992 -54.443 L28.653 -80.43 L46.948 -72.18 Q49.578 -74.265 53.114 -76.305 Q56.649 -78.345 59.7 -79.375 L62.838 -99.246 H92.124 L95.038 -79.313 Q98.275 -78.16 101.675 -76.212 Q105.072 -74.265 107.604 -72.18 L126.37 -80.43 L140.97 -54.443 L123.938 -42.14 Q124.125 -40.377 124.287 -38.66 Q124.448 -36.942 124.448 -35.491 Q124.448 -35.491 124.448 -35.491 Q124.448 -35.491 124.448 -35.491 H114.908 Q114.908 -35.491 114.908 -35.491 Q114.908 -35.491 114.908 -35.491 Q114.876 -38.655 114.491 -41.048 Q114.102 -43.441 113.681 -46.084 L128.392 -57.049 L122.103 -68.472 L105.072 -61.34 Q101.675 -65.16 96.702 -68.204 Q91.727 -71.247 86.44 -71.995 L84.403 -89.831 H70.329 L68.357 -72.056 Q62.676 -70.829 58.006 -68.162 Q53.337 -65.495 49.442 -61.402 L32.903 -68.472 L26.247 -57.049 L40.995 -46.108 Q40.288 -43.392 39.916 -40.762 Q39.543 -38.132 39.543 -35.443 Q39.543 -32.748 39.916 -30.131 Q40.288 -27.514 40.933 -24.575 L26.247 -13.573 L32.858 -2.15 L49.541 -9.38 Q53.609 -5.276 58.726 -2.566 Q63.842 0.145 69.523 1.596 V28.625 H62.838 Z"/></g><g id="Thin-L" transform="matrix(1 0 0 1 787.282 1556)"><path d="M94.876 25.4 Q90.397 25.4 87.123 22.127 Q83.85 18.853 83.85 14.374 V-11.304 Q83.85 -15.783 87.123 -19.057 Q90.397 -22.33 94.876 -22.33 H134.099 Q138.578 -22.33 141.852 -19.057 Q145.125 -15.783 145.125 -11.304 V14.374 Q145.125 18.853 141.852 22.127 Q138.578 25.4 134.099 25.4 H94.876 Z M94.876 18.342 H134.099 Q135.834 18.342 136.951 17.226 Q138.067 16.109 138.067 14.374 V-11.304 Q138.067 -13.039 136.951 -14.156 Q135.834 -15.272 134.099 -15.272 H94.876 Q93.141 -15.272 92.024 -14.156 Q90.908 -13.039 90.908 -11.304 V14.374 Q90.908 16.109 92.024 17.226 Q93.141 18.342 94.876 18.342 Z M71.818 -18.645 Q66.253 -20.213 62.741 -24.821 Q59.229 -29.428 59.229 -35.407 Q59.229 -42.846 64.356 -47.938 Q69.484 -53.029 76.865 -53.029 Q83.997 -53.029 89.045 -48.201 Q94.096 -43.373 94.468 -36.297 Q94.468 -35.986 94.368 -35.596 Q94.27 -35.206 94.393 -34.77 H90.982 Q90.047 -34.646 89.057 -34.585 Q88.067 -34.524 87.298 -34.362 Q87.212 -34.672 87.31 -34.851 Q87.41 -35.03 87.41 -35.677 Q87.41 -39.909 84.311 -42.941 Q81.21 -45.972 76.868 -45.972 Q72.401 -45.972 69.344 -42.978 Q66.287 -39.985 66.287 -35.499 Q66.287 -31.747 68.604 -28.838 Q70.923 -25.929 74.299 -25.095 Q74.299 -25.095 74.299 -25.095 Q74.299 -25.095 74.299 -25.095 Q73.278 -23.859 72.643 -22.099 Q72.008 -20.34 71.818 -18.645 Z M64.884 25.4  62.118 6.298 Q59.042 5.331 55.06 3.167 Q51.079 1.003 48.388 -1.479 L30.699 6.397 L18.147 -16.277 L33.49 -27.877 Q33.329 -29.459 33.124 -31.51 Q32.919 -33.559 32.919 -35.325 Q32.919 -36.967 33.124 -38.961 Q33.329 -40.956 33.49 -43.094 L18.147 -54.63 L30.699 -76.771 L47.941 -69.142 Q50.942 -71.535 54.788 -73.762 Q58.634 -75.989 61.994 -77.081 L64.884 -96.021 H90.077 L92.682 -76.957 Q96.415 -75.617 99.907 -73.577 Q103.398 -71.535 106.364 -69.142 L124.385 -76.771 L136.814 -54.63 L120.652 -42.759 Q121.025 -40.688 121.186 -38.877 Q121.347 -37.067 121.347 -35.428 Q121.347 -35.428 121.347 -35.428 Q121.347 -35.428 121.347 -35.428 H114.041 Q114.041 -35.428 114.041 -35.428 Q114.041 -35.428 114.041 -35.428 Q114.009 -38.47 113.622 -40.708 Q113.235 -42.946 112.875 -45.65 L127.462 -56.615 L121.173 -67.852 L104.205 -60.845 Q101.117 -64.292 96.02 -67.428 Q90.921 -70.565 86.191 -71.189 L84.218 -88.963 H70.516 L68.668 -71.313 Q63.11 -70.147 58.689 -67.635 Q54.267 -65.123 50.186 -60.969 L33.833 -67.852 L27.177 -56.615 L41.677 -45.86 Q40.908 -43.33 40.567 -40.732 Q40.225 -38.132 40.225 -35.411 Q40.225 -32.748 40.567 -30.225 Q40.908 -27.701 41.553 -24.886 L27.177 -14.006 L33.788 -2.769 L50.223 -9.814 Q54.167 -5.799 59.159 -3.199 Q64.153 -0.598 69.71 0.853 V25.4 H64.884 Z"/></g><g id="Ultralight-L" transform="matrix(1 0 0 1 491.205 1556)"><path d="M94.654 23.465 Q90.219 23.465 87.035 20.28 Q83.85 17.096 83.85 12.661 V-11.526 Q83.85 -15.961 87.035 -19.145 Q90.219 -22.33 94.654 -22.33 H132.386 Q136.821 -22.33 140.005 -19.145 Q143.19 -15.961 143.19 -11.526 V12.661 Q143.19 17.096 140.005 20.28 Q136.821 23.465 132.386 23.465 H94.654 Z M94.654 17.821 H132.386 Q134.644 17.821 136.095 16.37 Q137.546 14.919 137.546 12.661 V-11.526 Q137.546 -13.784 136.095 -15.235 Q134.644 -16.686 132.386 -16.686 H94.654 Q92.396 -16.686 90.945 -15.235 Q89.494 -13.784 89.494 -11.526 V12.661 Q89.494 14.919 90.945 16.37 Q92.396 17.821 94.654 17.821 Z M71.595 -20.395 Q66.774 -21.962 63.782 -26.048 Q60.791 -30.136 60.791 -35.37 Q60.791 -42.149 65.435 -46.753 Q70.079 -51.355 76.771 -51.355 Q83.141 -51.355 87.688 -47.092 Q92.235 -42.826 92.719 -36.52 Q92.719 -36.359 92.638 -36.117 Q92.558 -35.875 92.719 -35.552 H90.945 Q89.973 -35.391 88.926 -35.311 Q87.881 -35.23 87.075 -35.069 Q86.914 -35.23 86.994 -35.241 Q87.075 -35.253 87.075 -35.751 Q87.075 -39.835 84.024 -42.773 Q80.975 -45.711 76.768 -45.711 Q72.401 -45.711 69.418 -42.783 Q66.435 -39.855 66.435 -35.462 Q66.435 -31.932 68.567 -29.136 Q70.698 -26.339 73.853 -25.394 Q73.853 -25.394 73.853 -25.394 Q73.853 -25.394 73.853 -25.394 Q73.009 -24.462 72.453 -23.07 Q71.897 -21.68 71.595 -20.395 Z M66.112 23.465  63.532 4.921 Q60.308 3.954 56.065 1.659 Q51.823 -0.634 49.02 -3.302 L31.928 4.276 L20.64 -16.202 L35.314 -27.355 Q35.153 -29.086 34.911 -31.229 Q34.669 -33.374 34.669 -35.288 Q34.669 -37.041 34.911 -39.129 Q35.153 -41.217 35.314 -43.615 L20.64 -54.741 L31.928 -74.575 L48.536 -67.319 Q51.761 -69.899 55.793 -72.237 Q59.824 -74.575 63.371 -75.704 L66.112 -94.086 H88.849 L91.267 -75.542 Q95.299 -74.091 98.846 -71.995 Q102.394 -69.899 105.619 -67.319 L123.195 -74.575 L134.321 -54.741 L118.68 -43.131 Q119.164 -40.874 119.325 -39.006 Q119.486 -37.141 119.486 -35.391 Q119.486 -35.391 119.486 -35.391 Q119.486 -35.391 119.486 -35.391 H113.52 Q113.52 -35.391 113.52 -35.391 Q113.52 -35.391 113.52 -35.391 Q113.488 -38.358 113.101 -40.503 Q112.714 -42.647 112.391 -45.389 L126.904 -56.354 L120.615 -67.48 L103.684 -60.546 Q100.781 -63.771 95.61 -66.962 Q90.437 -70.155 86.043 -70.705 L84.106 -88.442 H70.627 L68.854 -70.866 Q63.371 -69.737 59.098 -67.319 Q54.825 -64.9 50.633 -60.707 L34.391 -67.48 L27.735 -56.354 L42.086 -45.711 Q41.28 -43.292 40.958 -40.712 Q40.635 -38.132 40.635 -35.391 Q40.635 -32.748 40.958 -30.28 Q41.28 -27.812 41.925 -25.071 L27.735 -14.267 L34.346 -3.141 L50.633 -10.075 Q54.503 -6.111 59.421 -3.578 Q64.339 -1.045 69.821 0.406 V23.465 H66.112 Z"/></g><g id="Bold-M" transform="matrix(1 0 0 1 2281.8 1126)"><path d="M82 20.52 Q74.86 20.52 69.93 15.59 Q65 10.66 65 3.52 V-8.23 Q65 -15.371 69.93 -20.3 Q74.86 -25.23 82 -25.23 H104.875 Q112.016 -25.23 116.945 -20.3 Q121.875 -15.371 121.875 -8.23 V3.52 Q121.875 10.66 116.945 15.59 Q112.016 20.52 104.875 20.52 H82 Z M82 3.52 H104.875 Q104.875 3.52 104.875 3.52 Q104.875 3.52 104.875 3.52 V-8.23 Q104.875 -8.23 104.875 -8.23 Q104.875 -8.23 104.875 -8.23 H82 Q82 -8.23 82 -8.23 Q82 -8.23 82 -8.23 V3.52 Q82 3.52 82 3.52 Q82 3.52 82 3.52 Z M54.625 -16.605 Q48.366 -18.235 44.307 -23.369 Q40.25 -28.502 40.25 -35.349 Q40.25 -43.439 45.96 -49.147 Q51.67 -54.855 59.748 -54.855 Q67.825 -54.855 73.475 -49.202 Q79.125 -43.55 79.25 -35.48 Q79.25 -35.48 79.25 -35.48 Q79.25 -35.48 79.25 -35.48 H77 Q73.625 -35.48 70.562 -34.542 Q67.5 -33.605 64.875 -31.855 Q65.25 -32.605 65.562 -33.489 Q65.875 -34.372 65.875 -35.259 Q65.875 -37.895 64.115 -39.687 Q62.355 -41.48 59.766 -41.48 Q57.178 -41.48 55.401 -39.73 Q53.625 -37.98 53.625 -35.317 Q53.625 -32.681 55.375 -30.956 Q57.125 -29.23 59.625 -29.23 Q60.25 -29.23 60.75 -29.292 Q61.25 -29.355 61.625 -29.605 Q58.875 -27.105 57.062 -23.73 Q55.25 -20.355 54.625 -16.605 Z M41.5 20.52  39.125 2.895 Q38.697 2.631 38.31 2.383 Q37.922 2.134 37.5 1.895 L20.875 8.895 L2.375 -23.73 L16.375 -34.355 Q16.375 -34.571 16.438 -34.844 Q16.5 -35.116 16.5 -35.347 Q16.5 -35.58 16.438 -35.81 Q16.375 -36.039 16.375 -36.23 L2.375 -46.855 L20.875 -79.105 L37.5 -72.355 Q37.986 -72.536 38.43 -72.759 Q38.875 -72.98 39.25 -73.23 L41.5 -91.105 H78.5 L80.75 -73.23 Q81.302 -73 81.776 -72.74 Q82.25 -72.48 82.75 -72.23 L99.125 -79.105 L117.625 -46.855 L103.375 -36.23 Q103.375 -36.004 103.375 -35.782 Q103.375 -35.562 103.375 -35.48 Q103.375 -35.48 103.375 -35.48 Q103.375 -35.48 103.375 -35.48 H86.225 Q86.225 -35.48 86.225 -35.48 Q86.225 -35.48 86.225 -35.48 Q86.25 -37.954 85.812 -39.905 Q85.375 -41.855 84.875 -43.73 L95.375 -51.605 L91.75 -57.855 L79.647 -52.605 Q76.875 -55.98 73.201 -58.141 Q69.526 -60.304 65.25 -61.105 L63.625 -74.105 H56.25 L54.875 -61.355 Q50.5 -60.355 46.688 -58.167 Q42.875 -55.98 40 -52.73 L28.125 -57.855 L24.625 -51.605 L34.75 -43.98 Q34 -41.605 33.688 -39.57 Q33.375 -37.536 33.375 -35.295 Q33.375 -33.23 33.688 -31.105 Q34 -28.98 34.75 -26.605 L24.625 -18.98 L28.125 -12.73 L39.972 -17.855 Q42.946 -14.874 46.536 -12.677 Q50.125 -10.48 54.25 -9.355 V20.52 H41.5 Z"/></g><g id="Semibold-M" transform="matrix(1 0 0 1 1985.97 1126)"><path d="M80.37 19.759 Q73.957 19.759 69.479 15.28 Q65 10.803 65 4.39 V-9.86 Q65 -16.272 69.479 -20.751 Q73.957 -25.23 80.37 -25.23 H105.69 Q112.103 -25.23 116.581 -20.751 Q121.06 -16.272 121.06 -9.86 V4.39 Q121.06 10.803 116.581 15.28 Q112.103 19.759 105.69 19.759 H80.37 Z M80.37 4.39 H105.69 Q105.69 4.39 105.69 4.39 Q105.69 4.39 105.69 4.39 V-9.86 Q105.69 -9.86 105.69 -9.86 Q105.69 -9.86 105.69 -9.86 H80.37 Q80.37 -9.86 80.37 -9.86 Q80.37 -9.86 80.37 -9.86 V4.39 Q80.37 4.39 80.37 4.39 Q80.37 4.39 80.37 4.39 Z M54.081 -16.116 Q47.778 -17.946 43.715 -23.184 Q39.653 -28.421 39.653 -35.406 Q39.653 -43.761 45.554 -49.661 Q51.455 -55.561 59.803 -55.561 Q68.151 -55.561 74.019 -49.692 Q79.886 -43.824 79.956 -35.48 Q79.956 -35.48 79.956 -35.48 Q79.956 -35.48 79.956 -35.48 H75.424 Q72.864 -35.48 70.481 -34.869 Q68.097 -34.257 66.016 -33.05 Q66.229 -33.584 66.405 -34.167 Q66.581 -34.752 66.581 -35.367 Q66.581 -38.28 64.63 -40.26 Q62.678 -42.241 59.807 -42.241 Q56.938 -42.241 54.955 -40.3 Q52.972 -38.36 52.972 -35.426 Q52.972 -32.736 54.669 -30.874 Q56.364 -29.012 58.864 -28.741 Q59.218 -28.741 59.5 -28.776 Q59.782 -28.811 59.995 -28.952 Q57.516 -26.452 55.975 -23.132 Q54.435 -19.811 54.081 -16.116 Z M42.315 19.759  39.995 2.46 Q39.373 2.094 38.731 1.711 Q38.089 1.329 37.446 0.916 L21.093 7.754 L3.462 -23.404 L17.136 -33.866 Q17.136 -34.255 17.171 -34.655 Q17.206 -35.056 17.206 -35.434 Q17.206 -35.811 17.171 -36.17 Q17.136 -36.527 17.136 -36.882 L3.462 -47.235 L21.093 -78.072 L37.229 -71.485 Q37.938 -71.86 38.705 -72.257 Q39.472 -72.654 40.12 -73.067 L42.315 -90.399 H77.685 L79.88 -73.012 Q80.627 -72.611 81.411 -72.192 Q82.196 -71.774 82.912 -71.36 L98.907 -78.072 L116.537 -47.235 L102.614 -36.774 Q102.614 -36.374 102.614 -36.055 Q102.614 -35.736 102.614 -35.48 Q102.614 -35.48 102.614 -35.48 Q102.614 -35.48 102.614 -35.48 H87.16 Q87.16 -35.48 87.16 -35.48 Q87.16 -35.48 87.16 -35.48 Q87.12 -37.954 86.764 -39.877 Q86.407 -41.801 85.907 -43.676 L96.354 -51.551 L92.239 -58.779 L80.073 -53.637 Q77.31 -56.85 73.69 -58.957 Q70.07 -61.065 65.847 -61.975 L64.278 -75.029 H55.653 L54.222 -62.17 Q49.847 -61.116 46.144 -58.955 Q42.44 -56.795 39.62 -53.709 L27.69 -58.779 L23.538 -51.551 L33.771 -43.762 Q33.076 -41.387 32.791 -39.422 Q32.505 -37.457 32.505 -35.406 Q32.505 -33.501 32.791 -31.431 Q33.076 -29.36 33.771 -26.876 L23.538 -19.089 L27.69 -11.86 L39.659 -16.985 Q42.644 -14.05 46.221 -11.885 Q49.799 -9.719 53.87 -8.649 V19.759 H42.315 Z"/></g><g id="Medium-M" transform="matrix(1 0 0 1 1689.91 1126)"><path d="M79.146 19.189 Q73.28 19.189 69.14 15.049 Q65 10.908 65 5.041 V-11.084 Q65 -16.95 69.14 -21.09 Q73.28 -25.23 79.146 -25.23 H106.301 Q112.168 -25.23 116.308 -21.09 Q120.449 -16.95 120.449 -11.084 V5.041 Q120.449 10.908 116.308 15.049 Q112.168 19.189 106.301 19.189 H79.146 Z M79.146 5.041 H106.301 Q106.301 5.041 106.301 5.041 Q106.301 5.041 106.301 5.041 V-11.084 Q106.301 -11.084 106.301 -11.084 Q106.301 -11.084 106.301 -11.084 H79.146 Q79.146 -11.084 79.146 -11.084 Q79.146 -11.084 79.146 -11.084 V5.041 Q79.146 5.041 79.146 5.041 Q79.146 5.041 79.146 5.041 Z M53.674 -15.749 Q47.336 -17.729 43.27 -23.045 Q39.204 -28.36 39.204 -35.449 Q39.204 -44.002 45.249 -50.047 Q51.294 -56.091 59.845 -56.091 Q68.396 -56.091 74.426 -50.06 Q80.456 -44.029 80.486 -35.48 Q80.486 -35.48 80.486 -35.48 Q80.486 -35.48 80.486 -35.48 H74.241 Q72.294 -35.48 70.42 -35.114 Q68.546 -34.746 66.873 -33.947 Q66.963 -34.317 67.036 -34.677 Q67.111 -35.039 67.111 -35.45 Q67.111 -38.569 65.016 -40.69 Q62.92 -42.811 59.839 -42.811 Q56.758 -42.811 54.62 -40.729 Q52.484 -38.646 52.484 -35.507 Q52.484 -32.776 54.139 -30.812 Q55.794 -28.85 58.294 -28.374 Q58.443 -28.374 58.562 -28.389 Q58.682 -28.404 58.771 -28.464 Q56.498 -25.964 55.16 -22.684 Q53.824 -19.404 53.674 -15.749 Z M42.926 19.189  40.646 2.134 Q39.879 1.691 39.046 1.208 Q38.214 0.724 37.405 0.183 L21.255 6.898 L4.277 -23.159 L17.706 -33.499 Q17.706 -34.016 17.721 -34.515 Q17.736 -35.012 17.736 -35.499 Q17.736 -35.985 17.721 -36.44 Q17.706 -36.895 17.706 -37.371 L4.277 -47.521 L21.255 -77.297 L37.025 -70.834 Q37.901 -71.352 38.911 -71.881 Q39.921 -72.409 40.771 -72.945 L42.926 -89.869 H77.074 L79.229 -72.85 Q80.121 -72.319 81.138 -71.781 Q82.155 -71.244 83.035 -70.709 L98.745 -77.297 L115.722 -47.521 L102.044 -37.181 Q102.044 -36.651 102.044 -36.259 Q102.044 -35.866 102.044 -35.48 Q102.044 -35.48 102.044 -35.48 Q102.044 -35.48 102.044 -35.48 H87.861 Q87.861 -35.48 87.861 -35.48 Q87.861 -35.48 87.861 -35.48 Q87.771 -37.954 87.478 -39.857 Q87.183 -41.76 86.683 -43.635 L97.088 -51.51 L92.606 -59.471 L80.391 -54.412 Q77.636 -57.501 74.056 -59.569 Q70.478 -61.635 66.296 -62.626 L64.766 -75.721 H55.204 L53.734 -62.781 Q49.359 -61.686 45.736 -59.546 Q42.114 -57.406 39.334 -54.442 L27.364 -59.471 L22.723 -51.51 L33.038 -43.6 Q32.384 -41.225 32.119 -39.311 Q31.854 -37.399 31.854 -35.49 Q31.854 -33.705 32.119 -31.676 Q32.384 -29.646 33.038 -27.08 L22.723 -19.17 L27.364 -11.209 L39.422 -16.334 Q42.416 -13.432 45.985 -11.291 Q49.554 -9.149 53.584 -8.119 V19.189 H42.926 Z"/></g><g id="Regular-M" transform="matrix(1 0 0 1 1394.06 1126)"><path d="M78.25 18.77 Q72.785 18.77 68.892 14.878 Q65 10.985 65 5.52 V-11.98 Q65 -17.446 68.892 -21.337 Q72.785 -25.23 78.25 -25.23 H106.75 Q112.215 -25.23 116.108 -21.337 Q120 -17.446 120 -11.98 V5.52 Q120 10.985 116.108 14.878 Q112.215 18.77 106.75 18.77 H78.25 Z M78.25 5.52 H106.75 Q106.75 5.52 106.75 5.52 Q106.75 5.52 106.75 5.52 V-11.98 Q106.75 -11.98 106.75 -11.98 Q106.75 -11.98 106.75 -11.98 H78.25 Q78.25 -11.98 78.25 -11.98 Q78.25 -11.98 78.25 -11.98 V5.52 Q78.25 5.52 78.25 5.52 Q78.25 5.52 78.25 5.52 Z M53.375 -15.48 Q47.013 -17.57 42.944 -22.942 Q38.875 -28.316 38.875 -35.48 Q38.875 -44.18 45.025 -50.33 Q51.175 -56.48 59.875 -56.48 Q68.575 -56.48 74.725 -50.33 Q80.875 -44.18 80.875 -35.48 Q80.875 -35.48 80.875 -35.48 Q80.875 -35.48 80.875 -35.48 H73.375 Q71.875 -35.48 70.375 -35.292 Q68.875 -35.105 67.5 -34.605 Q67.5 -34.855 67.5 -35.051 Q67.5 -35.247 67.5 -35.509 Q67.5 -38.781 65.299 -41.005 Q63.099 -43.23 59.861 -43.23 Q56.625 -43.23 54.375 -41.042 Q52.125 -38.855 52.125 -35.567 Q52.125 -32.806 53.75 -30.769 Q55.375 -28.73 57.875 -28.105 Q57.875 -28.105 57.875 -28.105 Q57.875 -28.105 57.875 -28.105 Q55.75 -25.605 54.562 -22.355 Q53.375 -19.105 53.375 -15.48 Z M43.375 18.77  41.125 1.895 Q40.25 1.395 39.278 0.839 Q38.305 0.281 37.375 -0.355 L21.375 6.27 L4.875 -22.98 L18.125 -33.23 Q18.125 -33.842 18.125 -34.411 Q18.125 -34.98 18.125 -35.546 Q18.125 -36.112 18.125 -36.637 Q18.125 -37.164 18.125 -37.73 L4.875 -47.73 L21.375 -76.73 L36.875 -70.355 Q37.875 -70.98 39.062 -71.605 Q40.25 -72.23 41.25 -72.855 L43.375 -89.48 H76.625 L78.75 -72.73 Q79.75 -72.105 80.938 -71.48 Q82.125 -70.855 83.125 -70.23 L98.625 -76.73 L115.125 -47.73 L101.625 -37.48 Q101.625 -36.855 101.625 -36.407 Q101.625 -35.961 101.625 -35.48 Q101.625 -35.48 101.625 -35.48 Q101.625 -35.48 101.625 -35.48 H88.375 Q88.375 -35.48 88.375 -35.48 Q88.375 -35.48 88.375 -35.48 Q88.25 -37.954 88 -39.842 Q87.75 -41.73 87.25 -43.605 L97.625 -51.48 L92.875 -59.98 L80.625 -54.98 Q77.875 -57.98 74.326 -60.016 Q70.776 -62.054 66.625 -63.105 L65.125 -76.23 H54.875 L53.375 -63.23 Q49 -62.105 45.438 -59.98 Q41.875 -57.855 39.125 -54.98 L27.125 -59.98 L22.125 -51.48 L32.5 -43.48 Q31.875 -41.105 31.625 -39.23 Q31.375 -37.355 31.375 -35.552 Q31.375 -33.855 31.625 -31.855 Q31.875 -29.855 32.5 -27.23 L22.125 -19.23 L27.125 -10.73 L39.25 -15.855 Q42.25 -12.98 45.812 -10.855 Q49.375 -8.73 53.375 -7.73 V18.77 H43.375 Z"/></g><g id="Light-M" transform="matrix(1 0 0 1 1098.18 1126)"><path d="M77.289 16.27 Q72.159 16.27 68.58 12.69 Q65 9.11 65 3.981 V-12.941 Q65 -18.071 68.58 -21.65 Q72.159 -25.23 77.289 -25.23 H105.211 Q110.34 -25.23 113.92 -21.65 Q117.5 -18.071 117.5 -12.941 V3.981 Q117.5 9.11 113.92 12.69 Q110.34 16.27 105.211 16.27 H77.289 Z M77.289 5.52 H105.211 Q105.885 5.52 106.317 5.088 Q106.75 4.655 106.75 3.981 V-12.941 Q106.75 -13.615 106.317 -14.047 Q105.885 -14.48 105.211 -14.48 H77.289 Q76.615 -14.48 76.183 -14.047 Q75.75 -13.615 75.75 -12.941 V3.981 Q75.75 4.655 76.183 5.088 Q76.615 5.52 77.289 5.52 Z M53.615 -17.98 Q48.166 -19.877 44.675 -24.577 Q41.182 -29.277 41.182 -35.48 Q41.182 -43.17 46.587 -48.575 Q51.992 -53.98 59.682 -53.98 Q67.276 -53.98 72.657 -48.671 Q78.039 -43.362 78.183 -35.816 Q78.183 -35.816 78.183 -35.816 Q78.183 -35.816 78.183 -35.816 H72.701 Q71.346 -35.769 69.99 -35.605 Q68.635 -35.441 67.356 -34.99 Q67.356 -35.144 67.356 -35.267 Q67.356 -35.391 67.356 -35.557 Q67.308 -38.781 65.082 -41.005 Q62.858 -43.23 59.669 -43.23 Q56.432 -43.23 54.182 -41.042 Q51.932 -38.855 51.932 -35.567 Q51.932 -32.855 53.51 -30.816 Q55.086 -28.777 57.443 -28.105 Q57.443 -28.105 57.443 -28.105 Q57.443 -28.105 57.443 -28.105 Q55.703 -26.134 54.706 -23.509 Q53.711 -20.884 53.615 -17.98 Z M45.586 16.27  43.432 0.164 Q42.174 -0.384 40.528 -1.277 Q38.883 -2.171 37.664 -3.191 L22.433 3.145 L8.145 -22.355 L20.721 -32.076 Q20.674 -32.929 20.601 -33.81 Q20.529 -34.691 20.529 -35.497 Q20.529 -36.256 20.601 -37.071 Q20.674 -37.885 20.721 -38.884 L8.145 -48.355 L22.433 -73.509 L37.115 -67.47 Q38.549 -68.527 40.289 -69.465 Q42.029 -70.402 43.51 -71.124 L45.586 -86.98 H74.414 L76.442 -70.951 Q78.067 -70.134 79.639 -69.292 Q81.211 -68.451 82.692 -67.345 L97.567 -73.509 L111.855 -48.355 L98.836 -38.49 Q98.98 -37.529 99.005 -36.841 Q99.029 -36.154 99.029 -35.48 Q99.029 -35.48 99.029 -35.48 Q99.029 -35.48 99.029 -35.48 H88.183 Q88.183 -35.48 88.183 -35.48 Q88.183 -35.48 88.183 -35.48 Q88.106 -37.857 87.856 -39.674 Q87.606 -41.49 87.106 -43.461 L97.672 -51.48 L92.875 -59.98 L80.433 -54.932 Q77.922 -57.74 74.181 -59.896 Q70.44 -62.054 66.578 -62.961 L65.125 -76.23 H54.828 L53.422 -63.134 Q49.096 -62.105 45.606 -60.052 Q42.115 -57.999 39.172 -54.932 L27.125 -59.98 L22.078 -51.48 L32.5 -43.432 Q31.875 -41.152 31.625 -39.23 Q31.375 -37.307 31.375 -35.504 Q31.375 -33.855 31.625 -31.855 Q31.875 -29.855 32.453 -27.277 L22.078 -19.23 L27.125 -10.73 L39.25 -15.855 Q42.25 -13.027 45.836 -10.975 Q49.422 -8.922 53.375 -7.777 V16.27 H45.586 Z"/></g><g id="Thin-M" transform="matrix(1 0 0 1 802.565 1126)"><path d="M76.328 13.77 Q71.535 13.77 68.267 10.503 Q65 7.236 65 2.443 V-13.902 Q65 -18.695 68.267 -21.962 Q71.535 -25.23 76.328 -25.23 H103.672 Q108.466 -25.23 111.733 -21.962 Q115 -18.695 115 -13.902 V2.443 Q115 7.236 111.733 10.503 Q108.466 13.77 103.672 13.77 H76.328 Z M76.328 5.52 H103.672 Q105.019 5.52 105.885 4.655 Q106.75 3.789 106.75 2.443 V-13.902 Q106.75 -15.249 105.885 -16.115 Q105.019 -16.98 103.672 -16.98 H76.328 Q74.981 -16.98 74.115 -16.115 Q73.25 -15.249 73.25 -13.902 V2.443 Q73.25 3.789 74.115 4.655 Q74.981 5.52 76.328 5.52 Z M53.856 -20.48 Q49.32 -22.185 46.405 -26.212 Q43.49 -30.239 43.49 -35.48 Q43.49 -42.161 48.15 -46.82 Q52.81 -51.48 59.49 -51.48 Q65.979 -51.48 70.59 -47.012 Q75.203 -42.545 75.49 -36.152 Q75.49 -36.152 75.49 -36.152 Q75.49 -36.152 75.49 -36.152 H72.029 Q70.817 -36.057 69.606 -35.917 Q68.394 -35.777 67.211 -35.374 Q67.211 -35.432 67.211 -35.484 Q67.211 -35.536 67.211 -35.605 Q67.115 -38.781 64.866 -41.005 Q62.617 -43.23 59.477 -43.23 Q56.24 -43.23 53.99 -41.042 Q51.74 -38.855 51.74 -35.567 Q51.74 -32.902 53.269 -30.864 Q54.797 -28.826 57.01 -28.105 Q57.01 -28.105 57.01 -28.105 Q57.01 -28.105 57.01 -28.105 Q55.654 -26.662 54.851 -24.662 Q54.047 -22.662 53.856 -20.48 Z M47.797 13.77  45.74 -1.566 Q44.096 -2.162 41.778 -3.392 Q39.459 -4.622 37.953 -6.027 L23.49 0.02 L11.414 -21.73 L23.317 -30.922 Q23.221 -32.015 23.078 -33.209 Q22.933 -34.402 22.933 -35.45 Q22.933 -36.401 23.078 -37.504 Q23.221 -38.606 23.317 -40.037 L11.414 -48.98 L23.49 -70.287 L37.356 -64.586 Q39.221 -66.076 41.515 -67.326 Q43.807 -68.576 45.769 -69.394 L47.797 -84.48 H72.203 L74.135 -69.172 Q76.385 -68.162 78.341 -67.105 Q80.297 -66.047 82.26 -64.461 L96.51 -70.287 L108.586 -48.98 L96.047 -39.499 Q96.336 -38.201 96.385 -37.274 Q96.433 -36.346 96.433 -35.48 Q96.433 -35.48 96.433 -35.48 Q96.433 -35.48 96.433 -35.48 H87.99 Q87.99 -35.48 87.99 -35.48 Q87.99 -35.48 87.99 -35.48 Q87.961 -37.761 87.711 -39.505 Q87.461 -41.249 86.961 -43.316 L97.721 -51.48 L92.875 -59.98 L80.24 -54.884 Q77.971 -57.499 74.037 -59.776 Q70.104 -62.054 66.529 -62.816 L65.125 -76.23 H54.779 L53.471 -63.037 Q49.193 -62.105 45.774 -60.124 Q42.356 -58.144 39.221 -54.884 L27.125 -59.98 L22.029 -51.48 L32.5 -43.384 Q31.875 -41.201 31.625 -39.23 Q31.375 -37.259 31.375 -35.456 Q31.375 -33.855 31.625 -31.855 Q31.875 -29.855 32.404 -27.326 L22.029 -19.23 L27.125 -10.73 L39.25 -15.855 Q42.25 -13.076 45.86 -11.095 Q49.471 -9.115 53.375 -7.826 V13.77 H47.797 Z"/></g><g id="Ultralight-M" transform="matrix(1 0 0 1 506.415 1126)"><path d="M75.75 12.27 Q71.16 12.27 68.08 9.19 Q65 6.111 65 1.52 V-14.48 Q65 -19.071 68.08 -22.15 Q71.16 -25.23 75.75 -25.23 H102.75 Q107.34 -25.23 110.42 -22.15 Q113.5 -19.071 113.5 -14.48 V1.52 Q113.5 6.111 110.42 9.19 Q107.34 12.27 102.75 12.27 H75.75 Z M75.75 5.52 H102.75 Q104.5 5.52 105.625 4.395 Q106.75 3.27 106.75 1.52 V-14.48 Q106.75 -16.23 105.625 -17.355 Q104.5 -18.48 102.75 -18.48 H75.75 Q74 -18.48 72.875 -17.355 Q71.75 -16.23 71.75 -14.48 V1.52 Q71.75 3.27 72.875 4.395 Q74 5.52 75.75 5.52 Z M54 -21.98 Q50.013 -23.57 47.444 -27.192 Q44.875 -30.816 44.875 -35.48 Q44.875 -41.555 49.087 -45.767 Q53.3 -49.98 59.375 -49.98 Q65.2 -49.98 69.35 -46.017 Q73.5 -42.055 73.875 -36.355 Q73.875 -36.355 73.875 -36.355 Q73.875 -36.355 73.875 -36.355 H71.625 Q70.5 -36.23 69.375 -36.105 Q68.25 -35.98 67.125 -35.605 Q67.125 -35.605 67.125 -35.614 Q67.125 -35.622 67.125 -35.634 Q67 -38.781 64.736 -41.005 Q62.474 -43.23 59.361 -43.23 Q56.125 -43.23 53.875 -41.042 Q51.625 -38.855 51.625 -35.567 Q51.625 -32.931 53.125 -30.894 Q54.625 -28.855 56.75 -28.105 Q56.75 -28.105 56.75 -28.105 Q56.75 -28.105 56.75 -28.105 Q55.625 -26.98 54.938 -25.355 Q54.25 -23.73 54 -21.98 Z M49.125 12.27  47.125 -2.605 Q45.25 -3.23 42.528 -4.661 Q39.805 -6.094 38.125 -7.73 L24.125 -1.855 L13.375 -21.355 L24.875 -30.23 Q24.75 -31.467 24.562 -32.849 Q24.375 -34.23 24.375 -35.421 Q24.375 -36.487 24.562 -37.762 Q24.75 -39.039 24.875 -40.73 L13.375 -49.355 L24.125 -68.355 L37.5 -62.855 Q39.625 -64.605 42.25 -66.042 Q44.875 -67.48 47.125 -68.355 L49.125 -82.98 H70.875 L72.75 -68.105 Q75.375 -66.98 77.562 -65.792 Q79.75 -64.605 82 -62.73 L95.875 -68.355 L106.625 -49.355 L94.375 -40.105 Q94.75 -38.605 94.812 -37.532 Q94.875 -36.461 94.875 -35.48 Q94.875 -35.48 94.875 -35.48 Q94.875 -35.48 94.875 -35.48 H87.875 Q87.875 -35.48 87.875 -35.48 Q87.875 -35.48 87.875 -35.48 Q87.875 -37.704 87.625 -39.405 Q87.375 -41.105 86.875 -43.23 L97.75 -51.48 L92.875 -59.98 L80.125 -54.855 Q78 -57.355 73.951 -59.704 Q69.901 -62.054 66.5 -62.73 L65.125 -76.23 H54.75 L53.5 -62.98 Q49.25 -62.105 45.875 -60.167 Q42.5 -58.23 39.25 -54.855 L27.125 -59.98 L22 -51.48 L32.5 -43.355 Q31.875 -41.23 31.625 -39.23 Q31.375 -37.23 31.375 -35.427 Q31.375 -33.855 31.625 -31.855 Q31.875 -29.855 32.375 -27.355 L22 -19.23 L27.125 -10.73 L39.25 -15.855 Q42.25 -13.105 45.875 -11.167 Q49.5 -9.23 53.375 -7.855 V12.27 H49.125 Z"/></g><g id="Bold-S" transform="matrix(1 0 0 1 2294.23 696)"><path d="M64.698 7.179 Q59.065 7.179 55.569 3.683 Q52.074 0.188 52.074 -5.445 V-13.138 Q52.074 -18.772 55.569 -22.267 Q59.065 -25.762 64.698 -25.762 H82.746 Q88.381 -25.762 91.875 -22.267 Q95.37 -18.772 95.37 -13.138 V-5.445 Q95.37 0.188 91.875 3.683 Q88.381 7.179 82.746 7.179 H64.698 Z M64.698 -5.445 H82.746 Q82.746 -5.445 82.746 -5.445 Q82.746 -5.445 82.746 -5.445 V-13.138 Q82.746 -13.138 82.746 -13.138 Q82.746 -13.138 82.746 -13.138 H64.698 Q64.698 -13.138 64.698 -13.138 Q64.698 -13.138 64.698 -13.138 V-5.445 Q64.698 -5.445 64.698 -5.445 Q64.698 -5.445 64.698 -5.445 Z M44.677 -19.746 Q38.95 -20.44 35.057 -24.885 Q31.166 -29.33 31.166 -35.324 Q31.166 -41.904 35.769 -46.507 Q40.373 -51.109 46.944 -51.109 Q53.514 -51.109 58.07 -46.55 Q62.627 -41.992 62.726 -35.427 Q62.726 -34.835 62.676 -34.244 Q62.627 -33.652 62.528 -33.06 H60.95 Q58.386 -33.06 56.019 -32.321 Q53.652 -31.581 51.68 -30.299 Q52.271 -31.384 52.666 -32.623 Q53.06 -33.863 53.06 -35.154 Q53.06 -37.727 51.277 -39.536 Q49.494 -41.345 46.958 -41.345 Q44.423 -41.345 42.676 -39.619 Q40.929 -37.893 40.929 -35.299 Q40.929 -32.331 43.148 -30.428 Q45.367 -28.523 48.326 -29.017 Q48.918 -29.017 49.362 -29.066 Q49.806 -29.115 50.2 -29.312 Q48.129 -27.537 46.699 -25.022 Q45.269 -22.507 44.677 -19.746 Z M35.998 7.179  33.532 -5.347 Q32.209 -5.949 30.917 -6.639 Q29.625 -7.328 28.503 -8.305 L16.273 -4.064 L4.931 -24.184 L14.399 -32.37 Q14.301 -33.034 14.251 -33.791 Q14.202 -34.549 14.202 -35.323 Q14.202 -36.098 14.251 -36.822 Q14.301 -37.545 14.399 -38.189 L4.931 -46.473 L16.273 -66.297 L28.503 -62.155 Q29.675 -63.087 30.962 -63.755 Q32.25 -64.423 33.631 -65.015 L35.998 -77.737 H58.682 L61.049 -65.015 Q62.471 -64.439 63.831 -63.741 Q65.191 -63.042 66.375 -62.056 L78.407 -66.198 L89.749 -46.375 L80.084 -38.189 Q80.182 -37.517 80.281 -36.8 Q80.379 -36.084 80.379 -35.427 Q80.379 -34.835 80.33 -34.244 Q80.281 -33.652 80.182 -33.06 H67.44 Q67.538 -33.652 67.588 -34.244 Q67.637 -34.835 67.637 -35.427 Q67.755 -37.28 67.262 -39.264 Q66.769 -41.246 66.177 -43.219 L73.476 -49.629 L72.687 -50.813 L63.434 -47.657 Q60.852 -51.01 57.411 -53.06 Q53.969 -55.112 49.904 -55.547 L48.03 -65.113 H46.452 L44.874 -55.744 Q40.732 -55.054 37.132 -52.982 Q33.532 -50.911 30.968 -47.657 L21.895 -50.813 L21.204 -49.629 L28.207 -43.317 Q27.516 -41.147 27.122 -39.197 Q26.727 -37.247 26.727 -35.281 Q26.727 -33.257 27.073 -31.236 Q27.418 -29.214 28.108 -27.143 L21.204 -20.929 L21.796 -19.746 L30.848 -22.803 Q33.49 -19.761 36.964 -17.831 Q40.436 -15.899 44.381 -14.913 V7.179 H35.998 Z"/></g><g id="Semibold-S" transform="matrix(1 0 0 1 1998.1 696)"><path d="M63.412 6.578 Q58.352 6.578 55.213 3.439 Q52.074 0.301 52.074 -4.759 V-14.424 Q52.074 -19.484 55.213 -22.623 Q58.352 -25.762 63.412 -25.762 H83.389 Q88.449 -25.762 91.588 -22.623 Q94.727 -19.484 94.727 -14.424 V-4.759 Q94.727 0.301 91.588 3.439 Q88.449 6.578 83.389 6.578 H63.412 Z M63.412 -4.759 H83.389 Q83.389 -4.759 83.389 -4.759 Q83.389 -4.759 83.389 -4.759 V-14.424 Q83.389 -14.424 83.389 -14.424 Q83.389 -14.424 83.389 -14.424 H63.412 Q63.412 -14.424 63.412 -14.424 Q63.412 -14.424 63.412 -14.424 V-4.759 Q63.412 -4.759 63.412 -4.759 Q63.412 -4.759 63.412 -4.759 Z M44.248 -19.36 Q38.485 -20.212 34.59 -24.739 Q30.694 -29.266 30.694 -35.369 Q30.694 -42.158 35.449 -46.912 Q40.203 -51.666 46.987 -51.666 Q53.771 -51.666 58.499 -46.937 Q63.228 -42.208 63.283 -35.427 Q63.283 -34.835 63.233 -34.244 Q63.184 -33.652 63.085 -33.06 H59.707 Q57.785 -33.06 55.955 -32.578 Q54.123 -32.096 52.58 -31.242 Q53.043 -32.156 53.33 -33.159 Q53.617 -34.163 53.617 -35.24 Q53.617 -38.031 51.683 -39.988 Q49.748 -41.945 46.991 -41.945 Q44.233 -41.945 42.324 -40.069 Q40.415 -38.193 40.415 -35.385 Q40.415 -32.375 42.591 -30.363 Q44.767 -28.352 47.726 -28.631 Q48.103 -28.631 48.376 -28.659 Q48.648 -28.686 48.914 -28.798 Q47.057 -27.022 45.841 -24.551 Q44.626 -22.078 44.248 -19.36 Z M36.641 6.578  34.219 -5.69 Q32.742 -6.373 31.249 -7.168 Q29.756 -7.963 28.46 -9.078 L16.445 -4.965 L5.789 -23.927 L15 -31.984 Q14.901 -32.784 14.83 -33.642 Q14.759 -34.501 14.759 -35.391 Q14.759 -36.28 14.83 -37.106 Q14.901 -37.93 15 -38.704 L5.789 -46.773 L16.445 -65.482 L28.289 -61.468 Q29.637 -62.553 31.179 -63.36 Q32.722 -64.166 34.318 -64.887 L36.641 -77.18 H58.039 L60.362 -64.843 Q61.938 -64.132 63.543 -63.309 Q65.149 -62.485 66.503 -61.37 L78.235 -65.384 L88.891 -46.674 L79.483 -38.618 Q79.581 -37.809 79.68 -37.015 Q79.779 -36.221 79.779 -35.427 Q79.779 -34.835 79.729 -34.244 Q79.68 -33.652 79.581 -33.06 H68.177 Q68.276 -33.652 68.325 -34.244 Q68.375 -34.835 68.375 -35.427 Q68.442 -37.28 68.013 -39.242 Q67.584 -41.204 66.992 -43.176 L74.248 -49.587 L73.072 -51.542 L63.769 -48.471 Q61.195 -51.696 57.796 -53.704 Q54.398 -55.712 50.376 -56.233 L48.545 -65.842 H45.981 L44.36 -56.387 Q40.217 -55.654 36.703 -53.604 Q33.189 -51.554 30.668 -48.429 L21.552 -51.542 L20.346 -49.587 L27.435 -43.146 Q26.788 -40.976 26.415 -39.08 Q26.041 -37.185 26.041 -35.369 Q26.041 -33.472 26.365 -31.493 Q26.689 -29.514 27.336 -27.357 L20.346 -21.015 L21.453 -19.059 L30.6 -22.117 Q33.251 -19.111 36.715 -17.205 Q40.179 -15.299 44.081 -14.356 V6.578 H36.641 Z"/></g><g id="Medium-S" transform="matrix(1 0 0 1 1701.85 696)"><path d="M62.446 6.128 Q57.818 6.128 54.946 3.256 Q52.074 0.383 52.074 -4.245 V-15.39 Q52.074 -20.018 54.946 -22.89 Q57.818 -25.762 62.446 -25.762 H83.872 Q88.5 -25.762 91.372 -22.89 Q94.245 -20.018 94.245 -15.39 V-4.245 Q94.245 0.383 91.372 3.256 Q88.5 6.128 83.872 6.128 H62.446 Z M62.446 -4.245 H83.872 Q83.872 -4.245 83.872 -4.245 Q83.872 -4.245 83.872 -4.245 V-15.39 Q83.872 -15.39 83.872 -15.39 Q83.872 -15.39 83.872 -15.39 H62.446 Q62.446 -15.39 62.446 -15.39 Q62.446 -15.39 62.446 -15.39 V-4.245 Q62.446 -4.245 62.446 -4.245 Q62.446 -4.245 62.446 -4.245 Z M43.927 -19.07 Q38.137 -20.041 34.239 -24.63 Q30.34 -29.218 30.34 -35.403 Q30.34 -42.349 35.208 -47.217 Q40.076 -52.084 47.02 -52.084 Q53.965 -52.084 58.821 -47.227 Q63.677 -42.369 63.701 -35.427 Q63.701 -34.835 63.652 -34.244 Q63.602 -33.652 63.504 -33.06 H58.774 Q57.336 -33.06 55.907 -32.771 Q54.477 -32.481 53.256 -31.95 Q53.622 -32.735 53.829 -33.561 Q54.036 -34.389 54.036 -35.305 Q54.036 -38.259 51.988 -40.327 Q49.94 -42.395 47.016 -42.395 Q44.091 -42.395 42.06 -40.407 Q40.029 -38.419 40.029 -35.449 Q40.029 -32.406 42.173 -30.315 Q44.317 -28.224 47.276 -28.341 Q47.492 -28.341 47.636 -28.353 Q47.78 -28.365 47.949 -28.412 Q46.253 -26.637 45.198 -24.197 Q44.144 -21.757 43.927 -19.07 Z M37.123 6.128  34.733 -5.947 Q33.141 -6.691 31.498 -7.566 Q29.855 -8.44 28.428 -9.657 L16.573 -5.641 L6.432 -23.733 L15.45 -31.694 Q15.351 -32.596 15.264 -33.532 Q15.177 -34.467 15.177 -35.442 Q15.177 -36.417 15.264 -37.319 Q15.351 -38.22 15.45 -39.089 L6.432 -46.999 L16.573 -64.871 L28.128 -60.954 Q29.608 -62.153 31.342 -63.063 Q33.076 -63.972 34.831 -64.79 L37.123 -76.762 H57.557 L59.849 -64.715 Q61.539 -63.901 63.327 -62.984 Q65.116 -62.067 66.599 -60.856 L78.107 -64.772 L88.248 -46.9 L79.033 -38.939 Q79.132 -38.028 79.23 -37.176 Q79.329 -36.324 79.329 -35.427 Q79.329 -34.835 79.28 -34.244 Q79.23 -33.652 79.132 -33.06 H68.731 Q68.829 -33.652 68.879 -34.244 Q68.928 -34.835 68.928 -35.427 Q68.956 -37.28 68.576 -39.226 Q68.195 -41.171 67.603 -43.144 L74.827 -49.554 L73.362 -52.088 L64.02 -49.083 Q61.452 -52.21 58.085 -54.187 Q54.719 -56.162 50.73 -56.747 L48.931 -66.389 H45.627 L43.974 -56.869 Q39.832 -56.104 36.382 -54.07 Q32.932 -52.037 30.443 -49.008 L21.294 -52.088 L19.703 -49.554 L26.856 -43.017 Q26.241 -40.848 25.884 -38.993 Q25.527 -37.138 25.527 -35.435 Q25.527 -33.632 25.835 -31.686 Q26.143 -29.74 26.757 -27.518 L19.703 -21.079 L21.195 -18.546 L30.414 -21.603 Q33.072 -18.624 36.529 -16.737 Q39.986 -14.849 43.856 -13.938 V6.128 H37.123 Z"/></g><g id="Regular-S" transform="matrix(1 0 0 1 1405.73 696)"><path d="M61.739 5.798 Q57.427 5.798 54.751 3.121 Q52.074 0.445 52.074 -3.867 V-16.097 Q52.074 -20.41 54.751 -23.085 Q57.427 -25.762 61.739 -25.762 H84.226 Q88.538 -25.762 91.214 -23.085 Q93.891 -20.41 93.891 -16.097 V-3.867 Q93.891 0.445 91.214 3.121 Q88.538 5.798 84.226 5.798 H61.739 Z M61.739 -3.867 H84.226 Q84.226 -3.867 84.226 -3.867 Q84.226 -3.867 84.226 -3.867 V-16.097 Q84.226 -16.097 84.226 -16.097 Q84.226 -16.097 84.226 -16.097 H61.739 Q61.739 -16.097 61.739 -16.097 Q61.739 -16.097 61.739 -16.097 V-3.867 Q61.739 -3.867 61.739 -3.867 Q61.739 -3.867 61.739 -3.867 Z M43.691 -18.858 Q37.882 -19.916 33.981 -24.549 Q30.081 -29.183 30.081 -35.427 Q30.081 -42.489 35.032 -47.44 Q39.983 -52.391 47.044 -52.391 Q54.106 -52.391 59.057 -47.44 Q64.008 -42.489 64.008 -35.427 Q64.008 -34.835 63.958 -34.244 Q63.909 -33.652 63.81 -33.06 H58.09 Q57.005 -33.06 55.871 -32.912 Q54.737 -32.764 53.751 -32.468 Q54.047 -33.159 54.194 -33.856 Q54.342 -34.553 54.342 -35.351 Q54.342 -38.426 52.211 -40.575 Q50.081 -42.725 47.033 -42.725 Q43.987 -42.725 41.866 -40.654 Q39.746 -38.583 39.746 -35.496 Q39.746 -32.43 41.866 -30.28 Q43.987 -28.129 46.946 -28.129 Q47.044 -28.129 47.093 -28.129 Q47.143 -28.129 47.241 -28.129 Q45.663 -26.354 44.726 -23.937 Q43.79 -21.521 43.691 -18.858 Z M37.477 5.798  35.111 -6.136 Q33.434 -6.925 31.68 -7.857 Q29.927 -8.79 28.404 -10.081 L16.668 -6.136 L6.904 -23.592 L15.78 -31.482 Q15.681 -32.459 15.583 -33.45 Q15.484 -34.441 15.484 -35.48 Q15.484 -36.518 15.583 -37.475 Q15.681 -38.432 15.78 -39.372 L6.904 -47.164 L16.668 -64.423 L28.01 -60.577 Q29.588 -61.859 31.461 -62.845 Q33.335 -63.831 35.209 -64.719 L37.477 -76.455 H57.203 L59.471 -64.62 Q61.246 -63.733 63.169 -62.746 Q65.093 -61.76 66.671 -60.478 L78.012 -64.324 L87.776 -47.065 L78.703 -39.175 Q78.801 -38.189 78.9 -37.293 Q78.999 -36.399 78.999 -35.427 Q78.999 -34.835 78.949 -34.244 Q78.9 -33.652 78.801 -33.06 H69.136 Q69.235 -33.652 69.284 -34.244 Q69.333 -34.835 69.333 -35.427 Q69.333 -37.28 68.988 -39.214 Q68.643 -41.147 68.051 -43.12 L75.251 -49.531 L73.574 -52.489 L64.205 -49.531 Q61.641 -52.588 58.298 -54.54 Q54.955 -56.493 50.989 -57.125 L49.214 -66.79 H45.367 L43.691 -57.223 Q39.549 -56.434 36.146 -54.413 Q32.744 -52.391 30.278 -49.432 L21.106 -52.489 L19.232 -49.531 L26.431 -42.923 Q25.84 -40.753 25.495 -38.928 Q25.149 -37.104 25.149 -35.484 Q25.149 -33.751 25.445 -31.827 Q25.741 -29.904 26.333 -27.636 L19.232 -21.127 L21.007 -18.168 L30.278 -21.225 Q32.941 -18.266 36.393 -16.393 Q39.845 -14.519 43.691 -13.631 V5.798 H37.477 Z"/></g><g id="Light-S" transform="matrix(1 0 0 1 1109.75 696)"><path d="M60.981 3.826 Q56.933 3.826 54.504 1.395 Q52.074 -1.035 52.074 -5.081 V-16.855 Q52.074 -20.903 54.504 -23.332 Q56.933 -25.762 60.981 -25.762 H83.012 Q87.058 -25.762 89.488 -23.332 Q91.919 -20.903 91.919 -16.855 V-5.081 Q91.919 -1.035 89.488 1.395 Q87.058 3.826 83.012 3.826 H60.981 Z M60.981 -3.867 H83.012 Q83.543 -3.867 83.885 -4.208 Q84.226 -4.55 84.226 -5.081 V-16.855 Q84.226 -17.387 83.885 -17.728 Q83.543 -18.069 83.012 -18.069 H60.981 Q60.449 -18.069 60.108 -17.728 Q59.767 -17.387 59.767 -16.855 V-5.081 Q59.767 -4.55 60.108 -4.208 Q60.449 -3.867 60.981 -3.867 Z M43.88 -20.831 Q38.792 -21.736 35.347 -25.839 Q31.901 -29.942 31.901 -35.427 Q31.901 -41.692 36.264 -46.055 Q40.628 -50.418 46.892 -50.418 Q53.081 -50.418 57.425 -46.131 Q61.77 -41.844 61.883 -35.693 Q61.883 -35.101 61.834 -34.509 Q61.785 -33.917 61.686 -33.326 H57.559 Q56.588 -33.288 55.567 -33.159 Q54.548 -33.03 53.637 -32.772 Q53.933 -33.387 54.081 -34.027 Q54.229 -34.667 54.229 -35.39 Q54.19 -38.426 52.04 -40.575 Q49.89 -42.725 46.881 -42.725 Q43.835 -42.725 41.714 -40.654 Q39.594 -38.583 39.594 -35.496 Q39.594 -32.468 41.677 -30.317 Q43.759 -28.166 46.604 -28.129 Q46.703 -28.129 46.752 -28.129 Q46.802 -28.129 46.9 -28.129 Q45.626 -26.771 44.84 -24.848 Q44.055 -22.925 43.88 -20.831 Z M39.222 3.826  36.931 -7.502 Q34.952 -8.328 32.667 -9.526 Q30.382 -10.725 28.632 -12.318 L17.502 -8.601 L9.484 -23.099 L17.828 -30.572 Q17.692 -31.738 17.537 -32.975 Q17.381 -34.213 17.381 -35.441 Q17.381 -36.631 17.537 -37.817 Q17.692 -39.001 17.828 -40.283 L9.484 -47.657 L17.502 -61.881 L28.199 -58.3 Q30.119 -59.924 32.429 -61.157 Q34.739 -62.389 36.992 -63.353 L39.222 -74.483 H55.458 L57.65 -63.217 Q59.919 -62.177 62.145 -61.02 Q64.372 -59.864 66.329 -58.202 L77.178 -61.783 L85.196 -47.558 L76.502 -39.972 Q76.714 -38.72 76.833 -37.635 Q76.95 -36.551 76.95 -35.427 Q76.95 -34.835 76.901 -34.244 Q76.852 -33.652 76.753 -33.06 H68.984 Q69.083 -33.652 69.132 -34.244 Q69.181 -34.835 69.181 -35.427 Q69.22 -37.204 68.875 -39.081 Q68.53 -40.958 67.938 -43.007 L75.288 -49.531 L73.574 -52.489 L64.053 -49.493 Q61.678 -52.399 58.184 -54.445 Q54.69 -56.493 50.952 -57.011 L49.214 -66.79 H45.33 L43.728 -57.147 Q39.625 -56.434 36.279 -54.47 Q32.933 -52.504 30.315 -49.395 L21.106 -52.489 L19.194 -49.531 L26.431 -42.885 Q25.84 -40.79 25.495 -38.928 Q25.149 -37.066 25.149 -35.446 Q25.149 -33.751 25.445 -31.827 Q25.741 -29.904 26.295 -27.673 L19.194 -21.127 L21.007 -18.168 L30.278 -21.225 Q32.941 -18.304 36.411 -16.487 Q39.882 -14.671 43.691 -13.669 V3.826 H39.222 Z"/></g><g id="Thin-S" transform="matrix(1 0 0 1 814.015 696)"><path d="M60.222 1.853 Q56.441 1.853 54.258 -0.331 Q52.074 -2.513 52.074 -6.295 V-17.614 Q52.074 -21.395 54.258 -23.578 Q56.441 -25.762 60.222 -25.762 H81.798 Q85.58 -25.762 87.762 -23.578 Q89.946 -21.395 89.946 -17.614 V-6.295 Q89.946 -2.513 87.762 -0.331 Q85.58 1.853 81.798 1.853 H60.222 Z M60.222 -3.867 H81.798 Q82.86 -3.867 83.543 -4.55 Q84.226 -5.233 84.226 -6.295 V-17.614 Q84.226 -18.676 83.543 -19.359 Q82.86 -20.042 81.798 -20.042 H60.222 Q59.16 -20.042 58.477 -19.359 Q57.794 -18.676 57.794 -17.614 V-6.295 Q57.794 -5.233 58.477 -4.55 Q59.16 -3.867 60.222 -3.867 Z M44.071 -22.803 Q39.702 -23.557 36.712 -27.129 Q33.722 -30.7 33.722 -35.427 Q33.722 -40.896 37.497 -44.67 Q41.273 -48.446 46.74 -48.446 Q52.057 -48.446 55.794 -44.822 Q59.532 -41.199 59.759 -35.958 Q59.759 -35.366 59.71 -34.774 Q59.66 -34.183 59.562 -33.591 H57.028 Q56.171 -33.516 55.265 -33.405 Q54.357 -33.295 53.523 -33.075 Q53.819 -33.615 53.967 -34.197 Q54.115 -34.781 54.115 -35.427 Q54.039 -38.426 51.87 -40.575 Q49.701 -42.725 46.73 -42.725 Q43.683 -42.725 41.563 -40.654 Q39.442 -38.583 39.442 -35.496 Q39.442 -32.506 41.487 -30.355 Q43.531 -28.205 46.263 -28.129 Q46.362 -28.129 46.411 -28.129 Q46.46 -28.129 46.559 -28.129 Q45.587 -27.188 44.954 -25.758 Q44.32 -24.328 44.071 -22.803 Z M40.967 1.853  38.752 -8.867 Q36.469 -9.731 33.653 -11.195 Q30.837 -12.659 28.86 -14.556 L18.336 -11.067 L12.063 -22.606 L19.877 -29.662 Q19.702 -31.017 19.49 -32.501 Q19.277 -33.985 19.277 -35.404 Q19.277 -36.746 19.49 -38.158 Q19.702 -39.57 19.877 -41.193 L12.063 -48.15 L18.336 -59.34 L28.389 -56.025 Q30.65 -57.99 33.396 -59.469 Q36.142 -60.948 38.774 -61.988 L40.967 -72.51 H53.713 L55.83 -61.813 Q58.591 -60.622 61.121 -59.294 Q63.651 -57.967 65.988 -55.926 L76.344 -59.241 L82.617 -48.051 L74.302 -40.768 Q74.629 -39.251 74.766 -37.977 Q74.902 -36.702 74.902 -35.427 Q74.902 -34.835 74.852 -34.244 Q74.803 -33.652 74.704 -33.06 H68.832 Q68.931 -33.652 68.98 -34.244 Q69.03 -34.835 69.03 -35.427 Q69.106 -37.129 68.76 -38.948 Q68.415 -40.768 67.823 -42.892 L75.327 -49.531 L73.574 -52.489 L63.901 -49.455 Q61.717 -52.208 58.07 -54.35 Q54.424 -56.493 50.913 -56.897 L49.214 -66.79 H45.292 L43.767 -57.071 Q39.701 -56.434 36.411 -54.526 Q33.123 -52.619 30.354 -49.356 L21.106 -52.489 L19.156 -49.531 L26.431 -42.847 Q25.84 -40.829 25.495 -38.928 Q25.149 -37.028 25.149 -35.409 Q25.149 -33.751 25.445 -31.827 Q25.741 -29.904 26.257 -27.712 L19.156 -21.127 L21.007 -18.168 L30.278 -21.225 Q32.941 -18.342 36.43 -16.582 Q39.92 -14.823 43.691 -13.707 V1.853 H40.967 Z"/></g><g id="Ultralight-S" transform="matrix(1 0 0 1 517.792 696)"><path d="M59.767 0.67 Q56.145 0.67 54.11 -1.366 Q52.074 -3.401 52.074 -7.023 V-18.069 Q52.074 -21.692 54.11 -23.726 Q56.145 -25.762 59.767 -25.762 H81.07 Q84.691 -25.762 86.727 -23.726 Q88.763 -21.692 88.763 -18.069 V-7.023 Q88.763 -3.401 86.727 -1.366 Q84.691 0.67 81.07 0.67 H59.767 Z M59.767 -3.867 H81.07 Q82.451 -3.867 83.338 -4.755 Q84.226 -5.642 84.226 -7.023 V-18.069 Q84.226 -19.45 83.338 -20.338 Q82.451 -21.225 81.07 -21.225 H59.767 Q58.386 -21.225 57.498 -20.338 Q56.611 -19.45 56.611 -18.069 V-7.023 Q56.611 -5.642 57.498 -4.755 Q58.386 -3.867 59.767 -3.867 Z M44.184 -23.987 Q40.249 -24.65 37.532 -27.902 Q34.815 -31.156 34.815 -35.427 Q34.815 -40.418 38.237 -43.84 Q41.659 -47.262 46.65 -47.262 Q51.443 -47.262 54.816 -44.037 Q58.189 -40.812 58.485 -36.118 Q58.485 -35.526 58.435 -34.934 Q58.386 -34.342 58.287 -33.751 H56.709 Q55.92 -33.652 55.082 -33.553 Q54.244 -33.455 53.455 -33.257 Q53.751 -33.751 53.899 -34.3 Q54.047 -34.849 54.047 -35.45 Q53.948 -38.426 51.767 -40.575 Q49.588 -42.725 46.639 -42.725 Q43.592 -42.725 41.472 -40.654 Q39.351 -38.583 39.351 -35.496 Q39.351 -32.529 41.373 -30.379 Q43.395 -28.228 46.058 -28.129 Q46.157 -28.129 46.206 -28.129 Q46.255 -28.129 46.354 -28.129 Q45.565 -27.439 45.022 -26.304 Q44.48 -25.17 44.184 -23.987 Z M42.014 0.67  39.845 -9.686 Q37.379 -10.574 34.245 -12.196 Q31.11 -13.819 28.996 -15.899 L18.837 -12.546 L13.61 -22.31 L21.106 -29.115 Q20.909 -30.585 20.662 -32.217 Q20.415 -33.849 20.415 -35.381 Q20.415 -36.814 20.662 -38.362 Q20.909 -39.912 21.106 -41.739 L13.61 -48.446 L18.837 -57.815 L28.503 -54.659 Q30.968 -56.829 33.976 -58.456 Q36.984 -60.083 39.845 -61.168 L42.014 -71.327 H52.666 L54.737 -60.971 Q57.794 -59.689 60.506 -58.259 Q63.219 -56.829 65.783 -54.56 L75.843 -57.716 L81.07 -48.347 L72.983 -41.246 Q73.377 -39.569 73.525 -38.181 Q73.673 -36.793 73.673 -35.427 Q73.673 -34.835 73.624 -34.244 Q73.574 -33.652 73.476 -33.06 H68.742 Q68.84 -33.652 68.89 -34.244 Q68.939 -34.835 68.939 -35.427 Q69.038 -37.083 68.692 -38.869 Q68.347 -40.654 67.755 -42.824 L75.35 -49.531 L73.574 -52.489 L63.81 -49.432 Q61.739 -52.095 58.002 -54.293 Q54.264 -56.493 50.891 -56.829 L49.214 -66.79 H45.269 L43.79 -57.026 Q39.746 -56.434 36.491 -54.56 Q33.237 -52.687 30.377 -49.333 L21.106 -52.489 L19.133 -49.531 L26.431 -42.824 Q25.84 -40.852 25.495 -38.928 Q25.149 -37.005 25.149 -35.386 Q25.149 -33.751 25.445 -31.827 Q25.741 -29.904 26.234 -27.734 L19.133 -21.127 L21.007 -18.168 L30.278 -21.225 Q32.941 -18.365 36.442 -16.639 Q39.943 -14.913 43.691 -13.73 V0.67 H42.014 Z"/></g></g></svg>