<svg xmlns="http://www.w3.org/2000/svg" version="1.1" width="3300" height="2000"><g id="Notes"><style>
    text {
      font-family: monospace;
      text-anchor: middle;
    }
    text.emphasis {
      font-weight:bold;
    }
    text.lanchor {
      text-anchor: start;
    }
  </style><rect height="2200" id="artboard" fill="white" width="3300" x="0" y="0"/><line id="" style="fill:none;stroke:black;stroke-width:0.5;" x1="263" x2="3036" y1="292" y2="292"/><text class="lanchor emphasis" transform="matrix(1 0 0 1 263 322)">Weight/Scale Variations</text><text transform="matrix(1 0 0 1 559.711 322)">Ultralight</text><text transform="matrix(1 0 0 1 856.422 322)">Thin</text><text transform="matrix(1 0 0 1 1153.13 322)">Light</text><text transform="matrix(1 0 0 1 1449.84 322)">Regular</text><text transform="matrix(1 0 0 1 1746.56 322)">Medium</text><text transform="matrix(1 0 0 1 2043.27 322)">Semibold</text><text transform="matrix(1 0 0 1 2339.98 322)">Bold</text><text transform="matrix(1 0 0 1 2636.69 322)">Heavy</text><text transform="matrix(1 0 0 1 2933.4 322)">Black</text><text id="template-version" style="text-anchor: end;" transform="matrix(1 0 0 1 3036 1933)">Template v.1.0</text><text class="lanchor" transform="matrix(1 0 0 1 263 726)">Small</text><text class="lanchor" transform="matrix(1 0 0 1 263 1156)">Medium</text><text class="lanchor" transform="matrix(1 0 0 1 263 1586)">Large</text></g><g id="Guides"><g id="H-reference" style="fill:#27AAE1;stroke:none;" transform="matrix(1 0 0 1 339 696)"><path d="M 54.9316 0 L 57.666 0 L 30.5664 -70.459 L 28.0762 -70.459 L 0.976562 0 L 3.66211 0 L 12.9395 -24.4629 L 45.7031 -24.4629 Z M 29.1992 -67.0898 L 29.4434 -67.0898 L 44.8242 -26.709 L 13.8184 -26.709 Z"/></g><line id="Baseline-S" style="fill:none;stroke:#27AAE1;opacity:1;stroke-width:0.577;" x1="263" x2="3036" y1="696" y2="696"/><line id="Capline-S" style="fill:none;stroke:#27AAE1;opacity:1;stroke-width:0.577;" x1="263" x2="3036" y1="625.541" y2="625.541"/><g id="H-reference" style="fill:#27AAE1;stroke:none;" transform="matrix(1 0 0 1 339 1126)"><path d="M 54.9316 0 L 57.666 0 L 30.5664 -70.459 L 28.0762 -70.459 L 0.976562 0 L 3.66211 0 L 12.9395 -24.4629 L 45.7031 -24.4629 Z M 29.1992 -67.0898 L 29.4434 -67.0898 L 44.8242 -26.709 L 13.8184 -26.709 Z"/></g><line id="Baseline-M" style="fill:none;stroke:#27AAE1;opacity:1;stroke-width:0.577;" x1="263" x2="3036" y1="1126" y2="1126"/><line id="Capline-M" style="fill:none;stroke:#27AAE1;opacity:1;stroke-width:0.577;" x1="263" x2="3036" y1="1055.54" y2="1055.54"/><g id="H-reference" style="fill:#27AAE1;stroke:none;" transform="matrix(1 0 0 1 339 1556)"><path d="M 54.9316 0 L 57.666 0 L 30.5664 -70.459 L 28.0762 -70.459 L 0.976562 0 L 3.66211 0 L 12.9395 -24.4629 L 45.7031 -24.4629 Z M 29.1992 -67.0898 L 29.4434 -67.0898 L 44.8242 -26.709 L 13.8184 -26.709 Z"/></g><line id="Baseline-L" style="fill:none;stroke:#27AAE1;opacity:1;stroke-width:0.577;" x1="263" x2="3036" y1="1556" y2="1556"/><line id="Capline-L" style="fill:none;stroke:#27AAE1;opacity:1;stroke-width:0.577;" x1="263" x2="3036" y1="1485.54" y2="1485.54"/><rect height="119.336" id="left-margin" style="fill:darkred;stroke:none;opacity:0.4;" width="12.4512" x="1394.06" y="1030.79"/><rect height="119.336" id="right-margin" style="fill:darkgreen;stroke:none;opacity:0.4;" width="12.4512" x="1502.5112" y="1030.79"/><rect x="1406.5112" y="1045" width="96" height="96" fill="none" stroke="blue" stroke-dasharray="5"/><rect x="1394.06" y="1030.79" width="120.9024" height="119.336" fill="none" stroke="blue"/></g><g id="Symbols"><g id="Bold-L" transform="matrix(1 0 0 1 2266 1556)"><path d="M98.685 32.656 Q92.624 32.656 88.238 28.317 Q83.85 23.976 83.85 17.983 V-7.656 Q83.85 -13.482 88.238 -17.905 Q92.624 -22.33 98.685 -22.33 H137.708 Q143.533 -22.33 147.957 -17.905 Q152.381 -13.482 152.381 -7.656 V17.983 Q152.381 23.976 147.957 28.317 Q143.533 32.656 137.708 32.656 H98.685 Z M98.685 17.983 H137.708 Q137.708 17.983 137.708 17.983 Q137.708 17.983 137.708 17.983 V-7.656 Q137.708 -7.656 137.708 -7.656 Q137.708 -7.656 137.708 -7.656 H98.685 Q98.685 -7.656 98.685 -7.656 Q98.685 -7.656 98.685 -7.656 V17.983 Q98.685 17.983 98.685 17.983 Q98.685 17.983 98.685 17.983 Z M59.422 32.656  56.115 11.21 Q53.79 10.547 51.113 8.936 Q48.436 7.325 46.601 5.889 L26.606 15.08 L8.385 -17.17 L26.606 -30.392 Q26.445 -31.339 26.445 -32.724 Q26.445 -34.109 26.445 -35.296 Q26.445 -36.162 26.445 -37.547 Q26.445 -38.932 26.606 -40.067 L8.385 -53.612 L26.606 -85.54 L46.964 -76.349 Q48.519 -77.55 51.268 -79.127 Q54.019 -80.702 56.115 -81.347 L59.498 -103.277 H95.46 L98.685 -81.509 Q101.139 -80.881 103.782 -79.259 Q106.425 -77.639 108.199 -76.349 L128.516 -85.54 L146.576 -53.612 L128.032 -40.551 Q128.032 -39.584 128.274 -37.891 Q128.516 -36.197 128.516 -35.552 H97.556 Q97.556 -35.552 97.556 -35.552 Q97.556 -35.552 97.556 -35.552 Q97.395 -43.712 91.429 -49.71 Q85.464 -55.709 77.239 -55.709 Q68.557 -55.709 62.659 -49.734 Q56.76 -43.762 56.76 -35.249 Q56.76 -28.625 60.638 -23.189 Q64.516 -17.752 70.466 -15.953 V32.656 H59.422 Z"/></g><g id="Semibold-L" transform="matrix(1 0 0 1 1970.27 1556)"><path d="M97.353 32.306 Q91.914 32.306 87.881 28.301 Q83.85 24.295 83.85 18.894 V-8.919 Q83.85 -14.224 87.881 -18.278 Q91.914 -22.33 97.353 -22.33 H138.619 Q143.925 -22.33 147.978 -18.278 Q152.031 -14.224 152.031 -8.919 V18.894 Q152.031 24.295 147.978 28.301 Q143.925 32.306 138.619 32.306 H97.353 Z M97.353 18.894 H138.619 Q138.619 18.894 138.619 18.894 Q138.619 18.894 138.619 18.894 V-8.919 Q138.619 -8.919 138.619 -8.919 Q138.619 -8.919 138.619 -8.919 H97.353 Q97.353 -8.919 97.353 -8.919 Q97.353 -8.919 97.353 -8.919 V18.894 Q97.353 18.894 97.353 18.894 Q97.353 18.894 97.353 18.894 Z M60.017 32.306  56.676 11.07 Q54.24 10.275 51.376 8.596 Q48.51 6.918 46.461 5.328 L26.606 14.379 L9.015 -16.889 L26.956 -30.043 Q26.795 -30.997 26.761 -32.587 Q26.726 -34.175 26.726 -35.407 Q26.726 -36.318 26.761 -37.871 Q26.795 -39.426 26.956 -40.629 L9.015 -53.893 L26.606 -84.91 L46.525 -75.859 Q48.386 -77.308 51.342 -79.006 Q54.299 -80.702 56.676 -81.488 L60.061 -102.928 H94.899 L98.124 -81.578 Q100.704 -80.802 103.634 -79.08 Q106.565 -77.358 108.479 -75.859 L128.447 -84.91 L145.946 -53.893 L127.683 -40.972 Q127.683 -39.864 127.889 -38.136 Q128.095 -36.407 128.095 -35.552 H98.679 Q98.679 -35.552 98.679 -35.552 Q98.679 -35.552 98.679 -35.552 Q98.587 -44.342 92.306 -50.657 Q86.024 -56.971 77.239 -56.971 Q68.125 -56.971 61.847 -50.65 Q55.568 -44.329 55.568 -35.311 Q55.568 -28.275 59.622 -22.664 Q63.676 -17.051 69.976 -15.009 V32.306 H60.017 Z"/></g><g id="Medium-L" transform="matrix(1 0 0 1 1674.31 1556)"><path d="M96.353 32.044 Q91.38 32.044 87.615 28.29 Q83.85 24.536 83.85 19.577 V-9.865 Q83.85 -14.782 87.615 -18.557 Q91.38 -22.33 96.353 -22.33 H139.302 Q144.22 -22.33 147.994 -18.557 Q151.769 -14.782 151.769 -9.865 V19.577 Q151.769 24.536 147.994 28.29 Q144.22 32.044 139.302 32.044 H96.353 Z M96.353 19.577 H139.302 Q139.302 19.577 139.302 19.577 Q139.302 19.577 139.302 19.577 V-9.865 Q139.302 -9.865 139.302 -9.865 Q139.302 -9.865 139.302 -9.865 H96.353 Q96.353 -9.865 96.353 -9.865 Q96.353 -9.865 96.353 -9.865 V19.577 Q96.353 19.577 96.353 19.577 Q96.353 19.577 96.353 19.577 Z M60.464 32.044  57.097 10.965 Q54.578 10.07 51.573 8.341 Q48.567 6.611 46.356 4.907 L26.606 13.853 L9.49 -16.68 L27.219 -29.78 Q27.058 -30.741 26.996 -32.484 Q26.935 -34.225 26.935 -35.491 Q26.935 -36.435 26.996 -38.115 Q27.058 -39.797 27.219 -41.05 L9.49 -54.103 L26.606 -84.435 L46.198 -75.489 Q48.286 -77.128 51.398 -78.914 Q54.509 -80.702 57.097 -81.593 L60.482 -102.665 H94.478 L97.703 -81.631 Q100.377 -80.744 103.523 -78.946 Q106.67 -77.149 108.689 -75.489 L128.394 -84.435 L145.472 -54.103 L127.42 -41.288 Q127.42 -40.074 127.6 -38.32 Q127.779 -36.565 127.779 -35.552 H99.519 Q99.519 -35.552 99.519 -35.552 Q99.519 -35.552 99.519 -35.552 Q99.48 -44.816 92.962 -51.366 Q86.445 -57.918 77.239 -57.918 Q67.801 -57.918 61.238 -51.336 Q54.675 -44.755 54.675 -35.357 Q54.675 -28.012 58.859 -22.269 Q63.044 -16.525 69.607 -14.303 V32.044 H60.464 Z"/></g><g id="Regular-L" transform="matrix(1 0 0 1 1378.56 1556)"><path d="M95.621 31.85 Q90.99 31.85 87.42 28.28 Q83.85 24.71 83.85 20.079 V-10.559 Q83.85 -15.191 87.42 -18.76 Q90.99 -22.33 95.621 -22.33 H139.804 Q144.435 -22.33 148.005 -18.76 Q151.575 -15.191 151.575 -10.559 V20.079 Q151.575 24.71 148.005 28.28 Q144.435 31.85 139.804 31.85 H95.621 Z M95.621 20.079 H139.804 Q139.804 20.079 139.804 20.079 Q139.804 20.079 139.804 20.079 V-10.559 Q139.804 -10.559 139.804 -10.559 Q139.804 -10.559 139.804 -10.559 H95.621 Q95.621 -10.559 95.621 -10.559 Q95.621 -10.559 95.621 -10.559 V20.079 Q95.621 20.079 95.621 20.079 Q95.621 20.079 95.621 20.079 Z M60.791 31.85  57.405 10.888 Q54.825 9.92 51.716 8.154 Q48.607 6.387 46.279 4.599 L26.606 13.468 L9.836 -16.525 L27.413 -29.586 Q27.251 -30.554 27.171 -32.408 Q27.09 -34.262 27.09 -35.552 Q27.09 -36.52 27.171 -38.294 Q27.251 -40.067 27.413 -41.357 L9.836 -54.257 L26.606 -84.089 L45.956 -75.22 Q48.214 -76.994 51.439 -78.848 Q54.664 -80.702 57.405 -81.67 L60.791 -102.471 H94.17 L97.395 -81.67 Q100.136 -80.702 103.442 -78.848 Q106.748 -76.994 108.844 -75.22 L128.355 -84.089 L145.125 -54.257 L127.226 -41.519 Q127.226 -40.229 127.388 -38.455 Q127.549 -36.681 127.549 -35.552 H100.136 Q100.136 -35.552 100.136 -35.552 Q100.136 -35.552 100.136 -35.552 Q100.136 -45.163 93.444 -51.887 Q86.752 -58.611 77.239 -58.611 Q67.564 -58.611 60.791 -51.839 Q54.019 -45.066 54.019 -35.39 Q54.019 -27.819 58.3 -21.98 Q62.581 -16.14 69.338 -13.784 V31.85 H60.791 Z"/></g><g id="Light-L" transform="matrix(1 0 0 1 1082.77 1556)"><path d="M95.249 28.625 Q90.693 28.625 87.272 25.203 Q83.85 21.782 83.85 17.226 V-10.931 Q83.85 -15.487 87.272 -18.908 Q90.693 -22.33 95.249 -22.33 H136.951 Q141.507 -22.33 144.928 -18.908 Q148.35 -15.487 148.35 -10.931 V17.226 Q148.35 21.782 144.928 25.203 Q141.507 28.625 136.951 28.625 H95.249 Z M95.249 19.21 H136.951 Q137.819 19.21 138.377 18.652 Q138.935 18.094 138.935 17.226 V-10.931 Q138.935 -11.799 138.377 -12.357 Q137.819 -12.916 136.951 -12.916 H95.249 Q94.381 -12.916 93.823 -12.357 Q93.264 -11.799 93.264 -10.931 V17.226 Q93.264 18.094 93.823 18.652 Q94.381 19.21 95.249 19.21 Z M62.838 28.625  59.762 8.593 Q56.934 7.625 53.391 5.642 Q49.847 3.659 47.333 1.559 L28.653 9.933 L13.992 -16.401 L30.452 -28.717 Q30.291 -29.933 30.147 -31.944 Q30.005 -33.953 30.005 -35.491 Q30.005 -36.644 30.147 -38.573 Q30.291 -40.501 30.452 -42.227 L13.992 -54.443 L28.653 -80.43 L46.948 -72.18 Q49.578 -74.265 53.114 -76.305 Q56.649 -78.345 59.7 -79.375 L62.838 -99.246 H92.124 L95.038 -79.313 Q98.275 -78.16 101.675 -76.212 Q105.072 -74.265 107.604 -72.18 L126.37 -80.43 L140.97 -54.443 L123.938 -42.14 Q124.125 -40.538 124.287 -38.673 Q124.448 -36.805 124.448 -35.491 H97.16 Q97.16 -35.491 97.16 -35.522 Q97.16 -35.552 97.16 -35.552 Q97.16 -44.004 91.243 -49.912 Q85.325 -55.82 76.995 -55.82 Q68.562 -55.82 62.592 -49.884 Q56.625 -43.95 56.625 -35.453 Q56.625 -28.936 60.222 -23.872 Q63.821 -18.807 69.523 -16.699 V28.625 H62.838 Z"/></g><g id="Thin-L" transform="matrix(1 0 0 1 787.282 1556)"><path d="M94.876 25.4 Q90.397 25.4 87.123 22.127 Q83.85 18.853 83.85 14.374 V-11.304 Q83.85 -15.783 87.123 -19.057 Q90.397 -22.33 94.876 -22.33 H134.099 Q138.578 -22.33 141.852 -19.057 Q145.125 -15.783 145.125 -11.304 V14.374 Q145.125 18.853 141.852 22.127 Q138.578 25.4 134.099 25.4 H94.876 Z M94.876 18.342 H134.099 Q135.834 18.342 136.951 17.226 Q138.067 16.109 138.067 14.374 V-11.304 Q138.067 -13.039 136.951 -14.156 Q135.834 -15.272 134.099 -15.272 H94.876 Q93.141 -15.272 92.024 -14.156 Q90.908 -13.039 90.908 -11.304 V14.374 Q90.908 16.109 92.024 17.226 Q93.141 18.342 94.876 18.342 Z M64.884 25.4  62.118 6.298 Q59.042 5.331 55.065 3.13 Q51.089 0.929 48.388 -1.479 L30.699 6.397 L18.147 -16.277 L33.49 -27.85 Q33.329 -29.314 33.124 -31.478 Q32.919 -33.642 32.919 -35.428 Q32.919 -36.768 33.124 -38.852 Q33.329 -40.935 33.49 -43.094 L18.147 -54.63 L30.699 -76.771 L47.941 -69.142 Q50.942 -71.535 54.788 -73.762 Q58.634 -75.989 61.994 -77.081 L64.884 -96.021 H90.077 L92.682 -76.957 Q96.415 -75.617 99.907 -73.577 Q103.398 -71.535 106.364 -69.142 L124.385 -76.771 L136.814 -54.63 L120.652 -42.759 Q121.025 -40.85 121.186 -38.889 Q121.347 -36.93 121.347 -35.428 H94.183 Q94.183 -35.428 94.183 -35.491 Q94.183 -35.552 94.183 -35.552 Q94.183 -42.846 89.041 -47.938 Q83.9 -53.029 76.752 -53.029 Q69.56 -53.029 64.394 -47.932 Q59.229 -42.833 59.229 -35.514 Q59.229 -30.052 62.146 -25.763 Q65.063 -21.474 69.71 -19.613 V25.4 H64.884 Z"/></g><g id="Ultralight-L" transform="matrix(1 0 0 1 491.205 1556)"><path d="M94.654 23.465 Q90.219 23.465 87.035 20.28 Q83.85 17.096 83.85 12.661 V-11.526 Q83.85 -15.961 87.035 -19.145 Q90.219 -22.33 94.654 -22.33 H132.386 Q136.821 -22.33 140.005 -19.145 Q143.19 -15.961 143.19 -11.526 V12.661 Q143.19 17.096 140.005 20.28 Q136.821 23.465 132.386 23.465 H94.654 Z M94.654 17.821 H132.386 Q134.644 17.821 136.095 16.37 Q137.546 14.919 137.546 12.661 V-11.526 Q137.546 -13.784 136.095 -15.235 Q134.644 -16.686 132.386 -16.686 H94.654 Q92.396 -16.686 90.945 -15.235 Q89.494 -13.784 89.494 -11.526 V12.661 Q89.494 14.919 90.945 16.37 Q92.396 17.821 94.654 17.821 Z M66.112 23.465  63.532 4.921 Q60.308 3.954 56.07 1.624 Q51.832 -0.708 49.02 -3.302 L31.928 4.276 L20.64 -16.202 L35.314 -27.329 Q35.153 -28.941 34.911 -31.199 Q34.669 -33.456 34.669 -35.391 Q34.669 -36.842 34.911 -39.019 Q35.153 -41.196 35.314 -43.615 L20.64 -54.741 L31.928 -74.575 L48.536 -67.319 Q51.761 -69.899 55.793 -72.237 Q59.824 -74.575 63.371 -75.704 L66.112 -94.086 H88.849 L91.267 -75.542 Q95.299 -74.091 98.846 -71.995 Q102.394 -69.899 105.619 -67.319 L123.195 -74.575 L134.321 -54.741 L118.68 -43.131 Q119.164 -41.035 119.325 -39.019 Q119.486 -37.004 119.486 -35.391 H92.396 Q92.396 -35.391 92.396 -35.472 Q92.396 -35.552 92.396 -35.552 Q92.396 -42.149 87.72 -46.753 Q83.044 -51.355 76.605 -51.355 Q70.158 -51.355 65.476 -46.759 Q60.791 -42.164 60.791 -35.551 Q60.791 -30.721 63.299 -26.898 Q65.806 -23.073 69.821 -21.362 V23.465 H66.112 Z"/></g><g id="Bold-M" transform="matrix(1 0 0 1 2281.8 1126)"><path d="M82 20.52 Q74.86 20.52 69.93 15.59 Q65 10.66 65 3.52 V-8.23 Q65 -15.371 69.93 -20.3 Q74.86 -25.23 82 -25.23 H104.875 Q112.016 -25.23 116.945 -20.3 Q121.875 -15.371 121.875 -8.23 V3.52 Q121.875 10.66 116.945 15.59 Q112.016 20.52 104.875 20.52 H82 Z M82 3.52 H104.875 Q104.875 3.52 104.875 3.52 Q104.875 3.52 104.875 3.52 V-8.23 Q104.875 -8.23 104.875 -8.23 Q104.875 -8.23 104.875 -8.23 H82 Q82 -8.23 82 -8.23 Q82 -8.23 82 -8.23 V3.52 Q82 3.52 82 3.52 Q82 3.52 82 3.52 Z M41.5 20.52  39.125 2.895 Q38.697 2.631 38.31 2.383 Q37.922 2.134 37.5 1.895 L20.875 8.895 L2.375 -23.73 L16.375 -34.355 Q16.375 -34.459 16.438 -34.787 Q16.5 -35.116 16.5 -35.406 Q16.5 -35.447 16.438 -35.776 Q16.375 -36.105 16.375 -36.23 L2.375 -46.855 L20.875 -79.105 L37.5 -72.355 Q37.986 -72.536 38.43 -72.759 Q38.875 -72.98 39.25 -73.23 L41.5 -91.105 H78.5 L80.75 -73.23 Q81.302 -73 81.776 -72.74 Q82.25 -72.48 82.75 -72.23 L99.125 -79.105 L117.625 -46.855 L103.375 -36.23 Q103.375 -36.355 103.375 -35.855 Q103.375 -35.355 103.375 -35.48 H78.625 Q78.625 -35.48 78.625 -35.48 Q78.625 -35.48 78.625 -35.48 Q78.5 -43.18 73.062 -48.705 Q67.626 -54.23 59.75 -54.23 Q51.895 -54.23 46.385 -48.724 Q40.875 -43.219 40.875 -35.37 Q40.875 -28.985 44.631 -23.959 Q48.388 -18.931 54.25 -17.23 V20.52 H41.5 Z"/></g><g id="Semibold-M" transform="matrix(1 0 0 1 1985.97 1126)"><path d="M80.37 19.759 Q73.957 19.759 69.479 15.28 Q65 10.803 65 4.39 V-9.86 Q65 -16.272 69.479 -20.751 Q73.957 -25.23 80.37 -25.23 H105.69 Q112.103 -25.23 116.581 -20.751 Q121.06 -16.272 121.06 -9.86 V4.39 Q121.06 10.803 116.581 15.28 Q112.103 19.759 105.69 19.759 H80.37 Z M80.37 4.39 H105.69 Q105.69 4.39 105.69 4.39 Q105.69 4.39 105.69 4.39 V-9.86 Q105.69 -9.86 105.69 -9.86 Q105.69 -9.86 105.69 -9.86 H80.37 Q80.37 -9.86 80.37 -9.86 Q80.37 -9.86 80.37 -9.86 V4.39 Q80.37 4.39 80.37 4.39 Q80.37 4.39 80.37 4.39 Z M42.315 19.759  39.995 2.46 Q39.373 2.094 38.731 1.711 Q38.089 1.329 37.446 0.916 L21.093 7.754 L3.462 -23.404 L17.136 -33.866 Q17.136 -34.034 17.171 -34.572 Q17.206 -35.111 17.206 -35.492 Q17.206 -35.625 17.171 -36.136 Q17.136 -36.649 17.136 -36.882 L3.462 -47.235 L21.093 -78.072 L37.229 -71.485 Q37.938 -71.86 38.705 -72.257 Q39.472 -72.654 40.12 -73.067 L42.315 -90.399 H77.685 L79.88 -73.012 Q80.627 -72.611 81.411 -72.192 Q82.196 -71.774 82.912 -71.36 L98.907 -78.072 L116.537 -47.235 L102.614 -36.774 Q102.614 -36.735 102.614 -36.154 Q102.614 -35.572 102.614 -35.48 H79.549 Q79.549 -35.48 79.549 -35.48 Q79.549 -35.48 79.549 -35.48 Q79.479 -43.615 73.769 -49.411 Q68.06 -55.209 59.804 -55.209 Q51.56 -55.209 45.782 -49.434 Q40.005 -43.659 40.005 -35.417 Q40.005 -28.714 43.898 -23.551 Q47.79 -18.387 53.87 -16.524 V19.759 H42.315 Z"/></g><g id="Medium-M" transform="matrix(1 0 0 1 1689.91 1126)"><path d="M79.146 19.189 Q73.28 19.189 69.14 15.049 Q65 10.908 65 5.041 V-11.084 Q65 -16.95 69.14 -21.09 Q73.28 -25.23 79.146 -25.23 H106.301 Q112.168 -25.23 116.308 -21.09 Q120.449 -16.95 120.449 -11.084 V5.041 Q120.449 10.908 116.308 15.049 Q112.168 19.189 106.301 19.189 H79.146 Z M79.146 5.041 H106.301 Q106.301 5.041 106.301 5.041 Q106.301 5.041 106.301 5.041 V-11.084 Q106.301 -11.084 106.301 -11.084 Q106.301 -11.084 106.301 -11.084 H79.146 Q79.146 -11.084 79.146 -11.084 Q79.146 -11.084 79.146 -11.084 V5.041 Q79.146 5.041 79.146 5.041 Q79.146 5.041 79.146 5.041 Z M42.926 19.189  40.646 2.134 Q39.879 1.691 39.046 1.208 Q38.214 0.724 37.405 0.183 L21.255 6.898 L4.277 -23.159 L17.706 -33.499 Q17.706 -33.714 17.721 -34.411 Q17.736 -35.107 17.736 -35.557 Q17.736 -35.757 17.721 -36.407 Q17.706 -37.056 17.706 -37.371 L4.277 -47.521 L21.255 -77.297 L37.025 -70.834 Q37.901 -71.352 38.911 -71.881 Q39.921 -72.409 40.771 -72.945 L42.926 -89.869 H77.074 L79.229 -72.85 Q80.121 -72.319 81.138 -71.781 Q82.155 -71.244 83.035 -70.709 L98.745 -77.297 L115.722 -47.521 L102.044 -37.181 Q102.044 -37.021 102.044 -36.377 Q102.044 -35.735 102.044 -35.48 H80.241 Q80.241 -35.48 80.241 -35.48 Q80.241 -35.48 80.241 -35.48 Q80.213 -43.941 74.299 -49.941 Q68.386 -55.942 59.845 -55.942 Q51.309 -55.942 45.331 -49.965 Q39.354 -43.989 39.354 -35.454 Q39.354 -28.51 43.347 -23.245 Q47.341 -17.98 53.584 -15.994 V19.189 H42.926 Z"/></g><g id="Regular-M" transform="matrix(1 0 0 1 1394.06 1126)"><path d="M78.25 18.77 Q72.785 18.77 68.892 14.878 Q65 10.985 65 5.52 V-11.98 Q65 -17.446 68.892 -21.337 Q72.785 -25.23 78.25 -25.23 H106.75 Q112.215 -25.23 116.108 -21.337 Q120 -17.446 120 -11.98 V5.52 Q120 10.985 116.108 14.878 Q112.215 18.77 106.75 18.77 H78.25 Z M78.25 5.52 H106.75 Q106.75 5.52 106.75 5.52 Q106.75 5.52 106.75 5.52 V-11.98 Q106.75 -11.98 106.75 -11.98 Q106.75 -11.98 106.75 -11.98 H78.25 Q78.25 -11.98 78.25 -11.98 Q78.25 -11.98 78.25 -11.98 V5.52 Q78.25 5.52 78.25 5.52 Q78.25 5.52 78.25 5.52 Z M43.375 18.77  41.125 1.895 Q40.25 1.395 39.278 0.839 Q38.305 0.281 37.375 -0.355 L21.375 6.27 L4.875 -22.98 L18.125 -33.23 Q18.125 -33.48 18.125 -34.292 Q18.125 -35.105 18.125 -35.605 Q18.125 -35.855 18.125 -36.605 Q18.125 -37.355 18.125 -37.73 L4.875 -47.73 L21.375 -76.73 L36.875 -70.355 Q37.875 -70.98 39.062 -71.605 Q40.25 -72.23 41.25 -72.855 L43.375 -89.48 H76.625 L78.75 -72.73 Q79.75 -72.105 80.938 -71.48 Q82.125 -70.855 83.125 -70.23 L98.625 -76.73 L115.125 -47.73 L101.625 -37.48 Q101.625 -37.23 101.625 -36.542 Q101.625 -35.855 101.625 -35.48 H80.75 Q80.75 -35.48 80.75 -35.48 Q80.75 -35.48 80.75 -35.48 Q80.75 -44.18 74.688 -50.33 Q68.625 -56.48 59.875 -56.48 Q51.125 -56.48 45 -50.355 Q38.875 -44.23 38.875 -35.479 Q38.875 -28.36 42.944 -23.021 Q47.013 -17.681 53.375 -15.605 V18.77 H43.375 Z"/></g><g id="Light-M" transform="matrix(1 0 0 1 1098.18 1126)"><path d="M77.289 16.27 Q72.159 16.27 68.58 12.69 Q65 9.11 65 3.981 V-12.941 Q65 -18.071 68.58 -21.65 Q72.159 -25.23 77.289 -25.23 H105.211 Q110.34 -25.23 113.92 -21.65 Q117.5 -18.071 117.5 -12.941 V3.981 Q117.5 9.11 113.92 12.69 Q110.34 16.27 105.211 16.27 H77.289 Z M77.289 5.52 H105.211 Q105.885 5.52 106.317 5.088 Q106.75 4.655 106.75 3.981 V-12.941 Q106.75 -13.615 106.317 -14.047 Q105.885 -14.48 105.211 -14.48 H77.289 Q76.615 -14.48 76.183 -14.047 Q75.75 -13.615 75.75 -12.941 V3.981 Q75.75 4.655 76.183 5.088 Q76.615 5.52 77.289 5.52 Z M45.586 16.27  43.432 0.164 Q42.174 -0.384 40.528 -1.277 Q38.883 -2.171 37.664 -3.191 L22.433 3.145 L8.145 -22.355 L20.721 -32.076 Q20.674 -32.566 20.601 -33.691 Q20.529 -34.816 20.529 -35.557 Q20.529 -35.999 20.601 -37.037 Q20.674 -38.076 20.721 -38.884 L8.145 -48.355 L22.433 -73.509 L37.115 -67.47 Q38.549 -68.527 40.289 -69.465 Q42.029 -70.402 43.51 -71.124 L45.586 -86.98 H74.414 L76.442 -70.951 Q78.067 -70.134 79.639 -69.292 Q81.211 -68.451 82.692 -67.345 L97.567 -73.509 L111.855 -48.355 L98.836 -38.49 Q98.98 -37.904 99.005 -36.975 Q99.029 -36.047 99.029 -35.48 H77.961 Q77.961 -35.48 77.961 -35.504 Q77.961 -35.527 77.961 -35.527 Q77.961 -43.17 72.644 -48.575 Q67.326 -53.98 59.635 -53.98 Q51.99 -53.98 46.586 -48.576 Q41.182 -43.172 41.182 -35.527 Q41.182 -29.466 44.579 -24.824 Q47.974 -20.181 53.375 -18.25 V16.27 H45.586 Z"/></g><g id="Thin-M" transform="matrix(1 0 0 1 802.565 1126)"><path d="M76.328 13.77 Q71.535 13.77 68.267 10.503 Q65 7.236 65 2.443 V-13.902 Q65 -18.695 68.267 -21.962 Q71.535 -25.23 76.328 -25.23 H103.672 Q108.466 -25.23 111.733 -21.962 Q115 -18.695 115 -13.902 V2.443 Q115 7.236 111.733 10.503 Q108.466 13.77 103.672 13.77 H76.328 Z M76.328 5.52 H103.672 Q105.019 5.52 105.885 4.655 Q106.75 3.789 106.75 2.443 V-13.902 Q106.75 -15.249 105.885 -16.115 Q105.019 -16.98 103.672 -16.98 H76.328 Q74.981 -16.98 74.115 -16.115 Q73.25 -15.249 73.25 -13.902 V2.443 Q73.25 3.789 74.115 4.655 Q74.981 5.52 76.328 5.52 Z M47.797 13.77  45.74 -1.566 Q44.096 -2.162 41.778 -3.392 Q39.459 -4.622 37.953 -6.027 L23.49 0.02 L11.414 -21.73 L23.317 -30.922 Q23.221 -31.652 23.078 -33.09 Q22.933 -34.527 22.933 -35.509 Q22.933 -36.144 23.078 -37.47 Q23.221 -38.797 23.317 -40.037 L11.414 -48.98 L23.49 -70.287 L37.356 -64.586 Q39.221 -66.076 41.515 -67.326 Q43.807 -68.576 45.769 -69.394 L47.797 -84.48 H72.203 L74.135 -69.172 Q76.385 -68.162 78.341 -67.105 Q80.297 -66.047 82.26 -64.461 L96.51 -70.287 L108.586 -48.98 L96.047 -39.499 Q96.336 -38.576 96.385 -37.407 Q96.433 -36.24 96.433 -35.48 H75.172 Q75.172 -35.48 75.172 -35.527 Q75.172 -35.576 75.172 -35.576 Q75.172 -42.161 70.601 -46.82 Q66.029 -51.48 59.394 -51.48 Q52.856 -51.48 48.172 -46.797 Q43.49 -42.115 43.49 -35.575 Q43.49 -30.571 46.212 -26.626 Q48.936 -22.681 53.375 -20.894 V13.77 H47.797 Z"/></g><g id="Ultralight-M" transform="matrix(1 0 0 1 506.415 1126)"><path d="M75.75 12.27 Q71.16 12.27 68.08 9.19 Q65 6.111 65 1.52 V-14.48 Q65 -19.071 68.08 -22.15 Q71.16 -25.23 75.75 -25.23 H102.75 Q107.34 -25.23 110.42 -22.15 Q113.5 -19.071 113.5 -14.48 V1.52 Q113.5 6.111 110.42 9.19 Q107.34 12.27 102.75 12.27 H75.75 Z M75.75 5.52 H102.75 Q104.5 5.52 105.625 4.395 Q106.75 3.27 106.75 1.52 V-14.48 Q106.75 -16.23 105.625 -17.355 Q104.5 -18.48 102.75 -18.48 H75.75 Q74 -18.48 72.875 -17.355 Q71.75 -16.23 71.75 -14.48 V1.52 Q71.75 3.27 72.875 4.395 Q74 5.52 75.75 5.52 Z M49.125 12.27  47.125 -2.605 Q45.25 -3.23 42.528 -4.661 Q39.805 -6.094 38.125 -7.73 L24.125 -1.855 L13.375 -21.355 L24.875 -30.23 Q24.75 -31.105 24.562 -32.73 Q24.375 -34.355 24.375 -35.48 Q24.375 -36.23 24.562 -37.73 Q24.75 -39.23 24.875 -40.73 L13.375 -49.355 L24.125 -68.355 L37.5 -62.855 Q39.625 -64.605 42.25 -66.042 Q44.875 -67.48 47.125 -68.355 L49.125 -82.98 H70.875 L72.75 -68.105 Q75.375 -66.98 77.562 -65.792 Q79.75 -64.605 82 -62.73 L95.875 -68.355 L106.625 -49.355 L94.375 -40.105 Q94.75 -38.98 94.812 -37.667 Q94.875 -36.355 94.875 -35.48 H73.5 Q73.5 -35.48 73.5 -35.542 Q73.5 -35.605 73.5 -35.605 Q73.5 -41.555 69.375 -45.767 Q65.25 -49.98 59.25 -49.98 Q53.375 -49.98 49.125 -45.73 Q44.875 -41.48 44.875 -35.604 Q44.875 -31.235 47.194 -27.709 Q49.513 -24.181 53.375 -22.48 V12.27 H49.125 Z"/></g><g id="Bold-S" transform="matrix(1 0 0 1 2294.23 696)"><path d="M64.698 7.179 Q59.065 7.179 55.569 3.683 Q52.074 0.188 52.074 -5.445 V-13.138 Q52.074 -18.772 55.569 -22.267 Q59.065 -25.762 64.698 -25.762 H82.746 Q88.381 -25.762 91.875 -22.267 Q95.37 -18.772 95.37 -13.138 V-5.445 Q95.37 0.188 91.875 3.683 Q88.381 7.179 82.746 7.179 H64.698 Z M64.698 -5.445 H82.746 Q82.746 -5.445 82.746 -5.445 Q82.746 -5.445 82.746 -5.445 V-13.138 Q82.746 -13.138 82.746 -13.138 Q82.746 -13.138 82.746 -13.138 H64.698 Q64.698 -13.138 64.698 -13.138 Q64.698 -13.138 64.698 -13.138 V-5.445 Q64.698 -5.445 64.698 -5.445 Q64.698 -5.445 64.698 -5.445 Z M35.998 7.179  33.532 -5.347 Q32.209 -5.949 30.917 -6.639 Q29.625 -7.328 28.503 -8.305 L16.273 -4.064 L4.931 -24.184 L14.399 -32.37 Q14.301 -32.945 14.251 -33.747 Q14.202 -34.549 14.202 -35.369 Q14.202 -35.993 14.251 -36.795 Q14.301 -37.597 14.399 -38.189 L4.931 -46.473 L16.273 -66.297 L28.503 -62.155 Q29.675 -63.087 30.962 -63.755 Q32.25 -64.423 33.631 -65.015 L35.998 -77.737 H58.682 L61.049 -65.015 Q62.471 -64.439 63.831 -63.741 Q65.191 -63.042 66.375 -62.056 L78.407 -66.198 L89.749 -46.375 L80.084 -38.189 Q80.182 -37.104 80.281 -35.624 Q80.379 -34.145 80.182 -33.06 H61.838 Q61.937 -33.652 61.986 -34.293 Q62.035 -34.934 62.035 -35.526 Q61.937 -41.798 57.597 -46.207 Q53.258 -50.615 46.847 -50.615 Q40.551 -50.615 36.105 -46.172 Q31.659 -41.73 31.659 -35.439 Q31.659 -29.81 35.313 -25.449 Q38.967 -21.088 44.381 -20.338 V7.179 H35.998 Z"/></g><g id="Semibold-S" transform="matrix(1 0 0 1 1998.1 696)"><path d="M63.412 6.578 Q58.352 6.578 55.213 3.439 Q52.074 0.301 52.074 -4.759 V-14.424 Q52.074 -19.484 55.213 -22.623 Q58.352 -25.762 63.412 -25.762 H83.389 Q88.449 -25.762 91.588 -22.623 Q94.727 -19.484 94.727 -14.424 V-4.759 Q94.727 0.301 91.588 3.439 Q88.449 6.578 83.389 6.578 H63.412 Z M63.412 -4.759 H83.389 Q83.389 -4.759 83.389 -4.759 Q83.389 -4.759 83.389 -4.759 V-14.424 Q83.389 -14.424 83.389 -14.424 Q83.389 -14.424 83.389 -14.424 H63.412 Q63.412 -14.424 63.412 -14.424 Q63.412 -14.424 63.412 -14.424 V-4.759 Q63.412 -4.759 63.412 -4.759 Q63.412 -4.759 63.412 -4.759 Z M36.641 6.578  34.219 -5.69 Q32.742 -6.373 31.249 -7.168 Q29.756 -7.963 28.46 -9.078 L16.445 -4.965 L5.789 -23.927 L15 -31.984 Q14.901 -32.61 14.83 -33.577 Q14.759 -34.545 14.759 -35.437 Q14.759 -36.133 14.83 -37.079 Q14.901 -38.026 15 -38.704 L5.789 -46.773 L16.445 -65.482 L28.289 -61.468 Q29.637 -62.553 31.179 -63.36 Q32.722 -64.166 34.318 -64.887 L36.641 -77.18 H58.039 L60.362 -64.843 Q61.938 -64.132 63.543 -63.309 Q65.149 -62.485 66.503 -61.37 L78.235 -65.384 L88.891 -46.674 L79.483 -38.618 Q79.581 -37.404 79.68 -35.86 Q79.779 -34.317 79.581 -33.06 H62.567 Q62.665 -33.652 62.715 -34.293 Q62.764 -34.934 62.764 -35.526 Q62.709 -42.142 58.154 -46.764 Q53.601 -51.388 46.889 -51.388 Q40.286 -51.388 35.629 -46.733 Q30.972 -42.078 30.972 -35.477 Q30.972 -29.596 34.734 -25.128 Q38.495 -20.659 44.081 -19.78 V6.578 H36.641 Z"/></g><g id="Medium-S" transform="matrix(1 0 0 1 1701.85 696)"><path d="M62.446 6.128 Q57.818 6.128 54.946 3.256 Q52.074 0.383 52.074 -4.245 V-15.39 Q52.074 -20.018 54.946 -22.89 Q57.818 -25.762 62.446 -25.762 H83.872 Q88.5 -25.762 91.372 -22.89 Q94.245 -20.018 94.245 -15.39 V-4.245 Q94.245 0.383 91.372 3.256 Q88.5 6.128 83.872 6.128 H62.446 Z M62.446 -4.245 H83.872 Q83.872 -4.245 83.872 -4.245 Q83.872 -4.245 83.872 -4.245 V-15.39 Q83.872 -15.39 83.872 -15.39 Q83.872 -15.39 83.872 -15.39 H62.446 Q62.446 -15.39 62.446 -15.39 Q62.446 -15.39 62.446 -15.39 V-4.245 Q62.446 -4.245 62.446 -4.245 Q62.446 -4.245 62.446 -4.245 Z M37.123 6.128  34.733 -5.947 Q33.141 -6.691 31.498 -7.566 Q29.855 -8.44 28.428 -9.657 L16.573 -5.641 L6.432 -23.733 L15.45 -31.694 Q15.351 -32.357 15.264 -33.45 Q15.177 -34.542 15.177 -35.488 Q15.177 -36.238 15.264 -37.293 Q15.351 -38.348 15.45 -39.089 L6.432 -46.999 L16.573 -64.871 L28.128 -60.954 Q29.608 -62.153 31.342 -63.063 Q33.076 -63.972 34.831 -64.79 L37.123 -76.762 H57.557 L59.849 -64.715 Q61.539 -63.901 63.327 -62.984 Q65.116 -62.067 66.599 -60.856 L78.107 -64.772 L88.248 -46.9 L79.033 -38.939 Q79.132 -37.63 79.23 -36.037 Q79.329 -34.445 79.132 -33.06 H63.113 Q63.212 -33.652 63.261 -34.293 Q63.31 -34.934 63.31 -35.526 Q63.288 -42.399 58.572 -47.182 Q53.858 -51.967 46.922 -51.967 Q40.088 -51.967 35.273 -47.152 Q30.458 -42.338 30.458 -35.505 Q30.458 -29.435 34.3 -24.886 Q38.141 -20.338 43.856 -19.362 V6.128 H37.123 Z"/></g><g id="Regular-S" transform="matrix(1 0 0 1 1405.73 696)"><path d="M61.739 5.798 Q57.427 5.798 54.751 3.121 Q52.074 0.445 52.074 -3.867 V-16.097 Q52.074 -20.41 54.751 -23.085 Q57.427 -25.762 61.739 -25.762 H84.226 Q88.538 -25.762 91.214 -23.085 Q93.891 -20.41 93.891 -16.097 V-3.867 Q93.891 0.445 91.214 3.121 Q88.538 5.798 84.226 5.798 H61.739 Z M61.739 -3.867 H84.226 Q84.226 -3.867 84.226 -3.867 Q84.226 -3.867 84.226 -3.867 V-16.097 Q84.226 -16.097 84.226 -16.097 Q84.226 -16.097 84.226 -16.097 H61.739 Q61.739 -16.097 61.739 -16.097 Q61.739 -16.097 61.739 -16.097 V-3.867 Q61.739 -3.867 61.739 -3.867 Q61.739 -3.867 61.739 -3.867 Z M37.477 5.798  35.111 -6.136 Q33.434 -6.925 31.68 -7.857 Q29.927 -8.79 28.404 -10.081 L16.668 -6.136 L6.904 -23.592 L15.78 -31.482 Q15.681 -32.173 15.583 -33.356 Q15.484 -34.54 15.484 -35.526 Q15.484 -36.315 15.583 -37.449 Q15.681 -38.583 15.78 -39.372 L6.904 -47.164 L16.668 -64.423 L28.01 -60.577 Q29.588 -61.859 31.461 -62.845 Q33.335 -63.831 35.209 -64.719 L37.477 -76.455 H57.203 L59.471 -64.62 Q61.246 -63.733 63.169 -62.746 Q65.093 -61.76 66.671 -60.478 L78.012 -64.324 L87.776 -47.065 L78.703 -39.175 Q78.801 -37.794 78.9 -36.167 Q78.999 -34.54 78.801 -33.06 H63.515 Q63.613 -33.652 63.662 -34.293 Q63.712 -34.934 63.712 -35.526 Q63.712 -42.587 58.879 -47.489 Q54.047 -52.391 46.946 -52.391 Q39.943 -52.391 35.012 -47.459 Q30.081 -42.528 30.081 -35.525 Q30.081 -29.316 33.981 -24.71 Q37.882 -20.102 43.691 -19.055 V5.798 H37.477 Z"/></g><g id="Light-S" transform="matrix(1 0 0 1 1109.75 696)"><path d="M60.981 3.826 Q56.933 3.826 54.504 1.395 Q52.074 -1.035 52.074 -5.081 V-16.855 Q52.074 -20.903 54.504 -23.332 Q56.933 -25.762 60.981 -25.762 H83.012 Q87.058 -25.762 89.488 -23.332 Q91.919 -20.903 91.919 -16.855 V-5.081 Q91.919 -1.035 89.488 1.395 Q87.058 3.826 83.012 3.826 H60.981 Z M60.981 -3.867 H83.012 Q83.543 -3.867 83.885 -4.208 Q84.226 -4.55 84.226 -5.081 V-16.855 Q84.226 -17.387 83.885 -17.728 Q83.543 -18.069 83.012 -18.069 H60.981 Q60.449 -18.069 60.108 -17.728 Q59.767 -17.387 59.767 -16.855 V-5.081 Q59.767 -4.55 60.108 -4.208 Q60.449 -3.867 60.981 -3.867 Z M39.222 3.826  36.931 -7.502 Q34.952 -8.328 32.667 -9.526 Q30.382 -10.725 28.632 -12.318 L17.502 -8.601 L9.484 -23.099 L17.828 -30.572 Q17.692 -31.452 17.537 -32.882 Q17.381 -34.312 17.381 -35.488 Q17.381 -36.428 17.537 -37.79 Q17.692 -39.152 17.828 -40.283 L9.484 -47.657 L17.502 -61.881 L28.199 -58.3 Q30.119 -59.924 32.429 -61.157 Q34.739 -62.389 36.992 -63.353 L39.222 -74.483 H55.458 L57.65 -63.217 Q59.919 -62.177 62.145 -61.02 Q64.372 -59.864 66.329 -58.202 L77.178 -61.783 L85.196 -47.558 L76.502 -39.972 Q76.714 -38.326 76.833 -36.508 Q76.95 -34.692 76.753 -33.06 H61.314 Q61.413 -33.652 61.462 -34.312 Q61.511 -34.972 61.511 -35.563 Q61.511 -41.791 57.267 -46.104 Q53.022 -50.418 46.756 -50.418 Q40.626 -50.418 36.263 -46.056 Q31.901 -41.694 31.901 -35.563 Q31.901 -30.189 35.271 -26.132 Q38.64 -22.074 43.691 -21.142 V3.826 H39.222 Z"/></g><g id="Thin-S" transform="matrix(1 0 0 1 814.015 696)"><path d="M60.222 1.853 Q56.441 1.853 54.258 -0.331 Q52.074 -2.513 52.074 -6.295 V-17.614 Q52.074 -21.395 54.258 -23.578 Q56.441 -25.762 60.222 -25.762 H81.798 Q85.58 -25.762 87.762 -23.578 Q89.946 -21.395 89.946 -17.614 V-6.295 Q89.946 -2.513 87.762 -0.331 Q85.58 1.853 81.798 1.853 H60.222 Z M60.222 -3.867 H81.798 Q82.86 -3.867 83.543 -4.55 Q84.226 -5.233 84.226 -6.295 V-17.614 Q84.226 -18.676 83.543 -19.359 Q82.86 -20.042 81.798 -20.042 H60.222 Q59.16 -20.042 58.477 -19.359 Q57.794 -18.676 57.794 -17.614 V-6.295 Q57.794 -5.233 58.477 -4.55 Q59.16 -3.867 60.222 -3.867 Z M40.967 1.853  38.752 -8.867 Q36.469 -9.731 33.653 -11.195 Q30.837 -12.659 28.86 -14.556 L18.336 -11.067 L12.063 -22.606 L19.877 -29.662 Q19.702 -30.731 19.49 -32.407 Q19.277 -34.084 19.277 -35.45 Q19.277 -36.543 19.49 -38.132 Q19.702 -39.721 19.877 -41.193 L12.063 -48.15 L18.336 -59.34 L28.389 -56.025 Q30.65 -57.99 33.396 -59.469 Q36.142 -60.948 38.774 -61.988 L40.967 -72.51 H53.713 L55.83 -61.813 Q58.591 -60.622 61.121 -59.294 Q63.651 -57.967 65.988 -55.926 L76.344 -59.241 L82.617 -48.051 L74.302 -40.768 Q74.629 -38.856 74.766 -36.849 Q74.902 -34.843 74.704 -33.06 H59.114 Q59.212 -33.652 59.262 -34.331 Q59.311 -35.01 59.311 -35.602 Q59.311 -40.995 55.655 -44.72 Q51.998 -48.446 46.566 -48.446 Q41.309 -48.446 37.515 -44.653 Q33.722 -40.86 33.722 -35.601 Q33.722 -31.061 36.56 -27.554 Q39.4 -24.047 43.691 -23.228 V1.853 H40.967 Z"/></g><g id="Ultralight-S" transform="matrix(1 0 0 1 517.792 696)"><path d="M59.767 0.67 Q56.145 0.67 54.11 -1.366 Q52.074 -3.401 52.074 -7.023 V-18.069 Q52.074 -21.692 54.11 -23.726 Q56.145 -25.762 59.767 -25.762 H81.07 Q84.691 -25.762 86.727 -23.726 Q88.763 -21.692 88.763 -18.069 V-7.023 Q88.763 -3.401 86.727 -1.366 Q84.691 0.67 81.07 0.67 H59.767 Z M59.767 -3.867 H81.07 Q82.451 -3.867 83.338 -4.755 Q84.226 -5.642 84.226 -7.023 V-18.069 Q84.226 -19.45 83.338 -20.338 Q82.451 -21.225 81.07 -21.225 H59.767 Q58.386 -21.225 57.498 -20.338 Q56.611 -19.45 56.611 -18.069 V-7.023 Q56.611 -5.642 57.498 -4.755 Q58.386 -3.867 59.767 -3.867 Z M42.014 0.67  39.845 -9.686 Q37.379 -10.574 34.245 -12.196 Q31.11 -13.819 28.996 -15.899 L18.837 -12.546 L13.61 -22.31 L21.106 -29.115 Q20.909 -30.299 20.662 -32.123 Q20.415 -33.948 20.415 -35.427 Q20.415 -36.611 20.662 -38.337 Q20.909 -40.063 21.106 -41.739 L13.61 -48.446 L18.837 -57.815 L28.503 -54.659 Q30.968 -56.829 33.976 -58.456 Q36.984 -60.083 39.845 -61.168 L42.014 -71.327 H52.666 L54.737 -60.971 Q57.794 -59.689 60.506 -58.259 Q63.219 -56.829 65.783 -54.56 L75.843 -57.716 L81.07 -48.347 L72.983 -41.246 Q73.377 -39.175 73.525 -37.055 Q73.673 -34.934 73.476 -33.06 H57.794 Q57.893 -33.652 57.942 -34.342 Q57.992 -35.033 57.992 -35.624 Q57.992 -40.516 54.688 -43.889 Q51.384 -47.262 46.452 -47.262 Q41.718 -47.262 38.267 -43.81 Q34.815 -40.358 34.815 -35.624 Q34.815 -31.585 37.334 -28.408 Q39.854 -25.23 43.691 -24.48 V0.67 H42.014 Z"/></g></g></svg>