<svg xmlns="http://www.w3.org/2000/svg" version="1.1" width="3300" height="2000"><g id="Notes"><style>
    text {
      font-family: monospace;
      text-anchor: middle;
    }
    text.emphasis {
      font-weight:bold;
    }
    text.lanchor {
      text-anchor: start;
    }
  </style><rect height="2200" id="artboard" fill="white" width="3300" x="0" y="0"/><line id="" style="fill:none;stroke:black;stroke-width:0.5;" x1="263" x2="3036" y1="292" y2="292"/><text class="lanchor emphasis" transform="matrix(1 0 0 1 263 322)">Weight/Scale Variations</text><text transform="matrix(1 0 0 1 559.711 322)">Ultralight</text><text transform="matrix(1 0 0 1 856.422 322)">Thin</text><text transform="matrix(1 0 0 1 1153.13 322)">Light</text><text transform="matrix(1 0 0 1 1449.84 322)">Regular</text><text transform="matrix(1 0 0 1 1746.56 322)">Medium</text><text transform="matrix(1 0 0 1 2043.27 322)">Semibold</text><text transform="matrix(1 0 0 1 2339.98 322)">Bold</text><text transform="matrix(1 0 0 1 2636.69 322)">Heavy</text><text transform="matrix(1 0 0 1 2933.4 322)">Black</text><text id="template-version" style="text-anchor: end;" transform="matrix(1 0 0 1 3036 1933)">Template v.1.0</text><text class="lanchor" transform="matrix(1 0 0 1 263 726)">Small</text><text class="lanchor" transform="matrix(1 0 0 1 263 1156)">Medium</text><text class="lanchor" transform="matrix(1 0 0 1 263 1586)">Large</text></g><g id="Guides"><g id="H-reference" style="fill:#27AAE1;stroke:none;" transform="matrix(1 0 0 1 339 696)"><path d="M 54.9316 0 L 57.666 0 L 30.5664 -70.459 L 28.0762 -70.459 L 0.976562 0 L 3.66211 0 L 12.9395 -24.4629 L 45.7031 -24.4629 Z M 29.1992 -67.0898 L 29.4434 -67.0898 L 44.8242 -26.709 L 13.8184 -26.709 Z"/></g><line id="Baseline-S" style="fill:none;stroke:#27AAE1;opacity:1;stroke-width:0.577;" x1="263" x2="3036" y1="696" y2="696"/><line id="Capline-S" style="fill:none;stroke:#27AAE1;opacity:1;stroke-width:0.577;" x1="263" x2="3036" y1="625.541" y2="625.541"/><g id="H-reference" style="fill:#27AAE1;stroke:none;" transform="matrix(1 0 0 1 339 1126)"><path d="M 54.9316 0 L 57.666 0 L 30.5664 -70.459 L 28.0762 -70.459 L 0.976562 0 L 3.66211 0 L 12.9395 -24.4629 L 45.7031 -24.4629 Z M 29.1992 -67.0898 L 29.4434 -67.0898 L 44.8242 -26.709 L 13.8184 -26.709 Z"/></g><line id="Baseline-M" style="fill:none;stroke:#27AAE1;opacity:1;stroke-width:0.577;" x1="263" x2="3036" y1="1126" y2="1126"/><line id="Capline-M" style="fill:none;stroke:#27AAE1;opacity:1;stroke-width:0.577;" x1="263" x2="3036" y1="1055.54" y2="1055.54"/><g id="H-reference" style="fill:#27AAE1;stroke:none;" transform="matrix(1 0 0 1 339 1556)"><path d="M 54.9316 0 L 57.666 0 L 30.5664 -70.459 L 28.0762 -70.459 L 0.976562 0 L 3.66211 0 L 12.9395 -24.4629 L 45.7031 -24.4629 Z M 29.1992 -67.0898 L 29.4434 -67.0898 L 44.8242 -26.709 L 13.8184 -26.709 Z"/></g><line id="Baseline-L" style="fill:none;stroke:#27AAE1;opacity:1;stroke-width:0.577;" x1="263" x2="3036" y1="1556" y2="1556"/><line id="Capline-L" style="fill:none;stroke:#27AAE1;opacity:1;stroke-width:0.577;" x1="263" x2="3036" y1="1485.54" y2="1485.54"/><rect height="119.336" id="left-margin" style="fill:darkred;stroke:none;opacity:0.4;" width="12.4512" x="1394.06" y="1030.79"/><rect height="119.336" id="right-margin" style="fill:darkgreen;stroke:none;opacity:0.4;" width="12.4512" x="1502.5112" y="1030.79"/><rect x="1406.5112" y="1045" width="96" height="96" fill="none" stroke="blue" stroke-dasharray="5"/><rect x="1394.06" y="1030.79" width="120.9024" height="119.336" fill="none" stroke="blue"/></g><g id="Symbols"><g id="Bold-L" transform="matrix(1 0 0 1 2266 1556)"><path d="M98.766 32.495 Q92.569 32.495 88.209 28.183 Q83.85 23.871 83.85 17.741 V-7.576 Q83.85 -13.537 88.209 -17.933 Q92.569 -22.33 98.766 -22.33 H137.627 Q143.588 -22.33 147.984 -17.933 Q152.381 -13.537 152.381 -7.576 V17.741 Q152.381 23.871 147.984 28.183 Q143.588 32.495 137.627 32.495 H98.766 Z M98.766 17.741 H137.627 Q137.627 17.741 137.627 17.741 Q137.627 17.741 137.627 17.741 V-7.576 Q137.627 -7.576 137.627 -7.576 Q137.627 -7.576 137.627 -7.576 H98.766 Q98.766 -7.576 98.766 -7.576 Q98.766 -7.576 98.766 -7.576 V17.741 Q98.766 17.741 98.766 17.741 Q98.766 17.741 98.766 17.741 Z M59.422 32.495  56.115 11.129 Q53.951 10.467 51.163 8.904 Q48.375 7.34 46.58 5.889 L26.768 15.08 L8.466 -17.331 L26.687 -30.554 Q26.526 -31.495 26.445 -32.802 Q26.364 -34.109 26.364 -35.215 Q26.364 -36.081 26.445 -37.507 Q26.526 -38.932 26.687 -40.067 L8.466 -53.451 L26.768 -85.459 L47.125 -76.349 Q48.536 -77.558 51.157 -79.05 Q53.777 -80.541 56.115 -81.267 L59.498 -103.197 H95.379 L98.766 -81.509 Q100.897 -80.72 103.581 -79.259 Q106.264 -77.8 108.038 -76.349 L128.274 -85.459 L146.415 -53.451 L127.791 -40.222 Q127.71 -39.422 127.912 -37.85 Q128.113 -36.278 128.113 -35.552 H97.234 Q97.234 -35.552 97.234 -35.552 Q97.234 -35.552 97.234 -35.552 Q97.073 -43.931 91.113 -49.86 Q85.155 -55.789 76.953 -55.789 Q68.128 -55.789 62.242 -49.783 Q56.357 -43.776 56.357 -35.23 Q56.357 -28.57 60.272 -23.173 Q64.187 -17.776 70.224 -15.872 V32.495 H59.422 Z"/></g><g id="Semibold-L" transform="matrix(1 0 0 1 1970.27 1556)"><path d="M96.311 30.742 Q91.198 30.742 87.525 27.095 Q83.85 23.447 83.85 18.371 V-9.959 Q83.85 -14.938 87.525 -18.634 Q91.198 -22.33 96.311 -22.33 H137.907 Q142.887 -22.33 146.583 -18.634 Q150.279 -14.938 150.279 -9.959 V18.371 Q150.279 23.447 146.583 27.095 Q142.887 30.742 137.907 30.742 H96.311 Z M96.311 18.371 H137.907 Q137.907 18.371 137.907 18.371 Q137.907 18.371 137.907 18.371 V-9.959 Q137.907 -9.959 137.907 -9.959 Q137.907 -9.959 137.907 -9.959 H96.311 Q96.311 -9.959 96.311 -9.959 Q96.311 -9.959 96.311 -9.959 V18.371 Q96.311 18.371 96.311 18.371 Q96.311 18.371 96.311 18.371 Z M60.999 30.742  57.727 9.938 Q55.173 9.073 52.055 7.33 Q48.936 5.587 46.792 3.855 L27.469 12.766 L10.78 -16.77 L28.58 -29.712 Q28.348 -30.875 28.267 -32.384 Q28.187 -33.895 28.187 -35.222 Q28.187 -36.307 28.267 -37.937 Q28.348 -39.566 28.58 -40.909 L10.78 -53.941 L27.469 -83.216 L47.179 -74.315 Q49.026 -75.876 51.998 -77.577 Q54.969 -79.279 57.727 -80.145 L61.041 -101.375 H93.838 L97.153 -80.386 Q99.69 -79.45 102.732 -77.784 Q105.774 -76.118 107.828 -74.315 L127.504 -83.216 L144.101 -53.941 L125.969 -41.064 Q125.957 -39.913 126.123 -38.236 Q126.291 -36.559 126.291 -35.483 H97.374 Q97.374 -35.483 97.374 -35.483 Q97.374 -35.483 97.374 -35.483 Q97.282 -43.931 91.338 -49.86 Q85.393 -55.789 77.094 -55.789 Q68.338 -55.789 62.418 -49.783 Q56.497 -43.776 56.497 -35.23 Q56.497 -28.57 60.377 -23.244 Q64.258 -17.917 70.294 -15.911 V30.742 H60.999 Z"/></g><g id="Medium-L" transform="matrix(1 0 0 1 1674.31 1556)"><path d="M94.472 29.428 Q90.171 29.428 87.011 26.279 Q83.85 23.13 83.85 18.845 V-11.747 Q83.85 -15.991 87.011 -19.16 Q90.171 -22.33 94.472 -22.33 H138.117 Q142.361 -22.33 145.531 -19.16 Q148.7 -15.991 148.7 -11.747 V18.845 Q148.7 23.13 145.531 26.279 Q142.361 29.428 138.117 29.428 H94.472 Z M94.472 18.845 H138.117 Q138.117 18.845 138.117 18.845 Q138.117 18.845 138.117 18.845 V-11.747 Q138.117 -11.747 138.117 -11.747 Q138.117 -11.747 138.117 -11.747 H94.472 Q94.472 -11.747 94.472 -11.747 Q94.472 -11.747 94.472 -11.747 V18.845 Q94.472 18.845 94.472 18.845 Q94.472 18.845 94.472 18.845 Z M62.181 29.428  58.937 9.044 Q56.089 8.027 52.722 6.15 Q49.357 4.273 46.95 2.33 L27.995 11.031 L12.515 -16.349 L29.999 -29.082 Q29.715 -30.409 29.635 -32.071 Q29.554 -33.735 29.554 -35.227 Q29.554 -36.476 29.635 -38.258 Q29.715 -40.042 29.999 -41.54 L12.515 -54.311 L27.995 -81.533 L47.217 -72.79 Q49.396 -74.614 52.629 -76.473 Q55.862 -78.332 58.937 -79.304 L62.199 -100.007 H92.68 L95.944 -79.546 Q98.785 -78.498 102.095 -76.676 Q105.404 -74.856 107.67 -72.79 L126.925 -81.533 L142.366 -54.311 L124.601 -41.695 Q124.643 -40.282 124.783 -38.524 Q124.924 -36.768 124.924 -35.43 H97.479 Q97.479 -35.43 97.479 -35.43 Q97.479 -35.43 97.479 -35.43 Q97.44 -43.931 91.506 -49.86 Q85.572 -55.789 77.198 -55.789 Q68.496 -55.789 62.549 -49.783 Q56.602 -43.776 56.602 -35.23 Q56.602 -28.57 60.456 -23.296 Q64.31 -18.021 70.347 -15.94 V29.428 H62.181 Z"/></g><g id="Regular-L" transform="matrix(1 0 0 1 1378.56 1556)"><path d="M93.122 28.464 Q89.418 28.464 86.635 25.679 Q83.85 22.896 83.85 19.192 V-13.058 Q83.85 -16.762 86.635 -19.545 Q89.418 -22.33 93.122 -22.33 H138.272 Q141.976 -22.33 144.759 -19.545 Q147.544 -16.762 147.544 -13.058 V19.192 Q147.544 22.896 144.759 25.679 Q141.976 28.464 138.272 28.464 H93.122 Z M93.122 19.192 H138.272 Q138.272 19.192 138.272 19.192 Q138.272 19.192 138.272 19.192 V-13.058 Q138.272 -13.058 138.272 -13.058 Q138.272 -13.058 138.272 -13.058 H93.122 Q93.122 -13.058 93.122 -13.058 Q93.122 -13.058 93.122 -13.058 V19.192 Q93.122 19.192 93.122 19.192 Q93.122 19.192 93.122 19.192 Z M63.049 28.464  59.824 8.388 Q56.76 7.259 53.212 5.284 Q49.665 3.309 47.064 1.213 L28.38 9.759 L13.787 -16.041 L31.041 -28.619 Q30.718 -30.067 30.637 -31.842 Q30.557 -33.617 30.557 -35.23 Q30.557 -36.601 30.637 -38.495 Q30.718 -40.39 31.041 -42.002 L13.787 -54.58 L28.38 -80.299 L47.246 -71.672 Q49.665 -73.688 53.092 -75.663 Q56.518 -77.639 59.824 -78.687 L63.049 -99.004 H91.832 L95.057 -78.929 Q98.121 -77.8 101.628 -75.865 Q105.135 -73.93 107.554 -71.672 L126.501 -80.299 L141.094 -54.58 L123.598 -42.157 Q123.679 -40.551 123.8 -38.737 Q123.921 -36.923 123.921 -35.391 H97.556 Q97.556 -35.391 97.556 -35.391 Q97.556 -35.391 97.556 -35.391 Q97.556 -43.931 91.63 -49.86 Q85.704 -55.789 77.276 -55.789 Q68.612 -55.789 62.646 -49.783 Q56.679 -43.776 56.679 -35.23 Q56.679 -28.57 60.514 -23.335 Q64.348 -18.099 70.386 -15.961 V28.464 H63.049 Z"/></g><g id="Light-L" transform="matrix(1 0 0 1 1082.77 1556)"><path d="M92.904 25.548 Q89.245 25.548 86.548 22.851 Q83.85 20.153 83.85 16.494 V-13.276 Q83.85 -16.935 86.548 -19.632 Q89.245 -22.33 92.904 -22.33 H135.574 Q139.233 -22.33 141.931 -19.632 Q144.628 -16.935 144.628 -13.276 V16.494 Q144.628 20.153 141.931 22.851 Q139.233 25.548 135.574 25.548 H92.904 Z M92.904 18.479 H135.574 Q136.442 18.479 137 17.92 Q137.559 17.362 137.559 16.494 V-13.276 Q137.559 -14.143 137 -14.701 Q136.442 -15.259 135.574 -15.259 H92.904 Q92.037 -15.259 91.479 -14.701 Q90.921 -14.143 90.921 -13.276 V16.494 Q90.921 17.362 91.479 17.92 Q92.037 18.479 92.904 18.479 Z M64.94 25.548  62.025 6.279 Q58.682 5.181 54.764 2.989 Q50.844 0.796 48.057 -1.609 L30.271 6.503 L17.633 -15.886 L33.832 -27.75 Q33.479 -29.477 33.351 -31.407 Q33.224 -33.339 33.224 -35.169 Q33.224 -36.755 33.351 -38.79 Q33.479 -40.824 33.801 -42.809 L17.633 -54.798 L30.271 -76.95 L48.146 -68.912 Q50.968 -71.206 54.688 -73.383 Q58.41 -75.56 61.964 -76.641 L64.94 -96.058 H89.971 L92.886 -76.758 Q96.384 -75.475 99.985 -73.446 Q103.584 -71.418 106.438 -68.912 L124.703 -76.95 L137.279 -54.798 L120.683 -42.778 Q120.918 -40.861 121.055 -38.939 Q121.192 -37.017 121.192 -35.361 H94.859 Q94.859 -35.361 94.859 -35.375 Q94.859 -35.391 94.859 -35.391 Q94.859 -42.835 89.645 -47.995 Q84.432 -53.153 77.126 -53.153 Q69.61 -53.153 64.416 -47.953 Q59.222 -42.752 59.222 -35.291 Q59.222 -29.625 62.391 -25.134 Q65.558 -20.642 70.571 -18.721 V25.548 H64.94 Z"/></g><g id="Thin-L" transform="matrix(1 0 0 1 787.282 1556)"><path d="M92.688 22.635 Q89.075 22.635 86.462 20.022 Q83.85 17.41 83.85 13.796 V-13.492 Q83.85 -17.105 86.462 -19.718 Q89.075 -22.33 92.688 -22.33 H132.876 Q136.49 -22.33 139.102 -19.718 Q141.715 -17.105 141.715 -13.492 V13.796 Q141.715 17.41 139.102 20.022 Q136.49 22.635 132.876 22.635 H92.688 Z M92.688 17.765 H132.876 Q134.613 17.765 135.729 16.649 Q136.845 15.533 136.845 13.796 V-13.492 Q136.845 -15.229 135.729 -16.344 Q134.613 -17.462 132.876 -17.462 H92.688 Q90.951 -17.462 89.836 -16.344 Q88.718 -15.229 88.718 -13.492 V13.796 Q88.718 15.533 89.836 16.649 Q90.951 17.765 92.688 17.765 Z M66.832 22.635  64.227 4.171 Q60.606 3.104 56.313 0.695 Q52.022 -1.714 49.049 -4.431 L32.163 3.247 L21.477 -15.732 L36.623 -26.882 Q36.238 -28.888 36.064 -30.973 Q35.891 -33.06 35.891 -35.106 Q35.891 -36.91 36.064 -39.084 Q36.238 -41.258 36.56 -43.615 L21.477 -55.014 L32.163 -73.601 L49.044 -66.153 Q52.269 -68.726 56.286 -71.105 Q60.301 -73.483 64.103 -74.594 L66.832 -93.112 H88.11 L90.716 -74.588 Q94.647 -73.148 98.342 -71.027 Q102.034 -68.907 105.32 -66.153 L122.903 -73.601 L133.465 -55.014 L117.769 -43.397 Q118.159 -41.172 118.311 -39.14 Q118.462 -37.109 118.462 -35.33 H92.161 Q92.161 -35.33 92.161 -35.361 Q92.161 -35.391 92.161 -35.391 Q92.161 -41.738 87.66 -46.127 Q83.161 -50.518 76.974 -50.518 Q70.608 -50.518 66.187 -46.124 Q61.765 -41.73 61.765 -35.354 Q61.765 -30.68 64.266 -26.932 Q66.767 -23.185 70.758 -21.48 V22.635 H66.832 Z"/></g><g id="Ultralight-L" transform="matrix(1 0 0 1 491.205 1556)"><path d="M92.558 20.885 Q88.971 20.885 86.411 18.324 Q83.85 15.764 83.85 12.178 V-13.622 Q83.85 -17.209 86.411 -19.769 Q88.971 -22.33 92.558 -22.33 H131.257 Q134.844 -22.33 137.404 -19.769 Q139.965 -17.209 139.965 -13.622 V12.178 Q139.965 15.764 137.404 18.324 Q134.844 20.885 131.257 20.885 H92.558 Z M92.558 17.338 H131.257 Q133.515 17.338 134.966 15.886 Q136.417 14.435 136.417 12.178 V-13.622 Q136.417 -15.88 134.966 -17.331 Q133.515 -18.782 131.257 -18.782 H92.558 Q90.3 -18.782 88.849 -17.331 Q87.398 -15.88 87.398 -13.622 V12.178 Q87.398 14.435 88.849 15.886 Q90.3 17.338 92.558 17.338 Z M67.967 20.885  65.548 2.906 Q61.759 1.858 57.244 -0.682 Q52.729 -3.222 49.644 -6.124 L33.298 1.293 L23.784 -15.638 L38.297 -26.361 Q37.894 -28.535 37.692 -30.713 Q37.491 -32.892 37.491 -35.069 Q37.491 -37.004 37.692 -39.261 Q37.894 -41.519 38.216 -44.099 L23.784 -55.144 L33.298 -71.592 L49.584 -64.497 Q53.051 -67.238 57.244 -69.737 Q61.436 -72.237 65.387 -73.366 L67.967 -91.345 H86.994 L89.413 -73.285 Q93.606 -71.753 97.355 -69.576 Q101.104 -67.399 104.651 -64.497 L121.824 -71.592 L131.177 -55.144 L116.019 -43.77 Q116.503 -41.357 116.664 -39.261 Q116.826 -37.165 116.826 -35.311 H90.542 Q90.542 -35.311 90.542 -35.351 Q90.542 -35.391 90.542 -35.391 Q90.542 -41.08 86.47 -45.008 Q82.399 -48.936 76.884 -48.936 Q71.206 -48.936 67.249 -45.026 Q63.291 -41.116 63.291 -35.391 Q63.291 -31.312 65.392 -28.011 Q67.493 -24.71 70.869 -23.136 V20.885 H67.967 Z"/></g><g id="Bold-M" transform="matrix(1 0 0 1 2281.8 1126)"><path d="M80.125 17.77 Q73.757 17.77 69.379 13.391 Q65 9.013 65 2.645 V-10.105 Q65 -16.472 69.379 -20.851 Q73.757 -25.23 80.125 -25.23 H103.625 Q109.993 -25.23 114.371 -20.851 Q118.75 -16.472 118.75 -10.105 V2.645 Q118.75 9.013 114.371 13.391 Q109.993 17.77 103.625 17.77 H80.125 Z M80.125 2.645 H103.625 Q103.625 2.645 103.625 2.645 Q103.625 2.645 103.625 2.645 V-10.105 Q103.625 -10.105 103.625 -10.105 Q103.625 -10.105 103.625 -10.105 H80.125 Q80.125 -10.105 80.125 -10.105 Q80.125 -10.105 80.125 -10.105 V2.645 Q80.125 2.645 80.125 2.645 Q80.125 2.645 80.125 2.645 Z M43.312 17.77  41.062 0.833 Q40.385 0.506 39.568 0.108 Q38.75 -0.292 38.125 -0.667 L22.438 5.958 L5.562 -23.542 L19.188 -33.855 Q19.188 -34.142 19.188 -34.41 Q19.188 -34.679 19.188 -35.219 Q19.188 -35.447 19.219 -35.839 Q19.25 -36.23 19.25 -36.855 L5.562 -47.042 L22.438 -76.167 L38.562 -69.542 Q39.062 -69.917 39.594 -70.23 Q40.125 -70.542 41.062 -70.917 L43.312 -88.355 H76.688 L78.938 -71.105 Q79.74 -70.812 80.37 -70.459 Q81 -70.105 81.625 -69.542 L97.562 -76.167 L114.438 -47.042 L100.312 -36.6 Q100.312 -36.48 100.312 -36.042 Q100.312 -35.605 100.312 -35.292 H76.438 Q76.438 -35.292 76.438 -35.324 Q76.438 -35.355 76.438 -35.355 Q76.312 -42.346 71.411 -47.225 Q66.511 -52.105 59.591 -52.105 Q52.5 -52.105 47.594 -47.199 Q42.688 -42.292 42.688 -35.23 Q42.688 -29.43 46.125 -24.955 Q49.562 -20.48 54.938 -18.98 V17.77 H43.312 Z"/></g><g id="Semibold-M" transform="matrix(1 0 0 1 1985.97 1126)"><path d="M77.625 15.923 Q72.345 15.923 68.672 12.25 Q65 8.578 65 3.298 V-12.605 Q65 -17.885 68.672 -21.557 Q72.345 -25.23 77.625 -25.23 H103.951 Q109.231 -25.23 112.904 -21.557 Q116.576 -17.885 116.576 -12.605 V3.298 Q116.576 8.578 112.904 12.25 Q109.231 15.923 103.951 15.923 H77.625 Z M77.625 3.298 H103.951 Q103.951 3.298 103.951 3.298 Q103.951 3.298 103.951 3.298 V-12.605 Q103.951 -12.605 103.951 -12.605 Q103.951 -12.605 103.951 -12.605 H77.625 Q77.625 -12.605 77.625 -12.605 Q77.625 -12.605 77.625 -12.605 V3.298 Q77.625 3.298 77.625 3.298 Q77.625 3.298 77.625 3.298 Z M44.889 15.923  42.748 -0.417 Q41.657 -0.9 40.476 -1.52 Q39.294 -2.14 38.343 -2.787 L23.199 3.566 L7.954 -22.999 L21.144 -32.985 Q21.09 -33.5 21.09 -33.979 Q21.09 -34.456 21.09 -35.224 Q21.09 -35.679 21.121 -36.281 Q21.152 -36.882 21.206 -37.725 L7.954 -47.586 L23.199 -73.885 L38.671 -67.477 Q39.498 -68.124 40.464 -68.681 Q41.429 -69.239 42.748 -69.776 L44.889 -86.507 H75.111 L77.252 -69.964 Q78.468 -69.5 79.461 -68.905 Q80.456 -68.311 81.407 -67.477 L96.801 -73.885 L112.046 -47.586 L98.41 -37.469 Q98.465 -37.024 98.465 -36.45 Q98.465 -35.876 98.465 -35.239 H76.6 Q76.6 -35.239 76.6 -35.27 Q76.6 -35.301 76.6 -35.301 Q76.53 -42.291 71.614 -47.199 Q66.696 -52.105 59.755 -52.105 Q52.663 -52.105 47.756 -47.199 Q42.85 -42.292 42.85 -35.23 Q42.85 -29.43 46.261 -25.009 Q49.671 -20.589 54.991 -19.034 V15.923 H44.889 Z"/></g><g id="Medium-M" transform="matrix(1 0 0 1 1689.91 1126)"><path d="M75.75 14.536 Q71.285 14.536 68.142 11.394 Q65 8.251 65 3.786 V-14.48 Q65 -18.945 68.142 -22.087 Q71.285 -25.23 75.75 -25.23 H104.196 Q108.661 -25.23 111.804 -22.087 Q114.946 -18.945 114.946 -14.48 V3.786 Q114.946 8.251 111.804 11.394 Q108.661 14.536 104.196 14.536 H75.75 Z M75.75 3.786 H104.196 Q104.196 3.786 104.196 3.786 Q104.196 3.786 104.196 3.786 V-14.48 Q104.196 -14.48 104.196 -14.48 Q104.196 -14.48 104.196 -14.48 H75.75 Q75.75 -14.48 75.75 -14.48 Q75.75 -14.48 75.75 -14.48 V3.786 Q75.75 3.786 75.75 3.786 Q75.75 3.786 75.75 3.786 Z M46.071 14.536  44.011 -1.355 Q42.612 -1.956 41.156 -2.741 Q39.701 -3.526 38.505 -4.376 L23.769 1.773 L9.748 -22.591 L22.611 -32.334 Q22.516 -33.017 22.516 -33.654 Q22.516 -34.29 22.516 -35.227 Q22.516 -35.852 22.547 -36.612 Q22.579 -37.371 22.674 -38.376 L9.748 -47.994 L23.769 -72.172 L38.752 -65.929 Q39.824 -66.779 41.115 -67.52 Q42.407 -68.26 44.011 -68.92 L46.071 -85.121 H73.929 L75.989 -69.107 Q77.513 -68.515 78.781 -67.74 Q80.049 -66.966 81.245 -65.929 L96.231 -72.172 L110.252 -47.994 L96.984 -38.121 Q97.079 -37.431 97.079 -36.756 Q97.079 -36.08 97.079 -35.197 H76.722 Q76.722 -35.197 76.722 -35.229 Q76.722 -35.26 76.722 -35.26 Q76.692 -42.251 71.764 -47.177 Q66.835 -52.105 59.876 -52.105 Q52.785 -52.105 47.879 -47.199 Q42.972 -42.292 42.972 -35.23 Q42.972 -29.43 46.362 -25.05 Q49.752 -20.67 55.032 -19.075 V14.536 H46.071 Z"/></g><g id="Regular-M" transform="matrix(1 0 0 1 1394.06 1126)"><path d="M74.375 13.52 Q70.507 13.52 67.754 10.766 Q65 8.013 65 4.145 V-15.855 Q65 -19.722 67.754 -22.476 Q70.507 -25.23 74.375 -25.23 H104.375 Q108.243 -25.23 110.996 -22.476 Q113.75 -19.722 113.75 -15.855 V4.145 Q113.75 8.013 110.996 10.766 Q108.243 13.52 104.375 13.52 H74.375 Z M74.375 4.145 H104.375 Q104.375 4.145 104.375 4.145 Q104.375 4.145 104.375 4.145 V-15.855 Q104.375 -15.855 104.375 -15.855 Q104.375 -15.855 104.375 -15.855 H74.375 Q74.375 -15.855 74.375 -15.855 Q74.375 -15.855 74.375 -15.855 V4.145 Q74.375 4.145 74.375 4.145 Q74.375 4.145 74.375 4.145 Z M46.938 13.52  44.938 -2.042 Q43.312 -2.73 41.656 -3.636 Q40 -4.542 38.625 -5.542 L24.188 0.458 L11.062 -22.292 L23.688 -31.855 Q23.562 -32.665 23.562 -33.416 Q23.562 -34.167 23.562 -35.23 Q23.562 -35.98 23.594 -36.855 Q23.625 -37.73 23.75 -38.855 L11.062 -48.292 L24.188 -70.917 L38.812 -64.792 Q40.062 -65.792 41.594 -66.667 Q43.125 -67.542 44.938 -68.292 L46.938 -84.105 H73.062 L75.062 -68.48 Q76.812 -67.792 78.281 -66.886 Q79.75 -65.98 81.125 -64.792 L95.812 -70.917 L108.938 -48.292 L95.938 -38.6 Q96.062 -37.73 96.062 -36.98 Q96.062 -36.23 96.062 -35.167 H76.812 Q76.812 -35.167 76.812 -35.199 Q76.812 -35.23 76.812 -35.23 Q76.812 -42.221 71.875 -47.162 Q66.938 -52.105 59.966 -52.105 Q52.875 -52.105 47.969 -47.199 Q43.062 -42.292 43.062 -35.23 Q43.062 -29.43 46.438 -25.08 Q49.812 -20.73 55.062 -19.105 V13.52 H46.938 Z"/></g><g id="Light-M" transform="matrix(1 0 0 1 1098.18 1126)"><path d="M73.534 11.26 Q69.979 11.26 67.49 8.771 Q65 6.281 65 2.726 V-16.696 Q65 -20.251 67.49 -22.74 Q69.979 -25.23 73.534 -25.23 H102.956 Q106.511 -25.23 109.001 -22.74 Q111.49 -20.251 111.49 -16.696 V2.726 Q111.49 6.281 109.001 8.771 Q106.511 11.26 102.956 11.26 H73.534 Z M73.534 4.265 H102.956 Q103.63 4.265 104.062 3.833 Q104.495 3.4 104.495 2.726 V-16.696 Q104.495 -17.37 104.062 -17.802 Q103.63 -18.235 102.956 -18.235 H73.534 Q72.86 -18.235 72.427 -17.802 Q71.995 -17.37 71.995 -16.696 V2.726 Q71.995 3.4 72.427 3.833 Q72.86 4.265 73.534 4.265 Z M49.029 11.26  47.125 -3.629 Q45.091 -4.341 42.81 -5.584 Q40.529 -6.826 38.865 -8.211 L25.125 -2.451 L14.091 -21.644 L26.091 -30.701 Q25.895 -31.775 25.834 -32.839 Q25.774 -33.902 25.774 -35.182 Q25.774 -36.149 25.865 -37.3 Q25.957 -38.451 26.13 -39.961 L14.091 -48.941 L25.125 -67.936 L38.981 -62.124 Q40.688 -63.532 42.76 -64.732 Q44.831 -65.931 47.078 -66.754 L49.029 -81.821 H70.995 L72.899 -66.845 Q75.226 -65.99 77.079 -64.866 Q78.933 -63.744 80.789 -62.124 L94.899 -67.936 L105.933 -48.941 L93.438 -39.61 Q93.683 -38.404 93.719 -37.401 Q93.755 -36.399 93.755 -35.191 H74.24 Q74.24 -35.191 74.24 -35.235 Q74.24 -35.277 74.24 -35.277 Q74.24 -41.26 70 -45.492 Q65.76 -49.725 59.797 -49.725 Q53.74 -49.725 49.531 -45.516 Q45.322 -41.306 45.322 -35.277 Q45.322 -30.487 48.036 -26.811 Q50.75 -23.134 55.062 -21.629 V11.26 H49.029 Z"/></g><g id="Thin-M" transform="matrix(1 0 0 1 802.565 1126)"><path d="M72.692 9.001 Q69.45 9.001 67.225 6.776 Q65 4.551 65 1.309 V-17.537 Q65 -20.78 67.225 -23.005 Q69.45 -25.23 72.692 -25.23 H101.539 Q104.781 -25.23 107.006 -23.005 Q109.231 -20.78 109.231 -17.537 V1.309 Q109.231 4.551 107.006 6.776 Q104.781 9.001 101.539 9.001 H72.692 Z M72.692 4.385 H101.539 Q102.885 4.385 103.75 3.52 Q104.615 2.655 104.615 1.309 V-17.537 Q104.615 -18.884 103.75 -19.749 Q102.885 -20.615 101.539 -20.615 H72.692 Q71.346 -20.615 70.481 -19.749 Q69.615 -18.884 69.615 -17.537 V1.309 Q69.615 2.655 70.481 3.52 Q71.346 4.385 72.692 4.385 Z M51.12 9.001  49.312 -5.215 Q46.87 -5.951 43.964 -7.53 Q41.057 -9.11 39.106 -10.879 L26.062 -5.36 L17.12 -20.995 L28.495 -29.547 Q28.226 -30.885 28.106 -32.262 Q27.985 -33.639 27.985 -35.134 Q27.985 -36.316 28.137 -37.745 Q28.289 -39.172 28.51 -41.066 L17.12 -49.59 L26.062 -64.956 L39.149 -59.456 Q41.312 -61.274 43.925 -62.797 Q46.539 -64.321 49.216 -65.215 L51.12 -79.537 H68.927 L70.735 -65.211 Q73.64 -64.186 75.877 -62.847 Q78.115 -61.509 80.453 -59.456 L93.985 -64.956 L102.927 -49.59 L90.938 -40.619 Q91.302 -39.076 91.375 -37.821 Q91.448 -36.566 91.448 -35.215 H71.669 Q71.669 -35.215 71.669 -35.271 Q71.669 -35.326 71.669 -35.326 Q71.669 -40.297 68.125 -43.821 Q64.581 -47.345 59.63 -47.345 Q54.606 -47.345 51.094 -43.834 Q47.581 -40.321 47.581 -35.326 Q47.581 -31.545 49.635 -28.541 Q51.688 -25.537 55.062 -24.152 V9.001 H51.12 Z"/></g><g id="Ultralight-M" transform="matrix(1 0 0 1 506.415 1126)"><path d="M72.188 7.645 Q69.132 7.645 67.066 5.579 Q65 3.513 65 0.458 V-18.042 Q65 -21.097 67.066 -23.164 Q69.132 -25.23 72.188 -25.23 H100.688 Q103.743 -25.23 105.809 -23.164 Q107.875 -21.097 107.875 -18.042 V0.458 Q107.875 3.513 105.809 5.579 Q103.743 7.645 100.688 7.645 H72.188 Z M72.188 4.458 H100.688 Q102.438 4.458 103.562 3.333 Q104.688 2.208 104.688 0.458 V-18.042 Q104.688 -19.792 103.562 -20.917 Q102.438 -22.042 100.688 -22.042 H72.188 Q70.438 -22.042 69.312 -20.917 Q68.188 -19.792 68.188 -18.042 V0.458 Q68.188 2.208 69.312 3.333 Q70.438 4.458 72.188 4.458 Z M52.375 7.645  50.625 -6.167 Q47.938 -6.917 44.656 -8.699 Q41.375 -10.48 39.25 -12.48 L26.625 -7.105 L18.938 -20.605 L29.938 -28.855 Q29.625 -30.352 29.469 -31.916 Q29.312 -33.48 29.312 -35.105 Q29.312 -36.417 29.5 -38.011 Q29.688 -39.605 29.938 -41.73 L18.938 -49.98 L26.625 -63.167 L39.25 -57.855 Q41.688 -59.917 44.625 -61.636 Q47.562 -63.355 50.5 -64.292 L52.375 -78.167 H67.688 L69.438 -64.23 Q72.688 -63.105 75.156 -61.636 Q77.625 -60.167 80.25 -57.855 L93.438 -63.167 L101.125 -49.98 L89.438 -41.225 Q89.875 -39.48 89.969 -38.074 Q90.062 -36.667 90.062 -35.23 H70.125 Q70.125 -35.23 70.125 -35.292 Q70.125 -35.355 70.125 -35.355 Q70.125 -39.721 67 -42.819 Q63.875 -45.917 59.529 -45.917 Q55.125 -45.917 52.031 -42.824 Q48.938 -39.73 48.938 -35.355 Q48.938 -32.18 50.594 -29.58 Q52.25 -26.98 55.062 -25.667 V7.645 H52.375 Z"/></g><g id="Bold-S" transform="matrix(1 0 0 1 2294.23 696)"><path d="M63.219 5.009 Q58.195 5.009 55.134 1.949 Q52.074 -1.112 52.074 -6.136 V-14.617 Q52.074 -19.641 55.134 -22.702 Q58.195 -25.762 63.219 -25.762 H81.76 Q86.784 -25.762 89.844 -22.702 Q92.905 -19.641 92.905 -14.617 V-6.136 Q92.905 -1.112 89.844 1.949 Q86.784 5.009 81.76 5.009 H63.219 Z M63.219 -6.136 H81.76 Q81.76 -6.136 81.76 -6.136 Q81.76 -6.136 81.76 -6.136 V-14.617 Q81.76 -14.617 81.76 -14.617 Q81.76 -14.617 81.76 -14.617 H63.219 Q63.219 -14.617 63.219 -14.617 Q63.219 -14.617 63.219 -14.617 V-6.136 Q63.219 -6.136 63.219 -6.136 Q63.219 -6.136 63.219 -6.136 Z M37.428 5.009  35.061 -6.974 Q33.54 -7.626 31.909 -8.434 Q30.278 -9.242 28.996 -10.327 L17.506 -6.382 L7.446 -24.036 L16.618 -31.975 Q16.52 -32.695 16.421 -33.449 Q16.322 -34.203 16.322 -35.221 Q16.322 -35.993 16.446 -36.844 Q16.569 -37.696 16.668 -38.682 L7.446 -46.621 L17.506 -63.979 L29.341 -59.936 Q30.524 -61.02 31.881 -61.76 Q33.237 -62.5 35.061 -63.19 L37.428 -75.568 H57.252 L59.619 -63.338 Q61.238 -62.713 62.722 -61.941 Q64.205 -61.168 65.487 -59.936 L77.174 -63.881 L87.234 -46.523 L77.667 -38.481 Q77.766 -37.202 77.864 -35.772 Q77.963 -34.342 77.766 -32.912 H60.112 Q60.211 -33.504 60.26 -34.17 Q60.309 -34.835 60.309 -35.427 Q60.211 -41.141 56.294 -45.039 Q52.379 -48.939 46.722 -48.939 Q41.028 -48.939 37.058 -44.969 Q33.089 -41 33.089 -35.329 Q33.089 -30.161 36.491 -26.235 Q39.894 -22.31 44.924 -21.718 V5.009 H37.428 Z"/></g><g id="Semibold-S" transform="matrix(1 0 0 1 1998.1 696)"><path d="M61.246 3.551 Q57.08 3.551 54.577 1.048 Q52.074 -1.455 52.074 -5.621 V-16.59 Q52.074 -20.756 54.577 -23.259 Q57.08 -25.762 61.246 -25.762 H82.018 Q86.183 -25.762 88.687 -23.259 Q91.19 -20.756 91.19 -16.59 V-5.621 Q91.19 -1.455 88.687 1.048 Q86.183 3.551 82.018 3.551 H61.246 Z M61.246 -5.621 H82.018 Q82.018 -5.621 82.018 -5.621 Q82.018 -5.621 82.018 -5.621 V-16.59 Q82.018 -16.59 82.018 -16.59 Q82.018 -16.59 82.018 -16.59 H61.246 Q61.246 -16.59 61.246 -16.59 Q61.246 -16.59 61.246 -16.59 V-5.621 Q61.246 -5.621 61.246 -5.621 Q61.246 -5.621 61.246 -5.621 Z M38.672 3.551  36.391 -7.96 Q34.544 -8.735 32.626 -9.718 Q30.707 -10.7 29.167 -12 L18.107 -8.269 L9.333 -23.607 L18.162 -31.289 Q18.021 -32.188 17.922 -33.109 Q17.824 -34.028 17.824 -35.225 Q17.824 -36.176 17.947 -37.194 Q18.07 -38.21 18.211 -39.368 L9.333 -47.05 L18.107 -62.178 L29.427 -58.306 Q30.868 -59.605 32.567 -60.538 Q34.265 -61.471 36.391 -62.29 L38.672 -74.11 H56.008 L58.289 -62.438 Q60.234 -61.677 62.005 -60.715 Q63.776 -59.753 65.315 -58.306 L76.573 -62.08 L85.347 -46.952 L76.166 -39.166 Q76.308 -37.632 76.407 -36.094 Q76.505 -34.556 76.308 -32.87 H60.24 Q60.339 -33.462 60.388 -34.127 Q60.437 -34.793 60.437 -35.385 Q60.382 -41.097 56.454 -45.019 Q52.525 -48.939 46.851 -48.939 Q41.156 -48.939 37.187 -44.969 Q33.217 -41 33.217 -35.329 Q33.217 -30.161 36.599 -26.278 Q39.98 -22.396 44.966 -21.761 V3.551 H38.672 Z"/></g><g id="Medium-S" transform="matrix(1 0 0 1 1701.85 696)"><path d="M59.767 2.458 Q56.244 2.458 54.159 0.373 Q52.074 -1.712 52.074 -5.235 V-18.069 Q52.074 -21.592 54.159 -23.677 Q56.244 -25.762 59.767 -25.762 H82.211 Q85.734 -25.762 87.819 -23.677 Q89.904 -21.592 89.904 -18.069 V-5.235 Q89.904 -1.712 87.819 0.373 Q85.734 2.458 82.211 2.458 H59.767 Z M59.767 -5.235 H82.211 Q82.211 -5.235 82.211 -5.235 Q82.211 -5.235 82.211 -5.235 V-18.069 Q82.211 -18.069 82.211 -18.069 Q82.211 -18.069 82.211 -18.069 H59.767 Q59.767 -18.069 59.767 -18.069 Q59.767 -18.069 59.767 -18.069 V-5.235 Q59.767 -5.235 59.767 -5.235 Q59.767 -5.235 59.767 -5.235 Z M39.605 2.458  37.388 -8.7 Q35.298 -9.569 33.163 -10.681 Q31.028 -11.794 29.296 -13.253 L18.556 -9.684 L10.748 -23.286 L19.32 -30.775 Q19.146 -31.808 19.047 -32.852 Q18.949 -33.897 18.949 -35.228 Q18.949 -36.313 19.072 -37.455 Q19.195 -38.596 19.369 -39.882 L10.748 -47.372 L18.556 -60.827 L29.491 -57.084 Q31.125 -58.544 33.081 -59.622 Q35.038 -60.699 37.388 -61.614 L39.605 -73.016 H55.075 L57.292 -61.762 Q59.481 -60.9 61.468 -59.796 Q63.454 -58.692 65.187 -57.084 L76.124 -60.729 L83.932 -47.273 L75.041 -39.681 Q75.214 -37.953 75.313 -36.336 Q75.412 -34.717 75.214 -32.837 H60.337 Q60.435 -33.429 60.485 -34.095 Q60.534 -34.761 60.534 -35.352 Q60.51 -41.066 56.572 -45.002 Q52.634 -48.939 46.946 -48.939 Q41.253 -48.939 37.283 -44.969 Q33.314 -41 33.314 -35.329 Q33.314 -30.161 36.679 -26.31 Q40.044 -22.46 44.999 -21.793 V2.458 H39.605 Z"/></g><g id="Regular-S" transform="matrix(1 0 0 1 1405.73 696)"><path d="M58.682 1.656 Q55.63 1.656 53.852 -0.122 Q52.074 -1.901 52.074 -4.952 V-19.154 Q52.074 -22.206 53.852 -23.984 Q55.63 -25.762 58.682 -25.762 H82.352 Q85.403 -25.762 87.182 -23.984 Q88.96 -22.206 88.96 -19.154 V-4.952 Q88.96 -1.901 87.182 -0.122 Q85.403 1.656 82.352 1.656 H58.682 Z M58.682 -4.952 H82.352 Q82.352 -4.952 82.352 -4.952 Q82.352 -4.952 82.352 -4.952 V-19.154 Q82.352 -19.154 82.352 -19.154 Q82.352 -19.154 82.352 -19.154 H58.682 Q58.682 -19.154 58.682 -19.154 Q58.682 -19.154 58.682 -19.154 V-4.952 Q58.682 -4.952 58.682 -4.952 Q58.682 -4.952 58.682 -4.952 Z M40.288 1.656  38.119 -9.242 Q35.85 -10.179 33.557 -11.387 Q31.264 -12.596 29.39 -14.174 L18.887 -10.722 L11.786 -23.05 L20.169 -30.397 Q19.972 -31.53 19.873 -32.665 Q19.774 -33.8 19.774 -35.23 Q19.774 -36.413 19.898 -37.646 Q20.021 -38.879 20.218 -40.26 L11.786 -47.607 L18.887 -59.837 L29.538 -56.188 Q31.313 -57.766 33.459 -58.949 Q35.604 -60.133 38.119 -61.119 L40.288 -72.214 H54.392 L56.561 -61.267 Q58.928 -60.33 61.074 -59.122 Q63.219 -57.914 65.093 -56.188 L75.793 -59.738 L82.894 -47.509 L74.215 -40.059 Q74.413 -38.189 74.511 -36.512 Q74.61 -34.835 74.413 -32.814 H60.408 Q60.506 -33.405 60.556 -34.071 Q60.605 -34.737 60.605 -35.329 Q60.605 -41.042 56.66 -44.99 Q52.715 -48.939 47.017 -48.939 Q41.324 -48.939 37.354 -44.969 Q33.385 -41 33.385 -35.329 Q33.385 -30.161 36.738 -26.334 Q40.091 -22.507 45.022 -21.817 V1.656 H40.288 Z"/></g><g id="Light-S" transform="matrix(1 0 0 1 1109.75 696)"><path d="M58.018 -0.127 Q55.213 -0.127 53.644 -1.697 Q52.074 -3.267 52.074 -6.072 V-19.818 Q52.074 -22.623 53.644 -24.192 Q55.213 -25.762 58.018 -25.762 H81.232 Q84.037 -25.762 85.607 -24.192 Q87.177 -22.623 87.177 -19.818 V-6.072 Q87.177 -3.267 85.607 -1.697 Q84.037 -0.127 81.232 -0.127 H58.018 Z M58.018 -4.857 H81.232 Q81.764 -4.857 82.105 -5.199 Q82.447 -5.54 82.447 -6.072 V-19.818 Q82.447 -20.349 82.105 -20.691 Q81.764 -21.032 81.232 -21.032 H58.018 Q57.487 -21.032 57.145 -20.691 Q56.804 -20.349 56.804 -19.818 V-6.072 Q56.804 -5.54 57.145 -5.199 Q57.487 -4.857 58.018 -4.857 Z M41.938 -0.127  39.845 -10.494 Q37.254 -11.451 34.467 -12.924 Q31.681 -14.397 29.58 -16.279 L19.626 -13.017 L14.175 -22.538 L22.065 -29.487 Q21.812 -30.827 21.665 -32.209 Q21.519 -33.591 21.519 -35.193 Q21.519 -36.547 21.69 -37.997 Q21.861 -39.448 22.096 -41.133 L14.175 -48.119 L19.626 -57.485 L29.671 -54.082 Q31.807 -55.983 34.379 -57.423 Q36.95 -58.862 39.807 -59.905 L41.938 -70.412 H52.76 L54.854 -59.977 Q57.677 -58.908 60.125 -57.528 Q62.574 -56.149 64.827 -54.082 L75.072 -57.386 L80.523 -48.021 L72.243 -40.856 Q72.535 -38.72 72.662 -36.844 Q72.789 -34.969 72.592 -32.832 H58.378 Q58.477 -33.424 58.526 -34.1 Q58.575 -34.774 58.575 -35.366 Q58.575 -40.284 55.181 -43.672 Q51.786 -47.061 46.884 -47.061 Q42.006 -47.061 38.587 -43.642 Q35.168 -40.221 35.168 -35.366 Q35.168 -30.995 37.999 -27.7 Q40.831 -24.404 45.022 -23.808 V-0.127 H41.938 Z"/></g><g id="Thin-S" transform="matrix(1 0 0 1 814.015 696)"><path d="M57.354 -1.91 Q54.796 -1.91 53.435 -3.271 Q52.074 -4.632 52.074 -7.19 V-20.482 Q52.074 -23.04 53.435 -24.401 Q54.796 -25.762 57.354 -25.762 H80.114 Q82.672 -25.762 84.033 -24.401 Q85.394 -23.04 85.394 -20.482 V-7.19 Q85.394 -4.632 84.033 -3.271 Q82.672 -1.91 80.114 -1.91 H57.354 Z M57.354 -4.763 H80.114 Q81.176 -4.763 81.859 -5.445 Q82.541 -6.128 82.541 -7.19 V-20.482 Q82.541 -21.544 81.859 -22.226 Q81.176 -22.91 80.114 -22.91 H57.354 Q56.292 -22.91 55.61 -22.226 Q54.926 -21.544 54.926 -20.482 V-7.19 Q54.926 -6.128 55.61 -5.445 Q56.292 -4.763 57.354 -4.763 Z M43.588 -1.91  41.57 -11.745 Q38.657 -12.721 35.378 -14.46 Q32.098 -16.199 29.77 -18.384 L20.366 -15.312 L16.565 -22.026 L23.962 -28.577 Q23.651 -30.125 23.458 -31.754 Q23.264 -33.383 23.264 -35.154 Q23.264 -36.679 23.483 -38.349 Q23.701 -40.017 23.974 -42.005 L16.565 -48.631 L20.366 -55.134 L29.803 -51.978 Q32.3 -54.201 35.298 -55.896 Q38.297 -57.591 41.494 -58.691 L43.588 -68.611 H51.129 L53.147 -58.688 Q56.425 -57.485 59.177 -55.935 Q61.929 -54.386 64.562 -51.978 L74.351 -55.035 L78.152 -48.533 L70.27 -41.651 Q70.657 -39.251 70.813 -37.176 Q70.969 -35.101 70.771 -32.851 H56.349 Q56.448 -33.443 56.497 -34.128 Q56.547 -34.813 56.547 -35.405 Q56.547 -39.524 53.701 -42.354 Q50.856 -45.183 46.752 -45.183 Q42.69 -45.183 39.82 -42.314 Q36.95 -39.444 36.95 -35.405 Q36.95 -31.829 39.261 -29.065 Q41.57 -26.3 45.022 -25.799 V-1.91 H43.588 Z"/></g><g id="Ultralight-S" transform="matrix(1 0 0 1 517.792 696)"><path d="M56.956 -2.98 Q54.546 -2.98 53.31 -4.215 Q52.074 -5.451 52.074 -7.862 V-20.88 Q52.074 -23.29 53.31 -24.526 Q54.546 -25.762 56.956 -25.762 H79.442 Q81.853 -25.762 83.089 -24.526 Q84.324 -23.29 84.324 -20.88 V-7.862 Q84.324 -5.451 83.089 -4.215 Q81.853 -2.98 79.442 -2.98 H56.956 Z M56.956 -4.706 H79.442 Q80.823 -4.706 81.711 -5.593 Q82.598 -6.481 82.598 -7.862 V-20.88 Q82.598 -22.261 81.711 -23.148 Q80.823 -24.036 79.442 -24.036 H56.956 Q55.575 -24.036 54.688 -23.148 Q53.8 -22.261 53.8 -20.88 V-7.862 Q53.8 -6.481 54.688 -5.593 Q55.575 -4.706 56.956 -4.706 Z M44.579 -2.98  42.606 -12.497 Q39.499 -13.483 35.924 -15.382 Q32.349 -17.28 29.883 -19.647 L20.81 -16.688 L17.999 -21.718 L25.1 -28.03 Q24.755 -29.705 24.533 -31.481 Q24.311 -33.257 24.311 -35.131 Q24.311 -36.759 24.558 -38.559 Q24.804 -40.358 25.1 -42.528 L17.999 -48.939 L20.81 -53.722 L29.883 -50.714 Q32.596 -53.13 35.85 -54.98 Q39.105 -56.829 42.507 -57.963 L44.579 -67.53 H50.151 L52.123 -57.914 Q55.674 -56.632 58.608 -54.98 Q61.542 -53.328 64.402 -50.714 L73.919 -53.624 L76.73 -48.84 L69.087 -42.13 Q69.531 -39.569 69.703 -37.375 Q69.876 -35.181 69.679 -32.863 H55.131 Q55.23 -33.455 55.279 -34.145 Q55.329 -34.835 55.329 -35.427 Q55.329 -39.069 52.814 -41.563 Q50.299 -44.057 46.672 -44.057 Q43.099 -44.057 40.56 -41.517 Q38.02 -38.978 38.02 -35.427 Q38.02 -32.33 40.017 -29.885 Q42.014 -27.439 45.022 -26.995 V-2.98 H44.579 Z"/></g></g></svg>