<svg xmlns="http://www.w3.org/2000/svg" version="1.1" width="3300" height="2000"><g id="Notes"><style>
    text {
      font-family: monospace;
      text-anchor: middle;
    }
    text.emphasis {
      font-weight:bold;
    }
    text.lanchor {
      text-anchor: start;
    }
  </style><rect height="2200" id="artboard" fill="white" width="3300" x="0" y="0"/><line id="" style="fill:none;stroke:black;stroke-width:0.5;" x1="263" x2="3036" y1="292" y2="292"/><text class="lanchor emphasis" transform="matrix(1 0 0 1 263 322)">Weight/Scale Variations</text><text transform="matrix(1 0 0 1 559.711 322)">Ultralight</text><text transform="matrix(1 0 0 1 856.422 322)">Thin</text><text transform="matrix(1 0 0 1 1153.13 322)">Light</text><text transform="matrix(1 0 0 1 1449.84 322)">Regular</text><text transform="matrix(1 0 0 1 1746.56 322)">Medium</text><text transform="matrix(1 0 0 1 2043.27 322)">Semibold</text><text transform="matrix(1 0 0 1 2339.98 322)">Bold</text><text transform="matrix(1 0 0 1 2636.69 322)">Heavy</text><text transform="matrix(1 0 0 1 2933.4 322)">Black</text><text id="template-version" style="text-anchor: end;" transform="matrix(1 0 0 1 3036 1933)">Template v.1.0</text><text class="lanchor" transform="matrix(1 0 0 1 263 726)">Small</text><text class="lanchor" transform="matrix(1 0 0 1 263 1156)">Medium</text><text class="lanchor" transform="matrix(1 0 0 1 263 1586)">Large</text></g><g id="Guides"><g id="H-reference" style="fill:#27AAE1;stroke:none;" transform="matrix(1 0 0 1 339 696)"><path d="M 54.9316 0 L 57.666 0 L 30.5664 -70.459 L 28.0762 -70.459 L 0.976562 0 L 3.66211 0 L 12.9395 -24.4629 L 45.7031 -24.4629 Z M 29.1992 -67.0898 L 29.4434 -67.0898 L 44.8242 -26.709 L 13.8184 -26.709 Z"/></g><line id="Baseline-S" style="fill:none;stroke:#27AAE1;opacity:1;stroke-width:0.577;" x1="263" x2="3036" y1="696" y2="696"/><line id="Capline-S" style="fill:none;stroke:#27AAE1;opacity:1;stroke-width:0.577;" x1="263" x2="3036" y1="625.541" y2="625.541"/><g id="H-reference" style="fill:#27AAE1;stroke:none;" transform="matrix(1 0 0 1 339 1126)"><path d="M 54.9316 0 L 57.666 0 L 30.5664 -70.459 L 28.0762 -70.459 L 0.976562 0 L 3.66211 0 L 12.9395 -24.4629 L 45.7031 -24.4629 Z M 29.1992 -67.0898 L 29.4434 -67.0898 L 44.8242 -26.709 L 13.8184 -26.709 Z"/></g><line id="Baseline-M" style="fill:none;stroke:#27AAE1;opacity:1;stroke-width:0.577;" x1="263" x2="3036" y1="1126" y2="1126"/><line id="Capline-M" style="fill:none;stroke:#27AAE1;opacity:1;stroke-width:0.577;" x1="263" x2="3036" y1="1055.54" y2="1055.54"/><g id="H-reference" style="fill:#27AAE1;stroke:none;" transform="matrix(1 0 0 1 339 1556)"><path d="M 54.9316 0 L 57.666 0 L 30.5664 -70.459 L 28.0762 -70.459 L 0.976562 0 L 3.66211 0 L 12.9395 -24.4629 L 45.7031 -24.4629 Z M 29.1992 -67.0898 L 29.4434 -67.0898 L 44.8242 -26.709 L 13.8184 -26.709 Z"/></g><line id="Baseline-L" style="fill:none;stroke:#27AAE1;opacity:1;stroke-width:0.577;" x1="263" x2="3036" y1="1556" y2="1556"/><line id="Capline-L" style="fill:none;stroke:#27AAE1;opacity:1;stroke-width:0.577;" x1="263" x2="3036" y1="1485.54" y2="1485.54"/><rect height="119.336" id="left-margin" style="fill:darkred;stroke:none;opacity:0.4;" width="12.4512" x="1394.06" y="1030.79"/><rect height="119.336" id="right-margin" style="fill:darkgreen;stroke:none;opacity:0.4;" width="12.4512" x="1502.5112" y="1030.79"/><rect x="1406.5112" y="1045" width="96" height="96" fill="none" stroke="blue" stroke-dasharray="5"/><rect x="1394.06" y="1030.79" width="120.9024" height="119.336" fill="none" stroke="blue"/></g><g id="Symbols"><g id="Bold-L" transform="matrix(1 0 0 1 2266 1556)"><path d="M98.766 32.495 Q92.569 32.495 88.209 28.183 Q83.85 23.871 83.85 17.741 V-7.576 Q83.85 -13.537 88.209 -17.933 Q92.569 -22.33 98.766 -22.33 H137.627 Q143.588 -22.33 147.984 -17.933 Q152.381 -13.537 152.381 -7.576 V17.741 Q152.381 23.871 147.984 28.183 Q143.588 32.495 137.627 32.495 H98.766 Z M98.766 17.741 H137.627 Q137.627 17.741 137.627 17.741 Q137.627 17.741 137.627 17.741 V-7.576 Q137.627 -7.576 137.627 -7.576 Q137.627 -7.576 137.627 -7.576 H98.766 Q98.766 -7.576 98.766 -7.576 Q98.766 -7.576 98.766 -7.576 V17.741 Q98.766 17.741 98.766 17.741 Q98.766 17.741 98.766 17.741 Z M73.933 -14.509 Q66.032 -15.557 60.872 -21.506 Q55.712 -27.456 55.712 -35.388 Q55.712 -44.205 61.889 -50.32 Q68.067 -56.434 76.892 -56.434 Q85.719 -56.434 91.758 -50.392 Q97.798 -44.349 97.959 -35.552 Q97.959 -34.585 97.758 -33.779 Q97.556 -32.972 97.637 -32.166 H93.847 Q91.409 -32.166 89.283 -31.441 Q87.156 -30.715 85.301 -29.344 Q85.946 -30.773 86.349 -32.126 Q86.752 -33.479 86.752 -35.069 Q86.752 -39.269 83.931 -42.169 Q81.107 -45.066 76.958 -45.066 Q72.724 -45.066 69.902 -42.246 Q67.08 -39.426 67.08 -35.398 Q67.08 -31.028 69.978 -28.061 Q72.875 -25.094 77.319 -25.232 Q77.803 -25.232 78.287 -25.313 Q78.771 -25.394 79.254 -25.555 Q77.078 -23.378 75.712 -20.439 Q74.348 -17.501 73.933 -14.509 Z M59.501 32.495  56.115 11.129 Q53.951 10.467 51.163 8.904 Q48.375 7.34 46.58 5.889 L26.768 15.08 L8.466 -17.331 L26.687 -30.554 Q26.526 -31.495 26.445 -32.802 Q26.364 -34.109 26.364 -35.215 Q26.364 -36.081 26.445 -37.507 Q26.526 -38.932 26.687 -40.067 L8.466 -53.451 L26.768 -85.459 L47.125 -76.349 Q48.536 -77.558 51.157 -79.05 Q53.777 -80.541 56.115 -81.267 L59.498 -103.197 H95.379 L98.766 -81.509 Q100.897 -80.72 103.581 -79.259 Q106.264 -77.8 108.038 -76.349 L128.274 -85.459 L146.415 -53.451 L127.791 -40.222 Q127.71 -39.261 127.912 -37.85 Q128.113 -36.439 128.113 -35.552 Q128.113 -35.552 128.113 -35.552 Q128.113 -35.552 128.113 -35.552 H113.036 Q113.036 -35.552 113.036 -35.552 Q113.036 -35.552 113.036 -35.552 Q113.198 -38.794 112.714 -41.312 Q112.23 -43.833 111.585 -46.477 L126.662 -57.402 L121.663 -66.835 L104.571 -59.337 Q100.943 -63.691 95.992 -66.754 Q91.04 -69.818 85.419 -70.463 L83.139 -88.281 H71.579 L69.579 -70.457 Q63.631 -69.415 58.784 -66.593 Q53.938 -63.771 49.907 -59.337 L33.218 -66.835 L28.058 -57.402 L42.731 -46.84 Q42.086 -43.857 41.602 -41.019 Q41.119 -38.182 41.119 -35.315 Q41.119 -32.345 41.562 -29.433 Q42.006 -26.522 42.651 -23.701 L28.058 -13.139 L33.195 -3.706 L49.871 -11.123 Q53.938 -6.819 59.219 -3.972 Q64.5 -1.126 70.224 0.326 V32.495 H59.501 Z"/></g><g id="Semibold-L" transform="matrix(1 0 0 1 1970.27 1556)"><path d="M96.311 30.742 Q91.198 30.742 87.525 27.095 Q83.85 23.447 83.85 18.371 V-9.959 Q83.85 -14.938 87.525 -18.634 Q91.198 -22.33 96.311 -22.33 H137.907 Q142.887 -22.33 146.583 -18.634 Q150.279 -14.938 150.279 -9.959 V18.371 Q150.279 23.447 146.583 27.095 Q142.887 30.742 137.907 30.742 H96.311 Z M96.311 18.371 H137.907 Q137.907 18.371 137.907 18.371 Q137.907 18.371 137.907 18.371 V-9.959 Q137.907 -9.959 137.907 -9.959 Q137.907 -9.959 137.907 -9.959 H96.311 Q96.311 -9.959 96.311 -9.959 Q96.311 -9.959 96.311 -9.959 V18.371 Q96.311 18.371 96.311 18.371 Q96.311 18.371 96.311 18.371 Z M73.793 -14.79 Q66.172 -15.907 61.152 -21.751 Q56.133 -27.596 56.133 -35.388 Q56.133 -44.089 62.228 -50.121 Q68.325 -56.154 77.036 -56.154 Q85.748 -56.154 91.738 -50.16 Q97.729 -44.168 97.819 -35.483 Q97.819 -34.585 97.653 -33.743 Q97.487 -32.903 97.497 -32.097 H92.095 Q90.498 -32.097 89.107 -31.686 Q87.717 -31.276 86.424 -30.467 Q86.928 -31.613 87.191 -32.723 Q87.454 -33.83 87.454 -35.138 Q87.454 -39.526 84.464 -42.612 Q81.476 -45.697 77.081 -45.697 Q72.654 -45.697 69.621 -42.693 Q66.59 -39.687 66.59 -35.394 Q66.59 -31.028 69.452 -27.956 Q72.316 -24.883 76.689 -24.742 Q76.961 -24.742 77.236 -24.787 Q77.508 -24.833 77.782 -24.925 Q76.026 -22.888 75.012 -20.193 Q73.996 -17.501 73.793 -14.79 Z M61.043 30.742  57.727 9.938 Q55.173 9.073 52.055 7.33 Q48.936 5.587 46.792 3.855 L27.469 12.766 L10.78 -16.77 L28.58 -29.712 Q28.348 -30.875 28.267 -32.384 Q28.187 -33.895 28.187 -35.222 Q28.187 -36.307 28.267 -37.937 Q28.348 -39.566 28.58 -40.909 L10.78 -53.941 L27.469 -83.216 L47.179 -74.315 Q49.026 -75.876 51.998 -77.577 Q54.969 -79.279 57.727 -80.145 L61.041 -101.375 H93.838 L97.153 -80.386 Q99.69 -79.45 102.732 -77.784 Q105.774 -76.118 107.828 -74.315 L127.504 -83.216 L144.101 -53.941 L125.969 -41.064 Q125.957 -39.822 126.123 -38.236 Q126.291 -36.649 126.291 -35.483 Q126.291 -35.483 126.291 -35.483 Q126.291 -35.483 126.291 -35.483 H113.738 Q113.738 -35.483 113.738 -35.483 Q113.738 -35.483 113.738 -35.483 Q113.828 -38.682 113.415 -41.151 Q113.001 -43.621 112.356 -46.197 L127.504 -57.262 L121.944 -67.606 L104.78 -60.108 Q101.152 -64.321 96.339 -67.28 Q91.526 -70.239 85.999 -70.953 L83.7 -88.912 H71.026 L68.949 -70.948 Q63.133 -69.836 58.431 -67.119 Q53.728 -64.402 49.767 -60.108 L32.937 -67.606 L27.216 -57.262 L42.101 -46.49 Q41.456 -43.576 41.006 -40.829 Q40.558 -38.081 40.558 -35.315 Q40.558 -32.415 40.966 -29.644 Q41.375 -26.872 42.02 -24.051 L27.216 -13.279 L32.914 -2.935 L49.747 -10.352 Q53.869 -6.107 59.184 -3.301 Q64.5 -0.495 70.294 0.887 V30.742 H61.043 Z"/></g><g id="Medium-L" transform="matrix(1 0 0 1 1674.31 1556)"><path d="M94.472 29.428 Q90.171 29.428 87.011 26.279 Q83.85 23.13 83.85 18.845 V-11.747 Q83.85 -15.991 87.011 -19.16 Q90.171 -22.33 94.472 -22.33 H138.117 Q142.361 -22.33 145.531 -19.16 Q148.7 -15.991 148.7 -11.747 V18.845 Q148.7 23.13 145.531 26.279 Q142.361 29.428 138.117 29.428 H94.472 Z M94.472 18.845 H138.117 Q138.117 18.845 138.117 18.845 Q138.117 18.845 138.117 18.845 V-11.747 Q138.117 -11.747 138.117 -11.747 Q138.117 -11.747 138.117 -11.747 H94.472 Q94.472 -11.747 94.472 -11.747 Q94.472 -11.747 94.472 -11.747 V18.845 Q94.472 18.845 94.472 18.845 Q94.472 18.845 94.472 18.845 Z M73.688 -15 Q66.277 -16.17 61.362 -21.937 Q56.449 -27.701 56.449 -35.388 Q56.449 -44.002 62.483 -49.973 Q68.518 -55.944 77.144 -55.944 Q85.769 -55.944 91.722 -49.988 Q97.676 -44.031 97.714 -35.43 Q97.714 -34.585 97.574 -33.717 Q97.434 -32.85 97.392 -32.044 H90.781 Q89.815 -32.044 88.976 -31.87 Q88.138 -31.697 87.264 -31.307 Q87.664 -32.245 87.822 -33.169 Q87.98 -34.093 87.98 -35.191 Q87.98 -39.719 84.866 -42.944 Q81.752 -46.171 77.174 -46.171 Q72.601 -46.171 69.412 -43.026 Q66.221 -39.884 66.221 -35.393 Q66.221 -31.028 69.059 -27.877 Q71.895 -24.726 76.215 -24.373 Q76.331 -24.373 76.447 -24.392 Q76.562 -24.412 76.678 -24.45 Q75.238 -22.519 74.485 -20.01 Q73.733 -17.501 73.688 -15 Z M62.201 29.428  58.937 9.044 Q56.089 8.027 52.722 6.15 Q49.357 4.273 46.95 2.33 L27.995 11.031 L12.515 -16.349 L29.999 -29.082 Q29.715 -30.409 29.635 -32.071 Q29.554 -33.735 29.554 -35.227 Q29.554 -36.476 29.635 -38.258 Q29.715 -40.042 29.999 -41.54 L12.515 -54.311 L27.995 -81.533 L47.217 -72.79 Q49.396 -74.614 52.629 -76.473 Q55.862 -78.332 58.937 -79.304 L62.199 -100.007 H92.68 L95.944 -79.546 Q98.785 -78.498 102.095 -76.676 Q105.404 -74.856 107.67 -72.79 L126.925 -81.533 L142.366 -54.311 L124.601 -41.695 Q124.643 -40.243 124.783 -38.524 Q124.924 -36.807 124.924 -35.43 Q124.924 -35.43 124.924 -35.43 Q124.924 -35.43 124.924 -35.43 H114.263 Q114.263 -35.43 114.263 -35.43 Q114.263 -35.43 114.263 -35.43 Q114.302 -38.597 113.941 -41.03 Q113.58 -43.463 112.935 -45.987 L128.134 -57.157 L122.153 -68.185 L104.938 -60.687 Q101.31 -64.795 96.6 -67.675 Q91.888 -70.555 86.433 -71.323 L84.119 -89.386 H70.61 L68.475 -71.316 Q62.758 -70.152 58.164 -67.514 Q53.57 -64.876 49.662 -60.687 L32.727 -68.185 L26.585 -57.157 L41.627 -46.227 Q40.982 -43.367 40.559 -40.685 Q40.137 -38.005 40.137 -35.315 Q40.137 -32.468 40.519 -29.802 Q40.901 -27.135 41.546 -24.313 L26.585 -13.384 L32.705 -2.356 L49.654 -9.773 Q53.816 -5.573 59.158 -2.798 Q64.5 -0.021 70.347 1.308 V29.428 H62.201 Z"/></g><g id="Regular-L" transform="matrix(1 0 0 1 1378.56 1556)"><path d="M93.122 28.464 Q89.418 28.464 86.635 25.679 Q83.85 22.896 83.85 19.192 V-13.058 Q83.85 -16.762 86.635 -19.545 Q89.418 -22.33 93.122 -22.33 H138.272 Q141.976 -22.33 144.759 -19.545 Q147.544 -16.762 147.544 -13.058 V19.192 Q147.544 22.896 144.759 25.679 Q141.976 28.464 138.272 28.464 H93.122 Z M93.122 19.192 H138.272 Q138.272 19.192 138.272 19.192 Q138.272 19.192 138.272 19.192 V-13.058 Q138.272 -13.058 138.272 -13.058 Q138.272 -13.058 138.272 -13.058 H93.122 Q93.122 -13.058 93.122 -13.058 Q93.122 -13.058 93.122 -13.058 V19.192 Q93.122 19.192 93.122 19.192 Q93.122 19.192 93.122 19.192 Z M73.611 -15.154 Q66.354 -16.364 61.517 -22.07 Q56.679 -27.779 56.679 -35.388 Q56.679 -43.937 62.67 -49.863 Q68.66 -55.789 77.223 -55.789 Q85.785 -55.789 91.711 -49.86 Q97.637 -43.931 97.637 -35.391 Q97.637 -34.585 97.516 -33.698 Q97.395 -32.811 97.314 -32.005 H89.816 Q89.313 -32.005 88.879 -32.005 Q88.446 -32.005 87.881 -31.924 Q88.204 -32.708 88.284 -33.497 Q88.365 -34.285 88.365 -35.23 Q88.365 -39.859 85.159 -43.189 Q81.955 -46.517 77.242 -46.517 Q72.562 -46.517 69.257 -43.273 Q65.951 -40.027 65.951 -35.391 Q65.951 -31.028 68.768 -27.819 Q71.585 -24.61 75.868 -24.104 Q75.868 -24.104 75.868 -24.104 Q75.868 -24.104 75.868 -24.104 Q74.659 -22.249 74.099 -19.874 Q73.541 -17.501 73.611 -15.154 Z M63.049 28.464  59.824 8.388 Q56.76 7.259 53.212 5.284 Q49.665 3.309 47.064 1.213 L28.38 9.759 L13.787 -16.041 L31.041 -28.619 Q30.718 -30.067 30.637 -31.842 Q30.557 -33.617 30.557 -35.23 Q30.557 -36.601 30.637 -38.495 Q30.718 -40.39 31.041 -42.002 L13.787 -54.58 L28.38 -80.299 L47.246 -71.672 Q49.665 -73.688 53.092 -75.663 Q56.518 -77.639 59.824 -78.687 L63.049 -99.004 H91.832 L95.057 -78.929 Q98.121 -77.8 101.628 -75.865 Q105.135 -73.93 107.554 -71.672 L126.501 -80.299 L141.094 -54.58 L123.598 -42.157 Q123.679 -40.551 123.8 -38.737 Q123.921 -36.923 123.921 -35.391 Q123.921 -35.391 123.921 -35.391 Q123.921 -35.391 123.921 -35.391 H114.649 Q114.649 -35.391 114.649 -35.391 Q114.649 -35.391 114.649 -35.391 Q114.649 -38.536 114.326 -40.941 Q114.004 -43.349 113.359 -45.832 L128.597 -57.079 L122.308 -68.609 L105.054 -61.111 Q101.426 -65.142 96.79 -67.964 Q92.154 -70.786 86.752 -71.592 L84.429 -89.732 H70.305 L68.128 -71.585 Q62.484 -70.382 57.969 -67.802 Q53.454 -65.222 49.584 -61.111 L32.572 -68.609 L26.123 -57.079 L41.28 -46.034 Q40.635 -43.212 40.232 -40.58 Q39.829 -37.949 39.829 -35.315 Q39.829 -32.506 40.192 -29.917 Q40.554 -27.329 41.199 -24.507 L26.123 -13.461 L32.55 -1.932 L49.584 -9.349 Q53.777 -5.181 59.138 -2.429 Q64.5 0.326 70.386 1.616 V28.464 H63.049 Z"/></g><g id="Light-L" transform="matrix(1 0 0 1 1082.77 1556)"><path d="M92.904 25.548 Q89.245 25.548 86.548 22.851 Q83.85 20.153 83.85 16.494 V-13.276 Q83.85 -16.935 86.548 -19.632 Q89.245 -22.33 92.904 -22.33 H135.574 Q139.233 -22.33 141.931 -19.632 Q144.628 -16.935 144.628 -13.276 V16.494 Q144.628 20.153 141.931 22.851 Q139.233 25.548 135.574 25.548 H92.904 Z M92.904 18.479 H135.574 Q136.442 18.479 137 17.92 Q137.559 17.362 137.559 16.494 V-13.276 Q137.559 -14.143 137 -14.701 Q136.442 -15.259 135.574 -15.259 H92.904 Q92.037 -15.259 91.479 -14.701 Q90.921 -14.143 90.921 -13.276 V16.494 Q90.921 17.362 91.479 17.92 Q92.037 18.479 92.904 18.479 Z M73.238 -17.946 Q67.161 -19.186 63.192 -24.055 Q59.222 -28.927 59.222 -35.336 Q59.222 -42.841 64.437 -47.996 Q69.654 -53.153 77.161 -53.153 Q84.482 -53.153 89.618 -48.119 Q94.752 -43.083 94.97 -35.764 Q94.97 -35.206 94.879 -34.582 Q94.789 -33.959 94.771 -33.339 H90.002 Q89.386 -33.277 88.813 -33.23 Q88.241 -33.184 87.572 -33.072 Q87.77 -33.624 87.82 -34.148 Q87.868 -34.67 87.868 -35.385 Q87.868 -39.753 84.755 -42.918 Q81.641 -46.084 77.168 -46.084 Q72.656 -46.084 69.475 -42.947 Q66.293 -39.809 66.293 -35.33 Q66.293 -31.339 68.799 -28.33 Q71.306 -25.323 75.247 -24.631 Q75.247 -24.631 75.247 -24.631 Q75.247 -24.631 75.247 -24.631 Q74.272 -23.225 73.815 -21.433 Q73.359 -19.644 73.238 -17.946 Z M64.94 25.548  62.025 6.279 Q58.682 5.181 54.764 2.989 Q50.844 0.796 48.049 -1.609 L30.271 6.503 L17.633 -15.886 L33.832 -27.75 Q33.479 -29.477 33.351 -31.407 Q33.224 -33.339 33.224 -35.169 Q33.224 -36.755 33.351 -38.79 Q33.479 -40.824 33.801 -42.809 L17.633 -54.798 L30.271 -76.95 L48.146 -68.912 Q50.968 -71.206 54.688 -73.383 Q58.41 -75.56 61.964 -76.641 L64.94 -96.058 H89.971 L92.886 -76.758 Q96.384 -75.475 99.985 -73.446 Q103.584 -71.418 106.438 -68.912 L124.703 -76.95 L137.279 -54.798 L120.683 -42.778 Q120.918 -40.861 121.055 -38.939 Q121.192 -37.017 121.192 -35.361 Q121.192 -35.361 121.192 -35.361 Q121.192 -35.361 121.192 -35.361 H113.997 Q113.997 -35.361 113.997 -35.361 Q113.997 -35.361 113.997 -35.361 Q113.967 -38.381 113.644 -40.643 Q113.322 -42.904 112.738 -45.46 L127.821 -56.676 L121.502 -68.051 L104.372 -60.707 Q100.962 -64.429 96.202 -67.343 Q91.442 -70.258 86.535 -70.971 L84.269 -88.988 H70.49 L68.438 -70.995 Q62.918 -69.855 58.574 -67.383 Q54.23 -64.913 50.236 -60.769 L33.409 -68.051 L26.929 -56.676 L41.869 -45.816 Q41.162 -43.212 40.79 -40.592 Q40.417 -37.971 40.417 -35.283 Q40.417 -32.444 40.749 -29.949 Q41.082 -27.453 41.727 -24.786 L26.929 -13.834 L33.374 -2.459 L50.205 -9.691 Q54.274 -5.579 59.511 -2.891 Q64.748 -0.202 70.571 0.995 V25.548 H64.94 Z"/></g><g id="Thin-L" transform="matrix(1 0 0 1 787.282 1556)"><path d="M92.688 22.635 Q89.075 22.635 86.462 20.022 Q83.85 17.41 83.85 13.796 V-13.492 Q83.85 -17.105 86.462 -19.718 Q89.075 -22.33 92.688 -22.33 H132.876 Q136.49 -22.33 139.102 -19.718 Q141.715 -17.105 141.715 -13.492 V13.796 Q141.715 17.41 139.102 20.022 Q136.49 22.635 132.876 22.635 H92.688 Z M92.688 17.765 H132.876 Q134.613 17.765 135.729 16.649 Q136.845 15.533 136.845 13.796 V-13.492 Q136.845 -15.229 135.729 -16.344 Q134.613 -17.462 132.876 -17.462 H92.688 Q90.951 -17.462 89.836 -16.344 Q88.718 -15.229 88.718 -13.492 V13.796 Q88.718 15.533 89.836 16.649 Q90.951 17.765 92.688 17.765 Z M72.866 -20.737 Q67.967 -22.007 64.866 -26.04 Q61.765 -30.075 61.765 -35.286 Q61.765 -41.744 66.204 -46.13 Q70.645 -50.518 77.098 -50.518 Q83.181 -50.518 87.525 -46.376 Q91.869 -42.235 92.303 -36.136 Q92.303 -35.825 92.245 -35.465 Q92.185 -35.106 92.229 -34.672 H90.189 Q89.457 -34.548 88.746 -34.454 Q88.036 -34.362 87.26 -34.219 Q87.336 -34.541 87.354 -34.799 Q87.373 -35.056 87.373 -35.54 Q87.373 -39.648 84.35 -42.649 Q81.326 -45.65 77.095 -45.65 Q72.748 -45.65 69.691 -42.622 Q66.633 -39.593 66.633 -35.267 Q66.633 -31.649 68.831 -28.843 Q71.027 -26.036 74.628 -25.158 Q74.628 -25.158 74.628 -25.158 Q74.628 -25.158 74.628 -25.158 Q73.886 -24.199 73.532 -22.993 Q73.177 -21.787 72.866 -20.737 Z M66.832 22.635  64.227 4.171 Q60.606 3.104 56.313 0.695 Q52.022 -1.714 49.033 -4.431 L32.163 3.247 L21.477 -15.732 L36.623 -26.882 Q36.238 -28.888 36.064 -30.973 Q35.891 -33.06 35.891 -35.106 Q35.891 -36.91 36.064 -39.084 Q36.238 -41.258 36.56 -43.615 L21.477 -55.014 L32.163 -73.601 L49.044 -66.153 Q52.269 -68.726 56.286 -71.105 Q60.301 -73.483 64.103 -74.594 L66.832 -93.112 H88.11 L90.716 -74.588 Q94.647 -73.148 98.342 -71.027 Q102.034 -68.907 105.32 -66.153 L122.903 -73.601 L133.465 -55.014 L117.769 -43.397 Q118.159 -41.172 118.311 -39.14 Q118.462 -37.109 118.462 -35.33 Q118.462 -35.33 118.462 -35.33 Q118.462 -35.33 118.462 -35.33 H113.346 Q113.346 -35.33 113.346 -35.33 Q113.346 -35.33 113.346 -35.33 Q113.285 -38.226 112.962 -40.343 Q112.64 -42.46 112.119 -45.087 L127.046 -56.273 L120.696 -67.493 L103.69 -60.304 Q100.496 -63.715 95.612 -66.724 Q90.727 -69.731 86.319 -70.352 L84.11 -88.244 H70.677 L68.749 -70.403 Q63.352 -69.328 59.179 -66.966 Q55.006 -64.602 50.887 -60.429 L34.246 -67.493 L27.735 -56.273 L42.459 -45.6 Q41.69 -43.212 41.348 -40.603 Q41.007 -37.994 41.007 -35.251 Q41.007 -32.382 41.307 -29.98 Q41.609 -27.577 42.254 -25.065 L27.735 -14.206 L34.198 -2.986 L50.824 -10.031 Q54.769 -5.978 59.883 -3.354 Q64.997 -0.729 70.758 0.376 V22.635 H66.832 Z"/></g><g id="Ultralight-L" transform="matrix(1 0 0 1 491.205 1556)"><path d="M92.558 20.885 Q88.971 20.885 86.411 18.324 Q83.85 15.764 83.85 12.178 V-13.622 Q83.85 -17.209 86.411 -19.769 Q88.971 -22.33 92.558 -22.33 H131.257 Q134.844 -22.33 137.404 -19.769 Q139.965 -17.209 139.965 -13.622 V12.178 Q139.965 15.764 137.404 18.324 Q134.844 20.885 131.257 20.885 H92.558 Z M92.558 17.338 H131.257 Q133.515 17.338 134.966 15.886 Q136.417 14.435 136.417 12.178 V-13.622 Q136.417 -15.88 134.966 -17.331 Q133.515 -18.782 131.257 -18.782 H92.558 Q90.3 -18.782 88.849 -17.331 Q87.398 -15.88 87.398 -13.622 V12.178 Q87.398 14.435 88.849 15.886 Q90.3 17.338 92.558 17.338 Z M72.643 -22.411 Q68.451 -23.701 65.871 -27.232 Q63.291 -30.763 63.291 -35.256 Q63.291 -41.085 67.265 -45.011 Q71.24 -48.936 77.061 -48.936 Q82.399 -48.936 86.269 -45.331 Q90.139 -41.725 90.703 -36.359 Q90.703 -36.197 90.663 -35.996 Q90.623 -35.794 90.703 -35.472 H90.3 Q89.5 -35.311 88.705 -35.19 Q87.912 -35.069 87.075 -34.907 Q87.075 -35.091 87.075 -35.19 Q87.075 -35.288 87.075 -35.633 Q87.075 -39.584 84.106 -42.486 Q81.138 -45.389 77.052 -45.389 Q72.804 -45.389 69.821 -42.427 Q66.838 -39.463 66.838 -35.23 Q66.838 -31.834 68.849 -29.149 Q70.86 -26.464 74.256 -25.474 Q74.256 -25.474 74.256 -25.474 Q74.256 -25.474 74.256 -25.474 Q73.654 -24.784 73.361 -23.928 Q73.067 -23.072 72.643 -22.411 Z M67.967 20.885  65.548 2.906 Q61.759 1.858 57.244 -0.682 Q52.729 -3.222 49.625 -6.124 L33.298 1.293 L23.784 -15.638 L38.297 -26.361 Q37.894 -28.535 37.692 -30.713 Q37.491 -32.892 37.491 -35.069 Q37.491 -37.004 37.692 -39.261 Q37.894 -41.519 38.216 -44.099 L23.784 -55.144 L33.298 -71.592 L49.584 -64.497 Q53.051 -67.238 57.244 -69.737 Q61.436 -72.237 65.387 -73.366 L67.967 -91.345 H86.994 L89.413 -73.285 Q93.606 -71.753 97.355 -69.576 Q101.104 -67.399 104.651 -64.497 L121.824 -71.592 L131.177 -55.144 L116.019 -43.77 Q116.503 -41.357 116.664 -39.261 Q116.826 -37.165 116.826 -35.311 Q116.826 -35.311 116.826 -35.311 Q116.826 -35.311 116.826 -35.311 H112.956 Q112.956 -35.311 112.956 -35.311 Q112.956 -35.311 112.956 -35.311 Q112.875 -38.132 112.553 -40.164 Q112.23 -42.194 111.746 -44.865 L126.581 -56.031 L120.212 -67.157 L103.281 -60.062 Q100.217 -63.287 95.258 -66.351 Q90.3 -69.415 86.188 -69.979 L84.014 -87.797 H70.789 L68.934 -70.049 Q63.613 -69.012 59.542 -66.714 Q55.47 -64.416 51.278 -60.224 L34.749 -67.157 L28.219 -56.031 L42.812 -45.469 Q42.006 -43.212 41.683 -40.609 Q41.361 -38.007 41.361 -35.233 Q41.361 -32.345 41.643 -29.997 Q41.925 -27.651 42.57 -25.232 L28.219 -14.429 L34.691 -3.302 L51.197 -10.236 Q55.067 -6.218 60.106 -3.631 Q65.145 -1.045 70.869 0.003 V20.885 H67.967 Z"/></g><g id="Bold-M" transform="matrix(1 0 0 1 2281.8 1126)"><path d="M80.125 17.77 Q73.757 17.77 69.379 13.391 Q65 9.013 65 2.645 V-10.105 Q65 -16.472 69.379 -20.851 Q73.757 -25.23 80.125 -25.23 H103.625 Q109.993 -25.23 114.371 -20.851 Q118.75 -16.472 118.75 -10.105 V2.645 Q118.75 9.013 114.371 13.391 Q109.993 17.77 103.625 17.77 H80.125 Z M80.125 2.645 H103.625 Q103.625 2.645 103.625 2.645 Q103.625 2.645 103.625 2.645 V-10.105 Q103.625 -10.105 103.625 -10.105 Q103.625 -10.105 103.625 -10.105 H80.125 Q80.125 -10.105 80.125 -10.105 Q80.125 -10.105 80.125 -10.105 V2.645 Q80.125 2.645 80.125 2.645 Q80.125 2.645 80.125 2.645 Z M55.312 -18.292 Q49.562 -19.667 45.812 -24.329 Q42.062 -28.99 42.062 -35.204 Q42.062 -42.489 47.188 -47.61 Q52.312 -52.73 59.562 -52.73 Q66.812 -52.73 71.875 -47.662 Q76.938 -42.596 77.062 -35.355 Q77.062 -35.355 77.062 -35.324 Q77.062 -35.292 77.062 -35.292 H75.625 Q72.604 -35.292 69.802 -34.48 Q67 -33.667 64.625 -31.98 Q65.125 -32.676 65.375 -33.449 Q65.625 -34.221 65.625 -35.167 Q65.625 -37.736 63.886 -39.484 Q62.149 -41.23 59.593 -41.23 Q57.062 -41.23 55.312 -39.48 Q53.562 -37.73 53.562 -35.23 Q53.562 -32.792 55.278 -30.989 Q56.992 -29.185 59.438 -29.167 Q60.062 -29.167 60.5 -29.23 Q60.938 -29.292 61.438 -29.542 Q59.125 -27.355 57.5 -24.449 Q55.875 -21.542 55.312 -18.292 Z M43.312 17.77  41.062 0.833 Q40.385 0.506 39.568 0.108 Q38.75 -0.292 38.125 -0.667 L22.438 5.958 L5.562 -23.542 L19.188 -33.855 Q19.188 -34.142 19.188 -34.41 Q19.188 -34.679 19.188 -35.219 Q19.188 -35.447 19.219 -35.839 Q19.25 -36.23 19.25 -36.855 L5.562 -47.042 L22.438 -76.167 L38.562 -69.542 Q39.062 -69.917 39.594 -70.23 Q40.125 -70.542 41.062 -70.917 L43.312 -88.355 H76.688 L78.938 -71.105 Q79.74 -70.812 80.37 -70.459 Q81 -70.105 81.625 -69.542 L97.562 -76.167 L114.438 -47.042 L100.312 -36.6 Q100.312 -36.355 100.312 -36.042 Q100.312 -35.73 100.312 -35.292 Q100.312 -35.292 100.312 -35.292 Q100.312 -35.292 100.312 -35.292 H85.062 Q85.062 -35.292 85.062 -35.292 Q85.062 -35.292 85.062 -35.292 Q85.125 -37.73 84.75 -39.574 Q84.375 -41.417 83.75 -43.199 L94.5 -51.23 L91.062 -57.355 L78.688 -51.98 Q76.25 -54.98 72.625 -57.105 Q69 -59.23 65.188 -60.042 L63.571 -73.23 H56.375 L54.938 -60.23 Q50.562 -59.292 47.188 -57.386 Q43.812 -55.48 40.75 -52.105 L28.812 -57.355 L25.375 -51.23 L35.562 -43.667 Q34.938 -41.417 34.562 -39.445 Q34.188 -37.474 34.188 -35.296 Q34.188 -33.292 34.531 -31.23 Q34.875 -29.167 35.5 -26.855 L25.375 -19.355 L28.823 -13.23 L40.66 -18.355 Q43.562 -15.355 47.219 -13.355 Q50.875 -11.355 54.938 -10.167 V17.77 H43.312 Z"/></g><g id="Semibold-M" transform="matrix(1 0 0 1 1985.97 1126)"><path d="M77.625 15.923 Q72.345 15.923 68.672 12.25 Q65 8.578 65 3.298 V-12.605 Q65 -17.885 68.672 -21.557 Q72.345 -25.23 77.625 -25.23 H103.951 Q109.231 -25.23 112.904 -21.557 Q116.576 -17.885 116.576 -12.605 V3.298 Q116.576 8.578 112.904 12.25 Q109.231 15.923 103.951 15.923 H77.625 Z M77.625 3.298 H103.951 Q103.951 3.298 103.951 3.298 Q103.951 3.298 103.951 3.298 V-12.605 Q103.951 -12.605 103.951 -12.605 Q103.951 -12.605 103.951 -12.605 H77.625 Q77.625 -12.605 77.625 -12.605 Q77.625 -12.605 77.625 -12.605 V3.298 Q77.625 3.298 77.625 3.298 Q77.625 3.298 77.625 3.298 Z M55.204 -18.619 Q49.671 -20.102 46.084 -24.632 Q42.498 -29.164 42.498 -35.204 Q42.498 -42.376 47.544 -47.417 Q52.59 -52.459 59.729 -52.459 Q66.866 -52.459 71.875 -47.446 Q76.884 -42.432 76.954 -35.301 Q76.954 -35.301 76.954 -35.27 Q76.954 -35.239 76.954 -35.239 H73.831 Q71.626 -35.239 69.612 -34.725 Q67.597 -34.211 65.82 -33.121 Q66.104 -33.6 66.245 -34.101 Q66.386 -34.601 66.386 -35.221 Q66.386 -38.044 64.471 -39.962 Q62.557 -41.882 59.742 -41.882 Q56.954 -41.882 55.014 -39.942 Q53.074 -38.001 53.074 -35.23 Q53.074 -32.739 54.708 -30.852 Q56.341 -28.967 58.785 -28.679 Q59.139 -28.679 59.386 -28.714 Q59.634 -28.749 59.916 -28.89 Q58.038 -26.811 56.794 -24.177 Q55.549 -21.542 55.204 -18.619 Z M44.889 15.923  42.748 -0.417 Q41.657 -0.9 40.476 -1.52 Q39.294 -2.14 38.343 -2.787 L23.199 3.566 L7.954 -22.999 L21.144 -32.985 Q21.09 -33.5 21.09 -33.979 Q21.09 -34.456 21.09 -35.224 Q21.09 -35.679 21.121 -36.281 Q21.152 -36.882 21.206 -37.725 L7.954 -47.586 L23.199 -73.885 L38.671 -67.477 Q39.498 -68.124 40.464 -68.681 Q41.429 -69.239 42.748 -69.776 L44.889 -86.507 H75.111 L77.252 -69.964 Q78.468 -69.5 79.461 -68.905 Q80.456 -68.311 81.407 -67.477 L96.801 -73.885 L112.046 -47.586 L98.41 -37.469 Q98.465 -36.952 98.465 -36.45 Q98.465 -35.947 98.465 -35.239 Q98.465 -35.239 98.465 -35.239 Q98.465 -35.239 98.465 -35.239 H85.769 Q85.769 -35.239 85.769 -35.239 Q85.769 -35.239 85.769 -35.239 Q85.778 -37.621 85.456 -39.411 Q85.136 -41.2 84.565 -42.927 L95.37 -51.067 L91.389 -58.17 L78.905 -52.795 Q76.468 -55.632 72.979 -57.675 Q69.489 -59.719 65.785 -60.586 L64.169 -73.882 H55.831 L54.285 -60.719 Q50.074 -59.727 46.861 -57.902 Q43.65 -56.077 40.641 -52.92 L28.541 -58.17 L24.505 -51.067 L34.91 -43.341 Q34.285 -41.2 33.965 -39.297 Q33.644 -37.395 33.644 -35.296 Q33.644 -33.346 33.934 -31.392 Q34.222 -29.439 34.847 -27.235 L24.505 -19.517 L28.55 -12.415 L40.564 -17.594 Q43.509 -14.594 47.191 -12.594 Q50.875 -10.594 54.991 -9.57 V15.923 H44.889 Z"/></g><g id="Medium-M" transform="matrix(1 0 0 1 1689.91 1126)"><path d="M75.75 14.536 Q71.285 14.536 68.142 11.394 Q65 8.251 65 3.786 V-14.48 Q65 -18.945 68.142 -22.087 Q71.285 -25.23 75.75 -25.23 H104.196 Q108.661 -25.23 111.804 -22.087 Q114.946 -18.945 114.946 -14.48 V3.786 Q114.946 8.251 111.804 11.394 Q108.661 14.536 104.196 14.536 H75.75 Z M75.75 3.786 H104.196 Q104.196 3.786 104.196 3.786 Q104.196 3.786 104.196 3.786 V-14.48 Q104.196 -14.48 104.196 -14.48 Q104.196 -14.48 104.196 -14.48 H75.75 Q75.75 -14.48 75.75 -14.48 Q75.75 -14.48 75.75 -14.48 V3.786 Q75.75 3.786 75.75 3.786 Q75.75 3.786 75.75 3.786 Z M55.123 -18.864 Q49.752 -20.429 46.288 -24.861 Q42.824 -29.294 42.824 -35.204 Q42.824 -42.292 47.81 -47.274 Q52.797 -52.255 59.852 -52.255 Q66.907 -52.255 71.875 -47.282 Q76.843 -42.311 76.873 -35.26 Q76.873 -35.26 76.873 -35.229 Q76.873 -35.197 76.873 -35.197 H72.486 Q70.892 -35.197 69.469 -34.907 Q68.046 -34.619 66.718 -33.977 Q66.838 -34.294 66.896 -34.59 Q66.956 -34.886 66.956 -35.262 Q66.956 -38.275 64.91 -40.322 Q62.864 -42.371 59.855 -42.371 Q56.873 -42.371 54.79 -40.289 Q52.706 -38.205 52.706 -35.23 Q52.706 -32.697 54.279 -30.751 Q55.851 -28.805 58.296 -28.311 Q58.446 -28.311 58.55 -28.326 Q58.655 -28.341 58.775 -28.401 Q57.222 -26.404 56.264 -23.974 Q55.304 -21.542 55.123 -18.864 Z M46.071 14.536  44.011 -1.355 Q42.612 -1.956 41.156 -2.741 Q39.701 -3.526 38.505 -4.376 L23.769 1.773 L9.748 -22.591 L22.611 -32.334 Q22.516 -33.017 22.516 -33.654 Q22.516 -34.29 22.516 -35.227 Q22.516 -35.852 22.547 -36.612 Q22.579 -37.371 22.674 -38.376 L9.748 -47.994 L23.769 -72.172 L38.752 -65.929 Q39.824 -66.779 41.115 -67.52 Q42.407 -68.26 44.011 -68.92 L46.071 -85.121 H73.929 L75.989 -69.107 Q77.513 -68.515 78.781 -67.74 Q80.049 -66.966 81.245 -65.929 L96.231 -72.172 L110.252 -47.994 L96.984 -38.121 Q97.079 -37.401 97.079 -36.756 Q97.079 -36.11 97.079 -35.197 Q97.079 -35.197 97.079 -35.197 Q97.079 -35.197 97.079 -35.197 H86.299 Q86.299 -35.197 86.299 -35.197 Q86.299 -35.197 86.299 -35.197 Q86.266 -37.54 85.986 -39.289 Q85.706 -41.037 85.176 -42.724 L96.021 -50.945 L91.634 -58.781 L79.067 -53.406 Q76.63 -56.121 73.244 -58.104 Q69.856 -60.086 66.234 -60.994 L64.618 -74.371 H55.424 L53.796 -61.086 Q49.706 -60.054 46.616 -58.29 Q43.528 -56.526 40.56 -53.531 L28.337 -58.781 L23.854 -50.945 L34.421 -43.096 Q33.796 -41.037 33.516 -39.186 Q33.236 -37.336 33.236 -35.296 Q33.236 -33.387 33.485 -31.515 Q33.734 -29.642 34.359 -27.521 L23.854 -19.64 L28.346 -11.804 L40.491 -17.024 Q43.468 -14.024 47.171 -12.024 Q50.875 -10.024 55.032 -9.121 V14.536 H46.071 Z"/></g><g id="Regular-M" transform="matrix(1 0 0 1 1394.06 1126)"><path d="M74.375 13.52 Q70.507 13.52 67.754 10.766 Q65 8.013 65 4.145 V-15.855 Q65 -19.722 67.754 -22.476 Q70.507 -25.23 74.375 -25.23 H104.375 Q108.243 -25.23 110.996 -22.476 Q113.75 -19.722 113.75 -15.855 V4.145 Q113.75 8.013 110.996 10.766 Q108.243 13.52 104.375 13.52 H74.375 Z M74.375 4.145 H104.375 Q104.375 4.145 104.375 4.145 Q104.375 4.145 104.375 4.145 V-15.855 Q104.375 -15.855 104.375 -15.855 Q104.375 -15.855 104.375 -15.855 H74.375 Q74.375 -15.855 74.375 -15.855 Q74.375 -15.855 74.375 -15.855 V4.145 Q74.375 4.145 74.375 4.145 Q74.375 4.145 74.375 4.145 Z M55.062 -19.042 Q49.812 -20.667 46.438 -25.029 Q43.062 -29.39 43.062 -35.204 Q43.062 -42.23 48.006 -47.167 Q52.95 -52.105 59.944 -52.105 Q66.938 -52.105 71.875 -47.162 Q76.812 -42.221 76.812 -35.23 Q76.812 -35.23 76.812 -35.199 Q76.812 -35.167 76.812 -35.167 H71.5 Q70.354 -35.167 69.365 -35.042 Q68.375 -34.917 67.375 -34.605 Q67.375 -34.801 67.375 -34.949 Q67.375 -35.096 67.375 -35.292 Q67.375 -38.444 65.233 -40.587 Q63.089 -42.73 59.938 -42.73 Q56.812 -42.73 54.625 -40.542 Q52.438 -38.355 52.438 -35.23 Q52.438 -32.667 53.965 -30.676 Q55.492 -28.685 57.938 -28.042 Q57.938 -28.042 57.938 -28.042 Q57.938 -28.042 57.938 -28.042 Q56.625 -26.105 55.875 -23.824 Q55.125 -21.542 55.062 -19.042 Z M46.938 13.52  44.938 -2.042 Q43.312 -2.73 41.656 -3.636 Q40 -4.542 38.625 -5.542 L24.188 0.458 L11.062 -22.292 L23.688 -31.855 Q23.562 -32.665 23.562 -33.416 Q23.562 -34.167 23.562 -35.23 Q23.562 -35.98 23.594 -36.855 Q23.625 -37.73 23.75 -38.855 L11.062 -48.292 L24.188 -70.917 L38.812 -64.792 Q40.062 -65.792 41.594 -66.667 Q43.125 -67.542 44.938 -68.292 L46.938 -84.105 H73.062 L75.062 -68.48 Q76.812 -67.792 78.281 -66.886 Q79.75 -65.98 81.125 -64.792 L95.812 -70.917 L108.938 -48.292 L95.938 -38.6 Q96.062 -37.73 96.062 -36.98 Q96.062 -36.23 96.062 -35.167 Q96.062 -35.167 96.062 -35.167 Q96.062 -35.167 96.062 -35.167 H86.688 Q86.688 -35.167 86.688 -35.167 Q86.688 -35.167 86.688 -35.167 Q86.625 -37.48 86.375 -39.199 Q86.125 -40.917 85.625 -42.574 L96.5 -50.855 L91.812 -59.23 L79.188 -53.855 Q76.75 -56.48 73.438 -58.417 Q70.125 -60.355 66.562 -61.292 L64.946 -74.73 H55.125 L53.438 -61.355 Q49.438 -60.292 46.438 -58.574 Q43.438 -56.855 40.5 -53.98 L28.188 -59.23 L23.375 -50.855 L34.062 -42.917 Q33.438 -40.917 33.188 -39.105 Q32.938 -37.292 32.938 -35.296 Q32.938 -33.417 33.156 -31.605 Q33.375 -29.792 34 -27.73 L23.375 -19.73 L28.198 -11.355 L40.438 -16.605 Q43.438 -13.605 47.156 -11.605 Q50.875 -9.605 55.062 -8.792 V13.52 H46.938 Z"/></g><g id="Light-M" transform="matrix(1 0 0 1 1098.18 1126)"><path d="M73.534 11.26 Q69.979 11.26 67.49 8.771 Q65 6.281 65 2.726 V-16.696 Q65 -20.251 67.49 -22.74 Q69.979 -25.23 73.534 -25.23 H102.956 Q106.511 -25.23 109.001 -22.74 Q111.49 -20.251 111.49 -16.696 V2.726 Q111.49 6.281 109.001 8.771 Q106.511 11.26 102.956 11.26 H73.534 Z M73.534 4.265 H102.956 Q103.63 4.265 104.062 3.833 Q104.495 3.4 104.495 2.726 V-16.696 Q104.495 -17.37 104.062 -17.802 Q103.63 -18.235 102.956 -18.235 H73.534 Q72.86 -18.235 72.427 -17.802 Q71.995 -17.37 71.995 -16.696 V2.726 Q71.995 3.4 72.427 3.833 Q72.86 4.265 73.534 4.265 Z M55.303 -21.446 Q50.919 -22.904 48.12 -26.615 Q45.322 -30.327 45.322 -35.212 Q45.322 -41.269 49.545 -45.496 Q53.767 -49.725 59.824 -49.725 Q65.735 -49.725 69.94 -45.589 Q74.144 -41.451 74.312 -35.566 Q74.312 -35.566 74.312 -35.547 Q74.312 -35.527 74.312 -35.527 H71.019 Q69.978 -35.48 69.096 -35.367 Q68.216 -35.254 67.279 -34.965 Q67.279 -35.08 67.279 -35.165 Q67.279 -35.25 67.279 -35.365 Q67.231 -38.457 65.071 -40.594 Q62.91 -42.73 59.818 -42.73 Q56.693 -42.73 54.505 -40.542 Q52.318 -38.355 52.318 -35.23 Q52.318 -32.715 53.797 -30.736 Q55.276 -28.757 57.601 -28.066 Q57.601 -28.066 57.601 -28.066 Q57.601 -28.066 57.601 -28.066 Q56.625 -26.61 56.045 -24.931 Q55.465 -23.251 55.303 -21.446 Z M49.029 11.26  47.125 -3.629 Q45.091 -4.341 42.81 -5.584 Q40.529 -6.826 38.859 -8.211 L25.125 -2.451 L14.091 -21.644 L26.091 -30.701 Q25.895 -31.775 25.834 -32.839 Q25.774 -33.902 25.774 -35.182 Q25.774 -36.149 25.865 -37.3 Q25.957 -38.451 26.13 -39.961 L14.091 -48.941 L25.125 -67.936 L38.981 -62.124 Q40.688 -63.532 42.76 -64.732 Q44.831 -65.931 47.078 -66.754 L49.029 -81.821 H70.995 L72.899 -66.845 Q75.226 -65.99 77.079 -64.866 Q78.933 -63.744 80.789 -62.124 L94.899 -67.936 L105.933 -48.941 L93.438 -39.61 Q93.683 -38.404 93.719 -37.401 Q93.755 -36.399 93.755 -35.191 Q93.755 -35.191 93.755 -35.191 Q93.755 -35.191 93.755 -35.191 H86.664 Q86.664 -35.191 86.664 -35.191 Q86.664 -35.191 86.664 -35.191 Q86.625 -37.407 86.375 -39.062 Q86.125 -40.717 85.625 -42.477 L96.669 -50.879 L91.909 -59.277 L79.14 -53.879 Q76.87 -56.36 73.365 -58.417 Q69.86 -60.475 66.539 -61.292 L64.968 -74.826 H55.078 L53.485 -61.377 Q49.534 -60.412 46.546 -58.73 Q43.557 -57.047 40.476 -54.004 L28.115 -59.277 L23.231 -50.879 L33.99 -42.894 Q33.365 -41.014 33.115 -39.137 Q32.865 -37.261 32.865 -35.249 Q32.865 -33.37 33.084 -31.557 Q33.303 -29.745 33.88 -27.754 L23.231 -19.682 L28.115 -11.282 L40.39 -16.532 Q43.39 -13.557 47.133 -11.592 Q50.875 -9.629 55.062 -8.745 V11.26 H49.029 Z"/></g><g id="Thin-M" transform="matrix(1 0 0 1 802.565 1126)"><path d="M72.692 9.001 Q69.45 9.001 67.225 6.776 Q65 4.551 65 1.309 V-17.537 Q65 -20.78 67.225 -23.005 Q69.45 -25.23 72.692 -25.23 H101.539 Q104.781 -25.23 107.006 -23.005 Q109.231 -20.78 109.231 -17.537 V1.309 Q109.231 4.551 107.006 6.776 Q104.781 9.001 101.539 9.001 H72.692 Z M72.692 4.385 H101.539 Q102.885 4.385 103.75 3.52 Q104.615 2.655 104.615 1.309 V-17.537 Q104.615 -18.884 103.75 -19.749 Q102.885 -20.615 101.539 -20.615 H72.692 Q71.346 -20.615 70.481 -19.749 Q69.615 -18.884 69.615 -17.537 V1.309 Q69.615 2.655 70.481 3.52 Q71.346 4.385 72.692 4.385 Z M55.544 -23.85 Q52.024 -25.139 49.803 -28.202 Q47.581 -31.265 47.581 -35.221 Q47.581 -40.307 51.084 -43.826 Q54.585 -47.345 59.704 -47.345 Q64.534 -47.345 68.005 -44.014 Q71.476 -40.682 71.812 -35.902 Q71.812 -35.902 71.812 -35.896 Q71.812 -35.889 71.812 -35.889 H70.539 Q69.6 -35.792 68.829 -35.691 Q68.058 -35.59 67.183 -35.326 Q67.183 -35.357 67.183 -35.381 Q67.183 -35.405 67.183 -35.436 Q67.086 -38.471 64.909 -40.601 Q62.733 -42.73 59.697 -42.73 Q56.572 -42.73 54.385 -40.542 Q52.197 -38.355 52.197 -35.23 Q52.197 -32.764 53.629 -30.796 Q55.06 -28.829 57.265 -28.09 Q57.265 -28.09 57.265 -28.09 Q57.265 -28.09 57.265 -28.09 Q56.625 -27.115 56.215 -26.037 Q55.805 -24.961 55.544 -23.85 Z M51.12 9.001  49.312 -5.215 Q46.87 -5.951 43.964 -7.53 Q41.057 -9.11 39.094 -10.879 L26.062 -5.36 L17.12 -20.995 L28.495 -29.547 Q28.226 -30.885 28.106 -32.262 Q27.985 -33.639 27.985 -35.134 Q27.985 -36.316 28.137 -37.745 Q28.289 -39.172 28.51 -41.066 L17.12 -49.59 L26.062 -64.956 L39.149 -59.456 Q41.312 -61.274 43.925 -62.797 Q46.539 -64.321 49.216 -65.215 L51.12 -79.537 H68.927 L70.735 -65.211 Q73.64 -64.186 75.877 -62.847 Q78.115 -61.509 80.453 -59.456 L93.985 -64.956 L102.927 -49.59 L90.938 -40.619 Q91.302 -39.076 91.375 -37.821 Q91.448 -36.566 91.448 -35.215 Q91.448 -35.215 91.448 -35.215 Q91.448 -35.215 91.448 -35.215 H86.64 Q86.64 -35.215 86.64 -35.215 Q86.64 -35.215 86.64 -35.215 Q86.625 -37.336 86.375 -38.927 Q86.125 -40.517 85.625 -42.381 L96.836 -50.902 L92.005 -59.326 L79.091 -53.902 Q76.99 -56.24 73.294 -58.417 Q69.596 -60.595 66.515 -61.292 L64.987 -74.922 H55.029 L53.534 -61.4 Q49.63 -60.532 46.654 -58.886 Q43.678 -57.24 40.453 -54.027 L28.044 -59.326 L23.086 -50.902 L33.919 -42.87 Q33.294 -41.11 33.044 -39.17 Q32.794 -37.231 32.794 -35.2 Q32.794 -33.321 33.013 -31.509 Q33.231 -29.696 33.76 -27.777 L23.086 -19.634 L28.032 -11.211 L40.341 -16.461 Q43.341 -13.509 47.109 -11.581 Q50.875 -9.652 55.062 -8.696 V9.001 H51.12 Z"/></g><g id="Ultralight-M" transform="matrix(1 0 0 1 506.415 1126)"><path d="M72.188 7.645 Q69.132 7.645 67.066 5.579 Q65 3.513 65 0.458 V-18.042 Q65 -21.097 67.066 -23.164 Q69.132 -25.23 72.188 -25.23 H100.688 Q103.743 -25.23 105.809 -23.164 Q107.875 -21.097 107.875 -18.042 V0.458 Q107.875 3.513 105.809 5.579 Q103.743 7.645 100.688 7.645 H72.188 Z M72.188 4.458 H100.688 Q102.438 4.458 103.562 3.333 Q104.688 2.208 104.688 0.458 V-18.042 Q104.688 -19.792 103.562 -20.917 Q102.438 -22.042 100.688 -22.042 H72.188 Q70.438 -22.042 69.312 -20.917 Q68.188 -19.792 68.188 -18.042 V0.458 Q68.188 2.208 69.312 3.333 Q70.438 4.458 72.188 4.458 Z M55.688 -25.292 Q52.688 -26.48 50.812 -29.154 Q48.938 -31.829 48.938 -35.227 Q48.938 -39.73 52.006 -42.824 Q55.075 -45.917 59.631 -45.917 Q63.812 -45.917 66.844 -43.069 Q69.875 -40.221 70.312 -36.105 Q70.312 -36.105 70.312 -36.105 Q70.312 -36.105 70.312 -36.105 H70.25 Q69.374 -35.98 68.668 -35.886 Q67.961 -35.792 67.125 -35.542 Q67.125 -35.525 67.125 -35.511 Q67.125 -35.497 67.125 -35.48 Q67 -38.48 64.812 -40.605 Q62.625 -42.73 59.625 -42.73 Q56.5 -42.73 54.312 -40.542 Q52.125 -38.355 52.125 -35.23 Q52.125 -32.792 53.528 -30.832 Q54.93 -28.872 57.062 -28.105 Q57.062 -28.105 57.062 -28.105 Q57.062 -28.105 57.062 -28.105 Q56.625 -27.417 56.316 -26.701 Q56.009 -25.986 55.688 -25.292 Z M52.375 7.645  50.625 -6.167 Q47.938 -6.917 44.656 -8.699 Q41.375 -10.48 39.234 -12.48 L26.625 -7.105 L18.938 -20.605 L29.938 -28.855 Q29.625 -30.352 29.469 -31.916 Q29.312 -33.48 29.312 -35.105 Q29.312 -36.417 29.5 -38.011 Q29.688 -39.605 29.938 -41.73 L18.938 -49.98 L26.625 -63.167 L39.25 -57.855 Q41.688 -59.917 44.625 -61.636 Q47.562 -63.355 50.5 -64.292 L52.375 -78.167 H67.688 L69.438 -64.23 Q72.688 -63.105 75.156 -61.636 Q77.625 -60.167 80.25 -57.855 L93.438 -63.167 L101.125 -49.98 L89.438 -41.225 Q89.875 -39.48 89.969 -38.074 Q90.062 -36.667 90.062 -35.23 Q90.062 -35.23 90.062 -35.23 Q90.062 -35.23 90.062 -35.23 H86.625 Q86.625 -35.23 86.625 -35.23 Q86.625 -35.23 86.625 -35.23 Q86.625 -37.292 86.375 -38.845 Q86.125 -40.399 85.625 -42.324 L96.938 -50.917 L92.062 -59.355 L79.062 -53.917 Q77.062 -56.167 73.25 -58.417 Q69.438 -60.667 66.5 -61.292 L65 -74.98 H55 L53.562 -61.412 Q49.688 -60.605 46.719 -58.98 Q43.75 -57.355 40.438 -54.042 L28 -59.355 L23 -50.917 L33.875 -42.855 Q33.25 -41.167 33 -39.19 Q32.75 -37.212 32.75 -35.171 Q32.75 -33.292 32.969 -31.48 Q33.188 -29.667 33.688 -27.792 L23 -19.605 L27.983 -11.167 L40.312 -16.417 Q43.312 -13.48 47.094 -11.574 Q50.875 -9.667 55.062 -8.667 V7.645 H52.375 Z"/></g><g id="Bold-S" transform="matrix(1 0 0 1 2294.23 696)"><path d="M63.219 5.009 Q58.195 5.009 55.134 1.949 Q52.074 -1.112 52.074 -6.136 V-14.617 Q52.074 -19.641 55.134 -22.702 Q58.195 -25.762 63.219 -25.762 H81.76 Q86.784 -25.762 89.844 -22.702 Q92.905 -19.641 92.905 -14.617 V-6.136 Q92.905 -1.112 89.844 1.949 Q86.784 5.009 81.76 5.009 H63.219 Z M63.219 -6.136 H81.76 Q81.76 -6.136 81.76 -6.136 Q81.76 -6.136 81.76 -6.136 V-14.617 Q81.76 -14.617 81.76 -14.617 Q81.76 -14.617 81.76 -14.617 H63.219 Q63.219 -14.617 63.219 -14.617 Q63.219 -14.617 63.219 -14.617 V-6.136 Q63.219 -6.136 63.219 -6.136 Q63.219 -6.136 63.219 -6.136 Z M45.22 -21.077 Q39.894 -21.57 36.245 -25.643 Q32.596 -29.715 32.596 -35.209 Q32.596 -41.154 36.738 -45.294 Q40.88 -49.432 46.798 -49.432 Q52.715 -49.432 56.808 -45.335 Q60.901 -41.239 61 -35.329 Q61 -34.737 60.95 -34.12 Q60.901 -33.504 60.802 -32.912 H59.865 Q57.58 -32.912 55.419 -32.271 Q53.258 -31.63 51.482 -30.397 Q52.173 -31.44 52.518 -32.592 Q52.863 -33.744 52.863 -35.082 Q52.863 -37.602 51.097 -39.375 Q49.331 -41.147 46.821 -41.147 Q44.332 -41.147 42.606 -39.422 Q40.88 -37.696 40.88 -35.23 Q40.88 -32.419 43.072 -30.454 Q45.263 -28.488 48.178 -28.967 Q48.77 -28.967 49.165 -29.017 Q49.559 -29.066 50.052 -29.263 Q48.326 -27.734 47.044 -25.589 Q45.762 -23.444 45.22 -21.077 Z M37.428 5.009  35.061 -6.974 Q33.54 -7.626 31.909 -8.434 Q30.278 -9.242 28.996 -10.327 L17.506 -6.382 L7.446 -24.036 L16.618 -31.975 Q16.52 -32.695 16.421 -33.449 Q16.322 -34.203 16.322 -35.221 Q16.322 -35.993 16.446 -36.844 Q16.569 -37.696 16.668 -38.682 L7.446 -46.621 L17.506 -63.979 L29.341 -59.936 Q30.524 -61.02 31.881 -61.76 Q33.237 -62.5 35.061 -63.19 L37.428 -75.568 H57.252 L59.619 -63.338 Q61.238 -62.713 62.722 -61.941 Q64.205 -61.168 65.487 -59.936 L77.174 -63.881 L87.234 -46.523 L77.667 -38.481 Q77.766 -37.794 77.864 -37.005 Q77.963 -36.216 77.963 -35.279 Q77.963 -34.688 77.914 -34.096 Q77.864 -33.504 77.766 -32.912 H66.523 Q66.621 -33.504 66.671 -34.096 Q66.72 -34.688 66.72 -35.279 Q66.868 -37.104 66.424 -39.002 Q65.98 -40.901 65.29 -42.799 L72.785 -49.333 L72.144 -50.418 L62.676 -47.164 Q60.358 -50.221 56.956 -52.243 Q53.553 -54.265 49.855 -54.708 L47.988 -64.423 H46.551 L44.924 -54.856 Q40.781 -54.215 37.527 -52.366 Q34.272 -50.517 31.56 -47.164 L22.437 -50.418 L21.796 -49.333 L28.848 -43.071 Q28.256 -41 27.812 -39.098 Q27.368 -37.198 27.368 -35.282 Q27.368 -33.307 27.738 -31.334 Q28.108 -29.362 28.7 -27.34 L21.796 -21.225 L22.346 -20.14 L31.39 -23.198 Q33.976 -20.14 37.502 -18.365 Q41.028 -16.59 44.924 -15.554 V5.009 H37.428 Z"/></g><g id="Semibold-S" transform="matrix(1 0 0 1 1998.1 696)"><path d="M61.246 3.551 Q57.08 3.551 54.577 1.048 Q52.074 -1.455 52.074 -5.621 V-16.59 Q52.074 -20.756 54.577 -23.259 Q57.08 -25.762 61.246 -25.762 H82.018 Q86.183 -25.762 88.687 -23.259 Q91.19 -20.756 91.19 -16.59 V-5.621 Q91.19 -1.455 88.687 1.048 Q86.183 3.551 82.018 3.551 H61.246 Z M61.246 -5.621 H82.018 Q82.018 -5.621 82.018 -5.621 Q82.018 -5.621 82.018 -5.621 V-16.59 Q82.018 -16.59 82.018 -16.59 Q82.018 -16.59 82.018 -16.59 H61.246 Q61.246 -16.59 61.246 -16.59 Q61.246 -16.59 61.246 -16.59 V-5.621 Q61.246 -5.621 61.246 -5.621 Q61.246 -5.621 61.246 -5.621 Z M45.134 -21.335 Q39.98 -21.914 36.459 -25.882 Q32.939 -29.852 32.939 -35.209 Q32.939 -41.066 37.019 -45.142 Q41.099 -49.218 46.929 -49.218 Q52.757 -49.218 56.808 -45.164 Q60.859 -41.11 60.914 -35.286 Q60.914 -34.694 60.864 -34.078 Q60.815 -33.462 60.717 -32.87 H58.45 Q56.809 -32.87 55.269 -32.465 Q53.729 -32.059 52.425 -31.298 Q52.945 -32.169 53.204 -33.107 Q53.464 -34.044 53.464 -35.124 Q53.464 -37.845 51.558 -39.753 Q49.654 -41.662 46.94 -41.662 Q44.246 -41.662 42.37 -39.786 Q40.494 -37.91 40.494 -35.23 Q40.494 -32.377 42.622 -30.346 Q44.749 -28.316 47.663 -28.582 Q48.041 -28.582 48.286 -28.609 Q48.53 -28.637 48.852 -28.748 Q47.468 -27.305 46.487 -25.375 Q45.505 -23.444 45.134 -21.335 Z M38.672 3.551  36.391 -7.96 Q34.544 -8.735 32.626 -9.718 Q30.707 -10.7 29.167 -12 L18.107 -8.269 L9.333 -23.607 L18.162 -31.289 Q18.021 -32.188 17.922 -33.109 Q17.824 -34.028 17.824 -35.225 Q17.824 -36.176 17.947 -37.194 Q18.07 -38.21 18.211 -39.368 L9.333 -47.05 L18.107 -62.178 L29.427 -58.306 Q30.868 -59.605 32.567 -60.538 Q34.265 -61.471 36.391 -62.29 L38.672 -74.11 H56.008 L58.289 -62.438 Q60.234 -61.677 62.005 -60.715 Q63.776 -59.753 65.315 -58.306 L76.573 -62.08 L85.347 -46.952 L76.166 -39.166 Q76.308 -38.266 76.407 -37.327 Q76.505 -36.388 76.505 -35.237 Q76.505 -34.645 76.456 -34.053 Q76.407 -33.462 76.308 -32.87 H67.08 Q67.178 -33.462 67.228 -34.053 Q67.277 -34.645 67.277 -35.237 Q67.383 -37.018 66.981 -38.874 Q66.581 -40.729 65.933 -42.585 L73.472 -49.205 L72.402 -51.061 L62.848 -47.807 Q60.53 -50.736 57.235 -52.693 Q53.939 -54.65 50.326 -55.137 L48.459 -64.938 H46.122 L44.409 -55.242 Q40.396 -54.559 37.269 -52.773 Q34.144 -50.988 31.474 -47.807 L22.223 -51.061 L21.11 -49.205 L28.333 -42.813 Q27.741 -40.828 27.341 -38.982 Q26.939 -37.135 26.939 -35.282 Q26.939 -33.349 27.267 -31.463 Q27.593 -29.576 28.185 -27.64 L21.11 -21.353 L22.131 -19.497 L31.314 -22.597 Q33.934 -19.54 37.48 -17.764 Q41.028 -15.989 44.966 -15.083 V3.551 H38.672 Z"/></g><g id="Medium-S" transform="matrix(1 0 0 1 1701.85 696)"><path d="M59.767 2.458 Q56.244 2.458 54.159 0.373 Q52.074 -1.712 52.074 -5.235 V-18.069 Q52.074 -21.592 54.159 -23.677 Q56.244 -25.762 59.767 -25.762 H82.211 Q85.734 -25.762 87.819 -23.677 Q89.904 -21.592 89.904 -18.069 V-5.235 Q89.904 -1.712 87.819 0.373 Q85.734 2.458 82.211 2.458 H59.767 Z M59.767 -5.235 H82.211 Q82.211 -5.235 82.211 -5.235 Q82.211 -5.235 82.211 -5.235 V-18.069 Q82.211 -18.069 82.211 -18.069 Q82.211 -18.069 82.211 -18.069 H59.767 Q59.767 -18.069 59.767 -18.069 Q59.767 -18.069 59.767 -18.069 V-5.235 Q59.767 -5.235 59.767 -5.235 Q59.767 -5.235 59.767 -5.235 Z M45.07 -21.528 Q40.044 -22.171 36.619 -26.063 Q33.196 -29.955 33.196 -35.209 Q33.196 -41 37.229 -45.028 Q41.263 -49.057 47.026 -49.057 Q52.79 -49.057 56.808 -45.035 Q60.826 -41.014 60.85 -35.254 Q60.85 -34.662 60.8 -34.046 Q60.751 -33.429 60.652 -32.837 H57.389 Q56.23 -32.837 55.156 -32.609 Q54.083 -32.381 53.133 -31.973 Q53.524 -32.716 53.718 -33.492 Q53.913 -34.268 53.913 -35.157 Q53.913 -38.027 51.904 -40.037 Q49.895 -42.048 47.028 -42.048 Q44.182 -42.048 42.194 -40.06 Q40.204 -38.07 40.204 -35.23 Q40.204 -32.344 42.283 -30.266 Q44.363 -28.188 47.278 -28.292 Q47.495 -28.292 47.626 -28.304 Q47.758 -28.315 47.951 -28.363 Q46.825 -26.984 46.069 -25.215 Q45.311 -23.444 45.07 -21.528 Z M39.605 2.458  37.388 -8.7 Q35.298 -9.569 33.163 -10.681 Q31.028 -11.794 29.296 -13.253 L18.556 -9.684 L10.748 -23.286 L19.32 -30.775 Q19.146 -31.808 19.047 -32.852 Q18.949 -33.897 18.949 -35.228 Q18.949 -36.313 19.072 -37.455 Q19.195 -38.596 19.369 -39.882 L10.748 -47.372 L18.556 -60.827 L29.491 -57.084 Q31.125 -58.544 33.081 -59.622 Q35.038 -60.699 37.388 -61.614 L39.605 -73.016 H55.075 L57.292 -61.762 Q59.481 -60.9 61.468 -59.796 Q63.454 -58.692 65.187 -57.084 L76.124 -60.729 L83.932 -47.273 L75.041 -39.681 Q75.214 -38.62 75.313 -37.568 Q75.412 -36.516 75.412 -35.204 Q75.412 -34.613 75.362 -34.021 Q75.313 -33.429 75.214 -32.837 H67.498 Q67.597 -33.429 67.646 -34.021 Q67.695 -34.613 67.695 -35.204 Q67.768 -36.954 67.399 -38.778 Q67.03 -40.601 66.415 -42.425 L73.986 -49.109 L72.595 -51.544 L62.976 -48.289 Q60.658 -51.121 57.444 -53.031 Q54.229 -54.94 50.68 -55.459 L48.813 -65.323 H45.8 L44.023 -55.532 Q40.106 -54.816 37.076 -53.079 Q34.047 -51.342 31.41 -48.289 L22.062 -51.544 L20.596 -49.109 L27.947 -42.62 Q27.356 -40.7 26.987 -38.894 Q26.618 -37.089 26.618 -35.282 Q26.618 -33.382 26.913 -31.559 Q27.208 -29.737 27.799 -27.866 L20.596 -21.45 L21.971 -19.015 L31.257 -22.147 Q33.901 -19.09 37.465 -17.315 Q41.028 -15.54 44.999 -14.729 V2.458 H39.605 Z"/></g><g id="Regular-S" transform="matrix(1 0 0 1 1405.73 696)"><path d="M58.682 1.656 Q55.63 1.656 53.852 -0.122 Q52.074 -1.901 52.074 -4.952 V-19.154 Q52.074 -22.206 53.852 -23.984 Q55.63 -25.762 58.682 -25.762 H82.352 Q85.403 -25.762 87.182 -23.984 Q88.96 -22.206 88.96 -19.154 V-4.952 Q88.96 -1.901 87.182 -0.122 Q85.403 1.656 82.352 1.656 H58.682 Z M58.682 -4.952 H82.352 Q82.352 -4.952 82.352 -4.952 Q82.352 -4.952 82.352 -4.952 V-19.154 Q82.352 -19.154 82.352 -19.154 Q82.352 -19.154 82.352 -19.154 H58.682 Q58.682 -19.154 58.682 -19.154 Q58.682 -19.154 58.682 -19.154 V-4.952 Q58.682 -4.952 58.682 -4.952 Q58.682 -4.952 58.682 -4.952 Z M45.022 -21.669 Q40.091 -22.359 36.738 -26.195 Q33.385 -30.03 33.385 -35.209 Q33.385 -40.95 37.384 -44.945 Q41.383 -48.939 47.098 -48.939 Q52.814 -48.939 56.808 -44.941 Q60.802 -40.943 60.802 -35.23 Q60.802 -34.638 60.753 -34.022 Q60.704 -33.405 60.605 -32.814 H56.611 Q55.805 -32.814 55.074 -32.715 Q54.342 -32.616 53.652 -32.468 Q53.948 -33.116 54.096 -33.775 Q54.244 -34.434 54.244 -35.181 Q54.244 -38.16 52.159 -40.246 Q50.073 -42.331 47.093 -42.331 Q44.135 -42.331 42.064 -40.26 Q39.992 -38.189 39.992 -35.23 Q39.992 -32.321 42.036 -30.207 Q44.079 -28.093 46.995 -28.08 Q47.093 -28.08 47.143 -28.08 Q47.192 -28.08 47.291 -28.08 Q46.354 -26.748 45.762 -25.096 Q45.17 -23.444 45.022 -21.669 Z M40.288 1.656  38.119 -9.242 Q35.85 -10.179 33.557 -11.387 Q31.264 -12.596 29.39 -14.174 L18.887 -10.722 L11.786 -23.05 L20.169 -30.397 Q19.972 -31.53 19.873 -32.665 Q19.774 -33.8 19.774 -35.23 Q19.774 -36.413 19.898 -37.646 Q20.021 -38.879 20.218 -40.26 L11.786 -47.607 L18.887 -59.837 L29.538 -56.188 Q31.313 -57.766 33.459 -58.949 Q35.604 -60.133 38.119 -61.119 L40.288 -72.214 H54.392 L56.561 -61.267 Q58.928 -60.33 61.074 -59.122 Q63.219 -57.914 65.093 -56.188 L75.793 -59.738 L82.894 -47.509 L74.215 -40.059 Q74.413 -38.879 74.511 -37.745 Q74.61 -36.611 74.61 -35.181 Q74.61 -34.589 74.561 -33.997 Q74.511 -33.405 74.413 -32.814 H67.805 Q67.903 -33.405 67.953 -33.997 Q68.002 -34.589 68.002 -35.181 Q68.051 -36.907 67.706 -38.707 Q67.361 -40.506 66.769 -42.306 L74.363 -49.037 L72.736 -51.898 L63.071 -48.643 Q60.753 -51.404 57.597 -53.278 Q54.441 -55.152 50.94 -55.695 L49.073 -65.606 H45.565 L43.74 -55.744 Q39.894 -55.004 36.935 -53.303 Q33.976 -51.602 31.363 -48.643 L21.944 -51.898 L20.218 -49.037 L27.664 -42.479 Q27.073 -40.605 26.727 -38.83 Q26.382 -37.055 26.382 -35.282 Q26.382 -33.405 26.653 -31.63 Q26.925 -29.855 27.516 -28.03 L20.218 -21.521 L21.853 -18.661 L31.215 -21.817 Q33.878 -18.76 37.453 -16.984 Q41.028 -15.209 45.022 -14.469 V1.656 H40.288 Z"/></g><g id="Light-S" transform="matrix(1 0 0 1 1109.75 696)"><path d="M58.018 -0.127 Q55.213 -0.127 53.644 -1.697 Q52.074 -3.267 52.074 -6.072 V-19.818 Q52.074 -22.623 53.644 -24.192 Q55.213 -25.762 58.018 -25.762 H81.232 Q84.037 -25.762 85.607 -24.192 Q87.177 -22.623 87.177 -19.818 V-6.072 Q87.177 -3.267 85.607 -1.697 Q84.037 -0.127 81.232 -0.127 H58.018 Z M58.018 -4.857 H81.232 Q81.764 -4.857 82.105 -5.199 Q82.447 -5.54 82.447 -6.072 V-19.818 Q82.447 -20.349 82.105 -20.691 Q81.764 -21.032 81.232 -21.032 H58.018 Q57.487 -21.032 57.145 -20.691 Q56.804 -20.349 56.804 -19.818 V-6.072 Q56.804 -5.54 57.145 -5.199 Q57.487 -4.857 58.018 -4.857 Z M45.212 -23.566 Q40.964 -24.124 38.065 -27.447 Q35.168 -30.77 35.168 -35.216 Q35.168 -40.192 38.598 -43.626 Q42.028 -47.061 47.004 -47.061 Q51.865 -47.061 55.281 -43.699 Q58.697 -40.336 58.83 -35.495 Q58.83 -34.904 58.781 -34.297 Q58.731 -33.689 58.633 -33.098 H56.231 Q55.508 -33.06 54.862 -32.971 Q54.217 -32.882 53.576 -32.753 Q53.872 -33.336 54.02 -33.946 Q54.168 -34.555 54.168 -35.238 Q54.13 -38.171 52.032 -40.251 Q49.932 -42.331 46.999 -42.331 Q44.04 -42.331 41.969 -40.26 Q39.898 -38.189 39.898 -35.23 Q39.898 -32.358 41.904 -30.254 Q43.909 -28.151 46.73 -28.098 Q46.828 -28.098 46.877 -28.098 Q46.927 -28.098 47.025 -28.098 Q46.354 -27.147 45.896 -25.97 Q45.439 -24.793 45.212 -23.566 Z M41.938 -0.127  39.845 -10.494 Q37.254 -11.451 34.467 -12.924 Q31.681 -14.397 29.575 -16.279 L19.626 -13.017 L14.175 -22.538 L22.065 -29.487 Q21.812 -30.827 21.665 -32.209 Q21.519 -33.591 21.519 -35.193 Q21.519 -36.547 21.69 -37.997 Q21.861 -39.448 22.096 -41.133 L14.175 -48.119 L19.626 -57.485 L29.671 -54.082 Q31.807 -55.983 34.379 -57.423 Q36.95 -58.862 39.807 -59.905 L41.938 -70.412 H52.76 L54.854 -59.977 Q57.677 -58.908 60.125 -57.528 Q62.574 -56.149 64.827 -54.082 L75.072 -57.386 L80.523 -48.021 L72.243 -40.856 Q72.535 -39.411 72.662 -38.077 Q72.789 -36.744 72.789 -35.199 Q72.789 -34.608 72.74 -34.016 Q72.691 -33.424 72.592 -32.832 H67.786 Q67.885 -33.424 67.934 -34.016 Q67.983 -34.608 67.983 -35.199 Q68.051 -36.849 67.706 -38.599 Q67.361 -40.349 66.769 -42.23 L74.496 -49.056 L72.812 -51.935 L63.033 -48.662 Q60.848 -51.31 57.54 -53.278 Q54.232 -55.247 50.921 -55.695 L49.09 -65.682 H45.527 L43.778 -55.762 Q39.97 -55.099 37.021 -53.426 Q34.071 -51.754 31.344 -48.662 L21.887 -51.935 L20.105 -49.056 L27.607 -42.46 Q27.015 -40.681 26.67 -38.855 Q26.325 -37.03 26.325 -35.245 Q26.325 -33.368 26.596 -31.593 Q26.867 -29.817 27.422 -28.049 L20.105 -21.484 L21.788 -18.604 L31.177 -21.76 Q33.84 -18.722 37.434 -16.975 Q41.028 -15.228 45.022 -14.432 V-0.127 H41.938 Z"/></g><g id="Thin-S" transform="matrix(1 0 0 1 814.015 696)"><path d="M57.354 -1.91 Q54.796 -1.91 53.435 -3.271 Q52.074 -4.632 52.074 -7.19 V-20.482 Q52.074 -23.04 53.435 -24.401 Q54.796 -25.762 57.354 -25.762 H80.114 Q82.672 -25.762 84.033 -24.401 Q85.394 -23.04 85.394 -20.482 V-7.19 Q85.394 -4.632 84.033 -3.271 Q82.672 -1.91 80.114 -1.91 H57.354 Z M57.354 -4.763 H80.114 Q81.176 -4.763 81.859 -5.445 Q82.541 -6.128 82.541 -7.19 V-20.482 Q82.541 -21.544 81.859 -22.226 Q81.176 -22.91 80.114 -22.91 H57.354 Q56.292 -22.91 55.61 -22.226 Q54.926 -21.544 54.926 -20.482 V-7.19 Q54.926 -6.128 55.61 -5.445 Q56.292 -4.763 57.354 -4.763 Z M45.402 -25.462 Q41.836 -25.887 39.393 -28.699 Q36.95 -31.51 36.95 -35.223 Q36.95 -39.433 39.812 -42.308 Q42.673 -45.183 46.909 -45.183 Q50.917 -45.183 53.755 -42.456 Q56.592 -39.729 56.857 -35.761 Q56.857 -35.169 56.808 -34.572 Q56.759 -33.975 56.66 -33.383 H55.852 Q55.21 -33.307 54.651 -33.227 Q54.092 -33.147 53.5 -33.038 Q53.796 -33.555 53.944 -34.117 Q54.092 -34.678 54.092 -35.294 Q54.016 -38.182 51.903 -40.257 Q49.792 -42.331 46.904 -42.331 Q43.945 -42.331 41.874 -40.26 Q39.803 -38.189 39.803 -35.23 Q39.803 -32.397 41.771 -30.302 Q43.738 -28.207 46.464 -28.117 Q46.563 -28.117 46.612 -28.117 Q46.661 -28.117 46.76 -28.117 Q46.354 -27.545 46.03 -26.843 Q45.707 -26.142 45.402 -25.462 Z M43.588 -1.91  41.57 -11.745 Q38.657 -12.721 35.378 -14.46 Q32.098 -16.199 29.76 -18.384 L20.366 -15.312 L16.565 -22.026 L23.962 -28.577 Q23.651 -30.125 23.458 -31.754 Q23.264 -33.383 23.264 -35.154 Q23.264 -36.679 23.483 -38.349 Q23.701 -40.017 23.974 -42.005 L16.565 -48.631 L20.366 -55.134 L29.803 -51.978 Q32.3 -54.201 35.298 -55.896 Q38.297 -57.591 41.494 -58.691 L43.588 -68.611 H51.129 L53.147 -58.688 Q56.425 -57.485 59.177 -55.935 Q61.929 -54.386 64.562 -51.978 L74.351 -55.035 L78.152 -48.533 L70.27 -41.651 Q70.657 -39.941 70.813 -38.409 Q70.969 -36.876 70.969 -35.218 Q70.969 -34.626 70.919 -34.035 Q70.87 -33.443 70.771 -32.851 H67.767 Q67.866 -33.443 67.915 -34.035 Q67.964 -34.626 67.964 -35.218 Q68.051 -36.793 67.706 -38.493 Q67.361 -40.191 66.769 -42.154 L74.629 -49.075 L72.888 -51.974 L62.995 -48.68 Q60.942 -51.215 57.484 -53.278 Q54.024 -55.342 50.902 -55.695 L49.105 -65.758 H45.489 L43.816 -55.78 Q40.046 -55.194 37.106 -53.55 Q34.166 -51.906 31.325 -48.68 L21.831 -51.974 L19.99 -49.075 L27.551 -42.441 Q26.959 -40.757 26.614 -38.881 Q26.269 -37.006 26.269 -35.206 Q26.269 -33.329 26.54 -31.554 Q26.811 -29.779 27.327 -28.068 L19.99 -21.445 L21.723 -18.548 L31.139 -21.704 Q33.802 -18.684 37.415 -16.966 Q41.028 -15.247 45.022 -14.393 V-1.91 H43.588 Z"/></g><g id="Ultralight-S" transform="matrix(1 0 0 1 517.792 696)"><path d="M56.956 -2.98 Q54.546 -2.98 53.31 -4.215 Q52.074 -5.451 52.074 -7.862 V-20.88 Q52.074 -23.29 53.31 -24.526 Q54.546 -25.762 56.956 -25.762 H79.442 Q81.853 -25.762 83.089 -24.526 Q84.324 -23.29 84.324 -20.88 V-7.862 Q84.324 -5.451 83.089 -4.215 Q81.853 -2.98 79.442 -2.98 H56.956 Z M56.956 -4.706 H79.442 Q80.823 -4.706 81.711 -5.593 Q82.598 -6.481 82.598 -7.862 V-20.88 Q82.598 -22.261 81.711 -23.148 Q80.823 -24.036 79.442 -24.036 H56.956 Q55.575 -24.036 54.688 -23.148 Q53.8 -22.261 53.8 -20.88 V-7.862 Q53.8 -6.481 54.688 -5.593 Q55.575 -4.706 56.956 -4.706 Z M45.515 -26.6 Q42.359 -26.945 40.19 -29.45 Q38.02 -31.955 38.02 -35.228 Q38.02 -38.978 40.54 -41.517 Q43.06 -44.057 46.852 -44.057 Q50.348 -44.057 52.838 -41.711 Q55.329 -39.365 55.674 -35.92 Q55.674 -35.329 55.625 -34.737 Q55.575 -34.145 55.477 -33.553 H55.625 Q55.032 -33.455 54.524 -33.381 Q54.016 -33.307 53.455 -33.208 Q53.751 -33.688 53.899 -34.219 Q54.047 -34.751 54.047 -35.329 Q53.948 -38.189 51.827 -40.26 Q49.707 -42.331 46.847 -42.331 Q43.888 -42.331 41.817 -40.26 Q39.746 -38.189 39.746 -35.23 Q39.746 -32.419 41.691 -30.33 Q43.636 -28.241 46.304 -28.129 Q46.403 -28.129 46.452 -28.129 Q46.502 -28.129 46.6 -28.129 Q46.354 -27.784 46.11 -27.367 Q45.868 -26.95 45.515 -26.6 Z M44.579 -2.98  42.606 -12.497 Q39.499 -13.483 35.924 -15.382 Q32.349 -17.28 29.871 -19.647 L20.81 -16.688 L17.999 -21.718 L25.1 -28.03 Q24.755 -29.705 24.533 -31.481 Q24.311 -33.257 24.311 -35.131 Q24.311 -36.759 24.558 -38.559 Q24.804 -40.358 25.1 -42.528 L17.999 -48.939 L20.81 -53.722 L29.883 -50.714 Q32.596 -53.13 35.85 -54.98 Q39.105 -56.829 42.507 -57.963 L44.579 -67.53 H50.151 L52.123 -57.914 Q55.674 -56.632 58.608 -54.98 Q61.542 -53.328 64.402 -50.714 L73.919 -53.624 L76.73 -48.84 L69.087 -42.13 Q69.531 -40.26 69.703 -38.608 Q69.876 -36.956 69.876 -35.23 Q69.876 -34.638 69.827 -34.046 Q69.777 -33.455 69.679 -32.863 H67.755 Q67.854 -33.455 67.903 -34.046 Q67.953 -34.638 67.953 -35.23 Q68.051 -36.759 67.706 -38.427 Q67.361 -40.097 66.769 -42.109 L74.708 -49.087 L72.933 -51.996 L62.972 -48.692 Q61 -51.158 57.449 -53.278 Q53.899 -55.399 50.891 -55.695 L49.115 -65.804 H45.466 L43.839 -55.789 Q40.091 -55.251 37.157 -53.624 Q34.223 -51.996 31.313 -48.692 L21.796 -51.996 L19.922 -49.087 L27.516 -42.43 Q26.925 -40.802 26.579 -38.897 Q26.234 -36.991 26.234 -35.184 Q26.234 -33.307 26.505 -31.532 Q26.777 -29.756 27.27 -28.08 L19.922 -21.422 L21.684 -18.513 L31.116 -21.669 Q33.779 -18.661 37.404 -16.96 Q41.028 -15.258 45.022 -14.371 V-2.98 H44.579 Z"/></g></g></svg>