<svg xmlns="http://www.w3.org/2000/svg" height="40" viewBox="0 -960 960 960" width="40"><path d="M582.56-100q-25.78 0-44.17-18.39T520-162.57v-174.87q0-25.78 18.39-44.17T582.56-400h254.87q25.79 0 44.18 18.39T900-337.44v174.87q0 25.79-18.39 44.18T837.43-100H582.56Zm0-50.26h254.87q5.39 0 8.85-3.46t3.46-8.85v-174.87q0-5.38-3.46-8.84-3.46-3.47-8.85-3.47H582.56q-5.38 0-8.84 3.47-3.47 3.46-3.47 8.84v174.87q0 5.39 3.47 8.85 3.46 3.46 8.84 3.46ZM449.77-369.39q-36.77-9.48-61.14-40.1-24.37-30.61-24.37-70.92 0-48.11 33.74-81.41 33.75-33.31 81.58-33.31 47.06 0 80.21 32.54 33.16 32.54 34.31 79.49 0 2.3-.2 4.95-.21 2.64-.62 5.2h-28q-6.23.39-11.71.95-5.49.56-11.16 2.1.82-2.72 1.03-5.2.2-2.49.2-5.87-.13-26.52-18.74-45.21-18.62-18.69-45.32-18.69-27.09 0-46.08 18.8t-18.99 45.66q0 23.37 14.76 41.08 14.76 17.71 36.83 22.28-7.08 10.15-11.03 22.28-3.94 12.13-5.3 25.38Zm29.61-111.02ZM396.36-100l-17.13-120.77q-19.05-6.46-40.47-18.59-21.43-12.13-37.3-25.77l-112.18 49.85-84.05-147.54L205.16-437q-1.8-10-2.58-21.31-.78-11.31-.78-21.31 0-9.61.78-20.85.78-11.25 2.58-22.53l-99.93-74.44 84.05-146.51 111.8 49.21q17.02-13.77 37.78-25.71 20.76-11.93 39.99-18.11L396.36-860h167.28l17.13 121.15q20.72 7.62 40.29 18.58 19.58 10.96 36.32 25.53l113.59-49.21 83.8 146.51-101.46 74.52q2.15 11.18 2.55 22.04.39 10.85.39 20.47h-51.02q-.2-18.9-2.2-33.23-2-14.33-5.75-29.18l91.34-68.05-39.8-69.9-103.92 44.28q-20.75-22.95-49.94-40.48-29.19-17.54-59.78-22.65l-13.56-110.12h-83.31L425.08-700q-32.36 6.82-59.64 22.49-27.29 15.66-51.23 40.43l-103.03-43.69-39.8 69.9 90.44 66.69q-4.59 15.31-6.79 31.31-2.21 16-2.21 33.13 0 16.67 2.21 32.15 2.2 15.49 6.41 31.18l-90.06 67.28 39.8 69.9 102.64-43.9q24.82 25.18 56.71 41.86 31.88 16.68 67.57 24.06V-100h-41.74Zm83.02-380.41Z"/></svg>