<svg xmlns="http://www.w3.org/2000/svg" height="24" viewBox="0 -960 960 960" width="24"><path d="M592.31-100Q562-100 541-121q-21-21-21-51.31v-155.38Q520-358 541-379q21-21 51.31-21h235.38Q858-400 879-379q21 21 21 51.31v155.38Q900-142 879-121q-21 21-51.31 21H592.31Zm0-60h235.38q5.39 0 8.85-3.46t3.46-8.85v-155.38q0-5.39-3.46-8.85t-8.85-3.46H592.31q-5.39 0-8.85 3.46t-3.46 8.85v155.38q0 5.39 3.46 8.85t8.85 3.46Zm-204.62 60-15.23-121.85q-16.07-5.38-32.96-15.07-16.88-9.7-30.19-20.77L196.46-210l-92.3-160 97.61-73.77q-1.38-8.92-1.96-17.92-.58-9-.58-17.93 0-8.53.58-17.34t1.96-19.27L104.16-590l92.3-159.23 112.46 47.31q14.47-11.46 30.89-20.96t32.27-15.27L387.69-860h184.62l15.23 122.23q18 6.54 32.57 15.27 14.58 8.73 29.43 20.58l114-47.31L855.84-590l-99.15 74.92q2.15 9.69 2.35 18.12.19 8.42.19 16.96H600.69v-.38q0-49.54-35.54-84.58T480.08-600q-50.16 0-84.89 34.73-34.73 34.73-34.73 84.89 0 39.53 22.12 69.96Q404.69-380 440-367.16V-100h-52.31Z"/></svg>