<svg xmlns="http://www.w3.org/2000/svg" height="48" viewBox="0 -960 960 960" width="48"><path d="M612-59q-37.59 0-64.79-26.91Q520-112.83 520-150v-159q0-36.13 27.21-63.56Q574.41-400 612-400h242q36.13 0 63.56 27.44Q945-345.13 945-309v159q0 37.17-27.44 64.09Q890.13-59 854-59H612Zm0-91h242v-159H612v159ZM368.51-59 348-192q-14.42-4.11-31.02-14.1-16.6-9.99-27.98-18.9l-124 57L52-368l113-82q-1-5.87-1-14.46v-29.91q0-8.59 1-15.63L52-594l113-198 126.25 57q9.64-7.45 26.69-17.23Q335-762 348-766l20.98-136H592l20 135q15.22 3.89 31.61 13.95Q660-743 671-735l126-57 112 198-115 81q0 6 1.5 16.5T797-482H605q-1-50.6-38-87.8-36.99-37.2-88-37.2-53.84 0-90.42 37.05Q352-532.91 352-480.12q0 41.08 24.05 74.79 24.05 33.72 60.95 44.88V-59h-68.49Z"/></svg>