<svg xmlns="http://www.w3.org/2000/svg" height="40" viewBox="0 -960 960 960" width="40"><path d="M592.58-79.97q-29.68 0-51.13-21.4Q520-122.77 520-152.39v-175.19q0-29.45 21.45-50.94Q562.9-400 592.58-400h256.3q29.46 0 50.94 21.48 21.48 21.49 21.48 50.94v175.19q0 29.62-21.48 51.02-21.48 21.4-50.94 21.4h-256.3Zm0-72.42h256.3v-175.19h-256.3v175.19ZM451.65-352.72q-44.96-9.01-74.52-44.67-29.56-35.65-29.56-83.19 0-54.52 38.25-92.49 38.25-37.97 92.73-37.97 54.47 0 92.33 37.89 37.86 37.88 38.1 92.24 0 3.5-.58 7.17t-.76 7h-39.02q-8.25 0-15.51 1.49t-14.41 4.81q1.97-4.72 2.78-9.33.81-4.61.81-10.16 0-26.75-18.33-45.55-18.33-18.8-45.28-18.8-26.86 0-45.6 18.56-18.75 18.55-18.75 45.05 0 24.8 15.92 43.01 15.93 18.22 40.31 20.99.87 0 1.63-.12.76-.12 1.56-.43-10.1 13.31-15.76 30.16-5.67 16.86-6.34 34.34Zm26.96-127.95Zm-98.6 400.7-18.98-126.65q-15.51-5.81-33.3-15.66-17.8-9.86-30.95-20.15l-117.66 52.36L77.73-368.24l106.6-78.61q-1.43-7.31-1.76-15.89-.34-8.57-.34-17.24 0-6.83.42-16.23.42-9.39 1.84-18.27L77.73-592.92l101.39-177.03 119.43 52.8q11.86-9.81 28.68-19.47 16.81-9.66 33.8-15.44l18.98-128.8h200.31l18.98 127.3q15.81 5.91 32.88 15.51 17.07 9.59 29.62 20.9l119.57-52.8L882.6-592.92l-108.83 78.48q.43 7.93 1.01 16.75.58 8.82.58 16.95h-72.82q.07-19.34-2.17-34.06-2.24-14.73-6.32-29.65l91.76-68.11-36.43-66.49-104.68 45.33q-21.5-24.22-50.01-41.41-28.51-17.2-60.72-22.79L520.1-808.28h-80.38l-13.16 110.14q-34.54 7.57-61.78 23.18-27.23 15.6-51.3 40.91l-102.61-45-37.35 66.49 90.37 66.12q-4.33 17.32-6.83 33.33-2.49 16.02-2.49 32.58 0 16.86 2.24 32.88 2.25 16.01 6.58 33.34l-89.87 66.2 37.28 66.49 102.46-44.58q25.15 25.36 57.11 42.17 31.96 16.81 67.22 24.71v179.35h-57.58Zm98.6-400.7Z"/></svg>