<svg xmlns="http://www.w3.org/2000/svg" height="24" viewBox="0 -960 960 960" width="24"><path d="M606-81.87q-35.72 0-60.86-25.14T520-167.87V-314q0-35.72 25.14-60.86T606-400h227.57q35.72 0 60.86 25.14T919.57-314v146.13q0 35.72-25.14 60.86t-60.86 25.14H606Zm0-86h227.57V-314H606v146.13Zm-237.43 86L352.09-209q-11.19-4.81-22.84-11.09-11.64-6.28-21.21-13.08l-117.89 49.19L77.98-378.89l102.91-77.94q-.76-5.47-.76-10.56v-12.59q0-5 .25-11.08.25-6.07 1.01-14.11L77.98-582.11l112.17-193.43 119.87 49.95q8.57-6.8 18.9-12.73 10.34-5.92 23.17-11.2l16.48-129.61h222.86l16.48 128.11q12.19 4.74 22.34 10.94 10.14 6.19 19.71 14.49l119.89-49.95 112.17 193.43-106.15 78.98q.76 5.52.76 10.92v12.47H613.78v-.5q-.24-55.93-39.67-95.34Q534.68-615 479.01-615q-56.73 0-95.98 39.25-39.25 39.25-39.25 95.75 0 46.4 27.12 81.44t69.36 47.8v268.89h-71.69Z"/></svg>