<svg xmlns="http://www.w3.org/2000/svg" height="48" viewBox="0 -960 960 960" width="48"><path d="M603.74-61.17q-33.73 0-58.74-24.84-25-24.84-25-58.34v-172.48q0-32.9 25-58.04Q570.01-400 603.74-400h255.91q32.91 0 58.04 25.13 25.14 25.14 25.14 58.04v172.48q0 33.5-25.14 58.34-25.13 24.84-58.04 24.84H603.74Zm0-83.18h255.91v-172.48H603.74v172.48ZM372.2-61.17l-20.72-131.7q-15.11-4.93-32.87-15.34-17.77-10.41-30.48-20.27L165-172.35 55.91-366.26l111.26-81.57q-1-5.92-1.21-15.78-.22-9.85-.22-17.49 0-5.65.22-15.28.21-9.64 1.21-17.1L55.91-595.74 165-788.09l123.53 56.13q11.54-8.99 29.87-19.52 18.34-10.52 33.08-15.39l20.99-132.96h216.05l20 132.4q16 4.81 34.17 15.49 18.18 10.68 30.05 19.98l123.83-56.13 108.52 192.35-113.26 80.13q0 6.87 1.28 17.59 1.28 10.72 1.28 16.02H611.96q-.57-54.51-39.52-93.67-38.96-39.16-93.44-39.16-56.52 0-95.45 39.2-38.94 39.2-38.94 95.13 0 43.63 25.14 78.43 25.14 34.81 64.21 47.47v293.43H372.2Z"/></svg>