<svg xmlns="http://www.w3.org/2000/svg" height="24" viewBox="0 -960 960 960" width="24"><path d="M656-34q-57.12 0-96.56-39.44Q520-112.88 520-170v-94q0-57.13 39.44-96.56Q598.88-400 656-400h183q57.13 0 96.56 39.44Q975-321.13 975-264v94q0 57.12-39.44 96.56Q896.13-34 839-34H656Zm0-136h183v-94H656v94ZM332-34l-19-141q-3.42-2.11-6.52-4.1-3.1-1.99-6.48-3.9l-133 56L19-388l112-85q0-.83.5-3.46t.5-4.95q0-.33-.5-2.96T131-488L19-573l148-258 133 54q3.89-1.45 7.44-3.23Q311-782 314-784l18-143h296l18 143q4.42 1.84 8.21 3.92Q658-778 662-776l131-55 148 258-114 85v6H629q-1-61.6-44.5-105.8Q541.01-632 478-632q-62.84 0-106.92 44.05Q327-543.91 327-481.12q0 51.08 30.05 91.29Q387.1-349.61 434-336v302H332Z"/></svg>