<svg xmlns="http://www.w3.org/2000/svg" height="24" viewBox="0 -960 960 960" width="24"><path d="M641-56q-50.94 0-85.97-35.03T520-177v-102q0-50.94 35.03-85.97T641-400h188q50.94 0 85.97 35.03T950-279v102q0 50.94-35.03 85.97T829-56H641Zm0-121h188v-102H641v102ZM346.5-56l-18-135.5q-5.42-2.61-11.96-5.8-6.54-3.2-11.54-6.2l-125.5 53-135-236 109-82.5v-10.91q0-1.83.25-4.96T154-493L44.5-574.5l135-233 129 53q4-3 8.25-5.5t11.75-5.5l18-139.5h267l18 138q6.42 2.34 11.46 5.17Q648-759 653-754.5l127.5-53 135 233-113 83.54v10.46h-191v-.5q-1-55.93-40.21-94.96Q532.09-615 476.73-615q-56.73 0-95.98 39.25Q341.5-536.5 341.5-480q0 46.4 27.5 82.2 27.5 35.8 70.5 47.8v294h-93Z"/></svg>