<svg xmlns="http://www.w3.org/2000/svg" height="24" viewBox="0 -960 960 960" width="24"><path d="M618.31-68q-41.04 0-69.67-28.64Q520-125.28 520-166.31v-135.38q0-41.04 28.64-69.67Q577.27-400 618.31-400h223.38q41.03 0 69.67 28.64Q940-342.73 940-301.69v135.38q0 41.03-28.64 69.67T841.69-68H618.31Zm0-86h223.38q5.39 0 8.85-3.46t3.46-8.85v-135.38q0-5.39-3.46-8.85t-8.85-3.46H618.31q-5.39 0-8.85 3.46t-3.46 8.85v135.38q0 5.39 3.46 8.85t8.85 3.46ZM364.69-68l-17.23-128.85q-10.07-4.38-23.24-11.53-13.16-7.15-22.91-15.31L179.46-173 65.16-377l100.61-77.77q-.38-3.92-.96-12.92t-.58-14.93q0-3.53.58-11.84t.96-14.77L65.16-585l114.3-201.23 117.46 48.31q11.47-8.46 25.39-15.96t25.77-13.27L364.69-894h230.62l16.23 128.23q13 6.54 25.57 13.27 12.58 6.73 24.43 15.58l119-49.31L894.84-585l-104.15 78.92q1.15 4.69 1.35 12.12.19 7.42.19 11.96H623.69v-.38q0-61.14-42.54-104.38Q538.61-630 477.08-630q-61.16 0-104.39 43.23-43.23 43.23-43.23 104.39 0 48.49 27.17 85.63 27.16 37.14 70.37 52.59V-68h-62.31Z"/></svg>