<svg xmlns="http://www.w3.org/2000/svg" height="40" viewBox="0 -960 960 960" width="40"><path d="M595.79-98.67q-31.3 0-53.54-22.24Q520-143.16 520-174.46v-149.75q0-31.3 22.25-53.54Q564.49-400 595.79-400h235.08q31.3 0 53.55 22.25 22.25 22.24 22.25 53.54v149.75q0 31.3-22.25 53.55-22.25 22.24-53.55 22.24H595.79Zm0-51.18h235.08q10.77 0 17.69-6.92 6.93-6.92 6.93-17.69v-149.75q0-10.76-6.93-17.69-6.92-6.92-17.69-6.92H595.79q-10.76 0-17.69 6.92-6.92 6.93-6.92 17.69v149.75q0 10.77 6.92 17.69 6.93 6.92 17.69 6.92ZM440.54-372.1q-35.1-11.03-57.4-40.82-22.29-29.78-22.29-68.48 0-48.57 33.62-82.04 33.63-33.48 81.96-33.48 46.79 0 79.96 31.87 33.17 31.87 35.48 78.18 0 1.28-.41 2.9-.41 1.61.1 3.41h-23.33q-7.1.77-14.42 1.39-7.32.63-13.66 2.38-.36-1.44.06-2.32.41-.88.41-3.74-.26-25.97-19.07-44.43t-45.14-18.46q-27.1 0-45.74 18.2-18.64 18.21-18.64 45.52 0 22.63 13.66 40.09 13.66 17.46 33.52 22.83-7.84 8.96-12.61 21.57-4.77 12.6-6.06 25.43Zm35.9-110.39ZM395.72-98.67 378.8-218.54q-17.11-5.59-39.75-17.81-22.65-12.23-37.79-26.24l-111.7 48.69-84.1-151.74 95.18-72.47q-.92-9.46-2.15-21.12t-1.23-21.75q0-9.32 1.23-20.51 1.23-11.19 2.15-23.84l-95.18-71.54 84.1-148.36 108.26 46.74q17.39-13.87 39.4-26.41 22.01-12.54 41.14-19.23l17.36-118.54h169.23l15.92 119.64q21.44 8.24 41.09 19.49 19.66 11.26 37.14 25.39l112.52-47.08 83.59 148.36-100.26 74.36q2.31 12.02 3.1 21.98.8 9.96.8 19.04h-52.72q-.21-18.65-2.48-32.56-2.27-13.9-5.09-30.59l89-67.1-38.92-69.13-103.84 42.56q-18.83-21.23-50.39-40.27-31.56-19.04-60.65-23.65l-11.91-109.26h-84.23l-11.13 108.16q-34.39 7.3-61.78 22.97-27.4 15.67-52.63 41.54l-99.87-42.05-41.11 69.13 87.87 66.05q-4.84 16.28-6.92 32.28t-2.08 32.06q0 15.28 2.08 31.04 2.08 15.77 6.16 34.16l-87.11 66.56 40.93 69.13 100.28-42.8q24.31 24.02 54.57 40.05 30.27 16.03 63.66 25.47v159.07h-34.82Zm80.72-383.82Z"/></svg>