<svg xmlns="http://www.w3.org/2000/svg" height="40" viewBox="0 -960 960 960" width="40"><path d="M578.46-120q-24.58 0-41.52-16.94Q520-153.88 520-178.46v-163.08q0-24.58 16.94-41.52Q553.88-400 578.46-400h243.08q24.58 0 41.52 16.94Q880-366.12 880-341.54v163.08q0 24.58-16.94 41.52Q846.12-120 821.54-120H578.46Zm0-33.85h243.08q10.77 0 17.69-6.92 6.92-6.92 6.92-17.69v-163.08q0-10.77-6.92-17.69-6.92-6.92-17.69-6.92H578.46q-10.77 0-17.69 6.92-6.92 6.92-6.92 17.69v163.08q0 10.77 6.92 17.69 6.92 6.92 17.69 6.92ZM410.72-120l-15.59-114.87q-21.1-6.59-46.12-20.51-25.01-13.93-42.42-29.88l-106.03 47.03-69.43-122.41 93.51-69.69q-1.92-11.67-3.15-24.45t-1.23-24.45q0-10.9 1.23-23.55 1.23-12.66 3.15-26.89l-93.51-70.2 69.43-120.36 105.26 45.74q19.72-16.2 43.23-29.74 23.51-13.54 45.31-20.23L410.72-840h138.56l15.59 115.64q24.44 8.9 45.43 20.82 20.98 11.92 40.8 29.05l108.85-45.74 68.92 120.36-96.59 71.69q3.31 13.36 3.77 25.24.46 11.89.46 22.79H574.18v-.77q0-40.11-28.45-68.06-28.45-27.94-68.36-27.94-39.5 0-67.85 28.06-28.34 28.07-28.34 68.09 0 29.64 15.94 53.51 15.93 23.88 41.75 35.05V-120h-28.15Z"/></svg>