<svg xmlns="http://www.w3.org/2000/svg" height="20" viewBox="0 -960 960 960" width="20"><path d="M588.27-124.08q-28.44 0-44.35-15.91Q528-155.91 528-184.35v-139.38q0-28.44 15.92-44.35Q559.83-384 588.27-384h235.38q28.44 0 44.36 15.92 15.91 15.91 15.91 44.35v139.38q0 28.44-15.91 44.36-15.92 15.91-44.36 15.91H588.27Zm0-47.96h235.38q5.39 0 8.85-3.46t3.46-8.85v-139.38q0-5.39-3.46-8.85t-8.85-3.46H588.27q-5.39 0-8.85 3.46t-3.46 8.85v139.38q0 5.39 3.46 8.85t8.85 3.46Zm-163.04 47.96L404-229.19q-26.27-9.7-54.52-24.64-28.25-14.94-49.56-34.02L199-254.77l-55.27-96.54 80-70.46q-2.57-13.59-4.06-27.6-1.48-14.01-1.48-30.25 0-13.73 1.73-28.44 1.74-14.71 4.12-31.79l-80.31-70.84L199-705.65l101.85 34.5q21.65-19.27 47.73-33.87 26.07-14.59 55.04-25.17l21.61-106.54h109.73l21.23 105.81q28.62 10.84 53.44 24.83 24.83 13.98 47.68 34.94l103.88-33.5 55.27 94.96-83.96 72.65q2.96 21.65 4.25 40.67 1.29 19.02-.71 40.68H591.92q1-6 1.5-12.85.5-6.84.5-12.84 0-49.86-34.42-84.22t-84.12-34.36q-49.46 0-84.13 34.67-34.67 34.68-34.67 83.91 0 44.32 28.71 77.73 28.71 33.42 71.21 39.46v240.11h-31.27Z"/></svg>