<svg xmlns="http://www.w3.org/2000/svg" height="20" viewBox="0 -960 960 960" width="20"><path d="M606-97.87q-35.72 0-56.86-21.14T528-175.87V-306q0-35.72 21.14-56.86T606-384h227.57q35.72 0 56.86 21.14T911.57-306v130.13q0 35.72-21.14 56.86t-56.86 21.14H606Zm0-78h227.57V-306H606v130.13Zm-149.02-165.2q-50.96-6.52-85.68-45.98-34.71-39.46-34.71-92.74 0-58.71 40.89-99.56 40.9-40.85 99.34-40.85 58.44 0 99.18 40.78 40.74 40.77 40.98 99.18 0 6-.5 12.25t-1.5 12.25h-33.09q-11.75 0-22.64 2.32-10.88 2.31-20.51 6.44 3.96-7.53 5.93-15.4 1.98-7.87 1.98-16.88 0-29.1-20.37-49.48-20.37-20.39-49.44-20.39-28.86 0-49.02 20.16-20.17 20.17-20.17 48.97 0 29.26 21.08 50.33 21.08 21.07 50.64 20.02 2.2 0 3.53-.12 1.34-.12 3.3-.6-11.42 13.98-19.09 31.92-7.68 17.95-10.13 37.38ZM476.78-480ZM401.57-97.87 379.09-211q-21.19-8.81-42.84-20.09-21.64-11.28-39.21-26.08l-108.89 36.19-79.17-137.91 86.91-75.94q-1.76-10.47-2.76-21.06-1-10.59-1-24.09 0-11 1.25-22.58 1.25-11.57 3.01-24.61l-87.41-75.94 79.17-136.43 110.87 37.95q16.57-14.8 36.4-25.73 19.84-10.92 43.67-20.2l22.48-115.61h156.86l22.48 114.11q22.19 8.74 42.34 19.94 20.14 11.19 37.71 27.49l110.89-36.95 79.17 136.43-90.15 76.98q1.76 10.76 2.76 21.42 1 10.67 1 23.97 0 6-.5 12t-1.5 12h-78.24q1-6 1.5-12t.5-12q.74-17.74-3-36.23t-9.98-36.98l76.76-67.77-14.1-24.69-97.53 33q-23.5-28.72-56.09-48.08-32.6-19.36-68.58-24.62l-18.93-100.02h-30.55l-18.02 99.28q-39.72 7.26-70.44 24.87-30.71 17.61-57.45 48.57l-94.78-33-14.87 24.69 74.54 65.79q-6 19.47-9.74 37.78-3.74 18.3-3.74 36.62 0 19.27 2.99 37.75t8.99 37.45l-73.04 65.05 13.94 24.69 94.16-31.76q26.81 31 62.94 49 36.13 18 76.39 26.22v174.26h-54.69ZM476.78-480Z"/></svg>