<svg xmlns="http://www.w3.org/2000/svg" height="20" viewBox="0 -960 960 960" width="20"><path d="M641-72q-50.94 0-81.97-31.03T528-185v-86q0-50.94 31.03-81.97T641-384h188q50.94 0 81.97 31.03T942-271v86q0 50.94-31.03 81.97T829-72H641Zm0-113h188v-86H641v86ZM458.5-336.5q-54-5-91-46.29t-37-97q0-60.28 42-102.25 42-41.96 102-41.96T576-582.46q41.5 41.53 42.5 101.46 0 6-.5 12.25t-1.5 12.25H607q-23.17 0-45.08 6.5Q540-443.5 522-431q7-10.57 10.5-22.25t3.5-25.25q0-25.55-17.91-43.53Q500.19-540 474.74-540q-25.24 0-42.74 17.5-17.5 17.5-17.5 42.5 0 28.5 22.22 48.43t51.78 15.07q6 0 10-.5t9-2.5Q490-404 477-382.25t-18.5 45.75Zm16-143.5Zm-95 408-24-121.5q-15.42-6.61-31.96-14.8Q307-216.5 294-227.5l-116.5 40-102-179 93-80.5q-1-7.3-2-14.94-1-7.65-1-17.97 0-7.83 1.25-16.46T169-515l-93.5-80.5 102-176 120 41q12-11 25.75-18.5t32.25-14.5l24-125.5h201l24 124q16.42 6.34 31.46 14.17T664-730.5l118.5-40 102 176-97 81.54q1 6.96 2 14.96t1 17.5q0 6-.5 12t-1.5 12h-114q1-6 1.5-12t.5-12q1.5-18.5-3-37.75t-11.5-38.5L738-623l-6.5-11-96 33q-23.5-31-58-51.5t-72-25L486.57-776H472l-16.5 97q-42 6.5-75 25.25T320-601l-92.5-33-6.5 11 71.5 63.5q-6 21-10.5 40.28-4.5 19.27-4.5 38.69 0 20.03 3.75 40.03T291-400l-70 62 5.58 11 91.7-31q26.22 31 61.97 49t75.25 28.5V-72h-76Zm95-408Z"/></svg>