<svg xmlns="http://www.w3.org/2000/svg" height="20" viewBox="0 -960 960 960" width="20"><path d="M581.54-142.15q-25.94 0-39.74-13.8T528-195.69v-134.77q0-25.94 13.8-39.74t39.74-13.8h230.77q25.94 0 39.74 13.8t13.8 39.74v134.77q0 25.94-13.8 39.74t-39.74 13.8H581.54Zm0-28.93h230.77q10.77 0 17.69-6.92 6.92-6.92 6.92-17.69v-134.77q0-10.77-6.92-17.69-6.92-6.93-17.69-6.93H581.54q-10.77 0-17.69 6.93-6.93 6.92-6.93 17.69v134.77q0 10.77 6.93 17.69 6.92 6.92 17.69 6.92Zm-139.58 28.93-20.46-99.73q-29.54-9.89-62.79-27.52-33.25-17.64-56.86-39.79l-95.35 31.15-38.54-68.08 75-66.42q-3.15-15.7-5.11-32.22-1.97-16.51-1.97-34.47 0-15.46 2.22-32.39 2.21-16.92 4.98-37.07l-75.12-67.19 38.54-65.93 95.69 32q25.31-22.54 55.71-39.73 30.41-17.19 62.83-28.34l21.23-100.58h76.46l20.46 100.61q33.24 12.2 61.14 27.91t54.6 40.13l99.26-31 38.54 65.93-79.92 69.77q3.92 24.34 5.5 45.38 1.58 21.04-.42 43.85H571.35q1-6 1.5-12.95.5-6.94.5-12.94 0-41.77-28.85-70.46-28.85-28.69-70.46-28.69-41.19 0-70.29 29.09-29.1 29.1-29.1 70.06 0 36.25 23.43 64.28 23.42 28.03 58.42 33.11v242.23h-14.54Z"/></svg>