<svg xmlns="http://www.w3.org/2000/svg" height="40" viewBox="0 -960 960 960" width="40"><path d="M608.52-64.17q-36.59 0-62.56-25.86Q520-115.88 520-152.32v-159.53q0-36.05 25.96-62.1Q571.93-400 608.52-400H850.7q36.04 0 62.09 26.05 26.05 26.05 26.05 62.1v159.53q0 36.44-26.05 62.29-26.05 25.86-62.09 25.86H608.52Zm0-88.15H850.7v-159.53H608.52v159.53ZM368.06-64.17l-19.23-131.76q-13.47-4.69-28.27-13.3-14.79-8.61-26.11-17.49l-122.86 55.11L58.61-369.9l110.1-81.3q-1.1-6.37-1.44-14.38-.33-8-.33-14.37 0-6.37.33-14.38.34-8 1.44-14.47l-110.1-81.68 112.98-197.16 124.09 54.55q10.84-8.5 25.45-16.86 14.61-8.35 27.7-12.7l19.41-133.55h223.51l19.42 132.88q13.4 4.95 28.38 13 14.97 8.06 26 17.23l123.23-54.55 112.61 197.16-110.66 80.35q.43 5.98.95 14.78.52 8.8.52 14.12H612.35q-.57-54.96-39.42-93.53-38.86-38.57-93.58-38.57-56.05 0-94.69 38.83-38.65 38.83-38.65 94.5 0 44 25.45 78.57 25.45 34.56 65.31 47.83v289.43h-68.71Z"/></svg>