<svg xmlns="http://www.w3.org/2000/svg" height="40" viewBox="0 -960 960 960" width="40"><path d="M576-132q-23.85 0-39.93-16.07Q520-164.15 520-188v-156q0-23.85 16.07-39.93Q552.15-400 576-400h236q23.85 0 39.93 16.07Q868-367.85 868-344v156q0 23.85-16.07 39.93Q835.85-132 812-132H576Zm0-24h236q14 0 23-9t9-23v-156q0-14-9-23t-23-9H576q-14 0-23 9t-9 23v156q0 14 9 23t23 9Zm-156.67 24-14.66-111.33Q382.33-250 355.17-265q-27.17-15-45.5-32.33L207.33-252l-60.66-107.33 89.66-67q-2-12.67-3.5-26.34-1.5-13.66-1.5-26.33 0-11.67 1.5-25.17 1.5-13.5 3.5-29.5l-89.66-67.66L207.33-706l101.34 43.67Q330-680 355.17-694.5q25.16-14.5 48.5-21.5l15.66-112h121.34l14.66 112.33Q582-706 603.83-693.5q21.84 12.5 43.5 31.17l106-43.67 60 104.67-93.66 70q4 14.66 4.5 27.16t.5 24.17H562.33v-1q0-35.54-25.33-60.27Q511.67-566 476.38-566q-34.65 0-59.85 24.83-25.2 24.84-25.2 60.17 0 25.33 13.17 46.17 13.17 20.83 34.83 31.16V-132h-20Z"/></svg>