<svg xmlns="http://www.w3.org/2000/svg" height="48" viewBox="0 -960 960 960" width="48"><path d="M585.87-79.02q-26.67 0-46.27-19.53t-19.6-46.1v-189.72q0-26.32 19.6-45.97Q559.2-400 585.87-400h270.67q26.32 0 45.98 19.66 19.65 19.65 19.65 45.97v189.72q0 26.57-19.65 46.1-19.66 19.53-45.98 19.53H585.87Zm0-65.63h270.67v-189.72H585.87v189.72ZM456.98-354.54q-45.96-7.26-76.44-43.02-30.47-35.75-30.47-83.42 0-53.42 37.42-90.45 37.43-37.03 90.92-37.03t90.41 36.94q36.92 36.94 37.16 90.28 0 5.24-.87 10.62-.87 5.38-1.13 10.38h-41q-5.99 0-11.19 1.08-5.2 1.07-10.62 3.49 2.48-5.82 3.46-11.55t.98-12.54q0-28.08-19.31-48.08-19.31-20.01-47.7-20.01-28.36 0-48.14 19.5-19.79 19.49-19.79 47.34 0 27.07 17.6 46.61 17.59 19.54 44.38 21.73.72 0 1.44-.12.71-.12 1.43-.36-8.93 11.98-13.6 27.54-4.66 15.56-4.94 31.07ZM478.52-481ZM385.74-79.02 365.5-205.43q-17.66-6.31-38.54-17.95-20.87-11.64-35.8-23.69l-117.55 53.96-96-169.8 108.43-78.96q-1.76-8.23-2.26-18.54-.5-10.32-.5-19.57 0-7.75.5-18.8.5-11.06 2.26-20.35l-108.43-79.2 96-168.82 119.21 54.22q13.51-11.31 33.56-22.84 20.05-11.53 39.12-17.56l20.23-128.39h189.03L595-754.83q17.62 6.5 38.15 17.8 20.52 11.29 34.57 24.1l119.41-54.22 95.76 168.82-110.17 78.24q.26 9 1.13 19.66.87 10.65.87 19.19h-66.11q.24-19.64-2-34.73-2.24-15.09-6.24-30.74l94.26-69.27-37.09-68.39-106.76 46.5q-22.5-25.48-51.71-43.34-29.22-17.86-63.05-22.62l-14.35-112.02h-83.78l-13.24 112.06q-35.45 7.22-63.94 23.58-28.49 16.36-52.73 42.34l-105.02-46.5-38.09 68.39 93.28 67.78q-4 17.74-6.62 34.37-2.62 16.62-2.62 33.3 0 17.66 2.37 34.19 2.37 16.54 6.37 34.04l-92.78 67.78 37.95 68.39 105.11-46q25.81 26.05 58.94 43.26 33.13 17.22 69.39 25.46v174.39h-50.52ZM478.52-481Z"/></svg>