<svg xmlns="http://www.w3.org/2000/svg" height="48" viewBox="0 -960 960 960" width="48"><path d="M593-64q-28.72 0-50.86-22.14T520-137v-190q0-28.73 22.14-50.86Q564.28-400 593-400h274q28.72 0 50.86 22.14Q940-355.73 940-327v190q0 28.72-22.14 50.86T867-64H593Zm0-73h274v-190H593v190ZM377-64l-21-130q-16-6-35.28-16.95Q301.44-221.91 287-233l-122 55L61-364l109-81q-1-6-1.5-17.5T168-482q0-6 .5-17t1.5-19L61-598l104-185 120 55q14-11 34-22.5t37-17.5l21-129h207l20 129q17 6 37.5 17.5T675-728l121-55 104 185-111 79q0 8 1 19t1 18H621q0-59.6-41.5-101.3Q538-625 479-625q-60 0-102 42t-42 102.01q0 46.95 26.55 83.16Q388.1-361.61 430-347v283h-53Z"/></svg>