<svg xmlns="http://www.w3.org/2000/svg" height="24" viewBox="0 -960 960 960" width="24"><path d="M641-56q-50.94 0-85.97-35.03T520-177v-102q0-50.94 35.03-85.97T641-400h188q50.94 0 85.97 35.03T950-279v102q0 50.94-35.03 85.97T829-56H641Zm0-121h188v-102H641v102ZM442.5-344.5q-46-11-76-48.29t-30-87q0-58.28 41-99.25 41-40.96 99-40.96t98.5 40.54q40.5 40.53 41.5 98.46v.5H605q-24.17 0-46.58 6.5Q536-467.5 517-454q4-5.57 6-11.75t2-13.75q0-20.55-13.91-34.53Q497.19-528 476.74-528q-20.24 0-34.24 14-14 14-14 34 0 19.5 13.72 33.93t33.28 14.57q5 0 8.5-.5t7.5-2.5Q473-417 460-393.75t-17.5 49.25Zm34-135.5Zm-130 424-18-135.5q-5.42-2.61-11.96-5.8-6.54-3.2-11.54-6.2l-125.5 53-135-236 109-82.5v-10.91q0-1.83.25-4.96T154-493L44.5-574.5l135-233 129 53q4-3 8.25-5.5t11.75-5.5l18-139.5h267l18 138q6.42 2.34 11.46 5.17Q648-759 653-754.5l127.5-53 135 233-113 83.54v10.46h-122q.5-19.5-2.5-34.25t-8-29L756-608l-27.5-49-99 43Q610-638 581-655t-59.5-23.5L508.57-784H451l-11.5 104q-35 7.5-62 22.75T326-615l-95.5-42-27.5 49 81.5 60.5q-5 18-8 33.78-3 15.77-3 33.19 0 16.03 2.75 32.53t7.75 35l-81 60 27.58 49 94.7-41q23.22 24 52.47 40t61.75 25.5V-56h-93Zm130-424Z"/></svg>