<svg xmlns="http://www.w3.org/2000/svg" height="40" viewBox="0 -960 960 960" width="40"><path d="M575.17-133.67q-22.98 0-39.07-16.09-16.1-16.1-16.1-39.07v-156q0-22.98 16.1-39.07 16.09-16.1 39.07-16.1h236q22.97 0 39.07 16.1 16.09 16.09 16.09 39.07v156q0 22.97-16.09 39.07-16.1 16.09-39.07 16.09h-236Zm0-23.16h236q14 0 23-9t9-23v-156q0-14-9-23t-23-9h-236q-14 0-23 9t-9 23v156q0 14 9 23t23 9Zm-154.5 23.16L406-244.83q-22.83-6.34-50.25-21.59T309.92-299l-101.25 45-59.84-106 89.34-66.33q-2.5-12.98-3.75-26.16T233.17-479q0-11.5 1.33-25.08 1.33-13.59 3.33-29.92l-89-67.67 59.84-103.16 101 43.5q20.83-16.84 46-31.75Q380.83-708 405-715.17l15.67-111.33h119.5l14.66 111.83q26 9.34 48.09 22.25 22.08 12.92 43.75 31.09l106.16-43.5L812-601.67l-93.83 70.38q3.16 14.62 4.08 27.04.92 12.42.92 23.92H561.33v-.67q0-35.16-25.16-59.66-25.17-24.51-59.56-24.51-35.22 0-59.83 24.42T392.17-481q0 25.33 13.1 45.91t34.56 30.59v270.83h-19.16Z"/></svg>