<svg xmlns="http://www.w3.org/2000/svg" height="20" viewBox="0 -960 960 960" width="20"><path d="M641-72q-50.94 0-81.97-31.03T528-185v-86q0-50.94 31.03-81.97T641-384h188q50.94 0 81.97 31.03T942-271v86q0 50.94-31.03 81.97T829-72H641Zm0-113h188v-86H641v86ZM379.5-72l-24-121.5q-15.42-6.61-31.96-14.8Q307-216.5 294-227.5l-116.5 40-102-179 93-80.5q-1-7.3-2-14.94-1-7.65-1-17.97 0-7.83 1.25-16.46T169-515l-93.5-80.5 102-176 120 41q12-11 25.75-18.5t32.25-14.5l24-125.5h201l24 124q16.42 6.34 31.46 14.17T664-730.5l118.5-40 102 176-97 81.54q1 12.96 2 27.46t-1 29h-179q1-6 1.5-12.75t.5-12.75q-1-57.93-40.71-97.46Q531.09-619 473.73-619q-57.73 0-97.98 40.25Q335.5-538.5 335.5-481q0 52.4 34.5 92.2 34.5 39.8 85.5 45.8v271h-76Z"/></svg>