<svg xmlns="http://www.w3.org/2000/svg" height="24" viewBox="0 -960 960 960" width="24"><path d="M580-132q-26 0-43-17t-17-43v-148q0-26 17-43t43-17h228q26 0 43 17t17 43v148q0 26-17 43t-43 17H580Zm0-28h228q14 0 23-9t9-23v-148q0-14-9-23t-23-9H580q-14 0-23 9t-9 23v148q0 14 9 23t23 9Zm-164 28-14-112q-21-6-46.5-20T313-294l-103 44-64-112 89-67q-2-12-3.5-25t-1.5-25q0-11 1.5-23.5T235-531l-89-67 64-110 102 43q20-17 43.5-30.5T401-716l15-112h128l14 113q26 9 45.5 20.5T644-665l106-43 64 110-93 70q4 14 4.5 25.5t.5 22.5H565v-1q0-36-26-61.5T477-568q-36 0-61.5 25.5T390-481q0 26 13.5 47.5T440-401v269h-24Z"/></svg>