<svg xmlns="http://www.w3.org/2000/svg" height="20" viewBox="0 -960 960 960" width="20"><path d="M584.62-136q-27.62 0-42.12-14.5Q528-165 528-192.62v-134.76q0-27.62 14.5-42.12Q557-384 584.62-384h230.76q27.62 0 42.12 14.5Q872-355 872-327.38v134.76q0 27.62-14.5 42.12Q843-136 815.38-136H584.62Zm0-32h230.76q10.77 0 17.7-6.92 6.92-6.93 6.92-17.7v-134.76q0-10.77-6.92-17.7-6.93-6.92-17.7-6.92H584.62q-10.77 0-17.7 6.92-6.92 6.93-6.92 17.7v134.76q0 10.77 6.92 17.7 6.93 6.92 17.7 6.92ZM459.85-378q-36.39-4.92-61.66-34.15-25.27-29.23-25.27-67.85 0-43.85 30.08-73.92Q433.08-584 476.92-584q42.31 0 72 28.54 29.7 28.54 32 70.08 0 6-.5 12t-1.5 12h-7.69q-7.69.76-14.38 1.88-6.7 1.12-13.16 2.35 3-5.47 4.5-11.31 1.5-5.85 1.5-12.31-.77-29.23-22.15-50.23-21.39-21-50.62-21-30 0-51 21t-21 51q0 29.23 20.23 50.23 20.23 21 47.93 21.77h3q-4.85 6.54-8.77 14.04-3.93 7.5-7.46 15.96Zm17.07-102Zm-38.54 344-20.46-101.69q-29.15-9.77-61.42-27.16-32.27-17.38-55.88-39.53L202.92-272l-41.61-73 76.23-67.54q-2.77-15.84-4.92-32.84-2.16-17-2.16-33.85 0-16.08 2.16-32.69 2.15-16.62 4.92-35.54L161.31-616l41.61-71.46 96.93 32.61q25.92-22.92 56.27-39.92 30.34-17 61.03-27.54L438.38-824h83.24l20.46 102.46q33 12.08 60.65 27.54 27.65 15.46 54.35 39.15l100-31.61L798.69-615l-79.31 69.85q4.31 17.38 5.7 33.23 1.38 15.84 1.38 31.92 0 6-.5 12t-1.5 12h-33.54q1-6 1.5-12t.5-12q.77-16.46-2.73-34.31-3.5-17.84-9.5-37.38L759.77-621 741-651l-99.08 32.77q-22.15-26.92-57.23-47.85-35.07-20.92-68.46-24.61L498-792h-36.77l-17.46 100.54q-37.23 5.46-68.58 23.31-31.34 17.84-59.42 49.92L219-651l-18.77 30L277-553.23q-6 16.46-9.5 35.73-3.5 19.27-3.5 38.27 0 19.23 3 37.73 3 18.5 8.23 34.73l-75 67.77L218-309l96-32q27 31.23 63.88 49.08 36.89 17.84 78.12 26.15V-136h-17.62Zm38.54-344Z"/></svg>