<svg xmlns="http://www.w3.org/2000/svg" height="20" viewBox="0 -960 960 960" width="20"><path d="M642.96-56.09q-51.3 0-83.13-31.83Q528-119.74 528-171.04v-98q0-51.3 31.83-83.13T642.96-384h202.56q51.3 0 83.13 31.83t31.83 83.13v98q0 51.3-31.83 83.12-31.83 31.83-83.13 31.83H642.96Zm0-114.95h202.56v-98H642.96v98ZM371.52-56.09l-24.56-124.39q-14.98-6.93-30.11-14.99-15.14-8.06-28.28-19.36l-121.83 41.7L58.7-365.39l93.39-81.7q-1-6.34-1.72-16.15-.72-9.81-.72-18.86 0-7.06.72-16.65.72-9.6 1.72-16.47L58.7-597.04l108.04-189.7 120.09 40.7q13.67-11 29.31-19.18 15.64-8.17 31.82-15.48l23.56-124.65h216.96l23.56 125.09q15.98 7.21 32.25 15.56 16.28 8.35 30.01 19.66l118.96-40.7 108.04 189.7-95.39 81.69q1 12.31 2 27.96t-1 28.39H634.39q1-6 1.5-12.5t.5-12.5q-.56-67.08-46.74-113.95-46.17-46.88-114.22-46.88-66.95 0-114.17 47.2T314.04-482.5q0 59.63 38.14 104.93 38.14 45.31 94.78 54.22v267.26h-75.44Z"/></svg>