<svg xmlns="http://www.w3.org/2000/svg" height="48" viewBox="0 -960 960 960" width="48"><path d="M603.74-61.17q-33.73 0-58.74-24.84-25-24.84-25-58.34v-172.48q0-32.9 25-58.04Q570.01-400 603.74-400h255.91q32.91 0 58.04 25.13 25.14 25.14 25.14 58.04v172.48q0 33.5-25.14 58.34-25.13 24.84-58.04 24.84H603.74Zm0-83.18h255.91v-172.48H603.74v172.48ZM455.65-347.22q-49.43-8.2-81.37-45.96-31.93-37.75-31.93-88.09 0-56.74 39.64-96.28 39.65-39.54 96.6-39.54 56.95 0 96.22 39.19 39.28 39.18 39.84 95.9 0 5.57-1.28 10.78-1.28 5.22-.72 10.22h-35.78q-11.82 0-21.6 2.83-9.79 2.82-17.75 7.78 1.57-7.26 3.98-14.09t2.41-15.62q0-27.58-18.73-46.63-18.73-19.05-46.28-19.05-27.97 0-46.61 18.42t-18.64 46.03q0 27.91 18.22 46.84 18.23 18.93 44.35 19.53 1.69 0 3.67-.28t3.11-.85q-11.7 14-18.96 32.24-7.26 18.23-8.39 36.63ZM479-481.87ZM372.48-61.17l-21-131.7q-15.11-4.93-32.9-15.11-17.8-10.19-30.45-20.5L165-172.35 55.91-366.26l111.26-81.73q-1-5.53-1.21-15.53-.22-10-.22-16.94 0-6.95.22-16.6.21-9.66 1.21-16.42L55.91-595.74 165-788.09l123.53 56.13q11.54-8.99 29.87-19.52 18.34-10.52 33.08-15.39l20.99-132.96h216.05l20 132.4q16 4.81 34.17 15.49 18.18 10.68 30.05 19.98l123.83-56.13 108.52 192.35-113.26 80.13q0 7.77 1.28 17.38 1.28 9.62 1.28 16.23h-84.42q.48-20.17-2.77-36.09-3.24-15.91-5.68-31.91l92.57-68-35.05-64.65-105.89 46.13q-23.11-27.13-53.44-45.99-30.33-18.86-66.79-23.14L519.5-816.09h-79.47l-12.94 110.44q-35.38 7.43-66.47 25.22-31.1 17.78-54.66 43.34l-103.72-45.56-36.2 64.65 92.44 67.3q-4.57 17.44-7.07 34.66-2.5 17.22-2.5 35.69 0 18.57 2.5 35.94 2.5 17.37 7.07 34.11l-92.44 67.87 35.92 64.65 104.31-46.57q25.88 26.96 58.5 45.11 32.62 18.15 69.19 26.59v191.48h-61.48ZM479-481.87Z"/></svg>