<svg xmlns="http://www.w3.org/2000/svg" height="24" viewBox="0 -960 960 960" width="24"><path d="M656-34q-57.12 0-96.56-39.44Q520-112.88 520-170v-94q0-57.13 39.44-96.56Q598.88-400 656-400h183q57.13 0 96.56 39.44Q975-321.13 975-264v94q0 57.12-39.44 96.56Q896.13-34 839-34H656Zm0-136h183v-94H656v94ZM437-331q-50.07-13.04-82.54-54.11Q322-426.18 322-480.95q0-64.72 45.68-110.39Q413.36-637 477.98-637t109.82 45.22Q633-546.56 634-482h-18q-27 0-51.5 7.5T519-453q3-6 5.5-13.07t2.5-14.16q0-21.09-14.08-35.43T478.13-530q-20.71 0-34.92 14T429-480.7q0 21.09 14 34.89Q457-432 477-432q5 0 9-.5t7-2.5q-22 20-36.5 47T437-331Zm41-150ZM332-34l-19-141q-3.42-2.11-6.52-4.1-3.1-1.99-6.48-3.9l-133 56L19-388l112-85q0-1.73.5-3.91t.5-4.03q0-1.86-.5-3.7-.5-1.83-.5-3.36L19-573l148-258 133 54q3.89-1.45 7.44-3.23Q311-782 314-784l18-143h296l18 143q4.42 1.84 8.21 3.92Q658-778 662-776l131-55 148 258-114 85v6H689.8q.2-19.79-3.3-35.4Q683-533 679-548l84-63-29-50-96.82 42q-22.18-27-51.57-44.29-29.4-17.3-63.61-23.71l-13-104h-59l-11 102q-35 8-65.5 25.5T320-620l-95-41-28 50 81 61q-6 19-8.5 35.28-2.5 16.27-2.5 34.2 0 16.52 2.5 33.52 2.5 17 8.5 36l-81 61 28 50 94.78-41q23.79 23.85 52.51 41.42Q401-282 434-273v239H332Zm146-447Z"/></svg>