<svg xmlns="http://www.w3.org/2000/svg" height="40" viewBox="0 -960 960 960" width="40"><path d="M582.56-100q-25.78 0-44.17-18.39T520-162.57v-174.87q0-25.78 18.39-44.17T582.56-400h254.87q25.79 0 44.18 18.39T900-337.44v174.87q0 25.79-18.39 44.18T837.43-100H582.56Zm0-50.26h254.87q5.39 0 8.85-3.46t3.46-8.85v-174.87q0-5.38-3.46-8.84-3.46-3.47-8.85-3.47H582.56q-5.38 0-8.84 3.47-3.47 3.46-3.47 8.84v174.87q0 5.39 3.47 8.85 3.46 3.46 8.84 3.46ZM396.36-100l-17.13-120.77q-19.05-6.46-40.47-18.59-21.43-12.13-37.3-25.77l-112.18 49.85-84.05-147.54L205.16-437q-1.8-10-2.58-21.31-.78-11.31-.78-21.31 0-9.61.78-20.85.78-11.25 2.58-22.53l-99.93-74.44 84.05-146.51 111.8 49.21q17.02-13.77 37.78-25.71 20.76-11.93 39.99-18.11L396.36-860h167.28l17.13 121.15q20.72 7.62 40.29 18.58 19.58 10.96 36.32 25.53l113.59-49.21 83.8 146.51-101.46 74.52q2.15 11.18 2.55 22.04.39 10.85.39 20.47H593.92v-.38q0-47.73-33.64-81.03-33.64-33.31-81.26-33.31-47.59 0-81.17 33.45-33.59 33.45-33.59 81.3 0 36.82 20.55 65.75 20.55 28.94 53.29 41.53V-100h-41.74Z"/></svg>