<svg xmlns="http://www.w3.org/2000/svg" height="40" viewBox="0 -960 960 960" width="40"><path d="M595.91-73.3q-31.06 0-53.48-22.38Q520-118.06 520-149.06v-175.19q0-30.82 22.43-53.29Q564.85-400 595.91-400h256.31q30.82 0 53.29 22.46 22.46 22.47 22.46 53.29v175.19q0 31-22.46 53.38-22.47 22.38-53.29 22.38H595.91Zm0-75.76h256.31v-175.19H595.91v175.19ZM376.1-73.3l-18.9-128.82q-15.51-5.64-32.06-15.25-16.55-9.6-29.6-19.9l-120.25 53.7-104.72-183.5 107.92-79.78q-1.42-7.51-1.76-16.57-.33-9.06-.33-16.56 0-7.5.33-16.56.34-9.06 1.76-16.61L70.57-593.09l104.72-183.03 120.76 53.47q12.86-10.14 29.43-19.64 16.56-9.49 31.72-14.6l18.98-129.97h207.64l18.98 129.3q15.48 5.75 32.3 14.93 16.81 9.17 29.36 19.98l120.41-53.47 104.56 183.03-108.16 78.61q.76 7.73 1.17 17.12.42 9.4.42 16.45H613.11q-.24-55.17-39.08-93.8-38.85-38.62-93.92-38.62-55.83 0-94.58 38.83T346.78-480q0 44 25.28 78.24 25.29 34.24 65.03 47.93V-73.3H376.1Z"/></svg>