<svg xmlns="http://www.w3.org/2000/svg" height="20" viewBox="0 -960 960 960" width="20"><path d="M595-106q-30.94 0-48.97-18.03Q528-142.06 528-173v-144q0-30.94 18.03-48.97Q564.06-384 595-384h240q30.94 0 48.97 18.03Q902-347.94 902-317v144q0 30.94-18.03 48.97Q865.94-106 835-106H595Zm0-67h240v-144H595v144Zm-186.5 67-22-110.5q-23-9.5-46.25-21.75T298-266.5l-106.5 35-72-125 85-74.5q-2-11.48-3-22.99-1-11.51-1-26.01 0-12 1.25-24.5T205-531l-85.5-74.5 72-124 108 37q18-16 39.75-28t47.25-22l22-112.5h143l22 111q24 9.5 45.75 21.75T660-692.5l108.5-36 72 124-88 75.54q2 18.96 3 35.96t-1 37.5h-142q1-6 1.5-12.75t.5-12.75q0-57.93-40-97.96-40-40.04-97.77-40.04-57.73 0-97.98 40.25Q338.5-538.5 338.5-481q0 52.4 34 91.2 34 38.8 84 45.8v238h-48Z"/></svg>