<svg xmlns="http://www.w3.org/2000/svg" height="24" viewBox="0 -960 960 960" width="24"><path d="M588.27-108.08q-28.44 0-48.35-19.91Q520-147.91 520-176.35v-155.38q0-28.44 19.92-48.35Q559.83-400 588.27-400h235.38q28.44 0 48.36 19.92 19.91 19.91 19.91 48.35v155.38q0 28.44-19.91 48.36-19.92 19.91-48.36 19.91H588.27Zm0-55.96h235.38q5.39 0 8.85-3.46t3.46-8.85v-155.38q0-5.39-3.46-8.85t-8.85-3.46H588.27q-5.39 0-8.85 3.46t-3.46 8.85v155.38q0 5.39 3.46 8.85t8.85 3.46ZM442.42-369.73q-35.07-11.66-57.46-41.35-22.38-29.7-22.38-68.78 0-48.45 33.78-82.27 33.78-33.83 82.23-33.83 47.29 0 80.93 33.09 33.63 33.1 34.98 80.18v.31h-26.35q-8.33.38-15.38 1.28-7.04.91-14.54 3.22v-3.2q-.38-24.74-17.66-41.83Q503.28-540 478.54-540q-25 0-42.5 17.5t-17.5 42.5q0 20.12 11.84 35.95 11.83 15.83 30.43 21.36-7.81 11.65-12.45 25.08-4.64 13.44-5.94 27.88ZM478.54-480Zm-86.31 371.92L377-227.19q-16.27-5.7-34.52-15.64-18.25-9.94-31.61-21.02L201-217.77l-88.27-153.54 96-72.46q-1.57-8.59-2.06-17.1-.48-8.51-.48-18.75 0-7.73.73-16.94.74-9.21 2.12-21.29l-96.31-71.84L201-741.65l110.85 46.5q13.65-11.27 30.23-20.87 16.57-9.59 34.54-16.17l15.61-120.54h175.73l15.23 119.81q18.62 6.84 33.44 15.83 14.83 8.98 29.68 21.94l112.88-46.5 88.27 151.96-99.96 74.65q1.96 9.65 2.25 17.67.29 8.02.29 17.68h-56.73q-.31-17.73-2.31-30.97-2-13.24-6-27.32l88.35-67.21-38.08-67.19-102.15 43.19q-18.16-19.85-46.2-36.31-28.04-16.46-54.61-23l-12.57-108.27h-79.12l-12.74 107.59q-31.61 7.72-55.51 21.18-23.91 13.46-48.56 37.81l-98.89-42.19-39.07 67.19 86.07 63.88q-5 15.04-7 30.05-2 15.01-2 31.11 0 15.03 1.75 29.53 1.75 14.5 6.37 30.43l-85.19 64.57 39.07 67.2 98.2-42q24 23.8 53.94 39.52 29.94 15.71 63.44 22.78v160.04h-48.27ZM478.54-480Z"/></svg>