<svg xmlns="http://www.w3.org/2000/svg" height="20" viewBox="0 -960 960 960" width="20"><path d="M646-62q-53 0-85.5-32.5T528-180v-86q0-53 32.5-85.5T646-384h188q53 0 85.5 32.5T952-266v86q0 53-32.5 85.5T834-62H646Zm0-118h188v-86H646v86ZM458-332q-55-6-92.5-48.4T328-480q0-62.07 43.45-105.54Q414.9-629 476.95-629T582-586q43 43 44 105 0 6-.5 12t-1.5 12h-9q-25 0-48.5 7T524-430q7-11 10.5-23t3.5-26q0-25.34-17.76-43.17-17.76-17.83-43-17.83t-42.74 17.5Q417-505 417-480q0 29 22.5 48.5T492-417q6 0 10-.5t9-2.5q-19 17-33 39.5T458-332Zm19-148ZM374-62l-24-125q-15.42-6.11-30.21-14.05Q305-209 292-220l-120 42L65-365l95-82q-1-7.83-2-15.96t-1-16.95q0-8.83 1-16.96t2-16.13l-95-83 107-185 122 42q13-11 26.5-18.5T350-771l24-127h212l24 127q15.42 5.84 30.21 13.42Q655-750 668-739l120-41 107 185-96 82q1 7 2 15.5t1 16.5q0 6-.5 12t-1.5 12H681q1-6 1.5-12t.5-12q1-19-3.5-39T668-559l75-65-8-12-94 32q-26-33-60.5-53.5T506-683l-19-97h-15l-17 96q-41 6-76.5 26.5T317-604l-93-32-7 12 72 64q-6 20-10.5 39.78Q274-500.45 274-480q0 21 4 41.5t10 39.5l-71 63 6 12 92.78-31Q342-323 378-304t77 28v214h-81Zm103-418Z"/></svg>