<svg xmlns="http://www.w3.org/2000/svg" height="24" viewBox="0 -960 960 960" width="24"><path d="M580-132q-26 0-43-17t-17-43v-148q0-26 17-43t43-17h228q26 0 43 17t17 43v148q0 26-17 43t-43 17H580Zm0-28h228q14 0 23-9t9-23v-148q0-14-9-23t-23-9H580q-14 0-23 9t-9 23v148q0 14 9 23t23 9ZM445-398q-24-10-39.5-32T390-480q0-37 25.5-62.5T478-568q35 0 60 23.5t28 57.5q-8 1-14.5 2t-13.5 3q-1-24-18.5-41T478-540q-25 0-42.5 17.5T418-480q0 20 11.5 35.5T458-423q-4 6-7 12t-6 13Zm33-82Zm-62 348-14-112q-21-6-46.5-20T313-294l-103 44-64-112 89-67q-2-12-3.5-25t-1.5-25q0-11 1.5-23.5T235-531l-89-67 64-110 102 43q20-17 43.5-30.5T401-716l15-112h128l14 113q26 9 45.5 20.5T644-665l106-43 64 110-93 70q4 14 4.5 25.5t.5 22.5h-30q0-17-2-30t-6-28l90-68-40-68-103 43q-17-19-47.5-37T532-691l-12-109h-80l-12 108q-30 6-55 20t-51 40l-100-42-40 68 87 65q-5 13-7 29t-2 33q0 15 2 30t6 29l-86 66 40 68 99-42q24 24 54.5 39.5T440-265v133h-24Zm62-348Z"/></svg>