<svg xmlns="http://www.w3.org/2000/svg" height="20" viewBox="0 -960 960 960" width="20"><path d="M626-64q-43.72 0-70.86-27.14T528-162v-124q0-43.73 27.14-70.86Q582.28-384 626-384h228q43.72 0 70.86 27.14Q952-329.73 952-286v124q0 43.72-27.14 70.86T854-64H626Zm0-98h228v-124H626v124ZM443-314q-58.9-10.72-98.45-57.7Q305-418.69 305-482q0-71.6 50.2-121.8T477-654q71.6 0 121.8 50.2T649-482q0 6-.5 12t-1.5 12h-58q-11 0-22.5 1.5T545-452q3-7 4.5-14.07t1.5-15.16q0-31.18-21.61-52.97-21.6-21.8-52.5-21.8-30.89 0-52.39 21T403-482.7q0 31.09 21.5 52.89Q446-408 476-408h3q-16 18-25.5 42.5T443-314Zm34-169ZM380-64l-24-121q-17-8-34.78-17.45Q303.44-211.91 288-225l-119 40-99-177 90-80q-1-9.9-2-19.95-1-10.05-1-20.58 0-10.53 1-20.23 1-9.71 2-19.24l-90-79 99-175 115 39q16-13 35-23t38-19l23-119h200l23 120q18 9 37.5 19t35.5 23l115-39 99 175-92 80q1 10 2 19.08 1 9.07 1 18.92 0 6-.5 12t-1.5 12h-98q1-6 1.5-12t.5-12q0-18.79-3.5-38.4Q696-540 690-560l73-65-17-30-95 30q-26-31-59.89-50.79-33.9-19.8-74.11-26.21l-18-98h-39l-17 97q-42 8-76.5 28.5T307-624l-93-31-19 30 73 67q-6 22-9.5 40.5t-3.5 34.92q0 17.58 3 37.08t9 42.5l-72 66 18 30 94-31q27 30 62 49t74 28v197h-63Zm97-419Z"/></svg>