<svg xmlns="http://www.w3.org/2000/svg" height="20" viewBox="0 -960 960 960" width="20"><path d="M606-116q-36.72 0-57.36-20.64Q528-157.27 528-194v-112q0-36.73 20.64-57.36Q569.28-384 606-384h216q36.72 0 57.36 20.64Q900-342.73 900-306v112q0 36.73-20.64 57.36Q858.72-116 822-116H606Zm0-46h216q14 0 23-9t9-23v-112q0-14-9-23t-23-9H606q-14 0-23 9t-9 23v112q0 14 9 23t23 9ZM448-366q-39.9-6.72-67.45-39.7Q353-438.69 353-482q0-50.6 34.7-85.3Q422.4-602 473-602q48.6 0 82.8 32.7Q590-536.6 593-489q0 6-.5 12t-1.5 12h-16q-8 1-16.5 2t-16.5 3q3-5 4.5-10.57t1.5-11.66q-1-30.18-23.11-51.97-22.1-21.8-52-21.8-30.89 0-52.39 21T399-482.7q0 30.09 20.5 51.89Q440-409 467-408h3q-8 7-13.5 18.5T448-366Zm25-117Zm-47 367-22-105q-25-9-56.78-25.45Q315.44-262.91 294-284l-103 34-53-99 76-69q-2-14.9-4.5-31.45Q207-466 207-481.53q0-14.53 2.5-30.23Q212-527.47 214-546l-76-68 53-95 98 32q25-22 55.5-38.5T404-743l22-103h108l21 105q31 13 58.5 27.5T667-676l102-32 53 95-82 72q4 17 5.5 31.08Q747-495.85 747-482q0 6-.5 12t-1.5 12h-48q1-6 1.5-12t.5-12q1-16.79-2.5-34.9Q693-535 687-557l77-68-18-30-99 31q-21-27-58.89-49.29-37.9-22.3-72.11-25.71l-17-101h-40l-15 99q-41 6-74 25t-62 53l-94-32-20 30 74 68q-6 20-9.5 39.5t-3.5 35.92q0 16.58 3 36.08t8 41.5l-72 67 19 30 94-31q27 29 62.5 46.5T443-262v146h-17Zm47-367Z"/></svg>