<svg xmlns="http://www.w3.org/2000/svg" height="20" viewBox="0 -960 960 960" width="20"><path d="M581.54-142.15q-25.94 0-39.74-13.8T528-195.69v-134.77q0-25.94 13.8-39.74t39.74-13.8h230.77q25.94 0 39.74 13.8t13.8 39.74v134.77q0 25.94-13.8 39.74t-39.74 13.8H581.54Zm0-28.93h230.77q10.77 0 17.69-6.92 6.92-6.92 6.92-17.69v-134.77q0-10.77-6.92-17.69-6.92-6.93-17.69-6.93H581.54q-10.77 0-17.69 6.93-6.93 6.92-6.93 17.69v134.77q0 10.77 6.93 17.69 6.92 6.92 17.69 6.92ZM460.35-380.96q-36.16-4.31-60.93-32.82-24.77-28.5-24.77-66.15 0-42.69 29.02-71.84 29.01-29.15 71.96-29.15 40.64 0 69.41 27.65 28.77 27.65 31.46 67.89 0 6-.5 12.05-.5 6.06-1.5 12.06h-8.19q-6.51.77-12.18 1.58t-11.67 1.92q3-5.25 4.5-10.94 1.5-5.69 1.5-11.94-.77-29.28-22.19-50.32Q504.86-552 475.58-552q-30 0-51 21t-21 51q0 28.73 19.95 49.97t47.59 22.15h3q-4.12 5.8-7.4 12.92-3.28 7.11-6.37 14ZM475.58-480Zm-33.62 337.85-20.46-99.73q-29.54-9.89-62.79-27.52-33.25-17.64-56.96-39.79l-95.25 31.15-38.54-68.08 75-66.42q-3.15-15.7-5.11-32.22-1.97-16.51-1.97-34.47 0-15.46 2.22-32.39 2.21-16.92 4.98-37.07l-75.12-67.19 38.54-65.93 95.69 32q25.31-22.54 55.71-39.73 30.41-17.19 62.83-28.34l21.23-100.58h76.46l20.46 100.61q33.24 12.2 61.14 27.91t54.6 40.13l99.26-31 38.54 65.93-79.92 69.77q3.92 17.34 5.5 32.88 1.58 15.54 1.58 32.35 0 6-.5 12t-1.5 12h-30.46q1-6 1.5-12t.5-12q.88-15.97-2.62-33.2-3.5-17.22-9.5-37.13l79.69-70.17-17.65-29.39-100.31 33.39q-20.81-25.7-55.88-46.62-35.08-20.92-66.73-24.5L497.9-789.54h-36.67l-16.96 101.18q-38.23 5.94-68.04 22.61-29.81 16.67-58.61 49.37l-96.27-33.39-18.66 29.39 76.66 67.26q-6 17.08-9.5 36.1-3.5 19.01-3.5 37.26 0 19.03 2.75 37.03t7.98 35.35l-74.39 67.15 17.57 29.38 95.47-32q27 30.62 63.64 48.04 36.63 17.43 77.13 26.08v126.58h-14.54ZM475.58-480Z"/></svg>