<svg xmlns="http://www.w3.org/2000/svg" height="24" viewBox="0 -960 960 960" width="24"><path d="M621-70.78q-42.24 0-71.62-29.38Q520-129.54 520-171.78V-299q0-42.24 29.38-71.62Q578.76-400 621-400h210.61q42.24 0 71.62 29.38 29.38 29.38 29.38 71.62v127.22q0 42.24-29.38 71.62-29.38 29.38-71.62 29.38H621Zm0-101h210.61V-299H621v127.22Zm-261.89 101L341.98-201.5q-8.72-3.86-18.17-8.82-9.46-4.96-17.07-10.14l-121.15 50.83L63.63-382.15l105.52-79.89q-.43-4.12-.43-7.95v-9.96q0-3.64.25-8.46.25-4.81.68-11.55L63.63-578.85l121.96-210.39 123.78 51.26q6.61-5.17 14.34-9.63 7.72-4.46 18.27-8.76l17.13-133.85h241.78l17.13 132.35q9.72 3.71 17.67 8.47 7.96 4.75 15.57 11.42l123.15-51.26 121.96 210.39-109.09 80.94q.44 3.56.44 8.15v9.69H612.8v-.5q-.56-55.92-39.89-95.18Q533.57-615 478.04-615q-56.74 0-95.99 39.25Q342.8-536.5 342.8-480q0 46.4 27.29 81.77 27.28 35.36 69.84 47.8v279.65h-80.82Z"/></svg>