<svg xmlns="http://www.w3.org/2000/svg" height="40" viewBox="0 -960 960 960" width="40"><path d="M575.17-133.67q-22.98 0-39.07-16.09-16.1-16.1-16.1-39.07v-156q0-22.98 16.1-39.07 16.09-16.1 39.07-16.1h236q22.97 0 39.07 16.1 16.09 16.09 16.09 39.07v156q0 22.97-16.09 39.07-16.1 16.09-39.07 16.09h-236Zm0-23.16h236q14 0 23-9t9-23v-156q0-14-9-23t-23-9h-236q-14 0-23 9t-9 23v156q0 14 9 23t23 9ZM448.83-400.5q-25.33-8.5-41-30.23-15.66-21.73-15.66-49.37 0-36.11 24.61-60.59 24.62-24.48 60.84-24.48 33.21 0 57.3 22.51Q559-520.16 562.5-487q0 .67-.17 1.5-.16.83.17 2.17h-1.83q-5.65 1-10.81 1.75-5.17.75-10.86 2.08v-2.83q-.33-24.34-18.44-42-18.11-17.67-43-17.67-25.89 0-44.06 18.08-18.17 18.09-18.17 43.92 0 20.54 12.06 36.87 12.05 16.32 31.78 22.46-3.66 4.69-5.69 10.14-2.04 5.45-4.65 10.03Zm28.5-79.5Zm-56.66 346.33L406-244.83q-22.83-6.34-50.25-21.59T309.79-299l-101.12 45-59.84-106 89.34-66.33q-2.5-12.98-3.75-26.16T233.17-479q0-11.5 1.33-25.08 1.33-13.59 3.33-29.92l-89-67.67 59.84-103.16 101 43.5q20.83-16.84 46-31.75Q380.83-708 405-715.17l15.67-111.33h119.5l14.66 111.83q26 9.34 48.09 22.25 22.08 12.92 43.75 31.09l106.16-43.5L812-601.67l-93.83 70.38q3.16 14.62 4.08 27.04.92 12.42.92 23.92H698q-.33-17.17-2.33-29.71t-5.34-28.71l91.5-69.08-39.33-68.5-104.67 43.83q-18-19.33-48.66-38-30.67-18.67-55.5-22.67l-12.99-110.16h-81.35l-11.5 109.55q-32.33 6.45-57.08 20.28-24.75 13.83-50.92 40l-101.5-42.83-40.33 68.5 89.33 65.16q-5 13.84-7 29.87t-2 32.95q0 16.94 1.75 31.48t5.75 29.54L178-352.33l40.05 68.5 101.12-42.67q24 24.45 54.91 40.22Q405-270.5 439.83-263.5v129.83h-19.16ZM477.33-480Z"/></svg>