<svg xmlns="http://www.w3.org/2000/svg" height="48" viewBox="0 -960 960 960" width="48"><path d="M597.28-70.87q-31.71 0-54.49-22.62Q520-116.11 520-147.59v-175.69q0-30.88 22.79-53.8Q565.57-400 597.28-400h257.96q30.88 0 53.8 22.92 22.92 22.92 22.92 53.8v175.69q0 31.48-22.92 54.1t-53.8 22.62H597.28Zm0-76.72h257.96v-175.69H597.28v175.69ZM378.29-70.87 358-199.89q-15.84-5.36-35.18-16.17-19.34-10.81-32.64-21.55l-119.83 55.26-103.5-183.17 110.39-80.26q-1.44-7.21-1.94-16.57-.5-9.37-.5-17.6 0-6.73.5-16.84.5-10.1 1.94-18.43L66.85-596.04l103.5-181.55 122.23 55.2q11.46-9.68 29.89-20.23 18.42-10.55 35.53-15.92l20.55-131.66h203.39l20.56 130.16q15.73 5.81 34.6 16.14 18.86 10.33 31.6 21.51l122.02-55.2 102.93 181.55-112.45 79.86q-.07 7.14.96 17.54 1.04 10.4 1.04 17.07H603.87q-.57-52.39-37.43-89.16-36.87-36.77-88.34-36.77-54.3 0-91.01 37.25Q350.37-533 350.37-480q0 41.3 24.06 74.33 24.07 33.04 61.5 45.48v289.32h-57.64Z"/></svg>