<svg xmlns="http://www.w3.org/2000/svg" height="40" viewBox="0 -960 960 960" width="40"><path d="M595.79-98.67q-31.3 0-53.54-22.24Q520-143.16 520-174.46v-149.75q0-31.3 22.25-53.54Q564.49-400 595.79-400h235.08q31.3 0 53.55 22.25 22.25 22.24 22.25 53.54v149.75q0 31.3-22.25 53.55-22.25 22.24-53.55 22.24H595.79Zm0-51.18h235.08q10.77 0 17.69-6.92 6.93-6.92 6.93-17.69v-149.75q0-10.76-6.93-17.69-6.92-6.92-17.69-6.92H595.79q-10.76 0-17.69 6.92-6.92 6.93-6.92 17.69v149.75q0 10.77 6.92 17.69 6.93 6.92 17.69 6.92ZM395.72-98.67 378.8-218.54q-17.11-5.59-39.73-17.97-22.63-12.37-37.81-26.08l-111.7 48.69-84.1-151.74L200.64-438q-.92-8-2.15-20.78-1.23-12.78-1.23-22.78 0-7.23 1.23-19.39 1.23-12.15 2.15-24.38l-95.18-71.54 84.1-148.36 108.26 46.74q17.39-13.87 39.4-26.41 22.01-12.54 41.14-19.23l17.36-118.54h169.23l15.92 119.64q21.44 8.24 41.09 19.49 19.66 11.26 37.14 25.39l112.52-47.08 83.59 148.36-100.26 74.36q2.31 10.36 3.1 21.57.8 11.22.8 19.45h-169v-.77q0-47.71-33.45-81.18-33.45-33.48-80.7-33.48-47.17 0-81.01 33.56-33.84 33.57-33.84 81.26 0 35.93 19.32 64.18 19.32 28.26 50.37 40.71v278.54h-34.82Z"/></svg>