<svg xmlns="http://www.w3.org/2000/svg" height="24" viewBox="0 -960 960 960" width="24"><path d="M618.31-68q-41.04 0-69.67-28.64Q520-125.28 520-166.31v-135.38q0-41.04 28.64-69.67Q577.27-400 618.31-400h223.38q41.03 0 69.67 28.64Q940-342.73 940-301.69v135.38q0 41.03-28.64 69.67T841.69-68H618.31Zm0-86h223.38q5.39 0 8.85-3.46t3.46-8.85v-135.38q0-5.39-3.46-8.85t-8.85-3.46H618.31q-5.39 0-8.85 3.46t-3.46 8.85v135.38q0 5.39 3.46 8.85t8.85 3.46ZM428.92-342q-43.59-15.18-71.52-52.78-27.94-37.6-27.94-87.22 0-61.52 43.24-104.76T477.46-630q60.75 0 103.8 42.47t44.2 102.84h-43.85q-10.84.38-21.69 1.69-10.84 1.31-21.07 4.92v-4.54q-.39-25.79-18.19-43.58-17.8-17.8-43.31-17.8-25.89 0-43.89 17.5t-18 43.8q0 21.7 12.62 38.01 12.61 16.31 31.46 21.69-13.92 15.77-21.89 36.77-7.96 21-8.73 44.23Zm48.54-141ZM364.69-68l-17.23-128.85q-10.07-4.38-23.24-11.53-13.16-7.15-22.91-15.31L179.46-173 65.16-377l100.61-77.77q-.38-6.82-.96-13.87-.58-7.05-.58-13.5 0-6.07.58-12.59.58-6.51.96-14.5L65.16-585l114.3-201.23 117.46 48.31q11.47-8.46 25.39-15.96t25.77-13.27L364.69-894h230.62l16.23 128.23q13 6.54 25.57 13.27 12.58 6.73 24.43 15.58l119-49.31L894.84-585l-104.15 78.92q1.15 7.69 1.35 13.19.19 5.5.19 10.89h-86.77q-.61-19.02-2.61-33.55-2-14.53-6-30.3L781.38-610 743-678l-99.54 40.38q-20.08-22.46-50.01-39.71-29.93-17.26-60.83-24.52L521-808h-82.38l-11.24 104.77q-34.61 8.23-62.53 24.65-27.93 16.43-51.47 40.96L217-678l-40.38 68L260-545.62q-5 18.24-7 33.62-2 15.38-2 29.81 0 13.19 2 29.19t6.62 36.62l-83 64.38L217-284l97-41q24 22.62 52.69 39.04 28.69 16.42 60.31 25.58V-68h-62.31Zm112.77-415Z"/></svg>