<svg xmlns="http://www.w3.org/2000/svg" height="20" viewBox="0 -960 960 960" width="20"><path d="M610.62-104q-38.34 0-60.48-22.14Q528-148.27 528-186.62v-114.76q0-38.34 22.14-60.48Q572.28-384 610.62-384h218.76q38.35 0 60.48 22.14Q912-339.72 912-301.38v114.76q0 38.35-22.14 60.48Q867.73-104 829.38-104H610.62Zm0-58h218.76q10.77 0 17.7-6.92 6.92-6.93 6.92-17.7v-114.76q0-10.77-6.92-17.7-6.93-6.92-17.7-6.92H610.62q-10.77 0-17.7 6.92-6.92 6.93-6.92 17.7v114.76q0 10.77 6.92 17.7 6.93 6.92 17.7 6.92ZM446.85-354q-44.29-7.64-74.61-43.86-30.32-36.21-30.32-84.14 0-55.45 38.28-93.72Q418.48-614 473.92-614q53.91 0 91.8 36.74 37.9 36.74 40.2 89.88 0 6-.5 12t-1.5 12h-25.69q-8.69.76-17.88 1.88-9.2 1.12-17.66 3.35 3-5.47 4.5-11.38 1.5-5.92 1.5-12.47-.77-30.41-22.76-52.2-21.99-21.8-52.11-21.8-30.9 0-52.4 21t-21.5 52.3q0 30.32 20.73 52.13 20.73 21.8 48.43 22.57h3q-9.85 9.54-16.27 24.04-6.43 14.5-8.96 29.96Zm27.07-129Zm-58.54 379-22.46-108.69q-23.15-8.77-51.7-23.61-28.55-14.84-48.6-34.08L185.92-235l-63.61-117 79.23-71.54q-1.77-13.74-3.92-28.79-2.16-15.05-2.16-29.43 0-13.61 2.16-27.93 2.15-14.32 3.92-30.77L122.31-611l63.61-113.46 101.93 33.61q22.92-19.92 50.77-34.92 27.84-15 54.53-25.54L415.38-858h129.24l21.46 108.46q28 12.08 53.65 25.54 25.65 13.46 49.35 34.15l105-33.61L837.69-610l-84.31 73.85q3.31 15.38 4.7 28.3 1.38 12.92 1.38 25.85 0 6-.5 12t-1.5 12h-59.54q1-6 1.5-12t.5-12q.77-17.25-2.73-35.7-3.5-18.45-9.5-39.99L763.77-625 746-655l-98.08 30.77q-22.15-27.92-59.12-49.64t-72.57-25.82L499-800h-39.77l-15.46 98.54q-41.23 6.46-74.58 25.81-33.34 19.34-61.42 52.42L214-655l-19.77 30L268-557.23q-6 20.46-9.5 39.73-3.5 19.27-3.5 35.69 0 16.81 3 36.31 3 19.5 8.23 41.73l-72 66.77L213-307l94-31q27 29.23 62.38 47.08 35.39 17.84 73.62 29.15V-104h-27.62Zm58.54-379Z"/></svg>