<svg xmlns="http://www.w3.org/2000/svg" height="40" viewBox="0 -960 960 960" width="40"><path d="M593.33-110.67q-30.57 0-51.95-21.38Q520-153.43 520-184v-142.67q0-30.57 21.38-51.95Q562.76-400 593.33-400h228q30.58 0 51.96 21.38 21.38 21.38 21.38 51.95V-184q0 30.57-21.38 51.95-21.38 21.38-51.96 21.38h-228Zm0-41.33h228q14 0 23-9t9-23v-142.67q0-14-9-23t-23-9h-228q-14 0-23 9t-9 23V-184q0 14 9 23t23 9ZM440-383.33q-30.56-10.72-49.78-37.28Q371-447.17 371-481.24q0-44.24 30.43-74.5Q431.87-586 475.73-586q41.87 0 71.74 28.2 29.86 28.19 32.86 69.47 0 .66-.33 1.66-.33 1 .33 2.34H567q-7.02 1-14.34 1.66-7.33.67-13.66 2.34-.67-.67-.33-.74.33-.07.33-2.16-.33-25.28-18.98-43.36-18.65-18.08-44.33-18.08-26.69 0-45.02 17.94-18.34 17.94-18.34 44.87 0 21.62 12.82 38.62 12.81 17 31.52 22.91-6.49 6.85-10.62 16.93-4.14 10.09-6.05 20.07Zm35.67-99Zm-71.34 371.66-16-116.33q-18.33-5.67-43.13-18.97-24.8-13.3-40.87-28.7l-108 47L121-364.33l91.33-69.78q-1-10.46-2.5-23-1.5-12.55-1.5-23.64 0-10.09 1.5-22.12 1.5-12.04 2.5-26.46l-91.33-69L196.33-731l104.34 44.67q19-15.34 42.66-28.84 23.67-13.5 44.34-20.5l16.66-115h152l15 116.34q23.67 9 44.17 20.83 20.5 11.83 39.83 27.5L765-731l74.67 132.67-97.34 72.66q3 13.34 3.84 23.91.83 10.58.83 20.43h-43.33q-.14-18.2-2.4-31.6-2.27-13.4-4.94-30.4l89-67.34-39-68.66-104 42.33q-17.66-20-49.84-39.46-32.18-19.46-59.42-23.54l-11.68-109.33H438l-10.67 108q-34 7-60.66 22.16Q340-664 314-637.67l-99.48-41.66-41.19 68.66L260.67-545q-5 15.67-7 31.67t-2 32.14q0 15.12 2 30.65 2 15.54 6 33.54l-86.34 66.33 41 68.67L314-324.33q24 23.71 54 39.36 30 15.64 63 25.3v149h-26.67Zm71.34-371.66Z"/></svg>