<svg xmlns="http://www.w3.org/2000/svg" height="24" viewBox="0 -960 960 960" width="24"><path d="M646-46q-53 0-89.5-36.5T520-172v-102q0-53 36.5-89.5T646-400h188q53 0 89.5 36.5T960-274v102q0 53-36.5 89.5T834-46H646Zm0-126h188v-102H646v102ZM341-46l-18-139q-5.42-2.11-10.21-5.05Q308-193 303-196l-129 55L34-385l111-84v-22L34-575l140-242 131 54q5-3 9-5.5t9-4.5l18-141h278l18 141q5.42 1.84 10.21 4.42Q652-766 657-763l129-54 140 242-112 84v10H620q-1-58-42.21-98.5Q536.59-620 479-620q-59 0-99.5 40.5T339-480q0 48 28 85t72 50v299h-98Z"/></svg>