<svg xmlns="http://www.w3.org/2000/svg" height="40" viewBox="0 -960 960 960" width="40"><path d="M577.05-122.82q-23.59 0-40.32-16.73T520-179.87v-163.08q0-23.59 16.73-40.32T577.05-400h243.08q23.59 0 40.32 16.73t16.73 40.32v163.08q0 23.59-16.73 40.32t-40.32 16.73H577.05Zm0-32.44h243.08q10.77 0 17.69-6.92 6.92-6.92 6.92-17.69v-163.08q0-10.77-6.92-17.69-6.92-6.92-17.69-6.92H577.05q-10.77 0-17.69 6.92-6.92 6.92-6.92 17.69v163.08q0 10.77 6.92 17.69 6.92 6.92 17.69 6.92Zm-164.42 32.44-15.59-114.24q-21.49-6.38-46.98-20.55-25.5-14.17-42.99-30.12l-104.6 46.46-68.02-120.15 92.95-68.91q-2.31-11.86-3.35-24.16-1.04-12.29-1.04-24.74 0-10.62 1.12-23.41 1.13-12.8 3.05-27.59l-92.73-69.86 68.02-117.82 104.7 45.46q19.1-15.49 42.67-29.38 23.57-13.9 46.43-20.88l16.36-114.75h135.46l15.59 114.79q24 8.68 45.24 21.02 21.23 12.34 41.05 29.2l108.79-45.46 67.51 117.82-96.87 71.95q2.59 13.32 3.41 25.06.82 11.75.82 22.71H572.14v-.55q0-39.5-28.05-67.05-28.05-27.54-66.84-27.54-39.72 0-67.36 27.53-27.65 27.53-27.65 67.21 0 29.41 15.82 52.91 15.81 23.51 41.31 34.24v270.8h-26.74Z"/></svg>