<svg xmlns="http://www.w3.org/2000/svg" height="20" viewBox="0 -960 960 960" width="20"><path d="M606-97.87q-35.72 0-56.86-21.14T528-175.87V-306q0-35.72 21.14-56.86T606-384h227.57q35.72 0 56.86 21.14T911.57-306v130.13q0 35.72-21.14 56.86t-56.86 21.14H606Zm0-78h227.57V-306H606v130.13Zm-204.43 78L379.09-211q-21.19-8.81-42.84-20.09-21.64-11.28-39.21-26.08l-108.89 36.19-79.17-137.91 86.91-75.94q-1.76-10.47-2.76-21.06-1-10.59-1-24.09 0-11 1.25-22.58 1.25-11.57 3.01-24.61l-87.41-75.94 79.17-136.43 110.87 37.95q16.57-14.8 36.4-25.73 19.84-10.92 43.67-20.2l22.48-115.61h156.86l22.48 114.11q22.19 8.74 42.34 19.94 20.14 11.19 37.71 27.49l110.89-36.95 79.17 136.43-90.15 76.98q1.76 17.52 2.76 33.92 1 16.41-1 35.47H611.78q1-6 1.5-12.75t.5-12.75q-.24-57.93-40.17-97.84Q533.68-619 476.01-619q-57.73 0-97.98 40.25-40.25 40.25-40.25 97.75 0 52.4 34.12 91.44t84.36 45.8v245.89h-54.69Z"/></svg>