<svg xmlns="http://www.w3.org/2000/svg" height="40" viewBox="0 -960 960 960" width="40"><path d="M578.46-120q-24.58 0-41.52-16.94Q520-153.88 520-178.46v-163.08q0-24.58 16.94-41.52Q553.88-400 578.46-400h243.08q24.58 0 41.52 16.94Q880-366.12 880-341.54v163.08q0 24.58-16.94 41.52Q846.12-120 821.54-120H578.46Zm0-33.85h243.08q10.77 0 17.69-6.92 6.92-6.92 6.92-17.69v-163.08q0-10.77-6.92-17.69-6.92-6.92-17.69-6.92H578.46q-10.77 0-17.69 6.92-6.92 6.92-6.92 17.69v163.08q0 10.77 6.92 17.69 6.92 6.92 17.69 6.92ZM448.87-388.1q-29.2-8.98-48.45-34.21-19.24-25.23-19.24-57.84 0-40.88 28.43-68.83 28.42-27.94 68.82-27.94 38.85 0 66.49 26.4 27.64 26.41 29.95 64.98 0 1.28-.08 2.9-.07 1.61-.23 3.41h-11.33q-6.1.77-11.59 1.4-5.49.63-11.15 2.04.3-1.44.38-2.58.08-1.14.08-3.25-.26-25.35-18.6-43.41-18.34-18.05-43.97-18.05-26.41 0-44.88 18.36-18.47 18.35-18.47 44.57 0 21.7 13.34 38.64 13.35 16.95 33.5 22.41-4.83 6.63-7.72 14.56-2.89 7.92-5.28 16.44Zm29.23-92.05ZM410.72-120l-15.59-114.87q-21.1-6.59-46.12-20.51-25.01-13.93-42.42-29.88l-106.03 47.03-69.43-122.41 93.51-69.69q-1.92-11.67-3.15-24.45t-1.23-24.45q0-10.9 1.23-23.55 1.23-12.66 3.15-26.89l-93.51-70.2 69.43-120.36 105.26 45.74q19.72-16.2 43.23-29.74 23.51-13.54 45.31-20.23L410.72-840h138.56l15.59 115.64q24.44 8.9 45.43 20.82 20.98 11.92 40.8 29.05l108.85-45.74 68.92 120.36-96.59 71.69q3.31 13.36 3.77 25.24.46 11.89.46 22.79h-35.38q-.08-18.13-2.08-31.63t-5.49-28.86l91.34-68.44-39.93-69.13-104.17 43.9q-18.83-20.9-49.04-39.14-30.22-18.24-57.73-22.45l-13.18-110.25h-81.9l-12.46 109.48q-31.72 6.31-57.79 21.14-26.06 14.84-51.29 40.38l-102.38-43.06-39.93 69.13 89.54 66.05q-4.85 14.29-6.92 30.29-2.08 16-2.08 33.26 0 16.41 2.08 31.51 2.07 15.1 6.15 30.15l-88.77 66.9 39.93 69.13 101.61-43.13q24.31 24.68 55.74 40.71 31.44 16.03 66.49 23.8V-120h-28.15Zm67.38-360.15Z"/></svg>