<svg xmlns="http://www.w3.org/2000/svg" height="20" viewBox="0 -960 960 960" width="20"><path d="M633.17-60.65q-46.93 0-76.05-29.12Q528-118.9 528-165.83v-113q0-46.93 29.12-76.05Q586.24-384 633.17-384h217.24q46.93 0 76.05 29.12 29.13 29.12 29.13 76.05v113q0 46.93-29.13 76.06-29.12 29.12-76.05 29.12H633.17Zm0-105.18h217.24v-113H633.17v113ZM445.39-316.15q-58.7-9.84-98.23-56.37-39.53-46.52-39.53-109.23 0-70.43 49.36-119.79 49.36-49.35 119.77-49.35t119.65 49.25q49.24 49.25 49.48 119.64 0 6-.5 12t-1.5 12h-47.96q-14.58 0-29.07 2.93-14.49 2.94-26.88 8.33 3.72-7.96 5.81-16.34 2.1-8.39 2.1-17.68 0-29.95-20.76-50.92-20.77-20.97-50.42-20.97-29.65 0-50.25 20.16-20.59 20.16-20.59 50.27 0 30.85 21.74 52.06 21.74 21.2 51.74 20.01 2.19 0 3.65-.12t3.17-.6q-17.19 18-27.89 42.74-10.69 24.74-12.89 51.98Zm31.37-166.37ZM376.41-60.65l-24.24-122.44q-16.14-7.54-32.8-16.41-16.66-8.87-31.13-21.2l-120.2 40.72L65.22-363.43l91.43-80.72q-1-9.14-1.88-18.63-.88-9.48-.88-19.37t.88-19.03q.88-9.14 1.88-17.95l-91.43-80.2 102.82-181.21 117.16 39.71q15.01-12.15 32.59-21.38 17.58-9.22 35.38-17.51l23.24-121.39h207.18l23.24 122.15q17.14 8.25 35.27 17.55 18.14 9.3 33.18 21.58l116.68-39.71 102.82 181.21-93.43 80.72q1 9.24 2 17.88 1 8.64 1 17.73 0 6-.5 12t-1.5 12H696.89q1-6 1.5-12t.5-12q.28-18.79-3.57-38.52-3.86-19.72-9.86-39.72l73.24-65-14.85-25.69-94.72 30.47q-26.04-31.71-60.18-51.75-34.13-20.03-74.58-25.96l-18.24-97.76h-33.5l-16.76 96.52q-42 7.76-76.98 28.38-34.98 20.62-60.22 51.33l-92.76-31.23-16.13 25.69 72.52 66.28q-6.23 22-9.85 40.81-3.62 18.8-3.62 36.07 0 18.28 3.12 38.01 3.12 19.74 9.35 42.27l-71.52 65.28 15.13 25.69 93.47-31q26.95 30.21 62 49.34 35.05 19.14 74.29 28.38v203.46h-68.26Zm100.35-421.87Z"/></svg>