<svg xmlns="http://www.w3.org/2000/svg" height="48" viewBox="0 -960 960 960" width="48"><path d="M590.69-84q-28.25 0-49.47-21.22T520-154.69v-174.62q0-28.25 21.22-49.47T590.69-400h258.62q28.25 0 49.47 21.22T920-329.31v174.62q0 28.25-21.22 49.47T849.31-84H590.69Zm0-58.39h258.62q5.38 0 8.84-3.46t3.46-8.84v-174.62q0-5.38-3.46-8.84-3.46-3.47-8.84-3.47H590.69q-5.38 0-8.84 3.47-3.47 3.46-3.47 8.84v174.62q0 5.38 3.47 8.84 3.46 3.46 8.84 3.46ZM389.69-84l-19.07-124.23q-17.54-6-39.51-18.3-21.98-12.3-37.57-25.32l-115.85 51.93-90.92-163.31 102.08-76.38q-1-7.54-1.89-20.01-.88-12.46-.88-22 0-7.15.88-19.11.89-11.96 1.89-22.66L86.77-599.15l90.92-161.16 113.46 51.16q16.31-12.93 38.24-25.58 21.92-12.65 40.84-19.04L389.69-877h181.62l18.07 123.62q20.08 7.15 41.16 19.23 21.07 12.07 36.77 25l116.38-51.16 90.54 161.16-105.62 76.3q1.16 9.93 2.16 21.5 1 11.58 1 19.73H602.54v-.38q0-52.41-36.69-89.05-36.7-36.64-88.36-36.64-52.3 0-89.32 36.81-37.01 36.8-37.01 89.5 0 40.41 22.31 71.82 22.32 31.41 57.68 44.48V-84h-41.46Z"/></svg>