<svg xmlns="http://www.w3.org/2000/svg" height="20" viewBox="0 -960 960 960" width="20"><path d="M621-86.78q-42.24 0-67.62-25.38Q528-137.54 528-179.78V-291q0-42.24 25.38-67.62Q578.76-384 621-384h210.61q42.24 0 67.62 25.38 25.38 25.38 25.38 67.62v111.22q0 42.24-25.38 67.62-25.38 25.38-67.62 25.38H621Zm0-93h210.61V-291H621v111.22ZM457.63-339.11q-52.26-5.87-87.96-46.11-35.69-40.25-35.69-94.57 0-59.38 41.37-100.71 41.37-41.33 100.48-41.33 59.1 0 100.17 41.1 41.07 41.11 41.63 100.16 0 6-.5 12.25t-1.5 12.25h-22.98q-16.64 0-32.25 4.11-15.62 4.11-28.84 11.83 5.27-8.83 7.9-18.34 2.63-9.5 2.63-20.46 0-27.58-19.32-46.93-19.31-19.36-46.83-19.36-27.31 0-46.33 19.02-19.02 19.03-19.02 46.2 0 28.93 21.57 49.52 21.57 20.58 51.12 17.89 3.83 0 6.31-.28 2.48-.28 5.74-1.41-14.03 14.63-23.98 34.2-9.96 19.58-13.72 40.97ZM475.8-480ZM392.11-86.78 368.98-203.5q-18.72-7.86-38.17-17.82-19.46-9.96-35.07-23.14l-112.15 37.83-88.96-155.52 89.52-77.89q-1.43-9.12-2.43-18.45-1-9.32-1-21.46 0-9.64 1.25-19.96 1.25-10.31 2.68-22.05l-90.02-77.89 88.96-153.39 114.78 39.26q14.61-13.17 31.84-22.63 17.22-9.46 38.77-17.76l23.13-119.85h175.78l23.13 118.35q19.72 7.71 37.67 17.47 17.96 9.75 33.57 24.42l114.15-38.26 88.96 153.39-93.09 78.94q1.44 9.13 2.44 18.65 1 9.52 1 21.19 0 6-.5 12t-1.5 12h-93.57q1-6 1.5-12t.5-12q1.07-18.06-3-36.88-4.06-18.81-10.63-37.63l76.44-67.12-10.85-18.82-96.87 33q-23.5-29.7-56.91-49.54-33.42-19.85-70.05-24.79l-18.93-99.37h-23.7l-17.37 98.31q-40.69 6.93-72.39 25.03-31.69 18.1-58.76 50.36l-93.8-33-11.29 18.82 73.24 64.81q-6 20.13-10.06 38.85-4.07 18.72-4.07 37.51 0 19.6 3.32 38.73 3.31 19.13 9.31 38.76l-71.74 63.74 10.36 18.82 93.11-31.43q26.56 31 62.52 49 35.97 18 75.9 27.19v188.94h-63.82ZM475.8-480Z"/></svg>