<svg xmlns="http://www.w3.org/2000/svg" height="20" viewBox="0 -960 960 960" width="20"><path d="M577.5-153q-24.44 0-36.97-12.53Q528-178.06 528-202.5v-132q0-24.44 12.53-36.97Q553.06-384 577.5-384h228q24.44 0 36.97 12.53Q855-358.94 855-334.5v132q0 24.44-12.53 36.97Q829.94-153 805.5-153h-228Zm0-17.5h228q14 0 23-9t9-23v-132q0-14-9-23t-23-9h-228q-14 0-23 9t-9 23v132q0 14 9 23t23 9Zm-116-222q-32-3.5-54-28.89-22-25.4-22-58.59 0-38.02 25.55-63.77t64-25.75q35.45 0 60.7 23.79Q561-521.93 564.5-487q0 6-.5 12t-1.5 12h1.5q-6.01 1-11.16 1.75T542-459.5q3-4.86 4.5-10.25T548-481q-1-29-22.5-50T475-552q-30 0-51 21t-21 51q0 28.5 19.72 49.68T469.5-408h3q-2.5 3.5-4.97 7.73-2.46 4.22-6.03 7.77ZM475-480Zm-23 327-20-96.5q-31.5-10-67.75-29.25T302.87-322L211-292l-28.5-51 72-64q-3.5-16.98-5.75-34.99T246.5-479q0-16.5 2.5-34.75t5.5-40.25l-72-65 28.5-48.5 92 30.5q27.5-24.5 60.5-43.25T431-710.5l21-97h56.5l20 97.5q36 13 65.75 29.75T653-637l96.5-29.5L778-618l-77.5 68.04q4.5 18.96 6.25 35.71T708.5-480q0 6-.5 12t-1.5 12H687q1-6 1.5-12t.5-12q1-15.5-2.5-32.42-3.5-16.93-9.5-37.33l80.5-70.75-18-29.5-101 33.5q-20-25-56-46.5T516-687.5L498-790h-37l-16.5 101.54q-38 5.46-67.75 21.96t-59.25 50L221-650l-19 29.5 77 67.5q-6 16.5-9.5 35.82t-3.5 37.65q0 19.03 2.75 37.03t7.75 35L202-340l17.86 29.5 95.64-32q27 30.5 63.75 47.75t77.25 26.25V-153H452Zm23-327Z"/></svg>