<svg xmlns="http://www.w3.org/2000/svg" height="40" viewBox="0 -960 960 960" width="40"><path d="M616.81-54.15q-39.59 0-68.2-28.5T520-150.58v-152.99q0-39.03 28.61-67.73 28.61-28.7 68.2-28.7h238.13q39.04 0 67.74 28.7 28.7 28.7 28.7 67.73v152.99q0 39.43-28.7 67.93-28.7 28.5-67.74 28.5H616.81Zm0-96.43h238.13v-152.99H616.81v152.99ZM447.99-340.51q-49.77-10.35-81.89-49.48-32.13-39.14-32.13-91.33 0-60.11 42.17-102.2t102.39-42.09q60.23 0 102.06 41.78 41.83 41.77 42.39 101.83 0 3.71-.85 7.19-.86 3.48-.48 6.81h-35.94q-14.7 0-27.58 3.52-12.88 3.51-23.74 10.03 1.61-6.26 3.69-12.37 2.08-6.12 2.08-13.62 0-26.15-17.69-44.13-17.7-17.98-43.72-17.98-26.3 0-44.01 17.45-17.71 17.46-17.71 43.69 0 25.78 16.67 43.37 16.67 17.58 40.75 18.71 2.07 0 4.14-.29 2.08-.28 3.4-1.03-14.41 16-23.36 37.01-8.95 21.01-10.64 43.13Zm30.82-141.36ZM361.16-54.15l-20.19-133.92q-11.73-4.27-25.3-12.08-13.58-7.81-23.73-15.78l-125.69 55.65L46.51-372.64l110.64-82.38q-.67-4.72-.72-12.46-.05-7.74-.05-13.37 0-5.64.05-13.03t.72-12.84L46.51-589.17l119.74-210.47 125.38 54.99q9.58-7 23.85-15.07 14.27-8.08 25.82-12.42L361.15-907h238.36l19.19 134.62q12.65 4.28 26.86 12.52 14.21 8.24 24.03 15.54l125.21-55.32 119.36 210.47-112.64 81.31q0 6.25.86 13.51.85 7.26.85 12.35h-97.49q.21-20.05-2.9-35.78-3.12-15.74-6.07-31.41l89.56-66.33L752-677.9l-103.04 44.47q-22.77-26.66-52.64-44.85-29.88-18.19-65.44-23.47l-13.14-108.44h-75.98l-12.44 107.91q-35.25 7.77-65.86 25.39-30.6 17.61-53.84 42.89l-100.95-43.9-35.21 62.38 88.92 65.64q-4.9 17.95-7.33 34.67-2.43 16.73-2.43 34.51 0 17.45 2.43 34.56 2.43 17.1 7.33 34.88l-88.92 66.01 35.02 62.38 101.45-44.71q25.22 25.8 56.51 43.67 31.28 17.88 66.52 26.36v203.4h-71.8Zm117.65-427.72Z"/></svg>