<svg xmlns="http://www.w3.org/2000/svg" height="24" viewBox="0 -960 960 960" width="24"><path d="M606-100q-36.72 0-61.36-24.64Q520-149.27 520-186v-128q0-36.73 24.64-61.36Q569.28-400 606-400h216q36.72 0 61.36 24.64Q908-350.73 908-314v128q0 36.73-24.64 61.36Q858.72-100 822-100H606Zm0-54h216q14 0 23-9t9-23v-128q0-14-9-23t-23-9H606q-14 0-23 9t-9 23v128q0 14 9 23t23 9Zm-213 54-16-119q-15-5-36.78-16.45Q318.44-246.91 305-260l-112 47-86-156 92-71q-1-7-2.5-20t-1.5-22q0-6 1.5-18t2.5-24l-92-69 86-152 107 44q17-14 38-25.5t39-18.5l16-117h174l15 119q21 9 38.5 18.5T656-700l111-45 86 152-98 74q3 9 3.5 19.5t.5 17.5H588v-1q0-47.6-33-81.3-33-33.7-81-33.7-47 0-81 34t-34 81.01q0 34.95 18.55 63.16Q396.1-391.61 427-378v278h-34Z"/></svg>