<svg xmlns="http://www.w3.org/2000/svg" height="40" viewBox="0 -960 960 960" width="40"><path d="M593.33-110.67q-30.57 0-51.95-21.38Q520-153.43 520-184v-142.67q0-30.57 21.38-51.95Q562.76-400 593.33-400h228q30.58 0 51.96 21.38 21.38 21.38 21.38 51.95V-184q0 30.57-21.38 51.95-21.38 21.38-51.96 21.38h-228Zm0-41.33h228q14 0 23-9t9-23v-142.67q0-14-9-23t-23-9h-228q-14 0-23 9t-9 23V-184q0 14 9 23t23 9Zm-189 41.33-16-116.33q-18.33-5.67-43.11-19.12-24.78-13.46-40.89-28.55l-108 47L121-364.33 212.33-434q-1-9-2.5-22.67-1.5-13.66-1.5-24.66 0-8 1.5-21t2.5-27l-91.33-69L196.33-731l104.34 44.67q19-15.34 42.66-28.84 23.67-13.5 44.34-20.5l16.66-115h152l15 116.34q23.67 9 44.17 20.83 20.5 11.83 39.83 27.5L765-731l74.67 132.67-97.34 72.66q3 11.67 3.84 23.5.83 11.84.83 20.84H578v-1q0-43.15-30.33-73.41Q517.33-586 474.71-586q-42.32 0-73.01 30.33-30.7 30.34-30.7 73.34 0 31.62 16.55 56.84 16.55 25.21 43.45 36.82v278h-26.67Z"/></svg>