<svg xmlns="http://www.w3.org/2000/svg" height="24" viewBox="0 -960 960 960" width="24"><path d="M610.62-88q-38.34 0-64.48-26.14Q520-140.27 520-178.62v-130.76q0-38.34 26.14-64.48T610.62-400h218.76q38.35 0 64.48 26.14Q920-347.72 920-309.38v130.76q0 38.35-26.14 64.48Q867.73-88 829.38-88H610.62Zm0-66h218.76q10.77 0 17.7-6.92 6.92-6.93 6.92-17.7v-130.76q0-10.77-6.92-17.7-6.93-6.92-17.7-6.92H610.62q-10.77 0-17.7 6.92-6.92 6.93-6.92 17.7v130.76q0 10.77 6.92 17.7 6.93 6.92 17.7 6.92ZM430.85-362q-36.29-13.64-59.61-45.86-23.32-32.21-23.32-74.14 0-53.45 37.28-90.72Q422.48-610 475.92-610q51.91 0 88.8 35.74 36.9 35.74 39.2 86.88h-27.69q-9.69.76-19.38 1.88-9.7 1.12-19.16 4.35V-483q-.77-25.41-18.76-43.2-17.99-17.8-43.11-17.8-25.9 0-43.9 17.5t-18 43.8q0 21.32 12.23 37.63 12.23 16.3 29.93 22.07-10.85 11.54-17.27 27.54-6.43 16-7.96 33.46Zm45.07-121ZM382.38-88l-16.46-122.69q-13.15-4.77-31.7-14.61-18.55-9.84-30.6-21.08L187.92-198 91.31-372l95.23-73.54q-.77-8.74-1.92-18.29-1.16-9.55-1.16-17.93 0-7.61 1.16-16.43 1.15-8.82 1.92-20.27L91.31-590l96.61-170.46 110.93 45.61q14.92-11.92 33.27-21.92 18.34-10 34.03-16.54L382.38-874h195.24l15.46 122.46q18 8.08 33.65 16.54 15.65 8.46 31.35 21.15l114-46.61L868.69-590l-100.31 75.85q2.31 10.38 2.7 17.8.38 7.42.38 14.35h-67.54q-.23-18.25-2.23-32.2-2-13.95-6-30.49L781.77-610 743-678l-101.08 40.77q-18.15-20.92-49.62-39.14t-60.07-24.32L521-808h-82.77l-10.46 105.54q-34.23 7.46-61.58 23.31-27.34 15.84-52.42 41.92L217-678l-40.77 68L260-545.23q-5 17.46-7 33.23-2 15.77-2 30.19 0 12.81 2 28.81 2 16 6.23 36.23l-83 64.77L217-284l97-41q24 22.23 52.88 38.08 28.89 15.84 60.12 26.15V-88h-44.62Zm93.54-395Z"/></svg>