<svg xmlns="http://www.w3.org/2000/svg" height="20" viewBox="0 -960 960 960" width="20"><path d="M606-116q-36.72 0-57.36-20.64Q528-157.27 528-194v-112q0-36.73 20.64-57.36Q569.28-384 606-384h216q36.72 0 57.36 20.64Q900-342.73 900-306v112q0 36.73-20.64 57.36Q858.72-116 822-116H606Zm0-46h216q14 0 23-9t9-23v-112q0-14-9-23t-23-9H606q-14 0-23 9t-9 23v112q0 14 9 23t23 9Zm-180 46-22-105q-25-9-56.78-25.45Q315.44-262.91 294-284l-103 34-53-99 76-69q-2-12-4.5-30.5T207-482q0-12 2.5-29.5T214-546l-76-68 53-95 98 32q25-22 55.5-38.5T404-743l22-103h108l21 105q31 13 58.5 27.5T667-676l102-32 53 95-82 72q4 21 5.5 42.5T745-458H586q1-6 1.5-13t.5-13q0-49.6-33.5-83.8Q521-602 471-602q-48 0-83 35t-35 83.01q0 40.95 25.55 73.16Q404.1-378.61 443-371v255h-17Z"/></svg>