<svg xmlns="http://www.w3.org/2000/svg" height="24" viewBox="0 -960 960 960" width="24"><path d="M595-90q-30.94 0-52.97-22.03Q520-134.06 520-165v-160q0-30.94 22.03-52.97Q564.06-400 595-400h240q30.94 0 52.97 22.03Q910-355.94 910-325v160q0 30.94-22.03 52.97Q865.94-90 835-90H595Zm0-75h240v-160H595v160ZM375.5-90l-16-124.5q-13-5.5-26.25-12.75T309-242.5l-115.5 48-105-182 101-76.5q-1-6.48-1-12.49V-480q0-6 .25-13t1.25-16L88.5-584.5l105-181 117 49q10-8 22.25-15t26.75-13l16-126.5h209l16 125q14 5.5 25.75 12.75T649-716.5l117.5-49 105 181-104 77.54q1 6.96 1 12.96v14.5h-154v-.5q0-55.93-39.5-95.46Q535.5-615 479.73-615q-56.73 0-95.98 39.25Q344.5-536.5 344.5-480q0 46.4 27 81.2 27 34.8 69 47.8v261h-65Z"/></svg>