<svg xmlns="http://www.w3.org/2000/svg" height="48" viewBox="0 -960 960 960" width="48"><path d="M587-116q-27.5 0-47.25-19.75T520-183v-150q0-27.5 19.75-47.25T587-400h234q27.5 0 47.25 19.75T888-333v150q0 27.5-19.75 47.25T821-116H587Zm0-35h234q14 0 23-9t9-23v-150q0-14-9-23t-23-9H587q-14 0-23 9t-9 23v150q0 14 9 23t23 9Zm-177 35-16-115q-20-6-46.28-20.45Q321.44-265.91 304-282l-106 47-70-127 91-69q-1-10-2.5-24t-1.5-26q0-9 1.5-22.5T219-532l-91-69 70-123 103 45q20-16 45-30.5t47-21.5l17-114h141l15 115q25 9 47 22t42 29l109-45 69 123-97 72q3 13 4 25.5t1 22.5H573v-1q0-40.91-29-69.46Q515-580 475.07-580q-39.98 0-69.02 28.5Q377-523 377-481.99q0 29.95 15.55 53.66Q408.1-404.61 433-394v278h-23Z"/></svg>