<svg xmlns="http://www.w3.org/2000/svg" height="20" viewBox="0 -960 960 960" width="20"><path d="M656-50q-57.12 0-92.56-35.44Q528-120.88 528-178v-78q0-57.13 35.44-92.56Q598.88-384 656-384h183q57.13 0 92.56 35.44Q967-313.13 967-256v78q0 57.12-35.44 92.56Q896.13-50 839-50H656Zm0-128h183v-78H656v78ZM365-50l-25-127q-13.42-6.11-26.52-13.1-13.1-6.99-24.48-16.9l-124 43L50-368l96-83q-1-5.83-1.5-13.96t-.5-16.45q0-6.33.5-14.46T146-510l-96-84 115-201 124 42q11.89-9.45 24.94-16.23Q327-776 341-782l24-129h230l24 129q14.42 5.84 28.21 12.92Q661-762 673-752l122-42 115 201-98 83q1 11 2 26t-1 26H627q1-6 1.5-12.5t.5-12.5q-1-63.6-45-108.3Q540.01-636 475-636q-63.84 0-108.92 45.05Q321-545.91 321-482.12q0 57.08 37.05 101.29Q395.1-336.61 450-329v279h-85Z"/></svg>