<svg xmlns="http://www.w3.org/2000/svg" height="20" viewBox="0 -960 960 960" width="20"><path d="M610.62-104q-38.34 0-60.48-22.14Q528-148.27 528-186.62v-114.76q0-38.34 22.14-60.48Q572.28-384 610.62-384h218.76q38.35 0 60.48 22.14Q912-339.72 912-301.38v114.76q0 38.35-22.14 60.48Q867.73-104 829.38-104H610.62Zm0-58h218.76q10.77 0 17.7-6.92 6.92-6.93 6.92-17.7v-114.76q0-10.77-6.92-17.7-6.93-6.92-17.7-6.92H610.62q-10.77 0-17.7 6.92-6.92 6.93-6.92 17.7v114.76q0 10.77 6.92 17.7 6.93 6.92 17.7 6.92Zm-195.24 58-22.46-108.69q-23.15-8.77-51.7-23.61-28.55-14.84-48.6-34.08L185.92-235l-63.61-117 79.23-71.54q-1.77-10.84-3.92-27.84-2.16-17-2.16-30.85 0-11.08 2.16-27.19 2.15-16.12 3.92-31.04L122.31-611l63.61-113.46 101.93 33.61q22.92-19.92 50.77-34.92 27.84-15 54.53-25.54L415.38-858h129.24l21.46 108.46q28 12.08 53.65 25.54 25.65 13.46 49.35 34.15l105-33.61L837.69-610l-84.31 73.85q3.31 19.38 4.7 39.73 1.38 20.34-.62 38.42H599.38q1-6 1.5-12.88.5-6.89.5-12.89 0-54.68-37.07-92.45Q527.23-614 472.15-614q-53.3 0-91.77 38.46-38.46 38.46-38.46 91.78 0 46.03 28.78 81.59 28.79 35.56 72.3 43.86V-104h-27.62Z"/></svg>