<svg xmlns="http://www.w3.org/2000/svg" height="40" viewBox="0 -960 960 960" width="40"><path d="M580.19-104.74q-24.6 0-42.4-17.8Q520-140.33 520-164.94v-174.87q0-24.6 17.79-42.4 17.8-17.79 42.4-17.79h254.87q24.61 0 42.4 17.79 17.8 17.8 17.8 42.4v174.87q0 24.61-17.8 42.4-17.79 17.8-42.4 17.8H580.19Zm0-47.89h254.87q5.39 0 8.85-3.46t3.46-8.85v-174.87q0-5.38-3.46-8.84-3.46-3.47-8.85-3.47H580.19q-5.38 0-8.84 3.47-3.47 3.46-3.47 8.84v174.87q0 5.39 3.47 8.85 3.46 3.46 8.84 3.46Zm-180.96 47.89L382.1-224.12q-19.24-6.43-41.53-18.81-22.29-12.38-38.24-26.02l-110.18 48.9-81.67-143.74L209.45-437q-1.99-10-2.67-20.82-.69-10.82-.69-21.8 0-9.14.77-20.62t2.56-23.71l-98.94-73.51 81.67-142.24L303-690.97q16.22-13.25 37.13-25.45 20.91-12.19 41.59-18.85l17.51-120.46h162.06L578.42-736q20.67 7.59 40.5 18.97 19.82 11.38 36.57 26.06l113.14-48.73 81.42 142.24-101.94 74.58q1.63 11.14 2.29 21.76.66 10.62.66 20.68H590.15v-.35q0-46.73-32.86-79.35-32.85-32.62-78.96-32.62-47.23 0-79.93 32.73-32.69 32.72-32.69 79.65 0 36.2 20.33 64.57 20.33 28.38 52.56 40.33v270.74h-39.37Z"/></svg>