<svg xmlns="http://www.w3.org/2000/svg" height="40" viewBox="0 -960 960 960" width="40"><path d="M605.19-70.84q-35.22 0-60.21-24.87Q520-120.59 520-155.65v-159.54q0-34.67 24.98-59.74Q569.97-400 605.19-400h242.17q34.67 0 59.74 25.07t25.07 59.74v159.54q0 35.06-25.07 59.94-25.07 24.87-59.74 24.87H605.19Zm0-84.81h242.17v-159.54H605.19v159.54ZM371.9-70.84l-19.24-129.59q-13.47-4.86-29.51-13.72-16.05-8.86-27.45-17.74l-120.27 53.78L65.77-371.07l108.77-80.13q-1.1-6.18-1.43-13.7-.34-7.52-.34-15.05 0-5.7.42-14.04t1.52-16.14L65.77-590.31l109.66-191.16 122.74 53.88q9.85-8.17 24.71-16.69 14.86-8.52 29.78-13.54l19.41-132.38h216.18l19.42 130.88q13.73 5.11 28.96 13.59 15.23 8.47 26.25 18.14l122.4-53.88 109.28 191.16-111.33 80.22q.1 5.94.79 14.41.68 8.46.68 14.61H606.85v-.16q-.57-53.58-38.26-91.17-37.68-37.6-90.51-37.6-55.11 0-92.67 37.92-37.56 37.91-37.56 92.08 0 43 25.13 76.81 25.14 33.81 64.29 46.25v286.1H371.9Z"/></svg>