<svg xmlns="http://www.w3.org/2000/svg" height="20" viewBox="0 -960 960 960" width="20"><path d="M577.5-153q-24.44 0-36.97-12.53Q528-178.06 528-202.5v-132q0-24.44 12.53-36.97Q553.06-384 577.5-384h228q24.44 0 36.97 12.53Q855-358.94 855-334.5v132q0 24.44-12.53 36.97Q829.94-153 805.5-153h-228Zm0-17.5h228q14 0 23-9t9-23v-132q0-14-9-23t-23-9h-228q-14 0-23 9t-9 23v132q0 14 9 23t23 9ZM452-153l-20-96.5q-31.5-10-67.75-29.25T303-322l-92 30-28.5-51 72-64q-3.5-16.98-5.75-34.99T246.5-479q0-16.5 2.5-34.75t5.5-40.25l-72-65 28.5-48.5 92 30.5q27.5-24.5 60.5-43.25T431-710.5l21-97h56.5l20 97.5q36 13 65.75 29.75T653-637l96.5-29.5L778-618l-77.5 68.04q4.5 25.96 6.25 48.21T706.5-456H559q1-6 1.5-13t.5-13q0-36.93-25.5-62.21-25.5-25.29-62.27-25.29-36.23 0-61.98 25.75T385.5-482q0 31.4 20.25 56.2Q426-401 456.5-396.5V-153H452Z"/></svg>