<svg xmlns="http://www.w3.org/2000/svg" height="20" viewBox="0 -960 960 960" width="20"><path d="M626-76.78q-44.3 0-71.15-26.85Q528-130.48 528-174.78V-286q0-44.3 26.85-71.15Q581.7-384 626-384h210.61q44.3 0 71.15 26.85 26.85 26.85 26.85 71.15v111.22q0 44.3-26.85 71.15-26.85 26.85-71.15 26.85H626Zm0-98h210.61V-286H626v111.22Zm-239.39 98L363.48-197q-18.72-7.36-36.42-17.07-17.71-9.71-33.32-22.89l-115.65 39.83-93.96-163.52 91.52-79.39q-1.43-9.65-2.43-19.46-1-9.81-1-20.45 0-10.64 1-20.46 1-9.81 2.43-19.55l-91.52-80.39 93.96-162.39 116.78 40.26q15.61-13.17 32.59-22.63 16.97-9.46 36.02-16.76l23.13-121.35h186.78l23.13 121.35q18.72 7.21 36.42 16.72 17.71 9.5 33.32 22.67l115.65-39.26 93.96 162.39-92.09 79.39q1.44 15.61 2.44 31.7t-1 31.69H619.3q1-6 1.5-12.5t.5-12.5q-.56-60-42.39-101.21Q537.07-624 477.3-624q-60 0-101.5 41.5T334.3-481q0 54 34.79 94.57 34.78 40.56 86.34 48v261.65h-68.82Z"/></svg>