<svg xmlns="http://www.w3.org/2000/svg" height="20" viewBox="0 -960 960 960" width="20"><path d="M584.62-136q-27.62 0-42.12-14.5Q528-165 528-192.62v-134.76q0-27.62 14.5-42.12Q557-384 584.62-384h230.76q27.62 0 42.12 14.5Q872-355 872-327.38v134.76q0 27.62-14.5 42.12Q843-136 815.38-136H584.62Zm0-32h230.76q10.77 0 17.7-6.92 6.92-6.93 6.92-17.7v-134.76q0-10.77-6.92-17.7-6.93-6.92-17.7-6.92H584.62q-10.77 0-17.7 6.92-6.92 6.93-6.92 17.7v134.76q0 10.77 6.92 17.7 6.93 6.92 17.7 6.92Zm-146.24 32-20.46-101.69q-29.15-9.77-61.42-27.16-32.27-17.38-55.88-39.53L202.92-272l-41.61-73 76.23-67.54q-2.77-15.84-4.92-32.84-2.16-17-2.16-33.85 0-16.08 2.16-32.69 2.15-16.62 4.92-35.54L161.31-616l41.61-71.46 96.93 32.61q25.92-22.92 56.27-39.92 30.34-17 61.03-27.54L438.38-824h83.24l20.46 102.46q33 12.08 60.65 27.54 27.65 15.46 54.35 39.15l100-31.61L798.69-615l-79.31 69.85q4.31 24.38 5.7 45.73 1.38 21.34-.62 43.42H576.38q1-6 1.5-12.88.5-6.89.5-12.89 0-43.08-30.07-72.65Q518.23-584 475.15-584q-42.3 0-72.27 29.96-29.96 29.96-29.96 72.27 0 37.08 23.73 65.92Q420.38-387 456-381.31V-136h-17.62Z"/></svg>