<svg xmlns="http://www.w3.org/2000/svg" height="40" viewBox="0 -960 960 960" width="40"><path d="M616.81-54.15q-39.59 0-68.2-28.5T520-150.58v-152.99q0-39.03 28.61-67.73 28.61-28.7 68.2-28.7h238.13q39.04 0 67.74 28.7 28.7 28.7 28.7 67.73v152.99q0 39.43-28.7 67.93-28.7 28.5-67.74 28.5H616.81Zm0-96.43h238.13v-152.99H616.81v152.99ZM360.98-54.15l-20.01-133.92q-11.73-4.27-25.28-12.23-13.56-7.96-23.75-15.63l-125.69 55.65L46.51-372.64l110.64-82.27q-.67-4.4-.72-12.41-.05-8-.05-14.12 0-4.11.05-11.9t.72-13.38L46.51-589.17l119.74-210.47 125.38 54.99q9.58-7 23.85-15.07 14.27-8.08 25.82-12.42L361.15-907h238.36l19.19 134.62q12.65 4.28 26.86 12.52 14.21 8.24 24.03 15.54l125.21-55.32 119.36 210.47-112.64 81.31q0 4.69.86 13.38.85 8.7.85 12.48H620.1q-.56-58.03-41.76-99.6-41.19-41.56-99.53-41.56-59.66 0-101.02 41.53-41.37 41.54-41.37 100.79 0 46.97 27.14 83.94t69.4 50.38v292.37h-71.98Z"/></svg>