<svg xmlns="http://www.w3.org/2000/svg" height="24" viewBox="0 -960 960 960" width="24"><path d="M584.62-120q-27.62 0-46.12-18.5Q520-157 520-184.62v-150.76q0-27.62 18.5-46.12Q557-400 584.62-400h230.76q27.62 0 46.12 18.5Q880-363 880-335.38v150.76q0 27.62-18.5 46.12Q843-120 815.38-120H584.62Zm0-40h230.76q10.77 0 17.7-6.92 6.92-6.93 6.92-17.7v-150.76q0-10.77-6.92-17.7-6.93-6.92-17.7-6.92H584.62q-10.77 0-17.7 6.92-6.92 6.93-6.92 17.7v150.76q0 10.77 6.92 17.7 6.93 6.92 17.7 6.92Zm-179.24 40-14.46-115.69q-19.15-5.77-41.42-18.16-22.27-12.38-37.88-26.53L204.92-235l-74.61-130 92.23-69.54q-1.77-10.84-2.92-22.34-1.16-11.5-1.16-22.35 0-10.08 1.16-21.19 1.15-11.12 2.92-25.04L130.31-595l74.61-128.46 105.93 44.61q17.92-14.92 38.77-26.92 20.84-12 40.53-18.54L405.38-840h149.24l14.46 116.46q23 8.08 40.65 18.54 17.65 10.46 36.35 26.15l109-44.61L829.69-595l-95.31 71.85q3.31 12.38 3.7 22.73.38 10.34.38 20.42H578.38v-.77q0-41.08-29.57-70.15Q519.23-580 478.15-580q-41.3 0-70.27 28.96-28.96 28.96-28.96 70.27 0 31.08 16.73 55.92Q412.38-400 440-388.31V-120h-34.62Z"/></svg>