<svg xmlns="http://www.w3.org/2000/svg" height="20" viewBox="0 -960 960 960" width="20"><path d="M618.31-84q-41.04 0-65.67-24.64Q528-133.28 528-174.31v-119.38q0-41.04 24.64-65.67Q577.27-384 618.31-384h223.38q41.03 0 65.67 24.64Q932-334.73 932-293.69v119.38q0 41.03-24.64 65.67T841.69-84H618.31Zm0-78h223.38q5.39 0 8.85-3.46t3.46-8.85v-119.38q0-5.39-3.46-8.85t-8.85-3.46H618.31q-5.39 0-8.85 3.46t-3.46 8.85v119.38q0 5.39 3.46 8.85t8.85 3.46ZM397.69-84l-23.23-114.85q-20.07-8.38-43.24-20.53-23.16-12.15-40.91-28.31L177.46-210l-81.3-147 84.61-75.77q-1.38-8.92-2.96-23.42-1.58-14.5-1.58-26.43 0-9.53 1.58-23.34t2.96-25.27L96.16-606l81.3-144.23 108.46 36.31q19.47-16.46 42.89-28.96t46.27-22.27L397.69-878h164.62l22.23 114.23q23 10.54 45.57 22.27 22.58 11.73 42.43 28.58l110-36.31L863.84-605l-88.15 76.92q2.15 16.69 3.35 35.12 1.19 18.42-.81 34.96H621.69q1-6 1.5-12.69.5-6.69.5-12.69 0-63.14-43.04-106.88Q537.61-634 474.08-634q-62.16 0-106.39 44.23-44.23 44.23-44.23 106.39 0 54.49 34.17 95.63 34.16 41.14 85.37 50.59V-84h-45.31Z"/></svg>