<svg xmlns="http://www.w3.org/2000/svg" height="24" viewBox="0 -960 960 960" width="24"><path d="M581.54-126.15q-25.94 0-43.74-17.8T520-187.69v-150.77q0-25.94 17.8-43.74t43.74-17.8h230.77q25.94 0 43.74 17.8t17.8 43.74v150.77q0 25.94-17.8 43.74t-43.74 17.8H581.54Zm0-36.93h230.77q10.77 0 17.69-6.92 6.92-6.92 6.92-17.69v-150.77q0-10.77-6.92-17.69-6.92-6.93-17.69-6.93H581.54q-10.77 0-17.69 6.93-6.93 6.92-6.93 17.69v150.77q0 10.77 6.93 17.69 6.92 6.92 17.69 6.92Zm-172.58 36.93L394.5-239.88q-19.54-5.89-42.79-18.52-23.25-12.64-38.86-26.79L208.5-241.04l-71.54-125.08 91-68.42q-2.15-10.7-3.11-21.72-.97-11.01-.97-22.97 0-9.46 1.22-20.89 1.21-11.42 2.98-26.57l-91.12-68.19 71.54-122.93 104.69 44q17.31-14.54 38.21-26.73 20.91-12.19 42.33-19.34l15.23-114.58h142.46l14.46 114.61q23.24 8.2 41.14 18.91 17.9 10.71 36.6 27.13l108.26-44 71.54 122.93-95.92 71.77q2.92 12.34 3.5 22.38.58 10.04.58 20.85H573.35v-.89q0-39.77-28.35-67.96-28.35-28.19-67.96-28.19-40.19 0-68.29 28.09-28.1 28.1-28.1 68.06 0 30.25 16.43 54.28 16.42 24.03 43.42 35.11v265.23h-31.54Z"/></svg>