<svg xmlns="http://www.w3.org/2000/svg" height="20" viewBox="0 -960 960 960" width="20"><path d="M618.31-84q-41.04 0-65.67-24.64Q528-133.28 528-174.31v-119.38q0-41.04 24.64-65.67Q577.27-384 618.31-384h223.38q41.03 0 65.67 24.64Q932-334.73 932-293.69v119.38q0 41.03-24.64 65.67T841.69-84H618.31Zm0-78h223.38q5.39 0 8.85-3.46t3.46-8.85v-119.38q0-5.39-3.46-8.85t-8.85-3.46H618.31q-5.39 0-8.85 3.46t-3.46 8.85v119.38q0 5.39 3.46 8.85t8.85 3.46ZM444.92-334q-51.59-9.18-86.52-50.78-34.94-41.6-34.94-97.22 0-63.52 44.24-107.76T475.46-634q62.75 0 106.8 43.47t45.2 105.84q0 6-.5 12t-1.5 12h-41.85q-9.84.38-20.19 1.69-10.34 1.31-19.57 3.92 3-6.23 4.5-12.72t1.5-13.82q-.39-30.79-22.19-52.58-21.8-21.8-52.31-21.8-30.89 0-52.39 21t-21.5 52.3q0 30.7 21.12 52.51 21.11 21.81 49.96 22.19h3q-12.92 13.77-20.89 33.27-7.96 19.5-9.73 40.73Zm30.54-149ZM397.69-84l-23.23-114.85q-20.07-8.38-43.24-20.53-23.16-12.15-40.91-28.31L177.46-210l-81.3-147 84.61-75.77q-1.38-11.82-2.96-24.37t-1.58-25q0-12.07 1.58-24.09 1.58-12.01 2.96-25L96.16-606l81.3-144.23 108.46 36.31q19.47-16.46 42.89-28.96t46.27-22.27L397.69-878h164.62l22.23 114.23q23 10.54 45.57 22.27 22.58 11.73 42.43 28.58l110-36.31L863.84-605l-88.15 76.92q2.15 12.69 3.35 23.69 1.19 11 1.19 22.39 0 6-.5 12t-1.5 12h-78.77q1-6 1.5-12t.5-12q.39-18.02-3.11-37.05-3.5-19.03-9.5-39.8L763.38-625 746-655l-96.54 30.38q-24.08-29.46-59.51-50.21-35.43-20.76-73.33-26.02L499-800h-39.38l-16.24 97.77q-41.61 7.23-75.53 27.15-33.93 19.93-60.47 51.46L214-655l-19.38 30L268-557.62q-6 21.24-9.5 40.12t-3.5 35.31q0 17.19 3 36.69 3 19.5 8.62 42.12l-72 66.38L213-307l94-31q27 29.62 62.19 48.04 35.19 18.42 73.81 28.58V-84h-45.31Zm77.77-399Z"/></svg>