<svg xmlns="http://www.w3.org/2000/svg" height="24" viewBox="0 -960 960 960" width="24"><path d="M633.17-44.65q-46.93 0-80.05-33.12Q520-110.9 520-157.83v-129q0-46.93 33.12-80.05T633.17-400h217.24q46.93 0 80.05 33.12 33.13 33.12 33.13 80.05v129q0 46.93-33.13 80.06-33.12 33.12-80.05 33.12H633.17Zm0-113.18h217.24v-129H633.17v129ZM429.39-324.15q-50.7-15.84-83.23-58.37-32.53-42.52-32.53-99.23 0-68.43 48.36-116.79 48.36-48.35 116.77-48.35t116.65 48.25q48.24 48.25 48.48 116.64h-49.96q-15.58 0-30.57 2.93-14.99 2.94-28.38 9.33.72-2.96 1.31-5.84.6-2.89.6-6.18 0-24.95-16.76-41.92-16.77-16.97-41.42-16.97-24.65 0-41.75 16.66-17.09 16.66-17.09 41.77 0 21.85 13.24 37.56 13.24 15.7 33.24 19.51 1.19 0 2.15-.12t1.67-.6q-18.19 20-28.89 46.24-10.69 26.24-11.89 55.48Zm49.37-158.37ZM343.41-44.65l-18.24-136.44q-6.14-3.54-12.8-7.41-6.66-3.87-13.13-8.2l-129.2 53.72L34.22-383.43l107.43-82.72q0-4.14.12-8.13.12-3.98.12-7.87t-.12-7.53q-.12-3.64-.12-7.45l-107.43-81.2 135.82-238.21 126.16 51.71q7.01-4.15 15.09-8.38 8.08-4.22 14.88-8.51l17.24-135.39h273.18l17.24 136.15q7.14 4.25 15.27 8.55 8.14 4.3 15.18 8.58l125.68-52.71 135.82 238.21-109.43 82.72V-482H702.89q-.72-19.79-3.07-35.02-2.36-15.22-6.36-30.22l83.24-63-35.85-63.69-97.72 40.47q-22.04-24.71-50.68-41.25-28.63-16.53-62.08-24.46l-12.24-104.76h-76.5l-11.76 103.52q-35 8.76-63.98 25.88-28.98 17.12-51.22 40.83l-95.76-40.23-37.13 63.69 82.52 63.28q-5.23 19-7.35 34.31-2.12 15.3-2.12 30.57 0 14.28 2.12 30.51 2.12 16.24 7.35 36.77l-82.52 63.28 37.13 63.69 96.47-41q23.95 23.21 52.5 40.34 28.55 17.14 60.79 25.38v218.46h-85.26Zm135.35-437.87Z"/></svg>