<svg xmlns="http://www.w3.org/2000/svg" height="20" viewBox="0 -960 960 960" width="20"><path d="M588.27-124.08q-28.44 0-44.35-15.91Q528-155.91 528-184.35v-139.38q0-28.44 15.92-44.35Q559.83-384 588.27-384h235.38q28.44 0 44.36 15.92 15.91 15.91 15.91 44.35v139.38q0 28.44-15.91 44.36-15.92 15.91-44.36 15.91H588.27Zm0-47.96h235.38q5.39 0 8.85-3.46t3.46-8.85v-139.38q0-5.39-3.46-8.85t-8.85-3.46H588.27q-5.39 0-8.85 3.46t-3.46 8.85v139.38q0 5.39 3.46 8.85t8.85 3.46ZM458.42-361.73q-43.07-5.66-72.46-39.35-29.38-33.7-29.38-78.78 0-50.45 34.78-85.27 34.78-34.83 85.23-34.83 49.29 0 83.93 34.09 34.63 34.1 35.98 83.18 0 6-.5 12.15-.5 6.16-1.5 12.16h-24.35q-7.33.38-13.88 1.28-6.54.91-13.04 2.22 3-5.92 4.5-12.1t1.5-13.1q-.38-29.74-21.66-50.83Q506.28-552 476.54-552q-30 0-51 21t-21 51q0 29.12 20.34 50.45 20.33 21.33 48.93 21.86h3q-6.81 9.65-11.45 21.58-4.64 11.94-6.94 24.38ZM476.54-480Zm-51.31 355.92L404-229.19q-26.27-9.7-54.52-24.64-28.25-14.94-49.61-34.02L199-254.77l-55.27-96.54 80-70.46q-2.57-13.59-4.06-27.6-1.48-14.01-1.48-30.25 0-13.73 1.73-28.44 1.74-14.71 4.12-31.79l-80.31-70.84L199-705.65l101.85 34.5q21.65-19.27 47.73-33.87 26.07-14.59 55.04-25.17l21.61-106.54h109.73l21.23 105.81q28.62 10.84 53.44 24.83 24.83 13.98 47.68 34.94l103.88-33.5 55.27 94.96-83.96 72.65q2.96 14.65 4.25 28.17 1.29 13.52 1.29 29.18 0 6-.5 12t-1.5 12h-48.73q1-6 1.5-12t.5-12q.69-16.73-2.81-34.47t-9.5-36.82l78.35-69.21-17.08-29.19-99.15 33.19q-22.16-26.85-55.7-46.81-33.54-19.96-67.11-24.5l-18.57-101.27h-36.12l-17.74 100.59q-38.61 6.72-68.51 23.68-29.91 16.96-57.56 48.31l-95.89-33.19-18.07 29.19 76.07 66.88q-6 18.04-9.5 36.55-3.5 18.51-3.5 36.61 0 19.03 2.75 37.03t8.37 35.93l-74.19 66.57 17.07 29.2 95.2-32q27 30.8 63.44 48.52 36.44 17.71 76.94 25.78v145.04h-31.27ZM476.54-480Z"/></svg>