<svg xmlns="http://www.w3.org/2000/svg" height="48" viewBox="0 -960 960 960" width="48"><path d="M577.5-85q-22.97 0-40.23-17.27Q520-119.53 520-142.5v-200q0-22.97 17.27-40.23Q554.53-400 577.5-400h280q22.97 0 40.23 17.27Q915-365.47 915-342.5v200q0 22.97-17.27 40.23Q880.47-85 857.5-85h-280Zm0-57.5h280v-200h-280v200Zm-121-213q-45-7.5-75-42.89-30-35.4-30-82.59 0-53.02 37.15-89.77 37.15-36.75 90.25-36.75t89.85 36.77Q605.5-533.96 605.5-481q0 5-.75 10.5T603.5-460h-52.31q-2.69 0-6.19.5 2-4.86 2.5-9.75T548-480q0-28.71-19.88-49.36Q508.25-550 479.02-550q-29.02 0-49.52 20.12Q409-509.75 409-481q0 27.06 17.47 46.96 17.47 19.9 44.03 23.04-7.5 11.5-10.97 26.23-3.46 14.72-3.03 29.27ZM479-481ZM391-85l-20-124.5q-19-7-41-19.25T291.87-254L176-201 85.5-361l107-78q-2-8.98-2.5-19.99-.5-11.01-.5-21.01 0-8.5.5-20.25t2.5-21.75l-107-78L176-759.5 293-706q15-12.5 36.25-24.75T371-749.5l20-126h178.5l20 124.5q19 7 40.75 19T667-706l117.5-53.5L875-600l-108.5 77.04q.5 9.96 1.25 21.21t.75 20.75H711q0-19.5-2-34.42-2-14.93-6-30.33l94.5-69.75-39-71.5-107 46.5q-22.5-25-51.25-42.5T538-705.5L523.59-818H436l-13.5 112.54q-35 7.46-63 23.46t-52 41.5L202-687l-40 71.5 94 68.5q-4 17.5-6.5 33.82t-2.5 32.65q0 17.42 2.25 33.48 2.25 16.05 6.25 33.55L162-345l39.86 71.5 105.64-46q26 25.85 59.25 42.92Q400-259.5 436.5-251.5V-85H391Zm88-396Z"/></svg>