<svg xmlns="http://www.w3.org/2000/svg" height="24" viewBox="0 -960 960 960" width="24"><path d="M611-71.87q-37.78 0-64.39-26.61T520-162.87V-309q0-37.78 26.61-64.39T611-400h227.57q37.78 0 64.39 26.61T929.57-309v146.13q0 37.78-26.61 64.39t-64.39 26.61H611Zm0-91h227.57V-309H611v146.13Zm-247.93 91L346.59-202.5q-11.19-4.31-21.09-10.34-9.89-6.03-19.46-12.83l-121.39 51.19L67.48-377.39l104.91-79.44q-.76-6-.76-11.57v-23.16q0-5.57.76-11.61L67.48-582.61l117.17-202.43 121.87 50.95q9.57-6.8 19.65-12.73 10.09-5.92 20.42-10.2l16.48-131.11h233.86l16.48 131.11q11.19 4.24 21.09 10.19 9.89 5.94 19.46 12.74l121.39-50.95 117.17 202.43-105.15 79.44q.76 5.56.76 11.46v11.47H622.28q-.24-58-41.67-98.88Q539.18-620 481.28-620q-59 0-99.5 40.5t-40.5 99.5q0 48 27.62 84.24 27.62 36.24 70.86 50v273.89h-76.69Z"/></svg>