<svg xmlns="http://www.w3.org/2000/svg" height="20" viewBox="0 -960 960 960" width="20"><path d="M621-86.78q-42.24 0-67.62-25.38Q528-137.54 528-179.78V-291q0-42.24 25.38-67.62Q578.76-384 621-384h210.61q42.24 0 67.62 25.38 25.38 25.38 25.38 67.62v111.22q0 42.24-25.38 67.62-25.38 25.38-67.62 25.38H621Zm0-93h210.61V-291H621v111.22Zm-228.89 93L368.98-203.5q-18.72-7.86-38.17-17.82-19.46-9.96-35.07-23.14l-112.15 37.83-88.96-155.52 89.52-77.89q-1.43-9.12-2.43-18.45-1-9.32-1-21.46 0-9.64 1.25-19.96 1.25-10.31 2.68-22.05l-90.02-77.89 88.96-153.39 114.78 39.26q14.61-13.17 31.84-22.63 17.22-9.46 38.77-17.76l23.13-119.85h175.78l23.13 118.35q19.72 7.71 37.67 17.47 17.96 9.75 33.57 24.42l114.15-38.26 88.96 153.39-93.09 78.94q1.44 15.56 2.44 31.15 1 15.59-1 32.69H610.8q1-6 1.5-12.75t.5-12.75q-.56-57.92-40.39-97.68Q532.57-619 475.04-619q-57.74 0-97.99 40.25Q336.8-538.5 336.8-481q0 52.4 34.29 91.77 34.28 39.36 84.84 45.8v256.65h-63.82Z"/></svg>