<svg xmlns="http://www.w3.org/2000/svg" height="24" viewBox="0 -960 960 960" width="24"><path d="M626-48q-43.72 0-74.86-31.14T520-154v-140q0-43.73 31.14-74.86Q582.28-400 626-400h228q43.72 0 74.86 31.14Q960-337.73 960-294v140q0 43.72-31.14 74.86T854-48H626Zm0-106h228v-140H626v140ZM347-48l-18-135q-7-4-14.78-8.45-7.78-4.46-15.22-9.55l-128 53L39-382l106-82v-36L39-580l132-232 124 51q8-5 17.5-10t17.5-10l17-133h266l17 134q8 5 17.5 10t17.5 10l124-52 132 232-108 82v16H646q0-69.6-48.5-118.8T479-650q-70 0-119 49t-49 119.01q0 56.95 32.55 99.66Q376.1-339.61 427-323v275h-80Z"/></svg>