<svg xmlns="http://www.w3.org/2000/svg" height="40" viewBox="0 -960 960 960" width="40"><path d="M595.91-73.3q-31.06 0-53.48-22.38Q520-118.06 520-149.06v-175.19q0-30.82 22.43-53.29Q564.85-400 595.91-400h256.31q30.82 0 53.29 22.46 22.46 22.47 22.46 53.29v175.19q0 31-22.46 53.38-22.47 22.38-53.29 22.38H595.91Zm0-75.76h256.31v-175.19H595.91v175.19ZM451.15-349.55q-45.29-9.68-75.35-46.11-30.06-36.43-30.06-85.01 0-55.76 39.37-94.73 39.36-38.97 95.05-38.97t94.55 38.86q38.86 38.86 39.1 94.6 0 3.5-.41 7.08-.41 3.59-.92 6.92h-38.53q-9.47 0-17.78 1.66-8.32 1.66-16.14 5.48 1.97-4.96 2.78-9.75.81-4.79.81-10.57 0-26.88-18.25-45.53-18.25-18.66-45.09-18.66-26.96 0-45.7 18.56-18.75 18.55-18.75 45.05 0 24.96 16.37 43.08 16.37 18.13 40.52 20.76.88 0 1.64-.12.76-.12 1.55-.44-10.92 14.14-17.28 31.43-6.35 17.29-7.48 36.41Zm28.96-131.12ZM376.18-73.3 357.2-202.12q-15.51-5.64-32.06-15.25-16.55-9.6-29.6-19.9l-120.25 53.7-104.72-183.5 107.92-79.78q-1.42-7.51-1.76-16.57-.33-9.06-.33-16.56 0-7.5.33-16.56.34-9.06 1.76-16.61L70.57-593.09l104.72-183.03 120.76 53.47q12.86-10.14 29.43-19.64 16.56-9.49 31.72-14.6l18.98-129.97h207.64l18.98 129.3q15.48 5.75 32.3 14.93 16.81 9.17 29.36 19.98l120.41-53.47 104.56 183.03-108.16 78.61q.76 7.97 1.17 17.12.42 9.16.42 16.45H706.7q-.09-19.84-2.33-35.2-2.24-15.35-6.32-29.93l91.1-67.18-37.6-67.16-103.35 44.66q-22.66-25.56-51.34-42.75-28.68-17.19-62.72-22.95l-13.9-109.52h-80.52L426.06-701.5q-33.54 7.09-62.61 23.95t-51.97 41.5l-103.11-44.33-37.52 67.16 90.54 66.61q-4.33 16.65-6.83 32.96-2.49 16.3-2.49 33.65 0 17.17 2.49 33.51 2.5 16.35 6.83 32.85l-90.54 66.86 37.52 67.16 103.06-44.58q25.14 25.8 57.36 43.22 32.21 17.43 68.3 24.83V-73.3h-60.91Zm103.93-407.37Z"/></svg>