<svg xmlns="http://www.w3.org/2000/svg" height="40" viewBox="0 -960 960 960" width="40"><path d="M577.05-122.82q-23.59 0-40.32-16.73T520-179.87v-163.08q0-23.59 16.73-40.32T577.05-400h243.08q23.59 0 40.32 16.73t16.73 40.32v163.08q0 23.59-16.73 40.32t-40.32 16.73H577.05Zm0-32.44h243.08q10.77 0 17.69-6.92 6.92-6.92 6.92-17.69v-163.08q0-10.77-6.92-17.69-6.92-6.92-17.69-6.92H577.05q-10.77 0-17.69 6.92-6.92 6.92-6.92 17.69v163.08q0 10.77 6.92 17.69 6.92 6.92 17.69 6.92ZM449.37-389.73q-29.64-8.69-48.38-33.54-18.75-24.84-18.75-56.94 0-40.26 27.7-67.78 27.69-27.52 68.02-27.52 38.03 0 65.25 26 27.21 26.01 29.91 63.97 0 1.28-.25 2.79-.24 1.51-.06 3.3h-11.84q-5.52.77-10.52 1.42-4.99.66-10.53 1.95.31-1.41.39-2.54.07-1.13.07-3.21-.25-25.08-18.56-43.16-18.3-18.09-43.89-18.09-26.3 0-44.78 18.36-18.47 18.35-18.47 44.57 0 21.53 12.9 38.38t33.66 22.45q-4.77 6.57-7.33 14.43-2.56 7.86-4.54 15.16Zm28.39-90.42Zm-65.13 357.33-15.59-114.24q-21.49-6.38-46.98-20.55-25.5-14.17-43.09-30.12l-104.5 46.46-68.02-120.15 92.95-68.91q-2.31-11.86-3.35-24.16-1.04-12.29-1.04-24.74 0-10.62 1.12-23.41 1.13-12.8 3.05-27.59l-92.73-69.86 68.02-117.82 104.7 45.46q19.1-15.49 42.67-29.38 23.57-13.9 46.43-20.88l16.36-114.75h135.46l15.59 114.79q24 8.68 45.24 21.02 21.23 12.34 41.05 29.2l108.79-45.46 67.51 117.82-96.87 71.95q2.59 13.32 3.41 25.06.82 11.75.82 22.71h-33.98q-.29-17.63-2.29-30.63t-5.49-28.83l91.62-68.97-39.14-68.84-104.75 44.18q-18.8-20.34-48.86-38.58-30.05-18.24-56.5-22.67l-13.2-110.32h-82.09l-11.96 109.82q-32.72 6.76-57.91 20.92-25.2 14.16-50.82 39.98l-101.89-43.33-40.14 68.84 89.76 65.56q-4.85 14.56-6.93 30.52-2.07 15.96-2.07 32.71 0 16.87 1.82 31.64 1.83 14.77 5.91 30.27l-88.49 66.61 39.91 68.85 101.56-43.13q24.31 24.63 55.5 40.62 31.18 16 66.17 23.11v139.22h-26.74Zm65.13-357.33Z"/></svg>