<svg xmlns="http://www.w3.org/2000/svg" height="48" viewBox="0 -960 960 960" width="48"><path d="M574.81-121.15q-22.41 0-38.61-16.2T520-175.96v-169.23q0-22.41 16.2-38.61t38.61-16.2h249.23q22.41 0 38.61 16.2t16.2 38.61v169.23q0 22.41-16.2 38.61t-38.61 16.2H574.81Zm0-30.2h249.23q10.77 0 17.69-6.92 6.92-6.92 6.92-17.69v-169.23q0-10.77-6.92-17.69-6.92-6.93-17.69-6.93H574.81q-10.77 0-17.69 6.93-6.93 6.92-6.93 17.69v169.23q0 10.77 6.93 17.69 6.92 6.92 17.69 6.92Zm-160.35 30.2-16.15-114.5q-22.46-6.62-49.08-21.56-26.61-14.94-45.05-31.79l-104.72 47.62-66.27-117.7 93.93-69.15q-2.39-12.44-3.47-25.37-1.07-12.94-1.07-25.63 0-11.19 1.07-24.67 1.08-13.48 3.08-28.1l-93.54-70.69 66.27-115.27 104.69 46.19q20-15.96 44.91-30.71 24.9-14.75 48.48-21.64l16.92-114.84h131.96l16.16 114.88q24.38 8.93 47.29 22.08 22.9 13.15 43.28 30.23l109.04-46.19 65.5 115.27-97.34 72.04q2.42 13.8 3.36 26.4.94 12.6.94 23.63H571.54v-.38q0-39.36-27.91-66.58-27.9-27.23-66.27-27.23-39.48 0-66.9 27.25-27.42 27.25-27.42 66.79 0 28.99 15.51 52.23t40.26 33.81v273.58h-24.35Z"/></svg>