<svg xmlns="http://www.w3.org/2000/svg" height="40" viewBox="0 -960 960 960" width="40"><path d="M605.19-70.84q-35.22 0-60.21-24.87Q520-120.59 520-155.65v-159.54q0-34.67 24.98-59.74Q569.97-400 605.19-400h242.17q34.67 0 59.74 25.07t25.07 59.74v159.54q0 35.06-25.07 59.94-25.07 24.87-59.74 24.87H605.19Zm0-84.81h242.17v-159.54H605.19v159.54ZM452.3-351.2q-46.26-8.58-76.58-44.82t-30.32-84.56q0-55.1 38.66-93.49 38.66-38.38 93.71-38.38t93.17 38.15q38.13 38.14 38.69 93.07 0 3.71-.69 7.27-.69 3.56-.64 6.9h-30.66q-12.48 0-23.61 3.06-11.12 3.07-21.2 9.32 2.84-6.02 4.3-11.94 1.46-5.91 1.46-12.98 0-25.67-17.46-43.54-17.46-17.87-43.14-17.87-25.74 0-43.45 17.59-17.71 17.6-17.71 42.74 0 24.7 16.2 42.43 16.19 17.73 40.79 19.08 2.07 0 3.86-.28t3.68-1.04q-12.27 13.97-19.79 32.13-7.51 18.16-9.27 37.16Zm25.55-129.47ZM372.08-70.84l-19.42-129.59q-13.47-4.86-29.51-13.72-16.05-8.86-27.45-17.74l-120.27 53.78L65.77-371.07l108.77-80.13q-1.1-6.18-1.43-13.7-.34-7.52-.34-15.05 0-5.7.42-14.04t1.52-16.14L65.77-590.31l109.66-191.16 122.74 53.88q9.85-8.17 24.71-16.69 14.86-8.52 29.78-13.54l19.41-132.38h216.18l19.42 130.88q13.73 5.11 28.96 13.59 15.23 8.47 26.25 18.14l122.4-53.88 109.28 191.16-111.33 80.22q.1 6.51.79 14.41.68 7.9.68 14.61h-85.75q.4-19.58-2.17-34.56-2.56-14.98-6.75-30.24l91.43-67.45-33.6-61.71-104.24 45.33q-21.5-24.98-50.71-42.66-29.21-17.68-61.93-22.95l-13.82-109.7h-74.63l-12.71 109.37q-35.28 7.24-63.29 23.34-28 16.1-52.4 42.27l-101.85-45-34.41 61.71 89.28 65.14q-4.33 17.75-7.04 34.19-2.71 16.43-2.71 33.46 0 17.19 2.46 33.86 2.46 16.66 6.79 34.21l-88.78 65.11 34.34 61.71 101.63-44.48q24.89 25.55 56.69 42.49 31.8 16.93 66.74 25.38v191.41h-65.19Zm105.77-409.83Z"/></svg>