<svg xmlns="http://www.w3.org/2000/svg" height="40" viewBox="0 -960 960 960" width="40"><path d="M609.42-56.75q-36.21 0-62.81-26.56Q520-109.87 520-146.01v-164.73q0-35.97 26.61-62.62Q573.21-400 609.42-400H859.4q35.97 0 62.62 26.64 26.64 26.65 26.64 62.62v164.73q0 36.14-26.64 62.7-26.65 26.56-62.62 26.56H609.42Zm0-89.26H859.4v-164.73H609.42v164.73ZM364.45-56.75l-20-132.63q-12.46-4.88-27.11-13.32-14.64-8.43-25.94-16.92l-124.72 54.89L50.64-371.12l109.11-81.73q-.66-4.55-.88-13.61-.21-9.06-.21-15.49 0-4.44.21-13.12.22-8.68.88-14.7L50.64-590.8l116.04-204.82 123.05 54.23q10.97-8.15 26.53-16.95 15.56-8.8 28.52-13.91l19.75-132.25h231.61l19.08 132.34q13.43 5.08 29.15 13.95 15.72 8.87 26.42 17.15l123.36-54.56L910.03-590.8l-111.12 80.55q0 5.45.75 14.41.75 8.97.75 13.84H625.43q-.24-60.86-42.96-103.94-42.71-43.09-103.55-43.09-61.78 0-104.86 43.15-43.07 43.15-43.07 104.76 0 48.88 27.95 86.67 27.95 37.78 71.73 52.27v285.43h-66.22Z"/></svg>