<svg xmlns="http://www.w3.org/2000/svg" height="40" viewBox="0 -960 960 960" width="40"><path d="M592.58-79.97q-29.68 0-51.13-21.4Q520-122.77 520-152.39v-175.19q0-29.45 21.45-50.94Q562.9-400 592.58-400h256.3q29.46 0 50.94 21.48 21.48 21.49 21.48 50.94v175.19q0 29.62-21.48 51.02-21.48 21.4-50.94 21.4h-256.3Zm0-72.42h256.3v-175.19h-256.3v175.19ZM379.94-79.97l-18.91-126.65q-15.51-5.81-33.3-15.66-17.8-9.86-30.95-20.15l-117.66 52.36L77.73-368.24l106.6-78.61q-1.43-7.31-1.76-15.89-.34-8.57-.34-17.24 0-6.83.42-16.23.42-9.39 1.84-18.27L77.73-592.92l101.39-177.03 119.43 52.8q11.86-9.81 28.68-19.47 16.81-9.66 33.8-15.44l18.98-128.8h200.31l18.98 127.3q15.81 5.91 32.88 15.51 17.07 9.59 29.62 20.9l119.57-52.8L882.6-592.92l-108.83 78.48q.43 7.69 1.01 16.75.58 9.06.58 16.95H607.61V-480.91q-.24-53.79-37.92-91.44Q532.02-610 478.84-610q-54.89 0-92.56 37.92-37.67 37.91-37.67 92.08 0 43 24.97 76.48 24.98 33.49 64.01 46.35v277.2h-57.65Z"/></svg>