<svg xmlns="http://www.w3.org/2000/svg" height="24" viewBox="0 -960 960 960" width="24"><path d="M584.62-120q-27.62 0-46.12-18.5Q520-157 520-184.62v-150.76q0-27.62 18.5-46.12Q557-400 584.62-400h230.76q27.62 0 46.12 18.5Q880-363 880-335.38v150.76q0 27.62-18.5 46.12Q843-120 815.38-120H584.62Zm0-40h230.76q10.77 0 17.7-6.92 6.92-6.93 6.92-17.7v-150.76q0-10.77-6.92-17.7-6.93-6.92-17.7-6.92H584.62q-10.77 0-17.7 6.92-6.92 6.93-6.92 17.7v150.76q0 10.77 6.92 17.7 6.93 6.92 17.7 6.92ZM443.85-386q-28.39-10.92-46.66-36.15-18.27-25.23-18.27-57.85 0-41.85 29.08-70.92Q437.08-580 478.92-580q40.31 0 69 27.54 28.7 27.54 31 67.08h-9.69q-8.69.76-15.88 1.88-7.2 1.12-14.66 3.35v-1.62Q537.92-506 520.54-523q-17.39-17-41.62-17-25 0-42.5 17.5t-17.5 42.5q0 20.23 11.73 35.73 11.73 15.5 29.43 21.27-5.85 8.54-9.77 17.54-3.93 9-6.46 19.46Zm35.07-94Zm-73.54 360-14.46-115.69q-19.15-5.77-41.42-18.16-22.27-12.38-37.88-26.53L204.92-235l-74.61-130 92.23-69.54q-1.77-10.84-2.92-22.34-1.16-11.5-1.16-22.35 0-10.08 1.16-21.19 1.15-11.12 2.92-25.04L130.31-595l74.61-128.46 105.93 44.61q17.92-14.92 38.77-26.92 20.84-12 40.53-18.54L405.38-840h149.24l14.46 116.46q23 8.08 40.65 18.54 17.65 10.46 36.35 26.15l109-44.61L829.69-595l-95.31 71.85q3.31 12.38 3.7 22.73.38 10.34.38 20.42h-41.54q-.23-17.46-2.23-30.81-2-13.34-6-27.88L777.77-606 738-674l-102.08 42.77q-18.15-19.92-47.73-37.35-29.57-17.42-55.96-23.11L520-800h-79.77l-12.46 107.54q-30.23 6.46-55.58 20.81-25.34 14.34-50.42 39.42L222-674l-39.77 68L269-541.23q-5 13.46-7 29.23t-2 32.77q0 15.23 2 30.23t6.23 29.23l-86 65.77L222-286l99-42q24 24.23 54.38 40.08 30.39 15.84 64.62 23.15V-120h-34.62Zm73.54-360Z"/></svg>