<svg xmlns="http://www.w3.org/2000/svg" height="20" viewBox="0 -960 960 960" width="20"><path d="M626-76.78q-44.3 0-71.15-26.85Q528-130.48 528-174.78V-286q0-44.3 26.85-71.15Q581.7-384 626-384h210.61q44.3 0 71.15 26.85 26.85 26.85 26.85 71.15v111.22q0 44.3-26.85 71.15-26.85 26.85-71.15 26.85H626Zm0-98h210.61V-286H626v111.22ZM457.13-334.61q-53.26-6.87-89.46-48.22-36.19-41.36-36.19-97.17 0-61.17 42.82-104t103.98-42.83q61.15 0 103.72 42.57 42.57 42.56 43.13 103.69 0 6-.5 12t-1.5 12h-22.48q-18.48 0-35.67 4.61-17.2 4.61-31.42 12.83 5.27-9.26 7.9-19.09 2.63-9.82 2.63-21.21 0-27.37-19.17-46.58-19.17-19.21-46.48-19.21-27.31 0-46.33 19.02-19.02 19.03-19.02 46.2 0 29.43 21.85 49.59 21.84 20.15 51.84 17.32 3.83 0 6.31-.28 2.48-.28 5.74-1.41-15.53 16.13-26.48 36.45-10.96 20.33-15.22 43.72ZM478.3-480ZM386.61-76.78 363.48-197q-18.72-7.36-36.42-17.07-17.71-9.71-33.32-22.89l-115.65 39.83-93.96-163.52 91.52-79.39q-1.43-9.65-2.43-19.46-1-9.81-1-20.45 0-10.64 1-20.46 1-9.81 2.43-19.55l-91.52-80.39 93.96-162.39 116.78 40.26q15.61-13.17 32.59-22.63 16.97-9.46 36.02-16.76l23.13-121.35h186.78l23.13 121.35q18.72 7.21 36.42 16.72 17.71 9.5 33.32 22.67l115.65-39.26 93.96 162.39-92.09 79.39q1.44 9.18 2.44 19.2t1 20.19q0 6-.5 12t-1.5 12h-98.57q1-6 1.5-12t.5-12q.57-18.56-3.5-38.13-4.06-19.56-10.63-38.13l75.44-65.87-12.35-19.82-94.87 32q-26-31.7-59.41-51.54-33.42-19.85-72.55-25.29l-19-97.87h-24.13l-17.87 97.31q-39.69 6.43-73.89 26.28-34.19 19.85-59.76 51.11l-94.3-32-11.79 19.82 73.74 65.31q-6 19.13-10.06 38.35-4.07 19.22-4.07 39.04 0 20.57 3.57 40.2 3.56 19.63 9.56 37.76l-72.74 64.74 10.79 19.82 94.18-31.43q26.56 32 62.77 51 36.22 19 77.65 26.69v194.44h-68.82ZM478.3-480Z"/></svg>