<svg xmlns="http://www.w3.org/2000/svg" height="48" viewBox="0 -960 960 960" width="48"><path d="M574-132q-22.24 0-38.12-15.88Q520-163.76 520-186v-160q0-22.24 15.88-38.12Q551.76-400 574-400h240q22.24 0 38.12 15.88Q868-368.24 868-346v160q0 22.24-15.88 38.12Q836.24-132 814-132H574Zm0-22h240q14 0 23-9t9-23v-160q0-14-9-23t-23-9H574q-14 0-23 9t-9 23v160q0 14 9 23t23 9ZM450.5-400.5q-26-8-42-29.9t-16-49.76q0-36.15 24.65-60.5Q441.8-565 477.9-565q33.1 0 57.1 22.36T562.5-487q0 1-.25 2.25t.25 3.25H560q-4.96 1-9.89 1.75-4.92.75-10.11 1.75v-4.5q0-24.5-18.41-42.5t-43.75-18q-26.34 0-44.84 18.37-18.5 18.38-18.5 44.63 0 21.06 12.47 37.71 12.47 16.65 33.53 22.79-3.73 4.28-5.55 9.59-1.82 5.31-4.45 9.41Zm27-79.5Zm-56 348-15-111.5Q383-250 355-265.75t-47.25-33.75l-101.25 46-59-105 90-66.5q-2.5-13.48-3.75-26.99-1.25-13.51-1.25-27.01 0-12 1.25-26t3.25-30l-89.5-68.5 59-102 101 44q21.5-17 47.5-32.5t50.5-22.5l16-111.5h118l15 112q26 9.5 49.25 23T649-661.5l106.5-44 58 102-94 70.54q3 14.96 4 27.96t1 24.5h-24q-.5-17.5-2.5-30.1-2-12.59-5-29.15L785-609l-39.5-69-105 44q-19-20-49.75-39t-56.25-22.5L521.02-806H439l-11.5 110.07q-33 6.43-58.25 20.68T318-635l-102.5-43-40.5 69 90.5 65.5q-5 14-7 30.14t-2 33.34q0 17.91 1.75 32.47Q260-433 264-418l-89 67 40.14 69 102.36-43q24 24.92 55.25 40.96t66.75 22.54V-132h-18Zm56-348Z"/></svg>