<svg xmlns="http://www.w3.org/2000/svg" height="20" viewBox="0 -960 960 960" width="20"><path d="M642.96-56.09q-51.3 0-83.13-31.83Q528-119.74 528-171.04v-98q0-51.3 31.83-83.13T642.96-384h202.56q51.3 0 83.13 31.83t31.83 83.13v98q0 51.3-31.83 83.12-31.83 31.83-83.13 31.83H642.96Zm0-114.95h202.56v-98H642.96v98ZM448.65-319.09q-58.43-8.64-97.93-54.54-39.5-45.9-39.5-107.78 0-68.84 48.21-117.04t116.99-48.2q68.79 0 116.73 47.95t48.5 116.7q0 6-.5 12t-1.5 12h-34.26q-19.48 0-38.04 4.89-18.57 4.89-34.22 13.55 4.7-9.27 7.61-19.44 2.91-10.18 2.91-21.1 0-28.3-19.61-48.14-19.62-19.85-47.58-19.85-27.96 0-47.32 19.03-19.36 19.02-19.36 47.49 0 30.52 22.07 50.92 22.06 20.39 52.06 17.56 3.83 0 6.59-.28t5.46-1.41q-18.83 18-31.16 43.06-12.32 25.07-16.15 52.63Zm27.78-162.78ZM371.52-56.09l-24.56-124.39q-14.98-6.93-30.11-14.99-15.14-8.06-28.28-19.36l-121.83 41.7L58.7-365.39l93.39-81.7q-1-8.11-1.72-16.81-.72-8.71-.72-17.73t.72-17.39q.72-8.36 1.72-16.2L58.7-597.04l108.04-189.7 120.09 40.7q13.67-11 29.31-19.18 15.64-8.17 31.82-15.48l23.56-124.65h216.96l23.56 125.09q15.98 7.21 32.25 15.56 16.28 8.35 30.01 19.66l118.96-40.7 108.04 189.7-95.39 81.69q1 8.2 2 16.25t1 16.1q0 6-.5 12t-1.5 12H691.28q1-6 1.5-12t.5-12q.68-18.79-3.67-38.68t-10.35-39.89l73.57-65-11.92-19.82-94.33 31.13q-26.1-32.7-60.56-53.06t-75.24-25.64l-18.56-97.43h-26l-16.44 95.87q-42 7.43-77.63 28.22-35.63 20.78-61.19 52.47l-92.44-31.56-12.22 19.82 71.87 65.31q-6.56 22-10.34 41.22-3.79 19.22-3.79 37.63 0 19.24 3.29 39.3 3.28 20.07 9.84 41.94l-70.87 64.3 11.22 19.83 92.75-31q26.88 30.48 62 49.8 35.12 19.33 74.69 28.89v212.26h-75.44Zm104.91-425.78Z"/></svg>