<svg xmlns="http://www.w3.org/2000/svg" height="48" viewBox="0 -960 960 960" width="48"><path d="M597.54-62.8q-30.84 0-54.19-23.28Q520-109.36 520-140.11V-322.7q0-30.49 23.35-53.9Q566.7-400 597.54-400h266.35q30.5 0 53.9 23.4 23.41 23.41 23.41 53.9v182.59q0 30.75-23.41 54.03-23.4 23.28-53.9 23.28H597.54Zm0-77.31h266.35V-322.7H597.54v182.59ZM374.97-62.8l-20.88-130.72q-15.62-5.55-34.26-16.27-18.64-10.73-32.35-21.3L165-175.61 58.85-364.96 168.8-446.2q-1-5.96-1.38-16.77-.38-10.8-.38-18.65 0-5.85.38-16.27.38-10.43 1.38-18.2L58.85-597.04 165-785.15l121.5 55.48q12.95-10.16 32.25-21.24 19.29-11.09 35.34-16.61l20.99-130.68h210.83l20 130.44q16.58 5.5 36.09 16.65 19.52 11.15 32.04 21.44l122.2-55.48 105.91 188.11-111.95 79.47q0 7.53 1.12 18.41 1.11 10.88 1.11 17.16H617.17q-.24-57.45-40.66-98.07Q536.09-620.7 479-620.7q-58.53 0-99.23 40.82-40.7 40.81-40.7 99.09 0 45.55 25.95 81.17 25.95 35.62 66.65 49.4V-62.8h-56.7Z"/></svg>