<svg xmlns="http://www.w3.org/2000/svg" height="24" viewBox="0 -960 960 960" width="24"><path d="M621-70.78q-42.24 0-71.62-29.38Q520-129.54 520-171.78V-299q0-42.24 29.38-71.62Q578.76-400 621-400h210.61q42.24 0 71.62 29.38 29.38 29.38 29.38 71.62v127.22q0 42.24-29.38 71.62-29.38 29.38-71.62 29.38H621Zm0-101h210.61V-299H621v127.22ZM441.63-347.11q-44.26-11.87-72.96-48.11-28.69-36.25-28.69-84.57 0-57.38 40.37-97.71 40.37-40.33 97.48-40.33 57.1 0 97.17 40.1 40.07 40.11 40.63 97.16v.5h-24.98q-17.64 0-33.75 4.11-16.12 4.11-30.34 12.83 2.27-3.83 3.4-7.84 1.13-4 1.13-8.96 0-22.58-15.32-37.93-15.31-15.36-37.83-15.36-22.31 0-37.83 15.52-15.52 15.53-15.52 37.7 0 19.93 13.07 35.02 13.07 15.08 32.62 17.39 2.83 0 4.81-.28 1.98-.28 4.24-1.41-15.03 16.63-24.98 37.7-9.96 21.08-12.72 44.47ZM477.8-480ZM359.11-70.78 341.98-201.5q-8.72-3.86-18.17-8.82-9.46-4.96-17.07-10.14l-121.15 50.83L63.63-382.15l105.52-79.89q-.43-4.12-.43-7.95v-9.96q0-3.64.25-8.46.25-4.81.68-11.55L63.63-578.85l121.96-210.39 123.78 51.26q6.61-5.17 14.34-9.63 7.72-4.46 18.27-8.76l17.13-133.85h241.78l17.13 132.35q9.72 3.71 17.67 8.47 7.96 4.75 15.57 11.42l123.15-51.26 121.96 210.39-109.09 80.94q.44 4.13.44 8.15v9.69H686.15q.07-19.06-2.5-33.38-2.56-14.31-7.13-28.13l86.44-65.12-31.85-56.82-99.87 43q-19.5-22.7-47.41-39.04-27.92-16.35-57.55-23.29l-12.93-106.37h-66.7l-12.37 105.31q-33.69 7.93-59.39 22.53-25.69 14.6-49.76 39.86l-96.8-42-32.29 56.82 83.24 61.81q-5 17.13-7.56 32.35-2.57 15.22-2.57 32.01 0 15.6 2.32 31.23 2.31 15.63 7.31 33.26l-82.74 61.74 32.36 56.82 96.11-41.43q23.56 24 53.02 40 29.47 16 62.4 24.19v203.94h-80.82ZM477.8-480Z"/></svg>