<svg xmlns="http://www.w3.org/2000/svg" height="24" viewBox="0 -960 960 960" width="24"><path d="M610.62-88q-38.34 0-64.48-26.14Q520-140.27 520-178.62v-130.76q0-38.34 26.14-64.48T610.62-400h218.76q38.35 0 64.48 26.14Q920-347.72 920-309.38v130.76q0 38.35-26.14 64.48Q867.73-88 829.38-88H610.62Zm0-66h218.76q10.77 0 17.7-6.92 6.92-6.93 6.92-17.7v-130.76q0-10.77-6.92-17.7-6.93-6.92-17.7-6.92H610.62q-10.77 0-17.7 6.92-6.92 6.93-6.92 17.7v130.76q0 10.77 6.92 17.7 6.93 6.92 17.7 6.92ZM382.38-88l-16.46-122.69q-13.15-4.77-31.7-14.61-18.55-9.84-30.6-21.08L187.92-198 91.31-372l95.23-73.54q-.77-5.84-1.92-17.34-1.16-11.5-1.16-19.35 0-5.08 1.16-15.69 1.15-10.62 1.92-20.54L91.31-590l96.61-170.46 110.93 45.61q14.92-11.92 33.27-21.92 18.34-10 34.03-16.54L382.38-874h195.24l15.46 122.46q18 8.08 33.65 16.54 15.65 8.46 31.35 21.15l114-46.61L868.69-590l-100.31 75.85q2.31 7.38 2.7 16.73.38 9.34.38 15.42H601.38v-.77q0-52.68-36.57-89.95Q528.23-610 475.15-610q-52.3 0-89.77 37.46-37.46 37.46-37.46 89.78 0 40.03 21.78 71.59 21.79 31.56 57.3 45.86V-88h-44.62Z"/></svg>