<svg xmlns="http://www.w3.org/2000/svg" height="40" viewBox="0 -960 960 960" width="40"><path d="M625.33-52q-43.97 0-74.65-30.48Q520-112.97 520-156.67v-138.66q0-43 30.68-73.84Q581.36-400 625.33-400h223.34q43 0 73.83 30.83 30.83 30.84 30.83 73.84v138.66q0 43.7-30.83 74.19Q891.67-52 848.67-52H625.33Zm0-104.67h223.34v-138.66H625.33v138.66ZM357.34-52l-19.67-135.67q-10.75-3.44-23.21-10.72Q302-205.67 293-212.67l-126.33 57-124-218 113-83.33q-.67-4.85-1-11.46-.34-6.6-.34-11.45 0-4.86.34-11.46.33-6.61 1-11.63l-113-84 124-216 128.5 56q8.16-6.33 20.16-13.17 12-6.83 22.34-10.16l19.99-138.34h244.67l20 137.67q10.62 3.88 23.15 10.44Q658-754 667-747l127-56 123.33 216-114 82.67q0 3.66.67 11.66t.67 11H611.33q-1-54.66-39.87-93.16t-93.13-38.5q-56.33 0-94.83 38.83T345-480q0 44 25.67 79 25.66 35 65.66 47.7V-52h-78.99Z"/></svg>