<svg xmlns="http://www.w3.org/2000/svg" height="48" viewBox="0 -960 960 960" width="48"><path d="M597.54-62.8q-30.84 0-54.19-23.28Q520-109.36 520-140.11V-322.7q0-30.49 23.35-53.9Q566.7-400 597.54-400h266.35q30.5 0 53.9 23.4 23.41 23.41 23.41 53.9v182.59q0 30.75-23.41 54.03-23.4 23.28-53.9 23.28H597.54Zm0-77.31h266.35V-322.7H597.54v182.59ZM452.39-343.63q-49.7-9.08-81.99-47.75-32.29-38.67-32.29-90.23 0-58.47 40.89-99.26 40.89-40.78 99.6-40.78 58.71 0 99.38 40.58 40.67 40.58 40.91 99.07 0 5.24-1.12 10.62-1.12 5.38-.88 10.38h-46.87q-7.9 0-14.92 1.2-7.01 1.19-12.69 3.87 1.24-5.96 2.84-11.49 1.6-5.52 1.6-13.34 0-28.58-19.6-48.6-19.61-20.01-48.43-20.01-29 0-48.72 19.28-19.71 19.28-19.71 48.12 0 27.9 18.22 47.64 18.23 19.75 44.02 21.66.72 0 1.55-.12.84-.12 1.32-.36-10.72 14-17 32.39-6.29 18.4-6.11 37.13ZM479-482.52ZM375.09-62.8l-21-130.72q-15.62-5.55-34.29-16.05-18.67-10.49-32.32-21.52L165-175.61 58.85-364.96l109.95-81.4q-1-6.23-1.38-16.68-.38-10.46-.38-17.94t.38-17.59q.38-10.12 1.38-17.52L58.85-597.04 165-785.15l121.5 55.48q12.95-10.16 32.25-21.24 19.29-11.09 35.34-16.61l20.99-130.68h210.83l20 130.44q16.58 5.5 36.09 16.65 19.52 11.15 32.04 21.44l122.2-55.48 105.91 188.11-111.95 79.47q0 8.48 1.12 18.36 1.11 9.88 1.11 17.21H714.6q.09-20.3-2.67-36.15-2.76-15.85-5.52-31.85l92.24-68-37.32-68.89-105.96 45.48q-23.04-26.48-53.23-45.02-30.18-18.53-66.52-23.46l-13.19-110.76h-85.3l-12.98 110.76q-35.73 7.76-66.48 25.38-30.76 17.62-54 42.86l-103.71-45.24L160.83-618l92.76 68.28q-4.24 17.76-6.74 34.57-2.5 16.8-2.5 34.13 0 17.61 2.5 34.65t6.74 35.09l-92.76 68.52 38.84 68.89 104.71-46.24q25.95 26.41 58.5 44.18 32.55 17.78 68.79 26.54V-62.8h-56.58ZM479-482.52Z"/></svg>