<svg xmlns="http://www.w3.org/2000/svg" height="48" viewBox="0 -960 960 960" width="48"><path d="M588.38-104q-27.78 0-48.08-20.3-20.3-20.3-20.3-48.08v-159.24q0-27.78 20.3-48.08 20.3-20.3 48.08-20.3h243.24q27.78 0 48.08 20.3 20.3 20.3 20.3 48.08v159.24q0 27.78-20.3 48.08-20.3 20.3-48.08 20.3H588.38Zm0-43.77h243.24q10.76 0 17.69-6.92 6.92-6.93 6.92-17.69v-159.24q0-10.76-6.92-17.69-6.93-6.92-17.69-6.92H588.38q-10.76 0-17.69 6.92-6.92 6.93-6.92 17.69v159.24q0 10.76 6.92 17.69 6.93 6.92 17.69 6.92Zm-143-229.38q-34.51-9.72-56.29-38.3-21.78-28.57-21.78-65.65 0-46.13 31.8-77.71 31.8-31.57 77.57-31.57 44.23 0 75.54 29.94 31.32 29.94 33.63 73.82 0 1.93-.62 4.35-.61 2.42.15 5.12h-21.15q-5.8.77-11.94 1.15-6.14.38-10.91 1.38-.53-1.92.08-3.03.62-1.11.62-5.12 0-26.25-19.22-45.05-19.23-18.8-46.16-18.8-27.7 0-46.66 18.57-18.96 18.56-18.96 46.38 0 23.27 14.37 41.31 14.38 18.04 35.32 23.21-6.33 7.67-10.27 18.58-3.94 10.91-5.12 21.42Zm31.31-105.08ZM402.38-104l-17.15-118.46q-19.08-6-43.77-19.42-24.69-13.42-41.38-28.81l-109.7 48.84-77.84-140.61 95.15-71.94q-1-9.81-2.27-22.53-1.27-12.71-1.27-23.66 0-10.18 1.27-22.55 1.27-12.37 2.27-25.63l-95.15-71.54 77.84-137.31 106.93 47.31q18.61-14.84 42.46-28.65 23.85-13.81 44.69-20.58L402.38-857h156.24l16.15 118.23q23.15 8.31 44.81 20.96 21.65 12.66 40.04 27.5l111.76-47.31 77.08 137.31-100.23 73.62q2.31 12.84 3.31 24.07t1 21.39h-45.31q-.2-18.86-2.6-32.74-2.4-13.88-4.63-30.65l90.46-68-39-69.69-105.23 43.46q-19.15-21.38-50.76-40.83-31.62-19.45-60.95-23.32l-12.24-110.23h-84.97l-11.46 109.46q-34.47 7.23-61.89 22.81-27.42 15.58-52.73 41.34l-101.41-42.69-41.28 69.69 89.92 66.7q-4.77 15.69-6.88 31.8-2.12 16.12-2.12 33 0 16.51 2.12 32.16 2.11 15.65 6.11 33.11l-89.15 67.47 41 69.69 101.92-43.69q24.46 24.9 55.42 41.02 30.97 16.13 65.43 25.13V-104h-29.93Zm74.31-378.23Z"/></svg>