<svg xmlns="http://www.w3.org/2000/svg" height="20" viewBox="0 -960 960 960" width="20"><path d="M592.31-116Q562-116 545-133q-17-17-17-47.31v-139.38Q528-350 545-367q17-17 47.31-17h235.38Q858-384 875-367q17 17 17 47.31v139.38Q892-150 875-133q-17 17-47.31 17H592.31Zm0-52h235.38q5.39 0 8.85-3.46t3.46-8.85v-139.38q0-5.39-3.46-8.85t-8.85-3.46H592.31q-5.39 0-8.85 3.46t-3.46 8.85v139.38q0 5.39 3.46 8.85t8.85 3.46Zm-171.62 52-21.23-107.85q-26.07-9.38-52.96-24.07-26.88-14.7-48.19-33.77L194.46-247l-59.3-103 81.61-71.77q-2.38-13.92-3.96-28.42-1.58-14.5-1.58-29.43 0-14.53 1.58-28.84t3.96-29.77L135.16-611l59.3-102.23 103.46 35.31q22.47-19.46 48.39-33.96t52.77-24.27L420.69-844h118.62l21.23 108.23q28 10.54 52.57 24.27 24.58 13.73 47.43 33.58l105-34.31L824.84-610l-83.15 72.92q3.15 21.69 4.35 41.12 1.19 19.42-.81 39.96H598.69q1-6 1.5-12.69.5-6.69.5-12.69 0-51.54-36.04-87.08T477.08-604q-51.16 0-86.89 35.73-35.73 35.73-35.73 86.89 0 45.53 29.12 79.96Q412.69-367 456-360.16V-116h-35.31Z"/></svg>