<svg xmlns="http://www.w3.org/2000/svg" height="24" viewBox="0 -960 960 960" width="24"><path d="M606-100q-36.72 0-61.36-24.64Q520-149.27 520-186v-128q0-36.73 24.64-61.36Q569.28-400 606-400h216q36.72 0 61.36 24.64Q908-350.73 908-314v128q0 36.73-24.64 61.36Q858.72-100 822-100H606Zm0-54h216q14 0 23-9t9-23v-128q0-14-9-23t-23-9H606q-14 0-23 9t-9 23v128q0 14 9 23t23 9ZM432-374q-31.9-12.72-52.45-41.7Q359-444.69 359-482q0-48.6 33.7-82.3Q426.4-598 475-598q46.6 0 79.8 31.7Q588-534.6 591-489h-18l-18 2q-9 1-18 4v-.23q-1-25.18-19.11-42.97-18.1-17.8-43-17.8Q449-544 431-526.5t-18 43.8q0 21.09 12 37.39Q437-429 454-423q-9 9-14.5 22t-7.5 27Zm43-109Zm-82 383-16-119q-15-5-36.78-16.45Q318.44-246.91 305-260l-112 47-86-156 92-71q-1-9.9-2.5-20.95Q195-472 195-481.53q0-8.53 1.5-18.73Q198-510.47 199-524l-92-69 86-152 107 44q17-14 38-25.5t39-18.5l16-117h174l15 119q21 9 38.5 18.5T656-700l111-45 86 152-98 74q3 12 3.5 20.58.5 8.57.5 16.42h-56q0-17.79-2-31.4-2-13.6-6-30.6l87-66-39-68-102 41q-17-20-49.39-38.79-32.4-18.8-59.61-24.21l-11-108h-83l-10 106q-34 7-61 22.5T314-637l-97-41-41 68 84 65q-5 17-7 33t-2 30.42q0 12.58 2 28.58 2 16 6 36l-83 65 41 68 97-41q24 22 53 37.5t60 26.5v161h-34Zm82-383Z"/></svg>