<svg xmlns="http://www.w3.org/2000/svg" height="48" viewBox="0 -960 960 960" width="48"><path d="M587-116q-27.5 0-47.25-19.75T520-183v-150q0-27.5 19.75-47.25T587-400h234q27.5 0 47.25 19.75T888-333v150q0 27.5-19.75 47.25T821-116H587Zm0-35h234q14 0 23-9t9-23v-150q0-14-9-23t-23-9H587q-14 0-23 9t-9 23v150q0 14 9 23t23 9ZM444-388q-29.9-9.72-48.45-35.06Q377-448.41 377-480.87q0-42.04 28.8-70.59Q434.6-580 476.1-580q39.5 0 67.7 26.44Q572-527.11 575-488q0 1-.5 2.5t.5 3.5h-11q-6.03 1-12.52 1.5Q545-480 540-479q-1-1-.5-1.07.5-.07.5-3.16 0-25.33-18.92-43.55-18.91-18.22-45-18.22-27.08 0-45.58 18.16t-18.5 45.4q0 21.89 13.22 39.23Q438.44-424.86 458-419q-5.23 5.78-8.68 14.41-3.45 8.62-5.32 16.59Zm32-94Zm-66 366-16-115q-20-6-46.31-20.23Q321.38-265.45 304-282l-106 47-70-127 91-69.16q-1-10.74-2.5-24.03-1.5-13.3-1.5-25.17 0-10.87 1.5-23.82Q218-517.13 219-532l-91-69 70-123 103 45q20-16 45-30.5t47-21.5l17-114h141l15 115q25 9 47 22t42 29l109-45 69 123-97 72q3 14 4 25.58 1 11.57 1 22.42h-37q-.2-18.4-2.6-31.7T697-543l90-68-39-69-105 43q-18-20-50.07-39.79-32.08-19.8-59.33-23.21l-12.01-110H438l-11 109q-34 7-60.5 22T314-638l-100.72-42L172-611l89 66q-5 15-7 31t-2 33q0 16.39 2 31.7 2 15.3 6 32.3l-88 67 41 69 101-43q24 24.58 54.5 40.29T433-259v143h-23Zm66-366Z"/></svg>