<svg xmlns="http://www.w3.org/2000/svg" height="24" viewBox="0 -960 960 960" width="24"><path d="M642.96-40.09q-51.3 0-87.13-35.83Q520-111.74 520-163.04v-114q0-51.3 35.83-87.13T642.96-400h202.56q51.3 0 87.13 35.83t35.83 87.13v114q0 51.3-35.83 87.12-35.83 35.83-87.13 35.83H642.96Zm0-122.95h202.56v-114H642.96v114ZM338.52-40.09l-18.56-138.39q-4.98-2.93-10.11-5.99-5.14-3.06-10.28-6.36l-130.83 54.7L27.7-385.39l109.39-83.7q0-1.34.28-5.65.28-4.31.28-7.36 0-1.06-.28-5.15-.28-4.1-.28-5.97L27.7-576.04l141.04-246.7 129.09 52.7q5.67-3 11.81-6.18 6.14-3.17 11.32-6.48l17.56-138.65h282.96l17.56 139.09q5.98 3.21 12.25 6.56 6.28 3.35 12.01 6.66l127.96-53.7 141.04 246.7-111.39 83.69V-482H636.39q-.56-65.08-46.24-111.45-45.67-46.38-111.72-46.38-65.95 0-112.17 46.2T320.04-481.5q0 53.63 31.14 94.93 31.14 41.31 79.78 56.22v290.26h-92.44Z"/></svg>