<svg xmlns="http://www.w3.org/2000/svg" height="20" viewBox="0 -960 960 960" width="20"><path d="M592.31-116Q562-116 545-133q-17-17-17-47.31v-139.38Q528-350 545-367q17-17 47.31-17h235.38Q858-384 875-367q17 17 17 47.31v139.38Q892-150 875-133q-17 17-47.31 17H592.31Zm0-52h235.38q5.39 0 8.85-3.46t3.46-8.85v-139.38q0-5.39-3.46-8.85t-8.85-3.46H592.31q-5.39 0-8.85 3.46t-3.46 8.85v139.38q0 5.39 3.46 8.85t8.85 3.46ZM457.92-358q-43.69-6.46-73.57-41.08-29.89-34.61-29.89-80.92 0-51.92 36.04-87.96Q426.54-604 478.46-604q51.15 0 87 35.27t37 86.04q0 6-.5 12t-1.5 12h-23.85q-8.84.38-16.69 1.69-7.84 1.31-15.07 2.92 3-6.23 4.5-12.65t1.5-13.65Q550.46-510 529.27-531q-21.19-21-50.81-21-30 0-51 21t-21 51q0 29.62 20.62 50.62 20.61 21 49.46 21.38h3q-7.92 10.77-13.39 23.27-5.46 12.5-8.23 26.73Zm20.54-122Zm-57.77 364-21.23-107.85q-26.07-9.38-52.96-24.07-26.88-14.7-48.19-33.77L194.46-247l-59.3-103 81.61-71.77q-2.38-13.92-3.96-28.42-1.58-14.5-1.58-29.43 0-14.53 1.58-28.84t3.96-29.77L135.16-611l59.3-102.23 103.46 35.31q22.47-19.46 48.39-33.96t52.77-24.27L420.69-844h118.62l21.23 108.23q28 10.54 52.57 24.27 24.58 13.73 47.43 33.58l105-34.31L824.84-610l-83.15 72.92q3.15 14.69 4.35 28.62 1.19 13.92 1.19 28.46 0 6-.5 12t-1.5 12h-52.77q1-6 1.5-12t.5-12q.39-17.23-3.11-35.65-3.5-18.43-9.5-37.2L759.38-621 741-651l-97.54 32.38q-24.08-28.46-57.61-48.42-33.54-19.96-69.23-24.81L498-792h-36.38l-18.24 99.77q-37.61 6.23-69.53 24.65-31.93 18.43-58.47 48.96L219-651l-18.38 30L277-553.62q-6 17.24-9.5 36.12t-3.5 37.88q0 19.62 3 38.12 3 18.5 8.62 35.12l-75 67.38L218-309l96-32q27 31.62 63.69 50.04 36.69 18.42 78.31 25.58V-116h-35.31Zm57.77-364Z"/></svg>