<svg xmlns="http://www.w3.org/2000/svg" height="48" viewBox="0 -960 960 960" width="48"><path d="M612.5-60q-38.43 0-65.47-26.74Q520-113.48 520-151.5v-157q0-36.97 27.03-64.23Q574.07-400 612.5-400h241q36.97 0 64.23 27.27Q945-345.47 945-308.5v157q0 38.02-27.27 64.76Q890.47-60 853.5-60h-241Zm0-91.5h241v-157h-241v157ZM368.51-60 348-192.5q-13.42-4.11-30.71-13.8Q300-216 288.87-225L166-168 52.5-369l113-82q-1-5.84-1.5-13.94-.5-8.11-.5-14.97 0-5.37.5-14.21t1.5-15.88l-113-83L166-791.5 292.25-735q8.75-7.5 25-16.75T348-765.5l20.98-136H591.5l21 134.5q13.22 4.89 29.86 13.95Q659-744 670-735l125.5-56.5L908-593l-115.5 82.04q-.5 4.96.75 14.71T794.5-482H603q-1-51.96-37.96-88.73-36.95-36.77-87.81-36.77-54.73 0-91.23 37.25Q349.5-533 349.5-480q0 41.3 24.28 74.77t61.72 45.28V-60h-66.99Z"/></svg>