<svg xmlns="http://www.w3.org/2000/svg" height="20" viewBox="0 -960 960 960" width="20"><path d="M646-62q-53 0-85.5-32.5T528-180v-86q0-53 32.5-85.5T646-384h188q53 0 85.5 32.5T952-266v86q0 53-32.5 85.5T834-62H646Zm0-118h188v-86H646v86ZM374-62l-24-125q-15.42-6.11-30.21-14.05Q305-209 292-220l-120 42L65-365l95-82q-1-7.83-2-15.96t-1-16.95q0-8.83 1-16.96t2-16.13l-95-83 107-185 122 42q13-11 26.5-18.5T350-771l24-127h212l24 127q15.42 5.84 30.21 13.42Q655-750 668-739l120-41 107 185-96 82q1 13 2 28t-1 28H618q1-6 1.5-12.5t.5-12.5q-1-60-42.71-101-41.7-41-101.29-41-60 0-101.5 41.5T333-481q0 54 35 95t87 48v276h-81Z"/></svg>