<svg xmlns="http://www.w3.org/2000/svg" height="48" viewBox="0 -960 960 960" width="48"><path d="M612-59q-37.59 0-64.79-26.91Q520-112.83 520-150v-159q0-36.13 27.21-63.56Q574.41-400 612-400h242q36.13 0 63.56 27.44Q945-345.13 945-309v159q0 37.17-27.44 64.09Q890.13-59 854-59H612Zm0-91h242v-159H612v159ZM460-352q-49.07-7.04-80.54-43.57Q348-432.1 348-480.81q0-54.45 37.99-92.32Q423.98-611 478.58-611q54.61 0 92.01 37.33Q608-536.34 609-482q0 6-1.5 11t-.5 10h-21q-17.03 0-30.52 5Q542-451 531-443q2-9 5.5-17.57t3.5-18.66q0-26.24-17.58-44.01Q504.85-541 479-541q-26.58 0-43.79 17.27Q418-506.45 418-480.48q0 27.93 18.22 45.77Q454.44-416.86 481-418q3 0 6.5-.5t5.5-1.5q-13 14-21.57 32.02Q462.87-369.97 460-352Zm19-129ZM369-59l-21-133q-14.42-4.11-31.05-13.87Q300.32-215.64 289-225l-124 57L52-368l113-82.16q-1-4.61-1-13.99v-30.9q0-9.04 1-14.95L52-594l113-198 126.25 57q9.64-7.45 26.69-17.23Q335-762 348-766l20.98-136H592l20 135q15.22 3.89 31.61 13.95Q660-743 671-735l126-57 112 198-115 81q0 6.81 1.5 16.08 1.5 9.26 1.5 14.92h-93.2q1-20-2.9-36t-5.9-32l93-68-32-59-105.82 47q-23.18-28-53.71-47.29-30.52-19.3-67.14-22.71l-13.74-110H443.9L431-700q-34.89 7-66.45 25Q333-657 309-631l-103.72-46L173-618l92 66q-5 17-7.5 34.78-2.5 17.77-2.5 37.77 0 19.84 2.5 37.65Q260-424 265-409l-92 67 32 59 103.78-47q25.79 27.69 58.51 46.35Q400-265 437-257v198h-68Zm110-422Z"/></svg>