<svg xmlns="http://www.w3.org/2000/svg" height="40" viewBox="0 -960 960 960" width="40"><path d="M583.33-86.67q-25.62 0-44.48-18.85Q520-124.37 520-150v-186.67q0-25.62 18.85-44.48Q557.71-400 583.33-400H850q25.63 0 44.48 18.85 18.85 18.86 18.85 44.48V-150q0 25.63-18.85 44.48Q875.63-86.67 850-86.67H583.33Zm0-63.33H850v-186.67H583.33V-150Zm-197.5 63.33-18.66-124.5q-17-6.5-36.09-17.08-19.08-10.58-33.5-21.92l-115.75 51.34L86.5-366.17l105-77.5q-1.67-8.14-2-17.48-.33-9.35-.33-18.85 0-7.67.41-17.83.42-10.17 2.09-19.84L86.5-594.83l95.33-166.67 117 52q13.34-11 31.59-21.5t36.75-16.83L385.83-874H574.5l18.67 124.67q17.33 6.5 35.75 16.91Q647.33-722 661-709.5l117.5-52 95.33 166.67-107 77.2q.67 8.96 1.17 18.46.5 9.5.5 18.67H608.17V-480.67q0-53.95-37.67-91.64T479.4-610q-54.73 0-92.48 37.92-37.75 37.91-37.75 92.08 0 43 24.85 76.24 24.85 33.25 63.81 46.43v270.66h-52Z"/></svg>