<svg xmlns="http://www.w3.org/2000/svg" height="40" viewBox="0 -960 960 960" width="40"><path d="M583.33-86.67q-25.62 0-44.48-18.85Q520-124.37 520-150v-186.67q0-25.62 18.85-44.48Q557.71-400 583.33-400H850q25.63 0 44.48 18.85 18.85 18.86 18.85 44.48V-150q0 25.63-18.85 44.48Q875.63-86.67 850-86.67H583.33Zm0-63.33H850v-186.67H583.33V-150ZM451.17-353.83q-44-9.34-73-44.56-29-35.23-29-82.19 0-54.09 37.95-91.75 37.95-37.67 92-37.67t91.71 37.69q37.67 37.69 37.67 91.64 0 3.34-.5 7.09t-.83 7.08H562q-5.13 0-9.57.33-4.43.34-9.43 1.5 1.33-3.76 1.67-7.41.33-3.66.33-8.09 0-27.54-18.97-47.02-18.96-19.48-46.85-19.48-27.68 0-47.18 19.25t-19.5 46.75q0 24.88 15.72 43.45 15.72 18.58 39.95 22.39-8.5 12.83-12.81 28.73-4.32 15.9-4.19 32.27Zm28-126.84Zm-93.34 394-18.66-124.5q-17-6.5-36.09-17.08-19.08-10.58-33.5-21.92l-115.75 51.34L86.5-366.17l105-77.5q-1.67-8.14-2-17.48-.33-9.35-.33-18.85 0-7.67.41-17.83.42-10.17 2.09-19.84L86.5-594.83l95.33-166.67 117 52q13.34-11 31.59-21.5t36.75-16.83L385.83-874H574.5l18.67 124.67q17.33 6.5 35.75 16.91Q647.33-722 661-709.5l117.5-52 95.33 166.67-107 77.2q.67 8.96 1.17 18.46.5 9.5.5 18.67h-63.33q-.17-19.17-2.17-33.7-2-14.53-6-29.22L789-612l-38.5-70-105 45.33q-21.5-23.66-49.5-40.5-28-16.83-59.83-22.66l-13.92-110.84h-84.58l-13.5 110.69q-34 7.81-60.67 23.06T313-637l-103.17-45-39.5 70 91.17 66.83q-4.33 17-6.67 32.72-2.33 15.71-2.33 31.92 0 16.62 2.08 32.16 2.09 15.54 6.42 32.7l-90.67 67 39.43 70 103.07-44.66q25.34 25.23 57.42 41.95 32.08 16.71 67.58 24.21v170.5h-52Zm93.34-394Z"/></svg>