<svg xmlns="http://www.w3.org/2000/svg" height="40" viewBox="0 -960 960 960" width="40"><path d="M599.9-78.67q-32.52 0-56.21-23.69Q520-126.05 520-158.57V-320.1q0-32.52 23.69-56.21Q567.38-400 599.9-400h246.87q32.51 0 56.2 23.69 23.69 23.69 23.69 56.21v161.53q0 32.52-23.69 56.21-23.69 23.69-56.2 23.69H599.9Zm0-67.59h246.87q5.38 0 8.84-3.46 3.47-3.46 3.47-8.85V-320.1q0-5.39-3.47-8.85-3.46-3.46-8.84-3.46H599.9q-5.39 0-8.85 3.46t-3.46 8.85v161.53q0 5.39 3.46 8.85t8.85 3.46ZM381.36-78.67 362.9-204.44q-15.05-5.46-34.09-16.04-19.04-10.58-32.68-21.98l-117.85 51.51-98.71-176.87 101.59-76.85q-.8-6.33-1.58-17.64t-.78-19.64q0-5.95.78-16.69.78-10.75 1.58-20.03L79.57-594.44l98.71-174.51 114.8 50.21q14.69-11.44 33.95-22.37 19.25-10.94 35.82-17.12l18.51-124.43h197.95l17.46 125.15q17.72 6.95 35.96 17.24 18.24 10.3 32.65 21.86l117.26-50.54 98.46 174.51-105.13 77.18q1.16 8.18 1.89 18.38.73 10.19.73 17.14h-169v-.39q0-55.32-38.64-94.16-38.64-38.84-93.6-38.84-55.25 0-94.34 38.95t-39.09 94.47q0 43.1 23.94 76.42t61.91 47.19v279.43h-48.41Z"/></svg>