<svg xmlns="http://www.w3.org/2000/svg" height="48" viewBox="0 -960 960 960" width="48"><path d="M576.15-103.08q-22.69 0-39.42-16.73T520-159.23v-184.62q0-22.69 16.73-39.42T576.15-400h264.62q22.69 0 39.42 16.73t16.73 39.42v184.62q0 22.69-16.73 39.42t-39.42 16.73H576.15Zm0-43.84h264.62q5.38 0 8.84-3.47 3.47-3.46 3.47-8.84v-184.62q0-5.38-3.47-8.84-3.46-3.46-8.84-3.46H576.15q-5.38 0-8.84 3.46t-3.46 8.84v184.62q0 5.38 3.46 8.84 3.46 3.47 8.84 3.47ZM454.19-372.81q-37.69-7.69-62.3-37.89-24.62-30.21-24.62-69.96 0-46.54 32.34-78.51 32.35-31.98 78.91-31.98 45.4 0 77.25 31.22 31.84 31.23 33.19 76.62 0 3.46-.56 7.33-.56 3.86-.67 7.71h-29.58q-3.82.38-7.37.67-3.55.29-7.7.98 1.23-3.42 1.54-6.67.3-3.24.3-7.67 0-27.09-19.31-46.72t-47.05-19.63q-27.98 0-47.71 19.45-19.73 19.46-19.73 47.24 0 24.75 15.54 43.41 15.55 18.65 39.99 22.94-6.05 8.72-8.88 19.83-2.83 11.1-3.58 21.63Zm24.23-107.81Zm-75.69 377.54-18.08-119.5q-20.73-6.81-45.03-20.4-24.31-13.6-41.64-28.52l-110.25 50.31-78.38-138.85 100.46-73.57q-2.19-10.71-2.98-22.68-.79-11.98-.79-23.33 0-9.84.79-22.46.79-12.61 2.79-24.92l-100.27-74.35 78.38-137.38 110.85 49.85q17.5-14.23 40.57-27.73 23.08-13.5 45.12-20.2l18.46-120.42h155.23l18.08 119.69q21.69 7.96 44.02 20.54 22.32 12.58 40.02 28.12l113.27-49.85 77.99 137.38-102.92 74.54q1.46 11.89 2.31 23.81.85 11.92.85 22.19h-44.62q-.19-18.73-2.19-32.76-2-14.02-5.62-29.87L792.69-613l-39.19-70.54L647.27-638q-21.15-23.08-50.67-41.15-29.52-18.08-59.95-22.5L522.6-813.38h-85.45L424.42-701.8q-34.23 7.07-61.17 22.4-26.94 15.32-51.71 41.02l-104.35-45.16L167-613l92.65 67.35q-4.38 16.15-6.69 32.4-2.31 16.25-2.31 32.92 0 17.61 2.06 33.08 2.06 15.48 6.06 32.02L167-347.31l39.97 70.54 104.38-44.85q25.23 25.5 57.71 42.17 32.48 16.68 68.59 24.1v152.27h-34.92Zm75.69-377.54Z"/></svg>