<svg xmlns="http://www.w3.org/2000/svg" height="40" viewBox="0 -960 960 960" width="40"><path d="M580.19-104.74q-24.6 0-42.4-17.8Q520-140.33 520-164.94v-174.87q0-24.6 17.79-42.4 17.8-17.79 42.4-17.79h254.87q24.61 0 42.4 17.79 17.8 17.8 17.8 42.4v174.87q0 24.61-17.8 42.4-17.79 17.8-42.4 17.8H580.19Zm0-47.89h254.87q5.39 0 8.85-3.46t3.46-8.85v-174.87q0-5.38-3.46-8.84-3.46-3.47-8.85-3.47H580.19q-5.38 0-8.84 3.47-3.47 3.46-3.47 8.84v174.87q0 5.39 3.47 8.85 3.46 3.46 8.84 3.46ZM450.27-371.78q-36.82-9.02-60.69-39.05-23.87-30.03-23.87-69.57 0-47.17 32.82-79.76 32.82-32.6 80.01-32.6 46.04 0 78.48 31.85 32.44 31.85 33.79 77.81 0 2.3-.38 4.93-.37 2.63-.44 5.2h-28.5q-5.33.38-10.05.87-4.71.5-9.98 1.73.82-2.59 1.03-4.98.2-2.39.2-5.65-.13-26.31-18.76-45.09-18.64-18.78-45.37-18.78-27 0-45.98 18.8-18.99 18.8-18.99 45.66 0 23.2 14.31 40.92 14.31 17.71 36.8 22.41-6.63 9.7-10.07 21.58-3.43 11.88-4.36 23.72Zm28.19-108.63Zm-79.23 375.67L382.1-224.12q-19.24-6.43-41.53-18.81-22.29-12.38-38.29-26.02l-110.13 48.9-81.67-143.74L209.45-437q-1.99-10-2.67-20.82-.69-10.82-.69-21.8 0-9.14.77-20.62t2.56-23.71l-98.94-73.51 81.67-142.24L303-690.97q16.22-13.25 37.13-25.45 20.91-12.19 41.59-18.85l17.51-120.46h162.06L578.42-736q20.67 7.59 40.5 18.97 19.82 11.38 36.57 26.06l113.14-48.73 81.42 142.24-101.94 74.58q1.63 11.14 2.29 21.76.66 10.62.66 20.68h-48.65q-.23-18.39-2.23-32.16-2-13.76-5.74-29.02l91.8-68.78-38.82-69.42-104.87 44.76q-20.15-22-49.18-39.54-29.02-17.54-58.16-22.67l-13.57-110.58h-83.33l-12.73 110.26q-33.36 7.28-59.29 21.99-25.93 14.7-50.66 39.95L213.1-679.82l-39.82 69.42 90.46 66.19q-4.59 15.79-6.79 31.62-2.21 15.84-2.21 32.32 0 16.75 1.96 31.9 1.95 15.15 6.16 31.49l-89.58 66.8 39.67 69.43 102.32-43.9q24.82 24.93 56.45 41.28 31.64 16.36 66.88 23.67v154.86h-39.37Zm79.23-375.67Z"/></svg>