<svg xmlns="http://www.w3.org/2000/svg" height="48" viewBox="0 -960 960 960" width="48"><path d="M576.15-103.08q-22.69 0-39.42-16.73T520-159.23v-184.62q0-22.69 16.73-39.42T576.15-400h264.62q22.69 0 39.42 16.73t16.73 39.42v184.62q0 22.69-16.73 39.42t-39.42 16.73H576.15Zm0-43.84h264.62q5.38 0 8.84-3.47 3.47-3.46 3.47-8.84v-184.62q0-5.38-3.47-8.84-3.46-3.46-8.84-3.46H576.15q-5.38 0-8.84 3.46t-3.46 8.84v184.62q0 5.38 3.46 8.84 3.46 3.47 8.84 3.47Zm-173.42 43.84-18.08-119.5q-20.73-6.81-45.03-20.4-24.31-13.6-41.59-28.52l-110.3 50.31-78.38-138.85 100.46-73.57q-2.19-10.71-2.98-22.68-.79-11.98-.79-23.33 0-9.84.79-22.46.79-12.61 2.79-24.92l-100.27-74.35 78.38-137.38 110.85 49.85q17.5-14.23 40.57-27.73 23.08-13.5 45.12-20.2l18.46-120.42h155.23l18.08 119.69q21.69 7.96 44.02 20.54 22.32 12.58 40.02 28.12l113.27-49.85 77.99 137.38-102.92 74.54q1.46 11.89 2.31 23.81.85 11.92.85 22.19H588.27v-.19q0-46.16-32.33-78.16-32.33-31.99-77.64-31.99-46.61 0-78.82 32.25-32.21 32.25-32.21 78.52 0 35.14 19.65 62.99 19.64 27.86 50.73 39.77v274.54h-34.92Z"/></svg>