<svg xmlns="http://www.w3.org/2000/svg" height="20" viewBox="0 -960 960 960" width="20"><path d="M580-148q-26 0-39-13t-13-39v-132q0-26 13-39t39-13h228q26 0 39 13t13 39v132q0 26-13 39t-39 13H580Zm0-20h228q14 0 23-9t9-23v-132q0-14-9-23t-23-9H580q-14 0-23 9t-9 23v132q0 14 9 23t23 9ZM461-390q-32-4-54.5-30T384-480q0-39 26.5-65.5T476-572q37 0 63 24.5t29 60.5q0 6-.5 12t-1.5 12h2q-7 1-13 2l-12 2q3-5 4.5-10.5T549-481q-1-29-22.5-50T476-552q-30 0-51 21t-21 51q0 29 20 50t47 22h3q-3 4-6 8.5t-7 9.5Zm15-90Zm-27 332-20-98q-31-10-66.5-29T302-318l-94 31-31-55 73-65q-3-17-5.5-35.5T242-479q0-17 2.5-35t5.5-39l-73-66 31-53 93 31q28-25 61-43.5t66-29.5l21-98h62l20 99q36 13 65.5 29.5T655-641l97-30 31 53-77 68q5 19 6.5 36t1.5 34q0 6-.5 12t-1.5 12h-22q1-6 1.5-12t.5-12q1-16-2.5-33.5T680-551l80-70-19-30-100 33q-21-26-57-47.5T516-690l-18-102h-37l-17 101q-37 5-68 22.5T316-618l-97-33-19 30 77 68q-6 16-9.5 35.5T264-479q0 19 3 37.5t8 34.5l-75 68 18 30 96-32q27 31 64 48.5t78 26.5v118h-7Zm27-332Z"/></svg>