<svg xmlns="http://www.w3.org/2000/svg" height="40" viewBox="0 -960 960 960" width="40"><path d="M622-58.67q-42.6 0-72.3-29.5Q520-117.67 520-160v-138.67q0-41.62 29.7-71.48Q579.4-400 622-400h223.33q41.63 0 71.48 29.85 29.86 29.86 29.86 71.48V-160q0 42.33-29.86 71.83-29.85 29.5-71.48 29.5H622ZM622-160h223.33v-138.67H622V-160ZM361.17-58.67l-19.67-133.5q-10.75-3.6-24.46-11.13-13.71-7.53-22.79-14.53L170.5-162.17 49.83-374.83 161.5-457q-.67-4.66-1-10.78-.33-6.11-.33-12.13 0-4.19.41-11.13.42-6.94 1.09-13.29l-111.84-82.5 120.67-210 127.17 55.33q7.16-6 19.41-13t24.42-11l19.99-137.17h237.34l20 135.67q10.96 4.04 23.73 11.02 12.77 6.98 21.77 14.48l126.17-55.33 120 210-114.67 82.54q-.33 3.62.5 11.29.84 7.67.84 11.5H605.83V-481.67q-1-53.28-38.7-90.81Q529.42-610 477.06-610q-55.39 0-92.81 37.92-37.42 37.91-37.42 92.08 0 43 25.36 77.24 25.35 34.25 64.64 46.13v297.96h-75.66Z"/></svg>