<svg xmlns="http://www.w3.org/2000/svg" height="48" viewBox="0 -960 960 960" width="48"><path d="M612.5-60q-38.43 0-65.47-26.74Q520-113.48 520-151.5v-157q0-36.97 27.03-64.23Q574.07-400 612.5-400h241q36.97 0 64.23 27.27Q945-345.47 945-308.5v157q0 38.02-27.27 64.76Q890.47-60 853.5-60h-241Zm0-91.5h241v-157h-241v157Zm-154-200q-49-6.5-81-43.39-32-36.9-32-86.09 0-54.68 38.31-92.6 38.31-37.92 93.04-37.92 54.74 0 92.19 37.47Q606.5-536.55 607.5-482q0 6-1.25 11t-.75 10H582q-15.12 0-28.31 4.5t-24.69 13q4-8.86 6.5-17.25T538-479q0-26.05-17.5-44.03Q502.99-541 477.26-541q-26.26 0-43.76 17.49-17.5 17.49-17.5 42.47 0 27.1 17.97 45.5T479.5-418q3 0 6-.5t6-1.5q-13.5 13.5-21.97 31.73-8.46 18.22-11.03 36.77ZM477-481ZM369-60l-21-132.5q-13.42-4.11-30.71-13.8Q300-216 288.87-225L166-168 52.5-369l113-82q-1-5.84-1.5-13.94-.5-8.11-.5-14.97 0-5.37.5-14.21t1.5-15.88l-113-83L166-791.5 292.25-735q8.75-7.5 25-16.75T348-765.5l20.98-136H591.5l21 134.5q13.22 4.89 29.86 13.95Q659-744 670-735l125.5-56.5L908-593l-115.5 82.04q-.5 5.96.75 14.71T794.5-482H701q1-20.1-2-35.72-3-15.63-7-32.03l93.5-67.75-31-58.5-106 46.5q-22.5-27-53.2-46-30.71-19-65.57-23L515.59-809H443.9l-12.4 110.54q-36.89 6.46-66.95 23.96-30.05 17.5-55.05 45L206-676l-32 58.5 91 65.5q-4 18.5-7 36.1-3 17.59-3 35.37 0 18.42 2.75 36.48 2.75 18.05 6.75 35.55L174-343l31.86 58.5 103.42-46q25.22 26.69 57.97 44.35Q400-268.5 435.5-259.5V-60H369Zm108-421Z"/></svg>