<svg xmlns="http://www.w3.org/2000/svg" height="40" viewBox="0 -960 960 960" width="40"><path d="M626.67-50.67q-44.1 0-75.39-31.08Q520-112.84 520-156.67V-294q0-43.13 31.28-74.56Q582.57-400 626.67-400H849q43.12 0 74.56 31.44Q955-337.13 955-294v137.33q0 43.83-31.44 74.92Q892.12-50.67 849-50.67H626.67Zm0-106H849V-294H626.67v137.33Zm-270.33 106-20.01-135.66q-10.75-3.44-22.85-10.77-12.1-7.32-20.81-13.9l-127 56.67L41-374.67l112.67-83q-.67-4.18-.5-10.79.16-6.6.16-12.29 0-3.69-.16-10.29-.17-6.6.5-11.63L41-587l124.67-218 128.5 56q7.72-5.45 20.27-12.56Q327-768.67 336.67-772l19.99-138.33H604l19.33 137.66q11.62 3.21 23.81 10.61 12.19 7.39 20.86 13.39L795.67-805l124 218L805-504.67q0 3.67 1 12 1 8.34 1 10.67H613q-1-54.27-40.16-93.8-39.17-39.53-94.17-39.53-56.84 0-95.92 39.38-39.08 39.37-39.08 95.49 0 44.42 26.05 80.3 26.05 35.88 66.28 47.86v301.63h-79.66Z"/></svg>