<svg xmlns="http://www.w3.org/2000/svg" height="40" viewBox="0 -960 960 960" width="40"><path d="M586.67-80q-27 0-46.84-19.83Q520-119.67 520-146.67v-186.66q0-27 19.83-46.84Q559.67-400 586.67-400h266.66q27 0 46.84 19.83Q920-360.33 920-333.33v186.66q0 27-19.83 46.84Q880.33-80 853.33-80H586.67Zm0-66.67h266.66v-186.66H586.67v186.66ZM382-80l-18.67-126.67q-17-6.33-34.83-16.66-17.83-10.34-32.17-21.67L178-192.33 79.33-365l106.34-78.67q-1.67-8.33-2-18.16-.34-9.84-.34-18.17 0-8.33.34-18.17.33-9.83 2-18.16L79.33-595 178-767.67 296.33-715q14.34-11.33 32.34-21.67 18-10.33 34.66-16L382-880h196l18.67 126.67q17 6.33 35.16 16.33 18.17 10 31.84 22L782-767.67 880.67-595l-106.34 77.33q1 9 1.34 18.84.33 9.83.33 18.16H613.67q0-55.33-38.84-94-38.83-38.66-94.16-38.66-55.67 0-94.5 38.83-38.84 38.83-38.84 94.5 0 44 25.17 78t64.83 48v274H382Z"/></svg>