<svg xmlns="http://www.w3.org/2000/svg" height="20" viewBox="0 -960 960 960" width="20"><path d="M595-106q-30.94 0-48.97-18.03Q528-142.06 528-173v-144q0-30.94 18.03-48.97Q564.06-384 595-384h240q30.94 0 48.97 18.03Q902-347.94 902-317v144q0 30.94-18.03 48.97Q865.94-106 835-106H595Zm0-67h240v-144H595v144ZM456.5-342.5q-50-7-84-45.89t-34-91.4q0-58.21 40.55-98.71 40.55-40.5 98.5-40.5T576-578.46q40.5 40.53 40.5 98.46 0 6-.5 12.25t-1.5 12.25H574q-8.17 0-15.58 1-7.42 1-14.42 2.5 3-6.57 4.5-13.25t1.5-14.25q0-30.21-21.14-51.36Q507.71-552 477.5-552q-30 0-51 21t-21 51q0 29.5 20.72 50.93t50.28 21.57h3Q470-394 464-377.25t-7.5 34.75Zm21-137.5Zm-69 374-22-110.5q-23-9.5-46.25-21.75T298-266.5l-106.5 35-72-125 85-74.5q-2-11.48-3-22.99-1-11.51-1-26.01 0-12 1.25-24.5T205-531l-85.5-74.5 72-124 108 37q18-16 39.75-28t47.25-22l22-112.5h143l22 111q24 9.5 45.75 21.75T660-692.5l108.5-36 72 124-88 75.54q2 11.96 3 23.46t1 26q0 6-.5 12t-1.5 12h-67q1-6 1.5-12t.5-12q.5-17.5-3-35.75t-9.5-36.5L754-620l-16.5-29-98 33Q616-644 584-663t-67.5-24.5L497.57-788H462l-18.5 100q-39 7.5-69 24.75T318-616l-95.5-33-17.5 29 75.5 66.5q-6 19-9.5 37t-3.5 35.97q0 19.03 2.75 37.03T279-407l-74 66 16.58 29 94.92-32q27 31 63.25 49t76.75 25.5V-106h-48Zm69-374Z"/></svg>