<svg xmlns="http://www.w3.org/2000/svg" height="48" viewBox="0 -960 960 960" width="48"><path d="M590.69-84q-28.25 0-49.47-21.22T520-154.69v-174.62q0-28.25 21.22-49.47T590.69-400h258.62q28.25 0 49.47 21.22T920-329.31v174.62q0 28.25-21.22 49.47T849.31-84H590.69Zm0-58.39h258.62q5.38 0 8.84-3.46t3.46-8.84v-174.62q0-5.38-3.46-8.84-3.46-3.47-8.84-3.47H590.69q-5.38 0-8.84 3.47-3.47 3.46-3.47 8.84v174.62q0 5.38 3.47 8.84 3.46 3.46 8.84 3.46Zm-143-216.69q-42.2-9.71-69.37-43.67-27.16-33.96-27.16-78.73 0-52.93 36.8-89.57 36.8-36.64 89.68-36.64 52.11 0 88.62 35.77 36.51 35.77 37.66 87.61 0 3.46-.81 7.42-.8 3.97-.42 7.81h-38.07q-5.42.39-10.98.58-5.56.19-9.95 1.19.23-3.46 1.04-6.3t.81-8.39q0-27.79-19.73-47.55-19.73-19.76-48.08-19.76-28.73 0-48.46 19.24-19.73 19.23-19.73 48.01 0 25.58 16.3 44.78 16.3 19.19 39.54 23.2-8.16 10.84-12.91 25.55-4.76 14.72-4.78 29.45Zm30.16-123.54ZM389.69-84l-19.07-124.23q-17.54-6-39.54-18.08-22-12.07-37.54-25.54l-115.85 51.93-90.92-163.31 102.08-76.55q-1-8.27-1.89-20.03-.88-11.76-.88-21.16 0-9.03.88-20.44.89-11.41 1.89-21.98L86.77-599.15l90.92-161.16 113.46 51.16q16.31-12.93 38.24-25.58 21.92-12.65 40.84-19.04L389.69-877h181.62l18.07 123.62q20.08 7.15 41.16 19.23 21.07 12.07 36.77 25l116.38-51.16 90.54 161.16-105.62 76.3q1.16 10.93 2.16 21.58 1 10.65 1 19.65h-59.16q-.2-19.62-2.59-34.46-2.41-14.84-5.02-31.23l91.23-68-39-70.84-105.62 44.23q-21.07-23.69-51.91-42.57-30.85-18.87-63.64-23.51l-12.63-110.61h-87.28l-12.23 110.23q-35.23 7.61-64.19 24.15t-53.11 41.92l-102.57-43.84-41.28 70.84 91.46 67.85q-4.38 16.84-6.69 33.15-2.31 16.31-2.31 32.99 0 16.71 2.31 32.94 2.31 16.23 6.31 34.46l-91.08 68.23 41 70.84 103.46-44.84q25.23 25.45 56.96 42.26t66.96 25.81V-84h-41.46Zm88.16-398.62Z"/></svg>