<svg xmlns="http://www.w3.org/2000/svg" height="24" viewBox="0 -960 960 960" width="24"><path d="M606-81.87q-35.72 0-60.86-25.14T520-167.87V-314q0-35.72 25.14-60.86T606-400h227.57q35.72 0 60.86 25.14T919.57-314v146.13q0 35.72-25.14 60.86t-60.86 25.14H606Zm0-86h227.57V-314H606v146.13Zm-165.02-181.2q-42.96-12.52-70.68-47.98-27.71-35.46-27.71-82.74 0-56.71 39.89-96.56 39.9-39.85 96.34-39.85 56.44 0 96.18 39.78 39.74 39.77 39.98 96.18v.5h-35.09q-12.75 0-24.14 2.32-11.38 2.31-22.01 7.44.96-2.53 1.43-4.9.48-2.37.48-5.38 0-24.1-16.37-40.48-16.37-16.39-40.44-16.39-23.86 0-40.52 16.66-16.67 16.67-16.67 40.47 0 20.26 12.58 35.83 12.58 15.57 32.14 19.52 1.2 0 2.03-.12.84-.12 1.8-.6-12.42 15.98-20.09 35.42-7.68 19.45-9.13 40.88ZM478.78-480ZM368.57-81.87 352.09-209q-11.19-4.81-22.84-11.09-11.64-6.28-21.21-13.08l-117.89 49.19L77.98-378.89l102.91-77.94q-.76-5.47-.76-10.56v-12.59q0-5 .25-11.08.25-6.07 1.01-14.11L77.98-582.11l112.17-193.43 119.87 49.95q8.57-6.8 18.9-12.73 10.34-5.92 23.17-11.2l16.48-129.61h222.86l16.48 128.11q12.19 4.74 22.34 10.94 10.14 6.19 19.71 14.49l119.89-49.95 112.17 193.43-106.15 78.98q.76 5.76.76 10.92v12.47h-86.24q-.26-18.74-2.5-32.73-2.24-13.99-6.48-27.48l86.76-65.77-35.1-62.69-100.53 43q-19.5-21.72-46.59-37.58-27.1-15.86-56.08-23.12l-12.93-107.02h-73.55l-13.02 106.28q-32.72 8.26-57.44 22.37-24.71 14.11-48.45 38.07l-97.78-42-35.87 62.69 84.54 62.79q-5 16.47-7.24 31.28-2.24 14.8-2.24 31.12 0 15.27 1.99 30.25t6.99 31.95l-84.04 63.05 35.94 62.69 97.16-41.76q23.81 24 53.44 40t62.89 23.22v189.26h-71.69ZM478.78-480Z"/></svg>