<svg xmlns="http://www.w3.org/2000/svg" height="24" viewBox="0 -960 960 960" width="24"><path d="M588.27-108.08q-28.44 0-48.35-19.91Q520-147.91 520-176.35v-155.38q0-28.44 19.92-48.35Q559.83-400 588.27-400h235.38q28.44 0 48.36 19.92 19.91 19.91 19.91 48.35v155.38q0 28.44-19.91 48.36-19.92 19.91-48.36 19.91H588.27Zm0-55.96h235.38q5.39 0 8.85-3.46t3.46-8.85v-155.38q0-5.39-3.46-8.85t-8.85-3.46H588.27q-5.39 0-8.85 3.46t-3.46 8.85v155.38q0 5.39 3.46 8.85t8.85 3.46Zm-196.04 55.96L377-227.19q-16.27-5.7-34.52-15.64-18.25-9.94-31.56-21.02L201-217.77l-88.27-153.54 96-72.46q-1.57-8.59-2.06-17.1-.48-8.51-.48-18.75 0-7.73.73-16.94.74-9.21 2.12-21.29l-96.31-71.84L201-741.65l110.85 46.5q13.65-11.27 30.23-20.87 16.57-9.59 34.54-16.17l15.61-120.54h175.73l15.23 119.81q18.62 6.84 33.44 15.83 14.83 8.98 29.68 21.94l112.88-46.5 88.27 151.96-99.96 74.65q1.96 9.65 2.25 17.67.29 8.02.29 17.68H593.92v-.69q0-47.86-33.92-81.72t-81.62-33.86q-48.46 0-82.13 33.67-33.67 33.68-33.67 81.91 0 38.32 21.71 67.73 21.71 29.42 56.21 41.46v263.11h-48.27Z"/></svg>