<svg xmlns="http://www.w3.org/2000/svg" height="40" viewBox="0 -960 960 960" width="40"><path d="M604-58.67q-33.73 0-58.86-25.13Q520-108.94 520-142.67V-316q0-33.73 25.14-58.86Q570.27-400 604-400h258.67q33.72 0 58.86 25.14 25.14 25.13 25.14 58.86v173.33q0 33.73-25.14 58.87-25.14 25.13-58.86 25.13H604Zm0-84h258.67V-316H604v173.33Zm-237 84-20-131.66q-13-5.34-28.45-14.12-15.44-8.79-27.55-17.88L167-168 53.67-370l108-81.33q-.67-4.67-1-14.5-.34-9.84-.34-16.5 0-4.67.34-14 .33-9.34 1-15.67l-108-80L167-792.67 288.33-739q12-9 28.5-18.33 16.5-9.34 30.5-15L367-902.67h226.67l19 130.67q14 5.67 30.83 15t28.17 18.33l122-54L907-592l-110 80q0 6 .67 15.17.66 9.16.66 14.83h-169q0-62.93-43.83-107.13-43.83-44.2-106.5-44.2-63.33 0-107.67 44.33Q327-544.67 327-481.33q0 50.29 28.55 88.67T429-339v280.33h-62Z"/></svg>