<svg xmlns="http://www.w3.org/2000/svg" height="24" viewBox="0 -960 960 960" width="24"><path d="M633.17-44.65q-46.93 0-80.05-33.12Q520-110.9 520-157.83v-129q0-46.93 33.12-80.05T633.17-400h217.24q46.93 0 80.05 33.12 33.13 33.12 33.13 80.05v129q0 46.93-33.13 80.06-33.12 33.12-80.05 33.12H633.17Zm0-113.18h217.24v-129H633.17v129ZM343.41-44.65l-18.24-136.44q-6.14-3.54-12.8-7.41-6.66-3.87-13.13-8.2l-129.2 53.72L34.22-383.43l107.43-82.72q0-1.72.12-7.3.12-5.57.12-9.17 0-1.6-.12-6.8-.12-5.19-.12-7.71l-107.43-81.2 135.82-238.21 126.16 51.71q7.01-4.15 15.09-8.38 8.08-4.22 14.88-8.51l17.24-135.39h273.18l17.24 136.15q7.14 4.25 15.27 8.55 8.14 4.3 15.18 8.58l125.68-52.71 135.82 238.21-109.43 82.72V-482H641.93q-.23-67.69-47.54-115.69-47.3-48.01-115.63-48.01-68.29 0-116.11 47.82-47.82 47.81-47.82 116.09 0 55.55 31.95 97.67 31.95 42.12 81.89 58.01v281.46h-85.26Z"/></svg>