<svg xmlns="http://www.w3.org/2000/svg" height="24" viewBox="0 -960 960 960" width="24"><path d="M577.5-137q-24.44 0-40.97-16.53Q520-170.06 520-194.5v-148q0-24.44 16.53-40.97Q553.06-400 577.5-400h228q24.44 0 40.97 16.53Q863-366.94 863-342.5v148q0 24.44-16.53 40.97Q829.94-137 805.5-137h-228Zm0-25.5h228q14 0 23-9t9-23v-148q0-14-9-23t-23-9h-228q-14 0-23 9t-9 23v148q0 14 9 23t23 9Zm-132-238q-24-9.5-39-30.89-15-21.4-15-48.59 0-36.02 24.55-60.77t61-24.75q33.45 0 57.7 22.79Q559-519.93 562.5-487h-.5q-7.01 1-12.66 1.75T537-482.5v.5q-1-24-18.5-41T477-540q-25 0-42.5 17.5T417-480q0 19.5 11.22 35.18T456.5-423q-3.5 5.5-5.97 11.23-2.46 5.72-5.03 11.27ZM477-480Zm-58 343-14-110.5q-21.5-6-47.75-20.25T313.87-298L213-255l-61.5-108 88-66q-2.5-11.98-3.75-24.49Q234.5-466 234.5-479q0-10.5 1.5-23.25l3.5-29.75-88-66L213-703.5 314-661q19.5-16.5 43-30.25t47-21.25l15-111h122.5l14 111.5q26 9 45.75 20.75T642-661l105.5-42.5L809-598l-93.5 70.04q3.5 13.96 4.25 25.21t.75 22.75H693q0-16.5-2-28.92-2-12.43-6-27.83l90.5-68.75-39-67.5-104 43.5q-16-18-46.5-36t-54-23L520-798h-80l-11.5 108.54q-31 6.46-54.75 19.46t-50.25 39.5L224-673l-40 67.5 87 64.5q-5 13.5-7 29.32t-2 32.15q0 15.03 1.75 29.53 1.75 14.5 5.75 29.5L184-355l39.86 67.5 98.64-42q24 23.5 54.25 38.75t63.75 23.25V-137H419Zm58-343Z"/></svg>