<svg xmlns="http://www.w3.org/2000/svg" height="20" viewBox="0 -960 960 960" width="20"><path d="M611-87.87q-37.78 0-60.39-22.61T528-170.87V-301q0-37.78 22.61-60.39T611-384h227.57q37.78 0 60.39 22.61T921.57-301v130.13q0 37.78-22.61 60.39t-60.39 22.61H611Zm0-83h227.57V-301H611v130.13Zm-214.93 83L373.59-204.5q-21.19-8.31-41.09-19.34-19.89-11.03-37.46-25.83l-112.39 38.19-84.17-145.91 88.91-77.44q-1.76-11-2.76-22.07-1-11.08-1-23.08 0-12 1-23.08 1-11.07 2.76-22.11l-88.91-78.44 84.17-145.43 112.87 38.95q17.57-14.8 37.15-25.73 19.59-10.92 40.92-19.2l22.48-117.11h167.86l22.48 117.11q21.19 8.24 41.09 19.19 19.89 10.94 37.46 25.74l112.39-37.95 84.17 145.43-89.15 77.44q1.76 17.56 2.76 34.46 1 16.91-1 34.47H620.28q1-6 1.5-12.5t.5-12.5q-.24-60-42.17-101.38Q538.18-624 478.28-624q-60 0-101.5 41.5T335.28-481q0 54 34.62 94.24 34.62 40.24 85.86 48v250.89h-59.69Z"/></svg>