<svg xmlns="http://www.w3.org/2000/svg" height="48" viewBox="0 -960 960 960" width="48"><path d="M577.5-85q-22.97 0-40.23-17.27Q520-119.53 520-142.5v-200q0-22.97 17.27-40.23Q554.53-400 577.5-400h280q22.97 0 40.23 17.27Q915-365.47 915-342.5v200q0 22.97-17.27 40.23Q880.47-85 857.5-85h-280Zm0-57.5h280v-200h-280v200ZM391-85l-20-124.5q-19-7-41-19.25T291.87-254L176-201 85.5-361l107-78q-2-8.98-2.5-19.99-.5-11.01-.5-21.01 0-8.5.5-20.25t2.5-21.75l-107-78L176-759.5 293-706q15-12.5 36.25-24.75T371-749.5l20-126h178.5l20 124.5q19 7 40.75 19T667-706l117.5-53.5L875-600l-108.5 77.04q.5 9.96 1.25 21.21t.75 20.75H605q0-52.96-36.75-89.73t-89.02-36.77q-53.73 0-90.73 37.25-37 37.25-37 90.25 0 41.3 23.78 73.77t61.22 45.73V-85H391Z"/></svg>