<svg xmlns="http://www.w3.org/2000/svg" height="48" viewBox="0 -960 960 960" width="48"><path d="M574-132q-22.24 0-38.12-15.88Q520-163.76 520-186v-160q0-22.24 15.88-38.12Q551.76-400 574-400h240q22.24 0 38.12 15.88Q868-368.24 868-346v160q0 22.24-15.88 38.12Q836.24-132 814-132H574Zm0-22h240q14 0 23-9t9-23v-160q0-14-9-23t-23-9H574q-14 0-23 9t-9 23v160q0 14 9 23t23 9Zm-152.5 22-15-111.5Q383-250 355-265.75t-47.13-33.75l-101.37 46-59-105 90-66.5q-2.5-13.48-3.75-26.99-1.25-13.51-1.25-27.01 0-12 1.25-26t3.25-30l-89.5-68.5 59-102 101 44q21.5-17 47.5-32.5t50.5-22.5l16-111.5h118l15 112q26 9.5 49.25 23T649-661.5l106.5-44 58 102-94 70.54q3 14.96 4 27.96t1 24.5h-163v-.5q0-35.28-25.25-59.64T476.8-565q-35.21 0-59.75 24.25Q392.5-516.5 392.5-481q0 25.3 13.03 45.77 13.03 20.47 33.97 30.23v273h-18Z"/></svg>