<svg xmlns="http://www.w3.org/2000/svg" height="20" viewBox="0 -960 960 960" width="20"><path d="M626-64q-43.72 0-70.86-27.14T528-162v-124q0-43.73 27.14-70.86Q582.28-384 626-384h228q43.72 0 70.86 27.14Q952-329.73 952-286v124q0 43.72-27.14 70.86T854-64H626Zm0-98h228v-124H626v124ZM380-64l-24-121q-17-8-34.78-17.45Q303.44-211.91 288-225l-119 40-99-177 90-80q-1-7-2-19t-1-22q0-8 1-19.5t2-19.5l-90-79 99-175 115 39q16-13 35-23t38-19l23-119h200l23 120q18 9 37.5 19t35.5 23l115-39 99 175-92 80q1 14 2 30.5t-1 31.5H644q1-6 1.5-12.5t.5-12.5q0-71.6-49-121.3T476-654q-71 0-121 50t-50 121.01q0 62.95 39.55 109.66Q384.1-326.61 443-316v252h-63Z"/></svg>