<svg xmlns="http://www.w3.org/2000/svg" height="24" viewBox="0 -960 960 960" width="24"><path d="M600-80q-33 0-56.5-23.5T520-160v-160q0-33 23.5-56.5T600-400h240q33 0 56.5 23.5T920-320v160q0 33-23.5 56.5T840-80H600Zm0-80h240v-160H600v160ZM370-80l-16-128q-13-5-24.5-12T307-235l-119 50L78-375l103-78q-1-7-1-13.5v-27q0-6.5 1-13.5L78-585l110-190 119 50q11-8 23-15t24-12l16-128h220l16 128q13 5 24.5 12t22.5 15l119-50 110 190-103 78q1 7 1 13.5v13.5H623q0-58-41.5-99T482-620q-59 0-99.5 40.5T342-480q0 48 27.5 84t70.5 50v266h-70Z"/></svg>