<svg xmlns="http://www.w3.org/2000/svg" height="24" viewBox="0 -960 960 960" width="24"><path d="M592.31-100Q562-100 541-121q-21-21-21-51.31v-155.38Q520-358 541-379q21-21 51.31-21h235.38Q858-400 879-379q21 21 21 51.31v155.38Q900-142 879-121q-21 21-51.31 21H592.31Zm0-60h235.38q5.39 0 8.85-3.46t3.46-8.85v-155.38q0-5.39-3.46-8.85t-8.85-3.46H592.31q-5.39 0-8.85 3.46t-3.46 8.85v155.38q0 5.39 3.46 8.85t8.85 3.46ZM441.92-366q-35.69-12.46-58.57-43.08-22.89-30.61-22.89-70.92 0-49.92 35.04-84.96Q430.54-600 480.46-600q49.15 0 84 34.27t36 83.04h-25.85q-9.84.38-18.19 1.69-8.34 1.31-16.57 3.92v-4.3Q539.46-506 522.27-523q-17.19-17-41.81-17-25 0-42.5 17.5t-17.5 42.5q0 20.62 12.12 36.12 12.11 15.5 30.96 20.88-8.92 12.77-14.39 26.77-5.46 14-7.23 30.23Zm38.54-114Zm-92.77 380-15.23-121.85q-16.07-5.38-32.96-15.07-16.88-9.7-30.19-20.77L196.46-210l-92.3-160 97.61-73.77q-1.38-8.92-1.96-17.92-.58-9-.58-17.93 0-8.53.58-17.34t1.96-19.27L104.16-590l92.3-159.23 112.46 47.31q14.47-11.46 30.89-20.96t32.27-15.27L387.69-860h184.62l15.23 122.23q18 6.54 32.57 15.27 14.58 8.73 29.43 20.58l114-47.31L855.84-590l-99.15 74.92q2.15 9.69 2.35 18.12.19 8.42.19 16.96h-60.77q-.61-18.23-2.61-32.15-2-13.93-6-27.7L777.38-606 738-674l-100.54 42.38q-20.08-21.46-48.11-37.92-28.04-16.46-56.73-23.31L520-800h-79.38l-13.24 106.77q-30.61 7.23-56.53 22.15-25.93 14.93-49.47 38.46L222-674l-39.38 68L269-541.62q-5 14.24-7 29.62t-2 32.38q0 15.62 2 30.62 2 15 6.62 29.62l-86 65.38L222-286l99-42q24 24.62 54.19 41.04 30.19 16.42 64.81 22.58V-100h-52.31Zm92.77-380Z"/></svg>