<svg xmlns="http://www.w3.org/2000/svg" height="20" viewBox="0 -960 960 960" width="20"><path d="M580-148q-26 0-39-13t-13-39v-132q0-26 13-39t39-13h228q26 0 39 13t13 39v132q0 26-13 39t-39 13H580Zm0-20h228q14 0 23-9t9-23v-132q0-14-9-23t-23-9H580q-14 0-23 9t-9 23v132q0 14 9 23t23 9Zm-131 20-20-98q-31-10-66.5-29T302-318l-94 31-31-55 73-65q-3-17-5.5-35.5T242-479q0-17 2.5-35t5.5-39l-73-66 31-53 93 31q28-25 61-43.5t66-29.5l21-98h62l20 99q36 13 65.5 29.5T655-641l97-30 31 53-77 68q5 26 6.5 48.5T712-456H563q1-6 1.5-13t.5-13q0-38-26.5-64T474-572q-37 0-63.5 26.5T384-482q0 32 20.5 57.5T456-394v246h-7Z"/></svg>