<svg xmlns="http://www.w3.org/2000/svg" height="48" viewBox="0 -960 960 960" width="48"><path d="M588.38-104q-27.78 0-48.08-20.3-20.3-20.3-20.3-48.08v-159.24q0-27.78 20.3-48.08 20.3-20.3 48.08-20.3h243.24q27.78 0 48.08 20.3 20.3 20.3 20.3 48.08v159.24q0 27.78-20.3 48.08-20.3 20.3-48.08 20.3H588.38Zm0-43.77h243.24q10.76 0 17.69-6.92 6.92-6.93 6.92-17.69v-159.24q0-10.76-6.92-17.69-6.93-6.92-17.69-6.92H588.38q-10.76 0-17.69 6.92-6.92 6.93-6.92 17.69v159.24q0 10.76 6.92 17.69 6.93 6.92 17.69 6.92Zm-186 43.77-17.15-118.46q-19.08-6-43.74-19.65-24.66-13.65-41.41-28.58l-109.7 48.84-77.84-140.61 95.15-71.77q-1-9.08-2.27-22.5t-1.27-24.5q0-8.31 1.27-21.23t2.27-26.31l-95.15-71.54 77.84-137.31 106.93 47.31q18.61-14.84 42.46-28.65 23.85-13.81 44.69-20.58L402.38-857h156.24l16.15 118.23q23.15 8.31 44.81 20.96 21.65 12.66 40.04 27.5l111.76-47.31 77.08 137.31-100.23 73.62q2.31 11.84 3.31 24 1 12.15 1 21.46H584.08v-.77q0-45.23-31.89-76.81-31.88-31.57-76.21-31.57-44.6 0-76.64 31.61-32.03 31.62-32.03 77.01 0 33.87 18.09 60.47t46.91 38.14V-104h-29.93Z"/></svg>