<svg xmlns="http://www.w3.org/2000/svg" height="48" viewBox="0 -960 960 960" width="48"><path d="M585.87-79.02q-26.67 0-46.27-19.53t-19.6-46.1v-189.72q0-26.32 19.6-45.97Q559.2-400 585.87-400h270.67q26.32 0 45.98 19.66 19.65 19.65 19.65 45.97v189.72q0 26.57-19.65 46.1-19.66 19.53-45.98 19.53H585.87Zm0-65.63h270.67v-189.72H585.87v189.72ZM385.62-79.02 365.5-205.43q-17.66-6.31-38.54-17.95-20.87-11.64-35.8-23.69l-117.55 53.96-96-169.8 108.43-78.96q-1.76-8.23-2.26-18.54-.5-10.32-.5-19.57 0-7.75.5-18.8.5-11.06 2.26-20.35l-108.43-79.2 96-168.82 119.21 54.22q13.51-11.31 33.56-22.84 20.05-11.53 39.12-17.56l20.23-128.39h189.03L595-754.83q17.62 6.5 38.15 17.8 20.52 11.29 34.57 24.1l119.41-54.22 95.76 168.82-110.17 78.24q.26 8.76 1.13 19.66.87 10.89.87 19.19h-170.2q-.24-52.72-37.04-89.49-36.8-36.77-88.73-36.77-53.97 0-90.85 37.25Q351.02-533 351.02-480q0 41.3 23.9 74.01 23.9 32.71 61.34 45.62v281.35h-50.64Z"/></svg>