<svg xmlns="http://www.w3.org/2000/svg" height="24" viewBox="0 -960 960 960" width="24"><path d="M626-60.78q-44.3 0-75.15-30.85Q520-122.48 520-166.78V-294q0-44.3 30.85-75.15Q581.7-400 626-400h210.61q44.3 0 75.15 30.85 30.85 30.85 30.85 75.15v127.22q0 44.3-30.85 75.15-30.85 30.85-75.15 30.85H626Zm0-106h210.61V-294H626v127.22Zm-272.39 106L336.48-195q-8.72-3.36-16.42-8.07-7.71-4.71-15.32-9.89l-124.65 52.83L53.13-380.65l107.52-81.39q-.43-4.65-.43-8.96v-17.91q0-4.31.43-9.05L53.13-579.35l126.96-219.39 125.78 52.26q7.61-5.17 15.09-9.63 7.47-4.46 15.52-7.76l17.13-135.35h252.78l17.13 135.35q8.72 3.21 16.42 7.72 7.71 4.5 15.32 9.67l124.65-52.26 126.96 219.39-108.09 81.39q.44 3.61.44 8.7v8.69H621.3q-.56-58-41.89-98.71Q538.07-620 480.3-620q-59 0-99.5 40.5T340.3-480q0 48 27.79 84.57 27.78 36.56 71.34 50v284.65h-85.82Z"/></svg>