<svg xmlns="http://www.w3.org/2000/svg" height="24" viewBox="0 -960 960 960" width="24"><path d="M581.54-126.15q-25.94 0-43.74-17.8T520-187.69v-150.77q0-25.94 17.8-43.74t43.74-17.8h230.77q25.94 0 43.74 17.8t17.8 43.74v150.77q0 25.94-17.8 43.74t-43.74 17.8H581.54Zm0-36.93h230.77q10.77 0 17.69-6.92 6.92-6.92 6.92-17.69v-150.77q0-10.77-6.92-17.69-6.92-6.93-17.69-6.93H581.54q-10.77 0-17.69 6.93-6.93 6.92-6.93 17.69v150.77q0 10.77 6.93 17.69 6.92 6.92 17.69 6.92ZM444.35-388.96q-28.16-10.31-45.93-34.82-17.77-24.5-17.77-56.15 0-40.69 28.02-68.84 28.01-28.15 68.96-28.15 38.64 0 66.41 26.65 27.77 26.65 30.46 64.89v.11h-10.19q-7.51.77-13.68 1.58t-13.17 2.92v-.88q-.77-24.28-18.19-41.32Q501.86-540 477.58-540q-25 0-42.5 17.5t-17.5 42.5q0 19.73 11.45 35.47 11.45 15.74 29.09 21.65-5.12 7.8-8.4 16.42-3.28 8.61-5.37 17.5ZM477.58-480Zm-68.62 353.85L394.5-239.88q-19.54-5.89-42.79-18.52-23.25-12.64-38.96-26.79L208.5-241.04l-71.54-125.08 91-68.42q-2.15-10.7-3.11-21.72-.97-11.01-.97-22.97 0-9.46 1.22-20.89 1.21-11.42 2.98-26.57l-91.12-68.19 71.54-122.93 104.69 44q17.31-14.54 38.21-26.73 20.91-12.19 42.33-19.34l15.23-114.58h142.46l14.46 114.61q23.24 8.2 41.14 18.91 17.9 10.71 36.6 27.13l108.26-44 71.54 122.93-95.92 71.77q2.92 12.34 3.5 22.38.58 10.04.58 20.85h-38.46q-.12-16.97-2.12-29.7-2-12.72-6-27.63l89.69-68.17-38.65-67.39-103.31 43.39q-16.81-18.7-46.38-36.12-29.58-17.42-54.23-23L519.9-797.54h-79.67l-11.96 108.18q-31.23 6.94-55.04 20.11-23.81 13.17-49.61 38.87l-99.27-42.39-39.66 67.39 86.66 64.26q-5 14.08-7 29.6-2 15.51-2 31.76 0 15.03 1.75 29.53 1.75 14.5 5.98 29.85l-85.39 65.15 39.57 67.38 98.47-42q24 23.62 54.14 39.04 30.13 15.43 63.63 23.08v141.58h-31.54ZM477.58-480Z"/></svg>