<svg xmlns="http://www.w3.org/2000/svg" height="48" viewBox="0 -960 960 960" width="48"><path d="M574.81-121.15q-22.41 0-38.61-16.2T520-175.96v-169.23q0-22.41 16.2-38.61t38.61-16.2h249.23q22.41 0 38.61 16.2t16.2 38.61v169.23q0 22.41-16.2 38.61t-38.61 16.2H574.81Zm0-30.2h249.23q10.77 0 17.69-6.92 6.92-6.92 6.92-17.69v-169.23q0-10.77-6.92-17.69-6.92-6.93-17.69-6.93H574.81q-10.77 0-17.69 6.93-6.93 6.92-6.93 17.69v169.23q0 10.77 6.93 17.69 6.92 6.92 17.69 6.92ZM451.88-390.12q-30.38-7.88-49.61-32.89-19.23-25.02-19.23-57.34 0-40.05 27.53-67.25 27.54-27.21 67.56-27.21 37.72 0 64.66 25.69 26.94 25.68 29.63 63.5 0 1.93-.36 4.16-.37 2.23-.1 4.92h-12.65q-4.54.77-8.95 1.35-4.4.57-9.21 1.46.47-2 .58-3.6.12-1.59.12-4.59 0-25.48-18.75-44.09-18.75-18.61-44.99-18.61-26.96 0-45.92 18.78t-18.96 45.61q0 22.44 13.63 39.84 13.62 17.41 35.95 22.85-4.6 5.95-6.8 13.43-2.2 7.48-4.13 13.99Zm25.97-90.11Zm-63.39 359.08-16.15-114.5q-22.46-6.62-49.08-21.56-26.61-14.94-45.15-31.79l-104.62 47.62-66.27-117.7 93.93-69.15q-2.39-12.44-3.47-25.37-1.07-12.94-1.07-25.63 0-11.19 1.07-24.67 1.08-13.48 3.08-28.1l-93.54-70.69 66.27-115.27 104.69 46.19q20-15.96 44.91-30.71 24.9-14.75 48.48-21.64l16.92-114.84h131.96l16.16 114.88q24.38 8.93 47.29 22.08 22.9 13.15 43.28 30.23l109.04-46.19 65.5 115.27-97.34 72.04q2.42 13.8 3.36 26.4.94 12.6.94 23.63h-31.73q-.38-17.96-2.38-31.09-2-13.13-5.23-29.42l92.57-69.37-39.38-69.58-105.46 44.58q-19.81-21.15-50.1-39.81-30.29-18.65-57.63-22.5l-13.7-110.96h-83.3l-11.96 110.64q-33.47 6.67-59.35 21.32-25.88 14.66-51.42 40.54l-103.2-43.81L172-610.5l91.31 66.19q-4.77 14.81-6.89 30.99-2.11 16.18-2.11 33.19 0 17.79 1.86 32.69 1.87 14.9 5.87 30.48L172-349.62l40.08 69.58 103.11-43.69q24.46 25.14 56.18 41.41 31.71 16.28 67.44 23.13v138.04h-24.35Zm63.39-359.08Z"/></svg>