<svg xmlns="http://www.w3.org/2000/svg" height="24" viewBox="0 -960 960 960" width="24"><path d="M577.5-137q-24.44 0-40.97-16.53Q520-170.06 520-194.5v-148q0-24.44 16.53-40.97Q553.06-400 577.5-400h228q24.44 0 40.97 16.53Q863-366.94 863-342.5v148q0 24.44-16.53 40.97Q829.94-137 805.5-137h-228Zm0-25.5h228q14 0 23-9t9-23v-148q0-14-9-23t-23-9h-228q-14 0-23 9t-9 23v148q0 14 9 23t23 9ZM419-137l-14-110.5q-21.5-6-47.75-20.25T314-298l-101 43-61.5-108 88-66q-2.5-11.98-3.75-24.49Q234.5-466 234.5-479q0-10.5 1.5-23.25l3.5-29.75-88-66L213-703.5 314-661q19.5-16.5 43-30.25t47-21.25l15-111h122.5l14 111.5q26 9 45.75 20.75T642-661l105.5-42.5L809-598l-93.5 70.04q3.5 13.96 4.25 25.21t.75 22.75H561v-1q0-34.93-25-59.71-25-24.79-59.77-24.79-35.23 0-59.98 24.75T391.5-481q0 25.4 13.25 46.2Q418-414 440.5-403.5V-137H419Z"/></svg>