<svg xmlns="http://www.w3.org/2000/svg" height="20" viewBox="0 -960 960 960" width="20"><path d="M200-248q0-48.5 31.5-83.75T310-386q-49.5-10.5-79.75-53T200-535.95q0-81.94 61.57-137.49Q323.13-729 411.5-729q71.5 0 127.25 36.5T616-594q5-33 32-52.75t61.77-19.75q43.85 0 80.79 19.24 36.94 19.24 36.94 58.06 0 28.7-19.79 47.7-19.78 19-47.21 19H719v139q0 56.56-41.25 96.03T579.5-248H200Zm145.48-152.5q53.52 0 91.02-31.2Q474-462.9 474-512q0-33-18.12-56.75t-47.95-23.75q-21.66 0-38.29 13.71Q353-565.08 353-546h-17.5q0-26.42 22.34-45.21T409.98-610q37.52 0 59.52 29t22 69.5q0 38.31-18.75 69.4Q454-411 423-392.5h109.93q29.57 0 50.82-21t21.25-49v-61q0-78.03-56.27-133.02-56.27-54.98-135.76-54.98-81.97 0-138.22 50.55-56.25 50.56-56.25 124.61 0 54.84 36.77 95.34t90.21 40.5Z"/></svg>