<svg xmlns="http://www.w3.org/2000/svg" height="24" viewBox="0 -960 960 960" width="24"><path d="M86-126q0-67 24.5-123t69.5-91q-45-28-69.5-76.5T86-522q0-130 89.5-221T393-834q72 0 134 31t102 87q22-34 60-53.5t86-19.5q78 0 131.5 40.5T960-648q0 55-37 93t-89 38v167q0 94-65.5 159T609-126H86Zm223-278q48 0 82-31t34-76q0-19-9-31.5T393-555q-14 0-23 12.5t-9 29.5H256q0-61 40.5-104.5T394-661q57 0 97 43.5T531-513q0 31-8.5 58.5T497-404h34q26 0 43.5-16t17.5-39v-63q0-86-58-146t-141-60q-84 0-142.5 60T192-522q0 49 34 83.5t83 34.5Z"/></svg>