<svg xmlns="http://www.w3.org/2000/svg" height="40" viewBox="0 -960 960 960" width="40"><path d="M150.67-189.67q0-55 29.33-99.16 29.33-44.17 83-68.84-53.41-16.87-82.87-64.77-29.46-47.9-29.46-106.89 0-100.83 73.19-170.42 73.2-69.58 179.82-69.58 73.99 0 133.49 34.66 59.5 34.67 89.16 98.34 9-43.67 44.73-68.67 35.74-25 82.98-25 52.63 0 96.63 25.83 44 25.84 44 73.43 0 37.6-25.08 64-25.09 26.41-63.59 26.41h-27.67v176.66q0 73.78-52.27 123.89-52.28 50.11-126.39 50.11h-449ZM326.81-384q56.63 0 97.08-29.5 40.44-29.5 40.44-82.36 0-33.14-18.16-62.47Q428-587.67 396-587.67q-19.36 0-34.85 15.69-15.48 15.68-15.48 35.65h-41q0-36.67 28.19-64.67t67.63-28q47.37 0 76.27 39.33 28.91 39.34 28.91 92 0 35.24-16.17 64.62-16.17 29.38-44.83 49.05h88.66q33.98 0 57.49-22.08 23.51-22.09 23.51-54.59v-56.4q0-88.25-61.32-149.59Q491.7-728 403.42-728q-87.95 0-149.68 57.83Q192-612.34 192-529.33q0 59.66 39.31 102.5Q270.62-384 326.81-384ZM199-231h402.64q56.08 0 95.72-38.45T737-363.57v-166.76q0-18.19 12.17-34.76 12.16-16.58 33.16-16.58h17.87q20.13 0 36.63-14.22 16.5-14.23 16.5-35.19 0-16.25-10.82-28.09Q831.69-671 816-677.67q-17.33-7-32.44-9-15.12-2-29.56-2-41.08 0-69.71 27.06-28.62 27.06-28.62 67.94v133q0 49.63-35.89 83.82-35.88 34.18-86.45 34.18h-169q-59.16 0-104.91 27.84Q213.67-287 199-231Zm505-23.67Z"/></svg>