<svg xmlns="http://www.w3.org/2000/svg" height="48" viewBox="0 -960 960 960" width="48"><path d="M124-163.62q0-53.61 27.23-101.54 27.23-47.92 81.23-83.38-51.77-25.92-80.11-75.34Q124-473.29 124-531.23q0-110.64 79.29-187.71Q282.58-796 397.76-796q71.63 0 130.63 32.54t100.69 97.15q17-42.15 53.35-65.19t83.23-23.04q62.34 0 108.34 31.46 46 31.47 46 81.75 0 42.94-28.99 73.1-28.99 30.15-72.01 30.15h-19.54v181.69q0 81.54-57.38 137.15-57.37 55.62-138.77 55.62H124Zm192.28-221.46q55.14 0 95.43-31.54Q452-448.15 452-499.36q0-30.02-16.54-54.79t-44-24.77q-18.42 0-32.63 13.99-14.21 14-14.21 31.47h-58.39q0-41.39 31.53-72.62 31.54-31.23 76.63-31.23 50.44 0 83.22 39.54 32.77 39.54 32.77 94.85 0 30.93-13.92 61.92-13.92 31-38 55.92h77.77q31.12 0 53.48-21.35 22.37-21.35 22.37-53.34v-60.15q0-90.61-62.45-154.15-62.45-63.54-151.77-63.54-89.86 0-152.67 60.28-62.8 60.28-62.8 146.1 0 60.38 38.94 103.27 38.94 42.88 94.95 42.88ZM195.38-222h409.39q56.88 0 96.59-38.75 39.72-38.75 39.72-95.58v-177.29q0-23.45 15.8-43.15 15.81-19.69 41.2-19.69h16.51q17.95 0 32.49-12.93 14.53-12.94 14.53-31.99 0-14.23-9.47-25.5t-23.99-17.66q-17.61-6.38-32.95-9-15.33-2.61-29.66-2.61-39.82 0-67.45 27.28-27.63 27.28-27.63 66.64v142.46q0 56.35-39.55 94.71-39.56 38.37-94.68 38.37H352.69q-54.24 0-96.73 26.92-42.5 26.92-60.58 77.77Zm523-19.85Z"/></svg>