<svg xmlns="http://www.w3.org/2000/svg" height="48" viewBox="0 -960 960 960" width="48"><path d="M144-183.23q0-53.23 28.96-98.08 28.96-44.84 82.96-73.77-52.92-20.53-82.42-68.66Q144-471.87 144-530.46q0-103.07 74.67-174.31Q293.35-776 401.99-776q72.78 0 131.78 34.08 59 34.07 93.38 98.3 12-43.3 47.59-67.88 35.58-24.58 82.46-24.58 55.8 0 99.3 27.43 43.5 27.42 43.5 74.62 0 38.63-26.1 65.75-26.1 27.13-64.9 27.13h-26.08v179.38q0 76.06-53.33 127.3-53.34 51.24-128.97 51.24H144Zm179.59-199.92q56.71 0 97.56-30.58T462-497.44q0-32.33-18.08-60.37-18.07-28.04-49-28.04-19.58 0-35.13 14.99-15.56 14.99-15.56 33.94h-43.77q0-36.77 28.88-64.73 28.88-27.97 69.28-27.97 47.75 0 77.45 38.58 29.7 38.58 29.7 91.19 0 34.01-15.85 64.43-15.84 30.42-43 52.27h88.54q33.23 0 56.46-22.13 23.23-22.12 23.23-55.26v-57.45q0-89.18-62.16-151.71t-151.07-62.53q-88.92 0-151.54 58.93-62.61 58.93-62.61 142.84 0 60.77 39.64 104.04t96.18 43.27ZM195.77-227h406.31q56.71 0 96.89-38.97 40.18-38.98 40.18-95.69v-171.57q0-18.91 13.12-35.3 13.11-16.39 33.88-16.39h18.19q19.74 0 35.81-14.21 16.08-14.2 16.08-35.14 0-15.96-10.63-28-10.62-12.04-26.29-18.81-17.23-6.77-32.57-9-15.33-2.23-29.66-2.23-40.79 0-69.47 27.47-28.69 27.48-28.69 68.38v135.92q0 51.06-36.3 86.11t-87.16 35.05H360.38q-57.71 0-103.08 28.84-45.38 28.85-61.53 83.54Zm513-23.69Z"/></svg>