<svg xmlns="http://www.w3.org/2000/svg" height="20" viewBox="0 -960 960 960" width="20"><path d="M163-211.62q0-51.46 27.19-93.5 27.2-42.03 72.35-69.65-45.69-19-72.62-61.31Q163-478.38 163-530.31q0-98.04 70.5-166.86Q304-766 404.46-766q68.93 0 126.35 33.73 57.42 33.73 87.42 93.04 14.62-28.69 43.35-45.31 28.73-16.61 62.88-16.61 54.23 0 98.38 26.15Q867-648.85 867-600.23q0 37.72-26.33 63.51-26.32 25.8-63.36 25.8h-26.85v135.07q0 68.38-48.61 116.31-48.61 47.92-117.16 47.92H163Zm171-198.23q49.49 0 83.9-34.36 34.41-34.36 34.41-78.14 0-26.73-13.3-40.07-13.29-13.35-32.7-13.35-20.08 0-33.5 12.11-13.43 12.1-13.43 28.74h-51.99q0-38.5 28.67-65.67 28.66-27.18 69.61-27.18 42.56 0 70.6 29.5 28.04 29.5 28.04 76.42 0 32.77-14.5 65.04t-39.35 54.96h83.16q25.38 0 43.15-17.61 17.77-17.62 17.77-41.92v-65.08q0-77.83-54.95-132.68Q484.64-714 405.76-714q-79.84 0-134.8 53.63Q216-606.74 216-530.65q0 50.42 33.93 85.61 33.92 35.19 84.07 35.19ZM228.08-263.62h357.61q46.93 0 80.35-31.34 33.42-31.35 33.42-80.89v-131.61q0-24.77 22.66-39.61 22.65-14.85 50.34-14.85h2.78q15.99 0 27.88-11.16Q815-584.24 815-599.42q0-13.91-8.23-23.94-8.23-10.02-21.54-13.18-15.38-4.38-30.51-8-15.13-3.61-30.26-3.61-32.97 0-55.94 22.68-22.98 22.69-22.98 55.09v109q0 46.32-32.67 80.93-32.67 34.6-80.25 34.6h-168q-44.36 0-82.3 21.66-37.94 21.65-54.24 60.57Zm455.23-13.3Z"/></svg>