<svg xmlns="http://www.w3.org/2000/svg" height="40" viewBox="0 -960 960 960" width="40"><path d="M138.67-177.9q0-55.46 28.1-101.55 28.1-46.09 81.54-74.45-52.67-19.82-81.16-68.39-28.48-48.58-28.48-106.89 0-105.04 76.18-178.59 76.18-73.56 186.45-73.56 73.14 0 132.75 33.7 59.62 33.71 93.21 97.07 12.07-42.67 48.32-66.63 36.24-23.96 83.27-23.96 56.28 0 102.05 28.21 45.77 28.22 45.77 78.07 0 40.67-27.02 68.91-27.01 28.24-68.11 28.24h-23.28v176.98q0 77.46-54.76 130.15-54.76 52.69-132.29 52.69H138.67ZM322.26-386q55.87 0 95.74-30.23t39.87-81.63q0-31.37-16.97-58.13-16.98-26.75-46.36-26.75-19.13 0-33.46 15.19-14.34 15.19-14.34 33.99H295.9q0-39.9 29.93-70.13 29.93-30.23 72.43-30.23 49.14 0 79.97 39.71 30.82 39.72 30.82 94.08 0 33.31-14.9 63.04-14.89 29.73-41.56 51.09h81.13q31.75 0 54.91-21.27 23.17-21.27 23.17-53.01v-58.34q0-88.76-61.22-150.15-61.22-61.38-148.96-61.38-88.95 0-150.36 58.1-61.41 58.1-61.41 142.87 0 58.9 38.82 101.04Q267.5-386 322.26-386Z"/></svg>