<svg xmlns="http://www.w3.org/2000/svg" height="48" viewBox="0 -960 960 960" width="48"><path d="M156-195q0-53 30-96t84-68q-53.62-17.31-83.81-64.66Q156-471.01 156-530q0-98.53 71.9-166.26Q299.81-764 404.52-764 478-764 537-729q59 35 89 99 9-44 44.12-69.5 35.13-25.5 82-25.5Q804-725 846-700q42 25 42 70.36 0 36.04-24.37 61.34Q839.26-543 803-543h-30v178q0 72.78-50.92 121.39Q671.17-195 599-195H156Zm171.98-187q57.65 0 98.83-30Q468-442 468-496.28 468-530 449-560t-52-30q-20.27 0-36.64 15.59Q344-558.83 344-539h-35q0-34 27.29-60t64.87-26q46.13 0 73.99 38Q503-549 503-498q0 35.85-17 65.93Q469-402 440-382h95q34.5 0 58.25-22.58Q617-427.17 617-461v-55.84q0-88.31-61.99-150.23Q493.02-729 404.35-729 316-729 253.5-670.88T191-530q0 61 40.06 104.5 40.05 43.5 96.92 43.5ZM196-230h404.47q56.61 0 97.07-39.11Q738-308.22 738-364.86V-533q0-16.19 11.5-30.59Q761-578 779-578h19.19Q819-578 836-592.97q17-14.97 17-37.03 0-17-11.32-29.5T814-679q-17-7-32.33-9-15.34-2-29.67-2-41.37 0-70.68 27.59Q652-634.83 652-593v132q0 47.89-34.35 80.94Q583.3-347 535-347H365q-59.79 0-106.9 30-47.1 30-62.1 87Zm507-26Z"/></svg>