<svg xmlns="http://www.w3.org/2000/svg" height="48" viewBox="0 -960 960 960" width="48"><path d="M172-211q0-50 31.5-90.25t84-62.75q-53.12-16.31-84.31-61.66Q172-471.01 172-529q0-92.31 68.61-155.91 68.61-63.59 167.89-63.59 71 0 128.5 35.65T624-614q7.5-44.5 41.28-70.25T743.74-710q49.1 0 86.68 22.27Q868-665.45 868-624.53q0 33.11-22.62 55.57T790-546.5h-33V-369q0 66.78-47.27 112.39T595.5-211H172Zm161.25-169.5q59.33 0 100.79-32.45 41.46-32.44 41.46-87.38 0-35.87-20.11-63.77-20.11-27.9-53.25-27.9-22.64 0-40.64 14.23t-18 35.77h-22q0-29.75 25.24-50.88Q371.97-614 404.61-614q41.86 0 67.38 33.6 25.51 33.61 25.51 78.91 0 38.49-18.25 69.42T430-380.5h109.27q34.23 0 57.98-23.25T621-461.41v-55.09q0-86.49-62.76-148.24-62.76-61.76-150.39-61.76-88.85 0-151.35 57.87T194-529.5q0 62.5 40.34 105.75 40.33 43.25 98.91 43.25ZM195.5-233h399.95q57.13 0 98.34-39.43Q735-311.87 735-369.05V-537q0-12.94 10.25-22.22t23.44-9.28h20.5q22.81 0 39.81-16.27 17-16.26 17-40.07 0-18.38-12.61-31.79T804.5-677.5q-16.5-7-31.75-8.75T744.5-688q-41.58 0-71.54 28.25Q643-631.5 643-589.52v128.02q0 43.75-30.49 73.37-30.48 29.63-72.87 29.63H369.52q-60.31 0-109.92 33.75Q210-291 195.5-233Zm502-29Z"/></svg>