<svg xmlns="http://www.w3.org/2000/svg" height="48" viewBox="0 -960 960 960" width="48"><path d="M125-165q0-50 27.5-97.75T231-349q-49.62-29.81-77.81-79.01Q125-477.22 125-532.73 125-643 204.44-719q79.45-76 194.06-76 68 0 124.75 31.25T628-669q20.5-40.5 55.03-62.5t78.71-22q64.73 0 107.74 32.24 43.02 32.24 43.02 80.23 0 42.84-29.37 72.69-29.37 29.84-71.63 29.84H795v182q0 79.53-56.89 135.51Q681.22-165 600.5-165H125Zm191.25-220.5q54.75 0 94.75-34.63 40-34.62 40-84.2 0-30.17-16.31-49.67-16.3-19.5-40.69-19.5-20 0-34.5 11.64Q345-550.21 345-533h-57.5q0-40.5 31.38-69.25T394.36-631q48.14 0 81.14 35.55 33 35.56 33 86.96 0 30.49-13.5 62.42-13.5 31.93-36 60.57h81.98q29.02 0 50.52-21.5 21.5-21.5 21.5-52.45v-61.05q0-89.73-63.01-153.36-63-63.64-151.69-63.64-90.3 0-153.05 59.38Q182.5-618.73 182.5-533q0 60.5 38.52 104 38.53 43.5 95.23 43.5ZM196-222.5h404.44q57.06 0 97.06-38.85t40-95.35v-180.8q0-23.88 16.25-41.19T794.09-596h15.76q18.15 0 31.65-12.95 13.5-12.96 13.5-32.07 0-14.01-9.61-25.52-9.61-11.5-23.39-17.96-17-6-31.75-8.75T762-696q-38.22 0-64.86 27.75t-26.64 65.73v143.02q0 56-38.19 93.75Q594.11-328 541.25-328H351.02q-50.29 0-92.9 29-42.62 29-62.12 76.5Zm522.5-20Z"/></svg>