<svg xmlns="http://www.w3.org/2000/svg" height="48" viewBox="0 -960 960 960" width="48"><path d="M125-165q0-50 27.5-97.75T231-349q-50-29.5-78-79t-28-104.73Q125-643 204.32-719q79.31-76 194.18-76 68 0 124.75 31.25T628-669q20.5-40.5 55.03-62.5t78.71-22q64.73 0 107.74 32.24 43.02 32.24 43.02 80.23 0 43.17-29.5 72.85-29.5 29.68-71.5 29.68H795v182q0 79.53-56.98 135.51Q681.05-165 600.5-165H125Zm191.25-220.5q54.75 0 94.75-34.63 40-34.62 40-84.2 0-30.17-16.31-49.67-16.3-19.5-40.69-19.5-20 0-34.5 11.86Q345-549.79 345-533h-57.5q0-40.5 31.38-69.25T394.36-631q48.14 0 81.14 35.55 33 35.56 33 86.96 0 30.49-13.5 62.42-13.5 31.93-36 60.57h81.98q29.02 0 50.52-21.5 21.5-21.5 21.5-52.45v-61.05q0-89.84-62.77-153.42-62.77-63.58-151.73-63.58-90.5 0-153.25 59.25T182.5-533q0 60.5 38.5 104t95.25 43.5Z"/></svg>