<svg xmlns="http://www.w3.org/2000/svg" height="20" viewBox="0 -960 960 960" width="20"><path d="M134.87-183.87q0-55.63 24.5-102.56 24.5-46.94 68.5-80.18-43.24-24-68.12-67.34-24.88-43.33-24.88-94.53 0-110.23 77.36-187.94t187.03-77.71q68.5 0 127.1 32.12 58.6 32.12 93.6 89.6 20-25.76 50.09-40.14 30.1-14.38 64.78-14.38 63.58 0 112.66 31.79t49.08 86.51q0 44.91-30.7 75.61-30.7 30.69-74.41 30.69h-16.33v132.72q0 77.41-54.32 131.58-54.33 54.16-131.66 54.16H134.87Zm190.79-233.09q46.34 0 78.55-34.3 32.2-34.3 32.2-75.09 0-21.3-9.93-29.38-9.93-8.07-23.18-8.07-17.5 0-28.28 11.23-10.78 11.24-10.78 26.24h-77.98q0-48.04 33.64-81.87 33.64-33.82 82.17-33.82 47.17 0 79.86 32.01 32.7 32.01 32.7 83.68 0 29.79-11.4 61.44t-31.69 55.93h60.31q22.74 0 38.49-15.26 15.75-15.26 15.75-36.54v-67.6q0-78.03-53.93-132.79-53.93-54.76-131.37-54.76-78.56 0-132.63 54.66-54.07 54.66-54.07 132.43 0 46.86 32.14 79.36 32.15 32.5 79.43 32.5ZM235-262.09h355.87q44.6 0 75.82-29.86 31.22-29.86 31.22-77.66v-132.24q0-34.39 27.94-56.04 27.93-21.65 63.89-21.65h-1.2q12.05 0 20.93-8.44 8.88-8.43 8.88-19.59 0-10.75-6.1-18.57t-16.47-9.58q-15.48-4.24-30.71-8.12-15.24-3.88-30.17-3.88-29.91 0-50.75 20.79-20.85 20.8-20.85 50.26v115.91q0 53.91-38.39 93.97-38.39 40.05-94.06 40.05h-173q-38.76 0-71.78 17.04-33.03 17.05-51.07 47.61Zm459.11-4.56Z"/></svg>