<svg xmlns="http://www.w3.org/2000/svg" height="40" viewBox="0 -960 960 960" width="40"><path d="M160-199.23q0-51.13 30.6-93.72 30.6-42.59 80.37-67.61-51.07-19.03-81.02-64.65Q160-470.84 160-527.85q0-97.34 71.43-164.74Q302.86-760 405.95-760q70.82 0 128.6 34.37t90.04 96.07q11.08-42.34 45.04-67.13 33.96-24.8 78.4-24.8 52.43 0 92.2 25.05Q880-671.38 880-627.41q0 35.5-25.09 60.43-25.1 24.93-60.37 24.93h-27.62v175.64q0 70.29-50.03 118.74-50.03 48.44-120.68 48.44H160Zm169.59-184.1q57.24 0 97.6-33.73 40.35-33.73 40.35-86.27 0-33.9-18.31-58.16-18.31-24.25-47.69-24.25-22.31 0-39.05 13.75-16.75 13.76-16.75 34.09H311.9q0-33.89 27.02-57.79 27.03-23.9 63.67-23.9 43.62 0 71.2 33.72 27.59 33.72 27.59 81.41 0 36.08-16.56 67.42-16.56 31.35-45.23 53.71h99.79q32.41 0 55.08-22.44t22.67-54.85v-56.46q0-86.76-61.91-147.92-61.91-61.15-149.75-61.15-88.19 0-149.91 58-61.71 58.01-61.71 140.3 0 60.23 39.21 102.38 39.22 42.14 96.53 42.14ZM198.9-233.08h397.31q56.06 0 96.47-38.57 40.4-38.57 40.4-94.69v-168.79q0-17.45 12.18-29.11t29.48-11.66h19.65q21.15 0 36.46-14.94 15.3-14.94 15.3-36.95 0-16.98-11.35-29.49-11.36-12.52-27.44-19.13-15.74-6.44-30.5-8.83-14.75-2.4-28.83-2.4-40.12 0-68.59 27.78-28.47 27.78-28.47 67.96v131.28q0 46.84-32.77 78.99-32.78 32.14-78.82 32.14H366q-56.71 0-103.75 31.17-47.05 31.17-63.35 85.24Zm502.82-24.66Z"/></svg>