<svg xmlns="http://www.w3.org/2000/svg" height="20" viewBox="0 -960 960 960" width="20"><path d="M133.78-182.78q0-57.72 25-104.86t67.5-79.71q-42.56-23-67.53-68.48-24.97-45.47-24.97-96.75 0-111.35 77.84-186.74 77.84-75.4 187.92-75.4 69.89 0 127.81 31.78 57.91 31.79 91.91 88.42 19-24.44 48.16-38.65 29.17-14.22 64.4-14.22 65.83 0 114.31 32.98 48.48 32.97 48.48 86.49 0 45.72-30.3 76.55-30.29 30.83-73.05 30.83h-15.04v131.19q0 77.71-54.71 132.14-54.7 54.43-132.92 54.43H133.78Zm192.48-235.98q44.89 0 76.83-31.21 31.93-31.22 31.93-71.94 0-19.68-9.74-29.47t-23.57-9.79q-15.76 0-25.7 11.27-9.94 11.28-9.94 25.86h-81.14q0-49.14 34.2-83.98 34.2-34.85 82.89-34.85 48.05 0 81.37 34.43 33.33 34.44 33.33 85.9 0 30.44-11.09 59.71-11.09 29.26-29.89 52.07h52.6q23.64 0 39.39-15.19 15.75-15.18 15.75-34.98v-66.7q0-77.23-52.99-131.31-52.98-54.08-129.48-54.08-76.97 0-130.75 51.4t-53.78 128.65q0 44.71 31.98 79.46 31.99 34.75 77.8 34.75Z"/></svg>