<svg xmlns="http://www.w3.org/2000/svg" height="40" viewBox="0 -960 960 960" width="40"><path d="M144.74-184.36q0-51.12 28.53-96.02t77.99-75.8q-49.27-23.81-77.89-70.83-28.63-47.02-28.63-102.22 0-103.7 75.11-174.87 75.11-71.18 183.57-71.18 68.58 0 125.84 32.59 57.26 32.59 95.92 93.2 15.54-40.38 49.52-63.35 33.98-22.97 77.1-22.97 57.52 0 99.3 28.31 41.78 28.3 41.78 75.08 0 39.57-27.2 66.9-27.21 27.33-66.18 27.33h-20.78v175.23q0 74.75-53.1 126.67-53.09 51.93-128.25 51.93H144.74Zm180.2-202.81q55.07 0 94.41-34.6 39.34-34.61 39.34-84.34 0-30.94-16.6-50.95-16.6-20-41.98-20-21.1 0-36.35 12.53t-15.25 31.25h-47.88q0-37.93 29.48-64.8 29.48-26.87 70.38-26.87 45.43 0 75.76 33.94 30.33 33.94 30.33 82.9 0 33.2-14.86 64.68-14.85 31.49-39.87 56.26h88.08q30.13 0 51.55-21.2 21.42-21.21 21.42-52.06v-57.99q0-86.38-61.58-147.68-61.58-61.3-148.2-61.3-87.91 0-149.2 57.49-61.29 57.48-61.29 140.4 0 58.5 38.2 100.42t94.11 41.92ZM202.87-232.24h394.44q55.12 0 94.32-37.92 39.2-37.91 39.2-92.96v-170.64q0-21.81 14.56-37.06 14.56-15.26 36.53-15.26h16.53q18.96 0 32.76-13.37Q845-612.82 845-632.53q0-14.99-10.17-26.41t-24.37-17.87q-15.9-6.05-30.38-8.58-14.49-2.53-28-2.53-37.93 0-64.61 26.97-26.69 26.98-26.69 65.05v135.43q0 51.32-35.53 86.25-35.54 34.94-85.07 34.94H361.27q-52.34 0-96.38 29.15-44.03 29.16-62.02 77.89Zm504.53-20.62Z"/></svg>