<svg xmlns="http://www.w3.org/2000/svg" height="24" viewBox="0 -960 960 960" width="24"><path d="M148.08-187.69q0-53.35 27.5-98.33T248.31-359q-45.89-22.19-73.06-67.81-27.17-45.61-27.17-98.29 0-104.36 74.76-175.44 74.77-71.07 182.74-71.07 67.42 0 125.13 31.88 57.71 31.88 91.91 86.96 15.61-37.07 49.07-59.09 33.46-22.02 74.08-22.02 55.11 0 98.61 28.09 43.5 28.1 43.5 77.9 0 40.5-28.07 68.48-28.08 27.99-67.77 27.99h-16.66v165.15q0 75-52.89 126.79-52.9 51.79-127.53 51.79H148.08Zm181.16-206.66q52.18 0 89.08-36.25 36.91-36.25 36.91-82.13 0-28.12-14.27-42.67-14.26-14.56-34.91-14.56-21.24 0-35.3 12.32-14.06 12.31-14.06 30.72h-55.96q0-41.06 30.4-70.03t73.73-28.97q44.86 0 75.6 32.21 30.73 32.21 30.73 80.98 0 32.46-13.9 63.83-13.91 31.36-37.45 54.55h79.31q28.35 0 47.87-19.27 19.52-19.26 19.52-47.25v-56.48q0-82.17-58.91-140.24-58.91-58.06-142.23-58.06-84.25 0-142.8 54.84-58.56 54.84-58.56 135.58 0 52.96 36.16 91.92t89.04 38.96ZM217-243.65h377.9q51.18 0 87.85-35.6 36.67-35.6 36.67-87.21v-160.19q0-26.1 15.79-43.42 15.79-17.31 41.9-17.31h14.44q16.99 0 28.68-11.66 11.69-11.66 11.69-28.95 0-13.58-8.98-23.37-8.98-9.79-22.09-15.45-14.08-5.38-27.65-8.25-13.57-2.86-27.51-2.86-34.75 0-58.97 25.04-24.22 25.03-24.22 60.23v131.77q0 51.4-36.14 86.95-36.14 35.54-87.09 35.54H367.56q-48.76 0-90.26 25.81-41.49 25.81-60.3 68.93Zm484.35-14.93Z"/></svg>