<svg xmlns="http://www.w3.org/2000/svg" height="40" viewBox="0 -960 960 960" width="40"><path d="M113.3-153.3q0-54.82 26.42-104.94 26.42-50.11 75.58-87.77-47.98-29.61-74.99-77.77-27.01-48.16-27.01-104.03 0-115.89 82.38-197.47t200.89-81.58q69.03 0 127.8 31.29 58.76 31.29 104.09 92.43 21.34-38.76 57.36-60.05 36.01-21.3 81.04-21.3 68.1 0 114.61 34.48 46.5 34.47 46.5 86.86 0 46.36-32.01 78.77-32.02 32.4-77.62 32.4h-11.48v177.23q0 84.09-59.55 142.77-59.54 58.68-144.14 58.68H113.3Zm200.6-237.5q53.07 0 91.11-34.69t38.04-82.68q0-26.96-13.9-43.54-13.91-16.59-34.64-16.59-18.88 0-31.91 11.89-13.03 11.88-13.03 29.1h-71.69q0-46.82 34.08-79.87 34.08-33.04 82.35-33.04 50.59 0 85.55 37.11 34.96 37.11 34.96 91.8 0 30.14-11.82 61.69-11.81 31.54-33.25 58.82h69.08q27.91 0 48.08-19.78 20.16-19.78 20.16-48.43v-62.02q0-88.77-61.59-151.33-61.58-62.57-148.97-62.57-88.63 0-150.04 60.52-61.4 60.52-61.4 146.6 0 57.35 37.07 97.18 37.06 39.83 91.76 39.83ZM203-225.07h400.72q54.77 0 92.99-37.24 38.22-37.24 38.22-92.44V-531.5q0-30.41 19.53-51.33 19.53-20.92 48.66-20.92h14.6q16.06 0 27.27-11.39 11.21-11.4 11.21-27.95 0-12.47-8.26-22.42-8.27-9.95-20.95-15.05-16.32-5.9-31.23-8.95-14.9-3.05-28.83-3.05-36.89 0-62.41 26.14Q679-640.28 679-604.02v144.93q0 59.26-41.28 99.66-41.27 40.4-98.89 40.4h-188q-48.27 0-88.04 25.45-39.76 25.45-59.79 68.51Zm519.3-13.55Z"/></svg>