<svg xmlns="http://www.w3.org/2000/svg" height="40" viewBox="0 -960 960 960" width="40"><path d="M118.67-158.28q0-56.23 26.05-105.53 26.05-49.29 79.1-83.81-50.74-25.28-77.95-74.66-27.2-49.38-27.2-106.64 0-113.63 80.78-193.02 80.79-79.39 197.87-79.39 71.73 0 131.54 32.1 59.81 32.1 99.93 94.95 17.21-41 54.17-63.23 36.96-22.23 83.59-22.23 62.68 0 111.4 32.19 48.71 32.19 48.71 85.94 0 45.02-30 76.64-30 31.61-75.89 31.61h-15.98v177.49q0 83.14-58.73 140.36-58.74 57.23-142.29 57.23h-485.1Zm197.27-231.05q53.51 0 92.33-31.45 38.83-31.45 38.83-80.41 0-28.43-14.98-50.89-14.99-22.46-40.02-22.46-17.51 0-30.54 14.03-13.02 14.03-13.02 31.56h-67.26q0-45.28 32.97-79.23t80.71-33.95q51.67 0 85.7 40.36t34.03 97.54q0 30.11-12.78 60.41-12.78 30.31-36.12 54.49h68.57q30.18 0 51.69-20.14 21.51-20.13 21.51-50.17v-60.3q0-89.44-61.11-151.62-61.12-62.18-149.11-62.18-88.23 0-149.65 59.63-61.43 59.63-61.43 145.19 0 57.61 37.68 98.6 37.68 40.99 92 40.99ZM202.28-225.87h403.47q55.22 0 93.34-37.5 38.12-37.49 38.12-92.47V-528.9q0-26.89 17.08-49.47 17.09-22.58 46.91-22.58h14.61q16.63 0 29.95-11.71 13.32-11.72 13.32-28.99 0-13.07-8.67-23.16t-21.9-15.73q-17.54-6.38-32.58-9-15.04-2.61-29.42-2.61-38.51 0-64.93 26.03-26.43 26.03-26.43 63.84v142.64q0 58.29-41.39 98.09-41.4 39.81-99.4 39.81H353.67q-52.61 0-92.92 23.83t-58.47 72.04Zm516.08-15.67Z"/></svg>