<svg xmlns="http://www.w3.org/2000/svg" height="48" viewBox="0 -960 960 960" width="48"><path d="M161.15-200.38q0-50 30.58-91.99 30.58-41.98 82.73-68.17-52.31-19.42-82.81-65.66-30.5-46.25-30.5-103.66 0-96.46 71.11-162.91 71.11-66.46 173.93-66.46 70.31 0 127.64 34.63 57.32 34.63 91.09 97.91 10.5-43.58 44.46-68.46 33.95-24.89 78.51-24.89 52.71 0 91.54 24.58 38.84 24.57 38.84 67.12 0 35.36-24.18 59.52-24.17 24.17-59.13 24.17h-29.19v178.53q0 69.73-49.49 117.73-49.49 48.01-119.63 48.01h-435.5Zm168.18-181.27q58.27 0 99.39-32.95 41.13-32.95 41.13-86.66 0-34.55-19.24-60.51-19.23-25.96-50.35-25.96-22.03 0-39.22 13.63-17.19 13.64-17.19 34.18h-30.2q0-32.23 26.66-55.12 26.65-22.88 61.94-22.88 43.3 0 70.55 34.05 27.24 34.05 27.24 80.77 0 36.64-17.16 67.8-17.15 31.16-46.19 53.65h102.97q33.03 0 56.26-22.85 23.23-22.85 23.23-56.46v-56.46q0-87.24-62.81-149.43-62.82-62.19-150.69-62.19-89.19 0-151.75 58.22-62.55 58.22-62.55 140.51 0 62.04 39.92 105.35 39.91 43.31 98.06 43.31ZM195.62-230.58H596.6q57.12 0 98.05-39.3t40.93-96.32v-170.92q0-15.46 11.63-26.59 11.64-11.14 27.34-11.14h19.4q21.74 0 37.93-15.5 16.2-15.5 16.2-38.23 0-17.37-11.92-30.34-11.92-12.97-27.62-20.2-16.62-6.76-31.75-8.75-15.14-1.98-28.25-1.98-40.8 0-70 28.14-29.19 28.13-29.19 69.19v131.48q0 46.58-32.27 78.08t-77.07 31.5H365.25q-58 0-105.99 32.65-47.99 32.66-63.64 88.23Zm506.73-26.92Z"/></svg>