<svg xmlns="http://www.w3.org/2000/svg" height="24" viewBox="0 -960 960 960" width="24"><path d="M140-179.62q0-54.46 27.19-101 27.2-46.53 73.35-75.15-46.69-23-73.62-67.81Q140-468.38 140-522.31q0-107.15 76.5-182.42Q293-780 403.46-780q67.93 0 126.85 32.23 58.92 32.23 93.92 88.54 16.62-37.69 51.35-59.81 34.73-22.11 76.88-22.11 57.23 0 102.38 29.15Q900-682.85 900-631.23q0 41.72-29.54 71.01-29.54 29.3-71.15 29.3h-15.85v167.07q0 77.38-54.46 130.81-54.46 53.42-131.31 53.42H140Zm185.77-214.23q52.72 0 89.63-36.76 36.91-36.77 36.91-83.24 0-28.23-13.89-42.57-13.88-14.35-34.04-14.35-21.15 0-35.07 12.61-13.93 12.6-13.93 31.24h-59.99q0-43.08 31.34-73.46 31.35-30.39 76.19-30.39 46.31 0 77.85 33 31.54 33 31.54 83.92 0 32.47-13.5 64.39t-37.35 55.61h78.16q27.88 0 47.4-19.11 19.52-19.12 19.52-47.42v-58.08q0-83.64-59.45-142.59T403.29-720q-85.37 0-144.33 57.82Q200-604.35 200-522.31q0 54.08 36.16 91.27t89.61 37.19ZM214.08-239.62h383.61q51.93 0 88.85-35.84 36.92-35.85 36.92-88.39v-163.61q0-27.77 17.16-45.61 17.15-17.85 44.84-17.85h15.78q16.99 0 27.88-11.66Q840-614.24 840-631.42q0-13.5-8.73-23.23t-22.04-14.89q-14.38-5.38-28.51-8.5-14.13-3.11-28.26-3.11-35.89 0-60.91 25.03-25.01 25.04-25.01 60.74v135q0 53.32-37.17 89.93-37.17 36.6-89.75 36.6h-175q-49.36 0-90.3 25.16-40.94 25.15-60.24 69.07Zm493.23-13.3Z"/></svg>