<svg xmlns="http://www.w3.org/2000/svg" height="20" viewBox="0 -960 960 960" width="20"><path d="M163-211q0-56 28-98t80-65q-52-12-80-58.5T163-536q0-95.89 70-162.94Q303-766 403-766q76 0 135 35.5T621-629q7-34 38-52.5t71-18.5q51 0 98 24.5t47 73.5q0 37-23.29 62T790-515h-34v142q0 67-49.15 114.5T588-211H163Zm169.24-193q51.76 0 88.26-26.09 36.5-26.1 36.5-73.41 0-30.5-15.91-57.5t-45.16-27Q379-588 366-572.5T353-539h-45q0-37.42 27.32-66.21Q362.65-634 401.75-634q46.25 0 73.75 38.5T503-505q0 34.31-15.5 62.65Q472-414 443-396h81q29.5 0 51.25-19.5T597-461v-65q0-82.19-55.5-138.09Q486-720 404.47-720 322-720 266-667.2q-56 52.81-56 130.86 0 53.34 35.77 92.84t86.47 39.5Z"/></svg>