<svg xmlns="http://www.w3.org/2000/svg" height="20" viewBox="0 -960 960 960" width="20"><path d="M119-168q0-62.5 25-112.25T211.5-363q-43-23-67.75-70T119-533.45q0-117.44 81.32-196.74 81.31-79.31 196.18-79.31 72.5 0 131.5 32t93 89.5q19-24 49.25-38t68.52-14q72.35 0 122.79 36.24Q912-667.52 912-612.7q0 49.2-32.04 82.2-32.03 33-76.96 33h-12V-365q0 82.06-57.75 139.53T592.5-168H119Zm202.48-252.5q44.02 0 75.52-27.95 31.5-27.95 31.5-69.55 0-17.5-8.87-29.25T396.93-559q-13.16 0-21.79 11.71-8.64 11.71-8.64 26.29h-92q0-53.92 36.59-92.46Q347.68-652 398.98-652q51.52 0 87.02 39 35.5 39 35.5 93.5 0 31.31-10 58.4-10 27.1-27.5 48.6h40.43q24.07 0 39.82-14.75T580-460.5v-68q0-78.53-52.77-133.27-52.77-54.73-129.26-54.73-76.97 0-130.97 52.05-54 52.06-54 130.61 0 43.84 31.77 78.59t76.71 34.75Z"/></svg>