<svg xmlns="http://www.w3.org/2000/svg" height="40" viewBox="0 -960 960 960" width="40"><path d="M120-160q0-52.67 26.5-101.67T222-348q-47.74-29.54-74.87-77.01Q120-472.48 120-527.33q0-113.34 80.92-193Q281.84-800 398-800q68 0 126.17 31.17 58.16 31.16 103.5 91.83 21.33-39 56.83-60.33 35.5-21.34 79.17-21.34 65 0 110.66 33Q920-692.67 920-641q0 44.78-31.25 76.22-31.25 31.45-75.75 31.45h-13v176.66q0 82-58.11 139.34Q683.78-160 601.33-160H120Zm196-230q53.33 0 91.67-36.17Q446-462.33 446-510q0-28-14.33-43.67-14.34-15.66-35-15.66-20 0-33.67 11.69-13.67 11.69-13.67 28.97h-66.66q0-44.66 33-76 33-31.33 80-31.33 49 0 83 35t34 88.33q0 29.67-12.34 62.17Q488-418 466-390h74.67q27.66 0 47.83-20 20.17-20 20.17-49.33v-61.34q0-88.25-61.66-150.46-61.66-62.2-149.14-62.2-88.54 0-149.87 60.25-61.33 60.26-61.33 145.75 0 57.66 37.18 97.5Q261.03-390 316-390ZM203-226.67h398.33q55 0 93.5-37.37 38.5-37.38 38.5-92.63v-176.66q0-28.34 18.34-47.5Q770-600 798.33-600h15.57q16.77 0 28.1-11.8 11.33-11.81 11.33-29.2 0-13-8.66-23.33Q836-674.67 823-680q-16-5.67-30.67-8.83-14.66-3.17-28.66-3.17-36.9 0-62.62 26.5t-25.72 62.83v143.34q0 57.66-39.66 96.83-39.67 39.17-95 39.17h-188q-48.52 0-88.76 26.16Q223.67-271 203-226.67Zm516.67-14.66Z"/></svg>