<svg xmlns="http://www.w3.org/2000/svg" height="40" viewBox="0 -960 960 960" width="40"><path d="M94.15-134.15q0-59.26 24.94-112.42 24.94-53.15 76.29-93.46-48.77-29.94-75-80.65-26.23-50.71-26.23-108.55 0-122.7 86.42-209.85 86.42-87.15 211.84-87.15 70.88 0 131.73 31.06 60.85 31.07 106.95 93.4 21.77-38.2 59.64-59.17 37.88-20.97 85.66-20.97 74.48 0 124.73 38.24 50.26 38.24 50.26 94.08 0 51.33-34.25 86.43-34.25 35.1-82.99 35.1h-7.91v178.19q0 90.51-63.96 153.12-63.97 62.6-153.86 62.6H94.15Zm213.39-259.27q51.84 0 89.37-31.16 37.54-31.16 37.54-79 0-23.59-12.83-42.8-12.84-19.2-33.08-19.2-15.88 0-27.04 13.03-11.17 13.04-11.17 29.16h-86.49q0-52.36 36.81-90.97 36.8-38.61 89.74-38.61 56.02 0 93.54 42.88 37.53 42.89 37.53 102.7 0 29.16-10.57 58.91-10.57 29.76-29.82 55.06h52.99q27.39 0 47.86-18.6 20.47-18.61 20.47-46.79v-63.97q0-89.6-60.83-152.83-60.84-63.23-148.84-63.23-88.38 0-149.97 61.01t-61.59 148.6q0 56.71 36.64 96.26 36.65 39.55 89.74 39.55Z"/></svg>