<svg xmlns="http://www.w3.org/2000/svg" height="24" viewBox="0 -960 960 960" width="24"><path d="M172-211q0-52 31.5-93t79.5-61q-51-15-81-59.5T172-526q0-93 68.5-157.5T409-748q71 0 129 35t85 95q8-42 41.5-67.5T742-711q48 0 87 23t39 66q0 33-24 56.5T787-542h-30v172q0 67-48 113t-115 46H172Zm163-173q57 0 97-34t40-86q0-35-18.5-59.5T405-588q-23 0-40 14.5T348-538h-28q0-32 25.5-55t60.5-23q42 0 68 33t26 79q0 38-17.5 69T435-384h104q32 0 55-22.5t23-54.5v-55q0-85-61-144.5T409-720q-88 0-148.5 56.5T200-526q0 59 39 100.5t96 41.5Z"/></svg>