<svg xmlns="http://www.w3.org/2000/svg" height="48" viewBox="0 -960 960 960" width="48"><path d="M100-140q0-58 27-109.75t79-91.8q-50.62-30.26-78.31-82.01Q100-475.32 100-534.73 100-654 184.72-737.5 269.43-821 393.21-821q71.29 0 130.54 31.75Q583-757.5 631-692q20.5-39.5 57.03-61.5t85.74-22q76.7 0 122.71 37.74 46.02 37.74 46.02 88.73 0 48.76-32.29 82.15-32.29 33.38-78.71 33.38H821v184q0 87.61-62.39 148.55Q696.22-140 607.5-140H100Zm208.47-248.5q53.99 0 92.76-29.13Q440-446.75 440-497.33q0-26.17-14.61-49.17t-39.39-23q-16 0-28 12.36-12 12.35-12 29.14h-76.5q0-48.5 35.38-83.75T389.36-647q54.08 0 90.61 43.55 36.53 43.56 36.53 99.96 0 32.49-11.5 60.92t-32 54.07h60.98q30.02 0 51.52-20.64 21.5-20.64 21.5-48.81v-64.07q0-91.21-62.71-156.34-62.72-65.14-150.99-65.14-90.72 0-153.76 60.3Q176.5-622.9 176.5-535q0 59.5 38.02 103 38.03 43.5 93.95 43.5ZM196-216.5h413.44q56.39 0 95.23-38.28 38.83-38.27 38.83-94.92v-180.8q0-31.88 20.75-55.69T812.09-610h12.21q15.7 0 28.7-11.58t13-27.19q0-12.07-7.93-22.17-7.93-10.1-21.07-15.56-18-7-33.75-9.25T774.3-698q-38.51 0-64.16 26.25-25.64 26.25-25.64 64.23v149.02q0 62-44.34 104.25Q595.81-312 534.25-312H344.02q-49.29 0-89.9 26.5-40.62 26.5-58.12 69Zm532.5-16Z"/></svg>