<svg xmlns="http://www.w3.org/2000/svg" height="48" viewBox="0 -960 960 960" width="48"><path d="M124-163.62q0-53.61 27.23-101.54 27.23-47.92 81.23-83.38-52.15-25.61-80.3-75.27Q124-473.46 124-531.23q0-110.09 79.39-187.43Q282.77-796 397.76-796q71.63 0 130.63 32.54t100.69 97.15q17-42.15 53.4-65.19 36.41-23.04 83.3-23.04 62.22 0 108.22 31.46 46 31.47 46 81.69 0 43.52-29.12 73.42-29.11 29.89-71.88 29.89h-19.54v181.69q0 81.62-57.46 137.2-57.46 55.57-138.69 55.57H124Zm191.81-221.46q55.58 0 95.88-31.54Q452-448.15 452-499.36q0-30.02-16.54-54.79t-44-24.77q-18.88 0-32.86 14.17t-13.98 31.29h-58.39q0-41.39 31.5-72.62 31.49-31.23 76.5-31.23 50.6 0 83.38 39.54 32.77 39.54 32.77 94.85 0 30.93-13.92 61.92-13.92 31-38 55.92h77.77q30.51 0 53.18-21.27 22.67-21.27 22.67-53.42v-60.63q0-90.52-62.31-153.87-62.31-63.34-151.54-63.34-90.65 0-153.25 59.96-62.59 59.96-62.59 146.42 0 60.38 38.98 103.27 38.99 42.88 94.44 42.88Z"/></svg>