<svg xmlns="http://www.w3.org/2000/svg" height="24" viewBox="0 -960 960 960" width="24"><path d="M74-114q0-69 23-127t70-95q-45-28-69-78.5T74-523q0-134 92-228.5T390-846q73 0 136.5 30.5T631-728q22-34 61.5-53t88.5-19q81 0 137.5 42.5T975-652q0 58-38 98t-93 40h2v167q0 97-68.5 165T612-114H74Zm231-292q47 0 80.5-29t33.5-73q0-17-8.5-31T389-553q-12 0-20 13t-8 30H247q0-65 42-112t102-47q61 0 102.5 47T535-510q0 29-7.5 55.5T504-406h24q25 0 43-15t18-38v-64q0-87-57.5-147T390-730q-83 0-141.5 60T190-523q0 49 33.5 83t81.5 34Z"/></svg>