<svg xmlns="http://www.w3.org/2000/svg" height="20" viewBox="0 -960 960 960" width="20"><path d="M123.78-172.78q0-59.22 24.5-108.11t68.5-82.46q-43.56-24-68.28-68.48-24.72-44.47-24.72-97.3 0-114.8 80.02-195.44 80.03-80.65 193.24-80.65 70.39 0 129.81 32.28 59.41 32.29 94.41 90.42 20-25.44 50.91-39.65 30.92-14.22 67.87-14.22 68.48 0 119.03 34.24 50.54 34.24 50.54 89.93 0 47.52-32.05 79.85-32.05 32.33-77.3 32.33h-14.04v133.69q0 80.65-56.61 137.11-56.61 56.46-137.52 56.46H123.78Zm198.24-245.48q45.63 0 77.57-31.86 31.93-31.85 31.93-73.29 0-19.68-9.28-29.22t-22.53-9.54q-15.54 0-25.34 11.56-9.8 11.57-9.8 26.57h-86.14q0-51.64 35.44-88.23 35.43-36.6 85.92-36.6 49.78 0 84.1 35.43 34.33 35.44 34.33 89.4 0 30.44-10.59 60.46-10.59 30.01-29.89 53.32h51.17q23.07 0 38.82-14.94 15.75-14.93 15.75-35.23v-68.7q0-78.89-53.72-134.14-53.72-55.25-131.25-55.25-78.47 0-132.75 55.15t-54.28 133.9q0 46.21 31.98 78.71 31.99 32.5 78.56 32.5Z"/></svg>