<svg xmlns="http://www.w3.org/2000/svg" height="40" viewBox="0 -960 960 960" width="40"><path d="M113.3-153.3q0-54.82 26.42-104.94 26.42-50.11 75.58-87.77-48.23-29.41-75.12-77.76-26.88-48.35-26.88-104.04 0-115.89 82.35-197.47t200.99-81.58q68.96 0 127.73 31.29 58.76 31.29 104.09 92.43 21.34-38.76 57.36-60.05 36.01-21.3 81.04-21.3 68.1 0 114.61 34.48 46.5 34.47 46.5 86.86 0 46.58-32.15 78.88-32.15 32.29-77.48 32.29h-11.48v177.23q0 84.07-59.61 142.76-59.6 58.69-144.08 58.69H113.3Zm200.55-237.5q53.01 0 91.11-34.69 38.09-34.69 38.09-82.68 0-26.96-13.9-43.54-13.91-16.59-34.64-16.59-18.88 0-31.91 12.03-13.03 12.03-13.03 28.96h-71.69q0-46.82 34.08-79.87 34.08-33.04 82.35-33.04 50.59 0 85.55 37.11 34.96 37.11 34.96 91.8 0 30.14-11.82 61.69-11.81 31.54-33.25 58.82h69.08q27.91 0 48.08-19.78 20.16-19.78 20.16-48.43v-62.13q0-88.74-61.38-151.26-61.38-62.53-149.05-62.53-88.66 0-150.11 60.43-61.46 60.44-61.46 146.69 0 57.35 37.05 97.18 37.05 39.83 91.73 39.83Z"/></svg>