<svg xmlns="http://www.w3.org/2000/svg" height="24" viewBox="0 -960 960 960" width="24"><path d="M172-211q0-52 31.5-93t79.5-61q-51-15-81-59.5T172-526q0-93 68.5-157.5T409-748q71 0 129 35t85 95q8-42 41.5-67.5T742-711q48 0 87 23t39 66q0 33.27-24 56.64Q820-542 787-542h-30v172q0 66.78-48 112.89T594-211H172Zm163-173q57.08 0 97.04-34Q472-452 472-504q0-35-18.5-59.5T405-588q-23 0-40 14.37-17 14.38-17 35.63h-28q0-32 25.5-55t60.5-23q42 0 68 33t26 79q0 38-17.5 69T435-384h104q32.5 0 55.25-22.5T617-461v-55q0-84.66-60.97-144.33Q495.06-720 408.55-720 321-720 260.5-663.26 200-606.51 200-526q0 59 38.81 100.5Q277.63-384 335-384ZM203-239h391q55 0 95-38t40-93v-163q0-16.19 11-26.59Q751-570 767-570h20.22q21.78 0 37.28-15.11Q840-600.23 840-622.5q0-17.5-11.5-30T800-672q-15-6-29.33-8.5Q756.33-683 742-683q-40.52 0-68.76 27.5Q645-628 645-588v127q0 44.25-31.04 74.62Q582.91-356 539-356H372q-57.91 0-105.96 31Q218-294 203-239Zm492-25Z"/></svg>