<svg xmlns="http://www.w3.org/2000/svg" height="24" viewBox="0 -960 960 960" width="24"><path d="M177-216q0-51.5 31.5-91.25T288-367q-50.5-14.5-80.75-59.5T177-527.95Q177-619 244.57-681q67.56-62 165.93-62 70.5 0 127.75 35T622-614q7-42 40-67.25t75.77-25.25q46.85 0 84.79 22.24 37.94 22.24 37.94 64.06 0 32.7-23 55.2t-55 22.5H752v171q0 65.56-47.1 110.53T592.5-216H177Zm160.24-168.5q56.76 0 96.76-33.61 40-33.61 40-85.39 0-34.5-18.71-59.25T406-587.5q-22.73 0-39.86 14.21Q349-559.08 349-538h-25.5q0-31 25.01-53 25.02-22 58.72-22 41.27 0 66.77 32.5 25.5 32.5 25.5 77 0 38-17.75 68.75T434-384.5h104.93Q571-384.5 594-407t23-54.5v-54q0-83.84-60.77-142.92-60.77-59.08-145.73-59.08-87.5 0-147.75 54.75T202.5-528q0 58.5 39 101t95.74 42.5Z"/></svg>