<svg xmlns="http://www.w3.org/2000/svg" height="40" viewBox="0 -960 960 960" width="40"><path d="M90.67-130.67q0-61 25.66-114.66 25.67-53.67 76-93.7-48.07-29.84-74.87-80.51-26.79-50.67-26.79-110.13 0-124.41 86.63-212.37Q263.94-830 391.63-830q71.37 0 132.87 31.5t107.17 93.83Q653-742 690.68-763.33q37.68-21.34 87.05-21.34 78.94 0 128.1 39.84Q955-705 955-650.44q0 51.31-34.79 87.21-34.8 35.9-82.88 35.9H830V-349q0 91.87-64.78 155.1-64.77 63.23-155.22 63.23H90.67ZM306.87-394q51.95 0 89.04-30T433-503.14Q433-525 420.3-545q-12.71-20-32.63-20-14.7 0-26.02 12.81t-11.32 29.52h-88.66q0-53.66 37.37-93Q336.4-655 390.15-655q56.67 0 94.43 44.33 37.75 44.34 37.75 104 0 30.76-10.5 59.71Q501.33-418 482.67-394h50.66q27.81 0 48.07-18.51 20.27-18.51 20.27-46.16v-63.9q0-90.02-60.99-153.73-61-63.7-148.81-63.7-87.82 0-149.84 61.36Q180-617.27 180-529.67q0 57 36.66 96.34Q253.32-394 306.87-394ZM203.33-220h408.98Q666-220 703-256.9q37-36.89 37-92.1v-176.33q0-38 23.67-64.67 23.66-26.67 55.33-26.67h12.53q12.47 0 23.3-10.44 10.84-10.44 10.84-22.89 0-10.51-6.14-19.09T841-682.67q-17-6-33-9t-30.03-3q-36.86 0-61.58 24.89-24.72 24.9-24.72 60.45V-459q0 64.9-46.6 109.61-46.6 44.72-111.74 44.72h-188q-47.51 0-85.42 23.34Q222-258 203.33-220Zm528-9Z"/></svg>