<svg xmlns="http://www.w3.org/2000/svg" height="48" viewBox="0 -960 960 960" width="48"><path d="M119.02-159.02q0-51.91 27.38-100.62 27.38-48.71 78.62-87.58-49.85-29.91-77.93-79.73-28.07-49.81-28.07-106.25 0-112.43 80.71-190.22 80.7-77.8 197.5-77.8 68.79 0 126.14 31.37 57.35 31.37 105.35 95.35 20.5-40.26 55.51-62.26 35-22 80.38-22 67.6 0 111.33 33.55 43.73 33.56 43.73 82.27 0 44.26-30.06 74.95-30.07 30.69-73.33 30.69h-15.06v182.47q0 81.47-58.21 138.64-58.21 57.17-140.84 57.17H119.02Zm195.37-227.2q54.57 0 94.27-33.31 39.71-33.31 39.71-83.13 0-29.21-15.9-49.55-15.9-20.33-40.38-20.33-19.05 0-32.95 11.81-13.9 11.81-13.9 28.93H283.2q0-42.42 32.33-72.72 32.34-30.31 77.64-30.31 49.56 0 83.4 37.47t33.84 90.07q0 30.96-13.02 62.06-13.02 31.09-35.04 59.01h76.96q29.26 0 50.76-21.29 21.5-21.3 21.5-51.58v-61.77q0-90.08-62.94-154.08-62.94-63.99-151.52-63.99-90.41 0-153.23 59.6-62.81 59.6-62.81 145.85 0 60.26 38.4 103.76 38.41 43.5 94.92 43.5ZM196-221.07h406.59q56.9 0 96.62-38.71 39.72-38.71 39.72-95.24v-180.81q0-25.78 17.33-44.65 17.33-18.87 42.14-18.87h14.91q17.56 0 30.94-12.62 13.38-12.63 13.38-30.9 0-13.55-9.21-24.72-9.21-11.17-22.83-17.39-17.24-6.24-32.23-8.87-14.99-2.63-28.42-2.63-38.29 0-64.69 27.39t-26.4 65.37v144.46q0 57.43-39.67 96.26-39.66 38.83-94.6 38.83H349.34q-50.04 0-92.18 28.4-42.14 28.4-61.16 74.7Zm524.89-19.04Z"/></svg>