<svg xmlns="http://www.w3.org/2000/svg" height="20" viewBox="0 -960 960 960" width="20"><path d="M183-231.23q0-49.92 29.88-88.5 29.89-38.58 76.2-60.81-48.39-14-77.23-56.11Q183-478.77 183-532.62q0-89.19 65.5-151.28Q314-746 407.92-746q70.85 0 127.7 35.46 56.84 35.46 81.84 97.08 9.23-31.39 37.19-50.12 27.97-18.73 63.27-18.73 48.46 0 88.77 22.31Q847-637.69 847-594.46q0 32.23-22.86 54.42-22.87 22.19-54.52 22.19h-35.7v138.16q0 61.92-44.57 105.19-44.57 43.27-106.97 43.27H183Zm156.77-172.46q52.15 0 88.5-32.63 36.35-32.64 36.35-79.87 0-30.96-16.18-50.66-16.18-19.69-41.74-19.69-21.24 0-36.58 13.31-15.35 13.31-15.35 31.38h-32q0-31.57 25.01-54.13 25.02-22.56 59.81-22.56 39.87 0 64.45 29.5 24.58 29.5 24.58 73.35 0 36.23-17 67.92-17 31.69-45.7 52.08h99.31q27.89 0 47.87-19.73 19.98-19.73 19.98-46.35v-63.15q0-78.73-55.93-133.91Q489.23-714 409.39-714q-81.54 0-137.47 52.77Q216-608.47 216-532.96q0 53.5 35.73 91.38 35.73 37.89 88.04 37.89Z"/></svg>