<svg xmlns="http://www.w3.org/2000/svg" height="24" viewBox="0 -960 960 960" width="24"><path d="M88-128q0-63 21-118.5t71-93.5q-46-29-69-78.5T88-522q0-128.43 88.78-219.21Q265.55-832 393-832q70 0 132 29.5T629-716q23-36 61.95-54.5t83.93-18.5Q844-789 902-751.5t58 103.55q0 54.47-35.5 92.71Q889-517 832-517v166q0 93-65.5 158T607-128H88Zm221.48-276Q357-404 391-437q34-33 34-74 0-21-9-32.5T393-555q-14.55 0-23.27 13-8.73 13-8.73 29H256q0-60 39.5-104t98.66-44Q451-661 491-619t40 106q0 25-8 54.5T497-404h34q25.42 0 43.21-15.58Q592-435.17 592-459v-62.52Q592-608 534.5-667 477-726 393-726q-83.58 0-141.29 59Q194-608 194-522q0 49 33.5 83.5t81.98 34.5ZM223-234h387q50 0 83-33.64 33-33.63 33-83.36v-165q0-41 23.5-74t69.5-33h8q11 0 19-7.13 8-7.12 8-17.62 0-8.25-5.32-14.25T835-671q-17-6-31.33-9-14.34-3-28.67-3-33 0-55 22t-22 54v148q0 67.85-48.91 114.42Q600.19-298 531-298H351q-44 0-75.5 14T223-234Zm503 0Z"/></svg>