<svg xmlns="http://www.w3.org/2000/svg" height="20" viewBox="0 -960 960 960" width="20"><path d="M111-160q0-60 21-111t70-88q-45-25-68-72t-23-99q0-119.31 82.78-203.66Q276.55-818 394-818q71 0 131.5 31t97.5 91q21-27 53.95-40t69.93-13Q813-749 870-714.5t57 97.55q0 50.47-32.29 85.21Q862.42-497 810-497h-11v134q0 84-59.65 143.5T594-160H111Zm206.71-260q44.29 0 75.79-30.59 31.5-30.6 31.5-68.91 0-19.5-8.41-30T394.93-560q-13.48 0-21.7 12.5Q365-535 365-521h-97q0-55.42 36.82-96.21Q341.65-658 396.91-658q53.09 0 89.59 38.5T523-521q0 25.31-9 55.15Q505-436 486-412h39q22.92 0 38.96-14.08Q580-440.17 580-460v-69.52q0-80.67-53-135.57Q474-720 395.47-720q-78.05 0-131.76 54.8Q210-610.39 210-530.34q0 45.34 31.27 77.84t76.44 32.5ZM237-258h361q45 0 74.5-29.14Q702-316.27 702-363v-133q0-38 29-68t75-30h-5q10 0 19-6.63 9-6.62 9-15.12 0-8.66-4.82-14.95-4.82-6.3-13.18-7.3-18-5-33.33-8.5Q762.33-650 747-650q-30.08 0-50.04 19.65T677-582v122q0 60.85-44.41 105.42Q588.19-310 524-310H351q-39 0-67.5 10.5T237-258Zm465 0Z"/></svg>