<svg xmlns="http://www.w3.org/2000/svg" height="24" viewBox="0 -960 960 960" width="24"><path d="M100.78-140.78q0-62.22 24.5-115.61t69.5-87.96q-44.56-28-69.28-74.98-24.72-46.97-24.72-101.8 0-123.91 85.9-211 85.89-87.09 209.2-87.09 69.55 0 130.47 30.78 60.91 30.79 100.91 85.92 22-34.44 58.91-54.15 36.92-19.72 81.87-19.72 71.48 0 123.03 37.24 51.54 37.24 51.54 95.93 0 51.52-35.15 87.35-35.14 35.83-85.2 35.83h-3.04v165.69q0 89.7-62.46 151.63-62.46 61.94-151.67 61.94H100.78ZM313.9-402.26q49.01 0 83.32-34.26 34.3-34.26 34.3-78.39 0-21.18-9.87-31.72t-23.87-10.54q-16.61 0-26.91 12.06-10.3 12.07-10.3 29.07h-94.14q0-56.22 38.11-96.03 38.11-39.8 92.5-39.8 53.53 0 91.35 38.93 37.83 38.94 37.83 96.9 0 30.13-9.59 59.8-9.59 29.67-27.89 53.98h46.17q25.57 0 43.07-16.44 17.5-16.43 17.5-40.73v-61.43q0-84.97-58.34-144.31-58.33-59.35-141.1-59.35-84.23 0-142.4 59.35-58.16 59.34-58.16 144.04 0 49.87 34.22 84.37 34.21 34.5 84.2 34.5ZM221-235.48h385.78q49.06 0 83.4-34.17 34.34-34.18 34.34-84.7v-164.56q0-40.66 24.39-68.24 24.39-27.59 61.66-27.59h10.17q11.74 0 19.46-8.16 7.71-8.15 7.71-20.18 0-9.44-6.05-16.31-6.05-6.87-15.56-10.31-15.13-5.56-29.69-8.78-14.57-3.22-28.4-3.22-32.59 0-55.32 22.66-22.72 22.65-22.72 55.08v144.53q0 63.52-45.47 107.69-45.46 44.18-109.79 44.18h-180q-43.43 0-78.8 19.23-35.37 19.24-55.11 52.85Zm501.35-2.61Z"/></svg>