<svg xmlns="http://www.w3.org/2000/svg" height="48" viewBox="0 -960 960 960" width="48"><path d="M99-139q0-57 27-108.5t79-93.05q-49.62-30.76-77.81-81.51Q99-472.82 99-533q0-119.34 84.18-204.17Q267.35-822 392.48-822q70.52 0 131.02 32Q584-758 632-693q21-39 57.9-61.5 36.91-22.5 86.25-22.5 77.85 0 123.35 38.5t45.5 88.83q0 48.22-33.29 81.94Q878.42-534 834-534h-12v184q0 89.2-62.92 150.1Q696.17-139 609-139H99Zm208.71-249Q362-388 401-418.5q39-30.5 39-82.07Q440-525 425.19-548q-14.8-23-38.19-23-16.27 0-29.14 12.71Q345-545.58 345-529h-76q0-48 35.1-83.5t85.38-35.5q54.76 0 90.64 43T516-505q0 31.7-12 61.85Q492-413 472-388h64q29 0 50.5-20.22Q608-428.45 608-458.5v-64.18q0-91.21-62.74-156.76Q482.52-745 392.8-745q-90.22 0-154.01 62.05Q175-620.9 175-533q0 61 38.24 103 38.25 42 94.47 42ZM194-215h416.47q56.36 0 95.45-38.52Q745-292.05 745-350v-182q0-33 21.5-55.5T814-610h15.3q14.7 0 27.2-12.28 12.5-12.29 12.5-26.97 0-12.19-7.14-22.47T840-688q-17-6-33.33-9-16.34-3-30.37-3-39.14 0-65.22 26.59Q685-646.83 685-609v150q0 62.16-43.98 104.58T536-312H344q-49.77 0-90.38 27.5Q213-257 194-215Zm537-15Z"/></svg>