<svg xmlns="http://www.w3.org/2000/svg" height="40" viewBox="0 -960 960 960" width="40"><path d="M126.67-166.67q0-51.5 26.66-99.41Q180-314 228.5-350.67q-47.67-28.66-74.75-77-27.08-48.33-27.08-101.97 0-111.03 79.31-187.28 79.32-76.25 193.85-76.25 67.17 0 124.34 30.84 57.16 30.83 102.16 90.66Q647-710 681.27-731.33q34.27-21.34 76.81-21.34 63.27 0 107.6 32.07Q910-688.52 910-638.25q0 43.84-30.08 74.13-30.08 30.29-72.92 30.29h-13.67v175.16q0 80.04-56.85 136.02-56.85 55.98-137.31 55.98h-472.5ZM318.91-390.5q52.92 0 91.26-35.7 38.33-35.71 38.33-82.86 0-28.11-14.69-43.86T398-568.67q-20.08 0-33.79 11.64-13.71 11.65-13.71 28.36h-63.33q0-42.83 32.17-73.08Q351.52-632 397.32-632q47.85 0 81.18 34.37 33.33 34.37 33.33 85.81 0 29.99-12.83 61.86-12.83 31.86-34.33 59.46h75.79q27.87 0 48.04-20.08 20.17-20.09 20.17-49.22v-60.03q0-87.01-61.11-148.51-61.1-61.49-147.73-61.49-87.83 0-148.83 57.75-61 57.75-61 142.25 0 56.83 37.17 98.08 37.16 41.25 91.74 41.25Z"/></svg>