<svg xmlns="http://www.w3.org/2000/svg" height="40" viewBox="0 -960 960 960" width="40"><path d="M94.15-134.15q0-59.26 24.94-112.42 24.94-53.15 76.29-93.46-48.52-30.14-74.88-80.66-26.35-50.51-26.35-108.54 0-123.2 86.15-210.1 86.15-86.9 212.08-86.9 70.91 0 131.76 31.06 60.85 31.07 106.95 93.4 21.77-38.2 59.47-59.17t85.71-20.97q74.6 0 124.85 38.24 50.26 38.24 50.26 94.11 0 50.6-34.05 86.05-34.05 35.45-83.19 35.45h-7.91v178.19q0 90.62-63.91 153.17-63.9 62.55-153.91 62.55H94.15Zm213.71-259.27q51.77 0 89.18-31.16 37.41-31.16 37.41-79.16 0-23.43-12.83-42.64-12.84-19.2-33.08-19.2-15.43 0-26.82 12.89t-11.39 29.3h-86.49q0-52.36 36.76-90.97 36.75-38.61 90.13-38.61 55.68 0 93.2 42.88 37.53 42.89 37.53 102.7 0 29.08-10.57 58.87-10.57 29.8-29.82 55.1h52.99q27.8 0 48.07-18.69 20.26-18.69 20.26-46.7v-63.4q0-90.09-60.99-153.36-60.99-63.27-148.81-63.27-88.06 0-149.75 61.1-61.68 61.1-61.68 148.51 0 56.71 36.66 96.26 36.66 39.55 90.04 39.55ZM203.77-221.16h406.8q54.13 0 91.2-36.89 37.07-36.9 37.07-91.82v-176.62q0-35.54 22.15-62.06 22.14-26.52 55.4-26.52h12.55q13.32 0 24.37-10.31 11.05-10.32 11.05-23.86 0-10.76-6.65-19.52t-18.74-13.76q-17.29-6-32.85-9-15.57-3-29.73-3-36.88 0-61.74 25.11-24.87 25.11-24.87 60.8V-459q0 64.38-45.83 108.49-45.83 44.1-109.89 44.1h-188q-47.95 0-85.43 22.47-37.47 22.46-56.86 62.78Zm525.82-9.72Z"/></svg>