<svg xmlns="http://www.w3.org/2000/svg" height="20" viewBox="0 -960 960 960" width="20"><path d="M97-146q0-66 23-119.5t69-89.5q-44-24-68-72T97-531q0-124.89 86-212.94Q269-832 391-832q74 0 136 32t98 92q20-25 53.5-38.5T753-760q78 0 133.5 39.5T942-621q0 54-34.79 90.5T822-494h-9v135q0 88-62.65 150.5T599-146H97Zm216.24-276Q357-422 388-448.59q31-26.6 31-67.91 0-15.5-7.91-28.5t-20.16-13q-10.93 0-18.43 12.5T365-518H259q0-60.42 39.32-104.21Q337.65-666 393.75-666 451-666 489-622.5T527-518q0 29.31-8.5 56.15Q510-435 493-414h29q22.5 0 38.75-13.5T577-460v-71q0-81.19-53-137.09Q471-724 392.47-724 315-724 260.5-668.2 206-612.39 206-531.34 206-486 237.27-454t75.97 32Z"/></svg>