<svg xmlns="http://www.w3.org/2000/svg" height="20" viewBox="0 -960 960 960" width="20"><path d="M144.87-193.87q0-54.13 25-99.31 25-45.19 67.5-77.43-42.24-23-67.37-67.34-25.13-44.33-25.13-93.98 0-106.78 75.18-179.24 75.17-72.46 181.71-72.46 68 0 125.1 31.62 57.1 31.62 91.1 87.6 19-24.76 47.34-39.14 28.35-14.38 61.3-14.38 60.94 0 107.95 30.53 47.02 30.53 47.02 83.07 0 43.11-28.95 72.31-28.94 29.19-70.16 29.19h-17.33v130.22q0 74.47-52.42 126.61-52.42 52.13-127.06 52.13H144.87ZM329.9-417.46q45.6 0 77.81-33.66 32.2-33.65 32.2-73.73 0-21.3-10.39-29.63-10.39-8.32-24.22-8.32-17.72 0-28.64 10.95-10.92 10.95-10.92 25.52h-72.98q0-45.54 32.4-77.62 32.41-32.07 79.14-32.07 45.44 0 77.13 31.01 31.7 31.01 31.7 80.18 0 29.79-11.9 60.69t-31.69 54.68h61.73q23.32 0 39.07-15.51t15.75-36.29v-65.6q0-76.37-53.2-129.96t-129.6-53.59q-77.06 0-130.63 50.91-53.57 50.91-53.57 127.18 0 45.36 32.14 80.11 32.15 34.75 78.67 34.75Zm-91.4 150.37h348.8q43.67 0 74.64-29.61t30.97-76.1v-128.05q0-32.39 26.19-53.29 26.18-20.9 60.14-20.9h-2.7q12.05 0 21.93-8.44 9.88-8.43 9.88-19.76 0-10.89-6.35-18.8-6.35-7.92-16.72-10.18-14.98-4.24-29.46-7.87-14.49-3.63-29.42-3.63-28.45 0-48.27 20.79-19.83 20.8-19.83 49.76v111.91q0 51.41-37.07 90.22-37.07 38.8-90.88 38.8H361.37q-37.78 0-71.55 17.79-33.78 17.8-51.32 47.36Zm448.11-6.56Z"/></svg>