<svg xmlns="http://www.w3.org/2000/svg" height="20" viewBox="0 -960 960 960" width="20"><path d="M151-199.23q0-56.92 26.38-101 26.39-44.08 77.7-70.31-50.39-15-77.23-61.61Q151-478.77 151-534.62q0-101.19 73-172.28Q297-778 400.92-778q74.85 0 134.2 34.46 59.34 34.46 86.34 99.08 10.23-32.39 41.69-49.62 31.47-17.23 70.77-17.23 54.46 0 103.77 26.81Q887-657.69 887-605.46q0 40.23-25.36 67.42-25.37 27.19-67.02 27.19h-28.7v140.16q0 70.92-51.57 121.19-51.57 50.27-124.97 50.27H151Zm177.77-208.46q50.15 0 85.5-27.13 35.35-27.14 35.35-72.37 0-27.96-14.18-51.16-14.18-23.19-39.74-23.19-16.24 0-28.08 14.81-11.85 14.81-11.85 31.88h-57q0-41.57 29.51-73.13 29.52-31.56 72.31-31.56 47.87 0 77.45 38.5 29.58 38.5 29.58 92.35 0 32.23-14 60.92-14 28.69-40.7 48.08h71.31q27.89 0 48.37-18.23 20.48-18.23 20.48-42.85v-66.15q0-81.73-54.93-137.41Q483.23-720 402.39-720q-81.54 0-136.97 53.27Q210-613.47 210-534.96q0 51.5 34.73 89.38 34.73 37.89 84.04 37.89Z"/></svg>