<svg xmlns="http://www.w3.org/2000/svg" height="40" viewBox="0 -960 960 960" width="40"><path d="M104.17-144.17q0-57.76 26.31-109.39 26.32-51.64 75.69-89.75-48.31-29.71-75.15-78.8-26.85-49.09-26.85-106.35 0-119.37 84.37-203.56 84.37-84.18 206.09-84.18 70.43 0 130.01 31.45 59.58 31.45 104.91 93.24 21.33-38.43 58.06-59.67 36.72-21.24 83.6-21.24 72.34 0 119.99 36.48 47.64 36.49 47.64 89.85 0 48.52-33.06 82.24-33.07 33.72-80.16 33.72h-9.42v177.99q0 86.94-61.5 147.45-61.5 60.52-149.03 60.52h-501.5Zm206.87-247.71q52.71 0 90.35-32.68 37.64-32.69 37.64-81.11 0-25.55-13.32-43.38-13.32-17.83-34.13-17.83-17.36 0-29.52 12.14-12.16 12.15-12.16 29.28h-78.54q0-49.76 35.55-85.14 35.54-35.39 85.55-35.39 52.75 0 89.02 40 36.27 39.99 36.27 96.53 0 30.79-11.11 61.03-11.1 30.24-31.78 56.55h61.47q28.24 0 48.4-19.49 20.17-19.49 20.17-47.21v-62.94q0-89.48-61.49-152.53-61.5-63.05-148.74-63.05-88.78 0-150.27 60.88-61.5 60.88-61.5 147.76 0 56.91 36.9 96.74 36.9 39.84 91.24 39.84ZM203-222.9h403.99q54.43 0 92.27-37.05Q737.1-297 737.1-352.14V-529q0-33.23 21.16-56.54 21.16-23.32 51.38-23.32h13.28q15.1 0 26.15-10.83 11.05-10.84 11.05-26.26 0-11.75-7.72-21.17-7.72-9.43-19.98-14.2-16.75-6.23-31.98-9.12-15.24-2.88-29.07-2.88-36.87 0-62.12 25.65Q684-642.01 684-605.87v147.1q0 61.44-43.47 103.52-43.48 42.09-104.2 42.09h-188q-47.94 0-87.06 24.47-39.11 24.47-58.27 65.79Zm522.88-12.03Z"/></svg>