<svg xmlns="http://www.w3.org/2000/svg" height="24" viewBox="0 -960 960 960" width="24"><path d="M140-179q0-59 28-105.5t81-70.5q-53-16-81-65t-28-108q0-105.43 75.78-178.71Q291.55-780 402-780q75 0 135.5 34t89.5 97q9-43 45.95-67t84.93-24Q812-740 860-712.5q48 27.5 48 79.55 0 40.74-26.5 69.35Q855-535 812-535h-23v174q0 75.78-55 128.89Q679-179 601-179H140Zm184.48-209q54.6 0 93.56-28.5T457-495q0-32-16.5-60T394-583q-17.55 0-31.27 15.87Q349-551.25 349-531h-53q0-42 30-74t73.16-32Q449-637 480-595t31 98q0 34-14.5 62T454-388h76q32.92 0 55.96-21.08Q609-430.17 609-460v-57.52q0-88.14-59.97-148.31T401.55-726q-87.13 0-147.34 57.24Q194-611.51 194-528q0 57 37.81 98.5 37.82 41.5 92.67 41.5ZM205-233h399q55 0 93-37.14 38-37.13 38-90.86v-164q0-22.19 13.5-43.09Q762-589 789-589h15.22q18.78 0 34.28-12.74t15.5-31.51q0-14.75-9.82-25.25T820-675q-18-7-32.67-9-14.66-2-29.33-2-40.52 0-67.76 26Q663-634 663-595v135q0 53.1-38.95 89.55Q585.1-334 530-334H363q-57.91 0-100.96 23.5Q219-287 205-233Zm501-19Z"/></svg>