<svg xmlns="http://www.w3.org/2000/svg" height="20" viewBox="0 -960 960 960" width="20"><path d="M151-199.23q0-56.92 26.38-101 26.39-44.08 77.7-70.31-50.39-15-77.23-61.61Q151-478.77 151-534.62q0-101.62 72.78-172.5Q296.55-778 400.92-778q74.85 0 134.2 34.46 59.34 34.46 86.34 99.08 10.23-32.39 41.64-49.62 31.41-17.23 70.7-17.23 54.58 0 103.89 26.81T887-605.41q0 39.91-25.36 67.24-25.37 27.32-67.02 27.32h-28.7v140.16q0 70.75-51.57 121.11-51.57 50.35-124.97 50.35H151Zm178.25-208.46q49.74 0 85.05-27.13 35.32-27.14 35.32-72.37 0-27.96-14.18-51.16-14.18-23.19-39.74-23.19-15.78 0-27.86 14.71-12.07 14.71-12.07 31.98h-57q0-41.57 29.51-73.13 29.52-31.56 72.47-31.56 47.71 0 77.29 38.5 29.58 38.5 29.58 92.35 0 32.23-14 60.92-14 28.69-40.7 48.08h71.31q28.69 0 48.77-18.32 20.08-18.31 20.08-42.76v-65.67q0-81.95-54.9-137.76Q483.27-720 402.04-720q-80.77 0-136.41 53.45Q210-613.09 210-534.96q0 51.5 34.58 89.38 34.59 37.89 84.67 37.89Zm-106.1 150.46h370.23q48.85 0 82.2-31.83 33.34-31.83 33.34-81.63v-132.23q0-23.53 21.31-44.23 21.31-20.7 52.69-20.7h.56q15.98 0 30.75-10.94T829-604.6q0-13.65-8.28-23.41t-21.26-13.07q-18.77-5.77-34.36-8.5-15.59-2.73-31.18-2.73-35.86 0-59.85 22.73-23.99 22.73-23.99 56.81v112q0 49.5-36.75 86.29-36.75 36.79-90.1 36.79h-163q-49.7 0-87.08 17.81-37.38 17.8-50 62.65Zm463.47-14.62Z"/></svg>