<svg xmlns="http://www.w3.org/2000/svg" height="20" viewBox="0 -960 960 960" width="20"><path d="M123.78-172.78q0-59.22 24.5-108.11t68.5-82.46q-43.56-24-68.28-68.48-24.72-44.47-24.72-97.3 0-114.8 79.9-195.44 79.89-80.65 193.2-80.65 70.55 0 129.97 32.28 59.41 32.29 94.41 90.42 20-25.44 50.91-39.65 30.92-14.22 67.87-14.22 68.48 0 119.03 34.24 50.54 34.24 50.54 89.93 0 47.52-31.93 79.85-31.94 32.33-77.42 32.33h-14.04v133.69q0 80.7-56.61 137.13-56.61 56.44-137.52 56.44H123.78Zm198.36-245.48q45.77 0 77.58-31.86 31.8-31.85 31.8-73.29 0-19.68-9.28-29.22t-22.53-9.54q-15.54 0-25.34 11.56-9.8 11.57-9.8 26.57h-86.14q0-51.64 35.44-88.23 35.43-36.6 85.92-36.6 49.78 0 84.1 35.43 34.33 35.44 34.33 89.4 0 30.44-10.59 60.46-10.59 30.01-29.89 53.32h51.17q23.07 0 38.82-14.94 15.75-14.93 15.75-35.23v-68.43q0-79.16-53.84-134.41-53.83-55.25-131.13-55.25-78.7 0-132.87 55.15-54.16 55.15-54.16 133.9 0 46.21 31.98 78.71 31.99 32.5 78.68 32.5ZM235-259.48h359.78q44.06 0 74.9-29.67 30.84-29.68 30.84-77.2v-132.56q0-37.66 29.89-62.24 29.89-24.59 67.16-24.59h-2.83q10.74 0 19.46-7.66 8.71-7.65 8.71-17.68 0-9.85-5.55-17.02-5.55-7.16-15.06-8.6-16.13-4.56-31.69-8.28-15.57-3.72-30.4-3.72-29.67 0-50.35 20.31-20.69 20.3-20.69 49.43v118.53q0 56.52-40.97 98.69-40.96 42.18-100.29 42.18h-173q-38.43 0-70.8 15.73-32.37 15.74-49.11 44.35Zm463.35-2.61Z"/></svg>