<svg xmlns="http://www.w3.org/2000/svg" height="48" viewBox="0 -960 960 960" width="48"><path d="M110.87-150.87q0-54.52 27.22-104.53 27.21-50.01 78.78-89.39-50.57-29.75-78.28-80.69-27.72-50.95-27.72-108.38 0-115.36 82.42-195.6 82.43-80.24 202.38-80.24 69.7 0 127.86 31.54Q581.7-746.63 629.7-682q20.5-39.94 56.16-61.94t82.68-22q71.5 0 116.21 35.35 44.71 35.35 44.71 85.04 0 46.52-31.27 78.2-31.26 31.68-75.39 31.68h-13.1v183.13q0 84.05-60.09 142.86-60.08 58.81-145.15 58.81H110.87ZM311.73-387.2q54.18 0 93.62-31.51 39.43-31.52 39.43-81.67 0-27.9-15.35-49.38-15.34-21.48-39.95-21.48-17.74 0-30.83 12.26-13.08 12.26-13.08 28.81h-68.24q0-45.03 33.64-77.45t80.57-32.42q51.49 0 86.49 40.07 34.99 40.08 34.99 94.31 0 31.62-12.37 61.57t-33.74 56.89h70.11q29.59 0 51.09-21.01 21.5-21.02 21.5-50.4v-63.02q0-90.41-62.49-154.83-62.48-64.43-151.45-64.43-90.5 0-153.53 59.77-63.03 59.76-63.03 146.99 0 59.93 38.22 103.43 38.21 43.5 94.4 43.5Z"/></svg>