<svg xmlns="http://www.w3.org/2000/svg" height="20" viewBox="0 -960 960 960" width="20"><path d="M163-211q0-56 28-98t80-65q-52-12-80-58.5T163-536q0-96.31 69.78-163.16Q302.55-766 403-766q76 0 135 35.5T621-629q7-34 37.95-52.5Q689.9-700 729.88-700 781-700 828-675.5q47 24.5 47 73.55 0 36.74-23.29 61.85Q828.42-515 790-515h-34v142q0 66.78-49.15 114.39T588-211H163Zm169.71-193q51.37 0 87.83-26.09Q457-456.19 457-503.5q0-30.5-15.91-57.5t-45.16-27q-16.48 0-29.7 15.37Q353-557.25 353-539h-45q0-37.42 27.32-66.21Q362.65-634 401.91-634q46.09 0 73.59 38.5T503-505q0 34.31-15.5 62.65Q472-414 443-396h81q30.42 0 51.71-19.58Q597-435.17 597-461v-64.52q0-82.33-55.47-138.4Q486.06-720 404.02-720q-81.6 0-137.81 53.05Q210-613.9 210-536.34q0 53.34 35.58 92.84t87.13 39.5ZM219-257h373q50 0 84.5-32.64Q711-322.27 711-373v-132q0-19.19 19-37.09Q749-560 776-560h2.22q17.78 0 34.28-12.24t16.5-29.01q0-15.16-9.32-25.95Q810.36-638 796-642q-19-6-34.67-8.5Q745.67-653 730-653q-37.59 0-62.8 23.65Q642-605.7 642-570v109q0 46.1-34.45 80.55Q573.1-346 523-346H363q-52.91 0-92.96 20Q230-306 219-257Zm463-19Z"/></svg>