<svg xmlns="http://www.w3.org/2000/svg" version="1.1" width="3300" height="2000"><g id="Notes"><style>
    text {
      font-family: monospace;
      text-anchor: middle;
    }
    text.emphasis {
      font-weight:bold;
    }
    text.lanchor {
      text-anchor: start;
    }
  </style><rect height="2200" id="artboard" fill="white" width="3300" x="0" y="0"/><line id="" style="fill:none;stroke:black;stroke-width:0.5;" x1="263" x2="3036" y1="292" y2="292"/><text class="lanchor emphasis" transform="matrix(1 0 0 1 263 322)">Weight/Scale Variations</text><text transform="matrix(1 0 0 1 559.711 322)">Ultralight</text><text transform="matrix(1 0 0 1 856.422 322)">Thin</text><text transform="matrix(1 0 0 1 1153.13 322)">Light</text><text transform="matrix(1 0 0 1 1449.84 322)">Regular</text><text transform="matrix(1 0 0 1 1746.56 322)">Medium</text><text transform="matrix(1 0 0 1 2043.27 322)">Semibold</text><text transform="matrix(1 0 0 1 2339.98 322)">Bold</text><text transform="matrix(1 0 0 1 2636.69 322)">Heavy</text><text transform="matrix(1 0 0 1 2933.4 322)">Black</text><text id="template-version" style="text-anchor: end;" transform="matrix(1 0 0 1 3036 1933)">Template v.1.0</text><text class="lanchor" transform="matrix(1 0 0 1 263 726)">Small</text><text class="lanchor" transform="matrix(1 0 0 1 263 1156)">Medium</text><text class="lanchor" transform="matrix(1 0 0 1 263 1586)">Large</text></g><g id="Guides"><g id="H-reference" style="fill:#27AAE1;stroke:none;" transform="matrix(1 0 0 1 339 696)"><path d="M 54.9316 0 L 57.666 0 L 30.5664 -70.459 L 28.0762 -70.459 L 0.976562 0 L 3.66211 0 L 12.9395 -24.4629 L 45.7031 -24.4629 Z M 29.1992 -67.0898 L 29.4434 -67.0898 L 44.8242 -26.709 L 13.8184 -26.709 Z"/></g><line id="Baseline-S" style="fill:none;stroke:#27AAE1;opacity:1;stroke-width:0.577;" x1="263" x2="3036" y1="696" y2="696"/><line id="Capline-S" style="fill:none;stroke:#27AAE1;opacity:1;stroke-width:0.577;" x1="263" x2="3036" y1="625.541" y2="625.541"/><g id="H-reference" style="fill:#27AAE1;stroke:none;" transform="matrix(1 0 0 1 339 1126)"><path d="M 54.9316 0 L 57.666 0 L 30.5664 -70.459 L 28.0762 -70.459 L 0.976562 0 L 3.66211 0 L 12.9395 -24.4629 L 45.7031 -24.4629 Z M 29.1992 -67.0898 L 29.4434 -67.0898 L 44.8242 -26.709 L 13.8184 -26.709 Z"/></g><line id="Baseline-M" style="fill:none;stroke:#27AAE1;opacity:1;stroke-width:0.577;" x1="263" x2="3036" y1="1126" y2="1126"/><line id="Capline-M" style="fill:none;stroke:#27AAE1;opacity:1;stroke-width:0.577;" x1="263" x2="3036" y1="1055.54" y2="1055.54"/><g id="H-reference" style="fill:#27AAE1;stroke:none;" transform="matrix(1 0 0 1 339 1556)"><path d="M 54.9316 0 L 57.666 0 L 30.5664 -70.459 L 28.0762 -70.459 L 0.976562 0 L 3.66211 0 L 12.9395 -24.4629 L 45.7031 -24.4629 Z M 29.1992 -67.0898 L 29.4434 -67.0898 L 44.8242 -26.709 L 13.8184 -26.709 Z"/></g><line id="Baseline-L" style="fill:none;stroke:#27AAE1;opacity:1;stroke-width:0.577;" x1="263" x2="3036" y1="1556" y2="1556"/><line id="Capline-L" style="fill:none;stroke:#27AAE1;opacity:1;stroke-width:0.577;" x1="263" x2="3036" y1="1485.54" y2="1485.54"/><rect height="119.336" id="left-margin" style="fill:darkred;stroke:none;opacity:0.4;" width="12.4512" x="1394.06" y="1030.79"/><rect height="119.336" id="right-margin" style="fill:darkgreen;stroke:none;opacity:0.4;" width="12.4512" x="1502.5112" y="1030.79"/><rect x="1406.5112" y="1045" width="96" height="96" fill="none" stroke="blue" stroke-dasharray="5"/><rect x="1394.06" y="1030.79" width="120.9024" height="119.336" fill="none" stroke="blue"/></g><g id="Symbols"><g id="Bold-L" transform="matrix(1 0 0 1 2266 1556)"><path d="M15.964 19.756 Q15.964 10.565 20.317 2.261 Q24.671 -6.044 33.056 -12.744 Q25.055 -17.704 20.509 -25.887 Q15.964 -34.072 15.964 -43.776 Q15.964 -63.02 29.538 -76.699 Q43.11 -90.377 63.287 -90.377 Q74.659 -90.377 84.414 -85.217 Q94.17 -80.057 101.91 -69.576 Q105.296 -75.865 111.246 -79.493 Q117.198 -83.121 125.154 -83.121 Q137.708 -83.121 145.044 -76.913 Q152.381 -70.705 152.381 -62.589 Q152.381 -54.814 147.013 -49.376 Q141.645 -43.937 134.483 -43.937 H132.548 V-14.267 Q132.548 0.116 122.402 9.936 Q112.257 19.756 98.201 19.756 H15.964 Z M49.618 -20.395 Q58.373 -20.395 64.661 -25.313 Q70.95 -30.231 70.95 -38.547 Q70.95 -42.486 68.562 -46.195 Q66.175 -49.904 62.404 -49.904 Q59.78 -49.904 57.705 -47.854 Q55.631 -45.805 55.631 -43.131 H43.376 Q43.376 -50.871 49.036 -56.596 Q54.696 -62.32 62.804 -62.32 Q71.634 -62.32 77.419 -55.386 Q83.205 -48.452 83.205 -39.261 Q83.205 -34.15 81.27 -29.288 Q79.335 -24.426 76.11 -20.395 H86.43 Q91.106 -20.395 94.573 -23.655 Q98.04 -26.918 98.04 -31.763 V-42.112 Q98.04 -56.82 87.923 -67.39 Q77.806 -77.961 63.339 -77.961 Q48.791 -77.961 38.505 -67.956 Q28.219 -57.95 28.219 -43.776 Q28.219 -33.94 34.385 -27.167 Q40.553 -20.395 49.618 -20.395 Z M31.283 7.501 H98.438 Q107.526 7.501 113.83 1.29 Q120.131 -4.923 120.131 -14.267 V-43.615 Q120.131 -48.936 123.598 -52.564 Q127.065 -56.192 131.257 -56.192 H133.725 Q136.095 -56.192 138.111 -58.173 Q140.126 -60.154 140.126 -62.522 Q140.126 -64.487 138.975 -66.145 Q137.824 -67.802 135.45 -68.77 Q132.709 -69.737 130.076 -70.221 Q127.441 -70.705 125.178 -70.705 Q118.867 -70.705 114.662 -66.417 Q110.456 -62.131 110.456 -56.031 V-31.844 Q110.456 -21.82 103.364 -14.98 Q96.273 -8.14 86.43 -8.14 H55.47 Q47.445 -8.14 40.896 -3.706 Q34.346 0.729 31.283 7.501 Z"/></g><g id="Semibold-L" transform="matrix(1 0 0 1 1970.27 1556)"><path d="M16.314 19.406 Q16.314 10.425 20.563 2.156 Q24.812 -6.113 33.337 -12.845 Q25.266 -17.844 20.79 -26.024 Q16.314 -34.204 16.314 -43.707 Q16.314 -62.871 29.868 -76.413 Q43.423 -89.957 63.36 -89.957 Q74.728 -89.957 84.379 -84.868 Q94.03 -79.777 101.841 -69.296 Q105.296 -75.725 111.263 -79.283 Q117.229 -82.841 125.012 -82.841 Q136.937 -82.841 144.483 -76.844 Q152.031 -70.845 152.031 -62.517 Q152.031 -54.809 146.762 -49.409 Q141.494 -44.007 134.133 -44.007 H132.127 V-14.337 Q132.127 -0.108 122.087 9.649 Q112.048 19.406 97.992 19.406 H16.314 Z M49.707 -20.326 Q58.41 -20.326 64.75 -25.382 Q71.09 -30.441 71.09 -38.597 Q71.09 -42.767 68.689 -46.371 Q66.288 -49.973 62.473 -49.973 Q59.78 -49.973 57.705 -47.904 Q55.631 -45.834 55.631 -43.201 H43.586 Q43.586 -50.802 49.183 -56.455 Q54.778 -62.11 62.852 -62.11 Q71.568 -62.11 77.352 -55.351 Q83.136 -48.593 83.136 -39.331 Q83.136 -34.49 81.201 -29.528 Q79.266 -24.567 75.97 -20.326 H86.499 Q91.176 -20.326 94.642 -23.612 Q98.109 -26.898 98.109 -31.799 V-42.052 Q98.109 -56.82 87.994 -67.32 Q77.877 -77.821 63.41 -77.821 Q48.82 -77.821 38.59 -67.844 Q28.359 -57.869 28.359 -43.707 Q28.359 -33.94 34.525 -27.132 Q40.693 -20.326 49.707 -20.326 Z M31.352 7.361 H98.227 Q107.363 7.361 113.676 1.15 Q119.991 -5.063 119.991 -14.337 V-43.755 Q119.991 -48.727 123.248 -52.389 Q126.504 -56.052 130.977 -56.052 H133.412 Q135.885 -56.052 137.935 -57.989 Q139.986 -59.927 139.986 -62.468 Q139.986 -64.457 138.752 -66.13 Q137.517 -67.802 135.24 -68.77 Q132.428 -69.737 129.864 -70.221 Q127.3 -70.705 125.017 -70.705 Q118.727 -70.705 114.486 -66.383 Q110.247 -62.06 110.247 -55.962 V-31.844 Q110.247 -21.858 103.237 -15.069 Q96.228 -8.28 86.499 -8.28 H55.539 Q47.445 -8.28 40.966 -4.022 Q34.487 0.239 31.352 7.361 Z"/></g><g id="Medium-L" transform="matrix(1 0 0 1 1674.31 1556)"><path d="M16.576 19.144 Q16.576 10.32 20.746 2.077 Q24.916 -6.166 33.546 -12.921 Q25.424 -17.949 21 -26.127 Q16.576 -34.304 16.576 -43.654 Q16.576 -62.759 30.117 -76.2 Q43.657 -89.641 63.415 -89.641 Q74.781 -89.641 84.353 -84.605 Q93.925 -79.567 101.787 -69.086 Q105.296 -75.62 111.274 -79.125 Q117.251 -82.631 124.906 -82.631 Q136.358 -82.631 144.062 -76.791 Q151.769 -70.95 151.769 -62.464 Q151.769 -54.804 146.573 -49.433 Q141.379 -44.06 133.87 -44.06 H131.811 V-14.39 Q131.811 -0.276 121.85 9.433 Q111.89 19.144 97.834 19.144 H16.576 Z M49.773 -20.272 Q58.439 -20.272 64.818 -25.436 Q71.195 -30.599 71.195 -38.634 Q71.195 -42.976 68.784 -46.501 Q66.372 -50.026 62.526 -50.026 Q59.78 -50.026 57.705 -47.941 Q55.631 -45.856 55.631 -43.254 H43.744 Q43.744 -50.749 49.293 -56.351 Q54.84 -61.952 62.888 -61.952 Q71.518 -61.952 77.3 -55.325 Q83.082 -48.698 83.082 -39.384 Q83.082 -34.745 81.147 -29.709 Q79.212 -24.671 75.865 -20.272 H86.553 Q91.229 -20.272 94.696 -23.578 Q98.163 -26.882 98.163 -31.824 V-42.009 Q98.163 -56.82 88.046 -67.267 Q77.931 -77.716 63.462 -77.716 Q48.843 -77.716 38.653 -67.762 Q28.464 -57.807 28.464 -43.654 Q28.464 -33.94 34.632 -27.106 Q40.798 -20.272 49.773 -20.272 Z M31.405 7.256 H98.069 Q107.241 7.256 113.564 1.043 Q119.886 -5.168 119.886 -14.39 V-43.86 Q119.886 -48.569 122.985 -52.258 Q126.083 -55.947 130.767 -55.947 H133.178 Q135.727 -55.947 137.804 -57.852 Q139.881 -59.756 139.881 -62.43 Q139.881 -64.434 138.585 -66.117 Q137.288 -67.802 135.082 -68.77 Q132.219 -69.737 129.706 -70.221 Q127.196 -70.705 124.896 -70.705 Q118.62 -70.705 114.355 -66.356 Q110.089 -62.007 110.089 -55.909 V-31.844 Q110.089 -21.885 103.14 -15.135 Q96.192 -8.385 86.553 -8.385 H55.593 Q47.445 -8.385 41.019 -4.257 Q34.591 -0.131 31.405 7.256 Z"/></g><g id="Regular-L" transform="matrix(1 0 0 1 1378.56 1556)"><path d="M16.77 18.95 Q16.77 10.243 20.882 2.019 Q24.994 -6.205 33.701 -12.977 Q25.539 -18.026 21.154 -26.202 Q16.77 -34.379 16.77 -43.615 Q16.77 -62.676 30.299 -76.044 Q43.829 -89.41 63.455 -89.41 Q74.82 -89.41 84.334 -84.411 Q93.847 -79.412 101.749 -68.931 Q105.296 -75.542 111.282 -79.009 Q117.269 -82.476 124.827 -82.476 Q135.934 -82.476 143.754 -76.752 Q151.575 -71.027 151.575 -62.423 Q151.575 -54.801 146.436 -49.451 Q141.297 -44.099 133.676 -44.099 H131.58 V-14.429 Q131.58 -0.4 121.676 9.275 Q111.774 18.95 97.718 18.95 H16.77 Z M49.823 -20.234 Q58.46 -20.234 64.866 -25.474 Q71.273 -30.715 71.273 -38.661 Q71.273 -43.131 68.854 -46.598 Q66.435 -50.065 62.565 -50.065 Q59.78 -50.065 57.705 -47.969 Q55.631 -45.872 55.631 -43.292 H43.86 Q43.86 -50.71 49.373 -56.273 Q54.885 -61.836 62.913 -61.836 Q71.481 -61.836 77.263 -55.306 Q83.044 -48.775 83.044 -39.422 Q83.044 -34.932 81.109 -29.839 Q79.174 -24.749 75.788 -20.234 H86.591 Q91.267 -20.234 94.734 -23.552 Q98.201 -26.872 98.201 -31.844 V-41.977 Q98.201 -56.82 88.084 -67.228 Q77.968 -77.639 63.5 -77.639 Q48.859 -77.639 38.7 -67.701 Q28.541 -57.761 28.541 -43.615 Q28.541 -33.94 34.707 -27.087 Q40.875 -20.234 49.823 -20.234 Z M31.444 7.179 H97.955 Q107.151 7.179 113.48 0.967 Q119.809 -5.246 119.809 -14.429 V-43.937 Q119.809 -48.452 122.792 -52.161 Q125.775 -55.87 130.613 -55.87 H133.007 Q135.611 -55.87 137.708 -57.75 Q139.804 -59.63 139.804 -62.401 Q139.804 -64.416 138.462 -66.109 Q137.121 -67.802 134.966 -68.77 Q132.064 -69.737 129.592 -70.221 Q127.118 -70.705 124.808 -70.705 Q118.543 -70.705 114.259 -66.337 Q109.972 -61.97 109.972 -55.87 V-31.844 Q109.972 -21.904 103.069 -15.183 Q96.168 -8.462 86.591 -8.462 H55.631 Q47.445 -8.462 41.057 -4.431 Q34.669 -0.4 31.444 7.179 Z"/></g><g id="Light-L" transform="matrix(1 0 0 1 1082.77 1556)"><path d="M19.995 15.786 Q19.995 7.142 24.386 -0.587 Q28.777 -8.314 37.484 -14.032 Q29.136 -18.212 24.566 -26.181 Q19.995 -34.148 19.995 -43.491 Q19.995 -61.332 32.781 -73.759 Q45.566 -86.185 64.139 -86.185 Q75.689 -86.185 85.203 -80.938 Q94.717 -75.691 101.439 -65.272 Q104.18 -72.069 110.042 -75.784 Q115.903 -79.5 123.463 -79.5 Q133.515 -79.5 140.933 -74.427 Q148.35 -69.352 148.35 -61.244 Q148.35 -54.32 143.675 -49.457 Q139.001 -44.595 132.064 -44.595 H128.913 V-15.298 Q128.913 -2.15 119.66 6.818 Q110.409 15.786 97.284 15.786 H19.995 Z M51 -19.924 Q59.891 -19.924 66.388 -25.01 Q72.885 -30.094 72.885 -38.352 Q72.885 -43.193 70.218 -47.187 Q67.551 -51.181 63.123 -51.181 Q60.153 -51.181 57.861 -48.925 Q55.57 -46.667 55.57 -43.85 H46.155 Q46.155 -50.525 51.239 -55.56 Q56.325 -60.596 63.595 -60.596 Q71.729 -60.596 77.015 -54.22 Q82.299 -47.845 82.299 -38.926 Q82.299 -33.938 80.054 -28.941 Q77.81 -23.942 73.927 -19.924 H86.467 Q91.485 -19.924 95.091 -23.367 Q98.698 -26.81 98.698 -31.968 V-41.667 Q98.698 -56.278 88.628 -66.524 Q78.558 -76.77 64.155 -76.77 Q49.665 -76.77 39.537 -67.049 Q29.41 -57.329 29.41 -43.491 Q29.41 -33.755 35.689 -26.839 Q41.969 -19.924 51 -19.924 Z M31.505 6.373 H97.519 Q106.691 6.373 113.094 0.124 Q119.499 -6.124 119.499 -15.288 V-43.876 Q119.499 -47.658 122.047 -50.834 Q124.596 -54.009 128.69 -54.009 H131.353 Q134.247 -54.009 136.592 -56.094 Q138.935 -58.181 138.935 -61.253 Q138.935 -63.547 137.408 -65.364 Q135.881 -67.182 133.539 -68.212 Q130.7 -69.241 128.226 -69.663 Q125.754 -70.084 123.443 -70.084 Q117.022 -70.084 112.567 -65.685 Q108.112 -61.286 108.112 -54.94 V-31.968 Q108.112 -22.881 101.734 -16.696 Q95.355 -10.509 86.467 -10.509 H56.871 Q48.125 -10.509 41.274 -6.168 Q34.42 -1.827 31.505 6.373 Z"/></g><g id="Thin-L" transform="matrix(1 0 0 1 787.282 1556)"><path d="M23.22 12.624 Q23.22 4.041 27.89 -3.191 Q32.56 -10.422 41.267 -15.087 Q32.734 -18.397 27.977 -26.158 Q23.22 -33.919 23.22 -43.367 Q23.22 -59.987 35.261 -71.474 Q47.303 -82.96 64.821 -82.96 Q76.557 -82.96 86.07 -77.465 Q95.584 -71.971 101.128 -61.614 Q103.063 -68.596 108.802 -72.559 Q114.539 -76.523 122.099 -76.523 Q131.096 -76.523 138.111 -72.1 Q145.125 -67.678 145.125 -60.067 Q145.125 -53.838 140.916 -49.465 Q136.708 -45.09 130.451 -45.09 H126.246 V-16.165 Q126.246 -3.901 117.646 4.362 Q109.045 12.624 96.85 12.624 H23.22 Z M52.179 -19.613 Q61.323 -19.613 67.91 -24.544 Q74.498 -29.475 74.498 -38.042 Q74.498 -43.255 71.582 -47.777 Q68.668 -52.298 63.681 -52.298 Q60.524 -52.298 58.016 -49.881 Q55.507 -47.464 55.507 -44.408 H48.449 Q48.449 -50.338 53.106 -54.846 Q57.763 -59.356 64.277 -59.356 Q71.977 -59.356 76.766 -53.135 Q81.555 -46.914 81.555 -38.431 Q81.555 -32.947 79 -28.041 Q76.445 -23.136 72.066 -19.613 H86.343 Q91.701 -19.613 95.447 -23.181 Q99.193 -26.748 99.193 -32.092 V-41.356 Q99.193 -55.736 89.17 -65.819 Q79.146 -75.902 64.81 -75.902 Q50.471 -75.902 40.374 -66.4 Q30.278 -56.897 30.278 -43.367 Q30.278 -33.568 36.67 -26.59 Q43.062 -19.613 52.179 -19.613 Z M31.568 5.566 H97.085 Q106.23 5.566 112.709 -0.718 Q119.188 -7.003 119.188 -16.148 V-43.813 Q119.188 -46.863 121.304 -49.505 Q123.418 -52.148 126.767 -52.148 H129.7 Q132.883 -52.148 135.474 -54.44 Q138.067 -56.729 138.067 -60.106 Q138.067 -62.68 136.353 -64.621 Q134.641 -66.562 132.114 -67.654 Q129.335 -68.746 126.862 -69.105 Q124.39 -69.465 122.079 -69.465 Q115.502 -69.465 110.877 -65.035 Q106.251 -60.604 106.251 -54.009 V-32.092 Q106.251 -23.859 100.397 -18.207 Q94.544 -12.555 86.343 -12.555 H58.111 Q48.806 -12.555 41.49 -7.905 Q34.172 -3.253 31.568 5.566 Z"/></g><g id="Ultralight-L" transform="matrix(1 0 0 1 491.205 1556)"><path d="M25.155 10.726 Q25.155 2.18 29.992 -4.754 Q34.83 -11.687 43.538 -15.719 Q34.891 -18.51 30.023 -26.145 Q25.155 -33.78 25.155 -43.292 Q25.155 -59.18 36.749 -70.102 Q48.344 -81.025 65.229 -81.025 Q77.078 -81.025 86.591 -75.381 Q96.105 -69.737 100.943 -59.417 Q102.394 -66.512 108.057 -70.624 Q113.722 -74.736 121.279 -74.736 Q129.645 -74.736 136.417 -70.705 Q143.19 -66.674 143.19 -59.359 Q143.19 -53.548 139.26 -49.468 Q135.331 -45.389 129.484 -45.389 H124.646 V-16.686 Q124.646 -4.95 116.435 2.888 Q108.226 10.726 96.589 10.726 H25.155 Z M52.887 -19.427 Q62.183 -19.427 68.823 -24.265 Q75.465 -29.102 75.465 -37.855 Q75.465 -43.292 72.401 -48.13 Q69.338 -52.967 64.016 -52.967 Q60.748 -52.967 58.108 -50.454 Q55.47 -47.941 55.47 -44.744 H49.826 Q49.826 -50.226 54.227 -54.419 Q58.627 -58.611 64.687 -58.611 Q72.126 -58.611 76.618 -52.484 Q81.109 -46.356 81.109 -38.132 Q81.109 -32.352 78.368 -27.501 Q75.626 -22.652 70.95 -19.427 H86.269 Q91.832 -19.427 95.662 -23.069 Q99.491 -26.711 99.491 -32.166 V-41.17 Q99.491 -55.41 89.495 -65.395 Q79.499 -75.381 65.201 -75.381 Q50.955 -75.381 40.877 -66.009 Q30.799 -56.638 30.799 -43.292 Q30.799 -33.456 37.258 -26.442 Q43.716 -19.427 52.887 -19.427 Z M31.605 5.083 H96.826 Q105.954 5.083 112.478 -1.224 Q119.002 -7.53 119.002 -16.664 V-43.776 Q119.002 -46.387 120.857 -48.709 Q122.711 -51.032 125.614 -51.032 H128.708 Q132.064 -51.032 134.805 -53.446 Q137.546 -55.86 137.546 -59.417 Q137.546 -62.159 135.721 -64.174 Q133.896 -66.19 131.257 -67.319 Q128.516 -68.447 126.044 -68.77 Q123.571 -69.092 121.26 -69.092 Q114.589 -69.092 109.863 -64.644 Q105.135 -60.196 105.135 -53.451 V-32.166 Q105.135 -24.444 99.596 -19.115 Q94.057 -13.784 86.269 -13.784 H58.856 Q49.215 -13.784 41.619 -8.946 Q34.024 -4.109 31.605 5.083 Z"/></g><g id="Bold-M" transform="matrix(1 0 0 1 2281.8 1126)"><path d="M9.25 10.52 Q9.25 1.895 12.125 -5.355 Q15 -12.605 20.875 -17.23 Q15.25 -20.73 12.25 -27.042 Q9.25 -33.355 9.25 -40.605 Q9.25 -57.425 20.694 -69.202 Q32.138 -80.98 48.744 -80.98 Q57.875 -80.98 65.812 -77.167 Q73.75 -73.355 78.875 -66.23 Q81.625 -70.48 86.529 -72.855 Q91.433 -75.23 97.61 -75.23 Q107.75 -75.23 114.812 -69.917 Q121.875 -64.605 121.875 -56.727 Q121.875 -49.54 117.15 -44.51 Q112.426 -39.48 105.5 -39.48 H105.75 V-18.605 Q105.75 -6.455 97.188 2.033 Q88.625 10.52 76.5 10.52 H9.25 Z M38.15 -25.98 Q44.057 -25.98 48.216 -29.605 Q52.375 -33.23 52.375 -38.765 Q52.375 -40.855 51.312 -42.605 Q50.25 -44.355 48.625 -44.355 Q47.181 -44.355 46.154 -42.73 Q45.125 -41.105 45.125 -38.98 H30.875 Q30.875 -47.105 36.114 -52.98 Q41.352 -58.855 48.935 -58.855 Q56.5 -58.855 61.688 -52.98 Q66.875 -47.105 66.875 -38.98 Q66.875 -35.374 65.938 -32.051 Q65 -28.73 63 -25.98 H66 Q69.177 -25.98 71.401 -27.865 Q73.625 -29.751 73.625 -32.605 V-40.525 Q73.625 -51.48 66.438 -58.98 Q59.25 -66.48 48.75 -66.48 Q38.375 -66.48 31.062 -58.98 Q23.75 -51.48 23.75 -40.605 Q23.75 -34.48 27.938 -30.23 Q32.125 -25.98 38.15 -25.98 Z M27.75 -3.98 H77 Q83.041 -3.98 87.146 -8.185 Q91.25 -12.389 91.25 -18.605 V-39.23 Q91.25 -45.23 94.75 -49.605 Q98.25 -53.98 103.625 -53.98 H104.5 Q105.5 -53.98 106.438 -54.824 Q107.375 -55.667 107.375 -56.667 Q107.375 -57.559 106.858 -58.206 Q106.34 -58.855 105.375 -59.23 Q103.25 -59.98 101.334 -60.355 Q99.416 -60.73 97.662 -60.73 Q93.626 -60.73 90.876 -58.042 Q88.125 -55.355 88.125 -51.48 V-32.605 Q88.125 -23.809 81.645 -17.644 Q75.166 -11.48 66 -11.48 H43.5 Q38.125 -11.48 34.062 -9.605 Q30 -7.73 27.75 -3.98 Z"/></g><g id="Semibold-M" transform="matrix(1 0 0 1 1985.97 1126)"><path d="M10.011 9.759 Q10.011 1.46 12.777 -5.654 Q15.544 -12.767 21.581 -17.447 Q15.902 -21.001 12.956 -27.26 Q10.011 -33.517 10.011 -40.551 Q10.011 -57.037 21.304 -68.629 Q32.597 -80.219 48.91 -80.219 Q57.875 -80.219 65.731 -76.461 Q73.588 -72.702 78.766 -65.577 Q81.571 -69.936 86.459 -72.285 Q91.347 -74.632 97.284 -74.632 Q106.771 -74.632 113.916 -69.591 Q121.06 -64.551 121.06 -56.507 Q121.06 -49.486 116.46 -44.565 Q111.86 -39.642 104.847 -39.642 H104.989 V-18.822 Q104.989 -6.9 96.59 1.429 Q88.19 9.759 76.229 9.759 H10.011 Z M38.383 -25.871 Q44.304 -25.871 48.502 -29.714 Q52.701 -33.556 52.701 -38.912 Q52.701 -41.235 51.611 -42.85 Q50.521 -44.464 48.843 -44.464 Q47.236 -44.464 46.18 -42.839 Q45.125 -41.214 45.125 -39.142 H31.364 Q31.364 -46.996 36.472 -52.709 Q41.58 -58.42 49.081 -58.42 Q56.446 -58.42 61.551 -52.817 Q66.657 -47.214 66.657 -39.142 Q66.657 -35.746 65.692 -32.265 Q64.729 -28.784 62.62 -25.871 H66.162 Q69.34 -25.871 71.564 -27.784 Q73.787 -29.696 73.787 -32.605 V-40.479 Q73.787 -51.371 66.6 -58.817 Q59.413 -66.262 48.913 -66.262 Q38.506 -66.262 31.238 -58.817 Q23.968 -51.371 23.968 -40.551 Q23.968 -34.426 28.155 -30.149 Q32.343 -25.871 38.383 -25.871 Z M27.804 -4.197 H76.674 Q82.806 -4.197 86.92 -8.402 Q91.032 -12.606 91.032 -18.822 V-39.447 Q91.032 -45.067 94.287 -49.334 Q97.544 -53.6 103.081 -53.6 H104.011 Q105.174 -53.6 106.139 -54.464 Q107.104 -55.327 107.104 -56.464 Q107.104 -57.416 106.521 -58.109 Q105.94 -58.801 104.94 -59.176 Q102.815 -59.926 100.953 -60.301 Q99.09 -60.676 97.32 -60.676 Q93.245 -60.676 90.495 -57.961 Q87.745 -55.246 87.745 -51.317 V-32.605 Q87.745 -23.945 81.424 -17.93 Q75.104 -11.915 66.162 -11.915 H43.663 Q38.234 -11.915 34.225 -10.094 Q30.218 -8.274 27.804 -4.197 Z"/></g><g id="Medium-M" transform="matrix(1 0 0 1 1689.91 1126)"><path d="M10.581 9.189 Q10.581 1.134 13.266 -5.877 Q15.951 -12.89 22.111 -17.61 Q16.391 -21.205 13.486 -27.422 Q10.581 -33.64 10.581 -40.51 Q10.581 -56.746 21.761 -68.197 Q32.941 -79.649 49.034 -79.649 Q57.875 -79.649 65.67 -75.931 Q73.465 -72.214 78.685 -65.089 Q81.53 -69.529 86.407 -71.856 Q91.284 -74.184 97.039 -74.184 Q106.037 -74.184 113.244 -69.346 Q120.449 -64.51 120.449 -56.344 Q120.449 -49.445 115.942 -44.605 Q111.436 -39.765 104.359 -39.765 H104.419 V-18.985 Q104.419 -7.235 96.141 0.976 Q87.864 9.189 76.025 9.189 H10.581 Z M38.556 -25.79 Q44.489 -25.79 48.718 -29.795 Q52.946 -33.801 52.946 -39.024 Q52.946 -41.521 51.835 -43.032 Q50.725 -44.545 49.005 -44.545 Q47.278 -44.545 46.201 -42.92 Q45.125 -41.295 45.125 -39.265 H31.731 Q31.731 -46.915 36.74 -52.505 Q41.75 -58.094 49.19 -58.094 Q56.405 -58.094 61.45 -52.695 Q66.495 -47.295 66.495 -39.265 Q66.495 -36.025 65.51 -32.425 Q64.525 -28.825 62.334 -25.79 H66.285 Q69.463 -25.79 71.686 -27.722 Q73.91 -29.656 73.91 -32.605 V-40.445 Q73.91 -51.29 66.722 -58.695 Q59.535 -66.1 49.035 -66.1 Q38.605 -66.1 31.367 -58.695 Q24.13 -51.29 24.13 -40.51 Q24.13 -34.385 28.317 -30.087 Q32.505 -25.79 38.556 -25.79 Z M27.845 -4.36 H76.429 Q82.63 -4.36 86.75 -8.565 Q90.87 -12.77 90.87 -18.985 V-39.61 Q90.87 -44.945 93.941 -49.13 Q97.014 -53.314 102.674 -53.314 H103.644 Q104.929 -53.314 105.915 -54.194 Q106.9 -55.072 106.9 -56.311 Q106.9 -57.309 106.27 -58.034 Q105.64 -58.76 104.614 -59.135 Q102.489 -59.885 100.668 -60.26 Q98.846 -60.635 97.064 -60.635 Q92.96 -60.635 90.21 -57.9 Q87.459 -55.165 87.459 -51.195 V-32.605 Q87.459 -24.049 81.259 -18.145 Q75.058 -12.241 66.285 -12.241 H43.785 Q38.315 -12.241 34.347 -10.461 Q30.38 -8.681 27.845 -4.36 Z"/></g><g id="Regular-M" transform="matrix(1 0 0 1 1394.06 1126)"><path d="M11 8.77 Q11 0.895 13.625 -6.042 Q16.25 -12.98 22.5 -17.73 Q16.75 -21.355 13.875 -27.542 Q11 -33.73 11 -40.48 Q11 -56.534 22.098 -67.881 Q33.194 -79.23 49.125 -79.23 Q57.875 -79.23 65.625 -75.542 Q73.375 -71.855 78.625 -64.73 Q81.5 -69.23 86.369 -71.542 Q91.237 -73.855 96.86 -73.855 Q105.5 -73.855 112.75 -69.167 Q120 -64.48 120 -56.224 Q120 -49.415 115.562 -44.635 Q111.125 -39.855 104 -39.855 V-19.105 Q104 -7.48 95.812 0.645 Q87.625 8.77 75.875 8.77 H11 Z M38.685 -25.73 Q44.625 -25.73 48.875 -29.855 Q53.125 -33.98 53.125 -39.105 Q53.125 -41.73 52 -43.167 Q50.875 -44.605 49.125 -44.605 Q47.306 -44.605 46.216 -42.98 Q45.125 -41.355 45.125 -39.355 H32 Q32 -46.855 36.938 -52.355 Q41.875 -57.855 49.27 -57.855 Q56.375 -57.855 61.375 -52.605 Q66.375 -47.355 66.375 -39.355 Q66.375 -36.23 65.375 -32.542 Q64.375 -28.855 62.125 -25.73 H66.375 Q69.552 -25.73 71.776 -27.677 Q74 -29.626 74 -32.605 V-40.42 Q74 -51.23 66.812 -58.605 Q59.625 -65.98 49.125 -65.98 Q38.678 -65.98 31.464 -58.605 Q24.25 -51.23 24.25 -40.48 Q24.25 -34.355 28.438 -30.042 Q32.625 -25.73 38.685 -25.73 Z M27.875 -4.48 H76.25 Q82.5 -4.48 86.625 -8.685 Q90.75 -12.889 90.75 -19.105 V-39.73 Q90.75 -44.855 93.688 -48.98 Q96.625 -53.105 102.375 -53.105 H103.375 Q104.75 -53.105 105.75 -53.996 Q106.75 -54.886 106.75 -56.199 Q106.75 -57.23 106.085 -57.98 Q105.42 -58.73 104.375 -59.105 Q102.25 -59.855 100.459 -60.23 Q98.666 -60.605 96.875 -60.605 Q92.75 -60.605 90 -57.855 Q87.25 -55.105 87.25 -51.105 V-32.605 Q87.25 -24.124 81.136 -18.302 Q75.024 -12.48 66.375 -12.48 H43.875 Q38.375 -12.48 34.438 -10.73 Q30.5 -8.98 27.875 -4.48 Z"/></g><g id="Light-M" transform="matrix(1 0 0 1 1098.18 1126)"><path d="M13.5 6.318 Q13.5 -1.365 16.461 -7.87 Q19.424 -14.374 25.817 -18.451 Q19.731 -21.451 16.615 -27.615 Q13.5 -33.777 13.5 -40.769 Q13.5 -55.716 23.973 -66.222 Q34.444 -76.73 49.557 -76.73 Q58.549 -76.73 66.226 -72.826 Q73.904 -68.922 78.529 -61.509 Q80.731 -66.345 85.504 -68.922 Q90.275 -71.499 96.043 -71.499 Q103.961 -71.499 110.73 -67.292 Q117.5 -63.086 117.5 -55.502 Q117.5 -49.354 113.495 -45.037 Q109.49 -40.72 103.039 -40.72 H101.933 V-19.586 Q101.933 -8.789 94.25 -1.235 Q86.567 6.318 75.586 6.318 H13.5 Z M39.405 -24.961 Q45.686 -24.961 50.175 -28.869 Q54.664 -32.777 54.664 -38.336 Q54.664 -41.49 53.178 -43.72 Q51.693 -45.951 49.172 -45.951 Q47.211 -45.951 45.879 -44.187 Q44.547 -42.425 44.547 -40.22 H33.924 Q33.924 -46.855 38.404 -51.777 Q42.885 -56.701 49.51 -56.701 Q56.279 -56.701 60.846 -51.451 Q65.414 -46.201 65.414 -38.586 Q65.414 -35.027 64.101 -31.412 Q62.789 -27.797 60.057 -24.961 H66.328 Q69.865 -24.961 72.341 -27.172 Q74.817 -29.385 74.817 -32.652 V-40.227 Q74.817 -51.117 67.511 -58.549 Q60.205 -65.98 49.536 -65.98 Q38.917 -65.98 31.584 -58.69 Q24.25 -51.399 24.25 -40.769 Q24.25 -34.259 28.645 -29.61 Q33.04 -24.961 39.405 -24.961 Z M27.01 -4.432 H75.961 Q82.453 -4.432 86.817 -8.805 Q91.183 -13.177 91.183 -19.586 V-40.162 Q91.183 -44.384 93.64 -47.926 Q96.096 -51.47 100.933 -51.47 H102.28 Q104.029 -51.47 105.39 -52.631 Q106.75 -53.791 106.75 -55.501 Q106.75 -56.845 105.869 -57.811 Q104.987 -58.777 103.654 -59.297 Q101.481 -60.095 99.672 -60.422 Q97.865 -60.749 96.058 -60.749 Q91.571 -60.749 88.569 -57.807 Q85.567 -54.865 85.567 -50.527 V-32.652 Q85.567 -24.881 79.933 -19.546 Q74.297 -14.211 66.328 -14.211 H44.453 Q38.282 -14.211 33.79 -12.004 Q29.297 -9.797 27.01 -4.432 Z"/></g><g id="Thin-M" transform="matrix(1 0 0 1 802.565 1126)"><path d="M16 3.866 Q16 -3.624 19.297 -9.696 Q22.596 -15.769 29.135 -19.172 Q22.711 -21.547 19.356 -27.686 Q16 -33.826 16 -41.057 Q16 -54.899 25.848 -64.565 Q35.694 -74.23 49.99 -74.23 Q59.221 -74.23 66.828 -70.11 Q74.433 -65.99 78.433 -58.287 Q79.961 -63.461 84.638 -66.302 Q89.314 -69.144 95.225 -69.144 Q102.422 -69.144 108.711 -65.417 Q115 -61.691 115 -54.781 Q115 -49.292 111.427 -45.439 Q107.856 -41.586 102.078 -41.586 H99.865 V-20.066 Q99.865 -10.097 92.688 -3.115 Q85.51 3.866 75.297 3.866 H16 Z M40.126 -24.191 Q46.749 -24.191 51.475 -27.884 Q56.203 -31.576 56.203 -37.566 Q56.203 -41.249 54.356 -44.274 Q52.51 -47.297 49.221 -47.297 Q47.115 -47.297 45.542 -45.396 Q43.971 -43.495 43.971 -41.086 H35.846 Q35.846 -46.855 39.87 -51.201 Q43.894 -55.547 49.751 -55.547 Q56.182 -55.547 60.318 -50.297 Q64.453 -45.047 64.453 -37.816 Q64.453 -33.826 62.828 -30.282 Q61.203 -26.74 57.99 -24.191 H66.279 Q70.177 -24.191 72.906 -26.669 Q75.635 -29.145 75.635 -32.701 V-40.035 Q75.635 -51.005 68.21 -58.492 Q60.784 -65.98 49.947 -65.98 Q39.159 -65.98 31.704 -58.774 Q24.25 -51.567 24.25 -41.057 Q24.25 -34.162 28.852 -29.177 Q33.454 -24.191 40.126 -24.191 Z M26.144 -4.384 H75.672 Q82.404 -4.384 87.01 -8.925 Q91.615 -13.466 91.615 -20.066 V-40.595 Q91.615 -43.911 93.591 -46.874 Q95.567 -49.836 99.49 -49.836 H101.185 Q103.308 -49.836 105.029 -51.266 Q106.75 -52.696 106.75 -54.805 Q106.75 -56.461 105.653 -57.644 Q104.555 -58.826 102.933 -59.49 Q100.711 -60.336 98.888 -60.615 Q97.064 -60.894 95.24 -60.894 Q90.392 -60.894 87.139 -57.759 Q83.885 -54.624 83.885 -49.951 V-32.701 Q83.885 -25.639 78.729 -20.79 Q73.573 -15.941 66.279 -15.941 H45.029 Q38.191 -15.941 33.144 -13.277 Q28.096 -10.615 26.144 -4.384 Z"/></g><g id="Ultralight-M" transform="matrix(1 0 0 1 506.415 1126)"><path d="M17.5 2.395 Q17.5 -4.98 21 -10.792 Q24.5 -16.605 31.125 -19.605 Q24.5 -21.605 21 -27.73 Q17.5 -33.855 17.5 -41.23 Q17.5 -54.409 26.973 -63.569 Q36.444 -72.73 50.25 -72.73 Q59.625 -72.73 67.188 -68.48 Q74.75 -64.23 78.375 -56.355 Q79.5 -61.73 84.119 -64.73 Q88.737 -67.73 94.735 -67.73 Q101.5 -67.73 107.5 -64.292 Q113.5 -60.855 113.5 -54.349 Q113.5 -49.256 110.188 -45.68 Q106.875 -42.105 101.5 -42.105 H98.625 V-20.355 Q98.625 -10.882 91.75 -4.244 Q84.875 2.395 75.125 2.395 H17.5 Z M40.56 -23.73 Q47.385 -23.73 52.255 -27.292 Q57.125 -30.855 57.125 -37.105 Q57.125 -41.105 55.062 -44.605 Q53 -48.105 49.25 -48.105 Q47.056 -48.105 45.341 -46.121 Q43.625 -44.136 43.625 -41.605 H37 Q37 -46.855 40.75 -50.855 Q44.5 -54.855 49.895 -54.855 Q56.125 -54.855 60 -49.605 Q63.875 -44.355 63.875 -37.355 Q63.875 -33.105 62.062 -29.605 Q60.25 -26.105 56.75 -23.73 H66.25 Q70.365 -23.73 73.245 -26.365 Q76.125 -29.001 76.125 -32.73 V-39.92 Q76.125 -50.937 68.629 -58.459 Q61.133 -65.98 50.194 -65.98 Q39.303 -65.98 31.776 -58.825 Q24.25 -51.669 24.25 -41.23 Q24.25 -34.105 28.976 -28.917 Q33.704 -23.73 40.56 -23.73 Z M25.625 -4.355 H75.5 Q82.375 -4.355 87.125 -8.997 Q91.875 -13.639 91.875 -20.355 V-40.855 Q91.875 -43.629 93.562 -46.241 Q95.25 -48.855 98.625 -48.855 H100.528 Q102.875 -48.855 104.812 -50.447 Q106.75 -52.04 106.75 -54.386 Q106.75 -56.23 105.522 -57.542 Q104.295 -58.855 102.5 -59.605 Q100.25 -60.48 98.416 -60.73 Q96.584 -60.98 94.75 -60.98 Q89.685 -60.98 86.28 -57.73 Q82.875 -54.48 82.875 -49.605 V-32.73 Q82.875 -26.092 78.006 -21.536 Q73.138 -16.98 66.25 -16.98 H45.375 Q38.136 -16.98 32.755 -14.042 Q27.375 -11.105 25.625 -4.355 Z"/></g><g id="Bold-S" transform="matrix(1 0 0 1 2294.23 696)"><path d="M9.567 -2.289 Q9.567 -8.798 11.835 -14.075 Q14.103 -19.351 18.64 -22.902 Q14.301 -25.269 11.934 -30.003 Q9.567 -34.737 9.567 -40.26 Q9.567 -52.631 18.004 -61.289 Q26.441 -69.946 38.557 -69.946 Q45.861 -69.946 51.975 -66.79 Q58.09 -63.634 61.641 -57.716 Q63.613 -60.182 66.89 -61.514 Q70.168 -62.845 74.253 -62.845 Q81.957 -62.845 87.431 -58.949 Q92.905 -55.054 92.905 -49.134 Q92.905 -43.858 89.494 -40.234 Q86.083 -36.611 81.07 -36.611 H80.182 V-23.296 Q80.182 -14.598 74.003 -8.443 Q67.824 -2.289 59.076 -2.289 H9.567 Z M30.913 -29.51 Q35.254 -29.51 38.289 -32.132 Q41.324 -34.756 41.324 -38.857 Q41.324 -40.358 40.544 -41.641 Q39.764 -42.923 38.555 -42.923 Q37.522 -42.923 36.76 -41.69 Q35.998 -40.457 35.998 -38.978 H25.544 Q25.544 -44.937 29.414 -49.255 Q33.283 -53.574 38.881 -53.574 Q44.48 -53.574 48.228 -49.284 Q51.975 -44.994 51.975 -38.978 Q51.975 -36.102 51.137 -33.447 Q50.299 -30.792 48.622 -28.721 H51.482 Q53.743 -28.721 55.325 -30.06 Q56.907 -31.4 56.907 -33.257 V-40.197 Q56.907 -48.267 51.68 -53.78 Q46.452 -59.294 38.707 -59.294 Q31.067 -59.294 25.692 -53.791 Q20.317 -48.287 20.317 -40.293 Q20.317 -35.822 23.401 -32.666 Q26.485 -29.51 30.913 -29.51 Z M23.276 -12.941 H59.57 Q63.843 -12.941 66.737 -15.815 Q69.629 -18.688 69.629 -23.296 V-36.413 Q69.629 -40.852 72.933 -44.008 Q76.237 -47.164 80.478 -47.164 H79.886 Q80.577 -47.164 81.415 -47.78 Q82.253 -48.396 82.253 -48.988 Q82.253 -49.732 81.894 -50.272 Q81.535 -50.813 80.774 -50.911 Q78.999 -51.404 77.388 -51.75 Q75.777 -52.095 74.294 -52.095 Q71.398 -52.095 69.429 -50.206 Q67.46 -48.318 67.46 -45.586 V-33.257 Q67.46 -27.008 62.791 -22.341 Q58.123 -17.675 51.384 -17.675 H34.322 Q30.574 -17.675 27.664 -16.541 Q24.755 -15.406 23.276 -12.941 Z"/></g><g id="Semibold-S" transform="matrix(1 0 0 1 1998.1 696)"><path d="M10.167 -2.89 Q10.167 -9.142 12.35 -14.311 Q14.532 -19.48 19.197 -23.073 Q14.815 -25.483 12.491 -30.174 Q10.167 -34.865 10.167 -40.217 Q10.167 -52.326 18.485 -60.836 Q26.804 -69.345 38.689 -69.345 Q45.861 -69.345 51.911 -66.233 Q57.962 -63.119 61.555 -57.202 Q63.571 -59.753 66.835 -61.064 Q70.101 -62.374 73.995 -62.374 Q81.185 -62.374 86.724 -58.692 Q92.262 -55.011 92.262 -48.961 Q92.262 -43.815 88.949 -40.278 Q85.637 -36.739 80.555 -36.739 H79.581 V-23.468 Q79.581 -14.949 73.532 -8.92 Q67.481 -2.89 58.862 -2.89 H10.167 Z M31.095 -29.424 Q35.449 -29.424 38.515 -32.218 Q41.581 -35.013 41.581 -38.974 Q41.581 -40.658 40.779 -41.834 Q39.978 -43.009 38.727 -43.009 Q37.565 -43.009 36.781 -41.776 Q35.998 -40.543 35.998 -39.106 H25.929 Q25.929 -44.851 29.696 -49.04 Q33.462 -53.231 38.995 -53.231 Q44.437 -53.231 48.12 -49.156 Q51.804 -45.08 51.804 -39.106 Q51.804 -36.396 50.944 -33.616 Q50.085 -30.834 48.322 -28.635 H51.61 Q53.871 -28.635 55.453 -29.996 Q57.035 -31.357 57.035 -33.257 V-40.16 Q57.035 -48.181 51.808 -53.652 Q46.581 -59.123 38.836 -59.123 Q31.17 -59.123 25.83 -53.662 Q20.488 -48.201 20.488 -40.251 Q20.488 -35.779 23.572 -32.602 Q26.655 -29.424 31.095 -29.424 Z M23.318 -13.112 H59.312 Q63.658 -13.112 66.558 -15.986 Q69.458 -18.859 69.458 -23.468 V-36.585 Q69.458 -40.723 72.568 -43.794 Q75.68 -46.864 80.049 -46.864 H79.501 Q80.319 -46.864 81.179 -47.496 Q82.039 -48.128 82.039 -48.827 Q82.039 -49.618 81.629 -50.194 Q81.22 -50.77 80.431 -50.869 Q78.655 -51.362 77.087 -51.707 Q75.519 -52.052 74.024 -52.052 Q71.098 -52.052 69.128 -50.142 Q67.16 -48.232 67.16 -45.457 V-33.257 Q67.16 -27.115 62.616 -22.567 Q58.073 -18.018 51.512 -18.018 H34.45 Q30.66 -18.018 27.793 -16.926 Q24.926 -15.835 23.318 -13.112 Z"/></g><g id="Medium-S" transform="matrix(1 0 0 1 1701.85 696)"><path d="M10.617 -3.34 Q10.617 -9.399 12.735 -14.487 Q14.854 -19.576 19.616 -23.202 Q15.201 -25.644 12.909 -30.303 Q10.617 -34.962 10.617 -40.185 Q10.617 -52.097 18.846 -60.496 Q27.076 -68.896 38.786 -68.896 Q45.861 -68.896 51.863 -65.815 Q57.865 -62.734 61.491 -56.816 Q63.538 -59.432 66.795 -60.726 Q70.05 -62.02 73.802 -62.02 Q80.606 -62.02 86.193 -58.499 Q91.779 -54.979 91.779 -48.831 Q91.779 -43.783 88.541 -40.309 Q85.302 -36.836 80.169 -36.836 H79.132 V-23.596 Q79.132 -15.213 73.178 -9.277 Q67.224 -3.34 58.702 -3.34 H10.617 Z M31.234 -29.36 Q35.595 -29.36 38.685 -32.283 Q41.775 -35.205 41.775 -39.062 Q41.775 -40.884 40.956 -41.978 Q40.138 -43.073 38.855 -43.073 Q37.598 -43.073 36.798 -41.84 Q35.998 -40.607 35.998 -39.203 H26.219 Q26.219 -44.786 29.908 -48.88 Q33.597 -52.974 39.082 -52.974 Q44.405 -52.974 48.04 -49.059 Q51.676 -45.144 51.676 -39.203 Q51.676 -36.616 50.8 -33.742 Q49.924 -30.867 48.096 -28.571 H51.707 Q53.968 -28.571 55.55 -29.948 Q57.131 -31.325 57.131 -33.257 V-40.134 Q57.131 -48.117 51.904 -53.556 Q46.677 -58.995 38.932 -58.995 Q31.248 -58.995 25.932 -53.565 Q20.617 -48.137 20.617 -40.218 Q20.617 -35.747 23.701 -32.553 Q26.785 -29.36 31.234 -29.36 Z M23.35 -13.241 H59.119 Q63.518 -13.241 66.424 -16.115 Q69.329 -18.988 69.329 -23.596 V-36.713 Q69.329 -40.627 72.295 -43.633 Q75.262 -46.638 79.727 -46.638 H79.211 Q80.126 -46.638 81.003 -47.283 Q81.878 -47.927 81.878 -48.707 Q81.878 -49.535 81.431 -50.136 Q80.983 -50.738 80.173 -50.836 Q78.398 -51.33 76.862 -51.675 Q75.327 -52.02 73.822 -52.02 Q70.872 -52.02 68.903 -50.094 Q66.934 -48.168 66.934 -45.361 V-33.257 Q66.934 -27.197 62.486 -22.736 Q58.037 -18.275 51.608 -18.275 H34.546 Q30.724 -18.275 27.889 -17.216 Q25.055 -16.157 23.35 -13.241 Z"/></g><g id="Regular-S" transform="matrix(1 0 0 1 1405.73 696)"><path d="M10.947 -3.67 Q10.947 -9.587 13.019 -14.617 Q15.09 -19.647 19.922 -23.296 Q15.484 -25.762 13.216 -30.397 Q10.947 -35.033 10.947 -40.161 Q10.947 -51.928 19.112 -60.247 Q27.275 -68.565 38.858 -68.565 Q45.861 -68.565 51.827 -65.508 Q57.794 -62.45 61.443 -56.533 Q63.515 -59.196 66.764 -60.478 Q70.014 -61.76 73.661 -61.76 Q80.182 -61.76 85.804 -58.358 Q91.425 -54.955 91.425 -48.737 Q91.425 -43.759 88.241 -40.333 Q85.056 -36.907 79.886 -36.907 H78.801 V-23.691 Q78.801 -15.406 72.918 -9.538 Q67.035 -3.67 58.583 -3.67 H10.947 Z M31.334 -29.312 Q35.702 -29.312 38.809 -32.329 Q41.916 -35.347 41.916 -39.126 Q41.916 -41.049 41.086 -42.084 Q40.257 -43.12 38.95 -43.12 Q37.621 -43.12 36.81 -41.887 Q35.998 -40.654 35.998 -39.274 H26.431 Q26.431 -44.739 30.063 -48.762 Q33.695 -52.785 39.145 -52.785 Q44.381 -52.785 47.981 -48.988 Q51.581 -45.191 51.581 -39.274 Q51.581 -36.777 50.693 -33.834 Q49.806 -30.89 47.932 -28.523 H51.778 Q54.039 -28.523 55.621 -29.912 Q57.203 -31.302 57.203 -33.257 V-40.114 Q57.203 -48.07 51.975 -53.485 Q46.748 -58.9 39.003 -58.9 Q31.306 -58.9 26.008 -53.495 Q20.711 -48.09 20.711 -40.195 Q20.711 -35.723 23.795 -32.518 Q26.879 -29.312 31.334 -29.312 Z M23.374 -13.335 H58.978 Q63.416 -13.335 66.325 -16.209 Q69.235 -19.082 69.235 -23.691 V-36.808 Q69.235 -40.556 72.095 -43.514 Q74.955 -46.473 79.492 -46.473 H78.999 Q79.985 -46.473 80.873 -47.127 Q81.76 -47.78 81.76 -48.618 Q81.76 -49.472 81.285 -50.093 Q80.809 -50.714 79.985 -50.813 Q78.21 -51.306 76.698 -51.651 Q75.185 -51.996 73.673 -51.996 Q70.706 -51.996 68.738 -50.058 Q66.769 -48.12 66.769 -45.29 V-33.257 Q66.769 -27.256 62.389 -22.86 Q58.01 -18.464 51.68 -18.464 H34.617 Q30.771 -18.464 27.96 -17.428 Q25.149 -16.393 23.374 -13.335 Z"/></g><g id="Light-S" transform="matrix(1 0 0 1 1109.75 696)"><path d="M12.92 -5.605 Q12.92 -11.371 15.256 -16.059 Q17.594 -20.747 22.54 -23.865 Q17.836 -25.838 15.378 -30.455 Q12.92 -35.07 12.92 -40.389 Q12.92 -51.284 20.591 -58.938 Q28.261 -66.593 39.199 -66.593 Q46.392 -66.593 52.302 -63.365 Q58.211 -60.137 61.367 -53.991 Q62.908 -56.92 66.082 -58.411 Q69.254 -59.901 73.016 -59.901 Q78.968 -59.901 84.21 -56.878 Q89.453 -53.855 89.453 -48.168 Q89.453 -43.711 86.61 -40.65 Q83.767 -37.589 79.128 -37.589 H77.17 V-24.071 Q77.17 -16.439 71.686 -11.022 Q66.201 -5.605 58.355 -5.605 H12.92 Z M31.903 -28.706 Q36.54 -28.706 39.835 -31.552 Q43.13 -34.399 43.13 -38.519 Q43.13 -40.86 42.015 -42.52 Q40.902 -44.182 38.987 -44.182 Q37.546 -44.182 36.544 -42.84 Q35.542 -41.499 35.542 -39.956 H27.949 Q27.949 -44.739 31.221 -48.307 Q34.491 -51.875 39.335 -51.875 Q44.305 -51.875 47.564 -48.078 Q50.822 -44.281 50.822 -38.667 Q50.822 -35.83 49.688 -32.943 Q48.554 -30.056 46.3 -27.917 H51.741 Q54.285 -27.917 56.066 -29.514 Q57.848 -31.111 57.848 -33.295 V-39.962 Q57.848 -47.981 52.527 -53.44 Q47.206 -58.9 39.328 -58.9 Q31.495 -58.9 26.103 -53.561 Q20.711 -48.223 20.711 -40.423 Q20.711 -35.647 23.959 -32.177 Q27.206 -28.706 31.903 -28.706 Z M22.692 -13.298 H58.75 Q63.378 -13.298 66.477 -16.304 Q69.576 -19.31 69.576 -24.071 V-37.149 Q69.576 -40.184 72.057 -42.683 Q74.538 -45.183 78.354 -45.183 H78.135 Q79.416 -45.183 80.588 -46.05 Q81.76 -46.916 81.76 -48.068 Q81.76 -49.169 81.114 -49.961 Q80.468 -50.752 79.416 -50.965 Q77.603 -51.495 76.077 -51.803 Q74.553 -52.11 73.028 -52.11 Q69.776 -52.11 67.609 -50.021 Q65.442 -47.931 65.442 -44.834 V-33.295 Q65.442 -27.854 61.439 -23.842 Q57.437 -19.83 51.642 -19.83 H35.073 Q30.698 -19.83 27.449 -18.433 Q24.201 -17.038 22.692 -13.298 Z"/></g><g id="Thin-S" transform="matrix(1 0 0 1 814.015 696)"><path d="M14.892 -7.539 Q14.892 -13.153 17.494 -17.5 Q20.097 -21.848 25.157 -24.435 Q20.188 -25.914 17.54 -30.511 Q14.892 -35.109 14.892 -40.617 Q14.892 -50.639 22.07 -57.63 Q29.247 -64.62 39.541 -64.62 Q46.923 -64.62 52.776 -61.222 Q58.629 -57.823 61.291 -51.45 Q62.3 -54.644 65.398 -56.344 Q68.496 -58.043 72.371 -58.043 Q77.754 -58.043 82.617 -55.399 Q87.48 -52.755 87.48 -47.599 Q87.48 -43.662 84.979 -40.967 Q82.477 -38.273 78.369 -38.273 H75.539 V-24.449 Q75.539 -17.472 70.453 -12.505 Q65.367 -7.539 58.128 -7.539 H14.892 Z M32.472 -28.098 Q37.378 -28.098 40.86 -30.774 Q44.344 -33.451 44.344 -37.912 Q44.344 -40.669 42.945 -42.957 Q41.547 -45.244 39.026 -45.244 Q37.47 -45.244 36.278 -43.794 Q35.088 -42.343 35.088 -40.64 H29.466 Q29.466 -44.739 32.377 -47.852 Q35.288 -50.965 39.524 -50.965 Q44.229 -50.965 47.147 -47.168 Q50.064 -43.371 50.064 -38.06 Q50.064 -34.881 48.683 -32.051 Q47.303 -29.222 44.669 -27.309 H51.702 Q54.532 -27.309 56.512 -29.116 Q58.493 -30.922 58.493 -33.333 V-39.81 Q58.493 -47.892 53.078 -53.397 Q47.663 -58.9 39.651 -58.9 Q31.685 -58.9 26.198 -53.628 Q20.711 -48.356 20.711 -40.65 Q20.711 -35.571 24.122 -31.835 Q27.533 -28.098 32.472 -28.098 Z M22.008 -13.259 H58.522 Q63.34 -13.259 66.629 -16.399 Q69.917 -19.538 69.917 -24.449 V-37.49 Q69.917 -39.811 72.019 -41.853 Q74.121 -43.894 77.215 -43.894 H77.271 Q78.847 -43.894 80.303 -44.973 Q81.76 -46.052 81.76 -47.519 Q81.76 -48.865 80.944 -49.827 Q80.127 -50.79 78.847 -51.117 Q76.996 -51.686 75.458 -51.955 Q73.92 -52.224 72.383 -52.224 Q68.846 -52.224 66.48 -49.982 Q64.114 -47.741 64.114 -44.379 V-33.333 Q64.114 -28.452 60.49 -24.823 Q56.865 -21.195 51.604 -21.195 H35.528 Q30.626 -21.195 26.939 -19.438 Q23.253 -17.683 22.008 -13.259 Z"/></g><g id="Ultralight-S" transform="matrix(1 0 0 1 517.792 696)"><path d="M16.076 -8.7 Q16.076 -14.223 18.837 -18.365 Q21.599 -22.507 26.727 -24.776 Q21.599 -25.959 18.837 -30.545 Q16.076 -35.131 16.076 -40.753 Q16.076 -50.252 22.958 -56.845 Q29.839 -63.437 39.746 -63.437 Q47.241 -63.437 53.06 -59.936 Q58.879 -56.434 61.246 -49.925 Q61.937 -53.278 64.989 -55.103 Q68.041 -56.927 71.984 -56.927 Q77.026 -56.927 81.662 -54.511 Q86.297 -52.095 86.297 -47.257 Q86.297 -43.634 84 -41.157 Q81.703 -38.682 77.914 -38.682 H74.561 V-24.677 Q74.561 -18.091 69.713 -13.395 Q64.866 -8.7 57.992 -8.7 H16.076 Z M32.814 -27.734 Q37.88 -27.734 41.476 -30.308 Q45.072 -32.882 45.072 -37.548 Q45.072 -40.556 43.503 -43.219 Q41.933 -45.881 39.049 -45.881 Q37.423 -45.881 36.119 -44.366 Q34.815 -42.849 34.815 -41.049 H30.377 Q30.377 -44.739 33.071 -47.579 Q35.766 -50.418 39.638 -50.418 Q44.184 -50.418 46.896 -46.621 Q49.608 -42.824 49.608 -37.696 Q49.608 -34.312 48.08 -31.517 Q46.551 -28.721 43.691 -26.945 H51.68 Q54.68 -26.945 56.779 -28.877 Q58.879 -30.809 58.879 -33.356 V-39.719 Q58.879 -47.839 53.408 -53.369 Q47.938 -58.9 39.846 -58.9 Q31.799 -58.9 26.255 -53.668 Q20.711 -48.436 20.711 -40.787 Q20.711 -35.526 24.22 -31.63 Q27.729 -27.734 32.814 -27.734 Z M21.599 -13.237 H58.386 Q63.317 -13.237 66.72 -16.456 Q70.122 -19.674 70.122 -24.677 V-37.696 Q70.122 -39.588 71.996 -41.354 Q73.87 -43.12 76.533 -43.12 H76.752 Q78.505 -43.12 80.133 -44.327 Q81.76 -45.534 81.76 -47.188 Q81.76 -48.683 80.841 -49.748 Q79.922 -50.813 78.505 -51.207 Q76.632 -51.799 75.086 -52.046 Q73.542 -52.292 71.996 -52.292 Q68.289 -52.292 65.803 -49.96 Q63.317 -47.627 63.317 -44.106 V-33.356 Q63.317 -28.81 59.92 -25.412 Q56.522 -22.014 51.581 -22.014 H35.801 Q30.583 -22.014 26.633 -20.042 Q22.684 -18.069 21.599 -13.237 Z"/></g></g></svg>