<svg xmlns="http://www.w3.org/2000/svg" height="48" viewBox="0 -960 960 960" width="48"><path d="M593-64q-28.72 0-50.86-22.14T520-137v-190q0-28.73 22.14-50.86Q564.28-400 593-400h274q28.72 0 50.86 22.14Q940-355.73 940-327v190q0 28.72-22.14 50.86T867-64H593Zm0-73h274v-190H593v190Zm.5-354q-13.5 7-27.3 3.1-13.8-3.91-21.2-18.1-11.12-19-27.83-32.5T479-552q-29.65 0-50.33 20.22Q408-511.56 408-482.23 408-459 422-441q14 18 36 27 13.78 5.77 19.89 19.88Q484-380 478-366.5q-6 13.5-19.5 19t-28.5.5q-43.04-14.6-69.02-52.06Q335-436.52 335-481.52q0-60.08 41.11-101.78T477.54-625q42.58 0 78.02 23T609-541q6 13.77 2 28.38Q607-498 593.5-491ZM408.99-64q-14.99 0-25.42-9.85Q373.14-83.69 371-99l-15-95q-16-6-35.31-16.73Q301.38-221.45 287-233l-90 41q-14 7-28.5 2T147-208L77-335q-7-12-4.5-25.5T88-383l82-62.3q-1-6.6-1.5-17.39-.5-10.8-.5-18.67 0-7.87.5-18.32T170-518l-82-60q-12-9-15-22.5t5-26.5l70-126q7-12 20.83-16.5 13.84-4.5 28.17.5l88 41q14-11 34-22.5t37-17.5l16-98q1.93-13 12.97-22 11.03-9 25.03-9h141q12.6 0 23.8 9 11.2 9 14.2 22l15 98q17 6 37.5 17.5T675-728l89-41q14.33-6 27.38-1 13.05 5 20.62 17l71 126q7 13 4 27t-15 22l-99 72q-12 9-26.5 7T723-513q-9-12-7.67-27.1 1.34-15.09 13.67-24.9l73-53-39-72-106 45q-23-26-53.07-44.29-30.08-18.3-66.33-23.71L525-824h-90l-13 111q-36 8-66.5 25.5T302-645l-103.72-45L157-618l93 69q-4 18-6.5 34.5t-2.5 32.98q0 16.52 2.5 33.52 2.5 17 6.5 36l-93 69 41 72 105-46q26 26 58.5 43.5T430-247v160.7q0 9.89-5.63 16.09Q418.74-64 408.99-64ZM479-482Zm0 0Z"/></svg>