<svg xmlns="http://www.w3.org/2000/svg" height="40" viewBox="0 -960 960 960" width="40"><path d="M577.05-122.82q-23.59 0-40.32-16.73T520-179.87v-163.08q0-23.59 16.73-40.32T577.05-400h243.08q23.59 0 40.32 16.73t16.73 40.32v163.08q0 23.59-16.73 40.32t-40.32 16.73H577.05Zm0-32.44h243.08q10.77 0 17.69-6.92 6.92-6.92 6.92-17.69v-163.08q0-10.77-6.92-17.69-6.92-6.92-17.69-6.92H577.05q-10.77 0-17.69 6.92-6.92 6.92-6.92 17.69v163.08q0 10.77 6.92 17.69 6.92 6.92 17.69 6.92Zm-18.19-346.21q-5.72 4.06-12.07 2.66-6.34-1.4-10.41-6.24-10.55-15.51-25.25-26.77-14.69-11.26-33.37-11.26-26.17 0-44.63 18.33-18.45 18.34-18.45 44.3 0 19.03 10.42 33.8 10.41 14.77 27.22 24.06 5.62 3.18 7.65 9.31 2.04 6.14-.74 11.83-2.9 5.92-9.4 7.98-6.51 2.05-12.73-1.41-25.52-10.84-40.19-33.94-14.67-23.11-14.67-51.19 0-40.42 27.24-67.96 27.23-27.54 68.01-27.54 27.39 0 50.09 14.2 22.7 14.19 35.01 38.08 3.74 5.9 2.34 12.15-1.4 6.26-6.07 9.61Zm-132.6 378.65q-6.81 0-11.56-5.12-4.75-5.12-5.96-12.48l-11.7-96.64q-21.49-6.38-46.98-20.55-25.5-14.17-42.91-30.12l-85.37 38.2q-8.55 3.48-16.64 1.2-8.09-2.29-12.61-10.46l-49.09-84.61q-4.45-7.31-2.68-15.67 1.76-8.36 9.56-14.07l77.08-57.19q-2.31-11.86-3.35-24.16-1.04-12.29-1.04-24.36 0-11 1.12-23.79 1.13-12.8 3.05-27.59l-76.58-57.13q-7.96-5.14-9.51-13.92-1.55-8.78 3.61-16.59l47.83-81.8q4.81-7.52 12.81-10.19 8.01-2.67 16.22.21l85.61 37.2q19.1-15.49 42.67-29.38 23.57-13.9 46.14-21.04l13.53-94.93q1.92-8.74 8.77-14.2 6.84-5.46 15.23-5.46h93.48q8.24 0 14.94 5.46 6.69 5.46 8.56 14.2l13.09 94.87q24.1 8.94 45.34 21.28 21.23 12.34 41.05 29.2l90.38-37.2q7.32-2.88 15.57-.12 8.26 2.76 12.59 10.1l47.98 82.57q4.45 8.02 2.79 16.42-1.65 8.4-9.38 13.32l-90.18 65.53q-5.64 4.37-11.37 3.26-5.73-1.11-9.67-6.6-4.54-4.62-3.75-11.26t6.3-10.72l82.26-61.65-39.14-68.84-104.75 44.18q-18.8-20.34-48.86-38.58-30.05-18.24-56.5-22.67l-12.92-110.32h-82.37l-11.96 109.82q-32.72 6.76-57.91 20.92-25.2 14.16-50.82 39.98l-101.89-43.33-40.14 68.84 89.76 65.56q-4.85 14.56-6.93 30.52-2.07 15.96-2.07 32.5 0 17.19 1.82 31.9 1.83 14.72 5.91 30.22l-88.49 66.61 39.91 68.85 101.56-43.13q24.31 24.63 55.5 40.62 31.18 16 66.17 23.11v124.67q0 6.74-3.77 10.64-3.78 3.91-9.34 3.91Zm52.98-357.63Zm0 0Z"/></svg>