<svg xmlns="http://www.w3.org/2000/svg" height="24" viewBox="0 -960 960 960" width="24"><path d="M621-70.78q-42.24 0-71.62-29.38Q520-129.54 520-171.78V-299q0-42.24 29.38-71.62Q578.76-400 621-400h210.61q42.24 0 71.62 29.38 29.38 29.38 29.38 71.62v127.22q0 42.24-29.38 71.62-29.38 29.38-71.62 29.38H621Zm0-101h210.61V-299H621v127.22Zm-36.2-308.2q-15.69 8.07-32.27 2.39-16.59-5.67-24.88-21.15-7.93-15.3-20.59-24.89t-29.18-9.59q-22.25 0-37.77 15.36-15.52 15.35-15.52 37.93 0 17.05 11.66 29.26t26.03 21.71q14.7 9.13 20.7 25.14 6 16.02-1.63 31.21-8.13 16.2-24.58 21.13-16.44 4.94-33.2-2.06-37.64-17.07-60.61-50.92-22.98-33.84-22.98-75.54 0-57.1 40.26-97.46 40.27-40.37 97.12-40.37 41.16 0 74.62 21.82 33.45 21.81 51.59 58.88 7 15.62 1.96 32.35-5.03 16.74-20.73 24.8ZM404.39-70.78q-19.7 0-34.4-12.82-14.7-12.83-17.08-32.03l-10.93-85.87q-8.72-3.86-18.17-8.82-9.46-4.96-17.07-10.14l-67.94 28q-22.76 9.64-46.08 2.07-23.33-7.57-35.96-29.39L92.52-332.07q-12.06-21.05-7.31-45.16 4.75-24.12 24.51-39.31l59.43-45.5q-.43-4.12-.43-7.95v-9.96q0-3.64.25-8.46.25-4.81.68-11.55l-58.93-43.43q-20.33-15.2-25.33-38.96t7.63-46.08l63.74-111.22q12.72-21.06 35.97-28.98 23.25-7.91 46.01 1.65l70.63 29q6.61-5.17 14.34-9.63 7.72-4.46 18.27-8.76L352.04-833q3.64-25.04 21.8-41.13 18.16-16.09 42.99-16.09h126.84q25.01 0 42.85 16.09T607.96-833l10.06 75.13q9.72 3.71 17.67 8.47 7.96 4.75 15.57 11.42l70.07-29q22.76-10.13 45.99-1.91t35.98 29.24l63.74 111.22q12.64 21.82 7.52 45.84-5.12 24.03-25.34 39.2l-74.31 53.85q-16.95 12.32-37.32 8.94-20.37-3.38-32.98-20.33-12.11-16.46-8.96-36.87 3.16-20.4 19.57-33.16l47.74-35.74-31.85-56.82-99.87 43q-19.5-22.7-47.41-39.04-27.92-16.35-57.55-23.29l-12.93-106.37h-66.7l-12.37 105.31q-33.69 7.93-59.39 22.53-25.69 14.6-49.76 39.86l-96.8-42-32.29 56.82 83.24 61.81q-5 17.13-7.56 32.35-2.57 15.22-2.57 32.01 0 15.6 2.32 31.23 2.31 15.63 7.31 33.26l-82.74 61.74 32.36 56.82 96.11-41.43q23.56 24 53.02 40 29.47 16 62.4 24.19v165.52q0 15.82-8.15 27.12-8.16 11.3-27.39 11.3Zm74.54-409.15Zm0 0Z"/></svg>