<svg xmlns="http://www.w3.org/2000/svg" height="40" viewBox="0 -960 960 960" width="40"><path d="M583.33-86.67q-25.62 0-44.48-18.85Q520-124.37 520-150v-186.67q0-25.62 18.85-44.48Q557.71-400 583.33-400H850q25.63 0 44.48 18.85 18.85 18.86 18.85 44.48V-150q0 25.63-18.85 44.48Q875.63-86.67 850-86.67H583.33Zm0-63.33H850v-186.67H583.33V-150ZM417.67-86.67q-14.5 0-24.73-9.6-10.23-9.61-12.27-23.9l-13.5-91q-17-6.5-36.09-17.08-19.08-10.58-33.41-21.92L215.5-213.5q-14.83 6.17-29.5 1.5t-22.83-18.33l-58.84-103.84q-8.16-13.33-4.72-28.41 3.45-15.08 16.22-24.92l75.67-56.17q-1.67-8.14-2-17.48-.33-9.35-.33-18.85 0-7.67.41-17.83.42-10.17 2.09-19.84L116.5-573q-12.83-9.5-16.5-24.5t4.83-28.83l58.34-103.34q8.26-13.46 23.13-18.48t29.37 1.32l83.16 37.33q13.34-11 31.59-21.5t36.61-16.91l13.64-91.42q2.18-15.21 13.92-24.94t26.74-9.73h117.84q15.18 0 26.6 9.73 11.43 9.73 13.56 24.94l13.79 89.87q17.38 6.63 35.8 17.04Q647.33-722 661-709.5l83.83-37.33q14.5-6.34 28.96-1.32t22.54 18.48l59 103.34q8.17 13.66 4.3 28.32-3.87 14.65-15.8 25.01l-85 71.67q-12 9.5-24.33 14.16-12.33 4.67-26.83 6.67h-99.5q0-54.17-37.67-91.83Q532.83-610 479.4-610q-54.73 0-92.48 37.92-37.75 37.91-37.75 92.08 0 43 24.85 76.24 24.85 33.25 63.81 46.43v248.16q0 9.56-5.25 16.03-5.25 6.47-14.91 6.47Z"/></svg>