<svg xmlns="http://www.w3.org/2000/svg" height="24" viewBox="0 -960 960 960" width="24"><path d="M610.62-88q-38.34 0-64.48-26.14Q520-140.27 520-178.62v-130.76q0-38.34 26.14-64.48T610.62-400h218.76q38.35 0 64.48 26.14Q920-347.72 920-309.38v130.76q0 38.35-26.14 64.48Q867.73-88 829.38-88H610.62Zm0-66h218.76q10.77 0 17.7-6.92 6.92-6.93 6.92-17.7v-130.76q0-10.77-6.92-17.7-6.93-6.92-17.7-6.92H610.62q-10.77 0-17.7 6.92-6.92 6.93-6.92 17.7v130.76q0 10.77 6.92 17.7 6.93 6.92 17.7 6.92ZM578-493.62q-12.31 6.16-25.03 2.6t-19.28-16.06q-10.52-15.13-24.94-26.02-14.42-10.9-32.52-10.9-25.96 0-44.13 17.66-18.18 17.67-18.18 43.64 0 17.88 9.62 32.91 9.61 15.02 24.31 23.02 12.3 6.15 16.34 19.35 4.04 13.19-2.11 25.5-6.16 12.3-19.85 15.96-13.69 3.65-26-2.5-31.96-16.76-50.13-47.57-18.18-30.82-18.18-65.97 0-53.45 37.19-90.72Q422.3-610 475.62-610q37.21 0 67.45 20.08 30.24 20.07 47.39 52 5.16 12.3 2.5 25.23-2.65 12.92-14.96 19.07ZM404.14-88q-10.82 0-18.33-6.99-7.5-6.98-8.66-17.78l-11.23-97.92q-13.15-4.77-31.7-14.61-18.55-9.84-30.6-21.08L218-210.46q-12.69 5.61-25.77 1.23-13.08-4.39-19.15-16.62l-67.16-120.3q-6.07-12.23-4.01-24.24 2.06-12 12.78-20.15l71.85-55q-.77-8.74-1.92-18.29-1.16-9.55-1.16-17.55 0-7.99 1.16-16.81 1.15-8.82 1.92-20.27l-70.85-53q-11-8.31-12.54-21.12-1.53-12.8 4.54-25.04l66.39-115q6.27-11.78 18.75-15.89 12.48-4.11 25.17.51l80.85 33.15q14.92-11.92 33.27-21.92 18.34-10 34.03-16.54L378.23-843q2.23-12.92 13.09-21.96 10.85-9.04 23.83-9.04h129.7q12.98 0 23.83 9.04 10.86 9.04 13.09 21.96l11.31 91.46q18 8.08 33.65 16.54 15.65 8.46 31.35 21.15L743.31-748q12.69-5.62 25.03-1.01 12.35 4.61 19.12 16.39l66.39 115.77q6.07 12.23 3.72 24.98-2.36 12.75-13.26 20.41l-97.93 73.23q-10.07 8.61-23.61 6.27-13.54-2.35-22.54-12.92-9-10.58-7.2-24.22 1.79-13.63 12.97-22.82L781.77-610 743-678l-101.08 40.77q-18.15-20.92-49.62-39.14t-60.07-24.32L521-808h-82.77l-10.46 105.54q-34.23 7.46-61.58 23.31-27.34 15.84-52.42 41.92L217-678l-40.77 68L260-545.23q-5 17.46-7 33.23-2 15.77-2 29.99 0 13.38 2 29.19 2 15.82 6.23 36.05l-83 64.77L217-284l97-41q24 22.23 52.88 38.08 28.89 15.84 60.12 26.15v150.08q0 10.29-6.92 16.49-6.93 6.2-15.94 6.2Zm73.32-394.23Zm0 0Z"/></svg>