<svg xmlns="http://www.w3.org/2000/svg" height="24" viewBox="0 -960 960 960" width="24"><path d="M581.54-126.15q-25.94 0-43.74-17.8T520-187.69v-150.77q0-25.94 17.8-43.74t43.74-17.8h230.77q25.94 0 43.74 17.8t17.8 43.74v150.77q0 25.94-17.8 43.74t-43.74 17.8H581.54Zm0-36.93h230.77q10.77 0 17.69-6.92 6.92-6.92 6.92-17.69v-150.77q0-10.77-6.92-17.69-6.92-6.93-17.69-6.93H581.54q-10.77 0-17.69 6.93-6.93 6.92-6.93 17.69v150.77q0 10.77 6.93 17.69 6.92 6.92 17.69 6.92Zm-22.73-335.65q-6.69 4.04-14 2.42-7.31-1.61-11.35-7.77-10.42-14.69-24.39-25.3Q495.1-540 477.58-540q-25 0-42.5 17.37-17.5 17.36-17.5 42.51 0 17.42 9.29 31.13 9.28 13.72 23.63 22.84 6.08 4.15 8.62 11.17 2.53 7.02-.89 13.6-3.54 6.8-11.17 8.84-7.64 2.04-14.83-1.88-24.19-12.66-37.88-35.46-13.7-22.81-13.7-50.12 0-40.57 27.97-68.75 27.96-28.17 68.69-28.17 28.09 0 50.89 14.52t35.95 38.71q3.54 6.69 2.25 14-1.28 7.31-7.59 10.96ZM425.15-126.15q-7.78 0-13.36-5.55-5.59-5.54-6.56-13.49l-10.73-94.69q-19.54-5.89-42.79-18.52-23.25-12.64-38.86-26.79l-80.43 34.15q-10.11 4.27-20.23 1.12-10.11-3.16-15.84-12.93L149-343.81q-5.73-9.38-3.43-20.05 2.3-10.68 11.24-17.49l71.15-53.19q-2.15-10.7-3.11-21.72-.97-11.01-.97-22.59 0-9.84 1.22-21.27 1.21-11.42 2.98-26.57l-70.66-52.46q-9.04-6.58-11.15-17.5-2.12-10.93 4-20.81l46.08-78.16q6.01-9.11 16.04-12.65 10.03-3.54 20.15.46l80.65 34q17.31-14.54 38.21-26.73 20.91-12.19 42.18-19.43l11.96-89.26q1.74-11.06 10.22-18.14 8.48-7.09 19.32-7.09h90.34q10.7 0 19.02 7.09 8.33 7.08 10.02 18.14l11.37 89.24q23.29 8.34 41.19 19.05t36.6 27.13l85.26-34q9.74-4 19.97-.44 10.23 3.55 15.84 12.63l46.08 78.93q5.73 9.77 3.42 20.23-2.3 10.46-11.11 17.31l-83.39 61.11q-6.43 4.5-13.37 3.41-6.94-1.1-11.44-7.56-4.76-5.96-3.82-13.13.95-7.16 7.09-12.06l76.54-58-38.65-67.39-103.31 43.39q-16.81-18.7-46.38-36.12-29.58-17.42-54.23-23L519.9-797.54h-79.67l-11.96 108.18q-31.23 6.94-55.04 20.11-23.81 13.17-49.61 38.87l-99.27-42.39-39.66 67.39 86.66 64.26q-5 14.08-7 29.6-2 15.51-2 31.55 0 15.61 1.75 29.92 1.75 14.32 5.98 29.67l-85.39 65.15 39.57 67.38 98.47-42q24 23.62 54.14 39.04 30.13 15.43 63.63 23.08v124.15q0 7.18-4.55 12.3-4.55 5.13-10.8 5.13Zm53.58-353.97Zm0 0Z"/></svg>