<svg xmlns="http://www.w3.org/2000/svg" height="40" viewBox="0 -960 960 960" width="40"><path d="M576-132q-24 0-40-16t-16-40v-156q0-24 16-40t40-16h236q24 0 40 16t16 40v156q0 24-16 40t-40 16H576Zm0-24h236q14 0 23-9t9-23v-156q0-14-9-23t-23-9H576q-14 0-23 9t-9 23v156q0 14 9 23t23 9Zm-147.67 24q-4.33 0-7.66-3.67-3.34-3.66-4.34-9l-11.66-98.66Q382.33-250 355.17-265q-27.17-15-45.5-32.33L224-259q-7 2.67-14.17.67-7.16-2-10.83-9L154.33-344q-3.66-7-2.33-13.83 1.33-6.84 8-11.5l76.33-57q-2-12.67-3.5-26.34-1.5-13.66-1.5-26.33 0-11.67 1.5-25.17 1.5-13.5 3.5-29.5l-76.33-57q-6.67-4.66-7.5-12-.83-7.33 2.83-14.33L199-690.67q3.67-6 10.83-8.5 7.17-2.5 14.17.17l84.67 36.67Q330-680 355.17-694.5q25.16-14.5 48.5-21.5L417-811q2-7.33 7.33-12.17Q429.67-828 437-828h85q7.33 0 13.17 4.83Q541-818.33 543-811l12.33 95.33Q582-706 603.83-693.5q21.84 12.5 43.5 31.17L737.67-699q6.33-2.67 13.5-.17 7.16 2.5 10.83 8.5L805.67-616q3.66 7 2 13.83-1.67 6.84-7.67 11.5L722.33-530q1.34 5 2.17 9 .83 4 1.83 9 .67 12.67-8.33 22t-22.67 10l-133-1q0-35.33-25.33-60.17Q511.67-566 476.33-566q-34.66 0-59.83 24.83-25.17 24.84-25.17 60.17 0 25.33 13.17 46.17 13.17 20.83 34.83 31.16v259.34q0 5.33-3.33 8.83t-7.67 3.5Z"/></svg>