<svg xmlns="http://www.w3.org/2000/svg" height="20" viewBox="0 -960 960 960" width="20"><path d="M588.27-124.08q-28.44 0-44.35-15.91Q528-155.91 528-184.35v-139.38q0-28.44 15.92-44.35Q559.83-384 588.27-384h235.38q28.44 0 44.36 15.92 15.91 15.91 15.91 44.35v139.38q0 28.44-15.91 44.36-15.92 15.91-44.36 15.91H588.27Zm0-47.96h235.38q5.39 0 8.85-3.46t3.46-8.85v-139.38q0-5.39-3.46-8.85t-8.85-3.46H588.27q-5.39 0-8.85 3.46t-3.46 8.85v139.38q0 5.39 3.46 8.85t8.85 3.46Zm-9.62-324.58q-9.34 5.77-18.5 2.43-9.15-3.35-14.92-12.35-12.46-18.84-30.19-33.65Q497.3-555 474.79-555q-31.25 0-52.25 22.25-21 22.26-21 53.26 0 21.7 13.77 38.15 13.77 16.46 31.69 26.76 8.54 5.08 14.31 13.96 5.77 8.89 2.3 17.93-3.76 9.65-13.46 11.92-9.69 2.27-19.53-.19-34.35-12.58-55.7-42.51-21.34-29.92-21.34-66.08 0-51.7 35.31-87.55 35.3-35.86 85.78-35.86 35.86 0 64.34 20.38 28.49 20.39 45.57 51.73 4.26 9.35 3.75 19-.52 9.66-9.68 15.23ZM442.58-124.08q-9.38 0-16.18-5.64-6.8-5.65-8.28-14.63L404-229.19q-26.27-9.7-54.52-24.64-28.25-14.94-49.56-34.02l-87.46 31.08q-5.31.38-11.11-1.19-5.81-1.58-8.43-6.96l-43.42-74.73q-2.61-5.2-2.09-10.41.53-5.21 4.74-10.36l71.58-61.35q-2.57-13.59-4.06-27.6-1.48-14.01-1.48-30.05 0-13.93 1.73-28.64 1.74-14.71 4.12-31.79l-71.08-60.23q-4.27-5.04-4.82-10.25-.56-5.21 2.25-10.9l42.53-73.08q2.81-4.95 8.68-6.9 5.86-1.94 11.17-1.44l88.08 31.5q21.65-19.27 47.73-33.87 26.07-14.59 54.96-25.21l17.73-94.38q2.13-5.64 6.98-8.88 4.85-3.24 10.79-3.24h82.42q5.96 0 10.58 3.24 4.61 3.24 6.69 8.88l17.43 93.62q28.65 10.91 53.47 24.9 24.83 13.98 47.68 34.94l92.38-31.5q5.12-.5 10.43 1.44t8.23 6.9l42.53 73.46q2.62 5.39 1.69 10.86-.93 5.47-5.03 9.91l-94.2 77.81q-6.71 7-17.3 5.66-10.59-1.34-17.35-8.74-5.88-6.23-5.26-15.93.61-9.7 7.65-16.91l74.27-62-17.08-29.19-99.15 33.19q-22.16-26.85-55.7-46.81-33.54-19.96-67.11-24.5l-18.57-101.27h-36.12l-17.74 100.59q-38.61 6.72-68.51 23.68-29.91 16.96-57.56 48.31l-95.89-33.19-18.07 29.19 76.07 66.88q-6 18.04-9.5 36.55-3.5 18.51-3.5 36.51 0 19.14 2.75 37.14 2.75 17.99 8.37 35.92l-74.19 66.57 17.07 29.2 95.2-32q27 30.8 63.44 48.52 36.44 17.71 76.94 25.78v132.08q0 6.87-4 9.91-4 3.05-9.92 3.05Zm35.54-355.23Zm0 0Z"/></svg>