<svg xmlns="http://www.w3.org/2000/svg" height="48" viewBox="0 -960 960 960" width="48"><path d="M574.81-121.15q-22.59 0-38.7-16.12Q520-153.38 520-175.96v-169.23q0-22.59 16.11-38.7Q552.22-400 574.81-400h249.23q22.58 0 38.69 16.11 16.12 16.11 16.12 38.7v169.23q0 22.58-16.12 38.69-16.11 16.12-38.69 16.12H574.81Zm0-30.2h249.23q10.77 0 17.69-6.92 6.92-6.92 6.92-17.69v-169.23q0-10.77-6.92-17.69-6.92-6.93-17.69-6.93H574.81q-10.77 0-17.69 6.93-6.93 6.92-6.93 17.69v169.23q0 10.77 6.93 17.69 6.92 6.92 17.69 6.92Zm-148 30.2q-6.19 0-10.6-4.8-4.41-4.81-5.71-12.09l-12.19-97.61q-22.46-6.62-49.08-21.56-26.61-14.94-44.92-31.79l-87.85 40.23q-7.77 3.08-14.9 1.12-7.14-1.97-10.94-9.12l-49.97-86.42q-3.8-6.27-2.35-13.4 1.44-7.13 8.78-12.45l80.04-59.19q-2.39-12.44-3.47-25.37-1.07-12.94-1.07-25.63 0-11.19 1.07-24.67 1.08-13.48 3.08-28.1l-79.54-59.46q-7.42-4.42-8.69-12.14-1.27-7.71 3.42-14.48l48.7-83.61q3.9-6.18 11.04-8.69 7.15-2.5 14.42-.2l88.07 38.81q20-15.96 44.91-30.71 24.9-14.75 48.28-21.75l14.16-97.85q2.01-7.48 7.6-12.18 5.59-4.7 12.86-4.7h95.81q7.06 0 12.91 4.7 5.86 4.7 7.82 12.18l14.01 97.82q24.45 9.11 47.36 22.26 22.9 13.15 43.28 30.23l92.93-38.81q6.11-2.3 13.37.2 7.25 2.51 10.97 8.69l48.93 84.38q3.8 7.16 1.86 13.97-1.95 6.82-7.52 11.88L732.62-525q.38 3.85 1.34 6.92.96 3.08 1.73 6.93-3.77 12.03-13.31 20.55-9.53 8.52-24.26 9.98l-126.58-.76q0-38.77-27.91-66.1-27.9-27.33-66.32-27.33-39.5 0-66.89 27.25-27.38 27.25-27.38 66.79 0 28.99 15.51 52.23t40.26 33.81v260.46q0 6.52-3.46 9.82-3.45 3.3-8.54 3.3Z"/></svg>