<svg xmlns="http://www.w3.org/2000/svg" height="20" viewBox="0 -960 960 960" width="20"><path d="M646-62q-53 0-85.5-32.5T528-180v-86q0-53 32.5-85.5T646-384h188q53 0 85.5 32.5T952-266v86q0 53-32.5 85.5T834-62H646Zm0-118h188v-86H646v86ZM417-62q-20 0-35-12t-18-32l-14-81q-15-6-30-14t-28-19l-74 26q-19 7-39.5.5T148-219L89-324q-9-18-6-37.5t19-33.5l58-52-2-16q-1-8-1-17t1-17l2-16-58-51q-17-14-20-33.5t7-38.5l59-104q10-18 30-24.5t39-.5l77 26q13-11 26.5-18.5T350-771l16-80q5-21 19.5-34t36.5-13h116q22 0 36.5 13t19.5 34l16 80q15 6 30 13.5t28 18.5l76-26q19-7 39 0t30 25l59 104q10 19 6.5 39T858-564l-25 25q2 4 3 12t1 17q-6 27-24.5 40T768-457H618q1-6 1.5-12.5t.5-12.5q-1-60-42.5-101T476-624q-60 0-101.5 41.5T333-481q0 54 35 95t87 48v239q0 17-7.5 27T417-62Z"/></svg>