<svg xmlns="http://www.w3.org/2000/svg" height="24" viewBox="0 -960 960 960" width="24"><path d="M610.62-88q-38.34 0-64.48-26.14Q520-140.27 520-178.62v-130.76q0-38.34 26.14-64.48T610.62-400h218.76q38.35 0 64.48 26.14Q920-347.72 920-309.38v130.76q0 38.35-26.14 64.48Q867.73-88 829.38-88H610.62Zm0-66h218.76q10.77 0 17.7-6.92 6.92-6.93 6.92-17.7v-130.76q0-10.77-6.92-17.7-6.93-6.92-17.7-6.92H610.62q-10.77 0-17.7 6.92-6.92 6.93-6.92 17.7v130.76q0 10.77 6.92 17.7 6.93 6.92 17.7 6.92ZM404.51-88q-10.11 0-17.98-7.03-7.87-7.02-9.38-17.74l-11.23-97.92q-13.15-4.77-31.7-14.61-18.55-9.84-30.6-21.08L218-210.46q-12.69 4.61-25.77.73-13.08-3.89-19.15-16.12l-67.16-120.3q-6.07-12.23-4.15-24.66 1.92-12.42 12.92-20.73l71.85-54q-.77-8.79-1.92-18.37-1.16-9.59-1.16-18.38 0-8.02 1.16-16.13 1.15-8.12 1.92-20.04l-70.85-53q-11-8.31-12.54-21.12-1.53-12.8 4.54-25.04l66.39-115q6.07-11.46 18.65-15.73 12.58-4.27 25.27.35l80.85 33.15q14.92-11.92 33.27-21.92 18.34-10 34.03-16.54L378.23-843q2.23-12.92 12.73-21.96 10.5-9.04 23.42-9.04h130.47q12.92 0 23.8 9.04 10.89 9.04 13.12 21.96l11.31 91.46q18 8.08 33.65 16.54 15.65 8.46 31.35 21.15L743.31-748q12.69-5.62 25.1-.85 12.41 4.77 19.05 16.23l66.39 115.77q6.07 12.23 3.77 25.04-2.31 12.81-13.31 20.35l-58.16 42.84q1.54 3.85 1.93 6.93.38 3.07 1.15 6.92-4 14.08-18.58 23.42-14.57 9.35-30.8 9.35l-138.4-.77q0-52.68-36.61-89.95Q528.23-610 475.15-610q-52.3 0-89.77 37.46-37.46 37.46-37.46 89.78 0 40.03 21.78 71.59 21.79 31.56 57.3 45.86v254.93q0 9.84-6.92 16.11Q413.15-88 404.51-88Z"/></svg>