<svg xmlns="http://www.w3.org/2000/svg" height="40" viewBox="0 -960 960 960" width="40"><path d="M576-132q-23.85 0-39.93-16.07Q520-164.15 520-188v-156q0-23.85 16.07-39.93Q552.15-400 576-400h236q23.85 0 39.93 16.07Q868-367.85 868-344v156q0 23.85-16.07 39.93Q835.85-132 812-132H576Zm0-24h236q14 0 23-9t9-23v-156q0-14-9-23t-23-9H576q-14 0-23 9t-9 23v156q0 14 9 23t23 9Zm-24.33-348q-3.67 3-8.5 2.5-4.84-.5-7.84-4.17-11-14.66-25.21-25.5Q495.9-542 477.33-542q-25.72 0-43.86 17.94-18.14 17.95-18.14 44.06 0 17.9 10 32.45 10 14.55 25.34 23.22 4.33 2.33 5.5 7.33 1.16 5-1.17 9t-7.33 5q-5 1-9.34-1.33Q416.67-415 404-435.37q-12.67-20.38-12.67-44.63 0-36.54 24.82-61.27Q440.97-566 477.64-566q24 0 44.18 12.67 20.18 12.66 31.51 33 3 4.33 2.5 8.83t-4.16 7.5ZM428.33-132q-4.62 0-7.88-3.56-3.26-3.55-4.12-9.11l-11.66-98.66Q382.33-250 355.17-265q-27.17-15-45.5-32.33L224-259q-7 2.67-14.11.76-7.12-1.9-10.89-9.09L154.33-344q-3.66-7-2.15-13.93 1.52-6.94 7.82-11.4l76.33-57q-2-12.67-3.5-26.34-1.5-13.66-1.5-25.83 0-12.17 1.5-25.67 1.5-13.5 3.5-29.5l-76.33-57q-6.67-4.66-7.5-12-.83-7.33 2.83-14.33L199-690.67q4.02-6.61 11.01-8.8 6.99-2.2 13.99.47l84.67 36.67Q330-680 355.17-694.5q25.16-14.5 48.5-21.5L417-811q1.99-7.43 7.83-12.22Q430.68-828 438-828h84q7.32 0 13.17 4.78 5.84 4.79 7.83 12.22l12.33 95.33Q582-706 603.83-693.5q21.84 12.5 43.5 31.17L737.67-699q6.33-2.67 13.41-.37 7.08 2.29 10.92 8.7L805.67-616q3.66 7 2.27 14.09-1.4 7.08-7.94 11.24l-89 65.34q-4.33 3-8.33 2.16-4-.83-7.17-4.5-3.17-3.66-2.67-8.33t4.84-8l85-64-40-68.67L638.33-633q-17.66-19.67-48.5-38.33Q559-690 533.33-693.67L520.67-804h-81.34l-12 109.33q-31.33 6-56.66 20.34Q345.33-660 319.33-634l-102-42.67-40 68.67 89 65.67q-5 13.66-7 29.66t-2 33.08q0 16.73 2 31.49 2 14.77 6 29.43l-88 66.67 40 68.67 101-42.67q24 24.38 55.17 40.03 31.17 15.64 65.83 23.64v118q0 5.51-3.33 8.92t-7.67 3.41ZM479-480Zm0 0Z"/></svg>