<svg xmlns="http://www.w3.org/2000/svg" height="48" viewBox="0 -960 960 960" width="48"><path d="M612.5-60q-38.43 0-65.47-26.74Q520-113.48 520-151.5v-157q0-36.97 27.03-64.23Q574.07-400 612.5-400h241q36.97 0 64.23 27.27Q945-345.47 945-308.5v157q0 38.02-27.27 64.76Q890.47-60 853.5-60h-241Zm0-91.5h241v-157h-241v157ZM581-488q-13.5 7-26.55 3.62Q541.4-487.77 534-501q-9-17-23.69-28.5-14.68-11.5-33.43-11.5-25.88 0-43.38 17.47Q416-506.05 416-480q0 21.12 15.75 36.31Q447.5-428.5 468-418.5q13 6 17.75 19.5t-.25 26.25q-5.5 13.75-18.75 18T439-355.5q-40.5-13-67-47.51-26.5-34.5-26.5-78.13 0-54.86 37.56-92.61t92.2-37.75q38.76 0 70.75 21 31.99 21 49.49 55.5 6 13.37 2 26.94-4 13.56-16.5 20.06ZM406.1-60q-15.77 0-28.81-12.2-13.05-12.2-15.79-28.3l-13.5-92q-13.42-4.11-30.71-13.8Q300-216 289-225l-88 41q-14.88 7-30.5 2.62-15.63-4.39-23.5-19.62L71.5-336.5q-7.5-12.13-4.7-27.56 2.79-15.43 16.2-25.44l82.5-61.5q-1-5.84-1.5-13.94-.5-8.11-.5-14.97 0-5.37.5-14.21t1.5-15.88l-82-60Q69-580.5 66-595.25T72-624l75.38-135.19q7.21-12.6 22.67-17.96 15.45-5.35 29.95.65l92 41.5q9-7.5 25.25-16.75t30.55-13.86L364.5-866q3.01-15.71 14.16-25.6 11.15-9.9 26.84-9.9h150.91q14.27 0 25.23 9.83 10.97 9.83 14.86 25.67l15.93 98.82q13.29 5.07 29.93 14.13Q659-744 670-735l92-41.5q14.5-6 29.11-.61t22.08 17.95l76.62 135.32q7.19 13.84 3.9 29.81Q890.42-578.05 877-570l-110.9 77.61q-15.1 10.89-32.43 7.72-17.34-3.16-28.67-17.83-12-13.96-9.68-32.86 2.32-18.9 17.68-30.14l72.5-52-31-58.5-106 46.5q-22.5-27-53.2-46-30.71-19-65.57-23L516-809h-72.1l-12.4 110.54q-36.89 6.46-66.95 23.96-30.05 17.5-55.05 45L206-676l-32 58.5 91 65.5q-4 18.5-7 36.1-3 17.59-3 35.37 0 18.03 2.75 36.28t6.75 35.75L174-343l31.86 58.5 103.42-46q25.22 26.69 57.97 44.35Q400-268.5 435.5-259.5v170.77q0 13.05-5.22 20.89Q425.05-60 406.1-60Zm72.4-420Zm0 0Z"/></svg>