<svg xmlns="http://www.w3.org/2000/svg" height="48" viewBox="0 -960 960 960" width="48"><path d="M612-59q-37.59 0-64.79-26.91Q520-112.83 520-150v-159q0-36.13 27.21-63.56Q574.41-400 612-400h242q36.13 0 63.56 27.44Q945-345.13 945-309v159q0 37.17-27.44 64.09Q890.13-59 854-59H612Zm0-91h242v-159H612v159ZM407.81-59Q391-59 378.03-70.44 365.07-81.87 362-100l-14-92q-14-4-30.81-14.05Q300.38-216.09 289-225l-84 39q-16.88 9-35.25 3.12Q151.37-188.77 143-206L74-330q-9-14-6-32t19-30l78-58q-1-4.98-1-14.53v-29.97q0-9.46 1-15.5l-78-57q-16-12-20-29.5t7-33.5l69.38-125.19Q152-769 169.5-775.5q17.5-6.5 34.5.5l87 40q9.89-7.45 26.94-17.23Q335-762 348-766l16-95q3-18 15.9-29.5Q392.81-902 411-902h140.41q15.59 0 28.62 11.44Q593.07-879.13 598-861l14 94q14.81 4.05 31.4 14.03Q660-743 671-735l86-40q17.28-7 34.28-.5t25.41 20.34l70.62 125.32Q896-614 892-596.5q-4 17.5-19 29.5l-57 54q-18 13-36.14 20.5-18.13 7.5-37.43 10.5H605.07q-1-50.6-37.83-87.8Q530.42-607 479-607q-53.84 0-90.42 37.05Q352-532.91 352-480.12q0 41.08 24.05 74.79 24.05 33.72 60.95 45.05V-89q0 14.18-5.4 22.09Q426.21-59 407.81-59Z"/></svg>