<svg xmlns="http://www.w3.org/2000/svg" height="40" viewBox="0 -960 960 960" width="40"><path d="M578.46-120q-24.58 0-41.52-16.94Q520-153.88 520-178.46v-163.08q0-24.58 16.94-41.52Q553.88-400 578.46-400h243.08q24.58 0 41.52 16.94Q880-366.12 880-341.54v163.08q0 24.58-16.94 41.52Q846.12-120 821.54-120H578.46Zm0-33.85h243.08q10.77 0 17.69-6.92 6.92-6.92 6.92-17.69v-163.08q0-10.77-6.92-17.69-6.92-6.92-17.69-6.92H578.46q-10.77 0-17.69 6.92-6.92 6.92-6.92 17.69v163.08q0 10.77 6.92 17.69 6.92 6.92 17.69 6.92Zm-18.41-346.84q-5.67 3.84-12.46 2.57-6.8-1.26-10.64-6.93-10.77-15.51-25.36-26.77t-33.49-11.26q-26.17 0-44.62 18.19-18.45 18.19-18.45 44.66 0 18.69 10.57 33.77 10.58 15.08 27.07 23.59 6.18 3.18 8.38 9.99 2.21 6.8-.97 12.73-3.18 5.92-9.91 7.92t-13.07-1.03q-25.59-11.66-40.75-35.1-15.17-23.44-15.17-51.79 0-40.88 28.01-68.83 28.02-27.94 69-27.94 27.53 0 50.63 14.59t35.74 38.54q3.7 6.17 2.43 12.71-1.27 6.54-6.94 10.39ZM425.41-120q-7.02 0-11.99-4.97-4.96-4.96-6.09-12.7l-12.2-97.2q-21.1-6.59-46.12-20.51-25.01-13.93-42.42-29.88l-83.9 37.64q-9.46 3.83-19.01.98t-14.76-12.15l-46.89-81.29q-5.13-9.15-2.97-18.68 2.17-9.52 10.48-15.57l75.1-56q-1.92-11.67-3.15-24.45t-1.23-24.07q0-11.28 1.23-23.93 1.23-12.66 3.15-26.89l-75.1-56q-8.59-6.2-10.23-16.04-1.64-9.83 3.48-18.98l46.13-78.98q5.4-8.85 14.86-11.92 9.45-3.08 18.91.74l83.13 36.36q19.72-16.2 43.23-29.74 23.51-13.54 45.31-20.23l13.18-92.77q2.07-9.95 9.79-16.36 7.73-6.41 17.59-6.41h90.16q9.86 0 17.59 6.41 7.72 6.41 9.79 16.36l12.41 92.87q24.44 8.9 45.43 20.82 20.98 11.92 40.8 29.05l87.34-36.36q8.94-3.82 18.43-.67t14.75 11.85l46.28 79.75q5.13 9.15 3.09 18.83-2.03 9.69-10.53 15.42l-85.38 62.64q-5.95 4.16-11.95 3.13-6-1.02-10.44-6.46-4.43-5.43-3.63-12.1.81-6.67 6.68-11.23l79.16-59.39-39.93-69.13-104.17 43.9q-18.83-20.9-49.04-39.14-30.22-18.24-57.73-22.45l-12.9-110.25h-82.18l-12.46 109.48q-31.72 6.31-57.79 21.14-26.06 14.84-51.29 40.38l-102.38-43.06-39.93 69.13 89.54 66.05q-4.85 14.29-6.92 30.29-2.08 16-2.08 33.05 0 16.72 2.08 31.77 2.07 15.05 6.15 30.1l-88.77 66.9 39.93 69.13 101.61-43.13q24.31 24.68 55.74 40.71 31.44 16.03 66.49 23.8v125.23q0 6.55-3.87 10.86-3.87 4.32-9.59 4.32Zm53.9-360.23Zm0 0Z"/></svg>