<svg xmlns="http://www.w3.org/2000/svg" height="24" viewBox="0 -960 960 960" width="24"><path d="M611-71.87q-37.78 0-64.39-26.61T520-162.87V-309q0-37.78 26.61-64.39T611-400h227.57q37.78 0 64.39 26.61T929.57-309v146.13q0 37.78-26.61 64.39t-64.39 26.61H611Zm0-91h227.57V-309H611v146.13Zm-19.72-318.22q-15.71 8.24-32.38 2.49t-25.01-21.44q-7.76-16.29-21.59-26.69-13.82-10.4-30.98-10.4-23.84 0-40.5 16.24-16.67 16.24-16.67 40.13 0 17.76 10.1 31.42 10.1 13.67 26.62 21.67 15.72 8.47 21.72 24.93 6 16.46-2.48 32.17-8.48 15.72-24.7 21.48-16.21 5.76-32.17-2.24-38.48-17.24-60.82-51.59-22.33-34.36-22.33-77.08 0-58.5 41.32-99.85 41.32-41.35 99.78-41.35 42.33 0 76.95 22.24 34.62 22.24 52.1 60.48 8 15.69 2.38 32.42-5.62 16.73-21.34 24.97ZM406.93-71.87q-18.35 0-32.39-11.88-14.03-11.87-16.19-30.23l-11.76-88.52q-11.19-4.31-21.09-10.34-9.89-6.03-19.46-12.83l-61.76 26q-25.95 11.47-52.15 2.24-26.2-9.24-40.67-33.44l-51.55-90.37q-14.24-23.87-8.24-51.37 6-27.5 27.96-44.22l52.76-40q-.76-6-.76-11.57v-23.16q0-5.57.76-11.61l-52.76-39.76q-22.2-16.72-28.2-44.18t8.48-51.65l51.55-90.13q14.47-23.96 40.55-33.2 26.08-9.24 52.03 2l62.48 26q9.57-6.8 19.65-12.73 10.09-5.92 20.42-10.2l8.24-66.48q3.47-28.2 24.07-46.41 20.6-18.22 48.8-18.22h104.6q28.2 0 48.8 18.22 20.6 18.21 24.07 46.41l8.24 66.48q11.19 4.24 21.09 10.19 9.89 5.94 19.46 12.74l60.24-26q25.95-11.48 52.48-2.11 26.54 9.37 41.1 33.31l51.55 90.13q14.47 24.19 8.74 51.27-5.74 27.08-27.94 44.56l-50.78 38.1q-15.68 11.2-33.95 8.72-18.27-2.48-29.58-18.15-11.32-15.67-8.45-33.86 2.86-18.19 17.76-29.55l38.04-29.05-36.6-63.69-98.53 42q-22-23.72-49.09-39.58-27.1-15.86-58.58-23.62l-13-105.52h-73.98l-13.52 105.28q-31.72 7.76-58.94 23.62-27.21 15.86-49.45 38.82l-98.28-41-36.37 63.69 85.04 63.29q-5 15.47-7.24 30.78-2.24 15.3-2.24 32.65 0 16.24 2.24 31.72t7.24 30.95l-85.04 64.05 36.37 63.69 98.23-41.76q23.81 25 53.69 42t64.64 22.72v157.41q0 15.38-8.36 26.37-8.36 10.98-24.47 10.98Zm73.83-408.89Zm0 0Z"/></svg>