<svg xmlns="http://www.w3.org/2000/svg" height="40" viewBox="0 -960 960 960" width="40"><path d="M595.79-98.67q-31.3 0-53.54-22.24Q520-143.16 520-174.46v-149.75q0-31.3 22.25-53.54Q564.49-400 595.79-400h235.08q31.3 0 53.55 22.25 22.25 22.24 22.25 53.54v149.75q0 31.3-22.25 53.55-22.25 22.24-53.55 22.24H595.79Zm0-51.18h235.08q10.77 0 17.69-6.92 6.93-6.92 6.93-17.69v-149.75q0-10.76-6.93-17.69-6.92-6.92-17.69-6.92H595.79q-10.76 0-17.69 6.92-6.92 6.93-6.92 17.69v149.75q0 10.77 6.92 17.69 6.93 6.92 17.69 6.92Zm-25.41-348.18q-9 5.18-18.59 2.68-9.59-2.51-15.17-12.03-10.92-15.66-25.78-27.01-14.86-11.35-34.3-11.35-26.93 0-45.72 18.48t-18.79 45.38q0 19.01 10.74 34.42T450-422.87q9.7 4.36 12.81 14.58 3.11 10.21-1.4 19.47-4.51 9.26-14.74 12.09t-20.23-1.53q-30.63-13.26-48.11-41.74-17.48-28.49-17.48-61.17 0-48.8 33.12-82.27 33.12-33.48 82.14-33.48 33.36 0 60.92 17.92 27.56 17.92 42.2 46.21 4.69 9.69 2.42 19.64-2.27 9.94-11.27 15.12ZM413.01-98.67q-8.62 0-14.67-6-6.05-6-7.34-15.33l-12.2-98.54q-17.11-5.59-39.75-17.81-22.65-12.23-37.79-26.24l-89.57 39.31q-9.46 4.48-19.34 1.3-9.89-3.18-14.09-12.48l-62.9-111.95q-4.13-8.49-2.96-17.18 1.16-8.69 10.14-14.74l78.1-59.87q-.92-9.37-2.15-21.03-1.23-11.66-1.23-21.37 0-9.7 1.23-20.89 1.23-11.19 2.15-23.84L122.87-583q-8.59-6.21-9.56-15.37-.98-9.17 3.82-18.32l62.13-107.98q4.4-8.18 13.57-11.09 9.18-2.91 18.86-.09l86.13 37.36q17.39-13.87 39.4-26.41 22.01-12.54 41.14-19.23l14.18-96.77q2.02-8.94 9.94-15.36 7.91-6.41 17.44-6.41h120.82q8.6 0 16.62 6.41 8.03 6.42 10.77 15.36l12.74 97.87q21.44 8.24 41.09 19.49 19.66 11.26 37.14 25.39l91.34-37.7q9.16-3.82 18.09-.33 8.92 3.48 13.75 11.51l62.28 108.75q4.13 9.15 2.6 18.33-1.54 9.19-10.03 14.59l-101.72 74.97q-8.28 6.82-18.62 4.97-10.33-1.86-16.76-9.8-6.44-7.94-5.47-18.7.98-10.76 9.85-17.8l83.15-62.38-38.92-69.13-103.84 42.56q-18.83-21.23-50.39-40.27-31.56-19.04-60.65-23.65l-11.63-109.26h-84.51l-11.13 108.16q-34.39 7.3-61.78 22.97-27.4 15.67-52.63 41.54l-99.87-42.05-41.11 69.13 87.87 66.05q-4.84 16.28-6.92 32.28t-2.08 31.85q0 15.59 2.08 31.31 2.08 15.71 6.16 34.1l-87.11 66.56 40.93 69.13 100.28-42.8q24.31 24.02 54.57 40.05 30.27 16.03 63.66 25.47v141.26q0 8.57-5.29 13.19-5.3 4.62-12.24 4.62Zm64.96-382.89Zm0 0Z"/></svg>