<svg xmlns="http://www.w3.org/2000/svg" height="24" viewBox="0 -960 960 960" width="24"><path d="M642.96-40.09q-51.3 0-87.13-35.83Q520-111.74 520-163.04v-114q0-51.3 35.83-87.13T642.96-400h202.56q51.3 0 87.13 35.83t35.83 87.13v114q0 51.3-35.83 87.12-35.83 35.83-87.13 35.83H642.96Zm0-122.95h202.56v-114H642.96v114ZM389.38-40.09q-22.1 0-38.66-13.91-16.56-13.91-19.33-35.74l-11.43-88.74q-4.74-2.87-10-5.96-5.25-3.09-10.39-6.39l-67.61 27.87q-27.26 11.7-55.09 2.35-27.83-9.35-41.96-35.17L61.65-327.17q-14.13-25.26-8.85-53.59 5.29-28.33 28.55-46.02l55.74-42.31q0-3.24.28-6.42.28-3.17.28-6.42 0-3.24-.28-5.61t-.28-5.68l-54.74-41.3q-23.83-17.7-29.39-46.02-5.57-28.33 9.13-54.16l73.26-128.95q14.69-25.26 41.74-34.61 27.04-9.35 54.3 1.78l66.44 26.44q5.67-3 11.81-6.18 6.14-3.17 11.32-6.48l9-70.87q4.13-29.39 26.04-48.58 21.91-19.2 50.74-19.2h146.52q28.83 0 50.74 19.2 21.91 19.19 26.04 48.58l9 71.31q5.74 3.3 12.13 6.61 6.4 3.3 12.13 6.61l64.31-27.44q27.42-12.13 54.84-2.28 27.41 9.85 42.2 35.11l73.26 128.95q14.7 25.83 9.13 54.16-5.56 28.32-29.39 46.02l-37.87 27.69q-16.26 12.13-35.02 18.48T766.42-482H636.46q-.57-65.08-46.16-111.45-45.59-46.38-111.87-46.38-65.95 0-112.17 46.2T320.04-481.5q0 53.63 31.14 94.93 31.14 41.31 79.78 56.22v246.48q0 18.93-10.23 31.35-10.22 12.43-31.35 12.43Z"/></svg>