<svg xmlns="http://www.w3.org/2000/svg" height="24" viewBox="0 -960 960 960" width="24"><path d="M633.17-44.65q-46.93 0-80.05-33.12Q520-110.9 520-157.83v-129q0-46.93 33.12-80.05T633.17-400h217.24q46.93 0 80.05 33.12 33.13 33.12 33.13 80.05v129q0 46.93-33.13 80.06-33.12 33.12-80.05 33.12H633.17Zm0-113.18h217.24v-129H633.17v129ZM391.01-44.65q-20.51 0-36.05-13.05-15.54-13.04-18.03-33.34l-11.76-90.05q-6.04-3.52-12.75-7.4-6.71-3.88-13.18-8.21l-69.57 28.53q-25.95 10.71-52.15 1.85-26.19-8.85-39.67-33.05L65.89-328.8q-13.48-23.96-8.36-50.66 5.12-26.69 27.08-43.41l57.04-43.28q0-4.23.12-8.22t.12-8.21q0-4.22-.12-7.25-.12-3.02-.12-7.3l-56.04-42.28q-22.2-16.72-27.44-43.42-5.24-26.69 8.48-50.89l71.96-126.67q13.72-23.96 39.29-32.82 25.58-8.86 51.53 1.62l66.77 26.76q7.01-4.15 15.09-8.38 8.08-4.22 14.88-8.51l9-71.52q3.48-27.43 24.58-45.65 21.1-18.22 48.29-18.22h143.92q27.19 0 48.29 18.22 21.1 18.22 24.58 45.65l9 72.28q7.04 4.29 15.22 8.57 8.19 4.28 15.23 8.56l65.29-27.76q26.02-11.48 51.88-2.12 25.86 9.36 39.94 33.32l71.96 126.67q13.72 24.2 8.48 50.89-5.24 26.7-27.44 43.42l-46.02 34.21q-14.96 11.48-32.41 17.34Q778.5-482 760.41-482H642q-.24-67.69-47.52-115.69-47.29-48.01-115.72-48.01-68.29 0-116.11 47.82-47.82 47.81-47.82 116.09 0 55.55 31.95 97.67 31.95 42.12 81.89 58.01v241.59q0 17.24-10.09 28.55-10.1 11.32-27.57 11.32Z"/></svg>