<svg xmlns="http://www.w3.org/2000/svg" height="40" viewBox="0 -960 960 960" width="40"><path d="M626.67-50.67q-44.1 0-75.39-31.08Q520-112.84 520-156.67V-294q0-43.13 31.28-74.56Q582.57-400 626.67-400H849q43.12 0 74.56 31.44Q955-337.13 955-294v137.33q0 43.83-31.44 74.92Q892.12-50.67 849-50.67H626.67Zm0-106H849V-294H626.67v137.33Zm-225.73 106q-19.28 0-33.89-12.64Q352.43-75.96 349.33-96l-13-90.33q-10.33-3.34-22.64-10.72-12.31-7.37-21.02-13.95L215-176q-20.92 10.33-43.17 3.08Q149.58-180.18 139-201L68-328.33q-11-18.34-7.17-40.5 3.84-22.17 22.84-36.5l70-52.34q-.67-3.96-.5-11.03.16-7.06.16-11.69 0-3.97-.16-10.78-.17-6.81.5-11.5L84-554q-19.33-14.33-24-36.17Q55.33-612 68-632l71.25-127.46q11.08-18.21 32.42-25.87 21.33-7.67 42.33 1L294-749q7.89-5.45 20.44-12.56Q327-768.67 336.67-772l13.66-86.67q3.67-22.66 19.94-37.16 16.27-14.5 38.73-14.5h143.61q20.72 0 37.08 14.45 16.36 14.46 21.31 37.21l12.33 86q11.21 3.37 23.6 10.69 12.4 7.31 21.07 13.31l78.33-35.66q21.28-9 42.45-1.17 21.16 7.83 32.02 26.06l72.07 127.54q11.13 19.9 6.46 41.73Q894.67-568.33 876-554l-47 42.33q-18 13-36.92 20.34-18.93 7.33-38.99 9.33H613.07q-1-54.27-39.99-93.8-39-39.53-94.41-39.53-56.84 0-95.92 39.38-39.08 39.37-39.08 95.49 0 44.42 26.05 80.3 26.05 35.88 66.28 47.97V-87q0 16.51-7.06 26.42-7.07 9.91-28 9.91Z"/></svg>