<svg xmlns="http://www.w3.org/2000/svg" height="24" viewBox="0 -960 960 960" width="24"><path d="M577.5-137q-24.44 0-40.97-16.53Q520-170.06 520-194.5v-148q0-24.44 16.53-40.97Q553.06-400 577.5-400h228q24.44 0 40.97 16.53Q863-366.94 863-342.5v148q0 24.44-16.53 40.97Q829.94-137 805.5-137h-228Zm0-25.5h228q14 0 23-9t9-23v-148q0-14-9-23t-23-9h-228q-14 0-23 9t-9 23v148q0 14 9 23t23 9Zm-27-340.5q-4.5 3-9.5 2.42-5-.57-8-4.42-11-14-24.88-24.5Q494.23-540 477-540q-25 0-42.5 17.43T417-480q0 17.35 9 30.93 9 13.57 23 22.57 4 3 5.5 8t-1 9.5q-2.5 4.5-8 5.5t-10.5-2q-20.5-11.5-32-31.25T391.5-480q0-35.96 24.5-60.73 24.5-24.77 60.72-24.77 24.41 0 44.09 12.5 19.69 12.5 31.69 33 2.5 4.5 2.25 9.5t-4.25 7.5Zm-122 366q-5.17 0-8.75-3.98t-4.25-9.52l-10.5-97q-21.5-6-47.75-20.25T314-298l-84 36q-7 3-14 1t-11-9l-45.5-77.5q-4-6.5-2.43-13.85 1.57-7.35 7.93-12.15l74.5-55.5q-2.5-11.98-3.75-24.49-1.25-12.51-1.25-25.01 0-11 1.5-23.75l3.5-29.75-74-55q-6.5-4.5-7.75-12.25T161-614l44-74q4.34-6.21 11.17-8.6 6.83-2.4 13.83.1l84 35.5q19.5-16.5 43-30.25t46.8-21.36L416.5-806q1.51-7.71 7.51-12.6 6-4.9 13.49-4.9H523q7.25 0 13.14 4.9 5.9 4.89 7.36 12.6l11.93 93.82q26.07 9.18 45.82 20.93T642-661l90-35.5q6.5-2.5 13.56-.09 7.06 2.42 10.94 8.59l44 75q4 7 2.37 14.16-1.64 7.16-7.87 11.84l-89.5 65.5q-4.46 3-8.98 2.25Q692-520 689-524.5q-3.5-4-2.96-8.74t4.96-8.26l84.5-64-39-67.5-104 43.5q-16-18-46.5-36t-54-23L520-798h-80l-11.5 108.54q-31 6.46-54.75 19.46t-50.25 39.5L224-673l-40 67.5 87 64.5q-5 13.5-7 29.32t-2 31.88q0 15.78 1.75 30.04t5.75 29.26L184-355l39.86 67.5 98.64-42q24 23.5 54.25 38.75t63.75 23.25v117q0 5.56-3.72 9.53-3.73 3.97-8.28 3.97Zm50-343Zm0 0Z"/></svg>