<svg xmlns="http://www.w3.org/2000/svg" height="20" viewBox="0 -960 960 960" width="20"><path d="M610.62-104q-38.34 0-60.48-22.14Q528-148.27 528-186.62v-114.76q0-38.34 22.14-60.48Q572.28-384 610.62-384h218.76q38.35 0 60.48 22.14Q912-339.72 912-301.38v114.76q0 38.35-22.14 60.48Q867.73-104 829.38-104H610.62Zm0-58h218.76q10.77 0 17.7-6.92 6.92-6.93 6.92-17.7v-114.76q0-10.77-6.92-17.7-6.93-6.92-17.7-6.92H610.62q-10.77 0-17.7 6.92-6.92 6.93-6.92 17.7v114.76q0 10.77 6.92 17.7 6.93 6.92 17.7 6.92ZM584-498.62q-11.31 6.16-22.03 2.6t-17.28-15.06q-13.52-18.13-31.56-33.02-18.05-14.9-40.65-14.9-32.21 0-53.88 22.66-21.68 22.67-21.68 54.46 0 22.06 13.62 39.59 13.61 17.52 31.31 26.52 11.3 5.15 16.84 16.85 5.54 11.69.89 23-4.66 11.3-16.85 13.46-12.19 2.15-23.5-1-35.96-14.76-58.13-47.59-22.18-32.84-22.18-70.5 0-56.9 38.77-96.17Q416.45-617 472-617q38.83 0 69.57 22.58 30.74 22.57 49.89 55.5 4.16 11.3 4 22.73-.15 11.42-11.46 17.57ZM427.14-104q-8.06 0-13.44-4.49-5.39-4.48-6.55-12.28l-14.23-91.92q-23.15-8.77-51.7-23.61-28.55-14.84-48.6-34.08L194-234.46q-2.69-.39-6.27-1.27-3.58-.89-3.65-4.12l-60.16-108.3q-.07-3.23-1.01-4.24-.94-1 .78-4.15l77.85-67q-1.77-13.74-3.92-28.79-2.16-15.05-2.16-29.05 0-13.99 2.16-28.31 2.15-14.32 3.92-30.77l-76.85-65q-2-3.31-.54-5.12 1.47-1.8 1.54-5.04l59.39-103q.27-2.78 3.25-3.39 2.98-.61 5.67-1.99l93.85 33.15q22.92-19.92 50.77-34.92 27.84-15 54.53-25.54L412.23-853q2.23-1.92 5.33-3.46 3.09-1.54 5.59-1.54h113.7q2.5 0 5.59 1.54 3.1 1.54 5.33 3.46l18.31 103.46q28 12.08 53.65 25.54 25.65 13.46 49.35 34.15L769.31-724q2.69.38 4.83 1.48 2.15 1.1 3.32 3.9l59.39 103.77q.07 3.23.22 5.48.14 2.25-1.76 3.91l-118.93 97.23q-7.07 8.61-20.23 6.6t-21.92-10.25q-8-7.58-7.2-19.72.79-12.13 9.97-21.32L763.77-625 746-655l-98.08 30.77q-22.15-27.92-59.12-49.64t-72.57-25.82L499-800h-39.77l-15.46 98.54q-41.23 6.46-74.58 25.81-33.34 19.34-61.42 52.42L214-655l-19.77 30L268-557.23q-6 20.46-9.5 39.73-3.5 19.27-3.5 35.49 0 17.2 3 36.61 3 19.4 8.23 41.63l-72 66.77L213-307l94-31q27 29.23 62.38 47.08 35.39 17.84 73.62 29.15v146.08q0 7.29-4.99 9.49t-10.87 2.2Zm49.32-377.23Zm0 0Z"/></svg>