<svg xmlns="http://www.w3.org/2000/svg" height="24" viewBox="0 -960 960 960" width="24"><path d="M606-100q-36.72 0-61.36-24.64Q520-149.27 520-186v-128q0-36.73 24.64-61.36Q569.28-400 606-400h216q36.72 0 61.36 24.64Q908-350.73 908-314v128q0 36.73-24.64 61.36Q858.72-100 822-100H606Zm0-54h216q14 0 23-9t9-23v-128q0-14-9-23t-23-9H606q-14 0-23 9t-9 23v128q0 14 9 23t23 9Zm-197.79 54q-7.35 0-13.14-5.41-5.79-5.41-7.07-13.59l-11-100q-15-5-36.78-16.45Q318.44-246.91 305-260l-90 38q-9 3-18.5.5T183-233l-66-118q-4-9-3-17.5t9-14.5l76-57q-1-9.94-2.5-21.03-1.5-11.09-1.5-21.03 0-8.94 1.5-18.44Q198-510 199-524l-75-56q-8-6-8.5-15t3.5-18l65-112q4-8 13-11t18 0l85 35q17-14 38-25.5t39-18.5l13-95q2-9 9.5-15.5T416-862h127q9 0 17 6.5t10 15.5l12 97q21 9 38.5 18.5T656-700l91-36q9-4 17.72-.5Q773.43-733 778-725l65 113q4 9 2.5 18t-9.5 14l-60 44q2 5 2.5 9t1.5 9q-1 15-15 25.5T735-482l-146.93-1q0-47.6-33.04-81.3Q522-598 474-598q-47 0-81 34t-34 81.01q0 34.95 18.55 63.16Q396.1-391.61 427-378v260q0 8-6 13t-12.79 5Z"/></svg>