<svg xmlns="http://www.w3.org/2000/svg" height="48" viewBox="0 -960 960 960" width="48"><path d="M585.87-79.02q-26.67 0-46.27-19.53t-19.6-46.1v-189.72q0-26.32 19.6-45.97Q559.2-400 585.87-400h270.67q26.32 0 45.98 19.66 19.65 19.65 19.65 45.97v189.72q0 26.57-19.65 46.1-19.66 19.53-45.98 19.53H585.87Zm0-65.63h270.67v-189.72H585.87v189.72Zm-2.97-347.92q-11.6 6.24-23.28 3.28-11.68-2.96-18.01-13.99-10.52-18.52-26.59-31.55-16.07-13.02-36.53-13.02-28.25 0-48.03 19.51-19.79 19.5-19.79 47.58 0 22.64 14.61 39.73 14.61 17.1 35.87 26.33 10.72 5.24 15.85 16.46 5.13 11.22.89 22.07-4.74 11.84-16.09 16.47-11.34 4.63-23.56.4-38.98-13-63.58-46.52-24.59-33.52-24.59-75.05 0-53.55 36.75-90.57 36.75-37.02 90.25-37.02 37.71 0 69.32 20.24 31.61 20.24 48.35 54.74 5.24 11.19 2 23.18-3.24 12-13.84 17.73ZM416.3-79.02q-14.05 0-24.18-9.79-10.13-9.79-12.36-23.86l-14.26-92.76q-17.66-6.31-38.54-17.95-20.87-11.64-35.68-23.69l-88.76 41q-12.69 5.48-25.36 1.77-12.68-3.71-19.51-15.72L92.8-335.74q-6.73-10.89-3.94-23.52 2.8-12.62 13.92-21.11l83.26-61.5q-1.76-8.23-2.26-18.54-.5-10.32-.5-19.57 0-7.75.5-18.8.5-11.06 2.26-20.35l-82.76-60.76q-11.45-8.22-14.45-20.69-3-12.46 4.47-24.18l64.44-115.26q6.74-11.23 19.54-15.44 12.79-4.21 25 1.03l90.48 41.5q13.57-11.31 33.62-22.84 20.05-11.53 38.92-17.67l15.94-99.63q2.25-12.66 11.95-20.65 9.7-8 22.2-8h130.06q12.29 0 21.71 7.98 9.41 7.98 11.84 20.67l15.93 98.06q17.69 6.68 38.22 17.98 20.52 11.29 34.57 24.1l91.24-41.5q12.21-5.24 24.3-1.02 12.08 4.22 18.75 15.43l65.5 115.3q6.66 11.68 3.74 24.8-2.92 13.12-14.03 20.03l-99.19 70.68q-10.83 7.93-22.97 6.03-12.13-1.9-20.55-13.02-8.58-10.15-7.04-23.62 1.54-13.46 12.38-21.88l74.78-54.28-37.09-68.39-106.76 46.5q-22.5-25.48-51.71-43.34-29.22-17.86-63.05-22.62l-13.93-112.02h-84.2l-13.24 112.06q-35.45 7.22-63.94 23.58-28.49 16.36-52.73 42.34l-105.02-46.5-38.09 68.39 93.28 67.78q-4 17.74-6.62 34.37-2.62 16.62-2.62 33.3 0 17.27 2.37 34t6.37 34.23l-92.78 67.78 37.95 68.39 105.11-46q25.81 26.05 58.94 43.26 33.13 17.22 69.39 25.46v153.44q0 9.26-4.46 15.1-4.47 5.85-15.5 5.85Zm62.96-401.74Zm0 0Z"/></svg>