<svg xmlns="http://www.w3.org/2000/svg" height="24" viewBox="0 -960 960 960" width="24"><path d="M642.96-40.09q-51.3 0-87.13-35.83Q520-111.74 520-163.04v-114q0-51.3 35.83-87.13T642.96-400h202.56q51.3 0 87.13 35.83t35.83 87.13v114q0 51.3-35.83 87.12-35.83 35.83-87.13 35.83H642.96Zm0-122.95h202.56v-114H642.96v114Zm-42.31-312.85q-20 9.72-40.4 2.56-20.41-7.15-31.03-27.28-7.6-15.74-20.79-25.61-13.2-9.87-29.79-9.87-23.03 0-38.94 15.53-15.92 15.52-15.92 38.36 0 17.77 11.13 31 11.13 13.24 27 21.24 20.57 10.57 27.22 31.35 6.65 20.78-3.35 41.35-10.56 20-31.28 26.37-20.72 6.37-41.28-3.07-43.78-19.92-69.89-59.48-26.11-39.56-26.11-87.99 0-66.79 47.07-114.01 47.07-47.21 113.66-47.21 48.22 0 87.25 25.87 39.02 25.87 59.45 69.17 9 20 2.5 41t-26.5 30.72ZM388.88-40.09q-21.78 0-38.36-14-16.58-14.01-19.13-35.65l-11.43-88.74q-4.98-2.93-10.11-5.99-5.14-3.06-10.28-6.36l-67.61 27.87q-27.26 12.13-55.09 2.57-27.83-9.57-41.96-35.39L61.65-327.17q-14.13-25.06-8.85-52.99 5.29-27.93 28.55-45.62l55.74-43.31q0-3.11.28-6.31.28-3.21.28-6.23 0-3.02-.28-5.89-.28-2.86-.28-5.7l-54.74-41.3q-23.83-17.7-29.39-46.02-5.57-28.33 9.13-54.16l73.26-128.95q14.69-25.26 41.74-34.61 27.04-9.35 54.3 1.78l66.44 26.44q5.67-3 11.81-6.18 6.14-3.17 11.32-6.48l9-70.87q4.13-29.39 26.04-48.58 21.91-19.2 50.74-19.2h146.52q28.83 0 50.74 19.2 21.91 19.19 26.04 48.58l9 71.31q5.98 3.21 12.25 6.56 6.28 3.35 12.01 6.66l64.31-27.44q27.42-12.13 54.73-2.26 27.32 9.87 42.31 35.09l73.26 128.95q14.7 25.83 8.85 54.16-5.85 28.32-29.67 46.02l-73.26 54.56q-20.4 15.13-45.5 11.35-25.11-3.78-41.09-24.11-15.41-20.89-11.78-45.89 3.63-25 24.32-40.91l41.05-31.05-32.92-57.82-97.33 41.13q-22.1-25.7-51.06-42.56-28.96-16.86-62.74-24.14l-12.56-104.43h-69l-11.44 102.87q-35 8.43-64.63 25.72-29.63 17.28-52.19 41.97l-95.44-40.56-33.22 57.82 81.87 62.31q-5.56 19-7.84 34.72-2.29 15.72-2.29 32.13 0 15.24 2.29 31.8 2.28 16.57 7.84 36.44l-81.87 62.3 33.22 57.83 95.75-41q23.88 23.48 52.5 40.8 28.62 17.33 61.19 25.89v183.43q0 18.74-10.26 31.29-10.26 12.54-31.82 12.54ZM479-481.87Zm0 0Z"/></svg>