<svg xmlns="http://www.w3.org/2000/svg" height="24" viewBox="0 -960 960 960" width="24"><path d="M600-80q-33 0-56.5-23.5T520-160v-160q0-33 23.5-56.5T600-400h240q33 0 56.5 23.5T920-320v160q0 33-23.5 56.5T840-80H600Zm0-80h240v-160H600v160ZM411-80q-17 0-30-11t-15-28l-12-89q-13-5-24.5-12T307-235l-62 26q-25 11-50 2t-39-32l-47-82q-14-23-8-49.5t27-42.5l53-40q-1-7-1-13.5v-27q0-6.5 1-13.5l-53-40q-21-16-27-42.5t8-49.5l47-82q14-23 39-32t50 2l62 26q11-8 23-15t24-12l8-66q3-27 23-44.5t47-17.5h96q27 0 47 17.5t23 44.5l8 66q13 5 24.5 12t22.5 15l60-26q25-11 50.5-2t39.5 32l47 82q14 23 8.5 49T832-547l-67 51q-11 8-22.5 12t-25.5 4h-94q0-58-41.5-99T482-620q-59 0-99.5 40.5T342-480q0 48 27.5 84t70.5 50v232q0 14-8 24t-21 10Z"/></svg>