<svg xmlns="http://www.w3.org/2000/svg" height="24" viewBox="0 -960 960 960" width="24"><path d="M641-56q-50.94 0-85.97-35.03T520-177v-102q0-50.94 35.03-85.97T641-400h188q50.94 0 85.97 35.03T950-279v102q0 50.94-35.03 85.97T829-56H641Zm0-121h188v-102H641v102ZM397-56q-22.5 0-38.75-14.25T339-106.5l-10.5-85q-5-2.5-11.75-5.75T305-203.5l-67.5 28q-24.5 10.5-50 2.5t-39-32L76-332.5q-12.5-23-7.75-48.75T94.5-423.5l59-45.5v-11q0-2 .25-5t.25-8l-58.5-43Q73-552.5 68-578t8.5-50l72-126q13.59-22.79 38.8-31.15 25.2-8.35 49.7 1.65l71.5 29q4-3 8.25-5.5t11.75-5.5L339-843q4.51-27.21 23.76-44.6Q382-905 409-905h142.5q27.18 0 46.11 17.4Q616.54-870.21 621-843l10.5 76q6 2.5 11.25 5.25T653-754.5l70.5-29q24.5-11 49.79-2.15Q798.58-776.79 812-754l72 126q13.5 24 8.36 49.98-5.14 25.98-27.86 42.02l-45 32q-16 11.5-34.5 17.5t-37 6H611.5q-1-56.5-40-95.5t-94.77-39q-56.73 0-95.98 39.25Q341.5-536.5 341.5-480q0 46.4 27.5 82.2 27.5 35.8 70.5 47.8v249.5q0 18.56-8.81 31.53Q421.88-56 397-56Z"/></svg>