<svg xmlns="http://www.w3.org/2000/svg" height="24" viewBox="0 -960 960 960" width="24"><path d="M626-48q-43.72 0-74.86-31.14T520-154v-140q0-43.73 31.14-74.86Q582.28-400 626-400h228q43.72 0 74.86 31.14Q960-337.73 960-294v140q0 43.72-31.14 74.86T854-48H626Zm0-106h228v-140H626v140ZM392.21-48q-19.35 0-34.14-12.41T341-92l-12-91q-7-4-14.78-8.45-7.78-4.46-15.22-9.55l-71 29q-25 10-50 1.5T140-202L69-330q-13-23-8-48.5T87-420l58-44v-36l-57-43q-21-16-26-41.5t8-48.5l71-125q13-23 37.5-31.5T228-788l67 27q8-5 17.5-10t17.5-10l9-72q3-26 23.5-43.5T409-914h142q26 0 46.5 17.5T621-853l9 73q8 5 17.5 10t17.5 10l66-28q25-11 49.72-2 24.71 9 38.28 32l71 125q13 23 8 48.5T872-543l-52 39q-14 11-30.5 16.5T756-482H646.07q0-69.6-48.54-118.8Q549-650 479-650t-119 49q-49 49-49 119.01 0 56.95 32.55 99.66Q376.1-339.61 427-323v238q0 16-10 26.5T392.21-48Z"/></svg>