<svg xmlns="http://www.w3.org/2000/svg" height="48" viewBox="0 -960 960 960" width="48"><path d="M597.54-62.8q-30.84 0-54.19-23.28Q520-109.36 520-140.11V-322.7q0-30.49 23.35-53.9Q566.7-400 597.54-400h266.35q30.5 0 53.9 23.4 23.41 23.41 23.41 53.9v182.59q0 30.75-23.41 54.03-23.4 23.28-53.9 23.28H597.54Zm0-77.31h266.35V-322.7H597.54v182.59ZM408.87-62.8q-15.69 0-26.62-10.28-10.94-10.27-13.4-26.16l-14.76-94.28q-15.52-5.52-34.21-16.26-18.69-10.74-32.4-21.31l-88.57 40.52q-14.68 6.72-30.11 1.89t-22.76-18.84L76.28-333.8q-7.48-12.48-4.86-27.06 2.62-14.57 16.34-25.05l81.04-60.29q-1-6.47-1.38-17.19-.38-10.72-.38-18.19 0-6.47.38-16.72.38-10.26 1.38-17.79l-81.04-59.28q-12.96-9.72-16.19-24.17-3.24-14.46 5.47-28.18l69.85-125.8q7.39-12.44 22.23-17.41 14.84-4.98 29.55.5l87.76 40.76q13.02-10.16 32.32-21.24 19.29-11.09 35.34-16.61l16-97.28q2.24-14.2 13.69-23.8 11.46-9.6 26.46-9.6H551.1q13.62 0 25.1 9.59 11.49 9.58 14.95 23.81l14.76 97.04q16.48 5.53 36.05 16.67 19.56 11.13 32.08 21.42l88.29-40.76q14.78-6.24 28.9-.89 14.12 5.36 21.89 17.8l70.91 125.84q7.4 13.68 3.79 28.14-3.62 14.45-15.58 24.17l-69.94 64.65q-15.71 12.24-32.22 18.98-16.51 6.74-34.07 9.74H617.24q-.24-57.45-40.65-98.07-40.4-40.63-97.59-40.63-58.53 0-99.23 40.82-40.7 40.81-40.7 99.09 0 45.55 25.95 81.17 25.95 35.62 66.65 49.44v263.46q0 11-5.47 17.46-5.48 6.46-17.33 6.46Z"/></svg>