<svg xmlns="http://www.w3.org/2000/svg" height="24" viewBox="0 -960 960 960" width="24"><path d="M621-70.78q-42.24 0-71.62-29.38Q520-129.54 520-171.78V-299q0-42.24 29.38-71.62Q578.76-400 621-400h210.61q42.24 0 71.62 29.38 29.38 29.38 29.38 71.62v127.22q0 42.24-29.38 71.62-29.38 29.38-71.62 29.38H621Zm0-101h210.61V-299H621v127.22Zm-216.61 101q-19.89 0-34.4-12.73-14.51-12.73-17.08-32.12l-10.93-85.87q-8.48-3.8-18.06-8.79-9.57-4.99-17.18-10.17l-67.94 28q-22.76 9.64-46.08 2.07-23.33-7.57-35.96-29.39L92.52-332.07q-12.06-21.26-7.31-45.27 4.75-24.01 24.51-39.2l59.43-45.5q-.43-4.22-.43-7.97V-480q0-3.74.25-8.48t.68-11.48l-58.93-43.43q-20.33-15.2-25.33-38.96t7.63-46.08l63.74-111.22q12.72-21.06 35.97-28.98 23.25-7.91 46.01 1.65l70.63 29q6.61-5.17 14.34-9.63 7.72-4.46 18.27-8.76L352.04-833q3.64-25.04 21.8-41.13 18.16-16.09 42.99-16.09h126.84q25.01 0 42.85 16.09T607.96-833l10.06 75.13q9.48 3.8 17.56 8.51 8.07 4.71 15.68 11.38l70.07-29q22.76-10.13 46.09-1.93 23.34 8.2 35.88 29.26l63.74 111.22q12.64 21.82 7.71 45.84-4.92 24.03-25.47 39.2l-59.78 43.74q-13.39 9.76-28.63 14.67-15.24 4.91-31.13 4.91H612.8q-.56-56.5-39.78-95.71Q533.8-615 478.04-615q-56.74 0-95.99 39.25Q342.8-536.5 342.8-480q0 46.4 27.29 81.77 27.28 35.36 69.84 47.8v241.23q0 15.96-8.15 27.19-8.16 11.23-27.39 11.23Z"/></svg>