<svg xmlns="http://www.w3.org/2000/svg" height="24" viewBox="0 -960 960 960" width="24"><path d="M633.17-44.65q-46.93 0-80.05-33.12Q520-110.9 520-157.83v-129q0-46.93 33.12-80.05T633.17-400h217.24q46.93 0 80.05 33.12 33.13 33.12 33.13 80.05v129q0 46.93-33.13 80.06-33.12 33.12-80.05 33.12H633.17Zm0-113.18h217.24v-129H633.17v129Zm-28.28-319.85q-20 9.88-40.63 2.58-20.63-7.3-31.13-27.47-7.95-16.71-22.13-27.4-14.17-10.68-31.97-10.68-24.73 0-41.94 16.63-17.22 16.63-17.22 41.09 0 18.17 10.48 32.71 10.48 14.55 27 22.55 20.24 10.24 27.38 30.85 7.14 20.62-2.86 40.86-10.24 20-31.12 27.03-20.88 7.02-41.12-2.74-44.51-20.32-70.25-60.82-25.75-40.51-25.75-89.27 0-68.41 48.25-116.77t116.5-48.36q49.42 0 89.59 26.52 40.16 26.52 60.92 70.8 9 20 2.5 41t-26.5 30.89ZM390.59-44.65q-20.66 0-35.98-13.09-15.32-13.08-17.68-33.3l-11.76-90.05q-6.14-3.54-12.8-7.41-6.66-3.87-13.13-8.2l-69.57 28.53q-25.95 11.47-52.15 2.24-26.19-9.24-39.67-33.44L65.89-328.8q-13.48-23.87-8.36-50.11 5.12-26.24 27.08-42.96l57.04-44.28q0-4.14.12-8.13.12-3.98.12-7.87t-.12-7.53q-.12-3.64-.12-7.45l-56.04-42.28q-22.2-16.72-27.44-43.42-5.24-26.69 8.48-50.89l71.96-126.67q13.72-23.96 39.29-32.82 25.58-8.86 51.53 1.62l66.77 26.76q7.01-4.15 15.09-8.38 8.08-4.22 14.88-8.51l9-71.52q3.48-27.43 24.58-45.65 21.1-18.22 48.29-18.22h143.92q27.19 0 48.29 18.22 21.1 18.22 24.58 45.65l9 72.28q7.14 4.25 15.27 8.55 8.14 4.3 15.18 8.58l65.29-27.76q26.02-11.48 51.83-2.11 25.82 9.37 39.99 33.31l71.96 126.67q13.72 24.2 8.36 50.89-5.36 26.7-27.56 43.42l-71.95 54.24q-18.44 14.47-41.75 10.85-23.32-3.61-38.16-22.31-14.59-18.94-11.13-42.26 3.45-23.33 22.21-38.02l43.33-33.33-35.85-63.69-97.72 40.47q-22.04-24.71-50.68-41.25-28.63-16.53-62.08-24.46l-12.24-104.76h-76.5l-11.76 103.52q-35 8.76-63.98 25.88-28.98 17.12-51.22 40.83l-95.76-40.23-37.13 63.69 82.52 63.28q-5.23 19-7.35 34.31-2.12 15.3-2.12 30.57 0 14.28 2.12 30.51 2.12 16.24 7.35 36.77l-82.52 63.28 37.13 63.69 96.47-41q23.95 23.21 52.5 40.34 28.55 17.14 60.79 25.38v178.39q0 17.34-10.11 28.7-10.1 11.37-27.97 11.37ZM479-482.52Zm0 0Z"/></svg>