<svg xmlns="http://www.w3.org/2000/svg" height="40" viewBox="0 -960 960 960" width="40"><path d="M626.67-50.67q-44.1 0-75.39-31.08Q520-112.84 520-156.67V-294q0-43.13 31.28-74.56Q582.57-400 626.67-400H849q43.12 0 74.56 31.44Q955-337.13 955-294v137.33q0 43.83-31.44 74.92Q892.12-50.67 849-50.67H626.67Zm0-106H849V-294H626.67v137.33Zm-41-326.16q-15.34 7.5-30.1 3.2Q540.8-483.92 532-500q-8.38-16.15-22.16-26.74-13.77-10.59-31.42-10.59-24.41 0-40.58 16.23-16.17 16.24-16.17 40.69 0 19.74 14 33.58 14 13.83 33 23.16 16.85 7.52 21.59 23.59 4.74 16.08-1.93 32.41-7.66 15.34-22.83 19.84-15.17 4.5-32.17-1.84-41.48-14.73-67.74-50.4-26.26-35.68-26.26-80.84 0-58.05 39.98-98.4 39.98-40.36 97.98-40.36 41.46 0 75.25 22.34 33.79 22.33 51.13 59 7.66 15.84 2.5 31.92-5.17 16.08-20.5 23.58ZM400.45-50.67q-17.78 0-33.07-13.19Q352.1-77.04 349.33-96l-13-90.33q-10.75-3.44-22.87-10.62-12.12-7.17-20.79-14.05L215-176q-20.92 10.33-43.17 3.08Q149.58-180.18 139-201L68-328.33q-11-17.97-7.17-40.15 3.84-22.19 22.84-35.85l70-53.53q-.67-3.56-.5-10.54.16-6.99.16-11.76 0-4.78-.16-11.42-.17-6.64.5-11.09L84-554q-19.33-14.33-24-36.17Q55.33-612 68-632l71.25-127.46q11.08-18.21 32.31-25.87 21.22-7.67 42.44 1L294-749q7.89-5.45 20.44-12.56Q327-768.67 336.67-772l13.66-86.67q3.62-22.66 19.92-37.16 16.29-14.5 38.75-14.5h143.61q20.45 0 36.94 14.45 16.5 14.46 21.45 37.21l12.33 86q11.62 3.21 23.81 10.61 12.19 7.39 20.86 13.39l78.33-35.66q21.5-9 42.37-1.13 20.87 7.87 32.1 26.02l72.07 127.54q11.13 19.9 6.31 42.23-4.83 22.33-23.51 35.67l-90.6 64.41q-18.74 11.92-39.46 9.14-20.72-2.77-33.78-20.05-12.5-18.5-10.3-39.74 2.19-21.24 20.8-34.76l57.34-40.67-31-56-102.82 45.34q-22.85-27.67-53-46.3-30.15-18.63-65.96-23.04l-13.22-108h-67.73l-12.27 107.34q-34.93 7.33-66.13 25.16-31.21 17.84-54.87 43.84l-100.82-44.34-30.85 56 88.33 64.34q-5.33 17.66-7.83 34.94-2.5 17.28-2.5 36.58 0 18.48 2.5 36.14 2.5 17.67 7.83 34l-88.33 65 30.67 56 100.78-45q25.12 26.42 56.5 44.71T436-262.33v175.32q0 15.83-7.21 26.09-7.21 10.25-28.34 10.25ZM479-480.33Zm0 0Z"/></svg>