<svg xmlns="http://www.w3.org/2000/svg" height="48" viewBox="0 -960 960 960" width="48"><path d="M576.15-103.08q-22.77 0-39.46-16.69T520-159.23v-184.62q0-22.77 16.69-39.46T576.15-400h264.62q22.77 0 39.46 16.69t16.69 39.46v184.62q0 22.77-16.69 39.46t-39.46 16.69H576.15Zm0-43.84h264.62q5.38 0 8.84-3.47 3.47-3.46 3.47-8.84v-184.62q0-5.38-3.47-8.84-3.46-3.46-8.84-3.46H576.15q-5.38 0-8.84 3.46t-3.46 8.84v184.62q0 5.38 3.46 8.84 3.46 3.47 8.84 3.47Zm-153 43.84q-9.84 0-16.65-6.91-6.81-6.92-8.5-17.28l-13.35-95.31q-20.73-6.81-45.03-20.4-24.31-13.6-41.47-28.52l-88.42 40.61q-9.88 4.04-19.33 1.31-9.44-2.73-14.59-11.81l-55.73-97.96q-5.16-8.38-3.03-17.82 2.12-9.44 10.99-16.1l81.77-60.34q-2.19-10.71-2.98-22.68-.79-11.98-.79-23.33 0-9.84.79-22.46.79-12.61 2.79-24.92l-81.27-60.23q-8.96-5.96-11.1-15.69-2.13-9.73 3.71-18.62l54.85-96.3q5.25-8.49 14.8-11.67 9.54-3.18 18.93.47l89.04 40.16q17.5-14.23 40.57-27.73 23.08-13.5 44.92-20.31L399-835.54q2.01-9.59 9.43-15.64 7.42-6.05 16.8-6.05h109.65q9.37 0 16.76 6.05 7.39 6.05 9.36 15.64l14.97 97.82q21.76 8.14 44.09 20.72 22.32 12.58 40.02 28.12l91.96-40.16q8.81-3.65 18.08-.47 9.27 3.18 14.34 11.67l55.46 96.69q5.16 9.07 2.44 18.1-2.71 9.03-10.02 15.82L747.81-515q.19 1.92.67 3.46.48 1.54.87 3.46-8.39 11.27-19.66 18.16-11.27 6.88-26.38 9.11l-115.04-.38q0-45.89-32.33-77.92-32.33-32.04-77.67-32.04-46.62 0-78.81 32.25-32.19 32.25-32.19 78.52 0 35.14 19.65 62.99 19.64 27.86 50.73 39.77v258.73q0 7.29-3.84 11.55-3.84 4.26-10.66 4.26Z"/></svg>