<svg xmlns="http://www.w3.org/2000/svg" height="20" viewBox="0 -960 960 960" width="20"><path d="M588.27-124.08q-28.44 0-44.35-15.91Q528-155.91 528-184.35v-139.38q0-28.44 15.92-44.35Q559.83-384 588.27-384h235.38q28.44 0 44.36 15.92 15.91 15.91 15.91 44.35v139.38q0 28.44-15.91 44.36-15.92 15.91-44.36 15.91H588.27Zm0-47.96h235.38q5.39 0 8.85-3.46t3.46-8.85v-139.38q0-5.39-3.46-8.85t-8.85-3.46H588.27q-5.39 0-8.85 3.46t-3.46 8.85v139.38q0 5.39 3.46 8.85t8.85 3.46Zm-145.69 47.96q-9.08 0-15.96-5.56-6.89-5.55-8.5-14.71L404-229.19q-26.27-9.7-54.52-24.64-28.25-14.94-49.56-34.02l-87.46 31.08q-5.31.38-11.11-1.19-5.81-1.58-8.43-6.96l-43.42-74.73q-2.61-5.2-2.11-10.37.5-5.17 4.76-10.4l71.58-61.35q-2.57-13.59-4.06-27.6-1.48-14.01-1.48-30.25 0-13.73 1.73-28.44 1.74-14.71 4.12-31.79l-71.08-60.23q-4.27-5.04-4.82-10.25-.56-5.21 2.25-10.9l42.53-73.08q2.71-4.79 8.63-6.82 5.91-2.02 11.22-1.52l88.08 31.5q21.65-19.27 47.73-33.87 26.07-14.59 55.04-25.17l17.65-94.42q2.13-5.64 6.54-8.88 4.42-3.24 10.84-3.24h82.81q6.41 0 10.8 3.24 4.39 3.24 6.47 8.88l17.46 93.69q28.62 10.84 53.44 24.83 24.83 13.98 47.68 34.94l92.38-31.5q5.12-.5 10.62 1.52 5.5 2.03 8.04 6.82l42.53 73.46q2.62 5.39 1.63 10.89-.98 5.49-5.28 9.88l-71.77 60.39q2.58 5.92 3.87 15.46 1.28 9.54 1.67 20.46 5.61 24.04-3.92 36.06-9.54 12.02-28.04 12.02l-117.12-.39q1-6 1.5-12.5t.5-12.5q0-50.23-34.42-84.55-34.42-34.33-84.12-34.33-49.46 0-84.13 34.67-34.67 34.68-34.67 83.91 0 44.32 28.71 77.73 28.71 33.42 71.21 39.46v227.15q0 6.87-3.96 9.91-3.97 3.05-9.96 3.05Z"/></svg>