<svg xmlns="http://www.w3.org/2000/svg" height="40" viewBox="0 -960 960 960" width="40"><path d="M609.42-56.75q-36.21 0-62.81-26.56Q520-109.87 520-146.01v-164.73q0-35.97 26.61-62.62Q573.21-400 609.42-400H859.4q35.97 0 62.62 26.64 26.64 26.65 26.64 62.62v164.73q0 36.14-26.64 62.7-26.65 26.56-62.62 26.56H609.42Zm0-89.26H859.4v-164.73H609.42v164.73Zm-206.5 89.26q-17.3 0-29.77-11.2-12.47-11.2-14.94-28.56l-13.76-92.87q-12.36-4.85-27.06-13.3-14.69-8.45-25.99-16.94l-82.23 36.52q-18.45 8.05-37.46 1.88-19.02-6.18-28.4-23.58L72.82-332.14q-9.48-16.3-6.03-34.92 3.46-18.61 19.92-31.17l73.04-54.62q-.66-5.72-.88-14.2-.21-8.47-.21-14.86 0-5.73.21-13.57.22-7.84.88-14.29l-72.71-53.61q-16.03-12.06-19.94-30.59-3.9-18.54 6.48-35.75l70.55-126.09q9.5-16.28 27.92-22.55 18.41-6.27 36.88.87l80.76 36.1q11.01-8.15 26.57-16.95 15.56-8.8 28.52-13.91l13.67-88.7q2.65-18.61 17.32-31.08 14.67-12.47 33.74-12.47h141.87q18.15 0 32.84 12.46 14.69 12.46 18.16 31.09l12.84 88.79q13.33 5.12 29.1 13.97 15.77 8.85 26.47 17.13l80.62-36.43q18.53-7.98 36.56-1.29t27.91 22.97l71.26 126.12q9.5 17.18 5.35 35.72-4.16 18.53-19.53 30.59l-61.97 54.5q-15.46 11.99-32.29 18.43-16.82 6.45-34.56 8.45H625.49q-.23-60.86-42.94-103.94-42.7-43.09-103.63-43.09-61.78 0-104.86 43.15-43.07 43.15-43.07 104.76 0 48.88 27.95 86.67 27.95 37.78 71.73 52.3v256.16q0 13.08-7.01 21.16-7.02 8.08-20.74 8.08Z"/></svg>