<svg xmlns="http://www.w3.org/2000/svg" height="48" viewBox="0 -960 960 960" width="48"><path d="M585.87-79.02q-26.67 0-46.27-19.53t-19.6-46.1v-189.72q0-26.32 19.6-45.97Q559.2-400 585.87-400h270.67q26.32 0 45.98 19.66 19.65 19.65 19.65 45.97v189.72q0 26.57-19.65 46.1-19.66 19.53-45.98 19.53H585.87Zm0-65.63h270.67v-189.72H585.87v189.72ZM416.3-79.02q-14.13 0-24.19-9.6t-12.35-24.05l-14.26-92.76q-17.57-6.29-38.49-17.94-20.92-11.65-35.73-23.7l-88.76 41q-12.69 5.48-25.36 1.77-12.68-3.71-19.51-15.72L92.8-335.74q-6.73-10.98-3.94-23.56 2.8-12.58 13.92-21.07l83.26-61.5q-1.76-8.27-2.26-18.55-.5-10.29-.5-19.58 0-7.79.5-18.82.5-11.02 2.26-20.31l-82.76-60.76q-11.45-8.22-14.45-20.69-3-12.46 4.47-24.18l64.44-115.26q6.74-11.23 19.54-15.44 12.79-4.21 25 1.03l90.48 41.5q13.57-11.31 33.62-22.84 20.05-11.53 38.92-17.67l15.94-99.63q2.25-12.66 11.95-20.65 9.7-8 22.2-8h130.06q12.29 0 21.71 7.98 9.41 7.98 11.84 20.67l15.93 98.06q17.59 6.72 38.17 17.99 20.57 11.28 34.62 24.09l91.24-41.5q12.21-5.24 24.34-1.03 12.13 4.21 18.71 15.44l65.5 115.3q6.66 11.68 3.18 23.75-3.48 12.08-13.47 21.08l-81.78 72.98q-14.2 11.21-28.55 16.94-14.35 5.73-30.74 8.73H604.52q-.24-52.76-36.99-89.51-36.75-36.75-88.78-36.75-53.97 0-90.85 37.25Q351.02-533 351.02-480q0 41.3 23.9 74.01 23.9 32.71 61.34 45.66v260.42q0 9.25-4.46 15.07-4.47 5.82-15.5 5.82Z"/></svg>