<svg xmlns="http://www.w3.org/2000/svg" height="24" viewBox="0 -960 960 960" width="24"><path d="M611-71.87q-37.78 0-64.39-26.61T520-162.87V-309q0-37.78 26.61-64.39T611-400h227.57q37.78 0 64.39 26.61T929.57-309v146.13q0 37.78-26.61 64.39t-64.39 26.61H611Zm0-91h227.57V-309H611v146.13Zm-204.07 91q-18.43 0-32.39-11.84-13.95-11.83-16.19-30.27l-11.76-88.52q-11.09-4.28-21.04-10.33-9.94-6.04-19.51-12.84l-61.76 26q-25.95 11.47-52.15 2.24-26.2-9.24-40.67-33.44l-51.55-90.37q-14.24-23.96-8.24-51.41 6-27.46 27.96-44.18l52.76-40q-.76-6.04-.76-11.58v-23.18q0-5.54.76-11.58l-52.76-39.76q-22.2-16.72-28.2-44.18t8.48-51.65l51.55-90.13q14.47-23.96 40.55-33.2 26.08-9.24 52.03 2l62.48 26q9.57-6.8 19.65-12.73 10.09-5.92 20.42-10.2l8.24-66.48q3.47-28.2 24.07-46.41 20.6-18.22 48.8-18.22h104.6q28.2 0 48.8 18.22 20.6 18.21 24.07 46.41l8.24 66.48q11.09 4.28 21.04 10.2 9.94 5.93 19.51 12.73l60.24-26q25.95-11.48 52.53-2.12 26.57 9.36 41.05 33.32l51.55 90.13q14.47 24.19 8.85 51.27-5.61 27.08-27.81 44.56l-58.87 44.54q-12.43 8.96-25.73 13.55-13.29 4.6-28.73 4.6H622.28q-.24-58-41.62-98.88Q539.28-620 481.28-620q-59 0-99.5 40.5t-40.5 99.5q0 48 27.62 84.24 27.62 36.24 70.86 50v236.54q0 15.44-8.36 26.39-8.36 10.96-24.47 10.96Z"/></svg>