<svg xmlns="http://www.w3.org/2000/svg" height="48" viewBox="0 -960 960 960" width="48"><path d="M576.15-103.08q-22.69 0-39.42-16.73T520-159.23v-184.62q0-22.69 16.73-39.42T576.15-400h264.62q22.69 0 39.42 16.73t16.73 39.42v184.62q0 22.69-16.73 39.42t-39.42 16.73H576.15Zm0-43.84h264.62q5.38 0 8.84-3.47 3.47-3.46 3.47-8.84v-184.62q0-5.38-3.47-8.84-3.46-3.46-8.84-3.46H576.15q-5.38 0-8.84 3.46t-3.46 8.84v184.62q0 5.38 3.46 8.84 3.46 3.47 8.84 3.47Zm-4.96-351.5q-8.11 5.03-16.67 2.98-8.56-2.06-13.6-9.33-10.8-17.46-26.59-30-15.78-12.54-35.91-12.54-27.88 0-47.59 19.48-19.71 19.48-19.71 47.02 0 21.48 12.61 37.97 12.62 16.49 32.39 25.69 7.69 3.84 11.21 11.94 3.52 8.09.28 15.84-3.53 8.37-11.88 11.77-8.35 3.41-16.96-.21-32.35-11.46-51.92-39.69-19.58-28.23-19.58-62.91 0-46.73 31.68-78.74 31.69-32 78.66-32 32.21 0 59.28 17.02T578.15-528q4.43 8 2.19 16.62-2.23 8.61-9.15 12.96ZM423.15-103.08q-9.91 0-16.68-6.97T398-127.27l-13.35-95.31q-20.73-6.81-45.03-20.4-24.31-13.6-41.47-28.52l-88.42 40.61q-9.88 4.04-19.3 1.37-9.41-2.68-14.62-11.87l-55.73-97.96q-5.16-8.38-3.01-17.86 2.15-9.47 10.97-16.06l81.77-60.34q-2.19-10.71-2.98-22.68-.79-11.98-.79-23.13 0-10.04.79-22.66.79-12.61 2.79-24.92l-81.27-60.23q-8.96-5.96-11.1-15.69-2.13-9.73 3.71-18.62l54.85-96.3q5.4-8.76 14.87-11.81 9.47-3.04 18.86.61l89.04 40.16q17.5-14.23 40.57-27.73 23.08-13.5 44.84-20.35L399-835.54q2.01-9.65 9.65-15.67 7.63-6.02 16.97-6.02h109.26q9.35 0 16.76 6.02 7.4 6.02 9.36 15.67l14.94 97.75q21.79 8.21 44.12 20.79 22.32 12.58 40.02 28.12l91.96-40.16q8.81-3.65 18.09-.54 9.28 3.1 14.33 11.74l55.46 96.69q5.16 9.07 3.09 18.87-2.07 9.8-10.86 15.05l-94.54 68.11q-7.36 5.66-15.18 4.35-7.82-1.31-13.39-8.81-5.96-6.45-4.96-15.52t8.3-14.67L792.69-613l-39.19-70.54L647.27-638q-21.15-23.08-50.67-41.15-29.52-18.08-59.95-22.5l-13.64-111.73h-85.86L424.42-701.8q-34.23 7.07-61.17 22.4-26.94 15.32-51.71 41.02l-104.35-45.16L167-613l92.65 67.35q-4.38 16.15-6.69 32.4-2.31 16.25-2.31 32.81 0 17.51 2.06 33.09 2.06 15.58 6.06 32.12L167-347.31l39.97 70.54 104.38-44.85q25.23 25.5 57.71 42.17 32.48 16.68 68.59 24.1v136.46q0 7.29-3.8 11.55-3.81 4.26-10.7 4.26Zm56.35-377.73Zm0 0Z"/></svg>