<svg xmlns="http://www.w3.org/2000/svg" height="20" viewBox="0 -960 960 960" width="20"><path d="M577.5-153q-24.44 0-36.97-12.53Q528-178.06 528-202.5v-132q0-24.44 12.53-36.97Q553.06-384 577.5-384h228q24.44 0 36.97 12.53Q855-358.94 855-334.5v132q0 24.44-12.53 36.97Q829.94-153 805.5-153h-228Zm0-17.5h228q14 0 23-9t9-23v-132q0-14-9-23t-23-9h-228q-14 0-23 9t-9 23v132q0 14 9 23t23 9Zm-126 17.5q-2 0-3.5-1.25t-2.5-4.25l-13.5-91q-31.5-10-67.75-29.25T303-322l-97 36q3-3 5.5-1.5t4.5 3.5l-38.5-65.5q2 2.5.5 6.25t-4 3.75l80.5-67.5q-3.5-16.98-5.75-34.99T246.5-479q0-16.5 2.5-34.75t5.5-40.25l-80-67q2.5.5 4.25 3.75T179-612l37-62q-1.91 3.21-4.45 4.1-2.55.9-5.55-2.6l97 35.5q27.5-24.5 60.5-43.25T431-710.5L450.5-816q1.51 3.29-.99 5.9-2.51 2.6-5.01 2.6H515q-2.82 0-4.89-2.6-2.07-2.61-.61-5.9l19 106q36 13 65.75 29.75T653-637l105-35.5q-3.5 3.5-6.46 2.6-2.96-.89-5.04-4.1l37 63q-2-2-1.14-5.27.86-3.27 3.64-4.73l-73 61q3.5 9 5.25 21t2.75 26q13 26.5 5 41.75T699.5-456L559-457q1-6 1.5-12.5t.5-12.5q0-37-25.5-62.25t-62.27-25.25q-36.23 0-61.98 25.75T385.5-482q0 31.4 20.25 56.2Q426-401 456.5-396.5v241q0 2.56-1.81 2.53-1.81-.03-3.19-.03Z"/></svg>