<svg xmlns="http://www.w3.org/2000/svg" height="48" viewBox="0 -960 960 960" width="48"><path d="M588.38-104q-27.95 0-48.17-20.21Q520-144.43 520-172.38v-159.24q0-27.95 20.21-48.17Q560.43-400 588.38-400h243.24q27.95 0 48.17 20.21Q900-359.57 900-331.62v159.24q0 27.95-20.21 48.17Q859.57-104 831.62-104H588.38Zm0-43.77h243.24q10.76 0 17.69-6.92 6.92-6.93 6.92-17.69v-159.24q0-10.76-6.92-17.69-6.93-6.92-17.69-6.92H588.38q-10.76 0-17.69 6.92-6.92 6.93-6.92 17.69v159.24q0 10.76 6.92 17.69 6.93 6.92 17.69 6.92ZM417.67-104q-7.65 0-12.95-5.68-5.29-5.68-6.8-13.94l-12.69-98.84q-19.08-6-43.74-19.65-24.66-13.65-41.41-28.58l-91.54 41q-7.85 2.92-16.19.73-8.35-2.19-11.5-9.81l-60.77-107.77q-3.16-6.61-2.58-13.58.58-6.96 8.96-13.11l81.23-61q-1-10.02-2.27-23.03-1.27-13.01-1.27-24.03 0-9.25 1.27-21.67 1.27-12.42 2.27-25.81l-81.23-60q-7.38-5.15-8.08-12.5-.69-7.35 3.47-14.96l60-104.46q3.15-5.85 11-8.43 7.84-2.57 15.69-.65l88.77 39.46q18.61-14.84 42.46-28.65 23.85-13.81 44.69-20.58l15.23-100.31q2-6.84 8-12 6-5.15 13.85-5.15h117.15q6.85 0 13.23 5.15 6.39 5.16 9.39 12l13.46 101.08q23.15 8.31 44.81 20.96 21.65 12.66 40.04 27.5L754-729.77q7.08-2.92 14.52.15 7.45 3.08 11.17 8.93l60.23 105.23q3.16 7.61 1.58 14.96-1.58 7.35-7.96 11.73l-71.69 59.54q.77 3.85 1.53 6.92.77 3.08 1.54 6.93-5 13.53-17.54 23.11-12.53 9.58-28 11.04L584.14-482q0-44.98-31.91-76.68-31.92-31.7-76.31-31.7-44.61 0-76.61 31.61-32 31.62-32 77.01 0 33.87 18.09 60.47t46.91 38.14v264.07q0 7.7-4.35 11.39-4.34 3.69-10.29 3.69Z"/></svg>