<svg xmlns="http://www.w3.org/2000/svg" height="20" viewBox="0 -960 960 960" width="20"><path d="M577.5-153q-24.44 0-36.97-12.53Q528-178.06 528-202.5v-132q0-24.44 12.53-36.97Q553.06-384 577.5-384h228q24.44 0 36.97 12.53Q855-358.94 855-334.5v132q0 24.44-12.53 36.97Q829.94-153 805.5-153h-228Zm0-17.5h228q14 0 23-9t9-23v-132q0-14-9-23t-23-9h-228q-14 0-23 9t-9 23v132q0 14 9 23t23 9Zm-21-337.5q-3.5 3-6.5 2.42-3-.57-6-3.42-14-17-31.51-31.5T473.25-555Q442-555 421-532.57t-21 53.38q0 21.54 13 37.62 13 16.07 30 26.07 3 2 6 5.5t2 7q-1 3.5-5 3t-8-.5q-24.5-9.5-40-31.27-15.5-21.78-15.5-47.78 0-39.41 26.08-66.18 26.07-26.77 64.52-26.77 26.03 0 46.21 15 20.19 15 34.19 36.5 1.5 3.5 3.75 7t-.75 6Zm-105 355q-2.4 0-3.87-1.48-1.46-1.48-2.13-4.02l-13.5-91q-31.5-10-67.75-29.25T303-322l-97 36q3-3 5.5-1.5t4.5 3.5l-38.5-65.5q2 2.5.57 6.15-1.43 3.65-4.07 3.85l80.5-67.5q-3.5-16.98-5.75-34.99t-2.25-36.51q0-17 2.5-35.25t5.5-40.25l-80-67q2.5.5 4.25 3.75T179-612l37-62q-1.66 2.79-4.33 3.9-2.67 1.1-5.67-2.4l97 35.5q27.5-24.5 60.5-43.25t67.3-30.36L450.5-816q1.51 3.29-.25 5.9-1.76 2.6-4.75 2.6H515q-3.22 0-5.09-2.6-1.87-2.61-.41-5.9l18.93 105.82q36.07 13.18 65.82 29.93Q624-663.5 653-637l105-35.5q-3.5 3.5-6.64 2.4-3.14-1.1-4.86-3.9l37 63q-2-2-1.13-5.34.86-3.34 3.63-4.66l-110.5 89.5q-1.46 3-5.6 2.58-4.14-.41-6.9-2.58-2.5-1-2.96-4.24-.46-3.24 1.96-6.76l95.5-78-18-29.5-101 33.5q-20-25-56-46.5T516-687.5L498-790h-37l-16.5 101.54q-38 5.46-67.75 21.96t-59.25 50L221-650l-19 29.5 77 67.5q-6 16.5-9.5 35.82T266-479.8q0 19.6 2.75 37.45t7.75 34.85L202-340l17.86 29.5 95.64-32q27 30.5 63.75 47.75t77.25 26.25v113q0 2.56-1.79 2.53-1.8-.03-3.21-.03Zm26-326Zm0 0Z"/></svg>