<svg xmlns="http://www.w3.org/2000/svg" height="48" viewBox="0 -960 960 960" width="48"><path d="M588.38-104q-27.78 0-48.08-20.3-20.3-20.3-20.3-48.08v-159.24q0-27.78 20.3-48.08 20.3-20.3 48.08-20.3h243.24q27.78 0 48.08 20.3 20.3 20.3 20.3 48.08v159.24q0 27.78-20.3 48.08-20.3 20.3-48.08 20.3H588.38Zm0-43.77h243.24q10.76 0 17.69-6.92 6.92-6.93 6.92-17.69v-159.24q0-10.76-6.92-17.69-6.93-6.92-17.69-6.92H588.38q-10.76 0-17.69 6.92-6.92 6.93-6.92 17.69v159.24q0 10.76 6.92 17.69 6.93 6.92 17.69 6.92Zm-21.8-352.46q-7.35 4.69-15.38 2.71-8.03-1.98-13.12-10.02-11.12-15.92-26.2-27.5t-35.19-11.58q-27.41 0-46.51 18.9-19.1 18.89-19.1 46.26 0 19.56 11.3 35.17 11.31 15.6 28.7 25.37 8.39 3.46 11.04 12.19 2.65 8.73-1.04 16.46-3.7 7.73-12.2 10.15-8.5 2.43-17.34-1.03-29.96-11.53-47.1-38.84-17.13-27.32-17.13-58.76 0-46.48 31.09-78.06 31.09-31.57 77.96-31.57 31.44 0 57.65 16.84 26.22 16.85 39.61 43.31 4.46 8.38 2.38 16.84-2.08 8.47-9.42 13.16ZM417.45-104q-7.52 0-12.84-5.51-5.33-5.5-6.69-14.11l-12.69-98.84q-19.08-6-43.77-19.42-24.69-13.42-41.38-28.81l-91.54 41q-7.85 3.92-16.13 1.34-8.29-2.58-11.56-10.42l-60.77-107.77q-3.16-6.61-2.44-13.65.72-7.04 8.82-12.04l81.23-62.3q-1-9.68-2.27-22.4-1.27-12.71-1.27-23.28 0-10.56 1.27-22.93t2.27-25.63l-81.23-60q-7.38-5.15-8.08-12.5-.69-7.35 3.47-14.96l60-104.46q3.46-6.39 10.99-8.7 7.52-2.3 15.7-.38l88.77 39.46q18.61-14.84 42.46-28.65 23.85-13.81 44.69-20.58l15.23-100.31q1.92-6.95 8.37-12.05 6.44-5.1 14.25-5.1h116.38q6.4 0 13.02 5.1 6.61 5.1 9.6 12.05l13.46 101.08q23.15 8.31 44.81 20.96 21.65 12.66 40.04 27.5L754-729.77q7.41-2.92 14.62-.01 7.22 2.92 11.07 9.09l60.23 105.23q3.16 7.61 2.03 15.01-1.12 7.4-8.41 11.68l-103.62 75.85q-7.38 5.92-16.11 4.3-8.73-1.61-13.89-8.23-5.15-6.61-4.59-15.94.57-9.32 8.29-15.29l86.84-64.54-39-69.69-105.23 43.46q-19.15-21.38-50.76-40.83-31.62-19.45-60.95-23.32l-11.83-110.23h-85.38l-11.46 109.46q-34.47 7.23-61.89 22.81-27.42 15.58-52.73 41.34l-101.41-42.69-41.28 69.69 89.92 66.7q-4.77 15.69-6.88 31.8-2.12 16.12-2.12 32.79 0 16.7 2.12 32.36 2.11 15.66 6.11 33.12l-89.15 67.47 41 69.69 101.92-43.69q24.46 24.9 55.42 41.02 30.97 16.13 65.43 25.13v136.85q0 7.72-4.48 11.55-4.48 3.83-10.38 3.83Zm60.78-377.23Zm0 0Z"/></svg>