<svg xmlns="http://www.w3.org/2000/svg" height="24" viewBox="0 -960 960 960" width="24"><path d="M656-34q-57.12 0-96.56-39.44Q520-112.88 520-170v-94q0-57.13 39.44-96.56Q598.88-400 656-400h183q57.13 0 96.56 39.44Q975-321.13 975-264v94q0 57.12-39.44 96.56Q896.13-34 839-34H656Zm0-136h183v-94H656v94Zm-61-303.5q-20 9.5-40.1 2.54T524-498q-7.12-14.44-19.01-23.22T478.13-530q-20.78 0-34.96 14.05Q429-501.9 429-481.23q0 17.23 12 28.73t27 19.5q21 11 27 32t-4 42q-11 20-31.5 25.5T418-337q-42.81-19.4-69.41-57.7Q322-433 322-481q0-64.63 45.51-110.31Q413.01-637 477.38-637q46.62 0 84.12 25 37.5 25 57.5 67 9 20 2.5 41T595-473.5ZM386.62-34q-23.29 0-41.55-15.23Q326.81-64.46 324-88l-11-87q-3.42-2.11-6.52-4.1-3.1-1.99-6.48-3.9l-65 27q-29 13-59 3t-45-38L56-325q-15-26.63-9.5-56.82Q52-412 77-431l54-42q0-1.73.5-3.91t.5-4.03q0-1.86-.5-3.7-.5-1.83-.5-3.36l-53-40q-26-19-32-49.5T56-636l75-132q16-27 45-37t58 2l66 26q3.89-1.45 7.44-3.23Q311-782 314-784l9-70q5-32 28-52.5t54-20.5h150q31 0 54 20.5t28 52.5l9 70q4.42 1.84 8.21 3.92Q658-778 662-776l63-27q29.28-13 58.59-2.46Q812.91-794.93 829-768l75 132q16 28 9.5 58.5T881-528l-75 55q-23 16-50.5 12t-45-26.5Q694-511 697.86-538.24 701.72-565.48 725-583l38-28-29-50-96.82 42q-22.18-27-51.57-44.29-29.4-17.3-63.61-23.71l-13-104h-59l-11 102q-35 8-65.5 25.5T320-620l-95-41-28 50 81 61q-6 19-8.5 35.28-2.5 16.27-2.5 34.2 0 16.52 2.5 33.52 2.5 17 8.5 36l-81 61 28 50 94.78-41q23.79 23.85 52.51 41.42Q401-282 434-273v190.15q0 20.61-10.46 34.73Q413.09-34 386.62-34ZM479-481Zm0 0Z"/></svg>