<svg xmlns="http://www.w3.org/2000/svg" height="20" viewBox="0 -960 960 960" width="20"><path d="M595-106q-30.94 0-48.97-18.03Q528-142.06 528-173v-144q0-30.94 18.03-48.97Q564.06-384 595-384h240q30.94 0 48.97 18.03Q902-347.94 902-317v144q0 30.94-18.03 48.97Q865.94-106 835-106H595Zm0-67h240v-144H595v144Zm-2.5-316.5q-13 7.5-26 2.42-13-5.07-20.5-17.92-11.5-20-29.37-35-17.88-15-40.88-15-31.25 0-52.25 22.14-21 22.15-21 53.17 0 21.81 14.25 38.5T449.5-414q12 7 19.5 19.25t2.5 24.75q-5.5 13.5-18.75 17.5t-26.75 0q-40.5-14.5-65.5-49.52-25-35.03-25-77.53 0-59.38 41.08-100.91Q417.65-622 475.65-622q42 0 75.68 23.75Q585-574.5 604-537q6 13 3.75 26.5t-15.25 21ZM437-106q-13.73 0-23.87-8.25Q403-122.5 401-135.5l-14.5-81q-23-9.5-46.25-21.75T298-266.5l-81.5 28q-10.5 2.5-21.5-1T178.5-253L132-333.5q-5.5-10-3.75-20.75t10.25-19.25l66-57.5q-2-11.48-3-22.99-1-11.51-1-26.01 0-12 1.25-24.5T205-531l-65.5-56q-8.5-8.5-10.5-19t3.5-21l46-80q5.59-9.79 16.8-13.65 11.2-3.85 21.7-.85l82.5 29q18-16 39.75-28t47.25-22L403-830q2.51-11.21 11.49-18.1 8.99-6.9 20.51-6.9h90.5q11.7 0 20.37 6.9 8.67 6.89 11.13 18.1l16.5 86q24 9.5 45.75 21.75T660-692.5l84.5-29q10.5-3 21.09.84T782-707l46 80q5.5 10 3.45 20.98Q829.39-595.04 821-587l-84 70.5q-10 9.5-24.62 7.58-14.62-1.91-23.88-12.58-8-9.5-6.71-23.24Q683.08-558.48 693-568l61-52-16.5-29-98 33Q616-644 584-663t-67.5-24.5L497.57-788H462l-18.5 100q-39 7.5-69 24.75T318-616l-95.5-33-17.5 29 75.5 66.5q-6 19-9.5 37t-3.5 35.97q0 18.86 2.75 36.94Q273-425.5 279-407l-74 66 16.58 29 94.92-32q27 31 63.25 49t76.75 25.5v144q0 9.56-5.38 14.53Q445.74-106 437-106Zm41.5-373.5Zm0 0Z"/></svg>