<svg xmlns="http://www.w3.org/2000/svg" height="48" viewBox="0 -960 960 960" width="48"><path d="M612.5-60q-38.43 0-65.47-26.74Q520-113.48 520-151.5v-157q0-36.97 27.03-64.23Q574.07-400 612.5-400h241q36.97 0 64.23 27.27Q945-345.47 945-308.5v157q0 38.02-27.27 64.76Q890.47-60 853.5-60h-241Zm0-91.5h241v-157h-241v157ZM406.1-60q-16.1 0-28.85-11.4-12.75-11.41-15.75-29.1l-13.5-92q-13-4-30.5-13.75T289-225l-88 41q-14.88 7-30.5 2.62-15.63-4.39-23.5-19.62L71.5-336.5Q64-349 66.8-364.25q2.79-15.24 16.2-25.25l82.5-61.5q-1-6.01-1.5-13.99-.5-7.97-.5-15.01 0-5.54.5-14.25t1.5-15.75l-82-60Q69-580.5 66-595.25T72-624l75.38-135.19q7.21-12.6 22.67-17.96 15.45-5.35 29.95.65l92 41.5q9-7.5 25.25-16.75t30.55-13.86L364.5-866q3.01-15.71 14.16-25.6 11.15-9.9 26.84-9.9h150.91q14.27 0 25.23 9.83 10.97 9.83 14.86 25.67l15.93 98.82q12.88 5.23 29.72 14.21Q659-744 670-735l92-41.5q14.5-6 29.29-.65 14.79 5.36 21.9 17.99l76.62 135.32q7.19 13.84 3.71 28.58Q890.03-580.52 877-570l-62 57q-18 13.5-36.64 20.75Q759.73-485 740.5-482H603q-1-52-37.75-88.75t-88.02-36.75q-54.73 0-91.23 37.25Q349.5-533 349.5-480q0 41.3 24.28 74.77t61.72 45.45V-88.5q0 13.06-5.22 20.78Q425.05-60 406.1-60Z"/></svg>