<svg xmlns="http://www.w3.org/2000/svg" height="20" viewBox="0 -960 960 960" width="20"><path d="M646-62q-53 0-85.5-32.5T528-180v-86q0-53 32.5-85.5T646-384h188q53 0 85.5 32.5T952-266v86q0 53-32.5 85.5T834-62H646Zm0-118h188v-86H646v86Zm-51-300q-17 9-33.8 2.44-16.8-6.56-26.2-23.44-10-17-25.31-29.5-15.3-12.5-34.3-12.5-26.39 0-43.89 18.83T414-479.19q0 21.19 16 34.69 16 13.5 34 22.5 17 9 24.5 27t-1 35q-8.5 17-25.5 20.5t-35-1.5q-44-16-73-53.52-29-37.53-29-85.03 0-63.52 43.93-107.99Q412.86-632 475-632q45 0 80.5 25.5T612-541q7 16.87 3.5 34.44Q612-489 595-480ZM417-62q-19.9 0-35.12-12.17Q366.67-86.33 364-106l-14-81q-15.42-6.11-30.21-14.05Q305-209 292-220l-74 26q-19 7-39.5.5T148-219L89-324q-9-17.63-6-37.32Q86-381 102-395l58-52q-1-7.83-2-15.96t-1-16.95q0-8.83 1-16.96t2-16.13l-58-51q-17-14-20-33.5t7-38.5l59-104q10-18 30-24.5t39-.5l77 26q13-11 26.5-18.5T350-771l16-80q5-21 19.74-34 14.74-13 36.26-13h116q21.52 0 36.26 13Q589-872 594-851l16 80q15.42 5.84 30.21 13.42Q655-750 668-739l76-26q19-7 38.62.02Q802.23-757.95 813-740l59 104q10 19 6 39t-21 33l-87 72q-18 15-43.12 11.33-25.12-3.66-40.38-22.33-14.5-18-11.47-41.64Q678.06-568.29 697-584l46-40-8-12-94 32q-26-33-60.5-53.5T506-683l-19-97h-15l-17 96q-41 6-76.5 26.5T317-604l-93-32-7 12 72 64q-6 20-10.5 39.78Q274-500.45 274-480q0 20.83 4 41.41Q282-418 288-399l-71 63 6 12 92.78-31Q342-323 378-304t77 28v177q0 16.76-7.57 26.88Q439.86-62 417-62Zm62-417Zm0 0Z"/></svg>