<svg xmlns="http://www.w3.org/2000/svg" height="48" viewBox="0 -960 960 960" width="48"><path d="M587-116q-27.5 0-47.25-19.75T520-183v-150q0-27.5 19.75-47.25T587-400h234q27.5 0 47.25 19.75T888-333v150q0 27.5-19.75 47.25T821-116H587Zm0-35h234q14 0 23-9t9-23v-150q0-14-9-23t-23-9H587q-14 0-23 9t-9 23v150q0 14 9 23t23 9Zm-28.5-352q-5.5 4-11.8 2.6-6.3-1.41-10.7-7.6-11.12-15-25.71-26-14.59-11-34.29-11-26.74 0-45.37 18.49T412-481.23q0 18.46 10.5 33.35Q433-433 449-423q6.78 2.77 8.39 9.88Q459-406 456-400q-3 6-10 7.5t-14-1.5q-26.04-10.6-40.52-34.87Q377-453.14 377-480.52q0-42.39 28.09-70.94Q433.18-580 476.01-580q28.09 0 51.54 15T563-527q4 6.77 2.5 13.38-1.5 6.62-7 10.62ZM419.99-116q-5.28 0-9.07-4.21-3.8-4.2-4.92-10.79l-12-100q-20-6-46.31-20.23Q321.38-265.45 304-282l-92 41q-6 3-12.42 1.15-6.42-1.86-8.58-8.15l-58-102q-2-5-1.82-10.1.18-5.1 6.82-8.9l81-62.3q-1-10.6-2.5-23.89-1.5-13.3-1.5-24.67 0-11.37 1.5-24.32Q218-517.13 219-532l-81-60q-6-4-6-9.5t3-11.5l57-98q2.41-4.71 8.04-6.35Q205.67-719 212-718l89 39q20-16 45-30.5t47-21.5l15-101q1.92-5.15 6.98-9.07Q420.05-845 426-845h109q4.54 0 9.78 3.93 5.23 3.92 8.22 9.07l13 102q25 9 47 22t42 29l96-39q5.33-2 10.8.29 5.46 2.3 8.2 6.71l57 99q2 6 1.44 11.42T822-592l-105 77q-6 5-13 3.5t-11-6.5q-4-5-3.67-12.6.34-7.59 6.67-12.4l91-68-39-69-105 43q-18-20-50.07-39.79-32.08-19.8-59.33-23.21L522-810h-84l-11 109q-34 7-60.5 22T314-638l-100.72-42L172-611l89 66q-5 15-7 31t-2 32.73q0 16.75 2 32.01 2 15.26 6 32.26l-88 67 41 69 101-43q24 24.58 54.5 40.29T433-259v129.7q0 7.06-4.13 10.18t-8.88 3.12ZM478-481Zm0 0Z"/></svg>