<svg xmlns="http://www.w3.org/2000/svg" height="24" viewBox="0 -960 960 960" width="24"><path d="M595-90q-30.94 0-52.97-22.03Q520-134.06 520-165v-160q0-30.94 22.03-52.97Q564.06-400 595-400h240q30.94 0 52.97 22.03Q910-355.94 910-325v160q0 30.94-22.03 52.97Q865.94-90 835-90H595Zm0-75h240v-160H595v160ZM414-90q-16.5 0-28.75-10.75T371-127.5l-11.5-87q-13-5.5-26.25-12.75T309-242.5l-68.5 28q-20.5 8.5-41 1.5t-32-26L114-331.5q-11.5-19-6.75-40.75t22.25-35.25l60-45.5q-1-6.48-1-12.49V-480q0-6 .25-13t1.25-16l-59.5-44Q113-566.5 108-588t6.5-41l53-92q11.59-18.79 32.3-26.15 20.7-7.35 41.2 1.65l69.5 29q10-8 22.25-15t26.75-13L369-820q2.51-22.21 19.26-36.6Q405-871 427-871h106.5q22.18 0 38.61 14.4Q588.54-842.21 591-820l9.5 74q14 5.5 25.75 12.75T649-716.5l69.5-29q20.5-9 41.29-1.65Q780.58-739.79 792-721l53 92q11.5 19 6.86 40.48-4.64 21.48-22.36 35.52l-79 59q-10 7.5-21 11t-23.5 3.5h-91.5q0-56.5-39.5-96T479.73-615q-56.73 0-95.98 39.25Q344.5-536.5 344.5-480q0 46.4 27 81.2 27 34.8 69 47.8v230.5q0 12.56-7.31 21.53T414-90Z"/></svg>