<svg xmlns="http://www.w3.org/2000/svg" height="40" viewBox="0 -960 960 960" width="40"><path d="M616.81-54.15q-39.59 0-68.2-28.5T520-150.58v-152.99q0-39.03 28.61-67.73 28.61-28.7 68.2-28.7h238.13q39.04 0 67.74 28.7 28.7 28.7 28.7 67.73v152.99q0 39.43-28.7 67.93-28.7 28.5-67.74 28.5H616.81Zm0-96.43h238.13v-152.99H616.81v152.99ZM402.07-54.15q-18.15 0-31.54-11.81-13.39-11.82-16.12-30.33l-13.44-91.78q-11.49-4.21-25.16-12.2-13.68-7.99-23.87-15.66l-80.27 35.87q-19.51 9.03-39.91 2.39-20.4-6.63-30.3-25.5L70.75-330.51q-10.13-17.17-6.51-37.31 3.62-20.14 21.17-33.45l71.74-53.64q-.67-4.97-.72-12.84-.05-7.88-.05-13.51 0-4.97.05-12.37.05-7.4.72-13.09l-71.41-52.64q-17.45-13.03-21.68-32.98-4.23-19.95 7.13-38.36l70.85-126.68q10.18-17.1 29.84-23.97 19.67-6.87 39.22.93l80.44 35.77q9.67-7 23.94-15.07 14.27-8.08 25.82-12.42l13.67-87.83q3.09-20.35 18.44-33.69Q388.77-907 409.29-907h142.62q19.25 0 34.65 13.32 15.41 13.31 19.51 33.71l12.63 87.59q12.41 4.37 26.74 12.56 14.33 8.2 24.15 15.5l79.64-36.1q19.71-8.42 39.09-1.24 19.37 7.18 29.67 24.3l71.6 126.72q10.21 18.35 5.83 38.3-4.38 19.95-21.16 32.98l-55.55 49.29q-16.55 12.42-34.28 19.24-17.72 6.83-36.45 8.83H620.17q-.57-58.03-41.68-99.6-41.11-41.56-99.68-41.56-59.66 0-101.02 41.53-41.37 41.54-41.37 100.79 0 46.97 27.14 83.94t69.4 50.44v260.04q0 14.55-7.04 23.41-7.03 8.86-23.85 8.86Z"/></svg>