<svg xmlns="http://www.w3.org/2000/svg" height="40" viewBox="0 -960 960 960" width="40"><path d="M593.33-110.67q-30.57 0-51.95-21.38Q520-153.43 520-184v-142.67q0-30.57 21.38-51.95Q562.76-400 593.33-400h228q30.58 0 51.96 21.38 21.38 21.38 21.38 51.95V-184q0 30.57-21.38 51.95-21.38 21.38-51.96 21.38h-228Zm0-41.33h228q14 0 23-9t9-23v-142.67q0-14-9-23t-23-9h-228q-14 0-23 9t-9 23V-184q0 14 9 23t23 9ZM562-501.33q-7 4.33-14.63 2.59-7.64-1.73-12.37-9.26-11.15-14.81-25.64-25.74-14.48-10.93-33.59-10.93-26.48 0-44.96 18.24t-18.48 44.79q0 18.21 10.17 33.09 10.17 14.88 25.5 24.22 7.85 3.51 9.93 11.92 2.07 8.41-1.6 15.74-3.66 7.34-12.16 9.17t-16.5-1.83q-26.71-12.27-41.69-37.68Q371-452.43 371-481.02q0-44.46 29.93-74.72Q430.86-586 475.57-586q29.82 0 54.46 16T568-529.33q4 7.84 2.5 15.75t-8.5 12.25ZM415.94-110.67q-6.23 0-10.57-4.59T400-127l-11.67-100q-18.33-5.67-43.13-18.97-24.8-13.3-40.87-28.7l-91.33 40q-7 3.34-14.45 1.1-7.45-2.24-10.22-9.43l-60.66-107.33q-2.67-6.34-2.15-12.44.51-6.1 7.48-10.56l79.33-60.87q-1-10.37-2.5-22.91-1.5-12.55-1.5-23.14t1.5-22.62q1.5-12.04 2.5-26.46l-79-58.67q-6.66-4.67-6.83-11.33-.17-6.67 3.17-13.67l59.66-102.67q3.02-5.94 9.74-7.97 6.71-2.03 13.93-.36l87.67 37.67q19-15.34 42.66-28.84 23.67-13.5 44.34-20.5l14.33-99q1.94-6.43 7.98-11.21 6.03-4.79 13.02-4.79h114.67q6.05 0 12.19 4.79 6.15 4.78 8.81 11.21l12.66 100.34q23.67 9 44.17 20.83 20.5 11.83 39.83 27.5l94.34-38q6.55-2.67 13.07-.04 6.52 2.63 9.93 8.37L832.33-612q2.67 7 1.77 13.59-.89 6.58-7.43 10.41l-105.34 77.67q-6.66 5.66-15 4-8.33-1.67-13.5-7.84-5.16-6.16-4.5-14.93.67-8.76 8-14.57l89-67-39-68.66-104 42.33q-17.66-20-49.84-39.46-32.18-19.46-59.42-23.54l-11.4-109.33H438l-10.67 108q-34 7-60.66 22.16Q340-664 314-637.67l-99.48-41.66-41.19 68.66L260.67-545q-5 15.67-7 31.67t-2 31.87q0 15.6 2 31.03 2 15.43 6 33.43l-86.34 66.33 41 68.67L314-324.33q24 23.71 54 39.36 30 15.64 63 25.3v134.03q0 7.54-4.75 11.26-4.76 3.71-10.31 3.71Zm61.73-370.66Zm0 0Z"/></svg>