<svg xmlns="http://www.w3.org/2000/svg" height="24" viewBox="0 -960 960 960" width="24"><path d="M588.27-108.08q-28.44 0-48.35-19.91Q520-147.91 520-176.35v-155.38q0-28.44 19.92-48.35Q559.83-400 588.27-400h235.38q28.44 0 48.36 19.92 19.91 19.91 19.91 48.35v155.38q0 28.44-19.91 48.36-19.92 19.91-48.36 19.91H588.27Zm0-55.96h235.38q5.39 0 8.85-3.46t3.46-8.85v-155.38q0-5.39-3.46-8.85t-8.85-3.46H588.27q-5.39 0-8.85 3.46t-3.46 8.85v155.38q0 5.39 3.46 8.85t8.85 3.46Zm-168.69 55.96q-12.08 0-20.96-8.06-8.89-8.05-10.5-20.21L377-227.19q-16.27-5.7-34.52-15.64-18.25-9.94-31.56-21.02l-74.46 31.08q-15.31 6.38-30.61 1.31-15.31-5.08-23.93-19.46l-50.42-86.73q-8.61-14.2-5.11-30.37 3.5-16.17 16.76-26.4l65.58-49.35q-1.57-8.59-2.06-17.1-.48-8.51-.48-18.75 0-7.73.73-16.94.74-9.21 2.12-21.29l-65.08-48.23q-13.27-10.04-16.82-26.25-3.56-16.21 5.25-30.9l49.53-85.08q8.71-13.79 24.13-19.32 15.41-5.52 30.72.98l75.08 31.5q13.65-11.27 30.23-20.87 16.57-9.59 34.54-16.17l10.65-82.42q2.13-16.64 14.54-27.38 12.42-10.74 28.84-10.74h98.81q16.41 0 28.8 10.74t14.47 27.38l10.46 81.69q18.62 6.84 33.44 15.83 14.83 8.98 29.68 21.94l77.38-31.5q15.12-6.5 30.62-.98 15.5 5.53 24.04 19.32l49.53 85.46q8.62 14.39 5.13 30.39-3.48 15.99-16.78 26.38l-79.77 59.39q.58 1.92.87 3.46.28 1.54.67 3.46-5.39 9.04-15.42 14.56-10.04 5.52-22.54 5.52l-106.12-.39q0-48.23-33.92-82.05-33.92-33.83-81.62-33.83-48.46 0-82.13 33.67-33.67 33.68-33.67 81.91 0 38.32 21.71 67.73 21.71 29.42 56.21 41.46v239.15q0 9.87-5.96 16.91-5.97 7.05-14.96 7.05Z"/></svg>