<svg xmlns="http://www.w3.org/2000/svg" height="40" viewBox="0 -960 960 960" width="40"><path d="M622-58.67q-42.6 0-72.3-29.5Q520-117.67 520-160v-138.67q0-41.62 29.7-71.48Q579.4-400 622-400h223.33q41.63 0 71.48 29.85 29.86 29.86 29.86 71.48V-160q0 42.33-29.86 71.83-29.85 29.5-71.48 29.5H622ZM622-160h223.33v-138.67H622V-160ZM403.07-58.67q-18.24 0-32.15-12.35Q357-83.37 354-102.5l-12.5-89.67q-10.33-3.5-24.25-11.08t-22.92-14.58l-81.16 36.66q-18.09 8.17-37.01 2.58-18.91-5.59-28.66-23.74L73-335.17q-9.17-16-5.72-34.74 3.45-18.75 19.55-30.92L161.5-457q-.67-4.83-1-10.82-.33-5.99-.33-12.18 0-4.36.41-11.17.42-6.81 1.09-13.16L87.5-558.67q-17.17-12.5-20.83-30.83-3.67-18.33 6.83-35.83l74.25-132.13q9.34-16 28.05-22.35 18.7-6.36 36.53.98l85.17 37.33q7.33-6 19.58-13 12.25-7 24.29-11.08L356-858.33q3.51-19.55 17.36-31.94 13.84-12.4 33.31-12.4h148.11q18.57 0 32.18 12.36 13.62 12.35 17.71 31.98l14.12 91.21q10.58 4.32 23.56 11.22 12.98 6.9 21.98 14.4l84.84-37.33q17.83-7.67 36.12-1.15t27.51 22.54l75.07 132.21q9.3 17.23 5.26 35.72-4.04 18.48-20.3 30.84L816.5-510q-17.33 12.83-35.92 19.67-18.59 6.83-37.58 8.83H605.83q-1-53.5-38.5-91T477.06-610q-55.39 0-92.81 37.92-37.42 37.91-37.42 92.08 0 43 25.36 77.24 25.35 34.25 64.64 46.24V-92.5q0 14.89-6.42 24.36-6.42 9.47-27.34 9.47Z"/></svg>