<svg xmlns="http://www.w3.org/2000/svg" height="40" viewBox="0 -960 960 960" width="40"><path d="M595.91-73.3q-31.06 0-53.48-22.38Q520-118.06 520-149.06v-175.19q0-30.82 22.43-53.29Q564.85-400 595.91-400h256.31q30.82 0 53.29 22.46 22.46 22.47 22.46 53.29v175.19q0 31-22.46 53.38-22.47 22.38-53.29 22.38H595.91Zm0-75.76h256.31v-175.19H595.91v175.19Zm-8.55-339.01q-12.97 6.9-26.81 2.9-13.85-4.01-20.85-17.03-9.6-17.78-24.92-29.93-15.32-12.15-34.68-12.15-26.78 0-45.52 18.33-18.75 18.32-18.75 45.19 0 20.93 12.94 37.09 12.94 16.16 32.95 24.32 13.06 6.31 18.64 19.94 5.59 13.63-.73 26.61-6.32 12.97-19.46 18.14-13.13 5.17-26.93-.32-39.15-15.08-63.32-49.07-24.18-33.99-24.18-76.67 0-55.78 38.94-94.71 38.95-38.94 94.67-38.94 39.66 0 72.62 21.24 32.95 21.24 50.27 57.32 6.16 13.02 2.13 26.93-4.04 13.9-17.01 20.81ZM412.18-73.3q-15.82 0-27.44-10.47-11.62-10.46-13.78-26.34l-13.76-92.01q-15.51-5.64-32.06-15.25-16.55-9.6-29.6-19.9l-77.77 35.34q-18.44 8.14-37.12 1.92-18.69-6.22-29.06-23.63l-58.08-103.6q-10.24-16.88-5.91-35.97t20.13-30.98l70.76-52.66q-1.42-7.51-1.76-16.57-.33-9.06-.33-16.56 0-7.5.33-16.56.34-9.06 1.76-16.61l-70.76-52.42q-16.03-12.05-20.37-31.02-4.33-18.96 6.15-36.17l58.14-103.55q10.26-16.94 28.84-23.26t37.05 1.58l78.47 35.34q12.9-10.14 29.47-19.64 16.56-9.49 31.72-14.6l12.9-85.65q2.65-19.37 17.16-31.84 14.5-12.48 33.9-12.48h117.91q19.14 0 33.66 12.47 14.53 12.46 17.33 31.85l12.74 84.98q15.48 5.75 32.3 14.93 16.81 9.17 29.36 19.98l77.58-35.34q18.46-7.98 36.83-1.61 18.38 6.36 28.73 23.29l58.85 103.57q10.27 17.19 5.94 36.48-4.32 19.29-20.2 30.69l-77.38 56.15q-12.79 9.02-27.3 6.93-14.52-2.09-24.23-14.73-9.82-12.69-7.7-27.89 2.11-15.2 14.7-24.91l58.87-43.2-37.6-67.16-103.35 44.66q-22.66-25.56-51.34-42.75-28.68-17.19-62.72-22.95l-13.63-109.52h-80.79L426.06-701.5q-33.54 7.09-62.61 23.95t-51.97 41.5l-103.11-44.33-37.52 67.16 90.54 66.61q-4.33 16.65-6.83 32.96-2.49 16.3-2.49 33.65 0 16.91 2.49 33.38 2.5 16.48 6.83 32.98l-90.54 66.86 37.52 67.16 103.06-44.58q25.14 25.8 57.36 43.22 32.21 17.43 68.3 24.83v155.43q0 11.26-5.94 19.34-5.95 8.08-18.97 8.08Zm67.91-407.46Zm0 0Z"/></svg>