<svg xmlns="http://www.w3.org/2000/svg" height="48" viewBox="0 -960 960 960" width="48"><path d="M597.54-62.8q-30.84 0-54.19-23.28Q520-109.36 520-140.11V-322.7q0-30.49 23.35-53.9Q566.7-400 597.54-400h266.35q30.5 0 53.9 23.4 23.41 23.41 23.41 53.9v182.59q0 30.75-23.41 54.03-23.4 23.28-53.9 23.28H597.54Zm0-77.31h266.35V-322.7H597.54v182.59Zm-7.03-350.05q-13.38 6.88-26.77 3.2-13.4-3.68-20.89-17.84-10.62-18.53-26.85-31.55-16.23-13.02-37.11-13.02-28.83 0-48.66 19.53-19.84 19.53-19.84 48.14 0 22.7 14.24 39.98 14.24 17.29 36 26.52 14.02 5.77 19.65 19.77 5.63 14-.13 27.61-6 13.39-19.26 18.53-13.26 5.14-28.26.14-42.51-14.08-68.51-50.8-26.01-36.72-26.01-81.42 0-58.8 40.18-99.54 40.17-40.74 99.18-40.74 41.7 0 76.3 22.52 34.6 22.52 52.12 59.56 6.24 13.77 2.12 28.15-4.12 14.38-17.5 21.26ZM408.6-62.8q-15 0-26.23-10.41-11.24-10.4-13.52-26.03l-14.76-94.28q-15.62-5.55-34.29-16.05-18.67-10.49-32.32-21.52l-88.57 40.52q-14.68 7.48-30.11 2.27-15.43-5.21-22.76-19.22L76.28-333.8q-7.48-12.39-4.86-27.01 2.62-14.62 16.34-24.1l81.04-61.58q-1-6.1-1.38-16.55-.38-10.46-.38-17.94t.38-17.59q.38-10.12 1.38-17.52l-81.04-59.28q-12.96-9.72-16.19-24.17-3.24-14.46 5.47-28.18l69.85-125.8q7.39-12.44 22.06-17.41 14.67-4.98 29.72.5l87.76 40.76q13.02-10.16 32.32-21.24 19.29-11.09 35.34-16.61l16-97.28q2.17-14.2 13.66-23.8 11.49-9.6 26.49-9.6H551.1q13.21 0 24.9 9.59 11.69 9.58 15.15 23.81l14.76 97.04q16.58 5.5 36.09 16.65 19.52 11.15 32.04 21.44l88.29-40.76q15.11-6.24 29.02-.88 13.91 5.37 21.77 17.79l70.91 125.84q7.4 13.68 4.17 28.7-3.24 15.01-15.96 23.61l-98.86 71.31q-13.1 9.21-28.27 7.17-15.18-2.04-24.62-14.68-9.36-12.95-8.02-28.8 1.34-15.85 14.62-26.06L798.65-618l-37.32-68.89-105.96 45.48q-23.04-26.48-53.23-45.02-30.18-18.53-66.52-23.46l-12.77-110.76h-85.72l-12.98 110.76q-35.73 7.76-66.48 25.38-30.76 17.62-54 42.86l-103.71-45.24L160.83-618l92.76 68.28q-4.24 17.76-6.74 34.57-2.5 16.8-2.5 34.13 0 17.22 2.5 34.45 2.5 17.24 6.74 35.29l-92.76 68.52 38.84 68.89 104.71-46.24q25.95 26.41 58.5 44.18 32.55 17.78 68.79 26.54v162.42q0 10.74-5.62 17.45-5.62 6.72-17.45 6.72ZM479-481.52Zm0 0Z"/></svg>