<svg xmlns="http://www.w3.org/2000/svg" height="48" viewBox="0 -960 960 960" width="48"><path d="M590.69-84q-28.34 0-49.51-21.18Q520-126.35 520-154.69v-174.62q0-28.34 21.18-49.51Q562.35-400 590.69-400h258.62q28.34 0 49.51 21.18Q920-357.65 920-329.31v174.62q0 28.34-21.18 49.51Q877.65-84 849.31-84H590.69Zm0-58.39h258.62q5.38 0 8.84-3.46t3.46-8.84v-174.62q0-5.38-3.46-8.84-3.46-3.47-8.84-3.47H590.69q-5.38 0-8.84 3.47-3.47 3.46-3.47 8.84v174.62q0 5.38 3.47 8.84 3.46 3.46 8.84 3.46ZM413.44-84q-11.5 0-19.29-7.8-7.8-7.79-9.69-19.51l-13.84-96.92q-17.54-6-39.51-18.3-21.98-12.3-37.57-25.32l-90.77 41q-10.92 4.46-22.35 1.12-11.42-3.35-16.5-13.66L98.54-340.77q-5.08-9.31-3.54-19.54 1.54-10.23 12.23-18.3l81.62-61q-1-8.48-1.89-20.53-.88-12.05-.88-21.53 0-8.1.88-19.56.89-11.46 1.89-22.16l-81.62-60q-9.69-7.07-11.54-17.49-1.84-10.43 4.23-20.73l65-115.23q5.08-8.93 16-12.47 10.93-3.53 21.85-.07l88.38 40.23q16.31-12.93 38.24-25.58 21.92-12.65 40.84-19.04l15.62-99.15q2-9.92 10.5-17t19.42-7.08h129.08q9.92 0 18.61 7.08t11.69 17l14.23 99.54q20.08 7.15 41.16 19.23 21.07 12.07 36.77 25L759-749.38q10.54-4.46 20.87-.43 10.33 4.04 15.97 12.97l65.62 115.61q5.08 10.31 2.54 20.73t-11.23 17.11l-72.85 63.77q.39 1.93.77 3.47.39 1.53.77 3.46-10 12.77-24.27 20.81-14.27 8.03-30.5 10.26L602.6-482q0-52.29-36.72-88.99-36.73-36.7-88.42-36.7-52.31 0-89.31 36.81-36.99 36.8-36.99 89.5 0 40.41 22.31 71.82 22.32 31.41 57.68 44.48v262.54q0 8.85-4.92 13.69Q421.31-84 413.44-84Z"/></svg>