<svg xmlns="http://www.w3.org/2000/svg" height="20" viewBox="0 -960 960 960" width="20"><path d="M611-87.87q-37.78 0-60.39-22.61T528-170.87V-301q0-37.78 22.61-60.39T611-384h227.57q37.78 0 60.39 22.61T921.57-301v130.13q0 37.78-22.61 60.39t-60.39 22.61H611Zm0-83h227.57V-301H611v130.13Zm-181.07 83q-15.43 0-27.39-9.34-11.95-9.33-14.19-24.77l-14.76-82.52q-21.09-8.28-41.04-19.33-19.94-11.04-37.51-25.84l-74.76 26q-15.95 5.47-32.65-.26-16.7-5.74-25.17-20.94l-44.55-78.37q-8.24-14.96-5.24-31.41 3-16.46 15.96-28.18l58.76-52q-1.76-11.04-2.76-22.08-1-11.05-1-23.09t1-23.09q1-11.04 2.76-22.08l-58.76-51.76q-13.2-11.72-16.2-28.18t5.48-31.65l44.55-78.13q8.47-14.96 25.05-20.7 16.58-5.74 32.53-.5l75.48 26q17.57-14.8 37.15-25.73 19.59-10.92 40.92-19.2l15.24-78.48q3.47-17.2 16.07-27.91 12.6-10.72 30.8-10.72h88.6q18.2 0 30.8 10.72 12.6 10.71 16.07 27.91l15.24 78.48q21.09 8.28 41.04 19.2 19.94 10.93 37.51 25.73l75.24-26q15.95-5.48 32.53.38 16.57 5.86 25.05 20.82l44.55 78.13q8.47 15.19 5.35 31.77-3.11 16.58-16.31 28.06l-50.87 45.54q2 4 3 12t1 17q-1.43 23.96-14.23 35.05-12.79 11.1-34.23 11.1H620.28q1-6 1.5-12.5t.5-12.5q-.24-60-42.12-101.38Q538.28-624 478.28-624q-60 0-101.5 41.5T335.28-481q0 54 34.62 94.24 34.62 40.24 85.86 48v224.54q0 12.44-6.36 19.39-6.36 6.96-19.47 6.96Z"/></svg>