<svg xmlns="http://www.w3.org/2000/svg" height="40" viewBox="0 -960 960 960" width="40"><path d="M608.52-64.17q-36.59 0-62.56-25.86Q520-115.88 520-152.32v-159.53q0-36.05 25.96-62.1Q571.93-400 608.52-400H850.7q36.04 0 62.09 26.05 26.05 26.05 26.05 62.1v159.53q0 36.44-26.05 62.29-26.05 25.86-62.09 25.86H608.52Zm0-88.15H850.7v-159.53H608.52v159.53ZM407.41-64.17q-17.11 0-29.86-11.22t-15.29-28.96l-13.43-91.58q-13.24-4.63-28.15-13.27-14.91-8.64-26.23-17.52l-77.44 35.33q-19.5 8.8-39.57 2.28-20.07-6.53-30.96-25.4L83.29-327.57q-10.57-17.84-6.23-38.07 4.33-20.24 21.21-32.9l70.44-52.66q-1.1-6.47-1.44-14.4-.33-7.94-.33-14.4t.33-14.4q.34-7.93 1.44-14.4l-70.44-52.1q-17.44-13.03-21.78-33.08-4.33-20.05 6.8-38.45l63.33-112.95q10.61-17.77 30.44-24.52 19.84-6.75 39.39 1.48l79.13 35.33q10.94-8.5 25.55-16.86 14.61-8.35 27.7-12.7l13.23-86.09q3.08-20.78 18.27-34.12 15.19-13.34 36.05-13.34h127.78q20.25 0 35.48 13.31 15.24 13.32 18.68 34.15l12.85 85.42q13.16 5.03 28.26 13.05 15.09 8.01 26.12 17.18l77.9-35.33q19.55-8.42 39.22-1.57 19.66 6.84 30.3 24.63l64.09 112.98q10.64 18.35 6.04 38.18-4.59 19.84-21.37 33.3l-60.8 53.33q-15.35 11.89-31.72 18.11-16.37 6.23-34.24 8.23H612.35q-.57-54.96-39.31-93.53t-93.69-38.57q-56.05 0-94.69 38.83-38.65 38.83-38.65 94.5 0 44 25.45 78.57 25.45 34.56 65.31 47.89v258.29q0 13.02-6.33 22.05-6.32 9.03-23.03 9.03Z"/></svg>