<svg xmlns="http://www.w3.org/2000/svg" height="24" viewBox="0 -960 960 960" width="24"><path d="M641-56q-50.94 0-85.97-35.03T520-177v-102q0-50.94 35.03-85.97T641-400h188q50.94 0 85.97 35.03T950-279v102q0 50.94-35.03 85.97T829-56H641Zm0-121h188v-102H641v102Zm-57.5-299.5q-17 8.5-34.8 2.37-17.8-6.14-26.7-22.87-7.5-14-18.93-22.5t-26.43-8.5q-20.14 0-34.14 13.97-14 13.98-14 34.53 0 16.62 12.75 27.31Q454-441.5 467.5-432q16 10 22 27.75T487-370q-9 17.5-26.75 22T424-350.5q-38.5-17.5-63-52T336.5-480q0-58 40.85-99t98.53-41q41.77 0 75.45 22.25Q585-575.5 604-538q7 16.87 1.75 34.94Q600.5-485 583.5-476.5ZM397-56q-22.17 0-38.75-14.42Q341.67-84.83 339-106.5l-10.5-85q-5.42-2.61-11.96-5.8-6.54-3.2-11.54-6.2l-67.5 28q-24.5 10.5-50 2.5t-39-32L76-332.5q-12.5-22.63-7.75-48.57Q73-407 94.5-423.5l59-45.5v-10.91q0-1.83.25-4.96T154-493l-58.5-43Q73-552.5 68-578t8.5-50l72-126q13.59-22.79 38.8-31.15 25.2-8.35 49.7 1.65l71.5 29q4-3 8.25-5.5t11.75-5.5L339-843q4.51-27.21 23.76-44.6Q382-905 409-905h142.5q27.18 0 46.11 17.4Q616.54-870.21 621-843l10.5 76q6.42 2.34 11.46 5.17Q648-759 653-754.5l70.5-29q24.5-11 49.61-2.11T812-754l72 126q13.5 24 7.95 49.98Q886.39-552.04 864-536l-83 59.5q-20 14.5-44.5 10.25T697-490.5q-14.5-19.5-10.68-43.88Q690.14-558.76 710-574l46-34-27.5-49-99 43Q610-638 581-655t-59.5-23.5L508.57-784H451l-11.5 104q-35 7.5-62 22.75T326-615l-95.5-42-27.5 49 81.5 60.5q-5 18-8 33.78-3 15.77-3 33.19 0 16.03 2.75 32.53t7.75 35l-81 60 27.58 49 94.7-41q23.22 24 52.47 40t61.75 25.5v179q0 18.32-8.81 31.41T397-56Zm81.5-423.5Zm0 0Z"/></svg>