<svg xmlns="http://www.w3.org/2000/svg" height="20" viewBox="0 -960 960 960" width="20"><path d="M592.31-116Q562-116 545-133q-17-17-17-47.31v-139.38Q528-350 545-367q17-17 47.31-17h235.38Q858-384 875-367q17 17 17 47.31v139.38Q892-150 875-133q-17 17-47.31 17H592.31Zm0-52h235.38q5.39 0 8.85-3.46t3.46-8.85v-139.38q0-5.39-3.46-8.85t-8.85-3.46H592.31q-5.39 0-8.85 3.46t-3.46 8.85v139.38q0 5.39 3.46 8.85t8.85 3.46Zm-152.16 52q-9.38 0-16.92-5.81-7.54-5.81-9.15-15.58l-14.62-86.46q-26.07-9.38-52.96-24.07-26.88-14.7-48.19-33.77L216-252.23q-8.85 2.31-18.38-.89-9.54-3.19-14.08-11.8l-38.08-66.16q-4.54-8.61-3.07-17.57 1.46-8.96 8.46-16.12l65.92-57q-2.38-13.92-3.96-28.42-1.58-14.5-1.58-29.43 0-14.53 1.58-28.84t3.96-29.77l-65.92-57q-7-7.16-8.27-16.31-1.27-9.15 3.27-17.77l37.69-65q4.54-8.23 14.08-11.61 9.53-3.39 18.38-1.08l81.92 29.08q22.47-19.46 48.39-33.96t52.77-24.27L415.62-823q2.61-9.46 9.61-15.23t17.46-5.77h74.23q10.46 0 17.66 5.77 7.19 5.77 9.8 15.23l16.16 87.23q28 10.54 52.57 24.27 24.58 13.73 47.43 33.58L745.15-707q8.85-2.31 18.2 1.08 9.34 3.38 13.88 11.61l37.69 65.39q4.54 8.61 2.89 17.77-1.66 9.15-8.66 15.92l-62.07 53.92q2.76 5.92 3.96 15.46 1.19 9.54 1.57 20.46 5 24.54-5.03 36.97Q737.54-456 717.92-456l-119.23-.38q1-6 1.5-12.5t.5-12.5q0-51.54-36.04-87.08T477.08-604q-51.16 0-86.89 35.73-35.73 35.73-35.73 86.89 0 45.53 29.12 79.96Q412.69-367 456-360.16v228.47q0 7.92-4.46 11.8-4.46 3.89-11.39 3.89Z"/></svg>