<svg xmlns="http://www.w3.org/2000/svg" height="24" viewBox="0 -960 960 960" width="24"><path d="M595-90q-30.94 0-52.97-22.03Q520-134.06 520-165v-160q0-30.94 22.03-52.97Q564.06-400 595-400h240q30.94 0 52.97 22.03Q910-355.94 910-325v160q0 30.94-22.03 52.97Q865.94-90 835-90H595Zm0-75h240v-160H595v160Zm-8.5-319.5q-14 7.5-29 2.42-15-5.07-22.5-18.92-8.5-17-22.75-28t-32.75-11q-25 0-42.5 17.14-17.5 17.15-17.5 42.36 0 17.62 10.25 31.81Q440-434.5 455.5-425q13 8 19 21.75T474-376q-7 14.5-21.75 20T423-357.5Q386.5-374 365.5-407t-21-73q0-55.93 39.5-95.46Q423.5-615 479.27-615q40.38 0 73.56 21.25Q586-572.5 603-536q7 14 2.25 29t-18.75 22.5ZM414-90q-16.5 0-28.75-10.75T371-127.5l-11.5-87q-13-5.5-26.25-12.75T309-242.5l-68.5 28q-20.5 8.5-41 1.5t-32-26L114-331.5q-11.5-19-6.75-40.75t22.25-35.25l60-45.5q-1-6.48-1-12.49V-480q0-6 .25-13t1.25-16l-59.5-44Q113-566.5 108-588t6.5-41l53-92q11.59-18.79 32.3-26.15 20.7-7.35 41.2 1.65l69.5 29q10-8 22.25-15t26.75-13L369-820q2.51-22.21 19.26-36.6Q405-871 427-871h106.5q22.18 0 38.61 14.4Q588.54-842.21 591-820l9.5 74q14 5.5 25.75 12.75T649-716.5l69.5-29q20.5-9 41.29-1.65Q780.58-739.79 792-721l53 92q11.5 19 6.95 40.48Q847.39-567.04 830-553l-63 46.5q-13 9.5-28 7.25t-24.5-15.25q-9-12.5-6.71-27.74Q710.08-557.48 722-567l50-38-37.5-67-101 43q-19.5-21-46-36.5t-55-23L519.57-796H441l-13.5 107q-32 8.5-56 22.25T324-630l-98.5-42-38.5 67 85.5 63.5q-5 16-7 30.5t-2 30.47q0 15.03 1.75 29.53 1.75 14.5 6.75 31l-85 64 38.58 67 97.92-42q24 24 53.75 40t63.25 22.5v148q0 12.56-7.31 21.53T414-90Zm65.5-390.5Zm0 0Z"/></svg>