<svg xmlns="http://www.w3.org/2000/svg" height="24" viewBox="0 -960 960 960" width="24"><path d="M577.5-137q-24.44 0-40.97-16.53Q520-170.06 520-194.5v-148q0-24.44 16.53-40.97Q553.06-400 577.5-400h228q24.44 0 40.97 16.53Q863-366.94 863-342.5v148q0 24.44-16.53 40.97Q829.94-137 805.5-137h-228Zm0-25.5h228q14 0 23-9t9-23v-148q0-14-9-23t-23-9h-228q-14 0-23 9t-9 23v148q0 14 9 23t23 9Zm-149 25.5q-5 0-8.5-3.75t-4.5-9.75l-10.5-97q-21.5-6-47.75-20.25T314-298l-84 36q-7 3-14 1t-11-9l-45.5-77.5q-4-6.5-2.5-13.75t8-12.25l74.5-55.5q-2.5-11.98-3.75-24.49Q234.5-466 234.5-479q0-10.5 1.5-23.25l3.5-29.75-74-55q-6.5-4.5-7.75-12.25T161-614l44-74q4.09-5.79 11.05-8.4 6.95-2.6 13.95-.1l84 35.5q19.5-16.5 43-30.25t47-21.25l12.5-93.5q1.51-7.71 7.01-12.6 5.49-4.9 12.99-4.9H523q7.18 0 13.11 4.9 5.93 4.89 7.39 12.6l12 94q26 9 45.75 20.75T642-661l90-35.5q6.5-2.5 13.54.1 7.04 2.61 10.96 8.4l44 75q4 7 2.36 14.23-1.64 7.23-7.86 11.77l-81 60q1.5 5 2.25 9t1.75 9q2 11.5-6.5 20.25t-21 8.75L561-481q0-35-25-59.75t-59.77-24.75q-35.23 0-59.98 24.75T391.5-481q0 25.4 13.25 46.2Q418-414 440.5-403.5v253q0 5.56-3.81 9.53-3.81 3.97-8.19 3.97Z"/></svg>