<svg xmlns="http://www.w3.org/2000/svg" height="48" viewBox="0 -960 960 960" width="48"><path d="M587-116q-27.72 0-47.36-19.64Q520-155.27 520-183v-150q0-27.73 19.64-47.36Q559.28-400 587-400h234q27.72 0 47.36 19.64Q888-360.73 888-333v150q0 27.73-19.64 47.36Q848.72-116 821-116H587Zm0-35h234q14 0 23-9t9-23v-150q0-14-9-23t-23-9H587q-14 0-23 9t-9 23v150q0 14 9 23t23 9Zm-166.79 35q-5.35 0-9.14-4.41-3.79-4.41-5.07-10.59l-12-100q-20-6-46.28-20.45Q321.44-265.91 304-282l-92 41q-6 2-12.5.5T191-248l-58-102q-2-5-2-10t7-10l81-61q-1-10.94-2.5-24.53-1.5-13.59-1.5-25.53 0-9.94 1.5-22.94 1.5-13 2.5-28l-81-60q-6-4-6-9.5t3-11.5l57-98q2-4 8-6t12-1l89 39q20-16 45-30.5t47-21.5l15-101q2-5 6.5-9t10.5-4h110q5 0 10 4t8 9l13 102q25 9 47 22t42 29l96-39q5-2 10.72.5 5.71 2.5 8.28 6.5l57 99q2 6 1 11.5t-6 8.5l-71 57q1 5 2 9t2 9q-2 14-13.5 24.5T715-481l-141.93-1q0-40.6-29.04-69.3Q515-580 475-580t-69 28.5q-29 28.5-29 69.51 0 29.95 15.55 53.66Q408.1-404.61 433-394v265q0 7-4 10t-8.79 3Z"/></svg>