<svg xmlns="http://www.w3.org/2000/svg" height="24" viewBox="0 -960 960 960" width="24"><path d="M646-46q-53 0-89.5-36.5T520-172v-102q0-53 36.5-89.5T646-400h188q53 0 89.5 36.5T960-274v102q0 53-36.5 89.5T834-46H646Zm0-126h188v-102H646v102ZM394-46q-23 0-40-14.5T334-98l-11-87q-5-2-10-5l-10-6-61 26q-29 13-59 3t-46-38L71-322q-15-27-9-57.5T93-429l52-40v-22l-52-39q-26-19-32-49.5T71-638l66-116q16-27 45.5-37t58.5 2l64 26q5-3 9-5.5t9-4.5l9-68q5-32 27.5-52.5T414-914h132q32 0 54.5 20.5T628-841l9 68q5 2 10 4.5t10 5.5l61-26q29-13 59-2.5t46 37.5l66 116q16 28 10 58.5T867-530l-33 24q-17 12-36 18.5t-39 6.5H620q-1-58-42-98.5T479-620q-59 0-99.5 40.5T339-480q0 48 28 85t72 50v251q0 20-9.5 34T394-46Z"/></svg>