<svg xmlns="http://www.w3.org/2000/svg" height="40" viewBox="0 -960 960 960" width="40"><path d="M582.56-100q-25.78 0-44.17-18.39T520-162.57v-174.87q0-25.78 18.39-44.17T582.56-400h254.87q25.79 0 44.18 18.39T900-337.44v174.87q0 25.79-18.39 44.18T837.43-100H582.56Zm0-50.26h254.87q5.39 0 8.85-3.46t3.46-8.85v-174.87q0-5.38-3.46-8.84-3.46-3.47-8.85-3.47H582.56q-5.38 0-8.84 3.47-3.47 3.46-3.47 8.84v174.87q0 5.39 3.47 8.85 3.46 3.46 8.84 3.46Zm-8.54-344.92q-9 5.26-19.06 2.71-10.06-2.56-15.32-11.56-10.38-16.92-25.6-28.88-15.21-11.96-34.66-11.96-26.91 0-45.89 18.59-18.98 18.6-18.98 45.66 0 20.02 11.54 35.97 11.54 15.96 29.95 24.21 9.26 4.59 13.19 14.41 3.94 9.82-.65 18.95-4.59 9.13-14.21 12.8-9.61 3.66-19.28-.52-32.13-13.33-51.46-41.88-19.33-28.56-19.33-63.73 0-48.11 33.34-81.41 33.34-33.31 81.49-33.31 33.44 0 61.4 17.8 27.97 17.79 42.79 47.77 4.85 9.25 2.3 19.19-2.56 9.93-11.56 15.19ZM420.54-100q-11.01 0-18.83-7.32-7.81-7.31-9.38-18.68l-13.1-94.77q-19.05-6.46-40.47-18.59-21.43-12.13-37.3-25.77l-80.95 36.49q-13.56 5.74-27.17 1.32-13.61-4.43-21.21-17.24l-50.62-88.98q-7.56-12.74-4.31-26.59 3.25-13.84 14.9-22.54L205.16-437q-1.8-10-2.58-21.31-.78-11.31-.78-21.11 0-9.81.78-21.05.78-11.25 2.58-22.53l-73.06-54.33q-11.79-8.77-14.78-22.77t4.58-26.75l50.23-87.82q7.7-12.59 21.26-17.13 13.56-4.53 27.12 1.21l80.57 35.85q17.02-13.77 37.78-25.71 20.76-11.93 39.99-18.11l12.92-89.05q2.2-14.14 13.06-23.27Q415.7-860 429.8-860h100.4q14.1 0 24.97 9.12 10.86 9.13 13.06 23.27l12.54 88.76q20.72 7.62 40.29 18.58 19.58 10.96 36.32 25.53l82.34-35.85q13.31-5.74 26.8-1.17 13.49 4.58 21.12 17.09l50.64 88.21q7.56 12.74 4.46 26.75-3.1 14.01-14.84 22.38l-79.36 58.15q-8.64 6.08-17.98 4.73-9.33-1.35-15.88-9.73-6.55-8.38-5.23-18.38 1.32-10 9.75-16.62l69.42-51.69-39.8-69.9-103.92 44.28q-20.75-22.95-49.94-40.48-29.19-17.54-59.78-22.65L521.9-809.74h-83.59L425.08-700q-32.36 6.82-59.64 22.49-27.29 15.66-51.23 40.43l-103.03-43.69-39.8 69.9 90.44 66.69q-4.59 15.31-6.79 31.31-2.21 16-2.21 33.03 0 16.69 2.21 32.21 2.2 15.53 6.41 31.22l-90.06 67.28 39.8 69.9 102.64-43.9q24.82 25.18 56.71 41.86 31.88 16.68 67.57 24.06v137.29q0 8.27-4.77 14.09-4.77 5.83-12.79 5.83Zm59.28-380.62Zm0 0Z"/></svg>