<svg xmlns="http://www.w3.org/2000/svg" height="24" viewBox="0 -960 960 960" width="24"><path d="M606-81.87q-35.72 0-60.86-25.14T520-167.87V-314q0-35.72 25.14-60.86T606-400h227.57q35.72 0 60.86 25.14T919.57-314v146.13q0 35.72-25.14 60.86t-60.86 25.14H606Zm0-86h227.57V-314H606v146.13Zm-20.22-314.72q-14.71 7.74-30.38 2.41-15.67-5.33-23.51-19.86-8.26-16.29-21.84-26.69-13.57-10.4-31.23-10.4-23.84 0-40.5 16.39-16.67 16.38-16.67 40.48 0 17.38 10.85 30.73 10.85 13.36 25.87 22.86 13.72 8.47 19.72 23.18 6 14.71-.98 28.92-7.48 15.22-22.95 20.48-15.46 5.26-30.92-1.74-36.98-16.74-58.82-50.09-21.83-33.36-21.83-74.08 0-56.42 39.82-96.31t96.05-39.89q40.72 0 74.01 21.49 33.29 21.49 50.77 58.23 7 14.69 2.13 30.42-4.87 15.73-19.59 23.47ZM409.93-81.87q-17.85 0-31.14-11.63-13.28-11.62-15.44-28.98L352.09-209q-11.19-4.81-22.84-11.09-11.64-6.28-21.21-13.08l-68.26 28q-21.45 8.97-43.15 1.74-21.7-7.24-33.67-27.44l-58.05-100.87q-11.74-19.87-6.99-42.62 4.75-22.75 23.21-36.97l59.76-45.5q-.76-5.47-.76-10.56v-12.59q0-5 .25-11.08.25-6.07 1.01-14.11l-59.26-43.76q-18.7-14.22-23.7-36.68t6.98-43.15l57.55-100.13q12.07-19.75 33.85-27.34 21.78-7.6 43.23 1.64l69.98 29q8.57-6.8 18.9-12.73 10.34-5.92 23.17-11.2l9.74-75.98q2.99-23.41 20.33-38.52 17.34-15.11 40.54-15.11h115.1q23.38 0 40.41 15.11 17.02 15.11 19.96 38.52l9.74 74.48q12.19 4.74 22.34 10.94 10.14 6.19 19.71 14.49l69.74-29q21.45-9.48 43.28-1.75 21.82 7.72 33.8 27.45l57.55 100.13q11.97 20.19 7.18 42.75-4.79 22.55-23.38 37.08l-67.78 49.6q-14.68 10.7-31.95 7.97-17.27-2.73-28.08-17.4-10.32-14.17-7.66-31.6 2.65-17.42 16.47-28.31l49.04-37.05-35.1-62.69-100.53 43q-19.5-21.72-46.59-37.58-27.1-15.86-56.08-23.12l-12.93-107.02h-73.55l-13.02 106.28q-32.72 8.26-57.44 22.37-24.71 14.11-48.45 38.07l-97.78-42-35.87 62.69 84.54 62.79q-5 16.47-7.24 31.28-2.24 14.8-2.24 31.12 0 15.27 1.99 30.25t6.99 31.95l-84.04 63.05 35.94 62.69 97.16-41.76q23.81 24 53.44 40t62.89 23.22v155.41q0 13.94-7.67 23.9-7.67 9.95-22.66 9.95Zm69.33-398.39Zm0 0Z"/></svg>