<svg xmlns="http://www.w3.org/2000/svg" height="40" viewBox="0 -960 960 960" width="40"><path d="M575.17-133.67q-23.13 0-39.15-16.02T520-188.83v-156q0-23.13 16.02-39.15T575.17-400h236q23.12 0 39.14 16.02t16.02 39.15v156q0 23.12-16.02 39.14t-39.14 16.02h-236Zm0-23.16h236q14 0 23-9t9-23v-156q0-14-9-23t-23-9h-236q-14 0-23 9t-9 23v156q0 14 9 23t23 9Zm-146.34 23.16q-4.33 0-7.47-3.6-3.15-3.61-4.19-9.23L406-244.83q-22.83-6.34-50.25-21.59T310-299l-86.33 38.67q-6.67 2.66-12.84 1-6.16-1.67-9.5-8l-46.16-78.84q-3.34-5.5-2.14-11.74 1.2-6.25 7.64-10.92l77.5-57.5q-2.5-12.98-3.75-26.16T233.17-479q0-11.5 1.33-25.08 1.33-13.59 3.33-29.92l-77-57.67q-6.5-3.83-7.41-10.75-.92-6.91 3.25-12.91l44.66-75.34q3.43-5.12 9.55-7.39 6.12-2.27 12.45-.44l86.34 37.17q20.83-16.84 46-31.75 25.16-14.92 49.2-22.16l13.3-96.09q1.84-6.71 6.67-10.94 4.83-4.23 11.33-4.23h87.16q6.18 0 11.44 4.23 5.27 4.23 7.06 10.94l12.96 96.54q26.04 9.46 48.13 22.37 22.08 12.92 43.75 31.09L739-698.5q5.17-1.83 11.54.44 6.38 2.27 9.63 7.39l44.66 76.34q3.34 6.33 1.8 12.4-1.54 6.07-6.63 10.26l-79.67 62q.84 5 1.92 9t2.08 9q0 12.17-8.5 21.42-8.5 9.25-22.33 9.92l-132.17-1q0-34.67-25.16-59.25-25.17-24.59-59.61-24.59-35.23 0-59.81 24.42-24.58 24.42-24.58 59.75 0 25.33 13.1 45.91t34.56 30.59v258.67q0 5.89-3.42 9.03-3.42 3.13-7.58 3.13Z"/></svg>