<svg xmlns="http://www.w3.org/2000/svg" height="40" viewBox="0 -960 960 960" width="40"><path d="M586.67-80q-27 0-46.84-19.83Q520-119.67 520-146.67v-186.66q0-27 19.83-46.84Q559.67-400 586.67-400h266.66q27 0 46.84 19.83Q920-360.33 920-333.33v186.66q0 27-19.83 46.84Q880.33-80 853.33-80H586.67Zm0-66.67h266.66v-186.66H586.67v186.66Zm1.33-343q-12.33 6.67-25.67 2.84-13.33-3.84-20-16.17-10-18.33-25.83-31-15.83-12.67-35.83-12.67-27.67 0-47.17 19T414-481q0 21.33 12.5 38.17Q439-426 459.33-418q12.34 6 18 18.83Q483-386.33 477-374q-6 12.33-18.5 17.67-12.5 5.33-25.5 0-38.67-15-62.17-48.67t-23.5-75.67q0-55.33 38.67-94 38.67-38.66 94-38.66 39.33 0 72.17 21 32.83 21 49.83 57 6 12.33 2.17 25.66-3.84 13.34-16.17 20ZM415.67-80q-15 0-25.67-9.67-10.67-9.66-12.67-24.66l-14-92.34q-17-6.33-34.83-16.66-17.83-10.34-32.17-21.67l-78 35.33Q200.67-202 183-208q-17.67-6-27.67-22.33L101-327q-10-16.33-5.67-34.5 4.34-18.17 19.34-29.5l71-52.67q-1.67-8.33-2-18.16-.34-9.84-.34-18.17 0-8.33.34-18.17.33-9.83 2-18.16l-71-52.67q-15-11.33-19.34-29.5Q91-616.67 101-633l54.33-96.67Q165.33-746 183-752t35.33 1.67l78 35.33q14.34-11.33 32.34-21.67 18-10.33 34.66-16L376-838q2.33-18.33 16.33-30.17 14-11.83 32.34-11.83h110.66q18.34 0 32.34 11.83 14 11.84 16.33 30.17l12.67 84.67q17 6.33 35.16 16.33 18.17 10 31.84 22L741-750.33q17.67-7.67 35.17-1.67t27.5 22.33l55 96.67q10 16.33 5.83 34.67Q860.33-580 845.33-569L772-515.33q-11.33 8-24 6.33t-21.33-13q-8.67-11.33-6.84-24.67 1.84-13.33 12.84-22l59.66-44-39.66-70.66L649-638.67q-22.67-25-50.83-41.83-28.17-16.83-61.84-22.83l-13.66-110h-85l-14 110q-33 7.33-61.5 23.83T311-639l-103.67-44.33-39.66 70.66L259-545.33Q254.67-529 252.33-513 250-497 250-480q0 16.67 2.33 32.67 2.34 16 6.67 32.33l-91.33 67.67 39.66 70.66L311-321.33q25.33 25.66 57.67 43Q401-261 437.33-254v149.33q0 10-5.66 17.34Q426-80 415.67-80Zm64.66-401Zm0 0Z"/></svg>