<svg xmlns="http://www.w3.org/2000/svg" height="20" viewBox="0 -960 960 960" width="20"><path d="M610.62-104q-38.34 0-60.48-22.14Q528-148.27 528-186.62v-114.76q0-38.34 22.14-60.48Q572.28-384 610.62-384h218.76q38.35 0 60.48 22.14Q912-339.72 912-301.38v114.76q0 38.35-22.14 60.48Q867.73-104 829.38-104H610.62Zm0-58h218.76q10.77 0 17.7-6.92 6.92-6.93 6.92-17.7v-114.76q0-10.77-6.92-17.7-6.93-6.92-17.7-6.92H610.62q-10.77 0-17.7 6.92-6.92 6.93-6.92 17.7v114.76q0 10.77 6.92 17.7 6.93 6.92 17.7 6.92Zm-183.11 58q-7.11 0-12.98-4.53-5.87-4.52-7.38-12.24l-14.23-91.92q-23.15-8.77-51.7-23.61-28.55-14.84-48.6-34.08L194-234.46q-2.69-1.39-6.27-1.77-3.58-.39-3.65-3.62l-60.16-108.3q-.07-3.23-1.15-4.66-1.08-1.42.92-4.73l77.85-66q-1.77-13.79-3.92-28.87-2.16-15.09-2.16-29.88 0-14.02 2.16-27.63 2.15-13.62 3.92-30.54l-76.85-65q-2-3.31-.54-5.12 1.47-1.8 1.54-5.04l59.39-103q.07-2.46 3.15-3.23T194-724l93.85 33.15q22.92-19.92 50.77-34.92 27.84-15 54.53-25.54L412.23-853q2.23-1.92 4.73-3.46 2.5-1.54 5.42-1.54h114.47q2.92 0 5.8 1.54 2.89 1.54 5.12 3.46l18.31 103.46q28 12.08 53.65 25.54 25.65 13.46 49.35 34.15L769.31-724q2.69.38 5.1 1.65 2.41 1.27 3.05 3.73l59.39 103.77q.07 3.23.27 5.54.19 2.31-1.81 3.85l-50.16 43.84q3.54 7.85 4.93 18.93 1.38 11.07 2.15 23.92 7 29.08-7.08 44.92Q771.08-458 748.85-458l-149.4-.77q1-6 1.5-12.5t.5-12.5q0-54.68-37.11-92.45Q527.23-614 472.15-614q-53.3 0-91.77 38.46-38.46 38.46-38.46 91.78 0 46.03 28.78 81.59 28.79 35.56 72.3 43.86v242.93q0 6.84-4.92 9.11-4.93 2.27-10.57 2.27Z"/></svg>