<svg xmlns="http://www.w3.org/2000/svg" height="24" viewBox="0 -960 960 960" width="24"><path d="M646-46q-53 0-89.5-36.5T520-172v-102q0-53 36.5-89.5T646-400h188q53 0 89.5 36.5T960-274v102q0 53-36.5 89.5T834-46H646Zm0-126h188v-102H646v102Zm-57-303q-18 9-36.8 2.44-18.8-6.56-28.2-24.44-7-14-18.68-22.5t-26.18-8.5Q459-528 445-514.17T431-480q0 17 12 28t27 19q18 10 24 29.5t-4 37.5q-10 18-28.5 23t-37.5-3q-40-18-65-53.5T334-480q0-60.07 42.35-102.54Q418.7-625 478.62-625 522-625 557-602q35 23 54 62 8 17.87 2 36.94Q607-484 589-475ZM394-46q-22.67 0-40-14.67Q336.67-75.33 334-98l-11-87q-5.42-2.11-10.21-5.05Q308-193 303-196l-61 26q-29 13-59 3t-46-38L71-322q-15-26.63-9-57.32Q68-410 93-429l52-40v-22l-52-39q-26-19-32-49.5T71-638l66-116q16-27 45.5-37t58.5 2l64 26q5-3 9-5.5t9-4.5l9-68q5-32 27.5-52.5T414-914h132q32 0 54.5 20.5T628-841l9 68q5.42 1.84 10.21 4.42Q652-766 657-763l61-26q29-13 58.82-2.46Q806.63-780.93 823-754l66 116q16 28 9.5 58.5T866-530l-66 48q-21 15-46.5 11t-41-25q-15.5-21-11.47-46.14Q705.06-567.29 726-583l35-26-29-50-97 42q-22-26-51-43t-62-24l-13-104h-58l-12 103q-34 7-63.5 24T323-618l-96-41-28 50 82 61q-5 17-8 33.28-3 16.27-3 34.72 0 17 3 34t8 34l-82 61 28 50 95.78-41q23.22 25 52.72 42t63.5 25v181q0 19.76-9.5 33.88Q420-46 394-46Zm86-434Zm0 0Z"/></svg>