<svg xmlns="http://www.w3.org/2000/svg" height="20" viewBox="0 -960 960 960" width="20"><path d="M621-86.78q-42.24 0-67.62-25.38Q528-137.54 528-179.78V-291q0-42.24 25.38-67.62Q578.76-384 621-384h210.61q42.24 0 67.62 25.38 25.38 25.38 25.38 67.62v111.22q0 42.24-25.38 67.62-25.38 25.38-67.62 25.38H621Zm0-93h210.61V-291H621v111.22Zm-30.2-305.2q-14.69 8.07-29.27 2.39-14.59-5.67-22.88-20.15-10.93-18.3-27.21-31.89-16.29-13.59-37.31-13.59-28.5 0-47.52 20.36-19.02 20.35-19.02 48.74 0 21.24 15.66 35.95 15.66 14.71 33.03 25.21 13.7 8.13 21.2 22.64 7.5 14.52 1.37 28.71-6.63 15.2-21.58 18.63-14.94 3.44-30.7-.56-41.64-15.07-68.61-50.94-26.98-35.87-26.98-80.07 0-60.55 41.84-102.91 41.84-42.37 100.92-42.37 42.78 0 76.74 24.32 33.95 24.31 54.09 62.38 6 14.62 3.46 29.85-2.53 15.24-17.23 23.3ZM427.39-86.78q-16.93 0-29.52-10.32-12.58-10.33-14.96-26.53l-13.93-79.87q-18.72-7.86-38.17-17.82-19.46-9.96-35.07-23.14l-80.94 28q-12.76 3.64-26.58-.43-13.83-4.07-20.46-16.89l-57.24-100.29q-6.06-12.05-4.31-25.16 1.75-13.12 12.51-23.31l65.43-57.5q-1.43-9.12-2.43-18.45-1-9.32-1-21.46 0-9.64 1.25-19.96 1.25-10.31 2.68-22.05l-64.93-55.43q-11.33-10.2-13.33-22.96-2-12.76 4.63-26.08l56.74-99.22q6.72-12.06 20.47-16.48 13.75-4.41 26.51-.85l83.63 29q14.61-13.17 31.84-22.63 17.22-9.46 38.77-17.76L386.04-843q3.64-14.04 14.04-22.63 10.4-8.59 24.75-8.59h110.84q14.53 0 24.61 8.59T573.96-843l17.06 87.13q19.72 7.71 37.67 17.47 17.96 9.75 33.57 24.42l85.07-29q12.76-4.13 25.79.58t20.18 16.75l56.74 99.22q6.64 12.82 4.02 26.34-2.62 13.53-13.84 22.7l-95.31 77.85q-13.95 12.32-33.94 9.28-19.99-3.05-32.36-17.67-11.11-13.46-8.96-32.37 2.16-18.9 16.57-31.66l58.74-49.74-10.85-18.82-96.87 33q-23.5-29.7-56.91-49.54-33.42-19.85-70.05-24.79l-18.93-99.37h-23.7l-17.37 98.31q-40.69 6.93-72.39 25.03-31.69 18.1-58.76 50.36l-93.8-33-11.29 18.82 73.24 64.81q-6 20.13-10.06 38.85-4.07 18.72-4.07 37.51 0 19.42 3.32 38.64 3.31 19.22 9.31 38.85l-71.74 63.74 10.36 18.82 93.11-31.43q26.56 31 62.52 49 35.97 18 75.9 27.19v161.52q0 12.82-6.22 20.12-6.23 7.3-22.32 7.3Zm50.54-392.15Zm0 0Z"/></svg>