<svg xmlns="http://www.w3.org/2000/svg" height="40" viewBox="0 -960 960 960" width="40"><path d="M586.67-80q-27 0-46.84-19.83Q520-119.67 520-146.67v-186.66q0-27 19.83-46.84Q559.67-400 586.67-400h266.66q27 0 46.84 19.83Q920-360.33 920-333.33v186.66q0 27-19.83 46.84Q880.33-80 853.33-80H586.67Zm0-66.67h266.66v-186.66H586.67v186.66ZM415.67-80q-15 0-25.67-9.67-10.67-9.66-12.67-24.66l-14-92.34q-17-6.33-34.83-16.66-17.83-10.34-32.17-21.67l-78 35.33Q200.67-202 183-208q-17.67-6-27.67-22.33L101-327q-10-16.33-5.67-34.5 4.34-18.17 19.34-29.5l71-52.67q-1.67-8.33-2-18.16-.34-9.84-.34-18.17 0-8.33.34-18.17.33-9.83 2-18.16l-71-52.67q-15-11.33-19.34-29.5Q91-616.67 101-633l54.33-96.67Q165.33-746 183-752t35.33 1.67l78 35.33q14.34-11.33 32.34-21.67 18-10.33 34.66-16L376-838q2.33-18.33 16.33-30.17 14-11.83 32.34-11.83h110.66q18.34 0 32.34 11.83 14 11.84 16.33 30.17l12.67 84.67q17 6.33 35.16 16.33 18.17 10 31.84 22L741-750.33q17.67-7.67 35.17-1.67t27.5 22.33l55 96.67q10 16.33 5.5 34t-18.84 30l-77 66.33q-12.33 10-25.16 15-12.84 5-28.17 7H613.67q0-55.33-38.84-94-38.83-38.66-94.16-38.66-55.67 0-94.5 38.83-38.84 38.83-38.84 94.5 0 44 25.17 78t64.83 48v249.33q0 10-5.66 17.34Q426-80 415.67-80Z"/></svg>