<svg xmlns="http://www.w3.org/2000/svg" height="48" viewBox="0 -960 960 960" width="48"><path d="M574.81-121.15q-22.41 0-38.61-16.2T520-175.96v-169.23q0-22.41 16.2-38.61t38.61-16.2h249.23q22.41 0 38.61 16.2t16.2 38.61v169.23q0 22.41-16.2 38.61t-38.61 16.2H574.81Zm0-30.2h249.23q10.77 0 17.69-6.92 6.92-6.92 6.92-17.69v-169.23q0-10.77-6.92-17.69-6.92-6.93-17.69-6.93H574.81q-10.77 0-17.69 6.93-6.93 6.92-6.93 17.69v169.23q0 10.77 6.93 17.69 6.92 6.92 17.69 6.92Zm-15.93-351.5q-5.23 4.08-11.09 2.79-5.87-1.29-9.94-5.48-10.62-15.92-25.68-27.5-15.07-11.58-34.32-11.58-26.76 0-45.69 18.82-18.93 18.81-18.93 45.18 0 19.84 10.98 35.13 10.98 15.3 29.02 24.68 5.39 2.69 7.17 8.39 1.79 5.69-.67 10.94-2.58 5.48-8.52 7.54-5.94 2.06-11.67-1.18-26.19-9.92-41.35-33.17-15.15-23.26-15.15-51.73 0-40.33 26.87-67.56 26.86-27.23 67.66-27.23 27.05 0 49.7 14.04 22.65 14.04 34.54 37.77 3.84 5.5 2.38 11.23t-5.31 8.92Zm-132.07 381.7q-6.32 0-10.66-4.91-4.33-4.91-5.65-11.98l-12.19-97.61q-22.46-6.62-49.08-21.56-26.61-14.94-44.92-31.79l-87.85 40.23q-7.77 3.08-14.84 1.23-7.08-1.85-11-9.23l-49.97-86.42q-3.8-6.27-2.3-13.48 1.5-7.2 8.73-12.37l80.04-59.19q-2.39-12.44-3.47-25.37-1.07-12.94-1.07-25.25 0-11.57 1.07-25.05 1.08-13.48 3.08-28.1l-79.54-59.46q-7.42-4.42-8.69-12.14-1.27-7.71 3.42-14.48l48.7-83.61q4.21-6.72 11.2-8.96 6.99-2.23 14.26.07l88.07 38.81q20-15.96 44.91-30.71 24.9-14.75 48.12-21.83l14.32-97.77q2-7.59 8.03-12.23 6.04-4.65 13.2-4.65h95.04q7.02 0 12.9 4.65 5.88 4.64 7.83 12.23l13.95 97.68q24.51 9.25 47.42 22.4 22.9 13.15 43.28 30.23l92.93-38.81q6.11-2.3 13.38.06 7.27 2.36 10.96 8.83l48.93 84.38q3.8 7.16 2.48 14.52-1.33 7.37-8.52 11.33l-93.58 67.73q-5.23 4.31-10.37 3.19-5.13-1.11-8.78-6.11-4.43-3.96-3.71-10.34.71-6.37 5.9-10.05l85.11-63.46-39.38-69.58-105.46 44.58q-19.81-21.15-50.1-39.81-30.29-18.65-57.63-22.5l-13.29-110.96h-83.71l-11.96 110.64q-33.47 6.67-59.35 21.32-25.88 14.66-51.42 40.54l-103.2-43.81L172-610.5l91.31 66.19q-4.77 14.81-6.89 30.99-2.11 16.18-2.11 32.98 0 17.98 1.86 32.89 1.87 14.91 5.87 30.49L172-349.62l40.08 69.58 103.11-43.69q24.46 25.14 56.18 41.41 31.71 16.28 67.44 23.13v124.92q0 6.52-3.39 9.82-3.39 3.3-8.61 3.3Zm52.69-359.47Zm0 0Z"/></svg>