<svg xmlns="http://www.w3.org/2000/svg" height="20" viewBox="0 -960 960 960" width="20"><path d="M626-64q-43.72 0-70.86-27.14T528-162v-124q0-43.73 27.14-70.86Q582.28-384 626-384h228q43.72 0 70.86 27.14Q952-329.73 952-286v124q0 43.72-27.14 70.86T854-64H626Zm0-98h228v-124H626v124ZM415.21-64q-16.35 0-29.14-9.91T371-100l-15-85q-17-8-34.78-17.45Q303.44-211.91 288-225l-84 29q-15 4-30.5-1T151-216L87-332q-7-14-5-28.5T96-386l64-56q-1-9.94-2-20.03-1-10.09-1-21.03 0-10.94 1-19.94 1-9 2-19l-63-55q-12-11-14-25.5t5-28.5l64-113q7-14 22-19t30-1l80 27q16-13 35-23t38-19l16-84q3-15 15.5-25t28.5-10h126q16 0 28.5 10t15.5 25l16 85q18 9 37.5 19t35.5 23l81-28q15-5 29.72.5Q801.43-758 809-744l64 113q7 14 4.5 29T863-577l-44 40q2 4 3 12t1 17q-3 26-19 38t-39 12H644.07q1-6 1.5-12.5t.5-12.5q0-71.6-49.04-121.3Q548-654 476-654q-71 0-121 50t-50 121.01q0 62.95 39.55 109.66Q384.1-326.61 443-316v226q0 13-8 19.5T415.21-64Z"/></svg>