<svg xmlns="http://www.w3.org/2000/svg" height="24" viewBox="0 -960 960 960" width="24"><path d="M606-100q-36.72 0-61.36-24.64Q520-149.27 520-186v-128q0-36.73 24.64-61.36Q569.28-400 606-400h216q36.72 0 61.36 24.64Q908-350.73 908-314v128q0 36.73-24.64 61.36Q858.72-100 822-100H606Zm0-54h216q14 0 23-9t9-23v-128q0-14-9-23t-23-9H606q-14 0-23 9t-9 23v128q0 14 9 23t23 9Zm-37-344q-10 5-20.3 2.6-10.3-2.41-15.7-12.6-11.22-14.44-25.49-25.22Q493.23-544 475.31-544q-25.96 0-44.14 17.73Q413-508.54 413-482.47q0 17.7 9.5 32.59Q432-435 446-427q10 5 13 16t-2 21q-5 10-16.5 12.5T419-380q-28.04-15.6-44.02-43.3Q359-451 359-482q0-48.6 33.61-82.3 33.61-33.7 82.08-33.7 33.28 0 60.3 18Q562-562 578-534q4 10 2.5 20.5T569-498ZM407.83-100q-8.12 0-13.56-5.36-5.43-5.36-6.27-13.64l-11-100q-15-5-36.78-16.45Q318.44-246.91 305-260l-90 38q-9 4-18.5 1T183-233l-66-118q-4-9-2.82-17.1 1.18-8.1 8.82-13.9l76-58q-1-9.9-2.5-20.95Q195-472 195-481.03q0-9.03 1.5-19.23Q198-510.47 199-524l-75-56q-8-6-8.5-15t3.5-18l65-112q4.25-8.41 13.13-11.21Q206-739 215-736l85 35q17-14 38-25.5t39-18.5l13-95q2-9 9.96-15.5 7.97-6.5 17.04-6.5h126q9.07 0 17.04 6.5Q568-849 570-840l12 97q21 9 38.5 18.5T656-700l91-36q9-4 17.63-.71 8.63 3.3 13.37 11.71l65 113q4 9 2.44 17.92-1.56 8.92-9.44 14.08l-106 79q-8 7-19 5t-18.5-10.5q-7.5-8.5-6.17-19.6 1.34-11.09 10.67-18.9l85-65-39-68-102 41q-17-20-49.39-38.79-32.4-18.8-59.61-24.21l-11-108h-83l-10 106q-34 7-61 22.5T314-637l-97-41-41 68 84 65q-5 17-7 33t-2 30.15q0 13.33 2 29.09t6 35.76l-83 65 41 68 97-41q24 22 53 37.5t60 26.5v142.7q0 8.48-6 13.39T407.83-100ZM477-482Zm0 0Z"/></svg>