<svg xmlns="http://www.w3.org/2000/svg" height="48" viewBox="0 -960 960 960" width="48"><path d="M593-64q-28.72 0-50.86-22.14T520-137v-190q0-28.73 22.14-50.86Q564.28-400 593-400h274q28.72 0 50.86 22.14Q940-355.73 940-327v190q0 28.72-22.14 50.86T867-64H593Zm0-73h274v-190H593v190ZM409.21-64q-15.35 0-25.64-9.91Q373.28-83.82 371-99l-15-95q-16-6-35.28-16.95Q301.44-221.91 287-233l-90 41q-14 6-28.5 1.5T147-208L77-335q-7-12-4.5-25.5T88-384l82-61q-1-6.94-1.5-18.03t-.5-19.03q0-6.94.5-17.44T170-518l-82-60q-12-9-15-22.5t5-26.5l70-126q7-12 21-16.5t28 .5l88 41q14-11 34-22.5t37-17.5l16-98q2-13 13-22t25-9h141q13 0 24 9t14 22l15 98q17 6 37.5 17.5T675-728l89-41q14-6 27.22-1 13.21 5 20.78 17l71 126q7 13 3.5 26.5T872-578l-74 68q-15 12-31 18.5t-33 9.5H621.07q0-59.6-41.54-101.3Q538-625 479-625q-60 0-102 42t-42 102.01q0 46.95 26.55 83.16Q388.1-361.61 430-347v261q0 10-5.5 16t-15.29 6Z"/></svg>