<svg xmlns="http://www.w3.org/2000/svg" height="20" viewBox="0 -960 960 960" width="20"><path d="M606-116q-36.72 0-57.36-20.64Q528-157.27 528-194v-112q0-36.73 20.64-57.36Q569.28-384 606-384h216q36.72 0 57.36 20.64Q900-342.73 900-306v112q0 36.73-20.64 57.36Q858.72-116 822-116H606Zm0-46h216q14 0 23-9t9-23v-112q0-14-9-23t-23-9H606q-14 0-23 9t-9 23v112q0 14 9 23t23 9Zm-31-341q-9 5-17.3 2.6-8.3-2.41-13.7-11.6-14.22-17.44-32.12-32.22Q493.98-559 471.56-559q-32.21 0-53.89 22.73Q396-513.54 396-481.65q0 21.88 13.5 39.27Q423-425 440-416q9 4 13.5 13.5t1 18.5q-3.5 9-13.5 10t-19-1q-32.04-13.6-52.02-43.32Q350-448.05 350-481.55q0-52.05 35.19-87.75 35.18-35.7 85.89-35.7 34.89 0 62.41 20.5Q561-564 579-535q3 9 4 18t-8 14ZM430.83-116q-5.35 0-8.67-2.86-3.32-2.86-4.16-8.14l-14-94q-25-9-56.78-25.45Q315.44-262.91 294-284l-103 38q1-2 1-1.5t2 .5l-59-106q2 0 .18 2.9T132-348l82-70q-2-14.9-4.5-31.45Q207-466 207-481.03q0-15.03 2.5-30.73Q212-527.47 214-546l-81-68q1-1 3.5 1t.5 2l58-100q-1.75.59-2.37 1.29Q192-709 191-712l98 35q25-22 55.5-38.5T404-743l20-107q2 2 2.2 3 .2 1-1.2 1h110q-1.4 0-1.2-1 .2-1 2.2-3l19 109q31 13 58.5 27.5T667-676l106-36q-1 2-2.57 1.78-1.57-.22-2.43-.78l58 101q-2 0-1.06-1.58T827-614L700-511q-5 7-15.62 5.33-10.62-1.66-17.88-7.83-6.5-5.5-6.17-15.1.34-9.59 7.67-17.4l96-79-18-30-99 31q-21-27-58.89-49.29-37.9-22.3-72.11-25.71l-17-101h-40l-15 99q-41 6-74 25t-62 53l-94-32-20 30 74 68q-6 20-9.5 39.5t-3.5 35.65q0 17.15 3 36.5t8 41.35l-72 67 19 30 94-31q27 29 62.5 46.5T443-262v138.7q0 5.48-4.07 6.39-4.07.91-8.1.91ZM476-481Zm0 0Z"/></svg>