<svg xmlns="http://www.w3.org/2000/svg" height="20" viewBox="0 -960 960 960" width="20"><path d="M633.17-60.65q-46.93 0-76.05-29.12Q528-118.9 528-165.83v-113q0-46.93 29.12-76.05Q586.24-384 633.17-384h217.24q46.93 0 76.05 29.12 29.13 29.12 29.13 76.05v113q0 46.93-29.13 76.06-29.12 29.12-76.05 29.12H633.17Zm0-105.18h217.24v-113H633.17v113ZM414.01-60.65q-17.51 0-31.05-10.55-13.54-10.54-16.03-27.84l-14.76-84.05q-16.04-7.52-32.75-16.4-16.71-8.88-31.18-21.21l-82.57 28.53q-15.95 4.71-32.65-.65-16.69-5.35-24.17-20.55L83.89-330.8q-7.48-14.96-5.36-30.66 2.12-15.69 15.08-27.41l63.04-55.28q-1-9.23-1.88-18.72-.88-9.49-.88-19.71t.88-18.75q.88-8.52 1.88-17.8l-62.04-54.28q-13.2-11.72-15.44-27.42-2.24-15.69 5.48-30.89l64.96-114.67q7.72-14.96 23.79-20.32 16.08-5.36 32.03-.88l79.77 26.76q15.01-12.15 32.59-21.38 17.58-9.22 35.38-17.51l16-83.52q3.48-16.43 16.58-27.15 13.1-10.72 30.29-10.72h127.92q17.19 0 30.29 10.72 13.1 10.72 16.58 27.15l16 84.28q17.04 8.29 35.22 17.57 18.19 9.28 33.23 21.56l80.29-27.76q16.02-5.48 31.88.38t23.94 20.82l64.96 114.67q7.72 15.2 4.98 31.39-2.74 16.2-15.94 26.92l-38.02 35.21q2 4 3 12t1 17q-3.96 26.48-20.91 38.84Q793.5-458 769.41-458H640q1-6 1.5-12.5t.5-12.5q-.24-69.69-48.02-118.19-47.79-48.51-118.22-48.51-69.29 0-118.11 48.82-48.82 48.81-48.82 118.09 0 61.55 38.95 107.67 38.95 46.12 96.89 56.01v229.59q0 14.24-8.09 21.55-8.1 7.32-22.57 7.32Z"/></svg>