<svg xmlns="http://www.w3.org/2000/svg" height="20" viewBox="0 -960 960 960" width="20"><path d="M606-116q-36.72 0-57.36-20.64Q528-157.27 528-194v-112q0-36.73 20.64-57.36Q569.28-384 606-384h216q36.72 0 57.36 20.64Q900-342.73 900-306v112q0 36.73-20.64 57.36Q858.72-116 822-116H606Zm0-46h216q14 0 23-9t9-23v-112q0-14-9-23t-23-9H606q-14 0-23 9t-9 23v112q0 14 9 23t23 9Zm-174.79 46q-4.35 0-8.14-2.91-3.79-2.91-5.07-8.09l-14-94q-25-9-56.78-25.45Q315.44-262.91 294-284l-103 38q1-3 1-2t2 1l-59-106q2 0 0 2.5t-3 1.5l82-69q-2-14.94-4.5-31.53-2.5-16.59-2.5-32.53 0-14.94 2.5-29.94 2.5-15 4.5-34l-81-68q1-1 3.5 1t.5 2l58-100q-2 1-2.5 1.5T191-712l98 35q25-22 55.5-38.5T404-743l20-107q2 2 1.5 3t-1.5 1h111q-1 0-1-1t2-3l19 109q31 13 58.5 27.5T667-676l106-36q-1 2-2.28 2-1.29 0-2.72-1l58 101q-2 0-1-1.5t2-2.5l-52 45q4 9 5.5 21t2.5 26q10 30-3.5 47T744-458l-157.93-1q1-6 1.5-12.5t.5-12.5q0-49.6-33.54-83.8Q521-602 471-602q-48 0-83 35t-35 83.01q0 40.95 25.55 73.16Q404.1-378.61 443-371v248q0 5-4 6t-7.79 1Z"/></svg>