<svg xmlns="http://www.w3.org/2000/svg" height="20" viewBox="0 -960 960 960" width="20"><path d="M656-50q-57.12 0-92.56-35.44Q528-120.88 528-178v-78q0-57.13 35.44-92.56Q598.88-384 656-384h183q57.13 0 92.56 35.44Q967-313.13 967-256v78q0 57.12-35.44 92.56Q896.13-50 839-50H656Zm0-128h183v-78H656v78ZM410.21-50Q389-50 373.07-62.56 357.14-75.13 354-96l-14-81q-13-6-26.31-13.05Q300.38-197.09 289-207l-78 27q-19 7-39.5.5T142-205L74-327q-9-18-6.5-37.5T86-398l60-53q-1-6.94-1.5-14.53-.5-7.59-.5-15.53 0-7.94.5-14.94.5-7 1.5-14l-59-52q-17-14-20-33.5t7-38.5l68-120q10-18 29.5-24.5t38.5-.5l79 26q11.89-9.45 24.94-16.23Q327-776 341-782l16-82q5-21 20-34t36-13h134q21 0 36 13t20 34l16 82q14 6 28 13t26 17l78-27q19.28-7 38.78 0T819-754l68 120q10 19 6.5 39T873-562l-19 20q2 4 3 12t1 17q-7 28-27 41.5T783.43-458H627.07q1-6 1.5-12.5t.5-12.5q-1-63.6-44.83-108.3Q540.42-636 475-636q-63.84 0-108.92 45.05Q321-545.91 321-482.12q0 57.08 37.05 101.29Q395.1-336.61 450-329v241q0 18.18-8.4 28.09Q433.21-50 410.21-50Z"/></svg>