<svg xmlns="http://www.w3.org/2000/svg" height="48" viewBox="0 -960 960 960" width="48"><path d="M574-132q-22.24 0-38.12-15.88Q520-163.76 520-186v-160q0-22.24 15.88-38.12Q551.76-400 574-400h240q22.24 0 38.12 15.88Q868-368.24 868-346v160q0 22.24-15.88 38.12Q836.24-132 814-132H574Zm0-22h240q14 0 23-9t9-23v-160q0-14-9-23t-23-9H574q-14 0-23 9t-9 23v160q0 14 9 23t23 9Zm-22.5-351.5q-3.5 3.5-7.75 2.67-4.25-.82-7.75-3.17-10.5-15-25.13-26-14.64-11-33.37-11-26.08 0-44.54 18.42-18.46 18.41-18.46 44.08 0 18.85 10 33.43 10 14.57 27 24.07 4 2 4.75 6.25t-1.25 8q-2 3.75-6.5 5t-8.5-1.75q-22.5-9-35-29.27-12.5-20.26-12.5-45.02 0-36.49 23.98-60.85T477.55-565q23.94 0 43.95 12.25 20 12.25 30.5 32.75 3.5 4 2.5 8t-3 6.5ZM429-132q-4.17 0-7.04-3.67-2.86-3.68-3.96-8.83l-11.5-99Q383-250 355-265.75t-47-33.75l-87.5 40q-6.5 2.5-12.17 1.15-5.67-1.36-8.83-7.65L153-345.5q-3-5-1.89-10.84 1.12-5.85 7.39-10.16l79-58.5q-2.5-13.48-3.75-26.99-1.25-13.51-1.25-26.51 0-12.5 1.25-26.5t3.25-30l-78.5-59q-6.5-3.5-7.25-10t3.25-12l45-76q3.5-5.5 9-7.25t11.5-.25l87.5 38q21.5-17 47.5-32.5t50.1-22.73L419-814q2-6.35 7.07-10.18Q431.14-828 437-828h86.5q5.62 0 10.59 3.82 4.96 3.83 6.91 10.18l13.36 97.63q26.14 9.87 49.39 23.37Q627-679.5 649-661.5l93.5-38q4.5-1.5 10.56.41 6.06 1.92 8.94 7.09l45 77q3 6 2.12 11.91-.89 5.91-7.12 9.09l-93 67.5q-3.96 3.5-7.48 2.5-3.52-1-6.02-4.5-3.5-2.46-2.96-7.22T697-543l88-66-39.5-69-105 44q-19-20-49.75-39t-56.25-22.5L521.43-806H439l-11.5 110.07q-33 6.43-58.25 20.68T318-635l-102.5-43-40.5 69 90.5 65.5q-5 14-7 30.14t-2 33.07q0 18.27 1.75 32.78Q260-433 264-418l-89 67 40.14 69 102.36-43q24 24.92 55.25 40.96t66.75 22.54v118q0 6.06-3.14 8.78Q433.22-132 429-132Zm50.5-348.5Zm0 0Z"/></svg>