<svg xmlns="http://www.w3.org/2000/svg" height="48" viewBox="0 -960 960 960" width="48"><path d="M577.5-85q-22.97 0-40.23-17.27Q520-119.53 520-142.5v-200q0-22.97 17.27-40.23Q554.53-400 577.5-400h280q22.97 0 40.23 17.27Q915-365.47 915-342.5v200q0 22.97-17.27 40.23Q880.47-85 857.5-85h-280Zm0-57.5h280v-200h-280v200ZM419.5-85q-13.5 0-22.71-9.03-9.22-9.03-11.29-22.47l-14.5-93q-19-7-41-19.25T292-254l-89 41q-12 5-23.75 1.5T161-226L99.5-335.5Q93-346 95.8-357.75q2.79-11.74 13.2-19.75l83.5-61.5q-2-8.98-2.5-19.99-.5-11.01-.5-21.01 0-8.5.5-20.25t2.5-21.75l-83-61Q99-590.5 96-602.25t4-22.75l61-109q6.59-10.79 18.55-14.65 11.95-3.85 23.45 1.15l90 41.5q15-12.5 36.25-24.75t41.55-18.86L386.5-849q2.01-11.71 11.26-19.1 9.24-7.4 20.74-7.4H542q11.68 0 20.61 7.4 8.93 7.39 10.89 19.1l15.93 97.82Q608.5-744 630.25-732T667-706l91-41.5q11.5-5 22.79-1.15 11.29 3.86 17.71 14.65l62 109q6.5 11 3.02 22.24Q860.03-591.52 851-583l-88 78q-13 10.5-26 15.75T708.5-481H605q0-53-36.75-89.75t-89.02-36.75q-53.73 0-90.73 37.25-37 37.25-37 90.25 0 41.3 23.78 73.77t61.22 45.73v257q0 8.06-4.22 13.28Q428.05-85 419.5-85Z"/></svg>