<svg xmlns="http://www.w3.org/2000/svg" height="20" viewBox="0 -960 960 960" width="20"><path d="M581.54-142.15q-25.94 0-39.74-13.8T528-195.69v-134.77q0-25.94 13.8-39.74t39.74-13.8h230.77q25.94 0 39.74 13.8t13.8 39.74v134.77q0 25.94-13.8 39.74t-39.74 13.8H581.54Zm0-28.93h230.77q10.77 0 17.69-6.92 6.92-6.92 6.92-17.69v-134.77q0-10.77-6.92-17.69-6.92-6.93-17.69-6.93H581.54q-10.77 0-17.69 6.93-6.93 6.92-6.93 17.69v134.77q0 10.77 6.93 17.69 6.92 6.92 17.69 6.92Zm-133.39 28.93q-4.65 0-8.17-2.87-3.52-2.86-4.75-8.17l-13.73-88.69q-29.54-9.89-62.79-27.52-33.25-17.64-56.86-39.79l-93.43 34.15q-.11-1.73-.73-1.38-.61.34-.34-.43L167-345.81q.27-.38-.48.02-.75.41-.71-1.56l77.15-65.19q-3.15-15.7-5.11-32.22-1.97-16.51-1.97-34.47 0-15.46 2.22-32.39 2.21-16.92 4.98-37.07l-76.66-64.46q-.04-1.58.85-1.5.88.07 1-.81l39.08-66.16q-.18.21.45.01.62-.2.74-2.2l93.65 34q25.31-22.54 55.71-39.73 30.41-17.19 62.83-28.34l18.81-101.35q1.74-.06 1.83.36.09.41.94.41h75.11q.64 0 1-.41.35-.42 2.04-.36l18.42 101.38q33.24 12.2 61.14 27.91t54.6 40.13l100.26-34q-.26 2-.05 2.2.22.2-.14-.01l39.08 66.93q-.27.77-.1.78.16.02.29.76l-72.54 60.77q3.16 7.84 4.73 18.92 1.58 11.08 2.35 23.92 10.23 25.58 1.65 39.62-8.57 14.04-27.07 14.04l-131.73-.77q1-6 1.5-12.5t.5-12.5q0-41.97-28.85-70.62-28.85-28.65-70.46-28.65-41.19 0-70.29 29.09-29.1 29.1-29.1 70.06 0 36.25 23.43 64.28 23.42 28.03 58.42 33.11v235.8q0 4.18-2.62 5.3-2.62 1.13-5.73 1.13Z"/></svg>