<svg xmlns="http://www.w3.org/2000/svg" height="20" viewBox="0 -960 960 960" width="20"><path d="M641-72q-50.94 0-81.97-31.03T528-185v-86q0-50.94 31.03-81.97T641-384h188q50.94 0 81.97 31.03T942-271v86q0 50.94-31.03 81.97T829-72H641Zm0-113h188v-86H641v86Zm-51.5-296.5q-16 8.5-31.8 2.37-15.8-6.14-24.7-21.87-10.5-17-25.56-29.5-15.05-12.5-34.55-12.5-26.39 0-43.89 18.97-17.5 18.98-17.5 45.34 0 20.81 16.75 34Q445-431.5 461.5-421q15 9 22.5 25.25t.5 31.75q-7.5 16.5-23.75 19.5t-33.75-1q-42.5-15.5-71-52.02-28.5-36.53-28.5-82.03 0-61.45 42.43-104.45t102.34-43q43.38 0 77.56 24.75Q584-577.5 605-539q6 15.87 3.25 32.44Q605.5-490 589.5-481.5ZM420-72q-19.4 0-33.87-11.92Q371.67-95.83 369-114.5l-13.5-79q-15.42-6.61-31.96-14.8Q307-216.5 294-227.5l-80.5 28q-14.5 4.5-30.5 0T159.5-219L94-334.5q-6.5-13.63-4.75-28.57Q91-378 103.5-389.5l65-57.5q-1-7.3-2-14.94-1-7.65-1-17.97 0-7.83 1.25-16.46T169-515l-64.5-55Q91-581.5 89-596t5.5-30l65-114q7.59-13.79 23.3-18.65 15.7-4.85 30.2-.85l84.5 29q12-11 25.75-18.5t32.25-14.5L373-853q4.51-16.21 15.99-26.1Q400.48-889 417-889h126.5q16.7 0 27.87 9.9 11.17 9.89 15.63 26.1l17.5 88q16.42 6.34 31.46 14.17T664-730.5l85.5-29q14.5-5 29.41.38T802-740l65 114q7.5 15 4.45 30.48Q868.39-580.04 855-570l-104 83.5q-17 14.5-41.12 10.58-24.12-3.91-38.88-21.58-13.5-16.5-10.68-39.38Q663.14-559.76 681-575l57-48-6.5-11-96 33q-23.5-31-58-51.5t-72-25L486.57-776H472l-16.5 97q-42 6.5-75 25.25T320-601l-92.5-33-6.5 11 71.5 63.5q-6 21-10.5 40.28-4.5 19.27-4.5 38.69 0 19.86 3.75 39.94Q285-420.5 291-400l-70 62 5.58 11 91.7-31q26.22 31 61.97 49t75.25 28.5v175q0 15.32-6.88 24.41T420-72Zm57.5-406.5Zm0 0Z"/></svg>