<svg xmlns="http://www.w3.org/2000/svg" height="40" viewBox="0 -960 960 960" width="40"><path d="M609.42-56.75q-36.21 0-62.81-26.56Q520-109.87 520-146.01v-164.73q0-35.97 26.61-62.62Q573.21-400 609.42-400H859.4q35.97 0 62.62 26.64 26.64 26.65 26.64 62.62v164.73q0 36.14-26.64 62.7-26.65 26.56-62.62 26.56H609.42Zm0-89.26H859.4v-164.73H609.42v164.73ZM595.3-486q-15.58 7.88-31.39 2.99-15.81-4.88-24.3-21.05-9.73-17.92-25.28-30.16-15.54-12.24-35.39-12.24-27.46 0-46.43 18.56-18.96 18.56-18.96 45.79 0 21.19 12.99 37.56 12.98 16.37 33 25.2 16.09 7.25 22.22 23.46 6.14 16.2-1.04 32.03-7.41 15.58-23.21 21.35-15.8 5.77-32.55-.82-43.17-16.15-69.09-54.13-25.92-37.98-25.92-84.04 0-62.01 42.87-105.28 42.87-43.28 104.95-43.28 44.28 0 80.73 23.85 36.46 23.86 55.06 63.31 7.16 15.85 2.24 32.43-4.91 16.59-20.5 24.47ZM402.59-56.75q-16.88 0-29.47-11.3-12.6-11.3-14.91-28.46l-13.76-92.87q-12.46-4.88-27.13-13.16-14.66-8.29-25.92-17.08l-82.23 36.52q-18.45 8.81-37.46 2.26-19.02-6.56-28.4-23.96L72.82-332.14q-9.48-16.21-6.03-34.71 3.46-18.49 19.92-30.38l73.04-55.82q-.66-5.44-.88-13.74-.21-8.3-.21-14.58 0-6.28.21-14.24.22-7.95.88-14.16l-72.71-53.61q-16.03-12.06-19.94-30.59-3.9-18.54 6.48-35.75l70.55-126.09q9.5-16.28 27.81-22.55 18.3-6.27 36.99.87l80.76 36.1q11.01-8.15 26.57-16.95 15.56-8.8 28.52-13.91l13.67-88.7q2.61-18.61 17.3-31.08 14.69-12.47 33.76-12.47h141.87q17.88 0 32.7 12.46 14.83 12.46 18.3 31.09l12.84 88.79q13.43 5.08 29.15 13.95 15.72 8.87 26.42 17.15l80.62-36.43q18.75-7.98 36.62-1.28 17.88 6.7 27.85 22.96l71.26 126.12q9.5 17.18 5.56 36.09-3.94 18.91-19.82 30.22l-89.89 65.61q-14.88 10.97-32.77 8.41-17.89-2.57-29.13-17.23-11.1-14.95-9.06-33.29 2.05-18.34 17.15-30.05l62.15-45.48-36.83-67.16-103.21 43.81q-22.71-25.89-52.38-43.76-29.66-17.87-65.04-23.8l-12.59-108.76h-82.65l-12.57 108.35q-35.49 8.09-65.65 25.55-30.16 17.45-53.07 42.18l-101.06-43.57-38.47 67.16 89.35 66.61q-4.57 18.18-6.95 34.48-2.37 16.31-2.37 32.94 0 16.24 2.37 33.15 2.38 16.9 6.95 35.77l-89.35 66.78 38.28 67.16 101.96-44.49q25.28 25.33 56.5 42.9 31.22 17.56 66.12 26.15v167.74q0 12.94-7.11 21.2-7.12 8.27-20.97 8.27ZM479-481.86Zm0 0Z"/></svg>