<svg xmlns="http://www.w3.org/2000/svg" height="20" viewBox="0 -960 960 960" width="20"><path d="M595-106q-30.94 0-48.97-18.03Q528-142.06 528-173v-144q0-30.94 18.03-48.97Q564.06-384 595-384h240q30.94 0 48.97 18.03Q902-347.94 902-317v144q0 30.94-18.03 48.97Q865.94-106 835-106H595Zm0-67h240v-144H595v144Zm-158 67q-13.5 0-23.75-8.25T401-135.5l-14.5-81q-23-9.5-46.25-21.75T298-266.5l-81.5 28q-10.5 2.5-21.5-1T178.5-253L132-333.5q-5.5-10-3.75-20.75t10.25-19.25l66-57.5q-2-11.48-3-22.99-1-11.51-1-26.01 0-12 1.25-24.5T205-531l-65.5-56q-8.5-8.5-10.5-19t3.5-21l46-80q5.59-9.79 16.8-13.65 11.2-3.85 21.7-.85l82.5 29q18-16 39.75-28t47.25-22L403-830q2.51-11.21 11.26-18.1Q423-855 435-855h90.5q12.18 0 20.61 6.9 8.43 6.89 10.89 18.1l16.5 86q24 9.5 45.75 21.75T660-692.5l84.5-29q10.5-3 21.29.85Q776.58-716.79 782-707l46 80q5.5 10 3.36 20.98T820.5-587l-71 60q2 4 3 12t1 17q1 22.5-9.5 32.5t-29 10H612.5q1-6 1.5-12.5t.5-12.5q0-58.5-40-98.5t-97.77-40q-57.73 0-97.98 40.25Q338.5-538.5 338.5-481q0 52.4 34 91.2 34 38.8 84 45.8v218.5q0 9.56-5.31 14.53Q445.88-106 437-106Z"/></svg>