<svg xmlns="http://www.w3.org/2000/svg" height="40" viewBox="0 -960 960 960" width="40"><path d="M616.81-54.15q-39.59 0-68.2-28.5T520-150.58v-152.99q0-39.03 28.61-67.73 28.61-28.7 68.2-28.7h238.13q39.04 0 67.74 28.7 28.7 28.7 28.7 67.73v152.99q0 39.43-28.7 67.93-28.7 28.5-67.74 28.5H616.81Zm0-96.43h238.13v-152.99H616.81v152.99Zm-25.64-334.07q-15.47 7.72-30.84 3.09-15.36-4.63-23.98-20.76-9.15-17.16-23.94-28.69-14.79-11.54-33.7-11.54-26.15 0-43.91 17.57-17.77 17.56-17.77 43.6 0 20.57 13.42 35.85 13.42 15.28 33 24.33 16.42 7.37 21.95 23.51 5.54 16.15-1.41 32.2-7.53 15.47-23.05 20.7-15.53 5.22-32.39-1.25-42.45-15.55-68.51-52.54-26.07-36.99-26.07-82.67 0-60.31 41.63-102.33 41.63-42.03 101.96-42.03 43.07 0 78.39 23.2 35.31 23.21 53.37 61.47 7.37 15.84 2.35 32.21t-20.5 24.08ZM401.68-54.15q-17.27 0-31.02-12.1-13.75-12.11-16.25-30.04l-13.44-91.78q-11.73-4.27-25.3-12.08-13.58-7.81-23.73-15.78l-80.27 35.87q-19.51 9.47-39.91 2.61-20.4-6.85-30.3-25.72L70.75-330.51q-10.13-16.96-6.51-37.04 3.62-20.07 21.17-32.72l71.74-54.84q-.67-4.63-.72-12.37-.05-7.74-.05-13.37 0-5.64.05-13.03t.72-12.84l-71.41-52.64q-17.45-13.03-21.68-32.98-4.23-19.95 7.13-38.36l70.85-126.68q10.18-17.1 29.73-23.97 19.56-6.87 39.33.93l80.44 35.77q9.67-7 23.94-15.07 14.27-8.08 25.82-12.42l13.67-87.83q3.04-20.35 18.42-33.69Q388.77-907 409.29-907h142.62q18.98 0 34.52 13.32 15.54 13.31 19.64 33.71l12.63 87.59q12.65 4.28 26.86 12.52 14.21 8.24 24.03 15.54l79.64-36.1q19.93-8.42 39.09-1.22 19.16 7.2 29.67 24.28l71.6 126.72q10.21 18.35 5.89 38.73-4.32 20.37-21.41 32.55l-90.19 65.1q-16.53 11.38-35.64 8.72-19.1-2.66-31.12-18.44-11.7-16.47-9.59-36.05 2.11-19.58 18.72-32.07l60.08-43.42L752-677.9l-103.04 44.47q-22.77-26.66-52.64-44.85-29.88-18.19-65.44-23.47l-12.87-108.44h-76.25l-12.44 107.91q-35.25 7.77-65.86 25.39-30.6 17.61-53.84 42.89l-100.95-43.9-35.21 62.38 88.92 65.64q-4.9 17.95-7.33 34.67-2.43 16.73-2.43 34.51 0 17.19 2.43 34.42 2.43 17.24 7.33 35.02l-88.92 66.01 35.02 62.38 101.45-44.71q25.22 25.8 56.51 43.67 31.28 17.88 66.52 26.36v170.99q0 14.18-7.16 23.3-7.16 9.11-24.12 9.11ZM479-481.2Zm0 0Z"/></svg>