<svg xmlns="http://www.w3.org/2000/svg" height="40" viewBox="0 -960 960 960" width="40"><path d="M592.58-79.97q-29.68 0-51.13-21.4Q520-122.77 520-152.39v-175.19q0-29.45 21.45-50.94Q562.9-400 592.58-400h256.3q29.46 0 50.94 21.48 21.48 21.49 21.48 50.94v175.19q0 29.62-21.48 51.02-21.48 21.4-50.94 21.4h-256.3Zm0-72.42h256.3v-175.19h-256.3v175.19Zm-178.4 72.42q-15.4 0-26.51-10.26-11.1-10.26-13.38-25.71l-13.26-90.68q-15.41-5.79-33.25-15.65-17.85-9.87-30.91-20.16l-81.93 36.66q-15.61 6.65-31.29 1.76-15.69-4.89-24.23-19.63L96.84-334.41q-8.41-13.97-4.96-29.92 3.45-15.96 17.02-26.36l75.43-56.16q-1.43-7.36-1.76-15.9-.34-8.54-.34-17.25 0-6.88.42-16.24t1.84-18.24l-74.93-55.09q-13.86-10.22-17.53-26.02-3.67-15.79 5.31-30.5l62.14-110.22q8.52-14.07 24.31-19.41 15.78-5.34 31.08 1.23l83.64 37.34q11.9-9.81 28.72-19.47 16.81-9.66 33.67-15.51l13.87-91.75q2.5-16.24 14.74-26.61 12.25-10.37 28.32-10.37H542.9q15.99 0 27.94 10.36 11.95 10.36 14.55 26.62l13.87 90.2q15.75 6.07 32.87 15.65 17.12 9.57 29.67 20.88l84.07-37.34q15.3-6.65 30.67-1.27 15.38 5.38 23.73 19.45l62.84 110.24q8.44 14.52 4.53 30.09-3.91 15.57-16.87 26.41l-78.15 66.16q-13.27 10.3-27.1 15.49-13.83 5.18-29.4 7.18H607.61q-.24-54.01-37.87-91.63Q532.12-610 478.84-610q-54.89 0-92.56 37.92-37.67 37.91-37.67 92.08 0 43 24.97 76.48 24.98 33.49 64.01 46.38v251.96q0 10.83-5.53 18.02-5.53 7.19-17.88 7.19Z"/></svg>