<svg xmlns="http://www.w3.org/2000/svg" height="40" viewBox="0 -960 960 960" width="40"><path d="M599.9-78.67q-32.57 0-56.24-23.66Q520-125.99 520-158.57V-320.1q0-32.57 23.66-56.24Q567.33-400 599.9-400h246.87q32.57 0 56.23 23.66 23.66 23.67 23.66 56.24v161.53q0 32.58-23.66 56.24-23.66 23.66-56.23 23.66H599.9Zm0-67.59h246.87q5.38 0 8.84-3.46 3.47-3.46 3.47-8.85V-320.1q0-5.39-3.47-8.85-3.46-3.46-8.84-3.46H599.9q-5.39 0-8.85 3.46t-3.46 8.85v161.53q0 5.39 3.46 8.85t8.85 3.46ZM408.41-78.67q-12.57 0-21.54-8.43-8.98-8.44-10.87-21.23l-13.1-96.11q-15.05-5.46-34.09-16.04-19.04-10.58-32.68-21.98l-86.62 38.15q-13.56 5.41-27.52 1.12-13.96-4.3-20.53-17.04L94.85-339.87q-6.57-12.08-4.39-25.22 2.18-13.14 14.64-22.58l76.06-57q-.8-7.94-1.58-18.33-.78-10.4-.78-19.01 0-7.55.78-17.13.78-9.58 1.58-19.53l-75.72-56q-11.8-8.77-14.12-22.1-2.32-13.33 4.91-26.08l66.23-116.82q6.57-11.69 20.03-16.17 13.46-4.49 27.02.25l83.57 36.85q14.69-11.44 33.95-22.37 19.25-10.94 35.82-17.12l13.92-93.05q2.21-13.1 13.04-22.24 10.83-9.14 24.6-9.14h131.46q13.1 0 24.13 9.14 11.02 9.14 13.9 22.24l12.87 93.77q17.72 6.95 35.96 17.24 18.24 10.3 32.65 21.86l86.34-37.18q13.31-5.74 26.38-.75 13.07 4.98 20.21 16.67l66.64 117.21q6.56 12.74 3.65 26.08-2.91 13.33-14.04 21.71l-66.92 56.16q.51 1.92.83 3.46.32 1.54.71 3.46-9.67 12.69-24.36 20.53-14.69 7.83-31.05 9.32l-124.11-.39q0-55.24-38.68-94.12-38.67-38.88-93.65-38.88-55.25 0-94.33 38.95t-39.08 94.47q0 43.1 23.94 76.42t61.91 47.19v257.18q0 10.2-6.1 16.23-6.11 6.02-15.26 6.02Z"/></svg>