<svg xmlns="http://www.w3.org/2000/svg" height="40" viewBox="0 -960 960 960" width="40"><path d="M625.33-52q-43.97 0-74.65-30.48Q520-112.97 520-156.67v-138.66q0-43 30.68-73.84Q581.36-400 625.33-400h223.34q43 0 73.83 30.83 30.83 30.84 30.83 73.84v138.66q0 43.7-30.83 74.19Q891.67-52 848.67-52H625.33Zm0-104.67h223.34v-138.66H625.33v138.66ZM401.07-52q-18.74 0-33.09-12.41-14.36-12.42-17.31-32.26l-13-91q-10.34-3.33-23-10.66Q302-205.67 293-212.67l-77 35.34q-20.92 9.66-42.84 2.74-21.91-6.92-33.49-27.74L69.67-328q-11-19-6.67-40.83 4.33-21.84 22.67-35.5l70-52.67q-.67-5.02-1-11.5-.34-6.48-.34-11.5t.34-11.5q.33-6.48 1-11.5l-70-51.67Q66.33-569 62-590.5 57.67-612 69.67-632l70.25-125.46q11.08-18.87 32.58-26.21Q194-791 215-782.33L295-747q8.33-6.33 20.33-13.17 12-6.83 22.34-10.16L351.33-857q3.67-22.67 19.77-37.17t38.9-14.5h140.94q21.73 0 37.92 14.46T609.33-857l13 86q10.21 4.04 22.94 10.52Q658-754 667-747l78.33-35.33q21-9 42.34-1.5 21.33 7.5 32.46 26.39L891.2-631.9q11.13 19.9 6.47 41.4-4.67 21.5-23.34 35.83L826-511.33q-17.67 13.33-36.76 20.5-19.09 7.16-38.91 9.16h-139q-1-54.66-39.66-93.16-38.67-38.5-93.34-38.5-56.33 0-94.83 38.83T345-480q0 44 25.67 79 25.66 35 65.66 47.81V-88q0 15.33-6.83 25.67Q422.67-52 401.07-52Z"/></svg>