<svg xmlns="http://www.w3.org/2000/svg" height="40" viewBox="0 -960 960 960" width="40"><path d="M608.52-64.17q-36.59 0-62.56-25.86Q520-115.88 520-152.32v-159.53q0-36.05 25.96-62.1Q571.93-400 608.52-400H850.7q36.04 0 62.09 26.05 26.05 26.05 26.05 62.1v159.53q0 36.44-26.05 62.29-26.05 25.86-62.09 25.86H608.52Zm0-88.15H850.7v-159.53H608.52v159.53ZM586.49-485.9q-13.84 7.23-28.38 2.99t-21.99-18.21q-9.06-17.01-23.68-28.45-14.62-11.44-33.11-11.44-25.58 0-43.29 17.39-17.71 17.4-17.71 43.19 0 20.39 13.54 35.62 13.54 15.23 33.12 23.61 14.02 6.75 19.5 21.47 5.48 14.72-1.27 28.56-6.76 13.84-20.76 18.79-14.01 4.96-28.89-.75-39.8-15.19-64.9-49.63-25.1-34.44-25.1-78.04 0-56.37 39.32-95.68 39.32-39.3 95.57-39.3 40.12 0 73.24 21.56 33.11 21.57 50.87 57.76 6.37 13.95 2.07 28.64-4.31 14.69-18.15 21.92ZM407.41-64.17q-16.92 0-29.85-11.55-12.92-11.55-15.3-28.63l-13.43-91.58q-13.47-4.69-28.27-13.3-14.79-8.61-26.11-17.49l-77.44 35.33q-19.5 8.8-39.57 2.28-20.07-6.53-30.96-25.4L83.29-327.57q-10.57-17.63-6.23-37.97 4.33-20.34 21.21-33l70.44-52.66q-1.1-6.37-1.44-14.38-.33-8-.33-14.37 0-6.37.33-14.38.34-8 1.44-14.47l-70.44-52.1q-17.44-13.03-21.78-33.08-4.33-20.05 6.8-38.45l63.33-112.95q10.61-17.77 30.44-24.52 19.84-6.75 39.39 1.48l79.13 35.33q10.94-8.5 25.55-16.86 14.61-8.35 27.7-12.7l13.23-86.09q3.08-20.78 18.27-34.12 15.19-13.34 36.05-13.34h127.78q20.25 0 35.48 13.31 15.24 13.32 18.68 34.15l12.85 85.42q13.4 4.95 28.38 13 14.97 8.06 26 17.23l77.9-35.33q19.55-8.42 39.11-1.55 19.57 6.87 30.41 24.61l64.09 112.98q10.64 18.35 6.1 38.94-4.54 20.6-21.62 32.54l-82.91 59.55q-14.76 10.41-31.79 7.74t-28.18-17.09q-11.4-14.53-8.89-32.28t17.24-28.89l57.79-42.12-34.77-62.37-102.91 44.66q-22.67-26.31-52.04-44-29.38-17.68-63.93-23.11l-13.57-108.87h-75.05L429.32-699q-34.28 6.77-64.12 24.12-29.84 17.34-53.07 42.85l-102.35-44.33-34.58 62.37 89.45 65.64q-4.33 17.09-7.04 33.81-2.71 16.72-2.71 34.54 0 17.23 2.71 34.36t7.04 33.84l-89.45 65.79 34.58 62.37 102.23-44.48q24.89 25.99 56.94 43.54t67.82 25.49v163.76q0 12.97-6.33 22.06-6.32 9.1-23.03 9.1Zm72.36-416.26Zm0 0Z"/></svg>