<svg xmlns="http://www.w3.org/2000/svg" height="24" viewBox="0 -960 960 960" width="24"><path d="M618.31-68q-41.04 0-69.67-28.64Q520-125.28 520-166.31v-135.38q0-41.04 28.64-69.67Q577.27-400 618.31-400h223.38q41.03 0 69.67 28.64Q940-342.73 940-301.69v135.38q0 41.03-28.64 69.67T841.69-68H618.31Zm0-86h223.38q5.39 0 8.85-3.46t3.46-8.85v-135.38q0-5.39-3.46-8.85t-8.85-3.46H618.31q-5.39 0-8.85 3.46t-3.46 8.85v135.38q0 5.39 3.46 8.85t8.85 3.46ZM398.36-68q-14.73 0-26.06-9.72-11.33-9.72-13.22-24.67l-11.62-94.46q-10.07-4.38-23.24-11.53-13.16-7.15-22.91-15.31L223-191.23q-18.85 7.31-37.88 1.11-19.04-6.19-28.58-23.8L87.46-338.08q-9.54-17.61-6.07-36.57 3.46-18.96 19.46-31.12l64.92-49q-.38-6.86-.96-13.95-.58-7.09-.58-13.95 0-6.48.58-12.29.58-5.81.96-14.27l-63.92-48q-16-12.16-19.27-31.31-3.27-19.15 6.27-36.77l68.69-120q9.54-17.23 28.08-23.61 18.53-6.39 37.38.92l73.92 30.08q11.47-8.46 25.39-15.96t25.77-13.27L358.62-848q2.61-19.46 18.11-32.73Q392.23-894 411.69-894h136.23q19.46 0 35.16 13.27 15.69 13.27 18.3 32.73l10.16 82.23q13 6.54 25.57 13.27 12.58 6.73 24.43 15.58L737.15-768q18.85-8.31 37.41-1.42 18.56 6.88 28.67 24.11l68.69 120.39q9.54 17.61 5.89 36.77-3.66 19.15-19.66 30.92l-55.07 40.92q.76 1.92.96 3.46.19 1.54.57 3.46-9 12.54-24.53 19.97-15.54 7.42-32.16 7.42l-124.16-.38q0-61.14-42.57-104.38Q538.61-630 477.08-630q-61.16 0-104.39 43.23-43.23 43.23-43.23 104.39 0 48.49 27.17 85.63 27.16 37.14 70.37 52.59v246.47q0 12.92-8.46 21.3Q410.08-68 398.36-68Z"/></svg>