<svg xmlns="http://www.w3.org/2000/svg" height="48" viewBox="0 -960 960 960" width="48"><path d="M597.28-70.87q-31.71 0-54.49-22.62Q520-116.11 520-147.59v-175.69q0-30.88 22.79-53.8Q565.57-400 597.28-400h257.96q30.88 0 53.8 22.92 22.92 22.92 22.92 53.8v175.69q0 31.48-22.92 54.1t-53.8 22.62H597.28Zm0-76.72h257.96v-175.69H597.28v175.69ZM411.93-70.87q-14.97 0-26.19-10.37-11.21-10.37-13.81-26.22L358-199.89q-15.61-5.31-35.07-16.14-19.45-10.84-32.63-21.58l-88.43 41q-13.63 6.13-27.57 2.13t-21.21-17.39l-69.42-124.2q-7.06-11.63-4.27-25.35 2.8-13.73 14.9-22.86l82.94-61.5q-1.44-7.3-1.94-16.6-.5-9.29-.5-17.62 0-6.83.5-16.86t1.94-18.36L94.8-575.65q-12.76-9.2-15.76-22.64-3-13.45 5.13-26.14l69.13-123.81q6.95-11.81 20.88-16.52 13.93-4.7 27.12.87l91.13 41.5q11.61-9.68 30.04-20.23 18.42-10.55 35.33-16.04l16.26-99.95q2.58-13.97 12.9-22.78t24.19-8.81h139q13.14 0 23.22 8.78 10.08 8.77 13.13 22.81l15.93 98.38q15.57 6.09 34.55 16.37 18.98 10.29 31.72 21.47l91.56-41.5q13.2-5.57 26.47-.87 13.27 4.71 20.08 16.54l70.26 123.87q6.89 12.61 3.4 25.83-3.48 13.22-14.77 22.87l-73.31 66.13q-15.82 12.19-32.01 18.57-16.18 6.38-33.79 9.38H603.87q-.57-52.43-37.32-89.18-36.75-36.75-88.45-36.75-54.3 0-91.01 37.25Q350.37-533 350.37-480q0 41.3 24.06 74.33 24.07 33.04 61.5 45.57v265.08q0 10.88-4.78 17.52-4.79 6.63-19.22 6.63Z"/></svg>