<svg xmlns="http://www.w3.org/2000/svg" height="40" viewBox="0 -960 960 960" width="40"><path d="M605.19-70.84q-35.22 0-60.21-24.87Q520-120.59 520-155.65v-159.54q0-34.67 24.98-59.74Q569.97-400 605.19-400h242.17q34.67 0 59.74 25.07t25.07 59.74v159.54q0 35.06-25.07 59.94-25.07 24.87-59.74 24.87H605.19Zm0-84.81h242.17v-159.54H605.19v159.54Zm-22.2-331.42q-13.5 7.07-27.21 3.08-13.71-3.98-21-17.13-9.22-17.01-23.76-28.45-14.53-11.44-33.19-11.44-25.58 0-43.29 17.54t-17.71 43.2q0 20.34 13.96 35.27 13.95 14.92 32.7 24.46 12.69 6.76 18 20.22 5.31 13.47-.27 26.31-6.09 13.84-19.68 18.47-13.59 4.62-27.97-.76-38.97-14.35-63.57-48.26t-24.6-76.1q0-55.11 38.15-93.45 38.16-38.34 93.1-38.34 39.16 0 71.49 20.98 32.34 20.98 49.76 56.34 6.04 13.29 1.99 27.31-4.06 14.02-16.9 20.75ZM409.41-70.84q-16.42 0-28.9-11.49-12.49-11.49-14.92-27.85l-12.93-90.25q-13.47-4.86-29.51-13.72-16.05-8.86-27.37-17.74l-81.6 36.67q-16.67 7.29-33.74 2.11-17.07-5.19-26.13-21.4L86.62-334.73q-8.73-14.63-5.28-31.89 3.44-17.26 18.1-28.42l75.1-56.16q-1.1-6.18-1.43-13.7-.34-7.52-.34-15.05 0-5.7.42-14.04t1.52-16.14l-74.6-54.77q-15.29-11.19-18.95-28.08-3.67-16.88 5.96-32.79l67.33-119.61q8.88-14.89 25.91-20.67 17.04-5.77 33.42 1.13l84.3 37.33q9.94-8.17 24.8-16.69 14.86-8.52 29.65-13.61l14.19-92.18q2.94-17.66 15.87-28.9 12.93-11.23 30.45-11.23h134.95q17.09 0 29.76 11.21 12.67 11.21 15.9 28.92l13.98 90.63q13.77 5.23 29 13.71 15.23 8.47 26.25 18.14l84.4-37.33q16.39-7.09 32.91-1.2 16.52 5.89 25.45 20.76l68.09 119.65q8.8 15.68 5.04 33.25-3.76 17.57-18.57 27.56l-94.23 67.05q-14.1 10.24-30.47 7.49-16.36-2.76-27.01-16.84-10.73-13.34-8.43-30.67 2.3-17.33 16.29-28l65.11-47.45-33.6-61.71-104.24 45.33q-21.5-24.98-50.71-42.66-29.21-17.68-61.93-22.95l-13.54-109.7h-74.91l-12.71 109.37q-35.28 7.24-63.29 23.34-28 16.1-52.4 42.27l-101.85-45-34.41 61.71 89.28 65.14q-4.33 17.75-7.04 34.19-2.71 16.43-2.71 33.46 0 16.93 2.46 33.73 2.46 16.79 6.79 34.34l-88.78 65.11 34.34 61.71 101.63-44.48q24.89 25.55 56.69 42.49 31.8 16.93 66.74 25.38v162.42q0 12.52-5.91 20.76-5.92 8.23-21.95 8.23Zm69.52-409.43Zm0 0Z"/></svg>