<svg xmlns="http://www.w3.org/2000/svg" height="40" viewBox="0 -960 960 960" width="40"><path d="M625.33-52q-43.97 0-74.65-30.48Q520-112.97 520-156.67v-138.66q0-43 30.68-73.84Q581.36-400 625.33-400h223.34q43 0 73.83 30.83 30.83 30.84 30.83 73.84v138.66q0 43.7-30.83 74.19Q891.67-52 848.67-52H625.33Zm0-104.67h223.34v-138.66H625.33v138.66Zm-40-326.33q-15 7.67-30.46 3.11-15.47-4.56-23.54-19.78-8.33-16-22.02-26.5-13.68-10.5-31.01-10.5-23.97 0-40.3 16.17-16.33 16.16-16.33 40.5 0 19.67 14.33 33.67t33.33 22.66q15.34 7.34 20.67 23.5 5.33 16.17-2 31.17t-22.5 19.67q-15.17 4.66-31.5-1.34-40.67-15.33-67-50.36t-26.33-79.87q0-57.17 39.82-96.97t96.79-39.8q40.72 0 74.05 22 33.34 22 51.67 58.34 6.67 15.2 2 30.93T585.33-483ZM401.07-52q-18.4 0-33.07-13-14.67-13-17.33-31.67l-13-91q-10.75-3.44-23.21-10.72Q302-205.67 293-212.67l-77 35.34q-20.92 9.66-42.84 2.74-21.91-6.92-33.49-27.74L69.67-328q-11-18.63-6.67-40.65t22.67-35.68l70-52.67q-.67-4.85-1-11.46-.34-6.6-.34-11.45 0-4.86.34-11.46.33-6.61 1-11.63l-70-51.67Q66.33-569 62-590.5 57.67-612 69.67-632l70.25-125.46q11.08-18.87 32.58-26.21Q194-791 215-782.33L295-747q8.33-6.33 20.33-13.17 12-6.83 22.34-10.16L351.33-857q3.67-22.67 19.77-37.17t38.9-14.5h140.94q21.73 0 37.92 14.46T609.33-857l13 86q10.62 3.88 23.15 10.44Q658-754 667-747l78.33-35.33q21-9 42.15-1.47 21.15 7.54 32.65 26.36L891.2-631.9q11.13 19.9 6.31 42.23-4.82 22.33-23.51 35l-90.27 64.08q-17.4 12.26-37.79 8.81-20.38-3.44-33.44-20.22-13.5-17-10.47-38.14 3.03-21.15 20.64-34.19L779-615l-31-56-102.33 44.67Q623-653.67 592.7-672q-30.3-18.33-65.55-23.33l-13.48-108h-67.4l-12.6 107.66q-35.27 6.34-66.13 24.34-30.87 18-54.54 44.66L211.67-671 181-615l88 64.33q-4.33 17.67-7.33 34.95-3 17.27-3 35.72 0 17.67 3 35.67t7.33 35L181-345l30.67 56 101.11-44.33q24.55 26.23 56.39 43.95Q401-271.67 436.33-263v174.85q0 15.25-6.83 25.7T401.07-52Zm78.26-428Zm0 0Z"/></svg>