<svg xmlns="http://www.w3.org/2000/svg" height="20" viewBox="0 -960 960 960" width="20"><path d="M580-148q-26 0-39-13t-13-39v-132q0-26 13-39t39-13h228q26 0 39 13t13 39v132q0 26-13 39t-39 13H580Zm0-20h228q14 0 23-9t9-23v-132q0-14-9-23t-23-9H580q-14 0-23 9t-9 23v132q0 14 9 23t23 9Zm-130 20q-2 0-4-1.5t-3-4.5l-14-92q-31-10-66.5-29T302-318l-94 35q1-2 1-1.5t1 .5l-35-60q1 0 0 1.5t-2 .5l77-65q-3-17-5.5-35.5T242-479q0-17 2.5-35t5.5-39l-77-65q1-1 2.5 0t.5 1l34-57-1 1-1-2 93 34q28-25 61-43.5t66-29.5l19-101q2 1 1 2l-1 1h65l-.5-1q-.5-1 1.5-2l18 102q36 13 65.5 29.5T655-641l100-34q-1 2-1.5 2t-1.5-1l34 58q-1 0-.5-1t1.5-1l-67 57q4 9 5.5 21t2.5 26q13 27 4.5 42.5T705-456l-142-1q1-6 1.5-12.5t.5-12.5q0-38-26.5-64T474-572q-37 0-63.5 26.5T384-482q0 32 20.5 57.5T456-394v242q0 3-2 3.5t-4 .5Z"/></svg>