<svg xmlns="http://www.w3.org/2000/svg" height="40" viewBox="0 -960 960 960" width="40"><path d="M595.79-98.67q-31.41 0-53.6-22.19Q520-143.04 520-174.46v-149.75q0-31.41 22.19-53.6t53.6-22.19h235.08q31.42 0 53.61 22.19 22.19 22.19 22.19 53.6v149.75q0 31.42-22.19 53.6-22.19 22.19-53.61 22.19H595.79Zm0-51.18h235.08q10.77 0 17.69-6.92 6.93-6.92 6.93-17.69v-149.75q0-10.76-6.93-17.69-6.92-6.92-17.69-6.92H595.79q-10.76 0-17.69 6.92-6.92 6.93-6.92 17.69v149.75q0 10.77 6.92 17.69 6.93 6.92 17.69 6.92ZM413.28-98.67q-8.47 0-14.62-6.12-6.15-6.13-7.66-15.21l-12.2-98.54q-17.11-5.59-39.73-17.97-22.63-12.37-37.81-26.08l-89.57 39.31q-9.46 3.48-19.38.73-9.93-2.76-14.05-11.91l-62.9-111.95q-4.13-8.49-3.1-17.27 1.02-8.78 10.28-15.65l78.1-58.67q-.92-9.61-2.15-21.48-1.23-11.87-1.23-22.14 0-8.84 1.23-19.83 1.23-10.99 2.15-23.88L122.87-583q-8.59-6.21-9.56-15.37-.98-9.17 3.82-18.32l62.13-107.98q4.12-7.71 13.55-10.86 9.42-3.14 18.88-.32l86.13 37.36q17.39-13.87 39.4-26.41 22.01-12.54 41.14-19.23l14.18-96.77q2.08-8.87 9.58-15.32 7.5-6.45 17.03-6.45h121.59q8.88 0 16.76 6.45 7.88 6.45 10.63 15.32l12.74 97.87q21.44 8.24 41.09 19.49 19.66 11.26 37.14 25.39l91.34-37.7q8.94-3.82 18.04-.18 9.1 3.65 13.8 11.36l62.28 108.75q4.13 9.15 2.31 18.32-1.82 9.16-9.74 14.6l-67.18 53.97q1.02 3.85 1.67 6.93.64 3.07 1.41 6.92-4.67 13.72-17.89 23.22-13.22 9.5-28.94 10.47l-136.29-.77q0-47.55-33.48-81.1-33.48-33.56-80.76-33.56-47.18 0-81 33.56-33.82 33.57-33.82 81.26 0 35.93 19.32 64.18 19.32 28.26 50.37 40.71v261.03q0 8.41-5.21 12.96-5.2 4.55-12.05 4.55Z"/></svg>