<svg xmlns="http://www.w3.org/2000/svg" height="40" viewBox="0 -960 960 960" width="40"><path d="M592.58-79.97q-29.68 0-51.13-21.4Q520-122.77 520-152.39v-175.19q0-29.45 21.45-50.94Q562.9-400 592.58-400h256.3q29.46 0 50.94 21.48 21.48 21.49 21.48 50.94v175.19q0 29.62-21.48 51.02-21.48 21.4-50.94 21.4h-256.3Zm0-72.42h256.3v-175.19h-256.3v175.19Zm-8.72-336.85q-12.64 6.74-25.65 2.99-13.01-3.75-19.84-15.95-9.77-17.78-25-29.93-15.24-12.15-34.77-12.15-26.78 0-45.52 18.47-18.75 18.47-18.75 45.22 0 20.88 13.36 36.73 13.35 15.85 32.53 25.17 11.72 6.32 17.14 18.7 5.42 12.38.27 24.35-5.65 12.97-18.37 17.81-12.72 4.84-26.02-.31-38.31-14.25-61.99-47.72-23.68-33.46-23.68-74.72 0-54.51 37.78-92.48 37.78-37.98 92.18-37.98 38.72 0 70.89 20.66t49.15 55.9q5.83 12.36 2.05 25.6-3.79 13.23-15.76 19.64ZM414.18-79.97q-15.32 0-26.5-10.4t-13.39-25.57l-13.26-90.68q-15.51-5.81-33.3-15.66-17.8-9.86-30.86-20.15l-81.93 36.66q-15.61 6.65-31.29 1.76-15.69-4.89-24.23-19.63L96.84-334.41q-8.41-13.88-4.96-29.88 3.45-16 17.02-26.4l75.43-56.16q-1.43-7.31-1.76-15.89-.34-8.57-.34-17.24 0-6.83.42-16.23.42-9.39 1.84-18.27l-74.93-55.09q-13.86-10.22-17.53-26.02-3.67-15.79 5.31-30.5l62.14-110.22q8.52-14.07 24.31-19.41 15.78-5.34 31.08 1.23l83.64 37.34q11.9-9.81 28.72-19.47 16.81-9.66 33.67-15.51l13.87-91.75q2.5-16.24 14.74-26.61 12.25-10.37 28.32-10.37H542.9q15.99 0 27.94 10.36 11.95 10.36 14.55 26.62l13.87 90.2q15.85 6.03 32.92 15.63 17.07 9.59 29.62 20.9l84.07-37.34q15.3-6.65 30.63-1.26 15.33 5.39 23.77 19.44l62.84 110.24q8.44 14.52 4.9 30.79-3.55 16.26-17.15 25.71l-88.72 63.65q-12.12 8.85-25.96 6.68-13.85-2.18-23.07-14.48-9.15-11.49-7.24-26.28 1.91-14.78 13.74-24.02l66.2-48.54-36.43-66.49-104.68 45.33q-21.5-24.22-50.01-41.41-28.51-17.2-60.72-22.79l-13.6-110.36h-80.65l-13.16 110.14q-34.54 7.57-61.78 23.18-27.23 15.6-51.3 40.91l-102.61-45-37.35 66.49 90.37 66.12q-4.33 17.32-6.83 33.33-2.49 16.02-2.49 32.58 0 16.6 2.24 32.75 2.25 16.14 6.58 33.47l-89.87 66.2 37.28 66.49 102.46-44.58q25.15 25.36 57.11 42.17 31.96 16.81 67.22 24.71v154.1q0 10.82-5.53 18.03-5.53 7.22-17.88 7.22Zm65.08-400.62Zm0 0Z"/></svg>