<svg xmlns="http://www.w3.org/2000/svg" height="48" viewBox="0 -960 960 960" width="48"><path d="M612-59q-37.59 0-64.79-26.91Q520-112.83 520-150v-159q0-36.13 27.21-63.56Q574.41-400 612-400h242q36.13 0 63.56 27.44Q945-345.13 945-309v159q0 37.17-27.44 64.09Q890.13-59 854-59H612Zm0-91h242v-159H612v159Zm-31-337.5q-13 6.5-25.1 3.54-12.1-2.96-19.9-17.04-9.02-17-23.73-28.5-14.72-11.5-33.71-11.5-26.21 0-43.39 17.33Q418-506.34 418-480q0 21 15 36t36 25q14.78 5.77 18.89 19.38Q492-386 487-372q-6 13-18.5 17t-27.5-1q-40.81-12.4-66.91-46.76Q348-437.12 348-480.87q0-54.76 37.21-92.44Q422.43-611 477.24-611q38.88 0 70.82 21Q580-569 596-535q7 13.77 2.5 27.38Q594-494 581-487.5ZM407.37-59q-15.04 0-28.83-12.17Q364.74-83.33 362-100l-14-92q-14.42-4.11-31.05-13.87Q300.32-215.64 289-225l-84 39q-16.88 9-35.25 3.12Q151.37-188.77 143-206L74-330q-9-13.63-6-31.82Q71-380 87-391l78-59.3q-1-4.47-1-13.85v-30.9q0-9.04 1-14.95l-78-57q-16-12-20-29.5t7-33.5l69.38-125.19Q152-769 169.33-775.5q17.34-6.5 34.67.5l87 40q9.89-7.45 26.94-17.23Q335-762 348-766l16-95q2.93-18 15.87-29.5T411-902h140.41q15.19 0 28.42 11.44Q593.07-879.13 598-861l14 94q15.22 3.89 31.61 13.95Q660-743 671-735l86-40q17.61-7 34.26-.46 16.65 6.53 25.43 20.3l70.62 125.32q8.69 15.84 4.71 34.09Q888.03-577.51 873-567l-98.4 69.11q-16.6 9.89-33.93 7.72-17.34-2.16-28.17-16.83-10.5-16-9.14-34.24Q704.72-559.48 721-571l67-47-32-59-105.82 47q-23.18-28-53.71-47.29-30.52-19.3-67.14-22.71L516-810h-72.1L431-700q-34.89 7-66.45 25Q333-657 309-631l-103.72-46L173-618l92 66q-5 17-7.5 34.78-2.5 17.77-2.5 37.77 0 19.45 2.5 37.45 2.5 18 7.5 33l-92 67 32 59 103.78-47q25.79 27.69 58.51 46.35Q400-265 437-257v167.91q0 13.44-5.59 21.77Q425.83-59 407.37-59ZM479-480Zm0 0Z"/></svg>