<svg xmlns="http://www.w3.org/2000/svg" height="20" viewBox="0 -960 960 960" width="20"><path d="M618.31-84q-41.04 0-65.67-24.64Q528-133.28 528-174.31v-119.38q0-41.04 24.64-65.67Q577.27-384 618.31-384h223.38q41.03 0 65.67 24.64Q932-334.73 932-293.69v119.38q0 41.03-24.64 65.67T841.69-84H618.31Zm0-78h223.38q5.39 0 8.85-3.46t3.46-8.85v-119.38q0-5.39-3.46-8.85t-8.85-3.46H618.31q-5.39 0-8.85 3.46t-3.46 8.85v119.38q0 5.39 3.46 8.85t8.85 3.46ZM421.36-84q-11.73 0-21.06-7.22-9.33-7.22-11.22-19.17l-14.62-88.46q-20.07-8.38-43.24-20.53-23.16-12.15-40.91-28.31L199-215.23q-8.85 1.31-18.38-1.39-9.54-2.69-13.08-11.3l-62.08-112.16q-3.54-8.61-3.07-16.57.46-7.96 7.46-15.12l70.92-61q-1.38-11.86-2.96-24.45t-1.58-25.45q0-12.48 1.58-23.79 1.58-11.31 2.96-24.77l-69.92-60q-7-7.16-7.27-15.31-.27-8.15 3.27-16.77l61.69-108q3.54-8.23 12.58-11.11 9.03-2.89 17.88-1.58l86.92 30.08q19.47-16.46 42.89-28.96t46.27-22.27L392.62-858q2.61-8.46 10.11-14.23t16.96-5.77h120.23q9.46 0 17.16 5.77 7.69 5.77 10.3 14.23l17.16 94.23q23 10.54 45.57 22.27 22.58 11.73 42.43 28.58L763.15-744q8.85-2.31 17.41 1.08 8.56 3.38 12.67 11.61l61.69 108.39q3.54 8.61 2.39 17.27-1.16 8.65-8.16 14.42l-47.07 41.92q2.76 5.92 3.96 15.46 1.19 9.54 1.57 20.46 2 27.54-13.03 41.47Q779.54-458 756.92-458l-135.16-.38q1-6 1.5-12.5t.5-12.5q0-63.14-43.07-106.88Q537.61-634 474.08-634q-62.16 0-106.39 44.23-44.23 44.23-44.23 106.39 0 54.49 34.17 95.63 34.16 41.14 85.37 50.59v234.47q0 9.92-6.46 14.3Q430.08-84 421.36-84Z"/></svg>