<svg xmlns="http://www.w3.org/2000/svg" height="20" viewBox="0 -960 960 960" width="20"><path d="M581.54-142.15q-25.94 0-39.74-13.8T528-195.69v-134.77q0-25.94 13.8-39.74t39.74-13.8h230.77q25.94 0 39.74 13.8t13.8 39.74v134.77q0 25.94-13.8 39.74t-39.74 13.8H581.54Zm0-28.93h230.77q10.77 0 17.69-6.92 6.92-6.92 6.92-17.69v-134.77q0-10.77-6.92-17.69-6.92-6.93-17.69-6.93H581.54q-10.77 0-17.69 6.93-6.93 6.92-6.93 17.69v134.77q0 10.77 6.93 17.69 6.92 6.92 17.69 6.92Zm-16.73-332.65q-5.69 4.04-11 2.42-5.31-1.61-9.35-6.77-13.42-17.69-31.01-32.3Q495.85-555 473.83-555q-31.25 0-52.25 22.37-21 22.36-21 53.33 0 21.6 13.29 37.81 13.28 16.22 30.63 26.34 5.08 3.15 9.12 8.67 4.03 5.52 2.11 11.1-2.04 5.8-8.17 6.34-6.14.54-12.33-.38-28.19-10.66-45.88-35.49-17.7-24.83-17.7-54.64 0-44.02 29.54-74.2 29.54-30.17 72.5-30.17 29.71 0 53.01 17.02 23.3 17.02 38.45 42.21 2.54 5.69 3.75 11.5 1.22 5.81-4.09 9.46ZM448.15-142.15q-5.01 0-8.48-3.05-3.47-3.04-4.44-7.99l-13.73-88.69q-29.54-9.89-62.79-27.52-33.25-17.64-56.86-39.79l-93.43 34.15q-.11-1.73-.73-1.38-.61.34-.34-.43L167-345.81q.27-.38-.43-.05-.7.32-.76-1.49l77.15-65.19q-3.15-15.7-5.11-32.22-1.97-16.51-1.97-34.09 0-15.84 2.22-32.77 2.21-16.92 4.98-37.07l-76.66-64.46q-.04-1.58.85-1.5.88.07 1-.81l39.08-66.16q.01-.11.54-.15.53-.04.65-2.04l93.65 34q25.31-22.54 55.71-39.73 30.41-17.19 62.68-28.43l18.96-101.26q1.74-.06 2.46.36.71.41 1.08.41h74.34q.22 0 .78-.41.57-.42 2.26-.36l18.37 101.24q33.29 12.34 61.19 28.05t54.6 40.13l100.26-34q-.26 2-.23 2.04.03.05.04.15l39.08 66.93q-.27.77-.08.73.2-.04.39.81l-104.39 85.11q-3.43 4.5-9.98 3.74-6.56-.76-10.83-4.89-3.76-2.96-3.82-8.63-.05-5.66 4.09-10.56l87.54-72-17.65-29.39-100.31 33.39q-20.81-25.7-55.88-46.62-35.08-20.92-66.73-24.5L497.9-789.54h-36.67l-16.96 101.18q-38.23 5.94-68.04 22.61-29.81 16.67-58.61 49.37l-96.27-33.39-18.66 29.39 76.66 67.26q-6 17.08-9.5 36.1-3.5 19.01-3.5 37.05 0 19.43 2.75 37.34 2.75 17.9 7.98 35.25l-74.39 67.15 17.57 29.38 95.47-32q27 30.62 63.64 48.04 36.63 17.43 77.13 26.08v120.15q0 4.18-2.62 5.3-2.62 1.13-5.73 1.13Zm29.58-336.97Zm0 0Z"/></svg>