<svg xmlns="http://www.w3.org/2000/svg" height="40" viewBox="0 -960 960 960" width="40"><path d="M604-58.67q-33.73 0-58.86-25.13Q520-108.94 520-142.67V-316q0-33.73 25.14-58.86Q570.27-400 604-400h258.67q33.72 0 58.86 25.14 25.14 25.13 25.14 58.86v173.33q0 33.73-25.14 58.87-25.14 25.13-58.86 25.13H604Zm0-84h258.67V-316H604v173.33Zm-200.46 84q-16.68 0-28.47-10.74T361-96.67l-14-93.66q-13-5.34-28.45-14.12-15.44-8.79-27.55-17.88l-83.67 37q-17.66 7.33-35.66 1.5-18-5.84-27-22.17L74.33-333.33q-9-15.67-5.66-33.17Q72-384 87.67-396l74-55.33q-.67-6.28-1-15.2-.34-8.92-.34-15.86 0-6.28.34-14.44.33-8.17 1-15.17L88-566.33q-15-11.34-18.67-28.84-3.66-17.5 6-33.83l70.34-125.67q9-15.66 26.5-21.5 17.5-5.83 35.16.84l81 36.33q12-9 28.5-18.33 16.5-9.34 30.5-15L361-861.67q2.33-17.33 16.5-29.16 14.17-11.84 32.17-11.84H551q17.33 0 31.5 11.84 14.17 11.83 17.17 29.16l13 89.67q14 5.67 30.83 15t28.17 18.33L753-775.33q17.67-7.67 34.72-1.34 17.04 6.34 26.61 22l71 125.67q9 16.33 5 33.83T872-566.33L805.33-508q-14.66 11.67-30.83 17.83-16.17 6.17-33.17 8.17H629.4q0-62.93-43.87-107.13-43.86-44.2-106.53-44.2-63.33 0-107.67 44.33Q327-544.67 327-481.33q0 50.29 28.55 88.67T429-339v253.33q0 12-7 19.5t-18.46 7.5Z"/></svg>