<svg xmlns="http://www.w3.org/2000/svg" height="40" viewBox="0 -960 960 960" width="40"><path d="M604-58.67q-33.73 0-58.86-25.13Q520-108.94 520-142.67V-316q0-33.73 25.14-58.86Q570.27-400 604-400h258.67q33.72 0 58.86 25.14 25.14 25.13 25.14 58.86v173.33q0 33.73-25.14 58.87-25.14 25.13-58.86 25.13H604Zm0-84h258.67V-316H604v173.33ZM598.33-487q-15.66 8-31.8 2.93-16.13-5.07-24.53-21.26-10.15-18.48-26.25-31.24-16.11-12.76-36.65-12.76-28.42 0-48.26 19.29-19.84 19.3-19.84 47.4 0 21.64 12.67 38.81 12.66 17.16 33 25.83 15.85 7.18 22.42 23.42 6.58 16.25-.76 31.91Q471-347 455-340.83q-16 6.16-32.67-.5-43.7-16.6-69.51-55.31Q327-435.35 327-481.68q0-63.25 43.78-107.45 43.77-44.2 107.15-44.2 45.15 0 82.44 24.33 37.3 24.33 56.3 64.67 7 15.84 2.16 32.59Q614-495 598.33-487ZM403.27-58.67q-16.6 0-28.35-10.7T361-96.67l-14-93.66q-13-5.34-28.47-13.97-15.46-8.64-27.53-18.03l-83.67 37q-17.66 8.33-35.66 2-18-6.34-27-22.67L74.33-333.33q-9-15.67-5.66-33 3.33-17.34 19-28.67l74-56.53q-.67-6.04-1-14.75-.34-8.71-.34-15.47t.34-15.12q.33-8.37 1-15.13L88-566.33q-15-11.34-18.67-28.84-3.66-17.5 6-33.83l70.34-125.67q9-15.66 26.39-21.5 17.38-5.83 35.27.84l81 36.33q12-9 28.5-18.33 16.5-9.34 30.5-15L361-861.67q2.29-17.33 16.48-29.16 14.19-11.84 32.19-11.84H551q17.06 0 31.37 11.84 14.3 11.83 17.3 29.16l13 89.67q14 5.67 30.83 15t28.17 18.33L753-775.33q17.89-7.67 34.83-1.34 16.93 6.34 26.5 22l71 125.67q9 16.33 5.34 34.17Q887-577 872-566.33l-89.67 66q-13.66 10.66-30.66 8.16T724-508.5q-10.67-13.83-8.67-31.26t16-28.57l63.67-47L756.33-686 653-642.67q-22.67-25.33-52.18-42.96-29.51-17.63-64.75-24.04l-12.4-109h-87.34L423.67-710q-35.67 8.33-65.5 25.67-29.84 17.33-52.5 41.66L204.52-686l-40.85 70.67L253.33-548q-4.33 18.33-6.66 34.33-2.34 16-2.34 31.8 0 15.54 2.34 32.2 2.33 16.67 6.66 36.34L163.67-346l40.66 70.67 102.34-44.34q25.33 25 56.5 42.34 31.16 17.33 65.83 26v165.36q0 12.03-7.09 19.67-7.08 7.63-18.64 7.63ZM479-482.33Zm0 0Z"/></svg>