<svg xmlns="http://www.w3.org/2000/svg" height="40" viewBox="0 -960 960 960" width="40"><path d="M580.19-104.74q-24.6 0-42.4-17.8Q520-140.33 520-164.94v-174.87q0-24.6 17.79-42.4 17.8-17.79 42.4-17.79h254.87q24.61 0 42.4 17.79 17.8 17.8 17.8 42.4v174.87q0 24.61-17.8 42.4-17.79 17.8-42.4 17.8H580.19Zm0-47.89h254.87q5.39 0 8.85-3.46t3.46-8.85v-174.87q0-5.38-3.46-8.84-3.46-3.47-8.85-3.47H580.19q-5.38 0-8.84 3.47-3.47 3.46-3.47 8.84v174.87q0 5.39 3.47 8.85 3.46 3.46 8.84 3.46Zm-8.51-343.52q-8.86 5.28-18.28 2.79-9.43-2.49-14.71-10.67-10.36-16.92-25.58-28.88-15.23-11.96-34.65-11.96-26.92 0-45.89 18.74-18.98 18.73-18.98 45.49 0 20.15 11.67 35.8 11.66 15.65 29.82 24.88 8.3 4.59 12.07 13.45 3.77 8.86-.04 17.37-4.11 9.13-13.41 12.65-9.29 3.53-18.65-.7-31.68-12.5-50.51-40.63-18.83-28.12-18.83-62.45 0-47.24 32.36-79.86 32.37-32.63 79.76-32.63 32.89 0 60.27 17.31 27.37 17.31 41.86 46.84 4.71 8.78 2.21 18.24-2.49 9.46-10.49 14.22ZM421.96-104.74q-10.65 0-18.14-7.37-7.49-7.36-9.11-18.19l-12.61-93.82q-19.24-6.43-41.53-18.81-22.29-12.38-38.16-26.02l-83.77 37.44q-11.69 4.82-23.07 1.34-11.38-3.47-17.72-14.39l-53.96-94.22q-6.31-10.32-3.7-22.04 2.6-11.72 12.89-19.5L209.45-437q-1.99-10-2.67-20.82-.69-10.82-.69-21.6 0-9.34.77-20.82t2.56-23.71l-75.87-56.23q-10.39-7.32-13-19.21-2.61-11.89 4.22-22.71l53.08-92.57q6.53-10.48 17.97-14.33 11.44-3.84 22.8.76L303-690.97q16.22-13.25 37.13-25.45 20.91-12.19 41.38-18.97l13.58-93.17q2.05-11.98 11.34-19.58 9.3-7.59 20.99-7.59h105.66q11.71 0 20.77 7.59 9.06 7.6 11.06 19.58l13.44 92.37q20.74 7.78 40.57 19.16 19.82 11.38 36.57 26.06l87.1-37.27q10.91-4.6 22.27-.71 11.35 3.88 17.56 14.28l53.49 92.95q6.31 10.85 3.79 22.7-2.52 11.86-12.75 18.84l-87.43 63.35q-8.15 6.1-17.01 4.67-8.87-1.43-14.92-9.67-6.27-7.38-5.06-17.16 1.21-9.78 9.08-15.92l74.63-55.49-38.82-69.42-104.87 44.76q-20.15-22-49.18-39.54-29.02-17.54-58.16-22.67l-13.29-110.58h-83.61l-12.73 110.26q-33.36 7.28-59.29 21.99-25.93 14.7-50.66 39.95L213.1-679.82l-39.82 69.42 90.46 66.19q-4.59 15.79-6.79 31.62-2.21 15.84-2.21 32.22 0 16.77 1.96 31.96 1.95 15.19 6.16 31.53l-89.58 66.8 39.67 69.43 102.32-43.9q24.82 24.93 56.45 41.28 31.64 16.36 66.88 23.67v136.33q0 8.15-4.51 13.34-4.52 5.19-12.13 5.19Zm57.41-375.9Zm0 0Z"/></svg>