<svg xmlns="http://www.w3.org/2000/svg" height="20" viewBox="0 -960 960 960" width="20"><path d="M642.96-56.09q-51.3 0-83.13-31.83Q528-119.74 528-171.04v-98q0-51.3 31.83-83.13T642.96-384h202.56q51.3 0 83.13 31.83t31.83 83.13v98q0 51.3-31.83 83.12-31.83 31.83-83.13 31.83H642.96Zm0-114.95h202.56v-98H642.96v98ZM412.38-56.09q-19.1 0-33.66-11.41-14.56-11.41-17.33-30.24l-14.43-82.74q-14.74-6.87-30-14.96-15.25-8.09-28.39-19.39l-80.61 27.87q-17.26 5.7-35.59-.15-18.33-5.85-26.46-22.67L79.65-329.17q-8.13-16.26-5.85-33.59 2.29-17.33 16.55-30.02l61.74-54.31q-1-8.24-1.72-16.92-.72-8.67-.72-17.92 0-9.24.72-17.11.72-7.87 1.72-16.18l-60.74-53.3q-14.83-12.7-17.39-30.02-2.57-17.33 6.13-34.16l66.26-116.95q8.69-16.26 26.24-22.11 17.54-5.85 34.8-.72l79.44 26.44q13.67-11 29.31-19.18 15.64-8.17 31.82-15.48l16-82.87q4.13-18.39 18.04-30.08 13.91-11.7 32.74-11.7h130.52q18.83 0 32.74 11.7 13.91 11.69 18.04 30.08l16 83.31q15.74 7.3 32.13 15.61 16.4 8.3 30.13 19.61l79.31-27.44q17.42-6.13 34.84.22 17.41 6.35 26.2 22.61l66.26 116.95q8.7 16.83 5.63 34.66-3.06 17.82-17.89 29.52l-29.87 28.69q2 4 3 12t1 17q-5.26 27.13-23.52 39.98Q801-458 775.42-458H634.46q1-6 1.5-12.5t.5-12.5q-.57-67.08-46.66-113.95-46.09-46.88-114.37-46.88-66.95 0-114.17 47.2T314.04-482.5q0 59.63 38.14 104.93 38.14 45.31 94.78 54.22v234.48q0 15.93-8.23 24.35-8.22 8.43-26.35 8.43Z"/></svg>