<svg xmlns="http://www.w3.org/2000/svg" height="40" viewBox="0 -960 960 960" width="40"><path d="M595.91-73.3q-31.06 0-53.48-22.38Q520-118.06 520-149.06v-175.19q0-30.82 22.43-53.29Q564.85-400 595.91-400h256.31q30.82 0 53.29 22.46 22.46 22.47 22.46 53.29v175.19q0 31-22.46 53.38-22.47 22.38-53.29 22.38H595.91Zm0-75.76h256.31v-175.19H595.91v175.19ZM412.18-73.3q-15.9 0-27.45-10.33-11.55-10.32-13.77-26.48l-13.76-92.01q-15.41-5.62-32.01-15.24-16.6-9.61-29.65-19.91l-77.77 35.34q-18.44 8.14-37.12 1.92-18.69-6.22-29.06-23.63l-58.08-103.6q-10.24-16.97-5.91-36.01 4.33-19.05 20.13-30.94l70.76-52.66q-1.42-7.55-1.76-16.58-.33-9.03-.33-16.57 0-7.54.33-16.57.34-9.03 1.76-16.58l-70.76-52.42q-16.03-12.05-20.37-31.02-4.33-18.96 6.15-36.17l58.14-103.55q10.26-16.94 28.84-23.26t37.05 1.58l78.47 35.34q12.9-10.14 29.47-19.64 16.56-9.49 31.72-14.6l12.9-85.65q2.65-19.37 17.16-31.84 14.5-12.48 33.9-12.48h117.91q19.14 0 33.66 12.47 14.53 12.46 17.33 31.85l12.74 84.98q15.38 5.79 32.25 14.94 16.86 9.16 29.41 19.97l77.58-35.34q18.46-7.98 36.88-1.62 18.41 6.36 28.68 23.3l58.85 103.57q10.27 17.19 5.73 35.77-4.54 18.59-19.91 31.4l-70.15 60.83q-13.61 10.8-27.93 16.32-14.33 5.51-30.74 7.51H613.11q-.24-55.17-39.03-93.8-38.8-38.62-93.97-38.62-55.83 0-94.58 38.83T346.78-480q0 44 25.28 78.24 25.29 34.24 65.03 47.95v253.13q0 11.27-5.94 19.33-5.95 8.05-18.97 8.05Z"/></svg>