<svg xmlns="http://www.w3.org/2000/svg" height="40" viewBox="0 -960 960 960" width="40"><path d="M580.19-104.74q-24.66 0-42.43-17.77Q520-140.27 520-164.94v-174.87q0-24.66 17.76-42.43Q555.53-400 580.19-400h254.87q24.67 0 42.43 17.76 17.77 17.77 17.77 42.43v174.87q0 24.67-17.77 42.43-17.76 17.77-42.43 17.77H580.19Zm0-47.89h254.87q5.39 0 8.85-3.46t3.46-8.85v-174.87q0-5.38-3.46-8.84-3.46-3.47-8.85-3.47H580.19q-5.38 0-8.84 3.47-3.47 3.46-3.47 8.84v174.87q0 5.39 3.47 8.85 3.46 3.46 8.84 3.46Zm-158.23 47.89q-10.59 0-18.09-7.3t-9.16-18.26l-12.61-93.82q-19.24-6.43-41.53-18.81-22.29-12.38-38.16-26.02l-83.77 37.44q-11.69 4.82-23.09 1.3-11.4-3.51-17.7-14.35l-53.96-94.22q-6.31-10.32-3.73-22.01 2.58-11.68 12.92-19.53L209.45-437q-1.99-10-2.67-20.82-.69-10.82-.69-21.8 0-9.14.77-20.62t2.56-23.71l-75.87-56.23q-10.39-7.32-13-19.21-2.61-11.89 4.22-22.71l53.08-92.57q6.4-10.25 17.9-14.21 11.51-3.96 22.87.64L303-690.97q16.22-13.25 37.13-25.45 20.91-12.19 41.46-18.92l13.5-93.22q2.05-11.94 11.13-19.56 9.09-7.61 20.82-7.61h106.04q11.71 0 20.77 7.61 9.06 7.62 11.06 19.56l13.46 92.44q20.72 7.71 40.55 19.09 19.82 11.38 36.57 26.06l87.1-37.27q10.91-4.6 22.26-.64 11.35 3.96 17.57 14.21l53.49 92.95q6.31 10.85 3.33 22.2-2.97 11.35-12.27 19.34l-82.95 67.95q.33 1.92.74 3.46.42 1.54.8 3.46-7.38 10.53-18.24 16.96-10.86 6.43-25.1 7.91l-112.07-.38q0-46.67-32.86-79.3-32.85-32.64-78.98-32.64-47.23 0-79.92 32.73-32.68 32.72-32.68 79.65 0 36.2 20.33 64.57 20.33 28.38 52.56 40.33v252.21q0 8.15-4.55 13.34-4.54 5.19-12.09 5.19Z"/></svg>