<svg xmlns="http://www.w3.org/2000/svg" height="24" viewBox="0 -960 960 960" width="24"><path d="M626-60.78q-44.3 0-75.15-30.85Q520-122.48 520-166.78V-294q0-44.3 30.85-75.15Q581.7-400 626-400h210.61q44.3 0 75.15 30.85 30.85 30.85 30.85 75.15v127.22q0 44.3-30.85 75.15-30.85 30.85-75.15 30.85H626Zm0-106h210.61V-294H626v127.22Zm-224.61 106q-20.39 0-35.65-12.98-15.26-12.98-17.83-33.37L336.48-195q-8.48-3.3-16.31-8.04-7.82-4.74-15.43-9.92l-61.44 26q-27.26 12.14-55.08 2.57-27.83-9.57-42.96-35.39L87.52-321.57q-14.56-25.26-8.56-54.02t29.26-46.45l52.43-40q-.43-4.74-.43-8.98v-17.96q0-4.24.43-8.98l-52.43-39.43q-23.83-17.7-29.83-46.46t9.13-54.58l57.74-101.22q15.13-25.26 42.67-34.83 27.55-9.56 54.81 2l63.13 26q7.61-5.17 15.09-9.63 7.47-4.46 15.52-7.76l8.56-67.13q4.13-29.83 25.55-49.02 21.41-19.2 51.24-19.2h116.34q29.83 0 51.24 19.2 21.42 19.19 25.55 49.02l8.56 67.13q8.48 3.3 16.31 7.76 7.82 4.46 15.43 9.63l60.57-26q27.26-12.13 55.3-2.28 28.04 9.85 43.17 35.11l57.74 101.22q15.14 25.82 9.35 54.37-5.78 28.54-29.61 46.67L804-501.65q-14.39 10.26-30.13 15.67-15.74 5.41-33.13 5.41H621.3q-.56-58-41.78-98.71Q538.3-620 480.3-620q-59 0-99.5 40.5T340.3-480q0 48 27.79 84.57 27.78 36.56 71.34 50v242.73q0 17.4-8.84 29.66-8.85 12.26-29.2 12.26Z"/></svg>