<svg xmlns="http://www.w3.org/2000/svg" height="20" viewBox="0 -960 960 960" width="20"><path d="M606-97.87q-35.72 0-56.86-21.14T528-175.87V-306q0-35.72 21.14-56.86T606-384h227.57q35.72 0 56.86 21.14T911.57-306v130.13q0 35.72-21.14 56.86t-56.86 21.14H606Zm0-78h227.57V-306H606v130.13Zm-173.07 78q-14.93 0-26.14-9.09-11.2-9.08-13.44-23.52L379.09-211q-21.09-8.78-42.79-20.08-21.69-11.29-39.26-26.09l-81.26 28q-11.45 2.97-23.65-.76-12.2-3.74-18.17-14.94l-51.05-88.87q-5.74-10.96-3.99-22.66 1.75-11.71 11.21-20.93l65.76-57.5q-1.76-10.51-2.76-21.07-1-10.56-1-24.1 0-11.04 1.25-22.59 1.25-11.54 3.01-24.58l-65.26-55.76q-9.7-9.22-11.7-20.68-2-11.46 3.98-23.15l50.55-88.13q6.07-10.75 18.35-14.84 12.28-4.1 23.73-.86l82.98 29q16.57-14.8 36.4-25.73 19.84-10.92 43.67-20.2l16.74-87.98q2.99-12.41 12.33-20.02 9.34-7.61 22.54-7.61h99.1q13.38 0 22.41 7.61 9.02 7.61 11.96 20.02l16.74 86.48q22.09 8.78 42.29 19.95 20.19 11.18 37.76 27.48l84.74-29q11.45-3.48 23.32.74 11.87 4.21 17.76 14.96l50.55 88.13q5.97 11.19 3.71 23.25-2.26 12.05-12.17 20.58L766-529.39q2 4 3 12t1 17q-.43 23.46-12.73 34.05-12.29 10.6-32.23 10.6H611.78q1-6 1.5-12.5t.5-12.5q-.24-58.5-40.12-98.38Q533.78-619 476.01-619q-57.73 0-97.98 40.25-40.25 40.25-40.25 97.75 0 52.4 34.12 91.44t84.36 45.8v223.04q0 11-5.67 16.92-5.67 5.93-17.66 5.93Z"/></svg>