<svg xmlns="http://www.w3.org/2000/svg" height="24" viewBox="0 -960 960 960" width="24"><path d="M584.62-120q-27.62 0-46.12-18.5Q520-157 520-184.62v-150.76q0-27.62 18.5-46.12Q557-400 584.62-400h230.76q27.62 0 46.12 18.5Q880-363 880-335.38v150.76q0 27.62-18.5 46.12Q843-120 815.38-120H584.62Zm0-40h230.76q10.77 0 17.7-6.92 6.92-6.93 6.92-17.7v-150.76q0-10.77-6.92-17.7-6.93-6.92-17.7-6.92H584.62q-10.77 0-17.7 6.92-6.92 6.93-6.92 17.7v150.76q0 10.77 6.92 17.7 6.93 6.92 17.7 6.92ZM562-497.62q-7.31 4.16-15.23 2.5-7.92-1.65-12.08-8.96-10.31-14.69-24.33-25.3Q496.33-540 478.92-540q-25 0-42.5 17.22t-17.5 42.55q0 17.41 9.12 31.44 9.11 14.02 23.81 22.02 7.3 4.15 9.84 12.35 2.54 8.19-1.61 15.5-4.16 7.3-12.35 9.46-8.19 2.15-15.5-2-24.92-13.16-39.11-36.77-14.2-23.62-14.2-51.77 0-41.85 29.08-70.92Q437.08-580 478.92-580q28.91 0 52.65 15.08 23.74 15.07 36.89 40 4.16 7.3 2.5 15.23-1.65 7.92-8.96 12.07ZM423.31-120q-7.99 0-14.11-5.58-6.11-5.57-7.05-14.19l-11.23-95.92q-19.15-5.77-41.42-18.16-22.27-12.38-37.88-26.53L235-247.46q-12.69 5.61-25.77 1.23-13.08-4.39-20.15-16.62l-43.16-74.3q-7.07-12.23-4.01-25.74 3.06-13.5 13.78-21.65l66.85-50q-1.77-10.84-2.92-22.34-1.16-11.5-1.16-21.97 0-10.46 1.16-21.57 1.15-11.12 2.92-25.04l-66.85-50q-11-8.31-13.54-22.12-2.53-13.8 4.54-26.04l42.39-72q7.27-11.78 20.25-16.39 12.98-4.61 25.67 1.01l75.85 32.15q17.92-14.92 38.77-26.92 20.84-12 40.53-18.54L401.23-808q2.23-13.92 12.59-22.96 10.35-9.04 24.33-9.04h83.7q13.98 0 24.33 9.04 10.36 9.04 12.59 22.96l10.31 84.46q23 8.08 40.65 18.54 17.65 10.46 36.35 26.15L725.31-711q12.69-5.62 25.82-1.01 13.12 4.61 20.33 16.39l42.39 72.77q7.07 12.23 4.22 25.48-2.86 13.25-13.76 21.91l-72.93 54.23q-7.07 4.61-14.61 3.77-7.54-.85-12.54-7.92-5-7.08-4.04-14.62.96-7.54 7.81-12.92L777.77-606 738-674l-102.08 42.77q-18.15-19.92-47.73-37.35-29.57-17.42-55.96-23.11L520-800h-79.77l-12.46 107.54q-30.23 6.46-55.58 20.81-25.34 14.34-50.42 39.42L222-674l-39.77 68L269-541.23q-5 13.46-7 29.23t-2 32.56q0 15.81 2 30.62 2 14.82 6.23 29.05l-86 65.77L222-286l99-42q24 24.23 54.38 40.08 30.39 15.84 64.62 23.15v125.39q0 7.98-4.92 13.68-4.93 5.7-11.77 5.7Zm56.15-360.23Zm0 0Z"/></svg>