<svg xmlns="http://www.w3.org/2000/svg" height="40" viewBox="0 -960 960 960" width="40"><path d="M622-58.67q-42.6 0-72.3-29.5Q520-117.67 520-160v-138.67q0-41.62 29.7-71.48Q579.4-400 622-400h223.33q41.63 0 71.48 29.85 29.86 29.86 29.86 71.48V-160q0 42.33-29.86 71.83-29.85 29.5-71.48 29.5H622ZM622-160h223.33v-138.67H622V-160Zm-40.17-324.17q-14.66 7.5-29.3 3.2-14.63-4.3-22.53-18.7-8.5-16-22.1-26.5-13.6-10.5-31.1-10.5-23.97 0-40.3 16.31t-16.33 40.53q0 19.61 14.75 33.31 14.75 13.69 32.91 23.52 14 7.33 19.17 22.25 5.17 14.92-1 28.92-6.67 15-21.42 19.33-14.75 4.33-30.58-1.33-39.83-14.5-65.67-49.01-25.83-34.5-25.83-77.92 0-55.91 38.66-94.74 38.65-38.83 94.31-38.83 39.76 0 72.31 21.41 32.55 21.42 50.55 56.92 6.34 14.54 1.92 29.6-4.42 15.07-18.42 22.23ZM403.07-58.67q-17.9 0-32.13-12.93-14.23-12.94-16.94-30.9l-12.5-89.67q-10.75-3.6-24.46-11.13-13.71-7.53-22.71-14.53l-81.16 36.66q-18.09 8.17-37.01 2.58-18.91-5.59-28.66-23.74L73-335.17q-9.17-15.63-5.72-34.56t19.55-31.1L161.5-457q-.67-4.66-1-10.78-.33-6.11-.33-12.13 0-4.19.41-11.13.42-6.94 1.09-13.29L87.5-558.67q-17.17-12.5-20.83-30.83-3.67-18.33 6.83-35.83l74.25-132.13q9.34-16 28.05-22.35 18.7-6.36 36.53.98l85.17 37.33q7.33-6 19.58-13 12.25-7 24.29-11.08L356-858.33q3.51-19.55 17.36-31.94 13.84-12.4 33.31-12.4h148.11q18.57 0 32.18 12.36 13.62 12.35 17.71 31.98l14.12 91.21q11 4.16 23.77 11.14t21.77 14.48l84.84-37.33q17.83-7.67 35.94-1.11 18.11 6.55 27.69 22.5l75.07 132.21q9.3 17.23 5.25 36.54-4.04 19.31-20.45 30.02l-101.6 71.58q-16.74 12.09-36.46 8.56-19.72-3.53-32.28-19.97-12.83-15.8-10.01-36.53 2.82-20.73 19.68-33.3l63.67-46-29.84-55.34-103.66 45.34q-21.5-26-51.64-44.34-30.13-18.33-63.54-23.16l-13.47-108.84h-67.25l-12.1 108.36q-36.27 6.81-65.3 23.56Q339.83-652 315-624.67l-100.83-45-30.5 55.34 87.83 63.83q-4.33 18.33-7.33 35.32-3 16.99-3 34.65 0 17.36 2.75 35.03T271-410l-87.33 63.67L214.1-291l100.51-44.33q24.56 25.79 56.14 42.9 31.58 17.1 66.08 26.26v173.52q0 14.81-6.42 24.4-6.42 9.58-27.34 9.58Zm75.43-421.16Zm0 0Z"/></svg>