<svg xmlns="http://www.w3.org/2000/svg" height="48" viewBox="0 -960 960 960" width="48"><path d="M597.28-70.87q-31.71 0-54.49-22.62Q520-116.11 520-147.59v-175.69q0-30.88 22.79-53.8Q565.57-400 597.28-400h257.96q30.88 0 53.8 22.92 22.92 22.92 22.92 53.8v175.69q0 31.48-22.92 54.1t-53.8 22.62H597.28Zm0-76.72h257.96v-175.69H597.28v175.69Zm-15.19-343.02q-12.42 6.57-24.68 3.42-12.27-3.14-19.06-15.11-9.87-17.87-25.35-30.24-15.47-12.37-35.2-12.37-27.23 0-46.04 18.63-18.8 18.64-18.8 45.85 0 21.98 15.09 38.26 15.1 16.28 36.04 25.84 11.69 5.57 16.66 17.76 4.97 12.2.4 23.86-5.06 12.67-17.23 17.13-12.16 4.47-25.35-.09-39.64-13-65.05-46.95-25.41-33.94-25.41-76.37 0-54.11 37.1-91.44t91.08-37.33q38.17 0 69.94 20.56 31.77 20.57 48.84 55.07 5.56 12.12 2 24.79-3.57 12.67-14.98 18.73ZM411.93-70.87q-14.79 0-26.17-10.82-11.38-10.82-13.83-25.77L358-199.89q-15.84-5.36-35.18-16.17-19.34-10.81-32.52-21.55l-88.43 41q-13.63 6.13-27.57 2.13t-21.21-17.39l-69.42-124.2q-7.06-11.42-4.27-25.25 2.8-13.83 14.9-22.96l82.94-61.5q-1.44-7.21-1.94-16.57-.5-9.37-.5-17.6 0-6.73.5-16.84.5-10.1 1.94-18.43L94.8-575.65q-12.76-9.2-15.76-22.64-3-13.45 5.13-26.14l69.13-123.81q6.95-11.81 20.88-16.52 13.93-4.7 27.12.87l91.13 41.5q11.61-9.68 30.04-20.23 18.42-10.55 35.33-16.04l16.26-99.95q2.58-13.97 12.9-22.78t24.19-8.81h139q13.14 0 23.22 8.78 10.08 8.77 13.13 22.81l15.93 98.38q15.8 6 34.67 16.33 18.86 10.33 31.6 21.51l91.56-41.5q13.2-5.57 26.36-.85 13.17 4.73 20.19 16.52l70.26 123.87q6.89 12.61 3.81 26.96-3.08 14.34-15.18 21.74L761.49-502q-12.66 9.2-27.03 6.75-14.36-2.44-24.03-15.08-10.04-11.78-8.17-27.58 1.88-15.79 14.65-25.42l73.81-53.3-34.48-64.15-106.44 46.5q-22.5-26.13-52.35-44.48-29.85-18.35-64.12-22.78l-13.85-111.37h-79.01l-12.88 111.4q-36.07 6.9-65.23 23.75-29.16 16.85-53.73 43.48l-104.37-46.5-35.48 64.15 92.31 66.8q-4 18.07-6.79 35.11-2.78 17.04-2.78 34.19 0 17.6 2.53 34.98 2.54 17.38 6.54 34.88l-91.81 66.8 35.34 64.15 104.39-46q25.56 26.33 58.52 43.73 32.97 17.4 68.9 25.97v160.87q0 10.88-4.78 17.58-4.79 6.7-19.22 6.7Zm67-409.56Zm0 0Z"/></svg>