<svg xmlns="http://www.w3.org/2000/svg" height="40" viewBox="0 -960 960 960" width="40"><path d="M577.05-122.82q-23.7 0-40.38-16.67Q520-156.17 520-179.87v-163.08q0-23.7 16.67-40.38Q553.35-400 577.05-400h243.08q23.7 0 40.38 16.67 16.67 16.68 16.67 40.38v163.08q0 23.7-16.67 40.38-16.68 16.67-40.38 16.67H577.05Zm0-32.44h243.08q10.77 0 17.69-6.92 6.92-6.92 6.92-17.69v-163.08q0-10.77-6.92-17.69-6.92-6.92-17.69-6.92H577.05q-10.77 0-17.69 6.92-6.92 6.92-6.92 17.69v163.08q0 10.77 6.92 17.69 6.92 6.92 17.69 6.92Zm-150.79 32.44q-6.68 0-11.46-4.99-4.78-4.99-6.06-12.61l-11.7-96.64q-21.49-6.38-46.98-20.55-25.5-14.17-42.91-30.12l-85.37 38.2q-8.55 3.48-16.68 1.12-8.13-2.36-12.57-10.38l-49.09-84.61q-4.45-7.31-2.74-15.59 1.72-8.29 9.62-14.15l77.08-57.19q-2.31-11.86-3.35-24.16-1.04-12.29-1.04-24.74 0-10.62 1.12-23.41 1.13-12.8 3.05-27.59l-76.58-57.13q-7.96-5.14-9.51-13.92-1.55-8.78 3.61-16.59l47.83-81.8q4.54-7.05 12.68-9.95 8.14-2.91 16.35-.03l85.61 37.2q19.1-15.49 42.67-29.38 23.57-13.9 46.3-20.95l13.37-95.02q1.92-8.67 8.35-14.16 6.42-5.5 14.88-5.5h94.25q8.25 0 14.94 5.5 6.68 5.49 8.56 14.16l13.14 95.01q24.05 8.8 45.29 21.14 21.23 12.34 41.05 29.2l90.38-37.2q7.32-2.88 15.56.03 8.24 2.9 12.6 9.95l47.98 82.57q4.45 8.02 2.37 16.07-2.07 8.05-8.74 13.67l-80.9 64.23q.64 3.85 1.47 6.92.84 3.08 1.61 6.93-2.77 11.55-12.16 19.74-9.38 8.19-23.37 9.17l-124.63-.77q0-39.17-28.05-66.77-28.05-27.6-66.87-27.6-39.73 0-67.35 27.53-27.63 27.53-27.63 67.21 0 29.41 15.82 52.91 15.81 23.51 41.31 34.24v256.25q0 6.74-3.84 10.64-3.84 3.91-9.27 3.91Z"/></svg>