<svg xmlns="http://www.w3.org/2000/svg" height="24" viewBox="0 -960 960 960" width="24"><path d="M581.54-126.15q-25.94 0-43.74-17.8T520-187.69v-150.77q0-25.94 17.8-43.74t43.74-17.8h230.77q25.94 0 43.74 17.8t17.8 43.74v150.77q0 25.94-17.8 43.74t-43.74 17.8H581.54Zm0-36.93h230.77q10.77 0 17.69-6.92 6.92-6.92 6.92-17.69v-150.77q0-10.77-6.92-17.69-6.92-6.93-17.69-6.93H581.54q-10.77 0-17.69 6.93-6.93 6.92-6.93 17.69v150.77q0 10.77 6.93 17.69 6.92 6.92 17.69 6.92Zm-156.39 36.93q-7.65 0-13.17-5.37-5.52-5.36-6.75-13.67l-10.73-94.69q-19.54-5.89-42.79-18.52-23.25-12.64-38.86-26.79l-80.43 34.15q-10.11 4.27-20.23 1.12-10.11-3.16-15.84-12.93L149-343.81q-5.73-9.38-3.48-19.98 2.25-10.59 11.29-17.56l71.15-53.19q-2.15-10.7-3.11-21.72-.97-11.01-.97-22.97 0-9.46 1.22-20.89 1.21-11.42 2.98-26.57l-70.66-52.46q-9.04-6.58-11.15-17.5-2.12-10.93 4-20.81l46.08-78.16q5.82-8.79 15.95-12.49 10.12-3.7 20.24.3l80.65 34q17.31-14.54 38.21-26.73 20.91-12.19 42.33-19.34l11.81-89.35q1.74-11.06 9.83-18.14 8.09-7.09 18.94-7.09h91.11q10.64 0 19 7.09 8.35 7.08 10.04 18.14l11.42 89.38q23.24 8.2 41.14 18.91 17.9 10.71 36.6 27.13l85.26-34q9.74-4 19.95-.3 10.22 3.7 15.86 12.49l46.08 78.93q5.73 9.77 3.4 20.28-2.34 10.52-11.21 17.26l-80.54 59.77q1.16 3.84 1.73 6.92.58 3.08 1.35 6.92-.77 10.58-9.85 18.12-9.07 7.54-21.57 7.54l-120.73-.77q0-39.97-28.35-68.12-28.35-28.15-67.96-28.15-40.19 0-68.29 28.09-28.1 28.1-28.1 68.06 0 30.25 16.43 54.28 16.42 24.03 43.42 35.11v247.8q0 7.18-4.62 12.3-4.62 5.13-10.73 5.13Z"/></svg>