<svg xmlns="http://www.w3.org/2000/svg" height="24" viewBox="0 -960 960 960" width="24"><path d="M618.31-68q-41.04 0-69.67-28.64Q520-125.28 520-166.31v-135.38q0-41.04 28.64-69.67Q577.27-400 618.31-400h223.38q41.03 0 69.67 28.64Q940-342.73 940-301.69v135.38q0 41.03-28.64 69.67T841.69-68H618.31Zm0-86h223.38q5.39 0 8.85-3.46t3.46-8.85v-135.38q0-5.39-3.46-8.85t-8.85-3.46H618.31q-5.39 0-8.85 3.46t-3.46 8.85v135.38q0 5.39 3.46 8.85t8.85 3.46ZM593-486.31q-16.15 8.08-32.92 2.6-16.76-5.48-25.23-21.83-9.37-16.28-24.03-27.37Q496.17-544 477.77-544q-25.96 0-44.14 17.55-18.17 17.55-18.17 43.37 0 18.17 9.81 33.43 9.81 15.27 25.65 23.27 16.16 8.07 21.93 24.92 5.76 16.84-2.31 33-8.08 16.15-25.42 21.73-17.35 5.57-33.5-2.5-38.5-18.68-60.33-54.69-21.83-36-21.83-78.08 0-61.52 43.15-104.76T477.15-630q43.76 0 79.38 23.54t54.7 62q7.08 16.15 2.5 33.11T593-486.31ZM397.99-68q-15.33 0-26.28-9.7-10.95-9.7-12.63-24.69l-11.62-94.46q-10.07-4.38-23.24-11.53-13.16-7.15-22.91-15.31L223-191.23q-18.85 8.31-37.88 1.61-19.04-6.69-28.58-24.3L87.46-338.08q-9.54-17.61-6-36.11 3.53-18.5 19.39-30.58l64.92-50q-.38-6.82-.96-13.87-.58-7.05-.58-13.31 0-6.26.58-12.78.58-6.51.96-14.5l-63.92-48q-16-12.16-19.27-31.31-3.27-19.15 6.27-36.77l68.69-120q9.63-17.39 28.12-23.69 18.49-6.31 37.34 1l73.92 30.08q11.47-8.46 25.39-15.96t25.77-13.27L358.62-848q2.61-19.46 18.29-32.73Q392.59-894 412.08-894h135.84q19.49 0 35.17 13.27 15.68 13.27 18.29 32.73l10.16 82.23q13 6.54 25.57 13.27 12.58 6.73 24.43 15.58L737.15-768q18.85-8.31 37.38-1.5 18.53 6.8 28.7 24.19l68.69 120.39q9.54 17.61 5.86 36.74-3.68 19.12-19.63 30.95l-84.46 63.61q-13.54 11.31-31.31 8.39t-29.27-16.96q-11.5-14.04-8.93-31.9 2.56-17.87 16.82-29.37L781.38-610 743-678l-99.54 40.38q-20.08-22.46-50.01-39.71-29.93-17.26-60.83-24.52L521-808h-82.38l-11.24 104.77q-34.61 8.23-62.53 24.65-27.93 16.43-51.47 40.96L217-678l-40.38 68L260-545.62q-5 18.24-7 33.62-2 15.38-2 29.71 0 13.47 2 29.38 2 15.91 6.62 36.53l-83 64.38L217-284l97-41q24 22.62 52.69 39.04 28.69 16.42 60.31 25.58V-98q0 13.3-8.46 21.65Q410.08-68 397.99-68Zm80.24-414.62Zm0 0Z"/></svg>