<svg xmlns="http://www.w3.org/2000/svg" height="20" viewBox="0 -960 960 960" width="20"><path d="M642.96-56.09q-51.3 0-83.13-31.83Q528-119.74 528-171.04v-98q0-51.3 31.83-83.13T642.96-384h202.56q51.3 0 83.13 31.83t31.83 83.13v98q0 51.3-31.83 83.12-31.83 31.83-83.13 31.83H642.96Zm0-114.95h202.56v-98H642.96v98Zm-36.31-309.85q-19 9.72-37.4 2.56-18.41-7.15-29.03-26.28-10.6-18.74-27.42-32.61-16.82-13.87-37.91-13.87-29.28 0-48.69 20.53-19.42 20.52-19.42 49.17 0 21.96 15.13 37.69 15.13 15.74 34 24.74 19.57 9.57 27.72 28.85 8.15 19.28-.35 38.85-9.06 19-28.28 23.87-19.22 4.87-38.78-1.57-47.78-17.92-77.89-59.5-30.11-41.59-30.11-92.52 0-70.24 48.65-119.46 48.65-49.21 117.47-49.21 49.83 0 89.36 28.37 39.52 28.37 61.95 72.67 8 19 4 38.5t-23 29.22ZM411.88-56.09q-19.01 0-33.47-11.5-14.47-11.51-17.02-30.15l-14.43-82.74q-14.98-6.93-30.11-14.99-15.14-8.06-28.28-19.36l-80.61 27.87q-17.26 6.13-35.59.07-18.33-6.07-26.46-22.89L79.65-329.17q-8.13-16.06-5.85-32.99 2.29-16.93 16.55-29.62l61.74-55.31q-1-8.11-1.72-16.81-.72-8.71-.72-17.73t.72-17.39q.72-8.36 1.72-16.2l-60.74-53.3q-14.83-12.7-17.39-30.02-2.57-17.33 6.13-34.16l66.26-116.95q8.69-16.26 26.24-22.11 17.54-5.85 34.8-.72l79.44 26.44q13.67-11 29.31-19.18 15.64-8.17 31.82-15.48l16-82.87q4.13-18.39 18.28-30.08 14.15-11.7 32.5-11.7h130.52q18.35 0 32.5 11.7 14.15 11.69 18.28 30.08l16 83.31q15.98 7.21 32.25 15.56 16.28 8.35 30.01 19.66l79.31-27.44q17.42-6.13 34.53.23 17.12 6.35 26.51 22.6l66.26 116.95q8.7 16.83 5.35 34.66-3.35 17.82-18.17 29.52l-94.26 78.56q-17.4 15.13-42.12 11.69-24.73-3.45-40.47-21.45-14.41-17.89-11.78-41.39 2.63-23.5 21.32-39.41l52.05-45.05-11.92-19.82-94.33 31.13q-26.1-32.7-60.56-53.06t-75.24-25.64l-18.56-97.43h-26l-16.44 95.87q-42 7.43-77.63 28.22-35.63 20.78-61.19 52.47l-92.44-31.56-12.22 19.82 71.87 65.31q-6.56 22-10.34 41.22-3.79 19.22-3.79 37.63 0 19.06 3.29 39.21 3.28 20.16 9.84 42.03l-70.87 64.3 11.22 19.83 92.75-31q26.88 30.48 62 49.8 35.12 19.33 74.69 28.89v179.43q0 15.74-8.33 24.29-8.33 8.54-26.75 8.54ZM478-480.87Zm0 0Z"/></svg>