<svg xmlns="http://www.w3.org/2000/svg" height="48" viewBox="0 -960 960 960" width="48"><path d="M574-132q-22.47 0-38.23-15.77Q520-163.53 520-186v-160q0-22.47 15.77-38.23Q551.53-400 574-400h240q22.47 0 38.23 15.77Q868-368.47 868-346v160q0 22.47-15.77 38.23Q836.47-132 814-132H574Zm0-22h240q14 0 23-9t9-23v-160q0-14-9-23t-23-9H574q-14 0-23 9t-9 23v160q0 14 9 23t23 9Zm-145 22q-4 0-6.96-3.53-2.97-3.53-4.04-8.97l-11.5-99Q383-250 355-265.75t-47-33.75l-87.5 40q-6.5 2.5-12.25 1t-8.75-7.5L153-345.5q-3-5-1.95-10.75 1.04-5.74 7.45-10.25l79-58.5q-2.5-13.48-3.75-26.99-1.25-13.51-1.25-27.01 0-12 1.25-26t3.25-30l-78.5-59q-6.5-3.5-7.25-10t3.25-12l45-76q3.09-4.79 8.8-6.9 5.7-2.1 11.7-.6l87.5 38q21.5-17 47.5-32.5t50.3-22.61L419-814q2.01-6.21 6.51-10.1Q430-828 436-828h87.5q5.68 0 10.61 3.9 4.93 3.89 6.89 10.1l13.43 97.82q26.07 9.68 49.32 23.18T649-661.5l93.5-38q4.5-1.5 10.54.6 6.04 2.11 8.96 6.9l45 77q3 6 1.52 11.49-1.49 5.49-6.02 9.51l-79 63q.5 5 1.75 9t2.25 9q-1 12.5-9.5 22t-23 10.5l-133.5-1q0-34.5-25.25-59T476.73-565q-35.23 0-59.73 24.25T392.5-481q0 25.3 13.03 45.77 13.03 20.47 33.97 30.23v261.5q0 6.06-3.22 8.78Q433.05-132 429-132Z"/></svg>