<svg xmlns="http://www.w3.org/2000/svg" height="40" viewBox="0 -960 960 960" width="40"><path d="M593.33-110.67q-30.72 0-52.03-21.3Q520-153.28 520-184v-142.67q0-30.72 21.3-52.03 21.31-21.3 52.03-21.3h228q30.73 0 52.03 21.3 21.31 21.31 21.31 52.03V-184q0 30.72-21.31 52.03-21.3 21.3-52.03 21.3h-228Zm0-41.33h228q14 0 23-9t9-23v-142.67q0-14-9-23t-23-9h-228q-14 0-23 9t-9 23V-184q0 14 9 23t23 9Zm-177.12 41.33q-6.01 0-10.47-4.74-4.46-4.74-5.74-11.59l-11.67-100q-18.33-5.67-43.11-19.12-24.78-13.46-40.89-28.55l-91.33 40q-7 2.34-14.5.5Q191-236 188.33-243l-60.66-107.33q-2.67-6.34-2.34-12.5.34-6.17 7.67-11.5L212.33-434q-1-10.61-2.5-23.36-1.5-12.76-1.5-24.03 0-9.61 1.5-21.44 1.5-11.84 2.5-26.5l-79-58.67q-6.66-4.67-6.83-11.33-.17-6.67 3.17-13.67l59.66-102.67Q192-721 199-723.33q7-2.34 14-.67l87.67 37.67q19-15.34 42.66-28.84 23.67-13.5 44.34-20.5l14.33-99q2-6.33 7.5-11.16 5.5-4.84 12.5-4.84h115.67q6.33 0 12.33 4.84 6 4.83 8.67 11.16l12.66 100.34q23.67 9 44.17 20.83 20.5 11.83 39.83 27.5l94.34-38q6.33-2.67 13.05.17 6.71 2.83 9.95 8.16L832.33-612q2.67 7 1.5 13.67-1.16 6.66-7.16 10.33l-67.34 52.67q1.34 5 2.17 9 .83 4 1.83 9-1.66 14.33-14 24.83Q737-482 721.67-481.33l-143.6-1q0-42.94-30.37-73.3Q517.33-586 474.67-586q-42.34 0-73 30.33Q371-525.33 371-482.33q0 31.62 16.55 56.84 16.55 25.21 43.45 36.82v263.34q0 7.33-4.67 11-4.66 3.66-10.12 3.66Z"/></svg>