<svg xmlns="http://www.w3.org/2000/svg" height="48" viewBox="0 -960 960 960" width="48"><path d="M603.74-61.17q-33.73 0-58.74-24.84-25-24.84-25-58.34v-172.48q0-32.9 25-58.04Q570.01-400 603.74-400h255.91q32.91 0 58.04 25.13 25.14 25.14 25.14 58.04v172.48q0 33.5-25.14 58.34-25.13 24.84-58.04 24.84H603.74Zm0-83.18h255.91v-172.48H603.74v172.48Zm-17.31-344.67q-13.21 6.72-26.05 3.34-12.84-3.37-20.47-17.49-9.93-17.87-25.51-30.24-15.58-12.37-35.65-12.37-27.71 0-46.4 18.58-18.7 18.59-18.7 46.23 0 21.97 14.57 38.27 14.56 16.31 36 25.87 14.34 5.77 19.32 19.61 4.98 13.83-.45 27.61-6 13.22-18.94 17.87-12.93 4.65-27.93-.35-41.78-13.35-67.83-49.06-26.04-35.71-26.04-80 0-57.07 38.91-96.51 38.9-39.43 96.11-39.43 40.49 0 73.95 21.87t50.33 57.61q6.57 13.77 2.28 27.82-4.28 14.05-17.5 20.77ZM408.07-61.17q-15.01 0-27.34-11.16-12.34-11.16-14.82-27.24l-14.43-93.3q-15.11-4.93-32.9-15.11-17.8-10.19-30.45-20.5l-86.61 39.87q-15.62 8.13-32.32 2.63-16.69-5.5-24.46-20.89L75.3-332.17q-8.13-12.93-5.34-29.07 2.78-16.15 17.47-26.28l79.74-60.6q-1-5.4-1.21-15.4-.22-10-.22-16.94 0-6.95.22-16.6.21-9.66 1.21-16.42l-79.74-58.3q-14.26-10.7-17.82-26.46-3.57-15.76 6.13-30.46l69.65-125.54q7.91-13.02 23.73-18.65 15.81-5.63 31.84.5l87.43 40.43q11.68-8.99 30.01-19.52 18.34-10.52 33.08-15.39l16-96.3q2.49-15.83 14.6-26.24 12.11-10.42 28.49-10.42h140.66q14.06 0 26.41 10.38 12.36 10.38 16.45 26.28l14.43 95.74q16 4.81 34.17 15.49 18.18 10.68 30.05 19.98l87.3-40.43q16.18-6.57 31.27-.7t23.34 18.87l70.78 125.61q7.96 14.61 4.41 31.01-3.56 16.4-17.27 25.82l-98.67 70.36q-14.6 9.51-30.7 7.41-16.1-2.09-26.14-15.6-9.84-14.26-8.49-31.13 1.35-16.87 15.91-27.65L794.09-618l-35.05-64.65-105.89 46.13q-23.11-27.13-53.44-45.99-30.33-18.86-66.79-23.14l-13.01-110.44h-79.88l-12.94 110.44q-35.38 7.43-66.47 25.22-31.1 17.78-54.66 43.34l-103.72-45.56-36.2 64.65 92.44 67.3q-4.57 17.44-7.07 34.66-2.5 17.22-2.5 35.69 0 18.18 2.5 35.74 2.5 17.57 7.07 34.31l-92.44 67.87 35.92 64.65 104.31-46.57q25.88 26.96 58.5 45.11 32.62 18.15 69.19 26.59v164.77q0 11.9-5.61 19.3-5.6 7.41-20.28 7.41ZM479-480.87Zm0 0Z"/></svg>