<svg xmlns="http://www.w3.org/2000/svg" height="48" viewBox="0 -960 960 960" width="48"><path d="M577.5-85q-22.97 0-40.23-17.27Q520-119.53 520-142.5v-200q0-22.97 17.27-40.23Q554.53-400 577.5-400h280q22.97 0 40.23 17.27Q915-365.47 915-342.5v200q0 22.97-17.27 40.23Q880.47-85 857.5-85h-280Zm0-57.5h280v-200h-280v200Zm6-351.5q-11 6-22.25 3.17Q550-493.65 544-504q-11-19-27.5-32.5T479-550q-29 0-49.5 20.14Q409-509.71 409-481q0 23.12 14.25 40.81T459-413.5q10 5 15.25 15.5t1.25 20.75q-4.5 11.25-15.25 16t-22.25.75q-38.5-13-62.5-46.21t-24-74.08q0-53.14 36.5-89.92 36.5-36.79 89.64-36.79 37.38 0 68.87 20 31.49 20 47.99 54.5 5 10.5 2 22t-13 17Zm-164 409q-13.5 0-22.71-9.03-9.22-9.03-11.29-22.47l-14.5-93q-19-7-41-19.25T292-254l-89 41q-12 5-23.75 1.5T161-226L99.5-335.5Q93-346 95.8-357.75q2.79-11.74 13.2-19.75l83.5-61.5q-2-8.98-2.5-19.99-.5-11.01-.5-21.01 0-8.5.5-20.25t2.5-21.75l-83-61Q99-590.5 96-602.25t4-22.75l61-109q6.59-10.79 18.55-14.65 11.95-3.85 23.45 1.15l90 41.5q15-12.5 36.25-24.75t41.55-18.86L386.5-849q2.01-11.71 11.26-19.1 9.24-7.4 20.74-7.4H542q11.68 0 20.61 7.4 8.93 7.39 10.89 19.1l15.93 97.82Q608.5-744 630.25-732T667-706l91-41.5q11.5-5 22.79-1.15 11.29 3.86 17.71 14.65l62 109q6.5 11 3.7 23.23-2.81 12.23-13.2 18.77l-95.5 68.5q-9.5 7-20 5.5t-18-11.5q-7.5-8.96-6.21-20.72 1.29-11.76 10.71-19.28l75.5-55-39-71.5-107 46.5q-22.5-25-51.25-42.5T538-705.5L524-818h-88l-13.5 112.54q-35 7.46-63 23.46t-52 41.5L202-687l-40 71.5 94 68.5q-4 17.5-6.5 33.82t-2.5 32.65q0 17.03 2.25 33.28t6.25 33.75L162-345l39.86 71.5 105.64-46q26 25.85 59.25 42.92Q400-259.5 436.5-251.5v148q0 8.06-4.22 13.28Q428.05-85 419.5-85Zm60-396Zm0 0Z"/></svg>