<svg xmlns="http://www.w3.org/2000/svg" height="24" viewBox="0 -960 960 960" width="24"><path d="M588.27-108.08q-28.44 0-48.35-19.91Q520-147.91 520-176.35v-155.38q0-28.44 19.92-48.35Q559.83-400 588.27-400h235.38q28.44 0 48.36 19.92 19.91 19.91 19.91 48.35v155.38q0 28.44-19.91 48.36-19.92 19.91-48.36 19.91H588.27Zm0-55.96h235.38q5.39 0 8.85-3.46t3.46-8.85v-155.38q0-5.39-3.46-8.85t-8.85-3.46H588.27q-5.39 0-8.85 3.46t-3.46 8.85v155.38q0 5.39 3.46 8.85t8.85 3.46Zm-15.62-327.58q-10.34 5.77-21.5 2.43-11.15-3.35-16.92-13.35-9.46-15.84-23.57-26.65Q496.55-540 478.54-540q-25 0-42.5 17.25-17.5 17.26-17.5 42.44 0 17.52 9.77 31.47 9.77 13.96 24.69 23.26 9.54 6.08 13.81 16.46 4.27 10.39-.7 20.43-5.26 10.65-16.46 14.42-11.19 3.77-22.03-1.69-30.35-14.58-47.7-42.48-17.34-27.91-17.34-61.56 0-48.25 33.73-82.1 33.73-33.86 81.98-33.86 34.24 0 62.22 17.88 27.99 17.89 43.07 48.23 5.26 10.35 2.25 21.5-3.02 11.16-13.18 16.73ZM419.58-108.08q-12.14 0-21.06-8.14-8.92-8.15-10.4-20.13L377-227.19q-16.27-5.7-34.52-15.64-18.25-9.94-31.56-21.02l-74.46 31.08q-15.31 6.38-30.61 1.31-15.31-5.08-23.93-19.46l-50.42-86.73q-8.61-14.2-5.09-30.41 3.53-16.21 16.74-26.36l65.58-49.35q-1.57-8.59-2.06-17.1-.48-8.51-.48-18.55 0-7.93.73-17.14.74-9.21 2.12-21.29l-65.08-48.23q-13.27-10.04-16.82-26.25-3.56-16.21 5.25-30.9l49.53-85.08q8.81-13.95 24.18-19.4 15.36-5.44 30.67 1.06l75.08 31.5q13.65-11.27 30.23-20.87 16.57-9.59 34.46-16.21l10.73-82.38q2.13-16.64 14.74-27.38 12.61-10.74 29.03-10.74h98.42q16.44 0 28.81 10.74 12.38 10.74 14.46 27.38l10.43 81.62q18.65 6.91 33.47 15.9 14.83 8.98 29.68 21.94l77.38-31.5q15.12-6.5 30.63-1.05 15.51 5.46 24.03 19.39l49.53 85.46q8.62 14.39 5.19 30.36-3.43 15.97-16.53 26.41l-73.2 53.81q-9.71 7-20.68 5.33-10.97-1.68-17.97-11.41-6.88-9.23-5.26-20.43 1.61-11.2 10.65-18.41l63.27-48-38.08-67.19-102.15 43.19q-18.16-19.85-46.2-36.31-28.04-16.46-54.61-23l-12.57-108.27h-79.12l-12.74 107.59q-31.61 7.72-55.51 21.18-23.91 13.46-48.56 37.81l-98.89-42.19-39.07 67.19 86.07 63.88q-5 15.04-7 30.05-2 15.01-2 31.01 0 15.32 1.75 29.73 1.75 14.4 6.37 30.33l-85.19 64.57 39.07 67.2 98.2-42q24 23.8 53.94 39.52 29.94 15.71 63.44 22.78v136.08q0 9.87-5.93 16.91-5.93 7.05-14.99 7.05Zm59.54-372.23Zm0 0Z"/></svg>