<svg xmlns="http://www.w3.org/2000/svg" height="40" viewBox="0 -960 960 960" width="40"><path d="M605.19-70.84q-35.22 0-60.21-24.87Q520-120.59 520-155.65v-159.54q0-34.67 24.98-59.74Q569.97-400 605.19-400h242.17q34.67 0 59.74 25.07t25.07 59.74v159.54q0 35.06-25.07 59.94-25.07 24.87-59.74 24.87H605.19Zm0-84.81h242.17v-159.54H605.19v159.54ZM409.41-70.84q-16.61 0-28.92-11.16-12.31-11.16-14.9-28.18l-12.93-90.25q-13.23-4.8-29.4-13.69-16.16-8.89-27.48-17.77l-81.6 36.67q-16.67 7.29-33.74 2.11-17.07-5.19-26.13-21.4L86.62-334.73q-8.73-14.84-5.28-32 3.44-17.15 18.1-28.31l75.1-56.16q-1.1-6.27-1.43-13.72-.34-7.45-.34-15.08 0-5.8.42-14.07.42-8.26 1.52-16.06l-74.6-54.77q-15.29-11.19-18.95-28.08-3.67-16.88 5.96-32.79l67.33-119.61q8.88-14.89 25.91-20.67 17.04-5.77 33.42 1.13l84.3 37.33q9.94-8.17 24.8-16.69 14.86-8.52 29.65-13.61l14.19-92.18q2.94-17.66 15.87-28.9 12.93-11.23 30.45-11.23h134.95q17.09 0 29.76 11.21 12.67 11.21 15.9 28.92l13.98 90.63q13.54 5.32 28.88 13.75 15.35 8.43 26.37 18.1l84.4-37.33q16.39-7.09 33.01-1.22 16.63 5.87 25.35 20.78l68.09 119.65q8.8 15.68 4.84 32.5-3.97 16.82-18.34 28.31l-68.8 58.67q-15.02 11.38-30.89 17.27-15.87 5.89-32.9 7.89H606.85q-.57-53.79-38.14-91.36T478.08-610q-55.11 0-92.67 37.92-37.56 37.91-37.56 92.08 0 43 25.13 76.81 25.14 33.81 64.29 46.31v257.13q0 12.58-5.91 20.74-5.92 8.17-21.95 8.17Z"/></svg>