<svg xmlns="http://www.w3.org/2000/svg" height="24" viewBox="0 -960 960 960" width="24"><path d="M656-34q-57.12 0-96.56-39.44Q520-112.88 520-170v-94q0-57.13 39.44-96.56Q598.88-400 656-400h183q57.13 0 96.56 39.44Q975-321.13 975-264v94q0 57.12-39.44 96.56Q896.13-34 839-34H656Zm0-136h183v-94H656v94ZM387.21-34Q363-34 345.07-49.06 327.14-64.13 324-88l-11-87q-3-2-6.31-4.05-3.31-2.04-6.69-3.95l-65 27q-29 13-59 3t-45-38L56-325q-15-27-9.5-57.5T77-432l54-41q0-1.94.5-4.03.5-2.09.5-4.03 0-1.94-.5-3.44t-.5-3.5l-53-40q-26-19-32-49.5T56-636l75-132q16-27 45-37t58 2l66 26q3.89-1.45 7.44-3.23Q311-782 314-784l9-70q5-32 28-52.5t54-20.5h150q31 0 54 20.5t28 52.5l9 70 8 4 8 4 63-27q29.28-13 58.78-2.5T829-768l75 132q16 28 10 58.5T882-528l-27 19q-18 13-38.5 20t-42.07 7H629.07q-1-61.6-44.33-105.8Q541.42-632 478-632q-62.84 0-106.92 44.05Q327-543.91 327-481.12q0 51.08 30.05 91.29Q387.1-349.61 434-336v253q0 21.18-10.4 35.09Q413.21-34 387.21-34Z"/></svg>