<svg xmlns="http://www.w3.org/2000/svg" height="40" viewBox="0 -960 960 960" width="40"><path d="M578.46-120q-24.69 0-41.58-16.88Q520-153.77 520-178.46v-163.08q0-24.69 16.88-41.58Q553.77-400 578.46-400h243.08q24.69 0 41.58 16.88Q880-366.23 880-341.54v163.08q0 24.69-16.88 41.58Q846.23-120 821.54-120H578.46Zm0-33.85h243.08q10.77 0 17.69-6.92 6.92-6.92 6.92-17.69v-163.08q0-10.77-6.92-17.69-6.92-6.92-17.69-6.92H578.46q-10.77 0-17.69 6.92-6.92 6.92-6.92 17.69v163.08q0 10.77 6.92 17.69 6.92 6.92 17.69 6.92ZM425.41-120q-6.79 0-11.82-5.05t-6.26-12.62l-12.2-97.2q-21.1-6.59-46.12-20.51-25.01-13.93-42.42-29.88l-83.9 37.64q-9.46 3.83-19.05.9-9.59-2.92-14.72-12.07l-46.89-81.29q-5.13-9.15-3.11-18.6 2.03-9.45 10.62-15.65l75.1-56q-1.92-11.67-3.15-24.45t-1.23-24.45q0-10.9 1.23-23.55 1.23-12.66 3.15-26.89l-75.1-56q-8.59-6.2-10.23-16.04-1.64-9.83 3.48-18.98l46.13-78.98q5.13-8.38 14.72-11.69 9.59-3.31 19.05.51l83.13 36.36q19.72-16.2 43.23-29.74 23.51-13.54 45.31-20.23l13.18-92.77q2.08-9.87 9.41-16.32 7.33-6.45 17.2-6.45h90.93q9.87 0 17.59 6.45 7.71 6.45 9.79 16.32l12.41 92.87q24.44 8.9 45.43 20.82 20.98 11.92 40.8 29.05l87.34-36.36q8.95-3.82 18.5-.51 9.55 3.31 14.68 11.69l46.28 79.75q5.13 9.15 2.81 18.48-2.33 9.34-10.25 15.77l-77.51 61.98q1.02 3.84 1.67 6.92.64 3.08 1.41 6.92-2.34 12.06-12.22 20.39-9.89 8.33-23.94 9.31l-125.69-.77q0-39.95-28.45-67.98-28.45-28.02-68.4-28.02-39.51 0-67.83 28.06-28.32 28.07-28.32 68.09 0 29.64 15.94 53.51 15.93 23.88 41.75 35.05v257.03q0 6.41-3.87 10.8-3.87 4.38-9.59 4.38Z"/></svg>