<svg xmlns="http://www.w3.org/2000/svg" height="20" viewBox="0 -960 960 960" width="20"><path d="M641-72q-50.94 0-81.97-31.03T528-185v-86q0-50.94 31.03-81.97T641-384h188q50.94 0 81.97 31.03T942-271v86q0 50.94-31.03 81.97T829-72H641Zm0-113h188v-86H641v86ZM420-72q-19.5 0-33.75-11.75T369-114.5l-13.5-79q-15-6.5-31.75-14.75T294-227.5l-80.5 28q-14.5 4.5-30.5 0T159.5-219L94-334.5q-6.5-14-4.75-28.75t14.25-26.25l65-57.5q-1-7.48-2-14.99t-1-18.01q0-8 1.25-16.5T169-515l-64.5-55Q91-581.5 89-596t5.5-30l65-114q7.59-13.79 23.3-18.65 15.7-4.85 30.2-.85l84.5 29q12-11 25.75-18.5t32.25-14.5L373-853q4.51-16.21 15.76-26.1Q400-889 417-889h126.5q17.18 0 28.11 9.9 10.93 9.89 15.39 26.1l17.5 88q16 6.5 31.25 14.25T664-730.5l85.5-29q14.5-5 29.79.35Q794.58-753.79 802-740l65 114q7.5 15 4.86 30.48-2.64 15.48-16.36 25.52l-37 33q2 4 3 12t1 17q-5 26.5-23 39T757-456.5H609.5q1-6 1.5-12.5t.5-12.5q-1-58.5-40.5-98T473.73-619q-57.73 0-97.98 40.25Q335.5-538.5 335.5-481q0 52.4 34.5 92.2 34.5 39.8 85.5 45.8v237.5q0 15.56-6.81 24.53T420-72Z"/></svg>