<svg xmlns="http://www.w3.org/2000/svg" height="20" viewBox="0 -960 960 960" width="20"><path d="M606-97.87q-35.72 0-56.86-21.14T528-175.87V-306q0-35.72 21.14-56.86T606-384h227.57q35.72 0 56.86 21.14T911.57-306v130.13q0 35.72-21.14 56.86t-56.86 21.14H606Zm0-78h227.57V-306H606v130.13Zm-14.22-311.72q-13.71 7.74-27.38 2.41-13.67-5.33-21.51-18.86-11.26-19.29-28.46-33.69-17.2-14.4-39.36-14.4-30.09 0-50.25 21.39-20.17 21.38-20.17 51.29 0 21.57 14.85 37.42 14.85 15.86 32.87 26.36 12.72 7.47 20.22 20.68 7.5 13.21 2.02 26.42-5.98 14.22-19.95 17.98-13.96 3.76-28.42-.24-40.98-14.74-66.82-50.12-25.83-35.38-25.83-78.6 0-59.87 41.4-101.76 41.4-41.89 99.85-41.89 42.34 0 76.13 23.99 33.79 23.99 53.27 61.73 6 13.69 3.63 27.92-2.37 14.23-16.09 21.97ZM432.93-97.87q-15.08 0-26.25-9.13-11.17-9.12-13.33-23.48L379.09-211q-21.19-8.81-42.84-20.09-21.64-11.28-39.21-26.08l-81.26 28q-11.45 2.97-23.65-.76-12.2-3.74-18.17-14.94l-51.05-88.87q-5.74-10.87-3.99-22.62 1.75-11.75 11.21-20.97l65.76-57.5q-1.76-10.47-2.76-21.06-1-10.59-1-24.09 0-11 1.25-22.58 1.25-11.57 3.01-24.61l-65.26-55.76q-9.7-9.22-11.7-20.68-2-11.46 3.98-23.15l50.55-88.13q6.07-10.75 18.35-14.84 12.28-4.1 23.73-.86l82.98 29q16.57-14.8 36.4-25.73 19.84-10.92 43.67-20.2l16.74-87.98q2.99-12.41 12.57-20.02 9.58-7.61 22.3-7.61h99.1q12.9 0 22.17 7.61 9.26 7.61 12.2 20.02l16.74 86.48q22.19 8.74 42.34 19.94 20.14 11.19 37.71 27.49l84.74-29q11.45-3.48 23.08.73 11.62 4.21 18 14.97l50.55 88.13q5.97 11.19 3.68 23.25-2.29 12.05-11.88 20.58l-88.78 73.6q-11.68 10.7-28.57 8.3-16.89-2.39-27.46-14.73-9.32-11.17-7.66-27.1 1.65-15.92 13.47-26.81l60.04-51.05-14.1-24.69-97.53 33q-23.5-28.72-56.09-48.08-32.6-19.36-68.58-24.62l-18.93-100.02h-30.55l-18.02 99.28q-39.72 7.26-70.44 24.87-30.71 17.61-57.45 48.57l-94.78-33-14.87 24.69 74.54 65.79q-6 19.47-9.74 37.78-3.74 18.3-3.74 36.62 0 19.1 2.99 37.66 2.99 18.57 8.99 37.54l-73.04 65.05 13.94 24.69 94.16-31.76q26.81 31 62.94 49 36.13 18 76.39 26.22v151.41q0 10.94-5.74 16.9-5.74 5.95-17.59 5.95Zm45.33-381.39Zm0 0Z"/></svg>