<svg xmlns="http://www.w3.org/2000/svg" height="48" viewBox="0 -960 960 960" width="48"><path d="M603.74-61.17q-33.73 0-58.74-24.84-25-24.84-25-58.34v-172.48q0-32.9 25-58.04Q570.01-400 603.74-400h255.91q32.91 0 58.04 25.13 25.14 25.14 25.14 58.04v172.48q0 33.5-25.14 58.34-25.13 24.84-58.04 24.84H603.74Zm0-83.18h255.91v-172.48H603.74v172.48ZM408.42-61.17q-16.18 0-27.98-10.78-11.8-10.77-14.53-27.62l-14.43-93.3q-14.87-4.87-32.75-15.31-17.89-10.44-30.6-20.3l-86.61 39.87q-15.62 7.7-32.32 2.42-16.69-5.29-24.46-20.68L75.3-332.17q-8.13-13.13-5.34-29.18 2.78-16.04 17.47-27.17l79.74-59.31q-1-5.83-1.21-16.05-.22-10.22-.22-17.05 0-5.83.22-15.74.21-9.92 1.21-16.81l-79.74-58.3q-14.26-10.7-17.82-26.46-3.57-15.76 6.13-30.46l69.65-125.54q7.91-13.02 23.89-18.65 15.98-5.63 31.68.5l87.43 40.43q11.68-8.99 30.01-19.52 18.34-10.52 33.08-15.39l16-96.3q2.56-15.83 14.64-26.24 12.07-10.42 28.45-10.42h140.66q14.47 0 26.62 10.38t16.24 26.28l14.43 95.74q15.76 4.89 34.06 15.53 18.29 10.64 30.16 19.94l87.3-40.43q15.86-6.57 31.21-.72 15.35 5.85 23.4 18.89l70.78 125.61q7.96 14.61 4.18 30.37-3.78 15.76-17.04 26.46l-64.4 60.08q-16.69 12.57-33.9 19.63Q757.06-485 738.76-482H612.02q-.56-54.51-39.43-93.67-38.88-39.16-93.59-39.16-56.52 0-95.45 39.2-38.94 39.2-38.94 95.13 0 43.63 25.14 78.43 25.14 34.81 64.21 47.56V-87.7q0 12.36-5.44 19.45-5.45 7.08-20.1 7.08Z"/></svg>