<svg xmlns="http://www.w3.org/2000/svg" height="40" viewBox="0 -960 960 960" width="40"><path d="M575.17-133.67q-22.98 0-39.07-16.09-16.1-16.1-16.1-39.07v-156q0-22.98 16.1-39.07 16.09-16.1 39.07-16.1h236q22.97 0 39.07 16.1 16.09 16.09 16.09 39.07v156q0 22.97-16.09 39.07-16.1 16.09-39.07 16.09h-236Zm0-23.16h236q14 0 23-9t9-23v-156q0-14-9-23t-23-9h-236q-14 0-23 9t-9 23v156q0 14 9 23t23 9Zm-24-347.84q-3.84 3.34-8.34 2.59-4.5-.74-7.83-3.59-10.67-14.66-25.05-25.5Q495.57-542 477.33-542q-25.72 0-43.86 18.09t-18.14 43.58q0 18.35 9.67 32.59 9.67 14.24 25.67 23.57 4 2.34 5 6.84t-1.17 8.5q-2.17 4-7 5.16-4.83 1.17-9.17-1.83-21.83-9.83-34-29.93-12.16-20.09-12.16-44.43 0-36.31 24.15-60.81t60.96-24.5q24.09 0 43.99 12.34 19.9 12.33 30.9 32.83 3.16 4.17 2.41 8.5t-3.41 6.83Zm-122.34 371q-4.5 0-7.6-3.77-3.11-3.78-4.06-9.06L406-244.83q-22.83-6.34-50.25-21.59T310-299l-86.33 38.67q-6.67 2.66-12.78 1.09-6.12-1.56-9.56-8.09l-46.16-78.84q-3.34-5.5-2.07-11.84 1.26-6.35 7.57-10.82l77.5-57.5q-2.5-12.98-3.75-26.16t-1.25-26.01q0-12 1.33-25.58 1.33-13.59 3.33-29.92l-77-57.67q-6.5-3.83-7.41-10.75-.92-6.91 3.25-12.91l44.66-75.34q3.78-5.73 9.73-7.7 5.94-1.96 12.27-.13l86.34 37.17q20.83-16.84 46-31.75 25.16-14.92 49-22.27l13.5-95.98q1.83-6.81 7.21-10.99 5.38-4.18 11.79-4.18h86.16q6.17 0 11.44 4.18 5.28 4.18 7.06 10.99l12.88 96.36q26.12 9.64 48.21 22.55 22.08 12.92 43.75 31.09L739-698.5q5.17-1.83 11.56.25 6.4 2.08 9.61 7.58l44.66 76.34q3.34 6.33 2.2 12.66-1.13 6.32-7.36 10l-91.84 66.84q-4.12 3.33-7.97 2.41-3.86-.91-6.53-4.75-3.5-2.97-2.95-7.72.54-4.75 4.62-7.61l86.83-65.33-39.33-68.5-104.67 43.83q-18-19.33-48.66-38-30.67-18.67-55.5-22.67l-12.72-110.16h-81.62l-11.5 109.55q-32.33 6.45-57.08 20.28-24.75 13.83-50.92 40l-101.5-42.83-40.33 68.5 89.33 65.16q-5 13.84-7 29.87t-2 32.68q0 17.43 1.75 31.86t5.75 29.43L178-352.33l40.05 68.5 101.12-42.67q24 24.45 54.91 40.22Q405-270.5 439.83-263.5v117.67q0 5.89-3.33 9.03-3.33 3.13-7.67 3.13Zm50.34-346.66Zm0 0Z"/></svg>