<svg xmlns="http://www.w3.org/2000/svg" height="40" viewBox="0 -960 960 960" width="40"><path d="M583.33-86.67q-25.62 0-44.48-18.85Q520-124.37 520-150v-186.67q0-25.62 18.85-44.48Q557.71-400 583.33-400H850q25.63 0 44.48 18.85 18.85 18.86 18.85 44.48V-150q0 25.63-18.85 44.48Q875.63-86.67 850-86.67H583.33Zm0-63.33H850v-186.67H583.33V-150Zm1.17-340.83q-12 6.5-24.5 2.92T541-503q-10.17-18.33-25.92-31-15.75-12.67-35.91-12.67-27.67 0-47.17 19.15-19.5 19.14-19.5 46.69 0 21.28 12.92 37.81 12.91 16.52 32.41 25.69 11 6 16.5 17.58 5.5 11.58.67 22.92-5.33 12.33-17.42 17.33-12.08 5-24.58 0-37.83-14.17-60.83-47.31-23-33.13-23-73.72 0-54.07 37.5-91.77 37.5-37.7 91.51-37.7 38.39 0 70.44 20.42 32.05 20.41 48.71 55.58 5.67 11.67 2.09 24.33-3.59 12.67-14.92 18.84ZM417.67-86.67q-14.5 0-24.73-9.6-10.23-9.61-12.27-23.9l-13.5-91q-17-6.5-36.09-17.08-19.08-10.58-33.41-21.92L215.5-213.5q-14.83 6.17-29.5 1.5t-22.83-18.33l-58.84-103.84q-8.16-13.33-4.72-28.41 3.45-15.08 16.22-24.92l75.67-56.17q-1.67-8.14-2-17.48-.33-9.35-.33-18.85 0-7.67.41-17.83.42-10.17 2.09-19.84L116.5-573q-12.83-9.5-16.5-24.5t4.83-28.83l58.34-103.34q8.26-13.46 23.13-18.48t29.37 1.32l83.16 37.33q13.34-11 31.59-21.5t36.61-16.91l13.64-91.42q2.18-15.21 13.92-24.94t26.74-9.73h117.84q15.18 0 26.6 9.73 11.43 9.73 13.56 24.94l13.79 89.87q17.38 6.63 35.8 17.04Q647.33-722 661-709.5l83.83-37.33q14.5-6.34 28.96-1.32t22.54 18.48l59 103.34q8.17 13.66 4.78 28.97Q856.72-582.04 844-573l-84.67 61.17q-10.66 7.83-22.66 6.08T716.5-518.5q-8-10.14-6.37-23.06 1.62-12.92 11.87-21.11L789-612l-38.5-70-105 45.33q-21.5-23.66-49.5-40.5-28-16.83-59.83-22.66l-13.65-110.84h-84.85l-13.5 110.69q-34 7.81-60.67 23.06T313-637l-103.17-45-39.5 70 91.17 66.83q-4.33 17-6.67 32.72-2.33 15.71-2.33 31.92 0 16.36 2.08 32.03 2.09 15.67 6.42 32.83l-90.67 67 39.43 70 103.07-44.66q25.34 25.23 57.42 41.95 32.08 16.71 67.58 24.21v148q0 9.56-5.25 16.03-5.25 6.47-14.91 6.47Zm61.83-394.16Zm0 0Z"/></svg>