<svg xmlns="http://www.w3.org/2000/svg" height="40" viewBox="0 -960 960 960" width="40"><path d="M599.9-78.67q-32.52 0-56.21-23.69Q520-126.05 520-158.57V-320.1q0-32.52 23.69-56.21Q567.38-400 599.9-400h246.87q32.51 0 56.2 23.69 23.69 23.69 23.69 56.21v161.53q0 32.52-23.69 56.21-23.69 23.69-56.2 23.69H599.9Zm0-67.59h246.87q5.38 0 8.84-3.46 3.47-3.46 3.47-8.85V-320.1q0-5.39-3.47-8.85-3.46-3.46-8.84-3.46H599.9q-5.39 0-8.85 3.46t-3.46 8.85v161.53q0 5.39 3.46 8.85t8.85 3.46Zm-15.54-346.25q-12.34 6.59-25.2 2.8t-19.85-16.65q-10.54-17.07-26.02-29.12-15.48-12.06-35.47-12.06-27.67 0-46.99 18.89t-19.32 46.39q0 20.32 11.71 36.61 11.7 16.29 30.11 25.21 12.78 5.77 17.62 19 4.84 13.23-1.08 25.7-5.92 12.46-19.04 16.96-13.11 4.5-26.44-1.02-37.17-14.93-58.82-48.52-21.65-33.6-21.65-73.11 0-56.02 38.45-94.86 38.45-38.84 94.65-38.84 39.26 0 71.68 21.13 32.43 21.13 49.25 55.44 5.84 12.76 2.29 26.11t-15.88 19.94ZM408.14-78.67q-12.61 0-21.51-8.35-8.9-8.35-10.63-21.31l-13.1-96.11q-15.05-5.46-34.11-15.89-19.05-10.43-32.66-22.13l-86.62 38.15q-13.56 6.41-27.5 1.65-13.94-4.75-20.55-17.57L94.85-339.87q-6.57-12.08-4.32-25.09t14.57-21.71l76.06-58.19q-.8-7.71-1.58-17.89-.78-10.19-.78-18.42 0-8.23.78-18.01.78-9.78 1.58-19.49l-75.72-56q-11.8-8.77-14.12-22.1-2.32-13.33 4.91-26.08l66.23-116.82q6.7-11.92 19.98-16.29 13.29-4.37 27.07.37l83.57 36.85q14.69-11.44 33.95-22.37 19.25-10.94 35.82-17.12l13.92-93.05q2.16-13.14 13.21-22.26 11.05-9.12 24.82-9.12h131.07q12.83 0 23.99 9.12 11.17 9.12 14.04 22.26l12.87 93.77q17.72 6.95 35.96 17.24 18.24 10.3 32.65 21.86l86.34-37.18q13.52-5.74 26.46-.83 12.93 4.9 20.13 16.75l66.64 117.21q6.56 12.74 3.96 26.25-2.6 13.51-14.35 21.54l-95.69 70.49q-10.97 8.74-24.64 6.56-13.67-2.18-22.22-13.06-8.55-10.88-7.06-24.98 1.49-14.09 12.92-23.19l73.41-54.69-38.79-69.9-103.59 42.95q-20.75-23.28-51.29-41.61-30.53-18.34-62.7-23.85L522.9-815.08h-85.93l-11.89 108.41q-35.03 7.82-63.64 24.32-28.62 16.5-52.57 41.61l-100.5-42.7-40.99 69.9 88.77 66.69q-4.59 17.31-6.79 33.31-2.21 16-2.21 31.83 0 15.56 2.21 31.75 2.2 16.19 6.41 35.22l-88.39 66.95 40.8 69.89 101.31-43.56q24.82 24.51 55.54 41.19 30.71 16.68 64.74 25.73v153.31q0 10.3-6.19 16.43-6.19 6.13-15.44 6.13Zm70.35-403.28Zm0 0Z"/></svg>