<svg xmlns="http://www.w3.org/2000/svg" height="48" viewBox="0 -960 960 960" width="48"><path d="M590.69-84q-28.25 0-49.47-21.22T520-154.69v-174.62q0-28.25 21.22-49.47T590.69-400h258.62q28.25 0 49.47 21.22T920-329.31v174.62q0 28.25-21.22 49.47T849.31-84H590.69Zm0-58.39h258.62q5.38 0 8.84-3.46t3.46-8.84v-174.62q0-5.38-3.46-8.84-3.46-3.47-8.84-3.47H590.69q-5.38 0-8.84 3.47-3.47 3.46-3.47 8.84v174.62q0 5.38 3.47 8.84 3.46 3.46 8.84 3.46Zm-10.65-353.23q-10.43 5.85-21.34 2.91-10.92-2.94-17.16-14.06-11.12-17.46-27.01-30-15.9-12.54-36.69-12.54-28.53 0-48.41 19.56-19.89 19.55-19.89 47.9 0 21.4 12.65 38.2 12.66 16.8 32.35 26.19 11.08 4.61 15.46 16.04 4.38 11.42-.46 22.03-4.85 10.62-15.85 14.58-11 3.96-22.92-.27-36.5-13.06-58.06-45.45-21.55-32.39-21.55-70.61 0-53.27 36.1-89.91 36.1-36.64 89.69-36.64 37.01 0 67.84 19.92 30.82 19.92 46.52 52.16 5.23 11.07 2.19 22.61-3.04 11.54-13.46 17.38ZM413.22-84q-11.25 0-19.13-7.68-7.88-7.67-9.63-19.63l-13.84-96.92q-17.54-6-39.54-18.08-22-12.07-37.54-25.54l-90.77 41q-10.92 5.46-22.32 1.67-11.39-3.79-16.53-14.21L98.54-340.77q-5.08-9.31-3.47-19.58 1.61-10.27 12.16-17.26l81.62-62.3q-1-8.14-1.89-19.9-.88-11.76-.88-20.97 0-9.22.88-20.63.89-11.41 1.89-21.98l-81.62-60q-9.69-7.07-11.54-17.49-1.84-10.43 4.23-20.73l65-115.23q5.24-9.2 15.92-12.6 10.67-3.4 21.93.06l88.38 40.23q16.31-12.93 38.24-25.58 21.92-12.65 40.84-19.04l15.62-99.15q1.92-9.98 10.66-17.03 8.74-7.05 19.64-7.05h128.7q9.49 0 18.4 7.05 8.91 7.05 11.9 17.03l14.23 99.54q20.08 7.15 41.16 19.23 21.07 12.07 36.77 25L759-749.38q10.87-4.46 21-.51 10.13 3.96 15.84 13.05l65.62 115.61q5.08 10.31 3.01 21.01-2.06 10.7-11.7 16.83l-101.31 73.93q-9.69 7.46-21.31 5.65-11.61-1.81-18.69-11.11-7.08-9.31-6.13-21.52.95-12.21 10.98-20.1l79.92-58.77-39-70.84-105.62 44.23q-21.07-23.69-51.91-42.57-30.85-18.87-63.64-23.51l-12.21-110.61h-87.7l-12.23 110.23q-35.23 7.61-64.19 24.15t-53.11 41.92l-102.57-43.84-41.28 70.84 91.46 67.85q-4.38 16.84-6.69 33.15-2.31 16.31-2.31 32.89 0 16.6 2.31 32.93 2.31 16.34 6.31 34.57l-91.08 68.23 41 70.84 103.46-44.84q25.23 25.45 56.96 42.26t66.96 25.81v148.78q0 8.8-5.05 13.82T413.22-84Zm65.4-397.62Zm0 0Z"/></svg>