<svg xmlns="http://www.w3.org/2000/svg" height="20" viewBox="0 -960 960 960" width="20"><path d="M621-86.78q-42.24 0-67.62-25.38Q528-137.54 528-179.78V-291q0-42.24 25.38-67.62Q578.76-384 621-384h210.61q42.24 0 67.62 25.38 25.38 25.38 25.38 67.62v111.22q0 42.24-25.38 67.62-25.38 25.38-67.62 25.38H621Zm0-93h210.61V-291H621v111.22Zm-193.61 93q-16.89 0-29.4-10.23-12.51-10.23-15.08-26.62l-13.93-79.87q-18.48-7.8-38.06-17.79-19.57-9.99-35.18-23.17l-80.94 28q-12.76 3.64-26.58-.43-13.83-4.07-20.46-16.89l-57.24-100.29q-6.06-12.26-4.31-25.27t12.51-23.2l65.43-57.5q-1.43-9.22-2.43-18.47-1-9.25-1-21.49 0-9.74 1.25-19.98t2.68-21.98l-64.93-55.43q-11.33-10.2-13.33-22.96-2-12.76 4.63-26.08l56.74-99.22q6.72-12.06 20.47-16.48 13.75-4.41 26.51-.85l83.63 29q14.61-13.17 31.84-22.63 17.22-9.46 38.77-17.76L386.04-843q3.64-14.04 13.8-22.63t24.99-8.59h110.84q15.01 0 24.85 8.59 9.84 8.59 13.44 22.63l17.06 87.13q19.48 7.8 37.56 17.51 18.07 9.71 33.68 24.38l85.07-29q12.76-4.13 26.09.57 13.34 4.7 19.88 16.76l56.74 99.22q6.64 12.82 4.21 26.34-2.42 13.53-13.97 22.7l-51.78 44.74q2 4 3 12t1 17q-2.39 24.76-17.13 36.17-14.74 11.41-36.63 11.41H610.8q1-6 1.5-12.5t.5-12.5q-.56-58.5-40.28-98.21Q532.8-619 475.04-619q-57.74 0-97.99 40.25Q336.8-538.5 336.8-481q0 52.4 34.29 91.77 34.28 39.36 84.84 45.8v229.23q0 12.96-6.15 20.19-6.16 7.23-22.39 7.23Z"/></svg>