<svg xmlns="http://www.w3.org/2000/svg" height="20" viewBox="0 -960 960 960" width="20"><path d="M633.17-60.65q-46.93 0-76.05-29.12Q528-118.9 528-165.83v-113q0-46.93 29.12-76.05Q586.24-384 633.17-384h217.24q46.93 0 76.05 29.12 29.13 29.12 29.13 76.05v113q0 46.93-29.13 76.06-29.12 29.12-76.05 29.12H633.17Zm0-105.18h217.24v-113H633.17v113Zm-22.28-316.85q-19 9.88-37.63 2.58-18.63-7.3-29.13-26.47-10.95-19.71-28.75-34.4-17.8-14.68-40.1-14.68-30.98 0-51.69 21.63-20.72 21.63-20.72 51.9 0 22.36 14.48 39.4 14.48 17.05 34 26.05 19.24 9.24 27.88 28.35 8.64 19.12.14 38.36-8.74 19-28.12 24.53-19.38 5.52-38.62-1.24-48.51-18.32-78.25-60.85-29.75-42.53-29.75-93.79 0-71.86 49.83-122.22 49.82-50.36 120.3-50.36 51.04 0 91.71 29.02 40.66 29.02 63.42 74.3 8 19 4 38.5t-23 29.39ZM413.59-60.65q-17.9 0-31.1-10.59-13.2-10.58-15.56-27.8l-14.76-84.05q-16.14-7.54-32.8-16.41-16.66-8.87-31.13-21.2l-82.57 28.53q-15.95 5.47-32.65-.26-16.69-5.74-24.17-20.94L83.89-330.8q-7.48-14.87-5.36-30.11t15.08-26.96l63.04-56.28q-1-9.14-1.88-18.63-.88-9.48-.88-19.37t.88-19.03q.88-9.14 1.88-17.95l-62.04-54.28q-13.2-11.72-15.44-27.42-2.24-15.69 5.48-30.89l64.96-114.67q7.72-14.96 23.79-20.32 16.08-5.36 32.03-.88l79.77 26.76q15.01-12.15 32.59-21.38 17.58-9.22 35.38-17.51l16-83.52q3.48-16.43 16.82-27.15 13.34-10.72 30.05-10.72h127.92q16.71 0 30.05 10.72t16.82 27.15l16 84.28q17.14 8.25 35.27 17.55 18.14 9.3 33.18 21.58l80.29-27.76q16.02-5.48 31.63.38 15.62 5.86 24.19 20.82l64.96 114.67q7.72 15.2 4.86 31.39-2.86 16.2-16.06 26.92l-92.95 78.24q-15.44 14.47-38.37 11.19-22.94-3.29-37.54-19.65-13.59-15.94-11.13-37.76 2.45-21.83 19.21-36.52l54.33-47.33-14.85-25.69-94.72 30.47q-26.04-31.71-60.18-51.75-34.13-20.03-74.58-25.96l-18.24-97.76h-33.5l-16.76 96.52q-42 7.76-76.98 28.38-34.98 20.62-60.22 51.33l-92.76-31.23-16.13 25.69 72.52 66.28q-6.23 22-9.85 40.81-3.62 18.8-3.62 36.07 0 18.1 3.12 37.93 3.12 19.82 9.35 42.35l-71.52 65.28 15.13 25.69 93.47-31q26.95 30.21 62 49.34 35.05 19.14 74.29 28.38v174.39q0 14.34-8.17 21.7-8.18 7.37-22.91 7.37ZM478-481.52Zm0 0Z"/></svg>