<svg xmlns="http://www.w3.org/2000/svg" height="20" viewBox="0 -960 960 960" width="20"><path d="M611-87.87q-37.78 0-60.39-22.61T528-170.87V-301q0-37.78 22.61-60.39T611-384h227.57q37.78 0 60.39 22.61T921.57-301v130.13q0 37.78-22.61 60.39t-60.39 22.61H611Zm0-83h227.57V-301H611v130.13Zm-13.72-315.22q-14.71 8.24-29.38 2.49-14.67-5.75-23.01-20.44-10.76-19.29-28.21-33.69-17.45-14.4-39.11-14.4-30.09 0-50.25 21.24-20.17 21.24-20.17 50.94 0 21.95 14.1 38.11 14.1 16.17 33.62 25.17 14.72 7.47 22.22 22.43 7.5 14.96.52 29.67-6.98 14.72-21.7 18.98-14.71 4.26-29.67-.74-42.48-15.24-68.82-51.62-26.33-36.38-26.33-81.6 0-61.95 42.9-105.3 42.9-43.35 103.59-43.35 43.94 0 79.06 24.74 35.12 24.74 54.6 63.98 7 14.69 3.88 29.92-3.12 15.23-17.84 23.47ZM429.93-87.87q-15.58 0-27.5-9.38-11.92-9.37-14.08-24.73l-14.76-82.52q-21.19-8.31-41.09-19.34-19.89-11.03-37.46-25.83l-74.76 26q-15.95 5.47-32.65-.26-16.7-5.74-25.17-20.94l-44.55-78.37q-8.24-14.87-5.24-31.37t15.96-28.22l58.76-52q-1.76-11-2.76-22.07-1-11.08-1-23.08 0-12 1-23.08 1-11.07 2.76-22.11l-58.76-51.76q-13.2-11.72-16.2-28.18t5.48-31.65l44.55-78.13q8.47-14.96 25.05-20.7 16.58-5.74 32.53-.5l75.48 26q17.57-14.8 37.15-25.73 19.59-10.92 40.92-19.2l15.24-78.48q3.47-17.2 16.31-27.91 12.84-10.72 30.56-10.72h88.6q17.72 0 30.56 10.72 12.84 10.71 16.31 27.91l15.24 78.48q21.19 8.24 41.09 19.19 19.89 10.94 37.46 25.74l75.24-26q15.95-5.48 32.28.38 16.34 5.86 25.3 20.82l44.55 78.13q8.47 15.19 5.24 31.77-3.24 16.58-16.44 28.06l-71.78 62.1q-12.68 11.2-30.57 9.05-17.89-2.14-28.96-15.48-10.32-12.67-8.45-29.36 1.86-16.69 14.76-28.05l49.04-43.05-15.6-25.69-95.53 32q-26-30.72-58.59-50.08-32.6-19.36-71.08-25.12l-19-98.52h-30.98l-18.52 98.28q-38.72 6.76-71.94 26.12-33.21 19.36-58.45 49.32l-95.28-32-15.37 25.69 75.04 66.29q-6 18.47-9.74 37.28-3.74 18.8-3.74 38.15 0 20.07 3.24 39.13 3.24 19.07 9.24 36.54l-74.04 66.05 14.37 25.69 95.23-31.76q26.81 32 63.19 51 36.38 19 78.14 25.72v153.41q0 12.38-6.43 19.37-6.42 6.98-19.4 6.98Zm49.83-391.89Zm0 0Z"/></svg>