<svg xmlns="http://www.w3.org/2000/svg" height="40" viewBox="0 -960 960 960" width="40"><path d="M119.97-159.97q0-53.65 26.59-102.69 26.58-49.03 75.24-86.02-47.65-28.94-74.74-77.77-27.09-48.82-27.09-103.66 0-113.59 80.86-191.75t197.58-78.16q68.19 0 125.96 30.95 57.76 30.95 102.76 91.27 20.67-38.1 55.46-59.39 34.78-21.3 78.69-21.3 66.37 0 111.53 33.55t45.16 84.53q0 45.21-30.76 76.57-30.77 31.36-74.87 31.36h-12.15v175.73q0 82.13-58.23 139.45-58.23 57.33-140.96 57.33H119.97ZM316.81-391.3q52.66 0 90.7-34.23 38.04-34.22 38.04-81.69 0-27.08-14.26-43.74-14.26-16.67-35.44-16.67-18.96 0-32.04 11.69-13.07 11.7-13.07 28.63h-68.36q0-44.99 33.26-76.95 33.25-31.96 80.32-31.96 49.44 0 83.73 36.48 34.3 36.48 34.3 89.27 0 30.47-12.32 61.38-12.32 30.92-33.26 57.79h70.22q28.11 0 48.28-19.86 20.16-19.87 20.16-48.32v-60.72q0-87.44-61.19-149.33-61.19-61.9-147.53-61.9-87.81 0-148.88 58.11-61.06 58.1-61.06 143.01 0 56.51 37.06 97.76 37.06 41.25 91.34 41.25ZM205.5-228.41h396q54.15 0 92.12-37.17 37.97-37.18 37.97-91.37v-173.88q0-28.99 18.45-49.54 18.45-20.54 46.31-20.54h13.37q16.06 0 27.94-11.4 11.88-11.39 11.88-28.02 0-12.52-8.42-22.51-8.43-9.99-20.97-15.55-16.15-5.91-30.64-8.7-14.49-2.8-28.08-2.8-35.99 0-60.87 25.97-24.89 25.98-24.89 62.05v142.28q0 57.76-40.3 97.24-40.31 39.49-96.54 39.49H353.35q-47.62 0-87.97 26.03t-59.88 68.42Zm511.96-14.88Z"/></svg>