<svg xmlns="http://www.w3.org/2000/svg" height="40" viewBox="0 -960 960 960" width="40"><path d="M138.67-177.9q0-55.46 28.1-101.55 28.1-46.09 81.54-74.45-52.41-20.02-81.03-68.48-28.61-48.46-28.61-106.8 0-105.63 76.04-178.89 76.04-73.26 186.59-73.26 73.14 0 132.75 33.7 59.62 33.71 93.21 97.07 12.07-42.67 48.27-66.63 36.19-23.96 83.2-23.96 56.4 0 102.17 28.21 45.77 28.22 45.77 78.12 0 40.39-26.93 68.74-26.93 28.36-68.2 28.36h-23.28v176.98q0 77.29-54.7 130.07-54.7 52.77-132.35 52.77H138.67ZM322.73-386q55.46 0 95.3-30.23 39.84-30.23 39.84-81.63 0-31.37-16.97-58.13-16.98-26.75-46.36-26.75-18.67 0-33.23 15.06-14.57 15.06-14.57 34.12H295.9q0-39.9 29.98-70.13 29.99-30.23 72.54-30.23 48.98 0 79.81 39.71 30.82 39.72 30.82 94.08 0 33.31-14.9 63.04-14.89 29.73-41.56 51.09h81.13q32.55 0 55.31-21.35 22.77-21.36 22.77-52.93v-57.86q0-88.7-61.25-150.36-61.24-61.65-149.41-61.65-88.05 0-149.67 58.5-61.62 58.51-61.62 142.47 0 58.9 38.69 101.04Q267.24-386 322.73-386Zm-122.5 156.92h402.95q55.76 0 94.83-38.09t39.07-93.5V-529.8q0-21.45 14.01-40.27 14.01-18.83 38.32-18.83h16.64q18.82 0 34.13-13.28 15.31-13.29 15.31-32.86 0-15.06-10.02-26.24-10.01-11.18-24.78-17.46-17.41-6.77-32.49-9-15.09-2.23-29.51-2.23-40.12 0-67.92 26.67-27.8 26.67-27.8 66.4v136.62q0 52.87-37.95 89.17-37.95 36.29-91.3 36.29H360.33q-56.71 0-100.42 26.33-43.71 26.34-59.68 79.41Zm509.15-20.66Z"/></svg>