<svg xmlns="http://www.w3.org/2000/svg" height="40" viewBox="0 -960 960 960" width="40"><path d="M98.67-138.67q0-57 24-109.5t76.66-93.16q-49.07-30.54-74.87-80.84-25.79-50.31-25.79-106.5 0-121.62 85.52-207.14 85.53-85.52 209.16-85.52 70.32 0 130.32 30.5T630.33-698q22.34-39.33 60.07-59.83 37.73-20.5 83.97-20.5 68.96 0 120.63 36.16 51.67 36.17 51.67 93.76 0 49.67-33.08 84.54Q880.5-529 830-529h-8.67v178q0 89-62.77 150.67-62.78 61.66-152.23 61.66H98.67Zm210.47-254q51.55 0 89.37-32.66 37.82-32.67 37.82-79.19 0-25.48-13-43.65-13-18.16-33.66-18.16-16.37 0-27.85 13-11.49 13-11.49 29h-83.66q0-50.67 35.95-88.34 35.96-37.66 88.87-37.66 54.37 0 91.61 41 37.23 41 37.23 101 0 26.9-10.66 57.78Q499-419.67 479-392.67h56q27.81 0 48.07-18.91 20.26-18.92 20.26-47.42v-62.73q0-90.19-60.99-152.9-60.99-62.7-148.8-62.7-88.4 0-149.64 60.75-61.23 60.76-61.23 147.91 0 56.34 36.66 96.17t89.81 39.83Zm-104.81 170h403.98q54.69 0 91.86-36.89 37.16-36.9 37.16-91.44v-177q0-32.33 20.17-58.67Q777.67-613 813-613h12.57q14.43 0 25.76-10.15 11.34-10.15 11.34-25.1 0-11.08-7.32-20.08-7.32-9-19.02-14-17.66-6-32.66-9-15-3-29.34-3-36.9 0-61.95 25.39-25.05 25.39-25.05 61.27V-459q0 63.71-44.84 107.02-44.84 43.31-107.49 43.31H347q-48.51 0-85.42 21.34-36.91 21.33-57.25 64.66Zm523-10.66Z"/></svg>