<svg xmlns="http://www.w3.org/2000/svg" height="20" viewBox="0 -960 960 960" width="20"><path d="M109-158q0-64 24.5-115.5T202-359q-44-24-68.5-70T109-530q0-120.89 83.5-205.44Q276-820 394-820q73 0 133.5 32.5T623-696q20-25 52-39t72-14q75 0 127.5 37.5T927-617q0 51-33.79 85.5T812-497h-11v135q0 85-59.65 144.5T596-158H109Zm208.24-262q44.76 0 76.26-28.59 31.5-28.6 31.5-70.91 0-17.5-8.41-29T394.93-560q-12.93 0-21.43 12t-8.5 27h-97q0-56.42 37.82-96.71Q343.65-658 396.75-658q53.25 0 89.75 40t36.5 97q0 31.31-9.5 59.15Q504-434 486-412h39q23.5 0 39.25-14.5T580-460v-70q0-80.19-53.5-136.09Q473-722 395.47-722 317-722 262.5-666.2 208-610.39 208-530.34q0 45.34 31.77 77.84t77.47 32.5Z"/></svg>