<svg xmlns="http://www.w3.org/2000/svg" height="24" viewBox="0 -960 960 960" width="24"><path d="M121.87-161.87q0-57.13 25-106.81 25-49.69 68.5-82.93-43.24-27-68.37-73.84-25.13-46.83-25.13-98.48 0-115.9 81.23-194.8t197.73-78.9q66.93 0 125.53 30.12 58.6 30.12 97.6 83.1 21-33.76 55.34-53.64 34.35-19.88 75.3-19.88 63.94 0 111.95 33.53 48.02 33.53 48.02 89.07 0 47.11-32.21 79.81-32.2 32.69-77.9 32.69h-6.33v162.22q0 83.45-58.27 141.1-58.27 57.64-141.21 57.64H121.87Zm199.74-239.59q48.78 0 83.54-36.06 34.76-36.07 34.76-78.83 0-22.8-10.98-32.13-10.98-9.32-25.56-9.32-18.79 0-30.21 11.45-11.42 11.45-11.42 28.02h-80.98q0-50.13 35.08-85.41 35.08-35.28 85.72-35.28 49.18 0 84.37 34.51 35.2 34.51 35.2 87.68 0 29.48-10.9 60.04-10.9 30.55-29.69 55.33h56.73q25.82 0 43.32-17.01t17.5-41.79v-58.72q0-82.06-57.65-139.74-57.65-57.69-139.61-57.69-82.5 0-140.12 55.11-57.62 55.1-57.62 137.32 0 49.02 34.38 85.77 34.38 36.75 84.14 36.75Z"/></svg>