<svg xmlns="http://www.w3.org/2000/svg" height="20" viewBox="0 -960 960 960" width="20"><path d="M119-168q0-62.5 25-112.25T211.5-363q-43-23-67.75-70T119-533.45q0-117.44 81.09-196.74 81.09-79.31 196.12-79.31 72.79 0 131.79 32 59 32 93 89.5 19-24 49.25-38t68.52-14q72.35 0 122.79 36.24Q912-667.52 912-612.7q0 49.2-31.83 82.2t-77.17 33h-12V-365q0 82.14-57.75 139.57Q675.5-168 592.5-168H119Zm202.69-252.5q44.27 0 75.54-27.95Q428.5-476.4 428.5-518q0-17.5-8.87-29.25T396.93-559q-13.16 0-21.79 11.71-8.64 11.71-8.64 26.29h-92q0-53.92 36.59-92.46Q347.68-652 398.98-652q51.52 0 87.02 39 35.5 39 35.5 93.5 0 31.31-10 58.4-10 27.1-27.5 48.6h40.43q24.07 0 39.82-14.75T580-460.5v-67.52q0-79.01-52.98-133.75-52.97-54.73-129.05-54.73-77.39 0-131.18 52.05Q213-612.39 213-533.84q0 43.84 31.77 78.59t76.92 34.75ZM238.5-261h357.93q42.4 0 72.49-29.17Q699-319.35 699-365.2V-494q0-40 30.75-67.75t67.75-27.75H791q9 0 18.5-6.63 9.5-6.62 9.5-15.29 0-8.79-5.07-15.19-5.07-6.39-13.43-7.89-16.5-5-31.75-8.25T738.8-646q-27.9 0-47.35 19.65Q672-606.7 672-578.5v118q0 57.5-43.09 101.25T523.5-315.5H354.52q-37.02 0-69.27 14.75Q253-286 238.5-261Zm458-2Z"/></svg>