<svg xmlns="http://www.w3.org/2000/svg" height="40" viewBox="0 -960 960 960" width="40"><path d="M150.67-189.67q0-55 29.33-99.16 29.33-44.17 83-68.84-53.67-16.66-83-64.66t-29.33-107q0-100.19 73.33-170.1 73.33-69.9 179.68-69.9 73.99 0 133.49 34.66 59.5 34.67 89.16 98.34 9-43.67 44.79-68.67 35.78-25 83.04-25 52.51 0 96.51 25.83 44 25.84 44 73.37 0 37.76-25.17 64.11-25.17 26.36-63.5 26.36h-27.67v176.66q0 74-52.33 124t-126.33 50h-449ZM326.33-384q57.03 0 97.52-29.5 40.48-29.5 40.48-82.36 0-33.14-18.16-62.47Q428-587.67 396-587.67q-19.82 0-35.08 15.81-15.25 15.81-15.25 35.53h-41q0-36.67 28.12-64.67t67.54-28q47.53 0 76.43 39.33 28.91 39.34 28.91 92 0 35.24-16.17 64.62-16.17 29.38-44.83 49.05h88.66q33.06 0 57.03-22t23.97-54.67v-56.88Q614.33-606 553-667q-61.33-61-149-61-88.95 0-150.47 57.33Q192-613.33 192-529.33q0 59.66 39.48 102.5Q270.96-384 326.33-384Z"/></svg>