<svg xmlns="http://www.w3.org/2000/svg" height="24" viewBox="0 -960 960 960" width="24"><path d="M84.65-124.65q0-64.44 21.48-120.53 21.48-56.1 70.76-93.86-45.76-28.76-69-78.5-23.24-49.74-23.24-104.7 0-129.89 89.44-221.5 89.44-91.61 218.18-91.61 70.73 0 133.09 29.74t104.12 86.74q22.76-35.52 61.78-54.14 39.01-18.62 85.05-18.62 71.99 0 129.64 38.7 57.64 38.69 57.64 104.02 0 55.19-36.05 93.91t-92.67 38.72h.48v166.24q0 94-66.22 159.69-66.22 65.7-160.93 65.7H84.65Zm223.8-279.83q47.46 0 81.29-32.04 33.83-32.05 33.83-73.83 0-19.98-8.89-32.07-8.88-12.1-22.64-12.1-13.82 0-22.43 13T361-512.28H253.85q0-61.2 40.07-105.92 40.08-44.71 99.6-44.71 57.72 0 98.08 43.19 40.36 43.2 40.36 107.44 0 25.92-7.88 54.72-7.88 28.8-25.41 53.08h31.61q25.42 0 43.21-15.46 17.79-15.47 17.79-39.06v-62.72q0-86.76-57.5-146-57.5-59.24-141.5-59.24-83.44 0-141.34 59.24-57.9 59.24-57.9 145.48 0 49 33.5 83.38 33.5 34.38 81.91 34.38Zm-85.69 171.44h388.67q49.61 0 82.57-33.64 32.96-33.64 32.96-83.36v-165q0-42.68 24.57-76.16 24.58-33.47 69.86-33.47h7.76q10.28 0 18.17-7.04 7.88-7.03 7.88-16.94 0-7.98-5.04-13.78-5.04-5.81-13.25-8.81-17-6-31.57-9t-28.83-3q-32.83 0-54.83 21.88-22.01 21.88-22.01 53.64V-459q0 68.45-49.6 115.68-49.61 47.23-119.79 47.23h-180q-43.76 0-75.5 14.24-31.74 14.24-52.02 48.81Zm504.67.71Z"/></svg>