<svg xmlns="http://www.w3.org/2000/svg" height="40" viewBox="0 -960 960 960" width="40"><path d="M119.97-159.97q0-53.65 26.59-102.69 26.58-49.03 75.24-86.02-47.9-28.74-74.87-77.76-26.96-49.02-26.96-103.67 0-113.59 80.83-191.75t197.68-78.16q68.12 0 125.89 30.95 57.76 30.95 102.76 91.27 20.67-38.1 55.46-59.39 34.78-21.3 78.69-21.3 66.37 0 111.53 33.55t45.16 84.53q0 45.43-30.9 76.68-30.89 31.25-74.73 31.25h-12.15v175.73q0 82.11-58.29 139.44-58.28 57.34-140.9 57.34H119.97ZM316.76-391.3q52.6 0 90.7-34.23 38.09-34.22 38.09-81.69 0-27.08-14.26-43.74-14.26-16.67-35.44-16.67-18.96 0-32.04 11.83-13.07 11.84-13.07 28.49h-68.36q0-44.99 33.26-76.95 33.25-31.96 80.32-31.96 49.44 0 83.73 36.48 34.3 36.48 34.3 89.27 0 30.47-12.32 61.38-12.32 30.92-33.26 57.79h70.22q28.11 0 48.28-19.86 20.16-19.87 20.16-48.32v-60.83q0-87.41-60.98-149.26-60.98-61.86-147.61-61.86-87.84 0-148.96 58.02-61.11 58.01-61.11 143.1 0 56.51 37.04 97.76 37.05 41.25 91.31 41.25Z"/></svg>