<svg xmlns="http://www.w3.org/2000/svg" height="48" viewBox="0 -960 960 960" width="48"><path d="M102.8-142.8q0-54.72 25.86-105.84 25.86-51.12 79.38-93.01-50.76-30.87-78-81.88-27.24-51.02-27.24-108.71 0-118.02 84.12-201.61 84.12-83.58 206.37-83.58 70.47 0 129.83 31.23 59.36 31.24 108.12 96.24 21.76-40.52 58.93-62.26 37.18-21.74 84.56-21.74 70.9 0 118.68 36.22 47.79 36.22 47.79 88.81 0 48.35-32.39 81.26-32.39 32.91-78.61 32.91h-12.77v184q0 87.48-61.85 147.72-61.86 60.24-148.86 60.24H102.8Zm205.46-244.44q54.04 0 93.65-32.02 39.61-32.02 39.61-81.78 0-27-14.95-48.86-14.96-21.86-38.81-21.86-17.49 0-30.12 13.14Q345-545.47 345-529.76h-73.72q0-46.48 34.43-81.22 34.42-34.74 84.05-34.74 53.76 0 89.62 41.1 35.86 41.1 35.86 98.86 0 28.81-12 60.02-12 31.22-32.76 58.5h66.28q28.58 0 50.29-20.41 21.71-20.42 21.71-51.23v-63.68q0-91.44-62.5-156.18-62.5-64.74-152.5-64.74-91.18 0-154.21 61.6t-63.03 149.64q0 60.24 38.22 102.62t93.52 42.38Z"/></svg>