<svg xmlns="http://www.w3.org/2000/svg" height="48" viewBox="0 -960 960 960" width="48"><path d="M172-211q0-50 31.5-90.25t84-62.75Q234-380 203-425.5t-31-103.73q0-91.77 68.57-155.52 68.56-63.75 167.93-63.75 71 0 128.5 35.75T624-614q7.5-44.5 41.28-70.25T743.74-710q49.23 0 86.74 22.24Q868-665.52 868-624.53q0 32.67-22.75 55.35T790-546.5h-33V-369q0 67.03-47.48 112.52Q662.05-211 595.5-211H172Zm161.25-169.5q59.25 0 100.75-32.38 41.5-32.37 41.5-87.45 0-35.67-20.06-63.67-20.05-28-53.44-28-22.5 0-40.5 14.36-18 14.35-18 35.64h-22q0-30 25.13-51t57.73-21q42.14 0 67.64 33.55 25.5 33.56 25.5 78.96 0 38.49-18.25 69.42T430-380.5h109.48q33.52 0 57.52-23.25t24-57.7v-55.05q0-87.34-62.77-148.67-62.77-61.33-149.73-61.33-89.5 0-152 57.25T194-529.5q0 62.5 40.5 105.75t98.75 43.25Z"/></svg>