<svg xmlns="http://www.w3.org/2000/svg" height="40" viewBox="0 -960 960 960" width="40"><path d="M90.67-130.67q0-61 25.66-114.66 25.67-53.67 76-93.7-48.33-29.64-75-80.5-26.66-50.87-26.66-110.14 0-123.85 87-212.09 87-88.24 214.01-88.24 71.32 0 132.82 31.5t107.17 93.83Q653-742 690.95-763.33q37.95-21.34 86.9-21.34 78.82 0 127.98 39.84Q955-705 955-650.46q0 52.03-35.08 87.58-35.09 35.55-82.59 35.55H830V-349q0 91.67-64.83 155-64.84 63.33-155.17 63.33H90.67Zm216-263.33q51.69 0 89.01-30Q433-454 433-502.86 433-525 420.3-545q-12.71-20-32.63-20-15.15 0-26.25 12.95-11.09 12.95-11.09 29.38h-88.66q0-53.66 37.45-93Q336.58-655 389.67-655q57.15 0 94.91 44.33 37.75 44.34 37.75 104 0 30.9-10.5 59.79Q501.33-418 482.67-394h50.66q27.39 0 47.86-18.43 20.48-18.43 20.48-46.24v-64.54q0-89.46-60.84-153.12Q480-740 392-740q-87.95 0-149.97 61.28Q180-617.45 180-529.67q0 57 36.65 96.34Q253.29-394 306.67-394Z"/></svg>