<svg xmlns="http://www.w3.org/2000/svg" height="24" viewBox="0 -960 960 960" width="24"><path d="M160-199.23q0-52.92 29.88-96 29.89-43.08 77.2-66.31-49.39-18-78.23-62.61Q160-468.77 160-524.62q0-98.3 71.5-166.84T406.92-760q69.85 0 128.2 33.96 58.34 33.96 88.34 92.58 11.23-40.39 45.19-64.62 33.97-24.23 77.27-24.23 51.46 0 92.77 25.31Q880-671.69 880-625.46q0 36.23-26.08 61.92-26.07 25.69-62.3 25.69h-24.7v170.16q0 70.92-50.42 119.69-50.42 48.77-121.12 48.77H160Zm171.54-188.46q55.38 0 94.23-35.04t38.85-84.96q0-32.46-16.77-53.16-16.77-20.69-43.08-20.69-22.31 0-38.15 13.81-15.85 13.81-15.85 33.88h-40q0-36.15 27.69-61.92 27.69-25.77 66.39-25.77 43.61 0 71.69 33t28.08 80.85q0 35.92-16 67.27-16 31.34-43.7 52.73h94.31q30.39 0 52.12-21.23 21.73-21.23 21.73-51.85v-56.15q0-84.54-60.43-143.81Q492.23-720 406.92-720q-87.07 0-147 56.96Q200-606.08 200-524.62q0 57.16 37.96 97.04 37.96 39.89 93.58 39.89Z"/></svg>