<svg xmlns="http://www.w3.org/2000/svg" height="20" viewBox="0 -960 960 960" width="20"><path d="M134.87-183.87q0-55.63 24.5-102.56 24.5-46.94 68.5-80.18-43.24-24-68.12-67.34-24.88-43.33-24.88-94.53 0-110.23 77.41-187.94 77.42-77.71 187.05-77.71 68.43 0 127.03 32.12 58.6 32.12 93.6 89.6 20-25.76 50.09-40.14 30.1-14.38 64.78-14.38 63.58 0 112.66 31.79t49.08 86.51q0 44.91-30.75 75.61-30.74 30.69-74.36 30.69h-16.33v132.72q0 77.39-54.32 131.57-54.33 54.17-131.66 54.17H134.87ZM325.6-416.96q46.29 0 78.55-34.3t32.26-75.09q0-21.3-9.93-29.38-9.93-8.07-23.18-8.07-17.5 0-28.28 11.23-10.78 11.24-10.78 26.24h-77.98q0-48.04 33.64-81.87 33.64-33.82 82.17-33.82 47.17 0 79.86 32.01 32.7 32.01 32.7 83.68 0 29.79-11.4 61.44t-31.69 55.93h60.31q22.74 0 38.49-15.26 15.75-15.26 15.75-36.54v-67.72q0-77.91-53.88-132.67-53.88-54.76-131.42-54.76-78.46 0-132.58 54.66-54.12 54.66-54.12 132.43 0 46.86 32.14 79.36 32.15 32.5 79.37 32.5Z"/></svg>