<svg xmlns="http://www.w3.org/2000/svg" height="48" viewBox="0 -960 960 960" width="48"><path d="M104-144q0-54 25.5-105t79.5-93q-51-31-78-82t-27-108q0-117.79 84-200.89Q272-816 393.52-816 464-816 523-785q59 31 108 96 22-41 59.17-62.5 37.18-21.5 84.07-21.5 68.76 0 117.26 35.5t48.5 88.81q0 48.13-32 80.91Q876-535 829-535h-13v184q0 87-61.5 147T606-144H104Zm204.5-243q54.04 0 93.77-32.5T442-501.28q0-27.72-15-49.22T388-572q-17.73 0-30.36 13.21Q345-545.58 345-530h-73q0-46 34.19-80.5Q340.37-645 390-645q53.29 0 89.15 40.5Q515-564 515-506q0 27.85-12 59.43Q491-415 470-387h67q28.58 0 50.29-20.5T609-459v-63.32q0-91.68-62.5-156.18T394-743q-91.42 0-154.21 61.5Q177-620 177-532q0 60 38.22 102.5T308.5-387Z"/></svg>