<svg xmlns="http://www.w3.org/2000/svg" height="24" viewBox="0 -960 960 960" width="24"><path d="M110.78-150.78q0-60.72 25-112.36t68.5-85.21q-43.56-27-68.53-74.98-24.97-47.97-24.97-101.25 0-120.46 83.71-202.3 83.71-81.84 203.89-81.84 69.05 0 128.47 30.28 59.41 30.29 98.41 83.92 21-33.44 56.16-53.15 35.17-19.72 78.4-19.72 68.83 0 118.31 35.98 49.48 35.97 49.48 92.49 0 49.72-33.39 84.05-33.4 34.33-80.96 34.33h-4.04v163.19q0 86.76-60.56 146.66-60.55 59.91-147.07 59.91H110.78Zm207.36-251.98q48.27 0 82.58-33.62 34.3-33.62 34.3-77.03 0-21.18-10.33-31.97-10.32-10.79-24.91-10.79-16.83 0-27.27 11.77-10.44 11.78-10.44 28.36h-89.14q0-53.72 36.88-91.78 36.87-38.05 89.46-38.05 51.8 0 88.62 37.93 36.83 37.94 36.83 93.4 0 30.13-10.09 59.05-10.09 28.92-27.89 52.73h47.6q26.14 0 43.64-16.69 17.5-16.68 17.5-40.48v-59.43q0-83.31-57.61-141.48-57.6-58.18-139.33-58.18-82.73 0-140.4 55.6-57.66 55.59-57.66 138.79 0 48.37 34.22 85.12 34.21 36.75 83.44 36.75ZM224.5-240.48h378.72q48.12 0 82.21-33.92 34.09-33.93 34.09-83.14v-160.37q0-38.66 22.64-65.49 22.64-26.84 57.91-26.84h8.67q11.74 0 20.46-8.16 8.71-8.15 8.71-20.35 0-9.58-6.3-16.54-6.3-6.97-15.81-10.91-14.63-5.56-28.44-8.53-13.82-2.97-27.65-2.97-31.13 0-52.83 22.66-21.71 22.65-21.71 54.58v140.53q0 61.02-44.15 103.94-44.15 42.93-106.61 42.93H358.43q-42.45 0-78.57 19.98-36.12 19.99-55.36 52.6Zm490.35-4.61Z"/></svg>