<svg xmlns="http://www.w3.org/2000/svg" height="24" viewBox="0 -960 960 960" width="24"><path d="M111.87-151.87q0-58.63 24.5-110.06 24.5-51.44 69.5-85.68-44.24-28-69.12-73.84-24.88-45.83-24.88-99.03 0-119.35 83.36-203.5t203.03-84.15q67.5 0 127.6 30.62 60.1 30.62 100.1 85.1 22-34.76 58.09-54.64 36.1-19.88 78.78-19.88 66.58 0 116.66 34.79t50.08 92.51q0 48.91-33.91 83.11-33.91 34.19-82.2 34.19h-5.33v164.72q0 86.41-60.17 146.08-60.18 59.66-145.81 59.66H111.87Zm205.55-249.09q49.58 0 84.29-36.7 34.7-36.71 34.7-80.19 0-22.8-10.52-31.88-10.52-9.07-24.52-9.07-18.57 0-29.85 11.73-11.28 11.74-11.28 28.74h-85.98q0-52.63 36.32-89.66 36.31-37.03 88.75-37.03 50.91 0 87.1 35.51 36.2 35.51 36.2 91.18 0 29.48-10.4 60.79-10.4 31.3-29.69 56.58h55.31q25.24 0 42.74-16.76 17.5-16.76 17.5-42.04v-60.6q0-83.84-58.43-142.69-58.43-58.86-141.33-58.86-84.1 0-142.17 58.86-58.07 58.85-58.07 142.57 0 50.52 34.38 85.02 34.38 34.5 84.95 34.5ZM221-238.09h381.87q49.6 0 84.32-34.36 34.72-34.36 34.72-85.16v-164.24q0-37.39 22.44-62.04 22.43-24.65 58.39-24.65h11.8q13.05 0 20.93-8.94 7.88-8.93 7.88-22.09 0-10.34-6.6-17.86-6.6-7.53-16.97-11.29-14.48-5.24-28.71-8.62-14.24-3.38-28.17-3.38-32.83 0-55.71 23.14-22.89 23.15-22.89 55.91v141.91q0 60.91-42.89 102.97-42.89 42.05-103.56 42.05h-180q-43.76 0-79.78 20.54-36.03 20.55-57.07 56.11Zm497.11-4.56Z"/></svg>