<svg xmlns="http://www.w3.org/2000/svg" height="40" viewBox="0 -960 960 960" width="40"><path d="M140-179.62q0-51.89 28.55-97.69 28.55-45.79 77.94-76.97-49.41-24.28-77.95-70.83Q140-471.66 140-527.59q0-105.34 76.18-178.87Q292.35-780 401.97-780q69.42 0 127.39 32.77t96.77 93.95q16.2-40.67 50.93-63.73 34.73-23.07 78.79-23.07 58.71 0 101.43 29.03Q900-682.02 900-634.2q0 40.14-28.17 68.32-28.17 28.19-68.06 28.19h-20.31v176.15q0 76.15-54.07 129.04-54.07 52.88-130.62 52.88H140Zm182.8-207.05q55.28 0 94.63-34.94 39.34-34.95 39.34-85.06 0-30.95-16.32-50.91-16.32-19.96-41.35-19.96-21.15 0-36.36 12.72-15.2 12.73-15.2 31.54h-50.26q0-39.28 30.02-66.9 30.01-27.61 71.83-27.61 46.31 0 77.1 34.35 30.8 34.36 30.8 84.88 0 32.87-14.45 64.79-14.45 31.92-39.79 57.1h87.24q30.03 0 51.45-21.21 21.42-21.22 21.42-52.09v-58.9q0-87.51-61.79-149.19-61.78-61.68-149.44-61.68-88.36 0-149.89 59.13-61.52 59.13-61.52 143.02 0 58.95 38.2 99.94 38.2 40.98 94.34 40.98Zm-121.85 156.8h397.82q55.53 0 94.98-37.98 39.46-37.97 39.46-93.65v-172.73q0-22.89 15.25-38.31 15.26-15.41 38.08-15.41h17.6q18.96 0 32.28-13.37t13.32-33.08q0-14.98-10.01-26.41-10.01-11.42-24.55-17.4-15.87-6.05-30.58-8.83-14.71-2.78-28.75-2.78-38.51 0-65.61 27.14-27.09 27.14-27.09 65.4v137.31q0 52.25-36.22 87.9-36.22 35.66-86.9 35.66h-180.7q-52.61 0-96.25 28.67-43.64 28.66-62.13 77.87Zm509.74-19.67Z"/></svg>