<svg xmlns="http://www.w3.org/2000/svg" height="20" viewBox="0 -960 960 960" width="20"><path d="M131-179.62q0-58.46 23.69-106 23.7-47.53 73.85-79.15-47.69-20-72.62-66.81Q131-478.38 131-532.31q0-110.47 77.78-188.08Q286.55-798 397.46-798q72.93 0 132.85 32.73 59.92 32.73 91.92 95.04 15.62-29.69 47.8-44.81 32.17-15.11 70.31-15.11 60.35 0 113.5 30.65Q907-668.85 907-611.18q0 45.19-28.83 76.22-28.82 31.04-75.86 31.04h-19.85v137.07q0 77.38-55.61 132.31-55.61 54.92-135.16 54.92H131Zm192.48-234.23q47.01 0 80.42-28.86 33.41-28.86 33.41-70.64 0-23.73-11.3-40.57-11.29-16.85-30.7-16.85-14.62 0-24.78 13.61-10.15 13.6-10.15 29.24h-76.99q0-48.5 33.17-84.67 33.16-36.18 82.27-36.18 50.4 0 83.44 38.5t33.04 95.42q0 28.77-11.5 58.04t-34.35 50.96h55.16q25.8 0 43.86-16.19 18.06-16.2 18.06-38.34v-67.6q0-81.31-53.95-136.66Q478.64-720 398.76-720q-79.42 0-134.09 54.13T210-532.65q0 48.42 32.93 83.61 32.92 35.19 80.55 35.19Zm-93.4 156.23h365.61q46.93 0 78.35-30.48 31.42-30.48 31.42-78.75v-132.61q0-30.77 25.16-56.11 25.15-25.35 63.84-25.35h-2.22q12.99 0 24.88-8.79Q829-598.49 829-610.17q0-11.16-6.55-19.19-6.55-8.02-17.22-10.18-18.38-5.38-33.85-8.5-15.46-3.11-30.92-3.11-32.97 0-54.94 21.18-21.98 21.19-21.98 52.59v117q0 55.17-40.58 95.85-40.58 40.68-99.34 40.68h-168q-44.36 0-77.3 14.16-32.94 14.15-48.24 52.07Zm464.23-7.3Z"/></svg>