<svg xmlns="http://www.w3.org/2000/svg" height="40" viewBox="0 -960 960 960" width="40"><path d="M160-199.23q0-51.13 30.6-93.72 30.6-42.59 80.37-67.61-51.33-18.82-81.15-64.57Q160-470.87 160-527.85q0-97.18 71.35-164.66Q302.69-760 405.95-760q70.82 0 128.6 34.37t90.04 96.07q11.08-42.34 45.04-67.13 33.96-24.8 78.4-24.8 52.43 0 92.2 25.05Q880-671.38 880-627.41q0 35.26-25.18 60.31-25.18 25.05-60.28 25.05h-27.62v175.64q0 70.46-50.09 118.82t-120.62 48.36H160Zm169.59-184.1q57.18 0 97.56-33.73 40.39-33.73 40.39-86.27 0-33.9-18.31-58.16-18.31-24.25-47.69-24.25-22.31 0-39.05 13.88-16.75 13.89-16.75 33.96H311.9q0-33.89 26.97-57.79 26.98-23.9 63.72-23.9 43.62 0 71.2 33.72 27.59 33.72 27.59 81.41 0 36.08-16.56 67.42-16.56 31.35-45.23 53.71h99.79q32.03 0 54.89-22.44t22.86-54.85v-56.46q0-87.3-61.89-148.19-61.88-60.88-149.29-60.88-88.67 0-150.39 57.6-61.71 57.6-61.71 140.7 0 60.23 39.34 102.38 39.35 42.14 96.4 42.14Z"/></svg>