<svg xmlns="http://www.w3.org/2000/svg" height="20" viewBox="0 -960 960 960" width="20"><path d="M171.08-219.69q0-50.35 27.5-90.83T270.31-378q-44.89-18.19-72.06-61.31-27.17-43.11-27.17-93.79 0-95.25 68.76-159.88 68.77-64.63 166.74-64.63 68.42 0 124.63 33.38 56.21 33.38 85.41 91.46 13.61-28.07 41.07-44.59 27.46-16.52 60.08-16.52 52.11 0 94.61 25.09 42.5 25.1 42.5 71.9 0 36.5-24.86 60.98-24.86 24.49-59.98 24.49h-27.66v133.15q0 66-47.04 112.29-47.05 46.29-113.38 46.29H171.08Zm166.4-190.66q48.94 0 83.34-33.84 34.41-33.84 34.41-77.04 0-26.62-13.68-40.17-13.67-13.56-33.57-13.56-20.17 0-33.73 11.82-13.56 11.81-13.56 28.22h-47.96q0-36.48 27.72-62.24 27.73-25.76 67.16-25.76 41.11 0 68.35 28.71 27.23 28.71 27.23 73.48 0 32.77-14.9 64.48-14.91 31.71-39.45 53.9h84.31q25.85 0 43.62-17.77 17.77-17.76 17.77-41.75v-63.48q0-76.36-54.41-130.33-54.41-53.97-132.26-53.97-78.72 0-133.27 50.65-54.56 50.64-54.56 125.43 0 49.3 33.92 86.26 33.93 36.96 83.52 36.96ZM231-267.65h351.9q46.18 0 79.35-31.1 33.17-31.1 33.17-79.71v-128.19q0-23.1 21.29-37.42 21.29-14.31 47.4-14.31h1.44q15.99 0 28.68-11.16t12.69-26.45q0-13.99-8.48-24.08-8.48-10.08-21.59-13.74-15.08-4.38-29.65-7.75-14.57-3.36-29.51-3.36-31.83 0-54.01 22.69-22.18 22.68-22.18 54.58v105.77q0 44.4-31.64 77.95-31.64 33.54-77.59 33.54H367.56q-43.76 0-82.26 22.31-38.49 22.31-54.3 60.43Zm446.35-14.93Z"/></svg>