<svg xmlns="http://www.w3.org/2000/svg" height="48" viewBox="0 -960 960 960" width="48"><path d="M161.15-200.38q0-50 30.58-91.99 30.58-41.98 82.73-68.17-52.69-19.11-83-65.54-30.31-46.42-30.31-103.95 0-96.05 71.05-162.62 71.05-66.58 173.99-66.58 70.31 0 127.64 34.71 57.32 34.71 91.09 97.83 10.5-43.58 44.46-68.46 33.95-24.89 78.51-24.89 52.81 0 91.6 24.55 38.78 24.54 38.78 67.15 0 35.1-24.31 59.39-24.3 24.3-59 24.3h-29.19v178.53q0 69.92-49.67 117.83t-119.45 47.91h-435.5Zm168.17-181.27q58.22 0 99.37-32.9 41.16-32.89 41.16-86.71 0-34.39-19.19-60.43t-50.51-26.04q-21.92 0-39.11 13.78-17.19 13.78-17.19 34.03h-30.2q0-32.43 26.58-55.21 26.57-22.79 61.83-22.79 43.52 0 70.75 34.01 27.23 34.02 27.23 80.81 0 36.64-17.16 67.8-17.15 31.16-46.19 53.65h103.14q32.48 0 55.9-22.85t23.42-56.49v-56.43q0-87.92-62.76-149.77-62.77-61.85-150.2-61.85-89.73 0-152.29 57.71-62.55 57.71-62.55 141.02 0 62.04 40.03 105.35 40.04 43.31 97.94 43.31Z"/></svg>