<svg xmlns="http://www.w3.org/2000/svg" height="40" viewBox="0 -960 960 960" width="40"><path d="M98.67-138.67q0-60.5 26.33-113.08t75.5-90.62q-48.41-29.17-75.12-80.17-26.71-51-26.71-109.1 0-121.69 85.5-205.94 85.51-84.25 209.7-84.25 71.46 0 131.13 31.33t104.67 93.17q20.66-37.34 57.1-58.5Q723.21-777 771.44-777q76.25 0 124.07 38.24 47.82 38.24 47.82 91.51 0 50.24-33.2 84.66-33.21 34.42-80.8 34.42H822v177.5q0 88.79-62.79 150.4-62.8 61.6-152.38 61.6H98.67Zm211.46-255.16q51.83 0 88.93-29.54 37.11-29.54 37.11-78.02 0-23.78-12.9-43.36-12.89-19.58-34.27-19.58-15.41 0-26.45 12.3Q351.5-539.72 351.5-523h-84.33q0-51.83 36.67-89.25 36.68-37.42 87.81-37.42 54.48 0 91.83 43.21 37.35 43.2 37.35 100.3 0 31.99-10.66 59.86-10.67 27.87-29.84 52.47h52.47q28.87 0 49.03-19.18Q602-432.19 602-458.47v-62.88q0-89.08-60.97-152.12-60.97-63.03-146.99-63.03-88.13 0-149.42 58.95-61.29 58.95-61.29 145.72 0 55.5 36.69 96.75 36.68 41.25 90.11 41.25ZM205.5-223.33h403.6q53.4 0 90.48-36.74 37.09-36.75 37.09-90.79V-525q0-35.58 22.25-61.71 22.25-26.12 52.64-26.12h10.3q13.81 0 25.31-10.1 11.5-10.09 11.5-24.05 0-10.85-7.15-19.62-7.14-8.76-18.69-13.57-17.16-6.66-32.41-9.08-15.25-2.42-28.62-2.42-35.95 0-60.21 24.84-24.26 24.83-24.26 60.65v147.35q0 62.83-45.42 106.25-45.43 43.41-108.91 43.41H347.52q-46.87 0-85.69 23.75-38.83 23.75-56.33 62.09Zm520.33-11.34Z"/></svg>