<svg xmlns="http://www.w3.org/2000/svg" height="48" viewBox="0 -960 960 960" width="48"><path d="M102.8-142.8q0-54.72 25.86-105.84 25.86-51.12 79.38-93.01-50.37-31.18-77.81-81.9-27.43-50.71-27.43-108.69 0-118.48 83.97-201.84 83.97-83.35 206.5-83.35 70.49 0 129.85 31.23 59.36 31.24 108.12 96.24 21.76-40.52 58.83-62.26 37.07-21.74 84.54-21.74 71.02 0 118.8 36.22 47.79 36.22 47.79 88.85 0 47.5-32.22 80.81-32.21 33.32-78.78 33.32h-12.77v184q0 87.53-61.77 147.74-61.77 60.22-148.94 60.22H102.8Zm205.87-244.44q53.74 0 93.3-32.02 39.55-32.02 39.55-81.85 0-26.93-14.95-48.79-14.96-21.86-38.81-21.86-17.03 0-29.9 12.93Q345-545.9 345-529.76h-73.72q0-46.48 34.41-81.22 34.4-34.74 84.31-34.74 53.52 0 89.38 41.1 35.86 41.1 35.86 98.86 0 28.77-12 60-12 31.24-32.76 58.52h66.28q29 0 50.5-20.5 21.5-20.49 21.5-51.14v-63.16q0-91.85-62.74-156.64-62.73-64.8-152.46-64.8-90.66 0-153.85 61.73-63.19 61.74-63.19 149.51 0 60.24 38.25 102.62 38.24 42.38 93.9 42.38ZM194.76-216.52h413.42q56.88 0 96.09-38.53 39.21-38.52 39.21-95.71v-182.76q0-29.2 19.22-52.08 19.21-22.88 48.26-22.88h14.95q15.81 0 28.69-11.81t12.88-28.39q0-12.43-8.04-22.87Q851.4-682 837.72-688q-17.76-6-33.34-9-15.57-3-29.83-3-38.92 0-65.37 26.97-26.46 26.97-26.46 64.79V-459q0 61.76-43.09 103.62-43.09 41.86-102.87 41.86h-192q-50.53 0-90.38 25.6-39.86 25.59-59.62 71.4Zm533.96-15.76Z"/></svg>