<svg xmlns="http://www.w3.org/2000/svg" height="48" viewBox="0 -960 960 960" width="48"><path d="M101.17-141.17q0-55.7 26.35-106.98t79.22-93.03q-50.05-31-77.81-81.73-27.76-50.73-27.76-109.66 0-118.85 84.06-202.83 84.06-83.99 207.7-83.99 70.5 0 130.35 31.56 59.85 31.57 108.29 96.57Q653-731.13 690-753.2q37-22.06 85.27-22.06 73.95 0 120.75 37.19 46.81 37.2 46.81 88.85 0 47.8-32.68 81.29-32.67 33.5-78.32 33.5h-12.44v184q0 88.24-62.26 148.75-62.26 60.51-149.43 60.51H101.17Zm207.09-246.4q53.97 0 93.29-31.36 39.32-31.37 39.32-81.95 0-25.86-14.89-48.21-14.89-22.34-38.55-22.34-16.7 0-29.57 12.83Q345-545.76 345-529.43h-74.7q0-47.14 34.71-82.2 34.7-35.07 84.77-35.07 54.05 0 89.92 41.92 35.87 41.91 35.87 99.35 0 30.02-12 60.79t-32.44 57.07h65.3q29 0 50.5-20.38t21.5-50.77v-63.59q0-91.58-62.73-156.7-62.74-65.12-152.46-65.12-90.48 0-153.92 61.87-63.45 61.86-63.45 149.69 0 60.57 38.24 102.79 38.25 42.21 94.15 42.21Zm-113.83 171.7h414.73q56.66 0 95.81-38.52 39.16-38.53 39.16-96.04v-182.44q0-30.83 20.2-53.54 20.19-22.72 47.93-22.72h15.1q15.34 0 28.05-12.01 12.72-12.02 12.72-27.78 0-12.33-7.65-22.71Q852.82-682 838.7-688q-17.44-6-33.34-9-15.9-3-30.06-3-39.01 0-65.31 26.8-26.29 26.81-26.29 64.63V-459q0 61.93-43.47 104.03t-103.8 42.1h-192q-50.2 0-90.38 26.41-40.18 26.42-59.62 70.59ZM729.7-231.3Z"/></svg>