<svg xmlns="http://www.w3.org/2000/svg" height="20" viewBox="0 -960 960 960" width="20"><path d="M189.15-237.38q0-49.2 30-86.41 30-37.21 75.97-59.21-47.77-13.38-76.87-56.12-29.1-42.73-29.1-95.62 0-87.07 64.22-146.03 64.21-58.96 156.28-58.96 70.35 0 126.27 35.27 55.92 35.26 80.31 95.92 8.23-31.15 35.4-49.69 27.18-18.54 61.14-18.54 46.87 0 85.93 21.46 39.07 21.46 39.07 63.22 0 31.8-21.69 52.77-21.69 20.97-52 20.97h-36.31v136.81q0 59.95-43.35 102.05-43.34 42.11-104 42.11H189.15Zm153.33-166.81q51.85 0 88.17-32.24 36.31-32.24 36.31-79.03 0-30.73-16.49-50.6-16.48-19.86-42.43-19.86-21.19 0-36.67 12.92-15.49 12.93-15.49 31.15h-28.92q0-30.03 24.36-51.51 24.36-21.49 57.93-21.49 38.69 0 62.66 28.93 23.97 28.92 23.97 70.96 0 36.23-17.3 67.56-17.31 31.32-45.89 51.21h100.19q28.62 0 48.41-19.79 19.79-19.79 19.79-46.25v-61.96q0-77.19-55.56-131.91-55.55-54.71-134.75-54.71-80.46 0-136.08 50.75-55.61 50.74-55.61 124.76 0 52.76 35.58 91.93 35.59 39.18 87.82 39.18ZM223.5-266.31h357.86q48.29 0 83.39-32.44t35.1-82.98v-128.58q0-16.2 17.82-26.08 17.83-9.88 37.06-9.88h4.36q18.99 0 34.37-13.32 15.39-13.32 15.39-31.72 0-16.44-10.22-28.22-10.21-11.78-25.44-16.59-15.65-4.76-30.54-7.75-14.89-2.98-29.77-2.98-35.04 0-59.46 24.23T629-563.81v101.54q0 39.31-28.1 69.15-28.1 29.85-68.87 29.85H371.59q-49.49 0-92.23 25.87-42.74 25.86-55.86 71.09Zm447.69-21.84Z"/></svg>