<svg xmlns="http://www.w3.org/2000/svg" height="48" viewBox="0 -960 960 960" width="48"><path d="M144-183.23q0-53.23 28.96-98.08 28.96-44.84 82.96-73.77-53.3-20.23-82.61-68.54Q144-471.92 144-530.46q0-102.4 74.77-173.97T401.99-776q72.78 0 131.78 34.08 59 34.07 93.38 98.3 12-43.3 47.64-67.88t82.53-24.58q55.68 0 99.18 27.43 43.5 27.42 43.5 74.57 0 38.9-26.23 65.91-26.23 27.02-64.77 27.02h-26.08v179.38q0 76.23-53.42 127.39-53.42 51.15-128.88 51.15H144Zm179.12-199.92q57.11 0 98-30.58Q462-444.31 462-497.44q0-32.33-18.08-60.37-18.07-28.04-49-28.04-20.03 0-35.36 15.14-15.33 15.14-15.33 33.79h-43.77q0-36.77 28.8-64.73 28.8-27.97 69.2-27.97 47.91 0 77.61 38.58 29.7 38.58 29.7 91.19 0 34.01-15.85 64.43-15.84 30.42-43 52.27h88.54q32.43 0 56.06-22.04 23.63-22.04 23.63-55.35v-57.94q0-89.37-62.11-151.56-62.12-62.19-150.58-62.19-89.88 0-152.29 58.42-62.4 58.43-62.4 143.35 0 60.77 39.76 104.04 39.75 43.27 95.59 43.27Z"/></svg>