<svg xmlns="http://www.w3.org/2000/svg" height="20" viewBox="0 -960 960 960" width="20"><path d="M200-248q0-48.5 31.5-83.75T310-386q-49.5-10.5-79.75-53T200-535.73q0-82.16 61.48-137.71Q322.96-729 411.5-729q71.5 0 127.25 36.4T616-594q5-33 32-52.75t61.77-19.75q43.72 0 80.73 19.27 37 19.28 37 58.03 0 28.97-19.79 47.84-19.78 18.86-47.21 18.86H719v139q0 56.31-41.13 95.9Q636.75-248 579.5-248H200Zm145.48-152.5q53.6 0 91.06-31.27Q474-463.05 474-512q0-33.2-18.17-56.85-18.18-23.65-47.76-23.65-21.8 0-38.43 13.59Q353-565.33 353-546h-17.5q0-26.17 22.34-45.08Q380.18-610 410.23-610q37.24 0 59.26 29.05 22.01 29.05 22.01 69.45 0 38.31-18.75 69.4Q454-411 423-392.5h109.71q30.29 0 51.29-21t21-48.95v-61.05q0-77.69-56.24-132.84-56.24-55.16-136.24-55.16-81.52 0-137.77 50.8-56.25 50.8-56.25 124.36 0 54.84 36.58 95.34t90.4 40.5ZM219-265.5h361.44q49.56 0 85.81-33.25t36.25-84.95v-128.8q0-12.06 15.75-19.28Q734-539 749.09-539h6.13Q776-539 793-553.61q17-14.62 17-34.89 0-17.91-11.25-30.7Q787.5-632 771-637.5q-16-5-31.08-7.75Q724.83-648 710-648q-36.97 0-62.73 25.15-25.77 25.15-25.77 61.35v99q0 36.25-25.97 63.87Q569.55-371 531.89-371H374.02q-52.93 0-98.23 28-45.29 28-56.79 77.5Zm448.5-26Z"/></svg>