<svg xmlns="http://www.w3.org/2000/svg" height="24" viewBox="0 -960 960 960" width="24"><path d="M140-179.62q0-54.46 27.19-101 27.2-46.53 73.35-75.15-46.69-23-73.62-67.81Q140-468.38 140-522.31q0-107.15 76.5-182.42Q293-780 403.46-780q67.93 0 126.85 32.23 58.92 32.23 93.92 88.54 16.62-37.69 51.35-59.81 34.73-22.11 76.88-22.11 57.23 0 102.38 29.15Q900-682.85 900-631.23q0 41.61-29.54 70.96-29.54 29.35-71.15 29.35h-15.85v167.07q0 77.46-54.46 130.85-54.46 53.38-131.31 53.38H140Zm185.77-214.23q52.69 0 89.62-36.76 36.92-36.77 36.92-83.24 0-28.23-13.89-42.57-13.88-14.35-34.04-14.35-21.15 0-35.07 12.65-13.93 12.66-13.93 31.2h-59.99q0-43.08 31.34-73.46 31.35-30.39 76.19-30.39 46.31 0 77.85 33 31.54 33 31.54 83.92 0 32.47-13.5 64.39t-37.35 55.61h78.16q27.69 0 47.3-19.11 19.62-19.12 19.62-47.42v-58.08q0-83.77-59.46-142.66Q487.62-720 403.46-720q-85.54 0-144.5 57.73Q200-604.54 200-522.31q0 54.08 36.23 91.27t89.54 37.19Z"/></svg>