<svg xmlns="http://www.w3.org/2000/svg" height="40" viewBox="0 -960 960 960" width="40"><path d="M110.84-150.84q0-56.59 26.48-107.14 26.48-50.56 75.35-87.99-48.23-28.84-75.03-78.79-26.8-49.96-26.8-106.01 0-117.06 82.9-197.83 82.89-80.77 202.89-80.77 69.43 0 128.01 31.12 58.58 31.11 103.58 92.08 20.66-37.77 56.16-59.01 35.49-21.24 81.25-21.24 70.61 0 116.91 35.56 46.3 35.55 46.3 87.52 0 47.59-32.01 80.15t-77.21 32.56h-10.08v176.49q0 84.93-60.24 144.12-60.25 59.18-145.8 59.18H110.84Zm202.99-241.54q52.16 0 89.93-32.22 37.77-32.22 37.77-80.12 0-25.66-13.68-43.58-13.67-17.92-34.94-17.92-17.44 0-29.64 12.1-12.21 12.1-12.21 28.66h-75.2q0-47.92 34.72-82.23 34.72-34.3 83.54-34.3 51.59 0 87.19 39.37 35.61 39.36 35.61 94 0 31.12-11.61 60.73-11.61 29.61-31.79 55.51h62.61q28.44 0 48.6-19.58 20.17-19.57 20.17-47.09v-61.91q0-87.95-60.82-150.3-60.82-62.34-147.45-62.34-87.83 0-149.12 58.38-61.28 58.37-61.28 144.26 0 56.08 36.89 97.33 36.88 41.25 90.71 41.25Z"/></svg>