<svg xmlns="http://www.w3.org/2000/svg" height="24" viewBox="0 -960 960 960" width="24"><path d="M110.78-150.78q0-60.72 25-112.36t68.5-85.21q-43.56-27-68.53-74.98-24.97-47.97-24.97-101.25 0-120.46 83.84-202.3 83.84-81.84 203.92-81.84 68.89 0 128.31 30.28 59.41 30.29 98.41 83.92 21-33.44 56.16-53.15 35.17-19.72 78.4-19.72 68.83 0 118.31 35.98 49.48 35.97 49.48 92.49 0 49.72-33.51 84.05t-80.84 34.33h-4.04v163.19q0 86.71-60.56 146.64-60.55 59.93-147.07 59.93H110.78Zm207.24-251.98q48.13 0 82.57-33.62 34.43-33.62 34.43-77.03 0-21.18-10.33-31.97-10.32-10.79-24.91-10.79-16.83 0-27.27 11.77-10.44 11.78-10.44 28.36h-89.14q0-53.72 36.88-91.78 36.87-38.05 89.46-38.05 51.8 0 88.62 37.93 36.83 37.94 36.83 93.4 0 30.13-10.09 59.05-10.09 28.92-27.89 52.73h47.6q26.14 0 43.64-16.69 17.5-16.68 17.5-40.48v-59.7q0-83.04-57.49-141.21-57.48-58.18-139.45-58.18-82.5 0-140.28 55.6-57.78 55.59-57.78 138.79 0 48.37 34.22 85.12 34.21 36.75 83.32 36.75Z"/></svg>