<svg xmlns="http://www.w3.org/2000/svg" height="24" viewBox="0 -960 960 960" width="24"><path d="M140-179q0-59 28-105.5t81-70.5q-53-16-81-65t-28-108q0-105 76-178.5T402-780q75 0 135.5 34t89.5 97q9-43 46-67t85-24q54 0 102 27.5t48 79.5q0 41-26.5 69.5T812-535h-23v174q0 76-55 129t-133 53H140Zm184-209q55 0 94-28.5t39-78.5q0-32-16.5-60T394-583q-18 0-31.5 16T349-531h-53q0-42 30-74t73-32q50 0 81 42t31 98q0 34-14.5 62T454-388h76q32 0 55.5-21t23.5-51v-58q0-88-60-148t-147-60q-88 0-148 57t-60 141q0 57 38 98.5t92 41.5Z"/></svg>