<svg xmlns="http://www.w3.org/2000/svg" height="24" viewBox="0 -960 960 960" width="24"><path d="M160-199.23q0-52.92 29.88-96 29.89-43.08 77.2-66.31-49.39-18-78.23-62.61Q160-468.77 160-524.62q0-98.3 71.5-166.84T406.92-760q69.85 0 128.2 33.96 58.34 33.96 88.34 92.58 11.23-40.39 45.19-64.62 33.97-24.23 77.27-24.23 51.46 0 92.77 25.31Q880-671.69 880-625.46q0 36.44-26.08 62.03-26.07 25.58-62.3 25.58h-24.7v170.16q0 70.75-50.42 119.61-50.42 48.85-121.12 48.85H160Zm171.54-188.46q55.45 0 94.26-35.04 38.82-35.04 38.82-84.96 0-32.46-16.77-53.16-16.77-20.69-43.08-20.69-22.31 0-38.15 13.71-15.85 13.71-15.85 33.98h-40q0-36.15 27.69-61.92 27.69-25.77 66.39-25.77 43.61 0 71.69 33t28.08 80.85q0 35.92-16 67.27-16 31.34-43.7 52.73h94.31q30.77 0 52.31-21.23 21.54-21.23 21.54-51.85v-56.15q0-84.28-60.4-143.68-60.41-59.4-146.1-59.4-86.73 0-146.66 57.15Q200-605.7 200-524.62q0 57.16 37.82 97.04 37.81 39.89 93.72 39.89ZM207.15-239.23h388.23q53.85 0 92.7-37.19 38.84-37.2 38.84-91.27v-163.23q0-20.53 13.31-33.73 13.31-13.2 33.69-13.2h18.56q19.98 0 33.75-13.81Q840-605.48 840-625.85q0-16-10.46-27.46t-26.08-17.77q-14.77-5.77-29.02-8.5-14.26-2.73-28.52-2.73-38.78 0-65.81 26.58t-27.03 64.96v130q0 47.65-33.34 80.37-33.34 32.71-80.51 32.71h-170q-54.7 0-100.08 28.81-45.38 28.8-62 79.65Zm492.47-20.62Z"/></svg>