<svg xmlns="http://www.w3.org/2000/svg" height="48" viewBox="0 -960 960 960" width="48"><path d="M119.02-159.02q0-51.91 27.38-100.62 27.38-48.71 78.62-87.58-50.24-29.61-78.12-79.72-27.88-50.11-27.88-106.26 0-112.43 80.63-190.22 80.64-77.8 197.65-77.8 68.72 0 126.07 31.37 57.35 31.37 105.35 95.35 20.5-40.26 55.51-62.26 35-22 80.38-22 67.6 0 111.33 33.55 43.73 33.56 43.73 82.27 0 44.58-30.24 75.11-30.25 30.53-73.15 30.53h-15.06v182.47q0 81.45-58.29 138.63-58.3 57.18-140.76 57.18H119.02Zm195.32-227.2q54.51 0 94.27-33.31t39.76-83.13q0-29.21-15.9-49.55-15.9-20.33-40.38-20.33-19.05 0-32.95 12.02-13.9 12.03-13.9 28.72H283.2q0-42.42 32.33-72.72 32.34-30.31 77.64-30.31 49.56 0 83.4 37.47t33.84 90.07q0 30.96-13.02 62.06-13.02 31.09-35.04 59.01h76.96q29.26 0 50.76-21.29 21.5-21.3 21.5-51.58v-61.89q0-90.08-62.65-154.02-62.65-63.93-151.62-63.93-90.5 0-153.37 59.46-62.86 59.47-62.86 145.99 0 60.26 38.38 103.76 38.38 43.5 94.89 43.5Z"/></svg>