<svg xmlns="http://www.w3.org/2000/svg" height="24" viewBox="0 -960 960 960" width="24"><path d="M100.78-140.78q0-62.22 24.5-115.61t69.5-87.96q-44.56-28-69.28-74.98-24.72-46.97-24.72-101.8 0-123.91 86.02-211 86.03-87.09 209.24-87.09 69.39 0 130.31 30.78 60.91 30.79 100.91 85.92 22-34.44 58.91-54.15 36.92-19.72 81.87-19.72 71.48 0 123.03 37.24 51.54 37.24 51.54 95.93 0 51.52-35.26 87.35-35.26 35.83-85.09 35.83h-3.04v165.69q0 89.65-62.46 151.61-62.46 61.96-151.67 61.96H100.78Zm213-261.48q48.87 0 83.31-34.26 34.43-34.26 34.43-78.39 0-21.18-9.87-31.72t-23.87-10.54q-16.61 0-26.91 12.06-10.3 12.07-10.3 29.07h-94.14q0-56.22 38.11-96.03 38.11-39.8 92.5-39.8 53.53 0 91.35 38.93 37.83 38.94 37.83 96.9 0 30.13-9.59 59.8-9.59 29.67-27.89 53.98h46.17q25.57 0 43.07-16.44 17.5-16.43 17.5-40.73v-61.7q0-84.7-58.22-144.04-58.22-59.35-141.22-59.35-84 0-142.28 59.35-58.28 59.34-58.28 144.04 0 49.87 34.22 84.37 34.21 34.5 84.08 34.5Z"/></svg>