<svg xmlns="http://www.w3.org/2000/svg" height="40" viewBox="0 -960 960 960" width="40"><path d="M162.82-202.05q0-50.73 30.38-92.62 30.39-41.89 80.81-67.02-51.13-18.74-81.16-64.65-30.03-45.91-30.03-102.48 0-96.37 70.81-162.47 70.81-66.11 173.38-66.11 69.99 0 127.35 34.35 57.36 34.34 89.67 95.74 10.41-42.43 44.1-67.04 33.69-24.6 77.39-24.6 51.76 0 91 24.54 39.25 24.53 39.25 67.82 0 35.51-24.42 59.77-24.42 24.27-59.35 24.27h-27.9v175.29q0 69.47-49.39 117.34-49.39 47.87-119.13 47.87H162.82Zm168.15-181.78q57.21 0 97.56-33.52 40.35-33.51 40.35-85.81 0-33.78-18.51-58.04-18.51-24.26-48.16-24.26-22.11 0-38.9 13.56-16.78 13.57-16.78 34h-32.44q0-33.02 26.78-56.51 26.78-23.49 62.8-23.49 43.01 0 70.33 33.51t27.32 80q0 36.4-16.87 67.5t-45.42 53.06H539.4q32.39 0 55.06-22.33t22.67-54.89v-55.96q0-85.83-61.9-146.89-61.89-61.06-148.7-61.06-88.12 0-149.7 57.13-61.57 57.12-61.57 138.64 0 60.16 39.21 102.76 39.22 42.6 96.5 42.6ZM200.24-234.49h395.28q55.84 0 96-38.51 40.15-38.51 40.15-94.38v-167.47q0-16.7 11.86-28.42 11.87-11.72 28.75-11.72H791q21.15 0 36.74-14.94 15.59-14.94 15.59-36.89 0-16.92-11.51-29.4-11.52-12.48-27.06-19.56-15.96-6.44-30.68-8.59-14.73-2.14-28.09-2.14-39.86 0-68.14 27.61-28.29 27.62-28.29 67.62v130.16q0 46.49-32.37 78.11-32.38 31.61-77.5 31.61H367.36q-56.83 0-104.07 31.56-47.24 31.56-63.05 85.35Zm499.72-25.23Z"/></svg>