<svg xmlns="http://www.w3.org/2000/svg" height="40" viewBox="0 -960 960 960" width="40"><path d="M172-211q0-50.67 31.83-91.33 31.84-40.67 81.84-62-52.34-15.67-83-60.84Q172-470.33 172-528q0-92.33 68.5-156.17Q309-748 408.33-748q71.67 0 129.34 35.33 57.66 35.34 86 97.34 8-43.34 41.5-69.17t78.16-25.83q48.67 0 86.67 22.66 38 22.67 38 64.34 0 32.33-23.33 55.5-23.34 23.16-55.67 23.16h-32v175.34q0 67-47.67 112.66Q661.67-211 594.67-211H172Zm161.67-170.33q58.33 0 99.33-33t41-87q0-35.67-19.5-62.5-19.5-26.84-51.5-26.84-23 0-40.67 14.5-17.66 14.5-17.66 35.5h-24q0-30.66 25.16-52.33 25.17-21.67 58.84-21.67 42 0 67.66 33.34Q498-548 498-502q0 38-17.83 69-17.84 31-48.5 51.67H539q33.33 0 57-23.17t23.67-56.5v-55q0-87-62-147.5T408.33-724q-88.66 0-150.5 56.83Q196-610.33 196-528q0 61 40 103.83 40 42.84 97.67 42.84Z"/></svg>