<svg xmlns="http://www.w3.org/2000/svg" height="24" viewBox="0 -960 960 960" width="24"><path d="M108-147.62q0-61.46 23.69-113.5 23.7-52.03 74.85-84.65-48.69-24-73.62-73.31Q108-468.38 108-524.31q0-119.15 84-203.42Q276-812 396.46-812q71.93 0 133.35 31.23 61.42 31.23 98.42 90.54 17.62-38.69 55.85-59.31 38.23-20.61 84.38-20.61 63.23 0 117.38 33.65Q940-702.85 940-642.23q0 49.61-32.04 83.96-32.04 34.35-83.65 34.35h-8.85v169.07q0 86.46-61.46 146.85-61.46 60.38-149.31 60.38H108Zm206.77-250.23q50.69 0 86.62-31.26 35.92-31.27 35.92-75.74 0-25.23-11.89-43.07-11.88-17.85-32.04-17.85-16.15 0-26.57 14.15-10.43 14.16-10.43 31.7h-84.99q0-53.08 35.84-92.46 35.85-39.39 88.69-39.39 54.31 0 90.85 42 36.54 42 36.54 102.92 0 28.47-10.5 57.39t-32.35 51.61h50.16q27.69 0 47.8-17.61 20.12-17.62 20.12-43.92v-61.08q0-86.77-58.46-146.16Q481.62-726 396.46-726q-85.54 0-144 58.23Q194-609.54 194-524.31q0 52.08 35.23 89.27t85.54 37.19Z"/></svg>