<svg xmlns="http://www.w3.org/2000/svg" height="40" viewBox="0 -960 960 960" width="40"><path d="M118.67-158.28q0-56.23 26.05-105.53 26.05-49.29 79.1-83.81-51-25.07-78.07-74.61-27.08-49.54-27.08-106.69 0-113.12 80.92-192.76 80.92-79.65 197.73-79.65 71.73 0 131.54 32.1 59.81 32.1 99.93 94.95 17.21-41 54.22-63.23 37.02-22.23 83.66-22.23 62.56 0 111.28 32.19 48.71 32.19 48.71 85.88 0 45.55-30.08 76.93-30.09 31.38-75.81 31.38h-15.98v177.49q0 83.23-58.79 140.41-58.8 57.18-142.23 57.18h-485.1Zm196.79-231.05q53.95 0 92.8-31.45 38.84-31.45 38.84-80.41 0-28.43-14.98-50.89-14.99-22.46-40.02-22.46-17.97 0-30.77 14.17-12.79 14.17-12.79 31.42h-67.26q0-45.28 32.95-79.23 32.94-33.95 80.57-33.95 51.83 0 85.86 40.36t34.03 97.54q0 30.11-12.78 60.41-12.78 30.31-36.12 54.49h68.57q29.57 0 51.39-20.05 21.81-20.06 21.81-50.26v-60.78q0-89.27-61.02-151.3-61.03-62.02-148.9-62.02-88.95 0-150.16 59.38-61.22 59.39-61.22 145.44 0 57.61 37.73 98.6 37.74 40.99 91.47 40.99Z"/></svg>