<svg xmlns="http://www.w3.org/2000/svg" height="20" viewBox="0 -960 960 960" width="20"><path d="M153-202q0-51.5 25-95.25T245.5-373q-42-23-67.25-66.5T153-531.45q0-103.44 73.32-173.74 73.31-70.31 177.18-70.31 66.5 0 123 31.5t90.5 87q19-25 46.75-39.5t59.02-14.5q57.35 0 103.29 28.74Q872-653.52 872-601.7q0 41.2-28.04 69.2-28.03 28-67.96 28h-19V-375q0 72.06-50.75 122.53T583.5-202H153Zm179.48-214.5q46.02 0 78.52-35.45 32.5-35.45 32.5-75.05 0-22.5-10.87-29.75t-24.7-7.25q-19.16 0-30.79 10.71Q365.5-542.58 365.5-528h-67q0-42.92 31.09-72.96Q360.68-631 405.98-631q43.52 0 74.02 28.5 30.5 28.5 30.5 76 0 29.31-12.5 61.4-12.5 32.1-33 56.6h68.43q23.07 0 38.82-15.75T588-461.5v-65q0-75.53-53.27-128.77-53.27-53.23-129.76-53.23-76.97 0-130.47 50.55Q221-607.39 221-531.84q0 45.84 32.27 80.59t79.21 34.75ZM238.5-269h345.93q44.07 0 75.32-29.75Q691-328.5 691-375.2V-503q0-30 24.75-48.75t57.75-18.75H772q13 0 23-9t10-21.17q0-11.54-6.75-19.94-6.75-8.39-17.75-10.89-14.5-4-28.75-7.75T722.5-643q-28.61 0-48.56 21.15Q654-600.7 654-571.5v110q0 49.5-35.18 86.75T532.5-337.5H363.52q-38.02 0-72.27 18.75Q257-300 238.5-269Zm445-8Z"/></svg>