<svg xmlns="http://www.w3.org/2000/svg" height="20" viewBox="0 -960 960 960" width="20"><path d="M133.78-182.78q0-57.72 25-104.86t67.5-79.71q-42.56-23-67.53-68.48-24.97-45.47-24.97-96.75 0-111.35 77.71-186.74 77.71-75.4 187.89-75.4 70.05 0 127.97 31.78 57.91 31.79 91.91 88.42 19-24.44 48.16-38.65 29.17-14.22 64.4-14.22 65.83 0 114.31 32.98 48.48 32.97 48.48 86.49 0 45.72-30.18 76.55t-73.17 30.83h-15.04v131.19q0 77.76-54.71 132.16-54.7 54.41-132.92 54.41H133.78Zm192.6-235.98q45.03 0 76.84-31.21 31.8-31.22 31.8-71.94 0-19.68-9.74-29.47t-23.57-9.79q-15.76 0-25.7 11.27-9.94 11.28-9.94 25.86h-81.14q0-49.14 34.2-83.98 34.2-34.85 82.89-34.85 48.05 0 81.37 34.43 33.33 34.44 33.33 85.9 0 30.44-11.09 59.71-11.09 29.26-29.89 52.07h52.6q23.64 0 39.39-15.19 15.75-15.18 15.75-34.98v-66.43q0-77.5-53.11-131.58-53.1-54.08-129.36-54.08-77.2 0-130.87 51.4-53.66 51.4-53.66 128.65 0 44.71 31.98 79.46 31.99 34.75 77.92 34.75ZM238.5-264.48h352.72q43.12 0 73.71-29.42 30.59-29.43 30.59-75.64v-128.37q0-35.66 28.14-59.49 28.14-23.84 63.41-23.84h-4.33q10.74 0 20.46-7.66 9.71-7.65 9.71-17.85 0-9.98-5.8-17.25-5.8-7.26-15.31-9.2-15.63-4.56-30.44-8.03-14.82-3.47-29.65-3.47-28.21 0-47.87 20.31-19.67 20.3-19.67 48.93v114.53q0 54.02-39.65 94.94-39.65 40.93-97.11 40.93H358.43q-37.45 0-70.57 16.48-33.12 16.49-49.36 44.1Zm452.35-4.61Z"/></svg>