<svg xmlns="http://www.w3.org/2000/svg" height="24" viewBox="0 -960 960 960" width="24"><path d="M84.65-124.65q0-64.44 21.48-120.53 21.48-56.1 70.76-93.86-45.76-28.76-69-78.5-23.24-49.74-23.24-104.7 0-129.43 89.72-221.27t217.91-91.84q70.72 0 133.08 29.74 62.36 29.74 104.12 86.74 22.76-35.52 61.88-54.14 39.12-18.62 85.07-18.62 71.87 0 129.52 38.7 57.64 38.69 57.64 103.97 0 55.72-36.1 94.2-36.1 38.48-92.62 38.48h.48v166.24q0 93.95-66.22 159.67-66.22 65.72-160.93 65.72H84.65Zm223.39-279.83q47.76 0 81.64-32.04 33.89-32.05 33.89-73.76 0-20.05-8.89-32.14-8.88-12.1-22.64-12.1-14.28 0-22.66 13T361-512.28H253.85q0-61.2 40.1-105.92 40.09-44.71 99.33-44.71 57.96 0 98.32 43.19 40.36 43.2 40.36 107.44 0 25.95-7.88 54.74-7.88 28.78-25.41 53.06h31.61q25 0 43-15.38t18-39.14v-63.24q0-86.24-57.5-145.48-57.5-59.24-141.5-59.24-83.76 0-141.5 59.24-57.74 59.24-57.74 145.48 0 49 33.5 83.38 33.5 34.38 81.5 34.38Z"/></svg>