<svg xmlns="http://www.w3.org/2000/svg" height="40" viewBox="0 -960 960 960" width="40"><path d="M92-132q0-61.67 26.17-115.33Q144.33-301 194-339.7q-48.74-29.84-75.37-80.17Q92-470.21 92-529.33q0-124 87.02-211.67 87.03-87.67 213.02-87.67 72.29 0 132.96 31.67t106 94.33q21.33-38 59-59.16Q727.67-783 777.02-783q77.98 0 127.15 39.17 49.16 39.16 49.16 93.83 0 51.4-34.46 86.86-34.46 35.47-83.54 35.47h-6.66v179q0 90.75-64.11 153.71Q700.45-132 609-132H92Zm215.22-261.33q52.24 0 89.34-30 37.11-30 37.11-79 0-23.67-12.54-43.17T387.67-565q-15.34 0-26.34 12.5t-11 29.5h-87.66q0-53.67 37.5-92.17t89.83-38.5q55.63 0 93.65 43.84Q521.67-566 521.67-507q0 31.67-10.17 60.17t-29.83 53.5H533q28.67 0 48.83-19.1Q602-431.52 602-458v-64.18q0-90.41-61.37-154.12Q479.27-740 392.2-740q-88.95 0-150.58 61.36Q180-617.27 180-529.33q0 56.33 36.68 96.16 36.69 39.84 90.54 39.84ZM203-220h408.33q54 0 91.34-36.8Q740-293.6 740-348.67v-177q0-37 23.33-63.5 23.34-26.5 55-26.5h11.53q13.81 0 24.64-10.09 10.83-10.1 10.83-23.99 0-10.79-6.98-19.52-6.99-8.73-18.68-13.06-17.34-6.67-33-9.34-15.67-2.66-29.37-2.66-36.85 0-61.74 25t-24.89 61v150q0 64.33-46.41 108.66-46.4 44.34-111.26 44.34H345q-47.51 0-85.76 23.16Q221-259 203-220Zm527.67-10Z"/></svg>