<svg xmlns="http://www.w3.org/2000/svg" height="20" viewBox="0 -960 960 960" width="20"><path d="M189.15-237.38q0-49.2 30-86.41 30-37.21 75.97-59.21-47.77-13.38-76.87-56.12-29.1-42.73-29.1-95.79 0-86.9 64.28-145.86 64.28-58.96 156.22-58.96 70.35 0 126.27 35.35 55.93 35.34 80.31 95.84 8.23-31.15 35.4-49.69 27.18-18.54 61.14-18.54 46.97 0 85.98 21.43 39.02 21.43 39.02 63.25 0 31.59-21.69 52.67-21.69 21.07-52 21.07h-36.31v136.81q0 60.14-43.44 102.15-43.44 42.01-103.91 42.01H189.15Zm153.33-166.81q51.79 0 88.14-32.19 36.34-32.18 36.34-79.08 0-30.58-16.44-50.52-16.45-19.94-42.59-19.94-21.08 0-36.56 13.02-15.49 13.02-15.49 31.05h-28.92q0-30.22 24.36-51.61t57.73-21.39q38.91 0 62.87 28.89 23.96 28.88 23.96 71 0 36.23-17.3 67.56-17.31 31.32-45.89 51.21h100.35q28.08 0 48.06-19.79 19.98-19.79 19.98-46.29v-61.92q0-77.46-55.58-132.04t-134.38-54.58q-80.81 0-136.43 50.56-55.61 50.55-55.61 124.95 0 52.76 35.73 91.93 35.73 39.18 87.67 39.18Z"/></svg>