<svg xmlns="http://www.w3.org/2000/svg" height="20" viewBox="0 -960 960 960" width="20"><path d="M103.09-152.09q0-63.39 22.13-115.8t69.43-88.85q-44.43-24.43-68-72-23.56-47.56-23.56-101.83 0-122.27 84.69-208.81 84.7-86.53 204.52-86.53 72.7 0 134.05 31.56 61.35 31.57 97.78 91.57 20.44-25.87 53.72-39.16 33.28-13.28 72.54-13.28 72.78 0 128.94 37.33 56.15 37.32 56.15 98.63 0 52.69-33.7 88.33-33.7 35.63-85 35.63h-9.87v134.56q0 86.26-61.34 147.46-61.35 61.19-148.74 61.19H103.09Zm211.88-269.04q44.2 0 75.42-28.33 31.22-28.34 31.22-68.34 0-17.24-8.13-29.16-8.13-11.91-20.81-11.91-12.24 0-19.95 12.5-7.72 12.5-7.72 27.07H262.91q0-58.25 38.24-100.73 38.24-42.49 93.9-42.49 55.52 0 92.86 41.32 37.35 41.33 37.35 101.9 0 27.57-8.72 55.72-8.71 28.15-26.58 50.45h33.34q22.5 0 38.75-13.72T578.3-460v-70.57q0-80.75-53-136.22t-131.53-55.47q-77.9 0-131.97 55.37-54.06 55.37-54.06 135.98 0 45.34 31.27 77.56 31.26 32.22 75.96 32.22Z"/></svg>