<svg xmlns="http://www.w3.org/2000/svg" height="40" viewBox="0 -960 960 960" width="40"><path d="M98.67-138.67q0-60.5 26.33-113.08t75.5-90.62q-48.67-28.96-75.25-80.16-26.58-51.2-26.58-109.11 0-121.69 85.65-205.94t209.85-84.25q71.16 0 130.83 31.33 59.67 31.33 104.67 93.17 20.66-37.34 57.1-58.5Q723.21-777 771.44-777q76.25 0 124.07 38.24 47.82 38.24 47.82 91.51 0 50.46-33.49 84.77-33.5 34.31-80.51 34.31H822v177.5q0 88.71-62.85 150.36-62.85 61.64-152.32 61.64H98.67Zm211.25-255.16q51.58 0 88.91-29.54 37.34-29.54 37.34-78.02 0-23.78-12.9-43.36-12.89-19.58-34.27-19.58-15.41 0-26.45 12.45Q351.5-539.43 351.5-523h-84.33q0-51.83 36.67-89.25 36.68-37.42 87.81-37.42 54.48 0 91.83 43.21 37.35 43.2 37.35 100.3 0 31.99-10.66 59.86-10.67 27.87-29.84 52.47h52.47q28.87 0 49.03-19.18Q602-432.19 602-458.47v-63.36q0-88.68-60.6-151.67-60.6-63-147.23-63-87.84 0-149.34 58.86t-61.5 145.81q0 55.5 36.67 96.75t89.92 41.25Z"/></svg>