<svg xmlns="http://www.w3.org/2000/svg" height="40" viewBox="0 -960 960 960" width="40"><path d="M92-132q0-61.67 26.17-115.33Q144.33-301 194-339.7q-49-29.63-75.5-80.17Q92-470.4 92-529.33q0-124 87.17-211.67 87.16-87.67 213.16-87.67 72 0 132.67 31.67 60.67 31.67 106 94.33 21.33-38 59-59.16Q727.67-783 777.02-783q77.98 0 127.15 39.17 49.16 39.16 49.16 93.83 0 51.61-34.75 86.97t-83.25 35.36h-6.66v179q0 90.67-64.17 153.67-64.17 63-155.5 63H92Zm215.01-261.33q51.99 0 89.32-30 37.34-30 37.34-79 0-23.67-12.54-43.17T387.67-565q-15.34 0-26.34 12.64t-11 29.36h-87.66q0-53.67 37.5-92.17t89.83-38.5q55.63 0 93.65 43.84Q521.67-566 521.67-507q0 31.67-10.17 60.17t-29.83 53.5H533q28.67 0 48.83-19.1Q602-431.52 602-458v-64.67q0-90-61-153.66Q480-740 392.33-740q-88.66 0-150.5 61.28Q180-617.45 180-529.33q0 56.33 36.67 96.16 36.66 39.84 90.34 39.84Z"/></svg>