<svg xmlns="http://www.w3.org/2000/svg" height="20" viewBox="0 -960 960 960" width="20"><path d="M97-146q0-66 23-119.5t69-89.5q-44-24-68-72T97-531q0-125.44 85.55-213.22T390.95-832Q465-832 527-800q62 32 98 92 20-25 53.23-38.5t74.65-13.5q78.12 0 133.62 39.5t55.5 99.52q0 53.5-34.58 90.24Q872.83-494 822-494h-9v135q0 88.2-62.65 150.6Q687.7-146 599-146H97Zm216.44-276q44.02 0 74.79-26.59Q419-475.19 419-516.78q0-15.22-7.91-28.22-7.91-13-20.16-13-10.48 0-18.2 12.5Q365-533 365-518H259q0-60.42 39.24-104.21Q337.47-666 394.23-666 451-666 489-622.5 527-579 527-518q0 29.16-8.5 56.08Q510-435 493-414h29q22.92 0 38.96-13.58Q577-441.17 577-460v-70.36q0-81.83-53-137.73Q471-724 392.47-724 315-724 260.5-668.2 206-612.39 206-531.34 206-486 237.27-454t76.17 32ZM236-254h368q43.33 0 72.67-29.14Q706-312.27 706-359v-133q0-45 33.5-77t76.5-32h-6q7 0 15.5-6.25t8.5-12.25q0-7.54-3.64-13.02Q826.72-638 819-639q-18-5-34.33-8.5-16.34-3.5-31.37-3.5-29.37 0-49.33 19.15Q684-612.7 684-585v125q0 63.37-47.34 110.69Q589.33-302 521-302H348q-38 0-67.5 11.5T236-254Zm472 3Z"/></svg>