<svg xmlns="http://www.w3.org/2000/svg" height="40" viewBox="0 -960 960 960" width="40"><path d="M98.67-138.67q0-57 24-109.5t76.66-93.16q-49.33-30.34-75-80.84-25.66-50.5-25.66-106.5 0-121.19 85.66-206.93 85.67-85.73 209.02-85.73 70.32 0 130.32 30.5T630.33-698q22.34-39.33 60.12-59.83t84.04-20.5q68.84 0 120.51 36.16 51.67 36.17 51.67 93.71 0 50.42-33.17 84.94Q880.33-529 830-529h-8.67v178q0 89-62.83 150.67-62.83 61.66-152.17 61.66H98.67Zm210-254q52.02 0 89.84-32.66 37.82-32.67 37.82-79.19 0-25.48-13-43.65-13-18.16-33.66-18.16-16.82 0-28.08 13.14-11.26 13.14-11.26 28.86h-83.66q0-50.67 35.95-88.34 35.96-37.66 88.71-37.66 54.53 0 91.77 41 37.23 41 37.23 101 0 26.9-10.66 57.78Q499-419.67 479-392.67h56q27.39 0 47.86-18.83t20.47-47.5v-63.21q0-89.79-60.83-152.46-60.83-62.66-148.83-62.66-88.95 0-149.98 60.66-61.02 60.67-61.02 148 0 56.34 36.64 96.17 36.65 39.83 89.36 39.83Z"/></svg>