<svg xmlns="http://www.w3.org/2000/svg" height="24" viewBox="0 -960 960 960" width="24"><path d="M80.09-120.09q0-66.39 22.13-123.3t70.43-94.35q-45.43-28.43-69-78.5-23.56-50.06-23.56-106.33 0-131.39 90.69-224.37 90.7-92.97 220.52-92.97 71.7 0 134.55 30.06 62.85 30.07 104.28 87.07 22.44-34.87 61.72-53.66 39.28-18.78 86.54-18.78 75.78 0 132.94 40.33 57.15 40.32 57.15 104.63 0 56.69-36.91 95.83-36.92 39.13-92.79 39.13h1.13v166.56q0 95.26-67.19 161.96-67.2 66.69-162.89 66.69H80.09Zm226.65-285.04q47.43 0 81.15-30.74 33.72-30.74 33.72-73.43 0-18.74-8.72-31.66-8.72-12.91-22.15-12.91-13.31 0-21.52 13-8.22 13-8.22 29.57H250.91q0-62.83 40.92-108.53 40.91-45.69 100.47-45.69 59.27 0 100.11 44.82 40.85 44.83 40.85 109.4 0 27.26-7.72 55.06-7.71 27.81-24.58 51.11h28.34q25 0 43-15.22t18-38.65v-63.57q0-86.56-57.5-146.13-57.5-59.56-141.5-59.56-83.43 0-141.5 59.56-58.06 59.57-58.06 146.13 0 49 33.5 83.22t81.5 34.22Z"/></svg>