<svg xmlns="http://www.w3.org/2000/svg" height="20" viewBox="0 -960 960 960" width="20"><path d="M171.08-219.69q0-50.35 27.5-90.83T270.31-378q-44.89-18.19-72.06-61.31-27.17-43.11-27.17-93.87 0-95.17 68.8-159.8 68.79-64.63 166.7-64.63 68.42 0 124.63 33.42 56.21 33.42 85.41 91.42 13.61-28.07 41.07-44.59 27.46-16.52 60.08-16.52 52.16 0 94.64 25.08 42.47 25.08 42.47 71.91 0 36.39-24.86 60.93t-59.98 24.54h-27.66v133.15q0 66.1-47.09 112.34-47.1 46.24-113.33 46.24H171.08Zm166.4-190.66q48.91 0 83.33-33.81 34.42-33.82 34.42-77.07 0-26.54-13.66-40.14-13.65-13.59-33.64-13.59-20.12 0-33.68 11.86-13.56 11.87-13.56 28.18h-47.96q0-36.57 27.72-62.29 27.73-25.71 67.07-25.71 41.21 0 68.44 28.69 27.23 28.69 27.23 73.5 0 32.77-14.9 64.48-14.91 31.71-39.45 53.9h84.39q25.58 0 43.44-17.77 17.87-17.76 17.87-41.76v-63.47q0-76.49-54.42-130.4-54.43-53.9-132.08-53.9-78.89 0-133.44 50.55-54.56 50.56-54.56 125.53 0 49.3 34 86.26 34 36.96 83.44 36.96Z"/></svg>